<svg width="120" height="113" viewBox="0 0 120 113" fill="none" xmlns="http://www.w3.org/2000/svg">
<path d="M76.7485 14.5934L23.5938 28.5951V43.8933L29.8167 71.6375L55.2273 87.7135L86.6015 82.0091L99.3068 52.7092V40.004L106.826 36.1146L112.79 30.4102L110.456 14.5934L101.64 11.7412L91.7874 14.5934H86.6015H76.7485Z" fill="white"/>
<path d="M3.23363 30.7532L3.19222 30.7557C2.91779 30.7725 2.70892 31.0086 2.7257 31.283L2.8878 33.9332C2.90458 34.2077 3.14066 34.4165 3.4151 34.3998L3.45651 34.3972C3.73095 34.3804 3.93981 34.1444 3.92303 33.8699L3.76094 31.2197C3.74415 30.9453 3.50807 30.7364 3.23363 30.7532Z" fill="#F5B545"/>
<path d="M17.1066 35.6934C18.1645 35.7798 19.0582 36.1566 19.7877 36.8239C19.8392 36.8709 19.8744 36.9333 19.8884 37.0022C19.9023 37.0711 19.8943 37.143 19.8655 37.2076L19.7617 37.4306C19.7473 37.465 19.7251 37.4956 19.6969 37.5201C19.6688 37.5445 19.6354 37.5622 19.5993 37.5717C19.5632 37.5812 19.5254 37.5824 19.4889 37.575C19.4523 37.5676 19.4179 37.5519 19.3884 37.5291C18.8387 37.1074 18.2579 36.7997 17.6459 36.6061C17.2587 36.5611 17.0236 36.4937 16.9407 36.4038C16.7367 36.1756 16.792 35.9388 17.1066 35.6934Z" fill="#F5B545"/>
<path d="M14.1425 37.8277C14.8911 37.1271 15.314 36.3626 15.087 36.12C14.86 35.8774 14.0691 36.2487 13.3204 36.9493C12.5718 37.6498 12.1489 38.4144 12.3759 38.657C12.6029 38.8996 13.3938 38.5283 14.1425 37.8277Z" fill="#F5B545"/>
<path d="M21.1587 38.837L21.1178 38.8441C20.878 38.886 20.7175 39.1143 20.7594 39.3542L21.1945 41.8472C21.2363 42.087 21.4647 42.2475 21.7045 42.2056L21.7454 42.1985C21.9852 42.1566 22.1457 41.9283 22.1038 41.6884L21.6687 39.1954C21.6269 38.9556 21.3985 38.7951 21.1587 38.837Z" fill="#F5B545"/>
<path d="M11.7434 40.0673L11.7019 40.0655C11.4415 40.0541 11.2213 40.256 11.2099 40.5164L11.0995 43.0447C11.0881 43.305 11.29 43.5253 11.5504 43.5367L11.5918 43.5385C11.8522 43.5499 12.0725 43.348 12.0839 43.0876L12.1943 40.5594C12.2056 40.299 12.0038 40.0787 11.7434 40.0673Z" fill="#F5B545"/>
<path d="M6.80852 42.3204C6.37982 41.8986 6.14992 41.584 6.1188 41.3766C5.95285 40.2495 6.25018 40.0663 7.01076 40.8269C7.56392 41.3835 7.99607 41.9833 8.30722 42.6264C8.61837 43.2694 8.45242 43.4405 7.80938 43.1398C7.58466 43.036 7.25104 42.7629 6.80852 42.3204Z" fill="#F5B545"/>
<path d="M21.2589 43.9329L21.2352 43.9129C21.047 43.7539 20.7657 43.7775 20.6067 43.9656L18.9732 45.8986C18.8142 46.0867 18.8379 46.3681 19.026 46.5271L19.0498 46.5471C19.2379 46.7061 19.5193 46.6825 19.6783 46.4944L21.3117 44.5614C21.4707 44.3733 21.4471 44.0919 21.2589 43.9329Z" fill="#F5B545"/>
<path d="M15.7673 46.8629L17.0015 46.9199C17.1882 46.9303 17.3144 47.0219 17.3801 47.1948C17.4803 47.4437 17.3853 47.6235 17.0949 47.7341C16.7284 47.8689 16.1044 47.8879 15.2228 47.7911C14.438 47.4385 13.9332 47.5457 13.7085 48.1127C13.6867 48.1673 13.6506 48.2151 13.6039 48.2509C13.5573 48.2867 13.5018 48.3093 13.4434 48.3162C13.3849 48.3231 13.3257 48.3141 13.272 48.2901C13.2183 48.2662 13.172 48.2282 13.1381 48.1801C12.6506 47.4748 12.4639 46.8836 11.6809 46.4739C11.0274 46.1282 10.3291 45.658 9.58579 45.0634C9.43021 44.9355 9.39391 44.7816 9.47688 44.6019L9.57541 44.3841C9.6653 44.1766 9.80013 44.1438 9.97991 44.2855C10.7267 44.8871 11.5339 45.257 12.4017 45.3953C12.452 45.4034 12.4996 45.4226 12.5409 45.4514C12.5823 45.4801 12.6162 45.5177 12.6402 45.5612L13.5218 47.0807C13.5944 47.2086 13.6878 47.2276 13.8019 47.1377C14.3239 46.7298 14.979 46.6382 15.7673 46.8629Z" fill="#F5B545"/>
<path d="M105.807 71.2262L109.634 88.0698C109.659 88.7439 109.572 89.0464 109.375 88.9773C109.347 88.9669 99.1072 85.2781 78.6543 77.9107C76.2757 77.0534 73.7278 76.1908 71.0104 75.323C70.9113 75.292 70.8216 75.2367 70.7494 75.1621C70.6772 75.0875 70.6248 74.9961 70.597 74.8961C70.5692 74.7961 70.5668 74.6907 70.5901 74.5896C70.6134 74.4884 70.6616 74.3947 70.7304 74.317L71.1245 73.8762L80.1582 65.024L84.6906 60.6627C88.2688 57.2297 91.9041 53.7223 95.5964 50.1407C95.8349 49.909 95.8868 49.5201 95.752 48.9738C95.5895 48.3239 95.4788 47.6152 95.4201 46.8477C97.0519 47.3386 98.5851 48.0127 100.02 48.8701C100.839 49.3628 101.192 50.1355 101.384 50.9963C102.853 57.731 104.328 64.4743 105.807 71.2262Z" fill="#F5B545"/>
<path d="M15.7116 50.7683C15.2484 50.471 14.9666 50.2653 14.8663 50.1512C14.6693 49.9196 14.6866 49.6586 14.9182 49.3682C16.0003 49.6759 16.9182 50.2135 17.6719 50.981C17.7259 51.0357 17.7588 51.1077 17.7645 51.1839C17.7702 51.26 17.7484 51.3352 17.703 51.3958C17.582 51.5652 17.4178 51.6154 17.2103 51.5462C16.8612 51.4252 16.3616 51.1659 15.7116 50.7683Z" fill="#F5B545"/>
<path d="M22.5491 51.9145L19.8397 51.5192C19.6413 51.4903 19.457 51.6276 19.4281 51.826L19.3951 52.0518C19.3662 52.2502 19.5035 52.4345 19.7019 52.4634L22.4114 52.8587C22.6098 52.8876 22.794 52.7502 22.823 52.5519L22.8559 52.3261C22.8849 52.1277 22.7475 51.9434 22.5491 51.9145Z" fill="#F5B545"/>
<path d="M25.6227 52.7591C25.1974 52.8525 24.8898 52.8334 24.6996 52.7021C24.6548 52.6715 24.6174 52.6314 24.5899 52.5846C24.5624 52.5379 24.5456 52.4857 24.5406 52.4316C24.5356 52.3776 24.5427 52.3232 24.5612 52.2722C24.5797 52.2213 24.6093 52.175 24.6478 52.1368C24.8068 51.9847 25.0246 51.8896 25.3012 51.8516L27.3807 51.5716C27.4511 51.5626 27.5224 51.5811 27.5801 51.6235C27.6379 51.6658 27.6778 51.7288 27.6918 51.7997L27.7178 51.9553C27.7281 52.0088 27.7275 52.0637 27.7161 52.1171C27.7047 52.1704 27.6827 52.221 27.6513 52.2659C27.6199 52.3108 27.5798 52.3491 27.5334 52.3786C27.4869 52.4081 27.435 52.4281 27.3807 52.4376L25.6227 52.7591Z" fill="#F5B545"/>
<path d="M30.806 61.2432C31.0515 61.9761 31.2278 62.6537 31.3349 63.276C31.5061 64.2717 31.8535 64.2821 32.6884 64.5777C37.2451 66.1818 41.7999 67.7773 46.3531 69.3642L52.0523 71.2726L62.844 74.8974L63.1241 75.1567C63.6115 75.5094 64.1889 75.7911 64.8561 76.002C65.0324 76.0573 65.0757 76.168 64.9858 76.3339C64.4257 77.3607 63.43 77.7341 62.7196 78.512C61.0186 80.3789 58.9339 82.5413 57.3885 83.9726C53.9313 87.1671 50.965 90.0867 48.4897 92.7315C45.0878 96.3616 41.8622 99.4264 37.4231 103.959C36.8423 104.553 36.1906 105.015 35.468 105.343L26.9062 66.6053C26.965 65.5993 27.3678 64.7713 28.1145 64.1213C28.9305 62.932 29.8276 61.9726 30.806 61.2432Z" fill="#F5B545"/>
<path d="M17.9378 20.5133L14.3647 16.6809C14.2472 16.5565 14.1158 16.5392 13.9706 16.6291L6.59118 21.0526C6.25583 21.2427 5.87381 21.3551 5.44512 21.3897L7.14088 11.5314C7.32411 11.0854 7.39153 10.4337 7.34313 9.57635C7.33276 9.40349 7.2688 9.2531 7.15125 9.12518L0 1.2168L36.3163 2.6429C36.3516 2.64324 36.3857 2.65429 36.4143 2.67462C36.4429 2.69496 36.4647 2.72366 36.4769 2.75706C36.4892 2.79046 36.4913 2.82704 36.483 2.86213C36.4747 2.89722 36.4564 2.92922 36.4304 2.95405L17.9378 20.5133Z" fill="#51D2BC"/>
<path d="M109.197 37.7875C108.202 38.0831 107.305 38.5861 106.356 38.8869C101.643 40.3874 97.3184 39.95 93.3806 37.5749C87.4999 34.0278 84.9104 28.6553 85.6122 21.4574C85.7644 19.8947 86.5198 17.9137 87.8784 15.5144L89.8439 12.9163C93.391 9.4902 97.3996 7.89816 101.87 8.14016C117.795 9.00101 122.623 29.2102 109.197 37.7875ZM104.328 19.5905C104.124 19.4591 103.925 19.2845 103.732 19.0667C102.425 17.5835 99.9718 17.874 98.4835 18.8022C95.9165 20.3995 93.8577 24.4755 95.875 27.1825C96.9882 28.676 98.6166 29.0719 100.76 28.3701C100.94 28.3113 101.076 28.3649 101.17 28.5308C101.668 29.4401 102.554 29.8791 103.83 29.848C111.37 29.6769 113.859 19.0771 107.253 15.5248C103.923 13.7374 100.613 13.4885 97.3218 14.778C94.9727 15.7011 92.6494 18.2007 91.9338 20.4358C90.1498 26.0053 91.7211 30.0364 96.6477 32.5291C98.8084 33.6216 101.301 34.0952 104.126 33.95C106.278 33.8411 108.134 32.918 109.633 31.466C109.676 31.4245 109.708 31.3726 109.726 31.3153C109.743 31.2579 109.746 31.1971 109.734 31.1384C109.721 31.0797 109.694 31.0252 109.655 30.98C109.615 30.9348 109.565 30.9004 109.509 30.88C109.121 30.7417 108.677 30.6864 108.176 30.7141C107.284 30.7607 106.516 31.5905 105.832 31.7149C100.024 32.7832 92.582 30.6674 93.2043 23.5524C93.4947 20.2283 95.6727 17.122 98.9398 16.1367C103.171 14.861 109.534 17.0857 109.239 22.4064C109.101 24.9509 107.764 26.7694 105.23 27.8619C104.767 28.0624 104.409 27.9915 104.157 27.6492C104.111 27.5882 104.083 27.5161 104.075 27.4404C104.066 27.3647 104.079 27.2882 104.11 27.2188L107.325 20.0364C107.35 19.9814 107.362 19.9217 107.362 19.8614C107.361 19.801 107.348 19.7416 107.322 19.6869C107.297 19.6323 107.26 19.5839 107.214 19.5448C107.168 19.5058 107.114 19.4772 107.056 19.4608C106.416 19.2845 105.84 19.1652 105.329 19.103C105.063 19.0684 104.814 19.2154 104.582 19.5438C104.513 19.6406 104.428 19.6562 104.328 19.5905Z" fill="#51D2BC"/>
<path d="M98.3937 22.2486C97.3527 24.1112 97.4574 26.1512 98.6274 26.8051C99.7975 27.459 101.59 26.4792 102.631 24.6166C103.672 22.7541 103.567 20.714 102.397 20.0601C101.227 19.4062 99.4347 20.386 98.3937 22.2486Z" fill="#51D2BC"/>
<path d="M54.1978 29.2739L33.618 33.9117C32.8776 34.0786 32.4126 34.8141 32.5795 35.5545L32.6798 35.9997C32.8467 36.7401 33.5821 37.205 34.3225 37.0382L54.9024 32.4003C55.6428 32.2335 56.1077 31.498 55.9409 30.7576L55.8405 30.3124C55.6737 29.572 54.9382 29.107 54.1978 29.2739Z" fill="#51D2BC"/>
<path d="M58.3181 5.29297L57.9914 5.72339C57.5178 6.34569 57.6613 6.74327 58.4219 6.91613C59.2983 7.10801 60.7607 6.8539 61.1911 7.917C61.4262 8.4909 61.7183 9.07689 62.0675 9.67499C62.1183 9.76196 62.1904 9.83467 62.2769 9.88624C62.3634 9.93781 62.4614 9.96652 62.5617 9.96964C62.662 9.97275 62.7612 9.95018 62.8498 9.90406C62.9385 9.85793 63.0137 9.78979 63.0684 9.70611C63.3899 9.21173 63.6647 8.65166 63.8929 8.0259C64.3441 6.79686 66.0243 7.09245 67.0148 6.8176C67.1077 6.7915 67.1928 6.74283 67.2624 6.67591C67.3321 6.609 67.3841 6.52591 67.4138 6.43405C67.4436 6.34218 67.4502 6.24439 67.4331 6.14936C67.4159 6.05433 67.3755 5.96501 67.3155 5.88934L66.8903 5.35001C68.166 5.29815 69.2239 5.33446 70.064 5.45892C74.9456 6.19185 79.3467 7.57128 83.2671 9.59721C86.593 11.312 88.7849 12.4183 89.8428 12.9161L87.8773 15.5142C86.5325 16.8453 85.3985 18.3232 84.4754 19.9481C84.911 18.5583 85.5679 17.3414 86.4461 16.2973C86.4971 16.238 86.5313 16.1661 86.5449 16.089C86.5585 16.012 86.5512 15.9327 86.5236 15.8594C86.496 15.7862 86.4492 15.7218 86.3881 15.6729C86.327 15.624 86.2539 15.5925 86.1764 15.5816C84.4789 15.3327 82.7382 15.4036 80.9543 15.7943C64.3977 19.4313 47.3484 23.2463 29.8065 27.2394C26.1349 28.076 24.4582 30.2679 24.7762 33.815L24.3406 32.6741C24.2715 32.4909 24.1643 32.465 24.0191 32.5963C22.4115 34.0622 21.8065 35.7407 22.2041 37.6318C23.1928 42.3716 24.2248 47.1115 25.3 51.8513C25.0234 51.8893 24.8056 51.9844 24.6466 52.1365C24.6081 52.1748 24.5786 52.221 24.56 52.272C24.5415 52.3229 24.5345 52.3774 24.5394 52.4314C24.5444 52.4854 24.5612 52.5376 24.5887 52.5844C24.6162 52.6311 24.6537 52.6712 24.6984 52.7018C24.8886 52.8332 25.1963 52.8522 25.6215 52.7588L28.1107 64.121C27.3639 64.7709 26.9612 65.5989 26.9024 66.605C26.0346 67.3932 25.3605 68.3561 24.8799 69.4935C24.5757 70.216 24.5066 70.9109 24.6725 71.5782C25.5679 75.1218 26.1902 78.5669 26.5394 81.9135C19.2896 73.1184 15.2602 62.0985 15.7114 50.7675C16.3614 51.1651 16.8609 51.4243 17.2101 51.5453C17.4175 51.6145 17.5818 51.5644 17.7028 51.395C17.7481 51.3343 17.7699 51.2591 17.7642 51.183C17.7585 51.1069 17.7257 51.0349 17.6716 50.9801C16.918 50.2126 16.0001 49.675 14.918 49.3673C15.1358 48.8971 15.236 48.3716 15.2187 47.7908C16.1003 47.8876 16.7244 47.8686 17.0908 47.7338C17.3812 47.6231 17.4763 47.4434 17.3761 47.1944C17.3104 47.0216 17.1842 46.93 16.9975 46.9196L15.7633 46.8625L17.6457 36.605C18.2576 36.7986 18.8385 37.1063 19.3881 37.5281C19.4177 37.5508 19.4521 37.5665 19.4887 37.5739C19.5252 37.5813 19.563 37.5802 19.5991 37.5706C19.6351 37.5611 19.6686 37.5434 19.6967 37.519C19.7249 37.4945 19.7471 37.4639 19.7615 37.4295L19.8652 37.2065C19.8941 37.1419 19.9021 37.07 19.8882 37.0011C19.8742 36.9323 19.839 36.8698 19.7875 36.8228C19.058 36.1555 18.1643 35.7787 17.1064 35.6923L18.0969 35.5419C18.2767 35.5142 18.3994 35.4174 18.4651 35.2515C23.5818 22.6257 32.3648 13.6335 44.8143 8.27482C49.039 6.45632 53.5403 5.46237 58.3181 5.29297ZM21.6685 39.1944C21.6484 39.0793 21.5833 38.9768 21.4877 38.9096C21.3921 38.8424 21.2736 38.8159 21.1585 38.836L21.1176 38.8431C21.0605 38.8531 21.006 38.8742 20.9572 38.9052C20.9083 38.9362 20.866 38.9765 20.8327 39.0239C20.7994 39.0713 20.7758 39.1247 20.7632 39.1812C20.7505 39.2377 20.7492 39.2961 20.7591 39.3532L21.1943 41.8461C21.2144 41.9613 21.2794 42.0638 21.375 42.131C21.4707 42.1982 21.5891 42.2247 21.7042 42.2046L21.7452 42.1974C21.8022 42.1875 21.8567 42.1664 21.9056 42.1354C21.9544 42.1044 21.9967 42.064 22.03 42.0167C22.0633 41.9693 22.0869 41.9158 22.0996 41.8593C22.1122 41.8028 22.1136 41.7444 22.1036 41.6874L21.6685 39.1944ZM21.3093 44.5604C21.3471 44.5157 21.3758 44.464 21.3936 44.4082C21.4114 44.3524 21.418 44.2936 21.4131 44.2353C21.4082 44.1769 21.3919 44.1201 21.365 44.068C21.3381 44.016 21.3013 43.9697 21.2565 43.9319L21.2328 43.9119C21.1881 43.8741 21.1363 43.8454 21.0805 43.8276C21.0247 43.8098 20.966 43.8032 20.9076 43.8081C20.8492 43.813 20.7924 43.8293 20.7404 43.8562C20.6883 43.8831 20.6421 43.9199 20.6043 43.9647L18.9708 45.8976C18.933 45.9423 18.9044 45.994 18.8866 46.0498C18.8688 46.1056 18.8622 46.1644 18.8671 46.2228C18.872 46.2811 18.8883 46.338 18.9152 46.39C18.942 46.442 18.9789 46.4883 19.0236 46.5261L19.0474 46.5462C19.0921 46.584 19.1439 46.6126 19.1997 46.6304C19.2555 46.6482 19.3142 46.6548 19.3726 46.6499C19.4309 46.645 19.4878 46.6287 19.5398 46.6018C19.5919 46.575 19.6381 46.5381 19.6759 46.4934L21.3093 44.5604ZM22.8558 52.3256C22.8627 52.2784 22.8602 52.2303 22.8485 52.1841C22.8368 52.1379 22.8162 52.0944 22.7877 52.0562C22.7592 52.018 22.7234 51.9857 22.6825 51.9613C22.6415 51.9369 22.5962 51.9208 22.549 51.9139L19.8396 51.5186C19.7924 51.5118 19.7443 51.5142 19.6981 51.5259C19.6519 51.5376 19.6084 51.5583 19.5702 51.5868C19.532 51.6153 19.4997 51.651 19.4753 51.692C19.4509 51.7329 19.4348 51.7783 19.4279 51.8255L19.395 52.0512C19.3881 52.0984 19.3906 52.1465 19.4023 52.1927C19.414 52.2389 19.4346 52.2824 19.4631 52.3206C19.4916 52.3588 19.5274 52.3911 19.5683 52.4155C19.6093 52.4399 19.6546 52.456 19.7018 52.4629L22.4112 52.8581C22.4584 52.865 22.5065 52.8626 22.5527 52.8509C22.5989 52.8392 22.6424 52.8185 22.6806 52.79C22.7188 52.7615 22.7511 52.7257 22.7755 52.6848C22.7999 52.6438 22.816 52.5985 22.8229 52.5513L22.8558 52.3256Z" fill="#ECF2FE"/>
<path d="M83.6724 34.6303L36.1419 45.1675C35.5156 45.3064 35.1204 45.9267 35.2592 46.553L35.4276 47.3125C35.5665 47.9388 36.1868 48.334 36.8131 48.1951L84.3436 37.6579C84.97 37.519 85.3651 36.8987 85.2263 36.2724L85.0579 35.5129C84.9191 34.8866 84.2988 34.4914 83.6724 34.6303Z" fill="#ECF2FE"/>
<path d="M108.133 39.3486C109.16 45.1464 109.792 49.4973 109.523 54.6727C109.289 59.0703 108.164 63.0997 106.924 67.9485C106.589 69.2691 106.216 70.3616 105.804 71.2259C104.325 64.474 102.85 57.7307 101.381 50.996C101.189 50.1351 100.836 49.3625 100.017 48.8698C98.5822 48.0124 97.0489 47.3383 95.4171 46.8473L94.0117 41.2829C95.2598 41.6702 96.6686 41.9312 98.2382 42.066C100.465 42.2596 102.556 41.9761 104.513 41.2155C105.628 40.7851 106.893 39.9035 108.133 39.3486Z" fill="#ECF2FE"/>
<path d="M84.8808 40.8787L37.5509 51.4582C36.813 51.6231 36.3486 52.355 36.5135 53.0929L36.5927 53.4472C36.7576 54.1851 37.4895 54.6496 38.2274 54.4846L85.5573 43.9051C86.2952 43.7402 86.7596 43.0083 86.5947 42.2704L86.5155 41.9161C86.3506 41.1782 85.6187 40.7138 84.8808 40.8787Z" fill="#ECF2FE"/>
<path d="M86.5485 47.1222L38.7345 57.7224C38.111 57.8606 37.7175 58.4781 37.8558 59.1017L38.0309 59.8915C38.1691 60.515 38.7866 60.9085 39.4102 60.7702L87.2242 50.1701C87.8478 50.0319 88.2412 49.4143 88.103 48.7908L87.9279 48.001C87.7896 47.3774 87.1721 46.984 86.5485 47.1222Z" fill="#ECF2FE"/>
<path d="M39.1057 65.8324C38.9777 64.8229 39.4721 64.1816 40.5888 63.9084C44.0011 63.0787 46.2828 62.5515 47.4341 62.3268C52.4851 61.3415 56.9293 60.128 61.1714 59.3812C62.5854 59.1323 63.8662 58.8281 65.014 58.4685C66.7046 57.9396 68.5612 57.7477 70.1895 57.3536C76.5058 55.822 82.4471 54.4841 88.0132 53.3397C88.9847 53.1392 89.5084 53.5454 89.5845 54.5584C89.5845 54.5653 89.5724 54.6327 89.5482 54.7607C89.3788 55.6353 88.8619 56.1816 87.9976 56.3994C85.4358 57.0424 83.4808 57.6492 81.1108 58.1003C78.2172 58.65 75.7608 59.1548 73.7418 59.6146C56.2102 63.6146 46.7046 65.7995 45.2249 66.1695C43.6588 66.5636 41.9873 66.771 40.2102 66.7918C39.941 66.7964 39.6794 66.701 39.4756 66.524C39.2718 66.347 39.1401 66.1008 39.1057 65.8324Z" fill="#ECF2FE"/>
<path d="M84.6865 60.6621L80.154 65.0234L52.0469 71.2723L46.3477 69.3639C47.696 68.7693 49.11 68.3492 50.5897 68.1038C52.581 67.7753 53.9293 67.5195 54.6346 67.3363C57.9483 66.465 61.7703 65.7909 64.6536 65.1115C71.2638 63.5593 77.9414 62.0761 84.6865 60.6621Z" fill="#ECF2FE"/>
<path d="M66.8903 5.35031L67.3155 5.88963C67.3755 5.9653 67.4159 6.05462 67.433 6.14965C67.4502 6.24468 67.4436 6.34248 67.4138 6.43434C67.384 6.5262 67.332 6.60929 67.2624 6.6762C67.1928 6.74312 67.1077 6.79179 67.0147 6.81789C66.0242 7.09274 64.344 6.79715 63.8929 8.02619C63.6647 8.65195 63.3898 9.21202 63.0683 9.7064C63.0137 9.79009 62.9385 9.85822 62.8498 9.90435C62.7611 9.95047 62.6619 9.97305 62.5617 9.96993C62.4614 9.96681 62.3633 9.9381 62.2768 9.88654C62.1904 9.83497 62.1183 9.76225 62.0674 9.67528C61.7183 9.07719 61.4261 8.49119 61.191 7.91729C60.7606 6.8542 59.2982 7.1083 58.4218 6.91642C57.6612 6.74356 57.5178 6.34598 57.9914 5.72369L58.3181 5.29326C58.8056 4.9752 59.2343 4.56379 59.6042 4.05904C59.7114 3.91038 59.7477 3.74616 59.7131 3.56638L59.3138 1.36759C59.2951 1.26361 59.3052 1.15652 59.3429 1.05783C59.3806 0.959145 59.4445 0.872606 59.5277 0.807529C59.6109 0.742453 59.7103 0.701303 59.8151 0.688509C59.92 0.675715 60.0263 0.691761 60.1228 0.734921L62.2593 1.68911C62.407 1.75498 62.5677 1.7851 62.7282 1.77699C62.8887 1.76887 63.0444 1.72276 63.1824 1.64244L64.8626 0.677878C64.9677 0.616687 65.0879 0.587039 65.2093 0.592418C65.3307 0.597798 65.4481 0.637981 65.5478 0.708245C65.6475 0.778508 65.7253 0.875931 65.772 0.989058C65.8187 1.10219 65.8325 1.22631 65.8116 1.34685L65.433 3.58194C65.4019 3.75134 65.4382 3.90692 65.542 4.04866C65.9292 4.56033 66.3786 4.99421 66.8903 5.35031Z" fill="#62A4E7"/>
<path d="M117.001 51.4216C118.657 51.4216 119.999 50.0796 119.999 48.4242C119.999 46.7687 118.657 45.4268 117.001 45.4268C115.346 45.4268 114.004 46.7687 114.004 48.4242C114.004 50.0796 115.346 51.4216 117.001 51.4216Z" fill="#62A4E7"/>
<path d="M16.4701 88.3446C17.7847 88.3446 18.8504 87.2789 18.8504 85.9643C18.8504 84.6497 17.7847 83.584 16.4701 83.584C15.1555 83.584 14.0898 84.6497 14.0898 85.9643C14.0898 87.2789 15.1555 88.3446 16.4701 88.3446Z" fill="#62A4E7"/>
<path d="M6.55758 21.6491L5.27149 24.045C5.20926 24.1625 5.11073 24.2247 4.9759 24.2316C4.81687 24.242 4.71142 24.2005 4.65956 24.1072C4.4383 23.6992 4.37953 23.3967 4.48325 23.1997L5.44781 21.3898C5.8765 21.3552 6.25853 21.2429 6.59388 21.0527L6.55758 21.6491Z" fill="#FAC068"/>
<path d="M4.12092 25.6341L4.05996 25.6216C3.74855 25.5577 3.44427 25.7583 3.38035 26.0697L2.87565 28.5284C2.81173 28.8398 3.01236 29.1441 3.32378 29.208L3.38474 29.2205C3.69615 29.2845 4.00043 29.0838 4.06435 28.7724L4.56905 26.3137C4.63297 26.0023 4.43234 25.698 4.12092 25.6341Z" fill="#FAC068"/>
<path d="M3.88574 35.8821L3.84733 35.8978C3.58215 36.006 3.45491 36.3087 3.56313 36.5739L4.50365 38.8786C4.61186 39.1437 4.91456 39.271 5.17973 39.1628L5.21814 39.1471C5.48332 39.0389 5.61056 38.7362 5.50234 38.471L4.56182 36.1663C4.45361 35.9012 4.15091 35.7739 3.88574 35.8821Z" fill="#FAC068"/>
<path d="M71.1226 73.876L70.7285 74.3168C70.6597 74.3945 70.6115 74.4882 70.5882 74.5894C70.5649 74.6905 70.5673 74.7959 70.5951 74.8959C70.6229 74.9959 70.6754 75.0873 70.7476 75.1619C70.8197 75.2365 70.9094 75.2918 71.0085 75.3228C73.7259 76.1906 76.2738 77.0532 78.6524 77.9105C99.1053 85.2779 109.346 88.9667 109.373 88.9771C109.57 89.0462 109.657 88.7437 109.633 88.0696C110.473 90.6867 109.816 92.2839 107.662 92.8613C85.0137 97.9226 62.362 102.979 39.7068 108.03C37.2419 108.58 35.8279 107.684 35.4648 105.344C36.1874 105.015 36.8391 104.554 37.4199 103.959C41.859 99.4265 45.0845 96.3617 48.4865 92.7316C50.9618 90.0869 53.9281 87.1672 57.3853 83.9728C58.9307 82.5415 61.0154 80.379 62.7164 78.5121C63.4268 77.7342 64.4225 77.3609 64.9826 76.3341C65.0724 76.1681 65.0292 76.0575 64.8529 76.0022C64.1857 75.7913 63.6083 75.5095 63.1209 75.1569C63.9661 75.2087 65.2419 75.7947 65.9419 75.2658C67.1399 74.3531 68.1355 74.0108 69.6757 74.3116C70.0439 74.379 70.4017 74.2597 70.6195 73.9953L71.1226 73.876Z" fill="#FAC068"/>
<path d="M7.14088 11.5314C5.35004 9.04566 3.09767 6.46139 0.38375 3.77859C0.237745 3.63584 0.14481 3.44755 0.120295 3.24482C0.0957795 3.0421 0.141153 2.83709 0.248919 2.66364C0.366465 2.47695 0.283492 1.99467 0 1.2168L7.15125 9.12518C7.2688 9.2531 7.33276 9.40349 7.34313 9.57635C7.39153 10.4337 7.32411 11.0854 7.14088 11.5314Z" fill="#DAE4EE"/>
<path d="M87.8777 15.5137C86.519 17.913 85.7636 19.894 85.6115 21.4566C84.9097 28.6546 87.4991 34.0271 93.3798 37.5742C97.3176 39.9493 101.643 40.3866 106.355 38.8862C107.304 38.5854 108.201 38.0824 109.197 37.7868C109.058 38.4264 108.704 38.9467 108.134 39.3477C106.894 39.9026 105.629 40.7842 104.514 41.2146C102.557 41.9752 100.465 42.2587 98.239 42.0651C96.6694 41.9303 95.2606 41.6692 94.0125 41.282C90.0056 39.7678 87.0237 37.1662 85.067 33.4774C82.7714 29.1593 82.5743 24.6494 84.4758 19.9476C85.3989 18.3227 86.5328 16.8447 87.8777 15.5137Z" fill="#DAE4EE"/>
<path d="M17.9376 20.513C17.9929 21.0938 17.8356 21.4585 17.4657 21.6072C17.2893 21.6798 17.1338 21.6487 16.9989 21.5139L13.9912 18.5061C13.8702 18.3851 13.7284 18.3488 13.5659 18.3972C11.0906 19.1301 8.75348 20.2139 6.55469 21.6487L6.59099 21.0523L13.9704 16.6288C14.1156 16.5389 14.247 16.5562 14.3645 16.6807L17.9376 20.513Z" fill="#DAE4EE"/>
<path d="M24.7764 33.8146L30.8023 61.2425C29.8239 61.9719 28.9267 62.9313 28.1108 64.1206L25.6216 52.7584L27.3796 52.4369C27.4339 52.4275 27.4858 52.4074 27.5323 52.3779C27.5788 52.3484 27.6189 52.3101 27.6503 52.2652C27.6816 52.2203 27.7037 52.1697 27.7151 52.1164C27.7265 52.0631 27.7271 52.0081 27.7167 51.9546L27.6908 51.7991C27.6768 51.7282 27.6368 51.6652 27.5791 51.6228C27.5213 51.5804 27.45 51.5619 27.3796 51.5709L25.3001 51.8509C24.2249 47.1111 23.1929 42.3712 22.2042 37.6314C21.8066 35.7403 22.4116 34.0618 24.0192 32.596C24.1644 32.4646 24.2716 32.4905 24.3407 32.6737L24.7764 33.8146Z" fill="#DAE4EE"/>
<path d="M26.9037 66.6045L35.4655 105.343C35.8285 107.683 37.2425 108.579 39.7075 108.029C62.3626 102.978 85.0143 97.9217 107.663 92.8603C107.884 94.4161 107.559 95.5794 106.688 96.3504C106.228 96.7583 105.22 97.1213 103.664 97.4394C100.688 98.0461 97.3739 98.9848 94.8743 99.5034C91.1682 100.271 84.3333 101.766 74.3696 103.989C58.2693 107.585 46.4664 110.245 38.9607 111.97C36.7516 112.478 34.0498 113.121 33.2615 110.202C32.4975 107.367 31.9028 104.712 31.4776 102.236C31.3894 101.702 31.099 101.08 30.9849 100.504C30.2105 96.6114 29.3307 92.7445 28.3454 88.9035C28.2486 88.5129 27.991 87.3391 27.5727 85.3824C27.2995 84.1136 26.9556 82.9571 26.5407 81.913C26.1915 78.5665 25.5692 75.1213 24.6738 71.5777C24.5078 70.9105 24.577 70.2156 24.8812 69.493C25.3618 68.3556 26.0359 67.3927 26.9037 66.6045Z" fill="#DAE4EE"/>
<path d="M70.6186 73.9951C70.4008 74.2595 70.043 74.3788 69.6748 74.3114C68.1346 74.0106 67.1389 74.3529 65.941 75.2656C65.2409 75.7945 63.9652 75.2085 63.1199 75.1567L62.8398 74.8974L64.6549 75.1048C64.8312 75.1256 64.9833 75.0754 65.1112 74.9544C66.9003 73.295 68.4405 73.7565 70.6186 73.9951Z" fill="#DAE4EE"/>
</svg>
