<svg width="16" height="16" viewBox="0 0 16 16" fill="none" xmlns="http://www.w3.org/2000/svg">
<path fill-rule="evenodd" clip-rule="evenodd" d="M1.89792 1.43006C1.76422 1.29646 1.5527 1.30195 1.42546 1.44232C1.29822 1.58269 1.30344 1.80479 1.43714 1.93839L7.26578 7.76295C7.40127 7.89834 7.40127 8.1087 7.26578 8.24409L7.2652 8.24468L1.47166 14.0622C1.33828 14.1962 1.33356 14.4183 1.46113 14.5583C1.58869 14.6984 1.80023 14.7033 1.93361 14.5694L7.72656 8.75242L7.72687 8.75211C7.85566 8.62331 7.94418 8.46893 7.99242 8.30497C8.04164 8.46843 8.131 8.62215 8.26062 8.75015L8.26093 8.75045L14.1031 14.5394C14.2373 14.6724 14.4488 14.666 14.5755 14.525C14.7022 14.3841 14.6961 14.162 14.5618 14.029L8.71914 8.23957L8.71862 8.23906C8.58136 8.10363 8.58149 7.89101 8.71666 7.75594L14.5571 1.94014C14.6908 1.80654 14.696 1.58444 14.5688 1.44407C14.4416 1.3037 14.23 1.29821 14.0963 1.43181L8.25588 7.24761C8.12714 7.37625 8.03859 7.53082 7.99036 7.69513C7.94164 7.53363 7.8537 7.38167 7.72656 7.25462L1.89792 1.43006Z" fill="white"/>
</svg>
