<svg xmlns="http://www.w3.org/2000/svg" width="1068" height="214" fill="none"><g clip-path="url(#clip0_1556_50846)"><rect width="1068" height="214" fill="#EFEAFF" rx="8"/><g clip-path="url(#clip1_1556_50846)"><path fill="#C1A3FF" fill-opacity=".4" fill-rule="evenodd" d="M841.066-25.831a11.1 11.1 0 0 1 15.26-3.805L989.78 50.55a11.1 11.1 0 0 1 3.805 15.26l-66.126 110.052a5.56 5.56 0 1 0 9.532 5.727l66.129-110.051c6.33-10.545 2.93-24.185-7.613-30.52L862.054-39.17c-10.545-6.335-24.185-2.934-30.521 7.61L728.436 140.024c-6.336 10.544-2.935 24.185 7.609 30.52l133.454 80.188c10.544 6.335 24.185 2.934 30.52-7.61l11.57-19.255a5.561 5.561 0 0 0-9.532-5.728l-11.57 19.255a11.1 11.1 0 0 1-15.26 3.805l-133.454-80.187a11.1 11.1 0 0 1-3.805-15.26zm14.278 41.013a5.56 5.56 0 0 0-5.728 9.533L944.94 81.99a5.562 5.562 0 0 0 5.728-9.532zm-30.541 40.033a5.56 5.56 0 0 1 7.63-1.903l95.325 57.277a5.56 5.56 0 1 1-5.728 9.532l-95.324-57.276a5.56 5.56 0 0 1-1.903-7.63m-15.28 36.227a5.56 5.56 0 1 0-5.728 9.532l66.727 40.094a5.56 5.56 0 0 0 5.728-9.533z" clip-rule="evenodd"/></g></g><defs><clipPath id="clip0_1556_50846"><rect width="1068" height="214" fill="#fff" rx="8"/></clipPath><clipPath id="clip1_1556_50846"><path fill="#fff" d="m820.119-77.34 228.778 137.464-137.464 228.778-228.778-137.464z"/></clipPath></defs></svg>