<svg xmlns="http://www.w3.org/2000/svg" xml:space="preserve" id="Calque_1" x="0" y="0" version="1.1" viewBox="0 0 841.89 283.46"><style>.st0{fill:#282727}</style><path d="M9.98 167.16V85.27h18.01v6.99h.29c1.92-2.98 4.7-5.34 8.35-7.09s7.85-2.63 12.6-2.63c5.67 0 10.71 1.32 15.13 3.96 3.26 2.02 6.24 4.97 8.93 8.86 1.97-2.64 3.77-4.63 5.4-5.98 2.5-2.06 5.5-3.72 9-4.97s7.54-1.87 12.1-1.87c4.8 0 9.01.69 12.64 2.09 3.62 1.39 6.79 3.23 9.51 5.51q4.065 3.42 6.3 6.99t3.42 8.43c.79 3.24 1.19 7.84 1.19 13.79v47.82h-19.66v-45.45c0-7.58-1.39-13.02-4.18-16.31s-6.46-4.93-11.02-4.93c-3.46 0-6.59.98-9.4 2.95s-4.74 4.44-5.8 7.42-1.58 8.14-1.58 15.49v40.84H61.62v-45.45c0-7.11-1.53-12.42-4.57-15.95-3.05-3.53-6.81-5.29-11.27-5.29-2.98 0-5.47.5-7.49 1.51s-3.66 2.5-4.93 4.47-2.22 4.42-2.85 7.34c-.62 2.93-.94 7.11-.94 12.53v40.84H9.98zM187.95 169.83c-5.76 0-11.31-1.1-16.64-3.31s-9.92-5.24-13.76-9.11-6.84-8.05-9-12.57c-2.83-5.86-4.25-12.08-4.25-18.65 0-7.59 1.93-14.82 5.8-21.71 3.86-6.89 9.25-12.27 16.17-16.13s14.14-5.8 21.68-5.8c7.59 0 14.81 1.92 21.68 5.76s12.2 9.16 15.99 15.95c3.79 6.8 5.69 14.15 5.69 22.08 0 5.62-.92 10.89-2.77 15.81s-4.37 9.21-7.56 12.86-6.51 6.48-9.94 8.5q-5.145 3.03-11.13 4.68c-5.985 1.65-7.98 1.64-11.96 1.64m0-18.01c6.87 0 12.54-2.52 17.03-7.56s6.73-11 6.73-17.86c0-4.61-1.1-8.97-3.31-13.07q-3.315-6.165-8.97-9.51c-3.77-2.23-7.57-3.35-11.42-3.35-3.79 0-7.65 1.1-11.56 3.31s-6.99 5.31-9.22 9.29c-2.23 3.99-3.35 8.4-3.35 13.25 0 4.75 1.1 9.12 3.31 13.11s5.2 7.05 8.97 9.18c3.78 2.14 7.7 3.21 11.79 3.21M243.04 167.16V85.27h18.15v7.13c3.55-3.46 7.09-5.96 10.62-7.53 3.53-1.56 7.5-2.34 11.92-2.34q8.43 0 15.63 3.96c4.8 2.64 8.55 5.88 11.24 9.72 2.06 2.98 3.5 6.67 4.32 11.09.58 3.17.86 8.38.86 15.63v44.22h-19.66v-40.4c0-7.44-.5-12.84-1.51-16.21-1.06-3.36-2.81-5.88-5.26-7.56s-5.43-2.52-8.93-2.52c-3.79 0-7.14 1-10.05 2.99s-4.91 4.62-6.01 7.89c-1.15 3.31-1.73 8.93-1.73 16.85v38.96h-19.59zM331.56 167.16V85.27h18.15v7.13c3.55-3.46 7.09-5.96 10.62-7.53 3.53-1.56 7.5-2.34 11.92-2.34q8.43 0 15.63 3.96c4.8 2.64 8.55 5.88 11.24 9.72 2.06 2.98 3.5 6.67 4.32 11.09.58 3.17.86 8.38.86 15.63v44.22h-19.66v-40.4c0-7.44-.5-12.84-1.51-16.21-1.06-3.36-2.81-5.88-5.26-7.56s-5.43-2.52-8.93-2.52c-3.79 0-7.14 1-10.05 2.99s-4.91 4.62-6.01 7.89c-1.15 3.31-1.73 8.93-1.73 16.85v38.96h-19.59zM502.47 85.27v81.89h-18.01v-10.15c-3.7 4.03-7.84 7.18-12.42 9.44-4.59 2.26-9.95 3.38-16.1 3.38-7.35 0-13.97-1.76-19.88-5.29s-10.72-8.65-14.44-15.38q-5.58-10.08-5.58-22.98c0-8.31 1.81-15.82 5.44-22.54 3.62-6.72 8.64-11.92 15.05-15.59s13.1-5.51 20.06-5.51c4.75 0 8.98.74 12.68 2.23s6.85 3.28 9.47 5.37 4.43 3.92 5.44 5.51h.29V85.27zm-18.58 40.77c0-7.63-2.29-13.8-6.88-18.51-4.59-4.7-10.31-7.06-17.18-7.06-4.42 0-8.49 1.12-12.21 3.35s-6.65 5.45-8.79 9.65q-3.21 6.3-3.21 13.14c0 7.15 2.36 13.14 7.09 17.97 4.73 4.82 10.48 7.24 17.25 7.24 7.15 0 12.93-2.5 17.32-7.49 4.41-4.99 6.61-11.09 6.61-18.29M781.9 236.78h10.3c.19 3.51.69 6.24 1.51 8.21 1.1 2.74 2.77 4.81 5.01 6.23 2.23 1.42 4.96 2.12 8.17 2.12 4.61 0 8.23-1.3 10.88-3.89 2.64-2.59 3.96-6.03 3.96-10.3 0-3.65-1.04-6.72-3.13-9.22s-6.49-4.9-13.22-7.2c-5.33-1.87-9.1-3.5-11.31-4.9-3.22-2.11-5.65-4.59-7.31-7.42s-2.48-6.15-2.48-9.94c0-6.48 2.15-11.86 6.45-16.13s9.69-6.41 16.17-6.41c4.42 0 8.4 1.06 11.96 3.17 3.55 2.11 6.29 5.04 8.21 8.79 1.25 2.45 1.97 5.79 2.16 10.01h-10.3c-.43-4.18-1.75-7.33-3.96-9.47s-4.95-3.21-8.21-3.21c-3.46 0-6.35 1.17-8.68 3.49-2.33 2.33-3.49 5.17-3.49 8.53 0 2.21.56 4.18 1.69 5.91q1.695 2.595 4.86 4.32c1.63.91 4.11 1.95 7.42 3.1 5.86 2.02 10.08 3.84 12.68 5.47q5.325 3.39 8.07 8.25c1.82 3.24 2.74 7.29 2.74 12.14 0 4.51-1.01 8.67-3.03 12.46s-4.95 6.7-8.79 8.72-8.14 3.03-12.89 3.03c-4.56 0-8.52-.85-11.88-2.56-3.36-1.7-6.04-3.74-8.03-6.12s-3.41-4.9-4.25-7.56c-.86-2.67-1.28-5.88-1.28-9.62M191.42 236.78h10.3c.19 3.51.69 6.24 1.51 8.21 1.1 2.74 2.77 4.81 5.01 6.23 2.23 1.42 4.96 2.12 8.17 2.12 4.61 0 8.23-1.3 10.88-3.89 2.64-2.59 3.96-6.03 3.96-10.3 0-3.65-1.04-6.72-3.13-9.22s-6.49-4.9-13.22-7.2c-5.33-1.87-9.1-3.5-11.31-4.9-3.22-2.11-5.65-4.59-7.31-7.42s-2.48-6.15-2.48-9.94c0-6.48 2.15-11.86 6.45-16.13s9.69-6.41 16.17-6.41c4.42 0 8.4 1.06 11.96 3.17 3.55 2.11 6.29 5.04 8.21 8.79 1.25 2.45 1.97 5.79 2.16 10.01h-10.3c-.43-4.18-1.75-7.33-3.96-9.47s-4.95-3.21-8.21-3.21c-3.46 0-6.35 1.17-8.68 3.49-2.33 2.33-3.49 5.17-3.49 8.53 0 2.21.56 4.18 1.69 5.91q1.695 2.595 4.86 4.32c1.63.91 4.11 1.95 7.42 3.1 5.86 2.02 10.08 3.84 12.68 5.47q5.325 3.39 8.07 8.25c1.82 3.24 2.74 7.29 2.74 12.14 0 4.51-1.01 8.67-3.03 12.46s-4.95 6.7-8.79 8.72-8.14 3.03-12.89 3.03c-4.56 0-8.52-.85-11.88-2.56-3.36-1.7-6.04-3.74-8.03-6.12s-3.41-4.9-4.25-7.56c-.86-2.67-1.28-5.88-1.28-9.62M345.88 224.1h-73.46c.34 4.37 1.31 8.24 2.92 11.6s3.82 6.34 6.63 8.93 6.06 4.69 9.76 6.3 7.71 2.41 12.03 2.41c6.48 0 12.33-1.72 17.54-5.15s8.99-8.08 11.34-13.94h10.95c-1.83 4.94-4.03 9.03-6.63 12.24-4.13 5.14-9.08 9.11-14.84 11.92s-12 4.21-18.73 4.21c-11.52 0-21.33-4.03-29.42-12.1s-12.14-17.91-12.14-29.53c0-7.73 1.87-14.94 5.62-21.64s8.98-11.94 15.7-15.74c6.72-3.79 13.66-5.69 20.81-5.69 7.11 0 14 1.9 20.67 5.69s11.9 9.07 15.66 15.84c3.77 6.77 5.65 13.83 5.65 21.17.01.84-.01 1.99-.06 3.48m-10.44-9.29c-.82-4.13-1.96-7.62-3.42-10.48-1.47-2.86-3.52-5.57-6.16-8.14s-5.87-4.7-9.69-6.41c-3.82-1.7-7.91-2.56-12.28-2.56-4.27 0-8.25.79-11.92 2.38-3.67 1.58-6.88 3.61-9.62 6.09-2.74 2.47-4.89 5.27-6.45 8.39s-2.73 6.7-3.49 10.73zM372.72 260.69v-80.67h10.3v11.67h.29q2.085-4.605 4.86-7.38t6.81-4.32c2.69-1.03 6.39-1.72 11.09-2.05v10.95c-5.28.53-9.66 1.93-13.14 4.21s-6 5.35-7.56 9.22-2.34 7.6-2.34 11.2v47.17zM457.03 260.69l-34.07-80.67h11.09l28.45 67.84 28.88-67.84h11.09l-34.07 80.67zM647.57 236.85h11.38c-2.74 5.14-5.52 9.24-8.35 12.32-3.94 4.23-8.51 7.52-13.72 9.87s-11.08 3.53-17.61 3.53c-8.16 0-15.57-1.85-22.22-5.55s-11.91-8.85-15.77-15.45c-3.87-6.6-5.8-13.67-5.8-21.21 0-7.35 1.9-14.37 5.69-21.07s9.12-11.94 15.99-15.74c6.87-3.79 14.09-5.69 21.68-5.69 6.24 0 12.21 1.24 17.9 3.71s10.5 5.87 14.44 10.19c2.93 3.22 5.52 7.4 7.78 12.53h-11.38q-2.805-4.89-5.55-7.71-4.245-4.245-10.05-6.84c-3.87-1.73-8.1-2.59-12.71-2.59-5.81 0-11.39 1.44-16.75 4.32-5.35 2.88-9.48 6.85-12.39 11.92s-4.36 10.6-4.36 16.6c0 5.95 1.46 11.54 4.39 16.75s6.99 9.27 12.17 12.17c5.19 2.91 10.85 4.36 17 4.36 6.14 0 11.67-1.42 16.57-4.25s8.79-6.89 11.67-12.17M763.06 224.03H689.6c.34 4.37 1.31 8.24 2.92 11.6s3.82 6.34 6.63 8.93 6.06 4.69 9.76 6.3 7.71 2.41 12.03 2.41c6.48 0 12.33-1.72 17.54-5.15s8.99-8.08 11.34-13.94h10.95c-1.83 4.94-4.03 9.03-6.63 12.24-4.13 5.14-9.08 9.11-14.84 11.92s-12 4.21-18.73 4.21c-11.52 0-21.33-4.03-29.42-12.1s-12.14-17.91-12.14-29.53c0-7.73 1.87-14.94 5.62-21.64s8.98-11.94 15.7-15.74c6.72-3.79 13.66-5.69 20.81-5.69 7.11 0 14 1.9 20.67 5.69s11.9 9.07 15.66 15.84c3.77 6.77 5.65 13.83 5.65 21.17.02.84-.01 1.99-.06 3.48m-10.44-9.29c-.82-4.13-1.96-7.62-3.42-10.48-1.47-2.86-3.52-5.57-6.16-8.14s-5.87-4.7-9.69-6.41c-3.82-1.7-7.91-2.56-12.28-2.56-4.27 0-8.25.79-11.92 2.38-3.67 1.58-6.88 3.61-9.62 6.09-2.74 2.47-4.89 5.27-6.45 8.39s-2.73 6.7-3.49 10.73zM659.67 135.04h-63.52c1.97 5.52 4.91 9.7 8.82 12.53s8.65 4.25 14.22 4.25c4.37 0 8.02-.88 10.95-2.63s5.4-4.36 7.42-7.81h20.67c-1.34 3.74-2.83 6.87-4.47 9.36a47.6 47.6 0 0 1-9.18 10.01c-3.58 2.93-7.47 5.17-11.67 6.73s-9.14 2.34-14.8 2.34c-13.68 0-24.66-5.09-32.91-15.27-6.48-8.07-9.72-17.55-9.72-28.45 0-8.07 1.9-15.55 5.69-22.43q5.685-10.335 15.81-15.99c6.75-3.77 14.1-5.65 22.08-5.65 7.73 0 14.84 1.81 21.32 5.44s11.52 8.74 15.13 15.34q5.4 9.9 5.4 21.21c-.02 3.65-.43 7.32-1.24 11.02m-18.87-15.85c-1.2-6.19-3.77-10.94-7.71-14.22-3.94-3.29-8.81-4.93-14.62-4.93-4.32 0-8.1.95-11.34 2.84q-4.86 2.85-8.1 7.89c-1.39 2.21-2.55 5.02-3.46 8.43h45.23z" class="st0"/><linearGradient id="SVGID_1_" x1="539.479" x2="539.479" y1="273.281" y2="71.605" gradientUnits="userSpaceOnUse"><stop offset="0" style="stop-color:#fff7b0"/><stop offset=".268" style="stop-color:#ffeb1d"/><stop offset=".333" style="stop-color:#ffe000"/><stop offset=".441" style="stop-color:#ffd300"/><stop offset=".552" style="stop-color:#fecb00"/><stop offset=".671" style="stop-color:#fdc800"/><stop offset="1" style="stop-color:#ffde33"/></linearGradient><path d="M561.52 71.6h-.48c-26.34 0-47.78 27.84-47.78 62.06V268.9c0 2.42 1.87 4.38 4.18 4.38h.48c26.34 0 47.78-27.84 47.78-62.06V75.99c0-2.42-1.87-4.39-4.18-4.39" style="fill:url(#SVGID_1_)"/><linearGradient id="SVGID_00000159440030911282970310000012104714556204981155_" x1="539.479" x2="539.479" y1="75.985" y2="268.901" gradientUnits="userSpaceOnUse"><stop offset="0" style="stop-color:#fff7b0"/><stop offset=".268" style="stop-color:#ffeb1d"/><stop offset=".333" style="stop-color:#ffe000"/><stop offset=".441" style="stop-color:#ffd300"/><stop offset=".552" style="stop-color:#fecb00"/><stop offset=".671" style="stop-color:#fdc800"/><stop offset="1" style="stop-color:#ffde33"/></linearGradient><path d="M517.93 268.9h-.48V133.66c0-31.8 19.55-57.68 43.59-57.68h.48v135.24c0 31.81-19.56 57.68-43.59 57.68" style="fill:url(#SVGID_00000159440030911282970310000012104714556204981155_)"/><linearGradient id="SVGID_00000154389803290757630470000003149084241787843724_" x1="539.412" x2="539.412" y1="9.574" y2="61.885" gradientUnits="userSpaceOnUse"><stop offset="0" style="stop-color:#fff7b0"/><stop offset=".268" style="stop-color:#ffeb1d"/><stop offset=".333" style="stop-color:#ffe000"/><stop offset=".441" style="stop-color:#ffd300"/><stop offset=".552" style="stop-color:#fecb00"/><stop offset=".671" style="stop-color:#fdc800"/><stop offset="1" style="stop-color:#ffde33"/></linearGradient><path d="M539.41 9.57c-14.42 0-26.16 11.73-26.16 26.16 0 14.42 11.73 26.15 26.16 26.15s26.16-11.73 26.16-26.15-11.74-26.16-26.16-26.16" style="fill:url(#SVGID_00000154389803290757630470000003149084241787843724_)"/><linearGradient id="SVGID_00000114045821643599752060000010878815311328870555_" x1="539.412" x2="539.412" y1="57.701" y2="13.758" gradientUnits="userSpaceOnUse"><stop offset="0" style="stop-color:#fff7b0"/><stop offset=".268" style="stop-color:#ffeb1d"/><stop offset=".333" style="stop-color:#ffe000"/><stop offset=".441" style="stop-color:#ffd300"/><stop offset=".552" style="stop-color:#fecb00"/><stop offset=".671" style="stop-color:#fdc800"/><stop offset="1" style="stop-color:#ffde33"/></linearGradient><circle cx="539.41" cy="35.73" r="21.97" style="fill:url(#SVGID_00000114045821643599752060000010878815311328870555_)"/></svg>