<svg xmlns="http://www.w3.org/2000/svg" xml:space="preserve" id="Calque_2" x="0" y="0" version="1.1" viewBox="0 0 529 169"><g id="icon"><g fill="#74CEE2"><path d="M186.7 66.94V34.07l23.25 16.44zM245.8 72.31c-7.42 0-14.19 2.69-19.45 7.11 3.35 3.82 5.88 8.38 7.33 13.43 2.86-3.55 7.21-5.85 12.13-5.85 8.62 0 15.62 6.99 15.62 15.61 0 8.63-6.99 15.62-15.62 15.62-6.53 0-12.11-4.01-14.45-9.7h-15.27c2.75 13.9 15 24.39 29.72 24.39 16.74 0 30.31-13.57 30.31-30.31s-13.58-30.3-30.32-30.3M287.06 132.27V84.91h-8.88V71.53h8.88V63.6c0-5.92 1.97-10.76 5.92-14.51s9.27-5.62 15.98-5.62c7.11 0 12.63 1.97 16.58 5.92l-8.82 9.83c-1.11-1.22-3.08-1.83-5.92-1.83-2.09 0-3.8.64-5.12 1.93q-1.98 1.92-1.98 6.66v5.57h8.88v13.38h-8.88v35.84zM329.74 132.27V84.91h-8.88V71.53h8.88V63.6c0-5.92 1.97-10.76 5.92-14.51s9.28-5.62 15.98-5.62c7.1 0 12.63 1.97 16.58 5.92l-8.82 9.83c-1.1-1.22-3.08-1.83-5.92-1.83-2.09 0-3.8.64-5.12 1.93q-1.98 1.92-1.98 6.66v5.57h8.88v13.38h-8.88v35.7zM371.4 52.91c1.58-1.6 3.71-2.4 6.4-2.4q4.26 0 6.63 2.4c1.58 1.6 2.37 3.58 2.37 5.95s-.79 4.34-2.37 5.92q-2.37 2.37-6.51 2.37t-6.51-2.37c-1.58-1.57-2.37-3.55-2.37-5.92s.79-4.35 2.36-5.95m14.8 67.55V73.01h-16.58v59.26zM403.48 124.87c-5.92-4.93-8.88-11.34-8.88-19.24v-5.92c0-7.9 2.96-14.31 8.88-19.24s12.85-7.4 20.78-7.4c9.47 0 17.34 3.35 23.62 10.06l-11.84 8.88c-3.55-3.55-7.5-5.33-11.84-5.33-3.95 0-7.4 1.58-10.36 4.74q-4.44 4.725-4.44 11.25 0 6.51 4.14 11.25t10.65 4.74c4.34 0 8.29-1.78 11.84-5.33l11.84 8.88c-6.31 6.71-14.21 10.07-23.68 10.07-7.88-.01-14.79-2.48-20.71-7.41M453.55 102.67c0-8.68 2.76-15.79 8.29-21.31 5.52-5.53 12.63-8.29 21.31-8.29s15.59 2.76 20.72 8.29c3.9 4.2 6.33 9.32 7.26 15.36.29 1.89.44 3.88.44 5.96v5.92h-40.85c.39 3.16 1.77 5.62 4.14 7.4s5.13 2.67 8.29 2.67c5.53 0 10.46-1.58 14.8-4.74l9.47 9.47q-6.51 8.88-24.27 8.88c-8.68 0-15.79-2.76-21.31-8.29-5.53-5.53-8.29-12.64-8.29-21.32m37.89-13.32c-2.37-1.78-5.13-2.67-8.29-2.67s-5.92.89-8.29 2.67c-2.37 1.77-3.55 4.24-3.55 7.4h23.68c0-3.16-1.18-5.63-3.55-7.4"/></g><path d="M26.5 124.87c-5.92-4.93-8.88-11.34-8.88-19.24v-5.92c0-7.9 2.96-14.31 8.88-19.24s12.85-7.4 20.78-7.4c9.47 0 17.34 3.35 23.62 10.06l-11.84 8.88c-3.55-3.55-7.5-5.33-11.84-5.33-3.95 0-7.4 1.58-10.36 4.74q-4.44 4.725-4.44 11.25 0 6.51 4.14 11.25c2.76 3.16 6.31 4.74 10.66 4.74 4.34 0 8.29-1.78 11.84-5.33l11.84 8.88c-6.31 6.71-14.21 10.07-23.68 10.07-7.9-.01-14.8-2.48-20.72-7.41M81.48 52.91q2.37-2.4 6.39-2.4 4.26 0 6.63 2.4c1.58 1.6 2.37 3.58 2.37 5.95s-.79 4.34-2.37 5.92q-2.37 2.37-6.51 2.37t-6.51-2.37c-1.58-1.57-2.37-3.55-2.37-5.92.01-2.37.8-4.35 2.37-5.95m14.8 67.6v-47.5H79.71v59.26zM124.27 94.62v37.65H107.7V74.79l16.57-1.78v5.39c3.99-3.55 8.72-5.33 14.21-5.33 7.5 0 13.22 2.27 17.17 6.81 3.94 4.54 5.92 9.77 5.92 15.69v24.94l-16.58 11.76V99.71c0-3.95-.99-7.01-2.96-9.18s-4.95-3.31-8.94-3.43c-3.43.24-6.37 2.74-8.82 7.52M230.19 102.62l-.19-3.29c-1.64-15.19-14.5-27.02-30.13-27.02-16.74 0-30.31 13.57-30.31 30.31s13.57 30.31 30.31 30.31c7.42 0 14.19-2.69 19.46-7.11a35 35 0 0 1-7.33-13.44c-2.86 3.56-7.21 5.85-12.13 5.85-6.53 0-12.11-4.01-14.44-9.7h45.93c-.75-1.82-1.17-3.81-1.17-5.91m-44.76-5.91c2.33-5.69 7.92-9.7 14.44-9.7 6.53 0 12.12 4.01 14.45 9.7z"/></g></svg>