<svg width="826" height="54" viewBox="0 0 826 54" fill="none" xmlns="http://www.w3.org/2000/svg">
<g clip-path="url(#clip0_3940_7829)" filter="url(#filter0_d_3940_7829)">
<rect x="0.5" y="0.5" width="825" height="53" rx="5.5" fill="white" stroke="url(#paint0_linear_3940_7829)"/>
<path d="M0 6C0 2.68629 2.68629 0 6 0H8V54H6C2.68629 54 0 51.3137 0 48V6Z" fill="url(#paint1_linear_3940_7829)"/>
<g opacity="0.64" clip-path="url(#clip1_3940_7829)">
<path fill-rule="evenodd" clip-rule="evenodd" d="M752.191 -5.66959C749.872 -6.82684 746.839 -5.81763 745.499 -3.13095L727.075 33.794C726.975 33.9953 726.888 34.1985 726.813 34.4026L754.107 24.3965L745.56 5.62972C745.19 4.81635 745.549 3.85669 746.362 3.48627C747.176 3.11585 748.135 3.47494 748.506 4.28831L760.391 30.3866C761.648 33.1672 764.693 34.6863 767.671 34.0188L767.676 34.0177L803.223 26.1639L803.42 25.7688C804.761 23.0821 803.744 20.0524 801.424 18.8952L795.401 15.8896C794.601 15.4906 794.276 14.5188 794.675 13.7191C795.074 12.9194 796.046 12.5945 796.846 12.9935L802.869 15.9991C806.95 18.0353 808.372 23.0947 806.317 27.2138L805.787 28.2744L805.779 28.2913L805.77 28.3102L805.763 28.3236L787.893 64.1387C785.838 68.2578 780.941 70.1646 776.86 68.1285L727.626 43.5637C723.545 41.5275 722.124 36.4681 724.179 32.349L742.603 -4.57594C744.658 -8.69502 749.555 -10.6018 753.636 -8.56566L785.174 7.17025C785.974 7.56927 786.299 8.54105 785.9 9.34078C785.501 10.1405 784.529 10.4653 783.729 10.0663L752.191 -5.66959ZM755.452 27.3505L726.725 37.8821C727.113 39.086 727.936 40.1011 729.071 40.6676L778.305 65.2324C779.44 65.7989 780.746 65.8462 781.941 65.4319L778.316 53.4397C778.057 52.5842 778.541 51.681 779.396 51.4224C780.252 51.1637 781.155 51.6476 781.414 52.5031L784.668 63.2688C784.787 63.0866 784.897 62.8949 784.997 62.6938L801.365 29.8892L776.247 35.4385L779.607 46.5558C779.865 47.4114 779.381 48.3145 778.526 48.573C777.67 48.8315 776.767 48.3475 776.509 47.492L773.078 36.1387L768.379 37.1769L768.377 37.1774C763.903 38.1793 759.333 35.8991 757.443 31.7221L757.442 31.7201L755.452 27.3505Z" fill="url(#paint2_linear_3940_7829)"/>
</g>
</g>
<defs>
<filter id="filter0_d_3940_7829" x="-4" y="-1" width="834" height="62" filterUnits="userSpaceOnUse" color-interpolation-filters="sRGB">
<feFlood flood-opacity="0" result="BackgroundImageFix"/>
<feColorMatrix in="SourceAlpha" type="matrix" values="0 0 0 0 0 0 0 0 0 0 0 0 0 0 0 0 0 0 127 0" result="hardAlpha"/>
<feOffset dy="3"/>
<feGaussianBlur stdDeviation="2"/>
<feColorMatrix type="matrix" values="0 0 0 0 0.405052 0 0 0 0 0.409471 0 0 0 0 0.420833 0 0 0 0.1 0"/>
<feBlend mode="normal" in2="BackgroundImageFix" result="effect1_dropShadow_3940_7829"/>
<feBlend mode="normal" in="SourceGraphic" in2="effect1_dropShadow_3940_7829" result="shape"/>
</filter>
<linearGradient id="paint0_linear_3940_7829" x1="0" y1="0" x2="1.49429" y2="63.5978" gradientUnits="userSpaceOnUse">
<stop stop-color="#EB0055"/>
<stop offset="1" stop-color="#320096"/>
</linearGradient>
<linearGradient id="paint1_linear_3940_7829" x1="0" y1="0" x2="22.4205" y2="9.24196" gradientUnits="userSpaceOnUse">
<stop stop-color="#EB0055"/>
<stop offset="1" stop-color="#320096"/>
</linearGradient>
<linearGradient id="paint2_linear_3940_7829" x1="746.396" y1="-12.1781" x2="734.811" y2="52.657" gradientUnits="userSpaceOnUse">
<stop stop-color="#EB0055"/>
<stop offset="1" stop-color="#320096"/>
</linearGradient>
<clipPath id="clip0_3940_7829">
<rect width="826" height="54" fill="white"/>
</clipPath>
<clipPath id="clip1_3940_7829">
<rect width="77.6771" height="77.6771" fill="white" transform="translate(747.68 -22) rotate(26.5168)"/>
</clipPath>
</defs>
</svg>
