<svg width="834" height="62" viewBox="0 0 834 62" fill="none" xmlns="http://www.w3.org/2000/svg">
<g clip-path="url(#clip0_3940_7829)" filter="url(#filter0_d_3940_7829)">
<rect x="4.5" y="1.5" width="825" height="53" rx="5.5" fill="white" stroke="url(#paint0_linear_3940_7829)"/>
<path d="M4 7C4 3.68629 6.68629 1 10 1H12V55H10C6.68629 55 4 52.3137 4 49V7Z" fill="url(#paint1_linear_3940_7829)"/>
<g opacity="0.64" clip-path="url(#clip1_3940_7829)">
<path fill-rule="evenodd" clip-rule="evenodd" d="M756.191 -4.66957C753.872 -5.82682 750.839 -4.81762 749.499 -2.13093L731.075 34.794C730.975 34.9953 730.888 35.1985 730.813 35.4027L758.107 25.3965L749.56 6.62973C749.19 5.81636 749.549 4.85671 750.362 4.48629C751.176 4.11587 752.135 4.47495 752.506 5.28833L764.391 31.3867C765.648 34.1672 768.693 35.6864 771.671 35.0188L771.676 35.0177L807.223 27.164L807.42 26.7688C808.761 24.0821 807.744 21.0525 805.424 19.8952L799.401 16.8896C798.601 16.4906 798.276 15.5188 798.675 14.7191C799.074 13.9194 800.046 13.5945 800.846 13.9936L806.869 16.9991C810.95 19.0353 812.372 24.0947 810.317 28.2138L809.787 29.2744C809.779 29.291 809.771 29.3073 809.763 29.3236L791.893 65.1388C789.838 69.2578 784.941 71.1647 780.86 69.1285L731.626 44.5637C727.545 42.5275 726.124 37.4681 728.179 33.349L746.603 -3.57592C748.658 -7.69501 753.555 -9.60182 757.636 -7.56565L789.174 8.17027C789.974 8.56929 790.299 9.54107 789.9 10.3408C789.501 11.1405 788.529 11.4654 787.729 11.0663L756.191 -4.66957ZM759.452 28.3505L730.725 38.8822C731.113 40.0861 731.936 41.1012 733.071 41.6676L782.305 66.2324C783.44 66.7989 784.746 66.8463 785.941 66.4319L782.316 54.4397C782.057 53.5842 782.541 52.681 783.396 52.4224C784.252 52.1638 785.155 52.6476 785.414 53.5031L788.668 64.2688C788.787 64.0866 788.897 63.8949 788.997 63.6938L805.365 30.8892L780.247 36.4385L783.607 47.5558C783.865 48.4114 783.381 49.3145 782.526 49.573C781.67 49.8315 780.767 49.3476 780.509 48.492L777.078 37.1387L772.379 38.177L772.377 38.1774C767.903 39.1793 763.333 36.8991 761.443 32.7222L761.442 32.7201L759.452 28.3505Z" fill="url(#paint2_linear_3940_7829)"/>
</g>
</g>
<defs>
<filter id="filter0_d_3940_7829" x="0" y="0" width="834" height="62" filterUnits="userSpaceOnUse" color-interpolation-filters="sRGB">
<feFlood flood-opacity="0" result="BackgroundImageFix"/>
<feColorMatrix in="SourceAlpha" type="matrix" values="0 0 0 0 0 0 0 0 0 0 0 0 0 0 0 0 0 0 127 0" result="hardAlpha"/>
<feOffset dy="3"/>
<feGaussianBlur stdDeviation="2"/>
<feColorMatrix type="matrix" values="0 0 0 0 0.405052 0 0 0 0 0.409471 0 0 0 0 0.420833 0 0 0 0.1 0"/>
<feBlend mode="normal" in2="BackgroundImageFix" result="effect1_dropShadow_3940_7829"/>
<feBlend mode="normal" in="SourceGraphic" in2="effect1_dropShadow_3940_7829" result="shape"/>
</filter>
<linearGradient id="paint0_linear_3940_7829" x1="4" y1="1" x2="5.49429" y2="64.5978" gradientUnits="userSpaceOnUse">
<stop stop-color="#EB0055"/>
<stop offset="1" stop-color="#320096"/>
</linearGradient>
<linearGradient id="paint1_linear_3940_7829" x1="4" y1="1" x2="26.4205" y2="10.242" gradientUnits="userSpaceOnUse">
<stop stop-color="#EB0055"/>
<stop offset="1" stop-color="#320096"/>
</linearGradient>
<linearGradient id="paint2_linear_3940_7829" x1="750.396" y1="-11.1781" x2="738.811" y2="53.657" gradientUnits="userSpaceOnUse">
<stop stop-color="#EB0055"/>
<stop offset="1" stop-color="#320096"/>
</linearGradient>
<clipPath id="clip0_3940_7829">
<rect width="826" height="54" fill="white" transform="translate(4 1)"/>
</clipPath>
<clipPath id="clip1_3940_7829">
<rect width="77.6771" height="77.6771" fill="white" transform="translate(751.68 -21) rotate(26.5168)"/>
</clipPath>
</defs>
</svg>
