<svg width="106" height="74" viewBox="0 0 106 74" fill="none" xmlns="http://www.w3.org/2000/svg">
<g id="icon">
<path d="M13.5573 48.1956C13.5573 47.2454 12.8214 46.4749 11.9139 46.4749C11.0064 46.4749 10.2705 47.2454 10.2705 48.1956V55.0785H3.69693V34.4298C3.69987 31.6928 4.73946 29.0686 6.58836 27.133C8.43725 25.1973 10.9434 24.1086 13.5573 24.1055H31.6345C34.1261 24.1062 36.5243 25.0995 38.3424 26.8832C38.6644 26.7603 38.9924 26.6489 39.3233 26.546C38.8303 25.29 38.4987 23.971 38.3373 22.6229C36.3145 21.3447 33.997 20.6671 31.6345 20.6641H30.6308C32.826 18.421 34.0739 15.3528 34.0989 12.1418C34.1238 8.93008 32.9221 5.84202 30.7621 3.562C28.6022 1.28199 25.6625 0 22.5951 0C19.5285 0 16.5888 1.28209 14.4289 3.562C12.2683 5.84202 11.0674 8.93008 11.0922 12.1418C11.1171 15.3528 12.365 18.421 14.5594 20.6641H13.5573C10.0716 20.6679 6.72978 22.1198 4.26545 24.7008C1.80037 27.2811 0.413725 30.7802 0.410156 34.4299V55.0786C0.410156 55.9912 0.756451 56.8669 1.37271 57.5122C1.98897 58.1575 2.82536 58.5201 3.69693 58.5201H27.527V55.0786H13.5582L13.5573 48.1956ZM14.379 12.0604C14.379 9.77878 15.2447 7.59041 16.7853 5.97627C18.3267 4.3631 20.4169 3.45673 22.5959 3.45673C24.7749 3.45673 26.865 4.36319 28.4065 5.97627C29.9472 7.59022 30.8128 9.77878 30.8128 12.0604C30.8128 14.342 29.9471 16.5303 28.4065 18.1445C26.8651 19.7576 24.7749 20.664 22.5959 20.664C20.4176 20.6617 18.3289 19.7545 16.7883 18.1413C15.2476 16.5282 14.3812 14.3412 14.379 12.0604Z"/>
<path d="M43.9576 63.6904V57.0748C43.9576 56.1246 43.2217 55.3541 42.3142 55.3541C41.4067 55.3541 40.6708 56.1246 40.6708 57.0748V63.6904H34.0973V43.0417C34.1002 40.3047 35.1398 37.6805 36.9887 35.7449C38.8376 33.8092 41.3438 32.7205 43.9576 32.7174H62.0349C64.6489 32.7204 67.1551 33.809 69.0038 35.7449C70.8525 37.6808 71.8922 40.3049 71.8952 43.0417V46.527C73.0082 46.5885 74.1109 46.7821 75.182 47.1047V43.0418C75.1783 39.3921 73.7917 35.893 71.3267 33.3127C68.8624 30.7316 65.5206 29.2797 62.0349 29.276H61.0312C63.2264 27.033 64.4743 23.9648 64.4993 20.7538C64.5242 17.542 63.3225 14.454 61.1625 12.1739C59.0026 9.89393 56.0629 8.61194 52.9955 8.61194C49.9289 8.61194 46.9892 9.89403 44.8293 12.1739C42.6687 14.454 41.4678 17.542 41.4926 20.7538C41.5175 23.9648 42.7654 27.033 44.9598 29.276H43.9577C40.472 29.2798 37.1302 30.7317 34.6658 33.3127C32.2008 35.893 30.8141 39.3921 30.8105 43.0418V63.6905C30.8105 64.6031 31.1568 65.4789 31.7731 66.1241C32.3894 66.7694 33.2257 67.132 34.0973 67.132H57.1461C56.7653 66.0197 56.5078 64.8652 56.3802 63.6905L43.9576 63.6904ZM44.7793 20.6723C44.7793 18.3907 45.645 16.2023 47.1856 14.5882C48.727 12.975 50.8172 12.0686 52.9962 12.0686C55.1753 12.0686 57.2653 12.9751 58.8069 14.5882C60.3476 16.2021 61.2132 18.3907 61.2132 20.6723C61.2132 22.9539 60.3475 25.1422 58.8069 26.7564C57.2655 28.3695 55.1753 29.2759 52.9962 29.2759C50.818 29.2736 48.7293 28.3664 47.1886 26.7532C45.6479 25.1401 44.7816 22.9531 44.7793 20.6723Z"/>
<path d="M71.077 49.907C68.0257 49.907 65.0999 51.176 62.9428 53.4352C60.7852 55.6935 59.5732 58.757 59.5732 61.9521C59.5732 65.1471 60.7852 68.2104 62.9428 70.469C65.0997 72.7281 68.0255 73.9972 71.077 73.9972C74.1284 73.9972 77.054 72.7281 79.2111 70.469C81.3687 68.2106 82.5807 65.1471 82.5807 61.9521C82.577 58.7588 81.3643 55.6967 79.2073 53.4391C77.0512 51.1807 74.1267 49.9109 71.077 49.907ZM71.077 70.5557C68.8979 70.5557 66.8079 69.6492 65.2663 68.0362C63.7256 66.4222 62.86 64.2337 62.86 61.9521C62.86 59.6705 63.7257 57.4821 65.2663 55.868C66.8077 54.2548 68.8979 53.3484 71.077 53.3484C73.256 53.3484 75.346 54.2549 76.8876 55.868C78.4283 57.4819 79.2939 59.6705 79.2939 61.9521C79.2917 64.2329 78.4253 66.4199 76.8846 68.033C75.344 69.6462 73.2553 70.5533 71.077 70.5557Z"/>
<path d="M74.3634 60.2441H72.72V58.5233C72.72 57.5731 71.9842 56.8026 71.0767 56.8026C70.1691 56.8026 69.4333 57.5731 69.4333 58.5233V60.2441H67.7899C66.8823 60.2441 66.1465 61.0146 66.1465 61.9648C66.1465 62.915 66.8823 63.6855 67.7899 63.6855H69.4333V65.4062C69.4333 66.3565 70.1691 67.127 71.0767 67.127C71.9842 67.127 72.72 66.3565 72.72 65.4062V63.6855H74.3634C75.271 63.6855 76.0068 62.915 76.0068 61.9648C76.0068 61.0146 75.271 60.2441 74.3634 60.2441Z"/>
<path d="M92.4419 20.6641H91.4383C93.6335 18.421 94.8813 15.3528 94.9063 12.1418C94.9312 8.93008 93.7295 5.84201 91.5696 3.562C89.4096 1.28199 86.47 0 83.4026 0C80.3359 0 77.3962 1.28209 75.2363 3.562C73.0757 5.84201 71.8748 8.93008 71.8996 12.1418C71.9245 15.3528 73.1725 18.421 75.3669 20.6641H74.3647C72.0009 20.6664 69.6832 21.3439 67.6599 22.6229C67.4985 23.9711 67.1668 25.2899 66.6738 26.546C67.0025 26.6489 67.3312 26.7603 67.6547 26.8832C69.4735 25.0987 71.8725 24.1055 74.3648 24.1055H92.4421C95.0561 24.1085 97.5623 25.197 99.411 27.1329C101.26 29.0689 102.299 31.693 102.302 34.4298V55.0785H95.7289V47.3353C95.7289 46.385 94.993 45.6145 94.0855 45.6145C93.178 45.6145 92.4421 46.385 92.4421 47.3353V55.0785H84.3074C84.8305 56.1724 85.2267 57.3279 85.4871 58.52H102.302C103.174 58.52 104.01 58.1574 104.627 57.5121C105.243 56.8669 105.589 55.9911 105.589 55.0785V34.4298C105.586 30.7801 104.199 27.281 101.734 24.7007C99.2696 22.1196 95.9278 20.6677 92.4422 20.664L92.4419 20.6641ZM83.4033 20.6641C81.2242 20.6641 79.1342 19.7576 77.5926 18.1445C76.052 16.5306 75.1863 14.342 75.1863 12.0604C75.1863 9.77884 76.0521 7.59047 77.5926 5.97633C79.134 4.36315 81.2242 3.45679 83.4033 3.45679C85.5823 3.45679 87.6723 4.36325 89.2139 5.97633C90.7546 7.59027 91.6202 9.77884 91.6202 12.0604C91.618 14.3412 90.7516 16.5282 89.2109 18.1414C87.6703 19.7545 85.5816 20.6617 83.4033 20.6641Z"/>
</g>
</svg>
