<svg width="1114" height="191" viewBox="0 0 1114 191" fill="none" xmlns="http://www.w3.org/2000/svg">
<g id="icon" clip-path="url(#clip0_2136_29190)">
<path d="M0 0H1114V191H0V0Z" fill="url(#paint0_linear_2136_29190)"/>
<path fill-rule="evenodd" clip-rule="evenodd" d="M1595.86 -755.062C1595.86 -775.301 1579.44 -791.708 1559.19 -791.708C1538.94 -791.708 1522.52 -775.301 1522.52 -755.062V-643.836C1522.52 -623.597 1538.94 -607.19 1559.19 -607.19C1579.44 -607.19 1595.86 -623.597 1595.86 -643.836V-755.062ZM1595.86 -516.511C1595.86 -536.75 1579.44 -553.157 1559.19 -553.157C1538.94 -553.157 1522.52 -536.75 1522.52 -516.511V-277.96C1522.52 -257.721 1538.94 -241.314 1559.19 -241.314C1579.44 -241.314 1595.86 -257.721 1595.86 -277.96V-516.511ZM1279.02 -742.977C1298.02 -749.983 1319.1 -740.27 1326.11 -721.283L1485.11 -290.646C1492.12 -271.659 1482.4 -250.587 1463.4 -243.58C1444.4 -236.574 1423.32 -246.287 1416.31 -265.274L1257.31 -695.911C1250.3 -714.898 1260.02 -735.97 1279.02 -742.977ZM1085.98 -597.332C1072.86 -612.748 1049.72 -614.615 1034.29 -601.502C1018.86 -588.389 1017 -565.262 1030.12 -549.845L1157.16 -400.568C1170.29 -385.151 1193.43 -383.284 1208.85 -396.397C1224.28 -409.51 1226.15 -432.638 1213.03 -448.054L1085.98 -597.332ZM1256.08 -341.017C1271.51 -354.123 1294.65 -352.246 1307.76 -336.824L1357.54 -278.284C1370.66 -262.862 1368.78 -239.735 1353.35 -226.629C1337.91 -213.522 1314.77 -215.4 1301.66 -230.822L1251.88 -289.362C1238.77 -304.784 1240.65 -327.911 1256.08 -341.017ZM900.458 -402.017C882.854 -412.021 860.469 -405.868 850.459 -388.275C840.449 -370.681 846.605 -348.309 864.209 -338.305L1245.35 -121.706C1262.96 -111.702 1285.34 -117.855 1295.35 -135.448C1305.36 -153.042 1299.21 -175.414 1281.6 -185.418L900.458 -402.017ZM753.349 -125.498C756.846 -145.433 775.851 -158.76 795.798 -155.265L977.454 -123.433C997.401 -119.938 1010.74 -100.944 1007.24 -81.0095C1003.74 -61.0746 984.736 -47.7476 964.79 -51.2428L783.133 -83.0741C763.186 -86.5693 749.851 -105.563 753.349 -125.498ZM1065.49 -108.434C1045.54 -111.925 1026.54 -98.593 1023.04 -78.6573C1019.55 -58.7216 1032.89 -39.7311 1052.84 -36.2408L1255.67 -0.750916C1275.62 2.73932 1294.62 -10.5923 1298.11 -30.5281C1301.6 -50.4637 1288.26 -69.4542 1268.32 -72.9445L1065.49 -108.434ZM918.463 125.915C921.929 145.855 908.565 164.828 888.613 168.292L795.741 184.416C775.789 187.88 756.805 174.524 753.339 154.583C749.873 134.643 763.237 115.67 783.189 112.206L876.061 96.0818C896.013 92.6179 914.997 105.974 918.463 125.915ZM1178.81 43.3986C1179.25 43.3223 1179.69 43.2542 1180.12 43.194L1255.79 30.2123C1275.75 26.7883 1294.71 40.1828 1298.14 60.13C1301.56 80.0772 1288.16 99.0234 1268.2 102.447L1191.3 115.64C1190.92 115.705 1190.54 115.765 1190.16 115.818L991.523 150.363C971.572 153.833 952.584 140.482 949.112 120.543C945.64 100.603 958.999 81.6265 978.95 78.1568L1178.81 43.3986ZM1281.6 214.525C1299.21 204.521 1305.36 182.149 1295.35 164.555C1285.34 146.962 1262.96 140.809 1245.35 150.813L864.208 367.412C846.604 377.416 840.448 399.788 850.458 417.382C860.468 434.975 882.853 441.128 900.457 431.124L1281.6 214.525ZM1353.36 255.743C1368.79 268.853 1370.66 291.98 1357.54 307.399L1084.87 627.906C1071.75 643.325 1048.61 645.197 1033.19 632.087C1017.76 618.977 1015.88 595.85 1029 580.431L1301.67 259.924C1314.79 244.505 1337.93 242.633 1353.36 255.743ZM1425.67 481.128C1432.68 462.144 1422.97 441.068 1403.98 434.053C1384.98 427.038 1363.89 436.742 1356.88 455.726L1257.32 725.011C1250.3 743.995 1260.01 765.072 1279 772.086C1298 779.101 1319.09 769.398 1326.11 750.413L1425.67 481.128ZM1463.82 273.078C1482.81 280.109 1492.5 301.194 1485.47 320.172L1468.38 366.272C1461.34 385.251 1440.25 394.936 1421.26 387.906C1402.27 380.875 1392.58 359.79 1399.61 340.812L1416.7 294.712C1423.73 275.733 1444.83 266.048 1463.82 273.078ZM1595.86 307.452C1595.86 287.213 1579.44 270.806 1559.19 270.806C1538.94 270.806 1522.52 287.213 1522.52 307.452V784.189C1522.52 804.428 1538.94 820.835 1559.19 820.835C1579.44 820.835 1595.86 804.428 1595.86 784.189V307.452ZM1781.31 615.51C1800.31 608.523 1821.39 618.257 1828.38 637.252L1860.7 725.062C1867.69 744.057 1857.95 765.119 1838.94 772.106C1819.94 779.093 1798.86 769.359 1791.87 750.364L1759.55 662.554C1752.56 643.559 1762.3 622.497 1781.31 615.51ZM1701.68 294.746C1694.67 275.761 1673.58 266.054 1654.58 273.065C1635.58 280.077 1625.87 301.152 1632.89 320.137L1712.39 535.273C1719.4 554.258 1740.49 563.965 1759.49 556.954C1778.48 549.942 1788.2 528.867 1781.18 509.882L1701.68 294.746ZM1764.63 255.759C1780.04 242.638 1803.19 244.495 1816.31 259.905L2089.36 580.412C2102.49 595.823 2100.63 618.951 2085.21 632.071C2069.79 645.192 2046.65 643.335 2033.52 627.925L1760.48 307.418C1747.35 292.007 1749.21 268.879 1764.63 255.759ZM2037.59 244.49C2019.99 234.482 1997.61 240.629 1987.59 258.22C1977.58 275.811 1983.73 298.185 2001.33 308.193L2217.53 431.128C2235.14 441.136 2257.52 434.989 2267.54 417.398C2277.55 399.806 2271.4 377.433 2253.8 367.424L2037.59 244.49ZM1822.62 164.599C1832.61 146.992 1854.98 140.809 1872.6 150.789L1929.44 182.986C1947.06 192.966 1953.24 215.33 1943.26 232.937C1933.27 250.544 1910.89 256.727 1893.28 246.747L1836.44 214.55C1818.82 204.57 1812.64 182.206 1822.62 164.599ZM1862.65 30.2247C1842.7 26.7614 1823.71 40.1188 1820.25 60.0593C1816.78 79.9996 1830.15 98.972 1850.1 102.435L2322.26 184.392C2342.21 187.855 2361.19 174.497 2364.66 154.557C2368.13 134.617 2354.76 115.644 2334.81 112.181L1862.65 30.2247ZM2364.64 -125.588C2368.18 -105.662 2354.89 -86.6347 2334.96 -83.0899L2271.06 -71.7297C2251.12 -68.1848 2232.09 -81.4645 2228.54 -101.391C2224.99 -121.317 2238.28 -140.344 2258.22 -143.888L2322.11 -155.249C2342.05 -158.793 2361.09 -145.514 2364.64 -125.588ZM2146.48 -50.1384C2166.43 -53.6104 2179.79 -72.5887 2176.31 -92.5276C2172.84 -112.467 2153.85 -125.816 2133.9 -122.344L1850.08 -72.9503C1830.13 -69.4783 1816.78 -50.4999 1820.25 -30.561C1823.72 -10.6221 1842.71 2.72687 1862.66 -0.745178L2146.48 -50.1384ZM2267.54 -388.275C2277.55 -370.682 2271.39 -348.309 2253.79 -338.305L2101.85 -251.958C2084.25 -241.954 2061.86 -248.106 2051.85 -265.7C2041.84 -283.293 2048 -305.665 2065.6 -315.67L2217.54 -402.017C2235.14 -412.021 2257.53 -405.869 2267.54 -388.275ZM2004.13 -196.335C2021.74 -206.329 2027.91 -228.698 2017.91 -246.297C2007.91 -263.896 1985.53 -270.061 1967.92 -260.066L1836.41 -185.428C1818.8 -175.433 1812.64 -153.064 1822.64 -135.465C1832.64 -117.866 1855.02 -111.702 1872.63 -121.696L2004.13 -196.335ZM2085.21 -602.954C2100.63 -589.833 2102.49 -566.705 2089.36 -551.295L1816.31 -230.787C1803.19 -215.377 1780.04 -213.521 1764.63 -226.641C1749.21 -239.761 1747.35 -262.89 1760.48 -278.3L2033.52 -598.808C2046.65 -614.218 2069.79 -616.074 2085.21 -602.954ZM1860.68 -695.911C1867.69 -714.898 1857.97 -735.97 1838.97 -742.977C1819.98 -749.983 1798.89 -740.27 1791.88 -721.283L1632.88 -290.646C1625.87 -271.659 1635.59 -250.587 1654.59 -243.58C1673.59 -236.574 1694.67 -246.287 1701.68 -265.274L1860.68 -695.911Z" fill="#6224E0"/>
<rect x="330" y="77" width="374" height="46" rx="7" fill="white"/>
<path d="M97.8 87H111.04C114.107 87 116.827 87.5733 119.2 88.72C121.573 89.8667 123.413 91.4933 124.72 93.6C126.027 95.7067 126.68 98.1733 126.68 101C126.68 103.827 126.027 106.293 124.72 108.4C123.413 110.507 121.573 112.133 119.2 113.28C116.827 114.427 114.107 115 111.04 115H97.8V87ZM110.72 108.68C113.12 108.68 115.04 108 116.48 106.64C117.947 105.28 118.68 103.4 118.68 101C118.68 98.6 117.947 96.72 116.48 95.36C115.04 94 113.12 93.32 110.72 93.32H105.72V108.68H110.72ZM152.647 104.2C152.647 104.253 152.607 104.88 152.527 106.08H136.767C137.087 107.2 137.7 108.067 138.607 108.68C139.54 109.267 140.7 109.56 142.087 109.56C143.127 109.56 144.02 109.413 144.767 109.12C145.54 108.827 146.314 108.347 147.087 107.68L151.087 111.84C148.98 114.187 145.9 115.36 141.847 115.36C139.314 115.36 137.087 114.88 135.167 113.92C133.247 112.96 131.754 111.627 130.687 109.92C129.647 108.213 129.127 106.28 129.127 104.12C129.127 101.987 129.634 100.08 130.647 98.4C131.687 96.6933 133.114 95.36 134.927 94.4C136.74 93.44 138.78 92.96 141.047 92.96C143.207 92.96 145.167 93.4133 146.927 94.32C148.687 95.2 150.074 96.4933 151.087 98.2C152.127 99.88 152.647 101.88 152.647 104.2ZM141.087 98.36C139.914 98.36 138.927 98.6933 138.127 99.36C137.354 100.027 136.86 100.933 136.647 102.08H145.527C145.314 100.933 144.807 100.027 144.007 99.36C143.234 98.6933 142.26 98.36 141.087 98.36ZM142.327 84.64H149.927L142.407 90.72H136.967L142.327 84.64ZM167.231 115.36C164.831 115.36 162.684 114.88 160.791 113.92C158.898 112.96 157.418 111.627 156.351 109.92C155.311 108.213 154.791 106.28 154.791 104.12C154.791 101.96 155.311 100.04 156.351 98.36C157.418 96.6533 158.898 95.3333 160.791 94.4C162.684 93.44 164.831 92.96 167.231 92.96C169.684 92.96 171.804 93.4933 173.591 94.56C175.378 95.6 176.644 97.0533 177.391 98.92L171.511 101.92C170.524 99.9733 169.084 99 167.191 99C165.831 99 164.698 99.4533 163.791 100.36C162.911 101.267 162.471 102.52 162.471 104.12C162.471 105.747 162.911 107.027 163.791 107.96C164.698 108.867 165.831 109.32 167.191 109.32C169.084 109.32 170.524 108.347 171.511 106.4L177.391 109.4C176.644 111.267 175.378 112.733 173.591 113.8C171.804 114.84 169.684 115.36 167.231 115.36ZM190.898 115.36C188.578 115.36 186.485 114.88 184.618 113.92C182.751 112.96 181.285 111.627 180.218 109.92C179.178 108.213 178.658 106.28 178.658 104.12C178.658 101.987 179.178 100.067 180.218 98.36C181.285 96.6533 182.738 95.3333 184.578 94.4C186.445 93.44 188.551 92.96 190.898 92.96C193.245 92.96 195.351 93.44 197.218 94.4C199.085 95.3333 200.538 96.6533 201.578 98.36C202.618 100.04 203.138 101.96 203.138 104.12C203.138 106.28 202.618 108.213 201.578 109.92C200.538 111.627 199.085 112.96 197.218 113.92C195.351 114.88 193.245 115.36 190.898 115.36ZM190.898 109.32C192.231 109.32 193.325 108.867 194.178 107.96C195.031 107.027 195.458 105.747 195.458 104.12C195.458 102.52 195.031 101.267 194.178 100.36C193.325 99.4533 192.231 99 190.898 99C189.565 99 188.471 99.4533 187.618 100.36C186.765 101.267 186.338 102.52 186.338 104.12C186.338 105.747 186.765 107.027 187.618 107.96C188.471 108.867 189.565 109.32 190.898 109.32ZM229.459 93.32V115H222.219V112.68C221.419 113.56 220.459 114.227 219.339 114.68C218.219 115.133 217.032 115.36 215.779 115.36C212.979 115.36 210.739 114.533 209.059 112.88C207.405 111.227 206.579 108.747 206.579 105.44V93.32H214.179V104.2C214.179 105.827 214.485 107.013 215.099 107.76C215.712 108.507 216.605 108.88 217.779 108.88C218.979 108.88 219.952 108.467 220.699 107.64C221.472 106.787 221.859 105.493 221.859 103.76V93.32H229.459ZM257.194 93.32L248.234 115H240.394L231.474 93.32H239.274L244.474 106.56L249.954 93.32H257.194ZM266.399 95.92C267.172 94.9333 268.172 94.2 269.399 93.72C270.652 93.2133 272.079 92.96 273.679 92.96V99.8C272.985 99.72 272.412 99.68 271.959 99.68C270.332 99.68 269.052 100.12 268.119 101C267.212 101.88 266.759 103.227 266.759 105.04V115H259.159V93.32H266.399V95.92ZM298.78 104.2C298.78 104.253 298.74 104.88 298.66 106.08H282.9C283.22 107.2 283.833 108.067 284.74 108.68C285.673 109.267 286.833 109.56 288.22 109.56C289.26 109.56 290.153 109.413 290.9 109.12C291.673 108.827 292.446 108.347 293.22 107.68L297.22 111.84C295.113 114.187 292.033 115.36 287.98 115.36C285.446 115.36 283.22 114.88 281.3 113.92C279.38 112.96 277.886 111.627 276.82 109.92C275.78 108.213 275.26 106.28 275.26 104.12C275.26 101.987 275.766 100.08 276.78 98.4C277.82 96.6933 279.246 95.36 281.06 94.4C282.873 93.44 284.913 92.96 287.18 92.96C289.34 92.96 291.3 93.4133 293.06 94.32C294.82 95.2 296.206 96.4933 297.22 98.2C298.26 99.88 298.78 101.88 298.78 104.2ZM287.22 98.36C286.046 98.36 285.06 98.6933 284.26 99.36C283.486 100.027 282.993 100.933 282.78 102.08H291.66C291.446 100.933 290.94 100.027 290.14 99.36C289.366 98.6933 288.393 98.36 287.22 98.36ZM320.968 109.32V115H300.968V110.52L311.008 98.96H301.248V93.32H320.568V97.76L310.528 109.32H320.968Z" fill="white"/>
<path d="M338.44 85.32H346.04V115H338.44V85.32ZM360.219 92.96C363.819 92.96 366.566 93.7867 368.459 95.44C370.352 97.0667 371.299 99.5733 371.299 102.96V115H364.219V112.2C363.126 114.307 360.992 115.36 357.819 115.36C356.139 115.36 354.686 115.067 353.459 114.48C352.232 113.893 351.299 113.107 350.659 112.12C350.046 111.107 349.739 109.96 349.739 108.68C349.739 106.627 350.526 105.04 352.099 103.92C353.672 102.773 356.099 102.2 359.379 102.2H363.699C363.566 99.9067 362.032 98.76 359.099 98.76C358.059 98.76 357.006 98.9333 355.939 99.28C354.872 99.6 353.966 100.053 353.219 100.64L350.659 95.48C351.859 94.68 353.312 94.0667 355.019 93.64C356.752 93.1867 358.486 92.96 360.219 92.96ZM359.939 110.56C360.819 110.56 361.592 110.347 362.259 109.92C362.926 109.493 363.406 108.867 363.699 108.04V106.16H360.419C358.206 106.16 357.099 106.893 357.099 108.36C357.099 109.027 357.352 109.56 357.859 109.96C358.366 110.36 359.059 110.56 359.939 110.56ZM401.377 92.96C403.35 92.96 405.137 93.4267 406.737 94.36C408.364 95.2667 409.644 96.5733 410.577 98.28C411.537 99.96 412.017 101.92 412.017 104.16C412.017 106.4 411.537 108.373 410.577 110.08C409.644 111.76 408.364 113.067 406.737 114C405.137 114.907 403.35 115.36 401.377 115.36C398.844 115.36 396.83 114.6 395.337 113.08V122.76H387.737V93.32H394.977V95.48C396.39 93.8 398.524 92.96 401.377 92.96ZM399.777 109.32C401.11 109.32 402.204 108.867 403.057 107.96C403.91 107.027 404.337 105.76 404.337 104.16C404.337 102.56 403.91 101.307 403.057 100.4C402.204 99.4667 401.11 99 399.777 99C398.444 99 397.35 99.4667 396.497 100.4C395.644 101.307 395.217 102.56 395.217 104.16C395.217 105.76 395.644 107.027 396.497 107.96C397.35 108.867 398.444 109.32 399.777 109.32ZM424.321 92.96C427.921 92.96 430.667 93.7867 432.561 95.44C434.454 97.0667 435.401 99.5733 435.401 102.96V115H428.321V112.2C427.227 114.307 425.094 115.36 421.921 115.36C420.241 115.36 418.787 115.067 417.561 114.48C416.334 113.893 415.401 113.107 414.761 112.12C414.147 111.107 413.841 109.96 413.841 108.68C413.841 106.627 414.627 105.04 416.201 103.92C417.774 102.773 420.201 102.2 423.481 102.2H427.801C427.667 99.9067 426.134 98.76 423.201 98.76C422.161 98.76 421.107 98.9333 420.041 99.28C418.974 99.6 418.067 100.053 417.321 100.64L414.761 95.48C415.961 94.68 417.414 94.0667 419.121 93.64C420.854 93.1867 422.587 92.96 424.321 92.96ZM424.041 110.56C424.921 110.56 425.694 110.347 426.361 109.92C427.027 109.493 427.507 108.867 427.801 108.04V106.16H424.521C422.307 106.16 421.201 106.893 421.201 108.36C421.201 109.027 421.454 109.56 421.961 109.96C422.467 110.36 423.161 110.56 424.041 110.56ZM447.438 95.92C448.211 94.9333 449.211 94.2 450.438 93.72C451.691 93.2133 453.118 92.96 454.718 92.96V99.8C454.024 99.72 453.451 99.68 452.998 99.68C451.371 99.68 450.091 100.12 449.158 101C448.251 101.88 447.798 103.227 447.798 105.04V115H440.198V93.32H447.438V95.92ZM473.478 114.12C472.838 114.52 472.051 114.827 471.118 115.04C470.211 115.253 469.238 115.36 468.198 115.36C465.371 115.36 463.198 114.667 461.678 113.28C460.158 111.893 459.398 109.827 459.398 107.08V99.8H456.238V94.12H459.398V88.48H466.998V94.12H471.958V99.8H466.998V107C466.998 107.773 467.198 108.387 467.598 108.84C468.025 109.267 468.585 109.48 469.278 109.48C470.158 109.48 470.931 109.253 471.598 108.8L473.478 114.12ZM499.129 115.36C496.729 115.36 494.583 114.88 492.689 113.92C490.796 112.96 489.316 111.627 488.249 109.92C487.209 108.213 486.689 106.28 486.689 104.12C486.689 101.96 487.209 100.04 488.249 98.36C489.316 96.6533 490.796 95.3333 492.689 94.4C494.583 93.44 496.729 92.96 499.129 92.96C501.583 92.96 503.703 93.4933 505.489 94.56C507.276 95.6 508.543 97.0533 509.289 98.92L503.409 101.92C502.423 99.9733 500.983 99 499.089 99C497.729 99 496.596 99.4533 495.689 100.36C494.809 101.267 494.369 102.52 494.369 104.12C494.369 105.747 494.809 107.027 495.689 107.96C496.596 108.867 497.729 109.32 499.089 109.32C500.983 109.32 502.423 108.347 503.409 106.4L509.289 109.4C508.543 111.267 507.276 112.733 505.489 113.8C503.703 114.84 501.583 115.36 499.129 115.36ZM522.797 115.36C520.477 115.36 518.383 114.88 516.517 113.92C514.65 112.96 513.183 111.627 512.117 109.92C511.077 108.213 510.557 106.28 510.557 104.12C510.557 101.987 511.077 100.067 512.117 98.36C513.183 96.6533 514.637 95.3333 516.477 94.4C518.343 93.44 520.45 92.96 522.797 92.96C525.143 92.96 527.25 93.44 529.117 94.4C530.983 95.3333 532.437 96.6533 533.477 98.36C534.517 100.04 535.037 101.96 535.037 104.12C535.037 106.28 534.517 108.213 533.477 109.92C532.437 111.627 530.983 112.96 529.117 113.92C527.25 114.88 525.143 115.36 522.797 115.36ZM522.797 109.32C524.13 109.32 525.223 108.867 526.077 107.96C526.93 107.027 527.357 105.747 527.357 104.12C527.357 102.52 526.93 101.267 526.077 100.36C525.223 99.4533 524.13 99 522.797 99C521.463 99 520.37 99.4533 519.517 100.36C518.663 101.267 518.237 102.52 518.237 104.12C518.237 105.747 518.663 107.027 519.517 107.96C520.37 108.867 521.463 109.32 522.797 109.32ZM538.557 85.32H546.157V115H538.557V85.32ZM551.096 85.32H558.696V115H551.096V85.32ZM585.795 104.2C585.795 104.253 585.755 104.88 585.675 106.08H569.915C570.235 107.2 570.849 108.067 571.755 108.68C572.689 109.267 573.849 109.56 575.235 109.56C576.275 109.56 577.169 109.413 577.915 109.12C578.689 108.827 579.462 108.347 580.235 107.68L584.235 111.84C582.129 114.187 579.049 115.36 574.995 115.36C572.462 115.36 570.235 114.88 568.315 113.92C566.395 112.96 564.902 111.627 563.835 109.92C562.795 108.213 562.275 106.28 562.275 104.12C562.275 101.987 562.782 100.08 563.795 98.4C564.835 96.6933 566.262 95.36 568.075 94.4C569.889 93.44 571.929 92.96 574.195 92.96C576.355 92.96 578.315 93.4133 580.075 94.32C581.835 95.2 583.222 96.4933 584.235 98.2C585.275 99.88 585.795 101.88 585.795 104.2ZM574.235 98.36C573.062 98.36 572.075 98.6933 571.275 99.36C570.502 100.027 570.009 100.933 569.795 102.08H578.675C578.462 100.933 577.955 100.027 577.155 99.36C576.382 98.6933 575.409 98.36 574.235 98.36ZM600.379 115.36C597.979 115.36 595.833 114.88 593.939 113.92C592.046 112.96 590.566 111.627 589.499 109.92C588.459 108.213 587.939 106.28 587.939 104.12C587.939 101.96 588.459 100.04 589.499 98.36C590.566 96.6533 592.046 95.3333 593.939 94.4C595.833 93.44 597.979 92.96 600.379 92.96C602.833 92.96 604.953 93.4933 606.739 94.56C608.526 95.6 609.793 97.0533 610.539 98.92L604.659 101.92C603.673 99.9733 602.233 99 600.339 99C598.979 99 597.846 99.4533 596.939 100.36C596.059 101.267 595.619 102.52 595.619 104.12C595.619 105.747 596.059 107.027 596.939 107.96C597.846 108.867 598.979 109.32 600.339 109.32C602.233 109.32 603.673 108.347 604.659 106.4L610.539 109.4C609.793 111.267 608.526 112.733 606.739 113.8C604.953 114.84 602.833 115.36 600.379 115.36ZM628.713 114.12C628.073 114.52 627.286 114.827 626.353 115.04C625.446 115.253 624.473 115.36 623.433 115.36C620.606 115.36 618.433 114.667 616.913 113.28C615.393 111.893 614.633 109.827 614.633 107.08V99.8H611.473V94.12H614.633V88.48H622.233V94.12H627.193V99.8H622.233V107C622.233 107.773 622.433 108.387 622.833 108.84C623.259 109.267 623.819 109.48 624.513 109.48C625.393 109.48 626.166 109.253 626.833 108.8L628.713 114.12ZM631.643 93.32H639.243V115H631.643V93.32ZM635.443 90.92C634.056 90.92 632.936 90.5333 632.083 89.76C631.23 88.9867 630.803 88.0267 630.803 86.88C630.803 85.7333 631.23 84.7733 632.083 84C632.936 83.2267 634.056 82.84 635.443 82.84C636.83 82.84 637.95 83.2133 638.803 83.96C639.656 84.68 640.083 85.6133 640.083 86.76C640.083 87.96 639.656 88.96 638.803 89.76C637.95 90.5333 636.83 90.92 635.443 90.92ZM667.022 93.32L658.062 115H650.222L641.302 93.32H649.102L654.302 106.56L659.782 93.32H667.022ZM690.561 104.2C690.561 104.253 690.521 104.88 690.441 106.08H674.681C675.001 107.2 675.614 108.067 676.521 108.68C677.454 109.267 678.614 109.56 680.001 109.56C681.041 109.56 681.934 109.413 682.681 109.12C683.454 108.827 684.228 108.347 685.001 107.68L689.001 111.84C686.894 114.187 683.814 115.36 679.761 115.36C677.228 115.36 675.001 114.88 673.081 113.92C671.161 112.96 669.668 111.627 668.601 109.92C667.561 108.213 667.041 106.28 667.041 104.12C667.041 101.987 667.548 100.08 668.561 98.4C669.601 96.6933 671.028 95.36 672.841 94.4C674.654 93.44 676.694 92.96 678.961 92.96C681.121 92.96 683.081 93.4133 684.841 94.32C686.601 95.2 687.988 96.4933 689.001 98.2C690.041 99.88 690.561 101.88 690.561 104.2ZM679.001 98.36C677.828 98.36 676.841 98.6933 676.041 99.36C675.268 100.027 674.774 100.933 674.561 102.08H683.441C683.228 100.933 682.721 100.027 681.921 99.36C681.148 98.6933 680.174 98.36 679.001 98.36Z" fill="url(#paint1_linear_2136_29190)"/>
<path d="M743.121 85.32V115H735.881V112.84C734.467 114.52 732.347 115.36 729.521 115.36C727.547 115.36 725.747 114.907 724.121 114C722.494 113.067 721.201 111.747 720.241 110.04C719.307 108.333 718.841 106.36 718.841 104.12C718.841 101.88 719.307 99.92 720.241 98.24C721.201 96.5333 722.494 95.2267 724.121 94.32C725.747 93.4133 727.547 92.96 729.521 92.96C732.107 92.96 734.107 93.7067 735.521 95.2V85.32H743.121ZM731.121 109.32C732.427 109.32 733.507 108.867 734.361 107.96C735.214 107.027 735.641 105.747 735.641 104.12C735.641 102.52 735.214 101.267 734.361 100.36C733.534 99.4533 732.454 99 731.121 99C729.787 99 728.694 99.4533 727.841 100.36C726.987 101.267 726.561 102.52 726.561 104.12C726.561 105.747 726.987 107.027 727.841 107.96C728.694 108.867 729.787 109.32 731.121 109.32ZM770.81 93.32V115H763.57V112.68C762.77 113.56 761.81 114.227 760.69 114.68C759.57 115.133 758.384 115.36 757.13 115.36C754.33 115.36 752.09 114.533 750.41 112.88C748.757 111.227 747.93 108.747 747.93 105.44V93.32H755.53V104.2C755.53 105.827 755.837 107.013 756.45 107.76C757.064 108.507 757.957 108.88 759.13 108.88C760.33 108.88 761.304 108.467 762.05 107.64C762.824 106.787 763.21 105.493 763.21 103.76V93.32H770.81ZM800.986 92.96C802.96 92.96 804.746 93.4267 806.346 94.36C807.973 95.2667 809.253 96.5733 810.186 98.28C811.146 99.96 811.626 101.92 811.626 104.16C811.626 106.4 811.146 108.373 810.186 110.08C809.253 111.76 807.973 113.067 806.346 114C804.746 114.907 802.96 115.36 800.986 115.36C798.453 115.36 796.44 114.6 794.946 113.08V122.76H787.346V93.32H794.586V95.48C796 93.8 798.133 92.96 800.986 92.96ZM799.386 109.32C800.72 109.32 801.813 108.867 802.666 107.96C803.52 107.027 803.946 105.76 803.946 104.16C803.946 102.56 803.52 101.307 802.666 100.4C801.813 99.4667 800.72 99 799.386 99C798.053 99 796.96 99.4667 796.106 100.4C795.253 101.307 794.826 102.56 794.826 104.16C794.826 105.76 795.253 107.027 796.106 107.96C796.96 108.867 798.053 109.32 799.386 109.32ZM823.93 92.96C827.53 92.96 830.277 93.7867 832.17 95.44C834.063 97.0667 835.01 99.5733 835.01 102.96V115H827.93V112.2C826.837 114.307 824.703 115.36 821.53 115.36C819.85 115.36 818.397 115.067 817.17 114.48C815.943 113.893 815.01 113.107 814.37 112.12C813.757 111.107 813.45 109.96 813.45 108.68C813.45 106.627 814.237 105.04 815.81 103.92C817.383 102.773 819.81 102.2 823.09 102.2H827.41C827.277 99.9067 825.743 98.76 822.81 98.76C821.77 98.76 820.717 98.9333 819.65 99.28C818.583 99.6 817.677 100.053 816.93 100.64L814.37 95.48C815.57 94.68 817.023 94.0667 818.73 93.64C820.463 93.1867 822.197 92.96 823.93 92.96ZM823.65 110.56C824.53 110.56 825.303 110.347 825.97 109.92C826.637 109.493 827.117 108.867 827.41 108.04V106.16H824.13C821.917 106.16 820.81 106.893 820.81 108.36C820.81 109.027 821.063 109.56 821.57 109.96C822.077 110.36 822.77 110.56 823.65 110.56ZM847.687 115.36C845.874 115.36 844.087 115.16 842.327 114.76C840.567 114.333 839.154 113.787 838.087 113.12L840.367 107.92C841.354 108.533 842.527 109.027 843.887 109.4C845.247 109.747 846.594 109.92 847.927 109.92C849.154 109.92 850.021 109.8 850.527 109.56C851.061 109.293 851.327 108.92 851.327 108.44C851.327 107.96 851.007 107.627 850.367 107.44C849.754 107.227 848.767 107.027 847.407 106.84C845.674 106.627 844.194 106.347 842.967 106C841.767 105.653 840.727 105.013 839.847 104.08C838.967 103.147 838.527 101.84 838.527 100.16C838.527 98.7733 838.941 97.5467 839.767 96.48C840.594 95.3867 841.794 94.5333 843.367 93.92C844.967 93.28 846.874 92.96 849.087 92.96C850.661 92.96 852.221 93.12 853.767 93.44C855.314 93.76 856.607 94.2133 857.647 94.8L855.367 99.96C853.447 98.8933 851.367 98.36 849.127 98.36C847.927 98.36 847.047 98.5067 846.487 98.8C845.927 99.0667 845.647 99.4267 845.647 99.88C845.647 100.387 845.954 100.747 846.567 100.96C847.181 101.147 848.194 101.347 849.607 101.56C851.394 101.827 852.874 102.133 854.047 102.48C855.221 102.827 856.234 103.467 857.087 104.4C857.967 105.307 858.407 106.587 858.407 108.24C858.407 109.6 857.994 110.827 857.167 111.92C856.341 112.987 855.114 113.827 853.487 114.44C851.887 115.053 849.954 115.36 847.687 115.36ZM869.562 115.36C867.749 115.36 865.962 115.16 864.202 114.76C862.442 114.333 861.029 113.787 859.962 113.12L862.242 107.92C863.229 108.533 864.402 109.027 865.762 109.4C867.122 109.747 868.469 109.92 869.802 109.92C871.029 109.92 871.896 109.8 872.402 109.56C872.936 109.293 873.202 108.92 873.202 108.44C873.202 107.96 872.882 107.627 872.242 107.44C871.629 107.227 870.642 107.027 869.282 106.84C867.549 106.627 866.069 106.347 864.842 106C863.642 105.653 862.602 105.013 861.722 104.08C860.842 103.147 860.402 101.84 860.402 100.16C860.402 98.7733 860.816 97.5467 861.642 96.48C862.469 95.3867 863.669 94.5333 865.242 93.92C866.842 93.28 868.749 92.96 870.962 92.96C872.536 92.96 874.096 93.12 875.642 93.44C877.189 93.76 878.482 94.2133 879.522 94.8L877.242 99.96C875.322 98.8933 873.242 98.36 871.002 98.36C869.802 98.36 868.922 98.5067 868.362 98.8C867.802 99.0667 867.522 99.4267 867.522 99.88C867.522 100.387 867.829 100.747 868.442 100.96C869.056 101.147 870.069 101.347 871.482 101.56C873.269 101.827 874.749 102.133 875.922 102.48C877.096 102.827 878.109 103.467 878.962 104.4C879.842 105.307 880.282 106.587 880.282 108.24C880.282 109.6 879.869 110.827 879.042 111.92C878.216 112.987 876.989 113.827 875.362 114.44C873.762 115.053 871.829 115.36 869.562 115.36ZM909.518 115.56C906.584 115.56 903.944 114.947 901.598 113.72C899.278 112.467 897.451 110.733 896.118 108.52C894.784 106.307 894.118 103.8 894.118 101C894.118 98.2 894.784 95.6933 896.118 93.48C897.451 91.2667 899.278 89.5467 901.598 88.32C903.944 87.0667 906.584 86.44 909.518 86.44C912.078 86.44 914.384 86.8933 916.438 87.8C918.491 88.7067 920.198 90.0133 921.558 91.72L916.518 96.28C914.704 94.0933 912.504 93 909.918 93C908.398 93 907.038 93.3333 905.838 94C904.664 94.6667 903.744 95.6133 903.078 96.84C902.438 98.04 902.118 99.4267 902.118 101C902.118 102.573 902.438 103.973 903.078 105.2C903.744 106.4 904.664 107.333 905.838 108C907.038 108.667 908.398 109 909.918 109C912.504 109 914.704 107.907 916.518 105.72L921.558 110.28C920.198 111.987 918.491 113.293 916.438 114.2C914.384 115.107 912.078 115.56 909.518 115.56ZM947.06 93.32V115H939.82V112.68C939.02 113.56 938.06 114.227 936.94 114.68C935.82 115.133 934.634 115.36 933.38 115.36C930.58 115.36 928.34 114.533 926.66 112.88C925.007 111.227 924.18 108.747 924.18 105.44V93.32H931.78V104.2C931.78 105.827 932.087 107.013 932.7 107.76C933.314 108.507 934.207 108.88 935.38 108.88C936.58 108.88 937.554 108.467 938.3 107.64C939.074 106.787 939.46 105.493 939.46 103.76V93.32H947.06ZM951.956 85.32H959.556V115H951.956V85.32ZM981.603 114.12C980.963 114.52 980.176 114.827 979.243 115.04C978.336 115.253 977.363 115.36 976.323 115.36C973.496 115.36 971.323 114.667 969.803 113.28C968.283 111.893 967.523 109.827 967.523 107.08V99.8H964.363V94.12H967.523V88.48H975.123V94.12H980.083V99.8H975.123V107C975.123 107.773 975.323 108.387 975.723 108.84C976.15 109.267 976.71 109.48 977.403 109.48C978.283 109.48 979.056 109.253 979.723 108.8L981.603 114.12ZM1007.33 93.32V115H1000.09V112.68C999.294 113.56 998.334 114.227 997.214 114.68C996.094 115.133 994.907 115.36 993.654 115.36C990.854 115.36 988.614 114.533 986.934 112.88C985.28 111.227 984.454 108.747 984.454 105.44V93.32H992.054V104.2C992.054 105.827 992.36 107.013 992.974 107.76C993.587 108.507 994.48 108.88 995.654 108.88C996.854 108.88 997.827 108.467 998.574 107.64C999.347 106.787 999.734 105.493 999.734 103.76V93.32H1007.33ZM1019.47 95.92C1020.24 94.9333 1021.24 94.2 1022.47 93.72C1023.72 93.2133 1025.15 92.96 1026.75 92.96V99.8C1026.06 99.72 1025.48 99.68 1025.03 99.68C1023.4 99.68 1022.12 100.12 1021.19 101C1020.28 101.88 1019.83 103.227 1019.83 105.04V115H1012.23V93.32H1019.47V95.92ZM1051.85 104.2C1051.85 104.253 1051.81 104.88 1051.73 106.08H1035.97C1036.29 107.2 1036.9 108.067 1037.81 108.68C1038.74 109.267 1039.9 109.56 1041.29 109.56C1042.33 109.56 1043.22 109.413 1043.97 109.12C1044.74 108.827 1045.52 108.347 1046.29 107.68L1050.29 111.84C1048.18 114.187 1045.1 115.36 1041.05 115.36C1038.52 115.36 1036.29 114.88 1034.37 113.92C1032.45 112.96 1030.96 111.627 1029.89 109.92C1028.85 108.213 1028.33 106.28 1028.33 104.12C1028.33 101.987 1028.84 100.08 1029.85 98.4C1030.89 96.6933 1032.32 95.36 1034.13 94.4C1035.94 93.44 1037.98 92.96 1040.25 92.96C1042.41 92.96 1044.37 93.4133 1046.13 94.32C1047.89 95.2 1049.28 96.4933 1050.29 98.2C1051.33 99.88 1051.85 101.88 1051.85 104.2ZM1040.29 98.36C1039.12 98.36 1038.13 98.6933 1037.33 99.36C1036.56 100.027 1036.06 100.933 1035.85 102.08H1044.73C1044.52 100.933 1044.01 100.027 1043.21 99.36C1042.44 98.6933 1041.46 98.36 1040.29 98.36Z" fill="white"/>
<path d="M982.027 13.6252C980.955 13.7165 980.113 14.6598 980.113 15.8085C980.113 17.018 981.047 17.9993 982.198 17.9993L986.757 17.9993L986.758 23.6834L986.765 23.8629C986.851 24.9933 987.745 25.8818 988.834 25.8818C989.981 25.8818 990.909 24.8975 990.909 23.6834L990.909 17.9993L996.301 17.9978L996.472 17.9902C997.544 17.8989 998.386 16.9571 998.386 15.8085C998.386 14.5989 997.453 13.6191 996.3 13.6191L990.909 13.6191L990.911 8.80991L990.905 8.62884C990.818 7.49842 989.924 6.60989 988.834 6.60989C987.687 6.60989 986.757 7.59428 986.757 8.80991L986.757 13.6191L982.198 13.6176L982.027 13.6252Z" fill="#F1F1F4" fill-opacity="0.6"/>
<path d="M1053.32 25.8818C1050.59 25.8818 1048.37 23.6682 1048.37 20.9372C1048.37 18.2062 1050.59 15.9926 1053.32 15.9926C1056.05 15.9926 1058.27 18.2062 1058.27 20.9372C1058.27 23.6682 1056.05 25.8818 1053.32 25.8818Z" fill="#F1F1F4" fill-opacity="0.6"/>
<path d="M1067.77 52.62C1066.22 52.7448 1065 54.0365 1065 55.6127C1065 57.271 1066.35 58.616 1068.02 58.616L1074.62 58.616L1074.62 66.4102L1074.63 66.6567C1074.75 68.2071 1076.05 69.4257 1077.62 69.4257C1079.28 69.4257 1080.63 68.0747 1080.63 66.4102L1080.63 58.6144L1088.43 58.6144L1088.68 58.6053C1090.23 58.4806 1091.45 57.1873 1091.45 55.6127C1091.45 53.9543 1090.1 52.6109 1088.43 52.6109L1080.63 52.6109L1080.63 46.0155L1080.62 45.769C1080.49 44.2187 1079.2 43 1077.62 43C1075.96 43 1074.62 44.3511 1074.62 46.0155L1074.62 52.6094L1068.02 52.6094L1067.77 52.62Z" fill="#F1F1F4"/>
<path d="M828.38 79.6062C827.675 80.3165 827.622 81.457 828.282 82.2267C828.977 83.0365 830.199 83.128 831.012 82.4308L834.232 79.669L837.496 83.475L837.605 83.5909C838.315 84.2957 839.457 84.3492 840.226 83.6896C841.036 82.995 841.126 81.7726 840.429 80.9599L837.164 77.1531L840.971 73.8879L841.087 73.7802C841.793 73.0693 841.846 71.9281 841.186 71.1591C840.492 70.3493 839.27 70.2586 838.456 70.9563L834.649 74.2215L831.888 71.0003L831.779 70.8844C831.069 70.1797 829.928 70.1256 829.158 70.7858C828.348 71.4803 828.258 72.7034 828.955 73.5161L831.716 76.736L828.496 79.4978L828.38 79.6062Z" fill="#F1F1F4" fill-opacity="0.4"/>
<path d="M656.277 60.0528C655.688 59.9469 655.108 60.3078 654.953 60.8942C654.79 61.5112 655.16 62.1442 655.78 62.3078L658.233 62.956L657.467 65.8557L657.447 65.9485C657.341 66.5375 657.702 67.1181 658.288 67.2728C658.905 67.4359 659.537 67.0653 659.701 66.446L660.467 63.5457L663.368 64.312L663.46 64.3328C664.05 64.4389 664.63 64.0775 664.785 63.4916C664.948 62.8746 664.578 62.2422 663.958 62.0784L661.057 61.3121L661.706 58.8585L661.727 58.7658C661.832 58.1767 661.472 57.5964 660.885 57.4414C660.268 57.2784 659.635 57.6488 659.471 58.2681L658.823 60.7213L656.37 60.0731L656.277 60.0528Z" fill="#F1F1F4" fill-opacity="0.4"/>
<path opacity="0.2" d="M473.77 25.6201C472.218 25.7448 471 27.0365 471 28.6127C471 30.2711 472.351 31.616 474.017 31.616L480.616 31.616L480.616 39.4103L480.627 39.6568C480.752 41.2071 482.046 42.4258 483.622 42.4258C485.282 42.4258 486.626 41.0748 486.626 39.4103L486.626 31.6145L494.429 31.6145L494.675 31.6054C496.229 31.4806 497.447 30.1874 497.447 28.6127C497.447 26.9544 496.096 25.6109 494.429 25.6109L486.626 25.6109L486.628 19.0156L486.617 18.7691C486.492 17.2188 485.199 16.0001 483.622 16.0001C481.962 16.0001 480.616 17.3511 480.616 19.0156L480.616 25.6094L474.017 25.6094L473.77 25.6201Z" fill="#F1F1F4"/>
<path d="M855.014 34.4572C853.743 35.4835 851.882 35.286 850.856 34.0161C849.831 32.7461 850.03 30.8848 851.301 29.8584C852.572 28.8321 854.433 29.0295 855.459 30.2995C856.484 31.5695 856.285 33.4308 855.014 34.4572Z" fill="#F1F1F4" fill-opacity="0.42"/>
<path fill-rule="evenodd" clip-rule="evenodd" d="M50.5457 38.999C49.2838 39.1453 48.1353 38.2882 47.8915 37.0579L47.861 36.8607L47.2485 31.5772L41.968 32.1894C40.635 32.3439 39.4294 31.3907 39.2752 30.0611C39.129 28.7996 39.9836 27.6505 41.2129 27.4068L41.4098 27.3748L46.6905 26.7641L45.9662 20.5171C45.8114 19.1814 46.762 17.9752 48.0889 17.8213C49.3524 17.6749 50.4994 18.5321 50.743 19.7609L50.775 19.958L51.4994 26.2065L57.7411 25.4829C59.0741 25.3284 60.2795 26.2801 60.4335 27.6081C60.5799 28.8711 59.7253 30.0203 58.4961 30.264L58.299 30.2945L52.0574 31.0196L52.67 36.3031C52.8247 37.6372 51.8727 38.8452 50.5457 38.999Z" fill="#F1F1F4"/>
<path d="M23.2592 54.294C23.5739 57.0091 21.6302 59.4649 18.9174 59.7794C16.2046 60.0939 13.7505 58.148 13.4357 55.4329C13.1209 52.7178 15.0647 50.262 17.7775 49.9475C20.4903 49.633 22.9444 51.5789 23.2592 54.294Z" fill="#F1F1F4" fill-opacity="0.7"/>
<path d="M597.38 134.606C596.675 135.316 596.622 136.457 597.282 137.227C597.977 138.036 599.199 138.128 600.012 137.431L603.232 134.669L606.496 138.475L606.605 138.591C607.315 139.296 608.457 139.349 609.226 138.69C610.036 137.995 610.126 136.773 609.429 135.96L606.164 132.153L609.971 128.888L610.087 128.78C610.793 128.069 610.846 126.928 610.186 126.159C609.492 125.349 608.27 125.259 607.456 125.956L603.649 129.222L600.888 126L600.779 125.884C600.069 125.18 598.928 125.126 598.158 125.786C597.348 126.48 597.258 127.703 597.955 128.516L600.716 131.736L597.496 134.498L597.38 134.606Z" fill="#F1F1F4" fill-opacity="0.4"/>
<path d="M1038.77 160.07C1038.29 160.56 1038.26 161.356 1038.73 161.899C1039.22 162.471 1040.07 162.546 1040.63 162.066L1042.84 160.167L1045.15 162.853L1045.22 162.936C1045.72 163.434 1046.52 163.481 1047.05 163.028C1047.6 162.55 1047.66 161.698 1047.16 161.124L1044.86 158.438L1047.48 156.191L1047.56 156.117C1048.04 155.627 1048.07 154.831 1047.6 154.288C1047.11 153.717 1046.26 153.642 1045.7 154.123L1043.08 156.368L1041.14 154.094L1041.06 154.011C1040.56 153.513 1039.76 153.465 1039.23 153.919C1038.68 154.397 1038.63 155.25 1039.12 155.824L1041.07 158.097L1038.85 159.995L1038.77 160.07Z" fill="#F1F1F4" fill-opacity="0.4"/>
<path d="M1078.36 136.17C1077.03 137.308 1075.06 137.185 1073.95 135.894C1072.85 134.603 1073.03 132.634 1074.35 131.496C1075.68 130.357 1077.65 130.481 1078.76 131.772C1079.87 133.062 1079.69 135.031 1078.36 136.17Z" fill="#F1F1F4" fill-opacity="0.4"/>
<path d="M1092.06 176.659C1089.94 178.376 1086.82 178.045 1085.11 175.921C1083.39 173.796 1083.72 170.682 1085.85 168.965C1087.98 167.247 1091.09 167.578 1092.81 169.703C1094.52 171.827 1094.19 174.942 1092.06 176.659Z" fill="#F1F1F4" fill-opacity="0.7"/>
</g>
<defs>
<linearGradient id="paint0_linear_2136_29190" x1="988.29" y1="26.1407" x2="431.596" y2="697.671" gradientUnits="userSpaceOnUse">
<stop stop-color="#6123DF"/>
<stop offset="1" stop-color="#280078"/>
</linearGradient>
<linearGradient id="paint1_linear_2136_29190" x1="331" y1="84" x2="686" y2="118" gradientUnits="userSpaceOnUse">
<stop stop-color="#4613AD"/>
<stop offset="1" stop-color="#6224E0"/>
</linearGradient>
<clipPath id="clip0_2136_29190">
<path d="M0 0H1114V191H0V0Z" fill="white"/>
</clipPath>
</defs>
</svg>
