<svg width="1114" height="131" viewBox="0 0 1114 131" fill="none" xmlns="http://www.w3.org/2000/svg">
<g clip-path="url(#clip0_2466_29494)">
<path d="M0 0H1920V131H0V0Z" fill="url(#paint0_linear_2466_29494)"/>
<path fill-rule="evenodd" clip-rule="evenodd" d="M1595.86 -755.062C1595.86 -775.301 1579.44 -791.708 1559.19 -791.708C1538.94 -791.708 1522.52 -775.301 1522.52 -755.062V-643.836C1522.52 -623.597 1538.94 -607.19 1559.19 -607.19C1579.44 -607.19 1595.86 -623.597 1595.86 -643.836V-755.062ZM1595.86 -516.511C1595.86 -536.75 1579.44 -553.157 1559.19 -553.157C1538.94 -553.157 1522.52 -536.75 1522.52 -516.511V-277.96C1522.52 -257.721 1538.94 -241.314 1559.19 -241.314C1579.44 -241.314 1595.86 -257.721 1595.86 -277.96V-516.511ZM1279.02 -742.976C1298.02 -749.983 1319.1 -740.27 1326.11 -721.282L1485.11 -290.646C1492.12 -271.658 1482.4 -250.586 1463.4 -243.58C1444.4 -236.574 1423.32 -246.286 1416.31 -265.274L1257.31 -695.91C1250.3 -714.898 1260.02 -735.97 1279.02 -742.976ZM1085.98 -597.331C1072.86 -612.748 1049.72 -614.615 1034.29 -601.502C1018.86 -588.389 1017 -565.261 1030.12 -549.845L1157.17 -400.567C1170.29 -385.151 1193.43 -383.284 1208.85 -396.397C1224.28 -409.51 1226.15 -432.637 1213.03 -448.054L1085.98 -597.331ZM1256.08 -341.017C1271.51 -354.123 1294.65 -352.246 1307.76 -336.824L1357.54 -278.284C1370.66 -262.861 1368.78 -239.735 1353.35 -226.628C1337.91 -213.522 1314.77 -215.399 1301.66 -230.821L1251.88 -289.362C1238.77 -304.784 1240.65 -327.91 1256.08 -341.017ZM900.458 -402.016C882.854 -412.021 860.469 -405.868 850.459 -388.274C840.449 -370.681 846.605 -348.309 864.209 -338.305L1245.35 -121.706C1262.96 -111.702 1285.34 -117.854 1295.35 -135.448C1305.36 -153.041 1299.21 -175.414 1281.6 -185.418L900.458 -402.016ZM753.349 -125.498C756.846 -145.432 775.851 -158.759 795.798 -155.264L977.455 -123.433C997.401 -119.938 1010.74 -100.944 1007.24 -81.0092C1003.74 -61.0743 984.737 -47.7473 964.79 -51.2425L783.133 -83.0738C763.187 -86.569 749.852 -105.563 753.349 -125.498ZM1065.49 -108.434C1045.54 -111.924 1026.54 -98.5927 1023.04 -78.657C1019.55 -58.7213 1032.89 -39.7308 1052.84 -36.2405L1255.67 -0.75061C1275.62 2.73962 1294.62 -10.592 1298.11 -30.5278C1301.6 -50.4634 1288.26 -69.4539 1268.32 -72.9442L1065.49 -108.434ZM918.463 125.915C921.929 145.855 908.565 164.828 888.613 168.292L795.741 184.416C775.789 187.88 756.805 174.524 753.339 154.584C749.873 134.643 763.238 115.67 783.19 112.206L876.061 96.0822C896.013 92.6182 914.997 105.975 918.463 125.915ZM1178.81 43.3989C1179.25 43.3226 1179.69 43.2545 1180.12 43.1943L1255.79 30.2126C1275.75 26.7886 1294.71 40.1831 1298.14 60.1303C1301.56 80.0775 1288.16 99.0237 1268.2 102.448L1191.3 115.64C1190.92 115.706 1190.54 115.765 1190.16 115.818L991.523 150.364C971.572 153.833 952.584 140.482 949.112 120.543C945.64 100.604 959 81.6268 978.951 78.1571L1178.81 43.3989ZM1281.6 214.525C1299.21 204.521 1305.36 182.149 1295.35 164.556C1285.34 146.962 1262.96 140.81 1245.35 150.814L864.208 367.412C846.604 377.416 840.448 399.789 850.458 417.382C860.468 434.976 882.854 441.128 900.457 431.124L1281.6 214.525ZM1353.36 255.743C1368.79 268.853 1370.66 291.98 1357.54 307.399L1084.87 627.907C1071.75 643.326 1048.61 645.198 1033.19 632.088C1017.76 618.978 1015.88 595.85 1029 580.432L1301.67 259.924C1314.79 244.505 1337.93 242.633 1353.36 255.743ZM1425.67 481.129C1432.68 462.144 1422.98 441.068 1403.98 434.053C1384.98 427.038 1363.9 436.742 1356.88 455.726L1257.32 725.011C1250.3 743.996 1260.01 765.072 1279 772.087C1298 779.101 1319.09 769.398 1326.11 750.414L1425.67 481.129ZM1463.82 273.079C1482.81 280.109 1492.5 301.194 1485.47 320.172L1468.38 366.273C1461.34 385.251 1440.25 394.937 1421.26 387.906C1402.27 380.875 1392.58 359.791 1399.61 340.812L1416.7 294.712C1423.73 275.733 1444.83 266.048 1463.82 273.079ZM1595.86 307.452C1595.86 287.213 1579.44 270.807 1559.19 270.807C1538.94 270.807 1522.52 287.213 1522.52 307.452V784.189C1522.52 804.428 1538.94 820.835 1559.19 820.835C1579.44 820.835 1595.86 804.428 1595.86 784.189V307.452ZM1781.31 615.51C1800.31 608.523 1821.39 618.257 1828.38 637.252L1860.7 725.062C1867.69 744.057 1857.95 765.119 1838.94 772.106C1819.94 779.093 1798.86 769.359 1791.87 750.365L1759.55 662.554C1752.56 643.56 1762.3 622.497 1781.31 615.51ZM1701.68 294.747C1694.67 275.761 1673.58 266.054 1654.58 273.066C1635.59 280.077 1625.87 301.152 1632.89 320.138L1712.39 535.273C1719.4 554.258 1740.49 563.965 1759.49 556.954C1778.48 549.942 1788.2 528.867 1781.18 509.882L1701.68 294.747ZM1764.63 255.759C1780.05 242.639 1803.19 244.495 1816.32 259.905L2089.36 580.413C2102.49 595.823 2100.63 618.951 2085.21 632.072C2069.79 645.192 2046.65 643.336 2033.52 627.926L1760.48 307.418C1747.35 292.008 1749.21 268.879 1764.63 255.759ZM2037.59 244.49C2019.99 234.482 1997.61 240.629 1987.59 258.22C1977.58 275.812 1983.73 298.185 2001.33 308.193L2217.54 431.128C2235.14 441.136 2257.52 434.989 2267.54 417.398C2277.55 399.807 2271.4 377.433 2253.8 367.425L2037.59 244.49ZM1822.62 164.599C1832.61 146.992 1854.98 140.809 1872.6 150.789L1929.44 182.986C1947.06 192.966 1953.24 215.33 1943.26 232.937C1933.27 250.544 1910.9 256.728 1893.28 246.748L1836.44 214.55C1818.82 204.57 1812.64 182.206 1822.62 164.599ZM1862.65 30.225C1842.7 26.7617 1823.71 40.1191 1820.25 60.0596C1816.78 79.9999 1830.15 98.9724 1850.1 102.436L2322.26 184.392C2342.21 187.855 2361.19 174.498 2364.66 154.557C2368.13 134.617 2354.76 115.645 2334.81 112.181L1862.65 30.225ZM2364.64 -125.587C2368.18 -105.661 2354.9 -86.6344 2334.96 -83.0896L2271.06 -71.7294C2251.12 -68.1845 2232.09 -81.4642 2228.54 -101.39C2224.99 -121.316 2238.28 -140.343 2258.22 -143.888L2322.11 -155.248C2342.05 -158.793 2361.09 -145.513 2364.64 -125.587ZM2146.48 -50.1381C2166.43 -53.6101 2179.79 -72.5884 2176.31 -92.5273C2172.84 -112.466 2153.85 -125.815 2133.9 -122.343L1850.08 -72.95C1830.13 -69.478 1816.78 -50.4996 1820.25 -30.5607C1823.72 -10.6218 1842.71 2.72717 1862.66 -0.744873L2146.48 -50.1381ZM2267.54 -388.275C2277.55 -370.681 2271.4 -348.309 2253.79 -338.305L2101.85 -251.958C2084.25 -241.954 2061.86 -248.106 2051.85 -265.699C2041.84 -283.293 2048 -305.665 2065.6 -315.669L2217.54 -402.016C2235.15 -412.021 2257.53 -405.868 2267.54 -388.275ZM2004.13 -196.335C2021.74 -206.329 2027.91 -228.698 2017.91 -246.297C2007.91 -263.896 1985.53 -270.061 1967.92 -260.066L1836.41 -185.427C1818.8 -175.433 1812.64 -153.064 1822.64 -135.465C1832.64 -117.866 1855.02 -111.701 1872.63 -121.696L2004.13 -196.335ZM2085.21 -602.953C2100.63 -589.833 2102.49 -566.705 2089.36 -551.294L1816.32 -230.787C1803.19 -215.377 1780.05 -213.52 1764.63 -226.641C1749.21 -239.761 1747.35 -262.89 1760.48 -278.3L2033.52 -598.807C2046.65 -614.217 2069.79 -616.074 2085.21 -602.953ZM1860.68 -695.91C1867.69 -714.898 1857.97 -735.97 1838.97 -742.976C1819.98 -749.983 1798.89 -740.27 1791.88 -721.282L1632.88 -290.646C1625.87 -271.658 1635.59 -250.586 1654.59 -243.58C1673.59 -236.574 1694.67 -246.286 1701.69 -265.274L1860.68 -695.91Z" fill="#6224E0" />
<path d="M982.027 13.6252C980.955 13.7165 980.113 14.6598 980.113 15.8085C980.113 17.018 981.047 17.9993 982.198 17.9993L986.757 17.9993L986.758 23.6834L986.765 23.8629C986.851 24.9933 987.745 25.8818 988.834 25.8818C989.981 25.8818 990.909 24.8975 990.909 23.6834L990.909 17.9993L996.301 17.9978L996.472 17.9902C997.544 17.8989 998.386 16.9571 998.386 15.8085C998.386 14.5989 997.453 13.6191 996.3 13.6191L990.909 13.6191L990.911 8.80991L990.905 8.62884C990.818 7.49842 989.924 6.60989 988.834 6.60989C987.687 6.60989 986.757 7.59428 986.757 8.80991L986.757 13.6191L982.198 13.6176L982.027 13.6252Z" fill="#F1F1F4" fill-opacity="0.6"/>
<path d="M1053.32 25.8818C1050.59 25.8818 1048.37 23.6682 1048.37 20.9372C1048.37 18.2062 1050.59 15.9926 1053.32 15.9926C1056.05 15.9926 1058.27 18.2062 1058.27 20.9372C1058.27 23.6682 1056.05 25.8818 1053.32 25.8818Z" fill="#F1F1F4" fill-opacity="0.6"/>
<path d="M1067.77 52.6201C1066.22 52.7448 1065 54.0365 1065 55.6127C1065 57.2711 1066.35 58.616 1068.02 58.616L1074.62 58.616L1074.62 66.4103L1074.63 66.6568C1074.75 68.2071 1076.05 69.4258 1077.62 69.4258C1079.28 69.4258 1080.63 68.0748 1080.63 66.4103L1080.63 58.6145L1088.43 58.6145L1088.68 58.6054C1090.23 58.4806 1091.45 57.1874 1091.45 55.6127C1091.45 53.9544 1090.1 52.6109 1088.43 52.6109L1080.63 52.6109L1080.63 46.0156L1080.62 45.7691C1080.49 44.2188 1079.2 43.0001 1077.62 43.0001C1075.96 43.0001 1074.62 44.3511 1074.62 46.0156L1074.62 52.6094L1068.02 52.6094L1067.77 52.6201Z" fill="#F1F1F4"/>
<path d="M828.38 79.6062C827.675 80.3165 827.622 81.457 828.282 82.2267C828.977 83.0365 830.199 83.128 831.012 82.4308L834.232 79.669L837.496 83.475L837.605 83.5909C838.315 84.2957 839.457 84.3492 840.226 83.6896C841.036 82.995 841.126 81.7726 840.429 80.9599L837.164 77.1531L840.971 73.8879L841.087 73.7802C841.793 73.0693 841.846 71.9281 841.186 71.1591C840.492 70.3493 839.27 70.2586 838.456 70.9563L834.649 74.2215L831.888 71.0003L831.779 70.8844C831.069 70.1797 829.928 70.1256 829.158 70.7858C828.348 71.4803 828.258 72.7034 828.955 73.5161L831.716 76.736L828.496 79.4978L828.38 79.6062Z" fill="#F1F1F4" fill-opacity="0.4"/>
<path d="M656.277 60.0528C655.688 59.9469 655.108 60.3078 654.953 60.8942C654.79 61.5112 655.16 62.1442 655.78 62.3078L658.233 62.956L657.467 65.8557L657.447 65.9485C657.341 66.5375 657.702 67.1181 658.288 67.2728C658.905 67.4359 659.537 67.0653 659.701 66.446L660.467 63.5457L663.368 64.312L663.46 64.3328C664.05 64.4389 664.63 64.0775 664.785 63.4916C664.948 62.8746 664.578 62.2422 663.958 62.0784L661.057 61.3121L661.706 58.8585L661.727 58.7658C661.832 58.1767 661.472 57.5964 660.885 57.4414C660.268 57.2784 659.635 57.6488 659.471 58.2681L658.823 60.7213L656.37 60.0731L656.277 60.0528Z" fill="#F1F1F4" fill-opacity="0.4"/>
<path opacity="0.2" d="M473.77 25.6201C472.218 25.7448 471 27.0365 471 28.6127C471 30.2711 472.351 31.616 474.017 31.616L480.616 31.616L480.616 39.4103L480.627 39.6568C480.752 41.2071 482.046 42.4258 483.622 42.4258C485.282 42.4258 486.626 41.0748 486.626 39.4103L486.626 31.6145L494.429 31.6145L494.675 31.6054C496.229 31.4806 497.447 30.1874 497.447 28.6127C497.447 26.9544 496.096 25.6109 494.429 25.6109L486.626 25.6109L486.628 19.0156L486.617 18.7691C486.492 17.2188 485.199 16.0001 483.622 16.0001C481.962 16.0001 480.616 17.3511 480.616 19.0156L480.616 25.6094L474.017 25.6094L473.77 25.6201Z" fill="#F1F1F4"/>
<path d="M855.014 34.4572C853.743 35.4835 851.882 35.286 850.856 34.0161C849.831 32.7461 850.03 30.8848 851.301 29.8584C852.572 28.8321 854.433 29.0295 855.459 30.2995C856.484 31.5695 856.285 33.4308 855.014 34.4572Z" fill="#F1F1F4" fill-opacity="0.42"/>
<path fill-rule="evenodd" clip-rule="evenodd" d="M50.5457 38.999C49.2838 39.1453 48.1353 38.2882 47.8915 37.0579L47.861 36.8607L47.2485 31.5772L41.968 32.1894C40.635 32.3439 39.4294 31.3907 39.2752 30.0611C39.129 28.7996 39.9836 27.6505 41.2129 27.4068L41.4098 27.3748L46.6905 26.7641L45.9662 20.5171C45.8114 19.1814 46.762 17.9752 48.0889 17.8213C49.3524 17.6749 50.4994 18.5321 50.743 19.7609L50.775 19.958L51.4994 26.2065L57.7411 25.4829C59.0741 25.3284 60.2795 26.2801 60.4335 27.6081C60.5799 28.8711 59.7253 30.0203 58.4961 30.264L58.299 30.2945L52.0574 31.0196L52.67 36.3031C52.8247 37.6372 51.8727 38.8452 50.5457 38.999Z" fill="#F1F1F4"/>
<path d="M23.2592 54.294C23.5739 57.0091 21.6302 59.4649 18.9174 59.7794C16.2046 60.0939 13.7505 58.148 13.4357 55.4329C13.1209 52.7178 15.0647 50.262 17.7775 49.9475C20.4903 49.633 22.9444 51.5789 23.2592 54.294Z" fill="#F1F1F4" fill-opacity="0.7"/>
<path d="M597.38 134.606C596.675 135.316 596.622 136.457 597.282 137.227C597.977 138.036 599.199 138.128 600.012 137.431L603.232 134.669L606.496 138.475L606.605 138.591C607.315 139.296 608.457 139.349 609.226 138.69C610.036 137.995 610.126 136.773 609.429 135.96L606.164 132.153L609.971 128.888L610.087 128.78C610.793 128.069 610.846 126.928 610.186 126.159C609.492 125.349 608.27 125.259 607.456 125.956L603.649 129.222L600.888 126L600.779 125.884C600.069 125.18 598.928 125.126 598.158 125.786C597.348 126.48 597.258 127.703 597.955 128.516L600.716 131.736L597.496 134.498L597.38 134.606Z" fill="#F1F1F4" fill-opacity="0.4"/>
<path d="M1038.77 160.07C1038.29 160.56 1038.26 161.356 1038.73 161.899C1039.22 162.471 1040.07 162.546 1040.63 162.066L1042.84 160.167L1045.15 162.853L1045.22 162.936C1045.72 163.434 1046.52 163.481 1047.05 163.028C1047.6 162.55 1047.66 161.698 1047.16 161.124L1044.86 158.438L1047.48 156.191L1047.56 156.117C1048.04 155.627 1048.07 154.831 1047.6 154.288C1047.11 153.717 1046.26 153.642 1045.7 154.123L1043.08 156.368L1041.14 154.094L1041.06 154.011C1040.56 153.513 1039.76 153.465 1039.23 153.919C1038.68 154.397 1038.63 155.25 1039.12 155.824L1041.07 158.097L1038.85 159.995L1038.77 160.07Z" fill="#F1F1F4" fill-opacity="0.4"/>
<path d="M1078.36 136.17C1077.03 137.308 1075.06 137.185 1073.95 135.894C1072.85 134.603 1073.03 132.634 1074.35 131.496C1075.68 130.357 1077.65 130.481 1078.76 131.772C1079.87 133.062 1079.69 135.031 1078.36 136.17Z" fill="#F1F1F4" fill-opacity="0.4"/>
<path d="M1092.06 116.659C1089.94 118.376 1086.82 118.045 1085.11 115.921C1083.39 113.796 1083.72 110.682 1085.85 108.964C1087.98 107.247 1091.09 107.578 1092.81 109.702C1094.52 111.827 1094.19 114.941 1092.06 116.659Z" fill="#F1F1F4" fill-opacity="0.7"/>
</g>
<defs>
<linearGradient id="paint0_linear_2466_29494" x1="988.29" y1="17.929" x2="654.391" y2="605.183" gradientUnits="userSpaceOnUse">
<stop stop-color="#6123DF"/>
<stop offset="1" stop-color="#280078"/>
</linearGradient>
<linearGradient id="paint1_linear_2466_29494" x1="330" y1="52" x2="685" y2="86" gradientUnits="userSpaceOnUse">
<stop stop-color="#4613AD"/>
<stop offset="1" stop-color="#6224E0"/>
</linearGradient>
<clipPath id="clip0_2466_29494">
<path d="M0 0H1920V131H0V0Z" fill="white"/>
</clipPath>
</defs>
</svg>
