<svg width="18" height="18" viewBox="0 0 18 18" fill="none" xmlns="http://www.w3.org/2000/svg">
<path id="icon" fill-rule="evenodd" clip-rule="evenodd" d="M9 1.84091C5.04542 1.84091 1.84091 5.04542 1.84091 9C1.84091 12.9546 5.04542 16.1591 9 16.1591C12.9546 16.1591 16.1591 12.9546 16.1591 9C16.1591 7.76557 15.8455 6.60354 15.2934 5.58784C15.1989 5.41415 15.2632 5.19681 15.4369 5.10239C15.6106 5.00797 15.8279 5.07222 15.9223 5.24591C16.5299 6.36362 16.875 7.64284 16.875 9C16.875 13.35 13.35 16.875 9 16.875C4.65003 16.875 1.125 13.35 1.125 9C1.125 4.65003 4.65003 1.125 9 1.125C10.3379 1.125 11.6023 1.45865 12.706 2.0518C12.8802 2.14538 12.9455 2.36241 12.8519 2.53655C12.7583 2.71069 12.5413 2.77599 12.3671 2.68241C11.3661 2.14442 10.2179 1.84091 9 1.84091ZM8.53125 12.2812C8.53125 12.0224 8.74112 11.8125 9 11.8125C9.25888 11.8125 9.46875 12.0224 9.46875 12.2812C9.46875 12.5401 9.25888 12.75 9 12.75C8.74112 12.75 8.53125 12.5401 8.53125 12.2812ZM9.375 5.60672C9.375 5.40971 9.20711 5.25 9 5.25C8.79289 5.25 8.625 5.40971 8.625 5.60672V10.1433C8.625 10.3403 8.79289 10.5 9 10.5C9.20711 10.5 9.375 10.3403 9.375 10.1433V5.60672Z" fill="#B60025"/>
</svg>
