<svg width="48" height="48" viewBox="0 0 48 48" fill="none" xmlns="http://www.w3.org/2000/svg">
<path fill-rule="evenodd" clip-rule="evenodd" d="M10 4C6.68629 4 4 6.68629 4 10V38C4 41.3137 6.68629 44 10 44H24C27.3137 44 30 41.3137 30 38V33C30 31.8954 29.1046 31 28 31C26.8954 31 26 31.8954 26 33V38C26 39.1046 25.1046 40 24 40H23V26.0082L37.4632 26.0079L33.7944 29.5716C32.9872 30.3556 32.9869 31.6272 33.7945 32.4117C34.6022 33.1962 35.9112 33.1959 36.7184 32.4119L43.0264 26.2845C44.3244 25.0237 44.3247 22.9767 43.0263 21.7155L36.7185 15.5883C35.9108 14.8038 34.6018 14.8041 33.7946 15.5881C32.9875 16.3722 32.9871 17.6437 33.7948 18.4283L37.4629 21.9913L23 21.9916V14.6741C23 12.8151 21.7193 11.2012 19.9089 10.7787L9.04304 8.24337C9.32728 8.0882 9.65334 8 10 8H24C25.1046 8 26 8.89543 26 10V15C26 16.1046 26.8954 17 28 17C29.1046 17 30 16.1046 30 15V10C30 6.68629 27.3137 4 24 4H10Z"/>
</svg>
