<svg xmlns="http://www.w3.org/2000/svg" width="48" height="48" fill="currentColor"><path id="icon" fill="currentColor" d="M9.4 19.5H7.6A3.6 3.6 0 0 0 4 23.1v16.97a3.6 3.6 0 0 0 3.6 3.6h1.8a3.6 3.6 0 0 0 3.6-3.6V23.1a3.6 3.6 0 0 0-3.6-3.6M42.598 20.949a5.99 5.99 0 0 0-4.6-2.16h-7.99c.98-1.7 2.18-4.73 2.23-9.301.03-2.76-2.02-5.24-4.759-5.47-3.06-.25-5.64 2.18-5.64 5.21 0 4.51-1.74 8.73-4.91 11.92l-.29.29c-.409.42-.639.98-.639 1.57V39.97c0 .68.41 1.29 1.04 1.54 1.67.68 3.45 1.26 3.75 1.35v-.02c2.3.75 4.68 1.16 7.11 1.16h7.718a5.99 5.99 0 0 0 5.89-4.94l2.39-13.191c.33-1.76-.15-3.56-1.28-4.93z"/></svg>