<svg xmlns="http://www.w3.org/2000/svg" width="48" height="48"><path id="icon" fill="currentColor" fill-rule="evenodd" d="M43.964 11.738 26.22 25.197l-.003.002c-1.29.985-3.153.985-4.444 0L4.268 11.741l-.002-.002a1.5 1.5 0 0 0-.202-.13 4.7 4.7 0 0 1 .63-1.514A3 3 0 0 1 7 9h34c.907 0 1.748.419 2.308 1.098.314.49.54 1.045.656 1.64M32.36 24.135 44 15.306v20.387l-8.096-8.044a2 2 0 0 0-.085-.077zm2.5 6.543 7.837 7.786c-.49.34-1.078.536-1.698.536H7c-.62 0-1.209-.196-1.699-.536l12.665-12.578 1.96 1.507.001.001.001.001c2.369 1.808 5.766 1.807 8.135 0v-.001l1.978-1.5 4.733 4.704q.042.041.087.08M4 15.148v20.545l11.66-11.58z" clip-rule="evenodd"/></svg>