
<svg width="48" height="48" viewBox="0 0 48 48" xmlns="http://www.w3.org/2000/svg">
    <g id="icon">
        <path d="M12.17 5.3H35.83C37.49 5.3 38.83 6.64 38.83 8.3V42.26C38.83 42.64 38.43 42.88 38.1 42.7L24.01 35.26 9.9 42.59C9.57 42.76 9.17 42.52 9.17 42.15V8.3C9.17 6.64 10.51 5.3 12.17 5.3Z" fill="currentColor"/>
        <path d="M38.33 43.73C38.09 43.73 37.85 43.67 37.63 43.55L24 36.35 10.36 43.44C9.89 43.68 9.34 43.67 8.89 43.39 8.44 43.12 8.17 42.64 8.17 42.11V8.27C8.17 6.06 9.96 4.27 12.17 4.27H35.83C38.04 4.27 39.83 6.06 39.83 8.27V42.23C39.83 42.76 39.56 43.24 39.1 43.51 38.86 43.65 38.59 43.73 38.33 43.73ZM24.01 34.1 37.83 41.4V8.27C37.83 7.17 36.93 6.27 35.83 6.27H12.17C11.07 6.27 10.17 7.17 10.17 8.27V41.29L24.01 34.1Z" fill="currentColor"/>
    </g>
</svg>
