<svg xmlns="http://www.w3.org/2000/svg" width="48" height="48" fill="none"><path id="icon" fill="currentColor" fill-rule="evenodd" d="m11.57 7.5 3.968-.573c.47-.068.913.213 1.164.617a3.875 3.875 0 0 0 7.028-1.016c.126-.459.47-.855.94-.923l3.968-.574a3 3 0 0 1 3.399 2.54l.584 4.038a2.895 2.895 0 0 0-2.579 2.111l-.018.04c-.04.084-.11.204-.211.32-.148.169-.45.457-1.252.47-.747.01-1.008-.25-1.145-.41a1.5 1.5 0 0 1-.237-.387 2.904 2.904 0 0 0-2.805-2.151h-4.156c-3.113 0-5.612 2.531-5.612 5.625v19.35a3 3 0 0 1-2.218-2.476L9.031 10.9a3 3 0 0 1 2.54-3.398m13.956 8.988c-.946-.844-1.226-1.886-1.226-1.886h-4.082a2.62 2.62 0 0 0-2.613 2.625v22.75c0 1.45 1.17 2.625 2.613 2.625H24.3c.415 0 .761-.3.92-.683a3.67 3.67 0 0 1 3.386-2.265c1.524 0 2.83.935 3.384 2.265.16.384.506.683.92.683h4.083a2.62 2.62 0 0 0 2.612-2.625v-22.75c0-1.45-1.17-2.625-2.612-2.625h-4.082s-.806 2.894-4.306 2.947a5.4 5.4 0 0 1-.959-.068 5 5 0 0 1-.46-.1 4.05 4.05 0 0 1-1.641-.876z" clip-rule="evenodd"/></svg>