<svg xmlns="http://www.w3.org/2000/svg" width="48" height="48" fill="none"><path id="icon" fill="currentColor" fill-rule="evenodd" d="m43.415 35.489-7.86-13.62-7.86-13.62c-1.64-2.85-5.75-2.85-7.4 0l-7.86 13.62-7.86 13.62c-1.64 2.85.41 6.4 3.7 6.4h31.45c3.29 0 5.34-3.56 3.7-6.4zm-17.27-.29c0 1.11-.9 2.01-2.01 2.01h-.27c-1.11 0-2.01-.9-2.01-2.01v-.27c0-1.11.9-2.01 2.01-2.01h.27c1.11 0 2.01.9 2.01 2.01zm0-7c0 1.11-.9 2.01-2.01 2.01h-.27c-1.11 0-2.01-.9-2.01-2.01v-11.38c0-1.11.9-2.01 2.01-2.01h.27c1.11 0 2.01.9 2.01 2.01z" clip-rule="evenodd"/></svg>