<svg xmlns="http://www.w3.org/2000/svg" width="48" height="48" fill="none"><path id="icon" fill="currentColor" d="M43.998 23.99928C43.998 35.0448 35.0454 43.9998 24 44.0001C12.9543 44.0001 3.99903 35.0451 3.99903 23.99928C3.99933 12.95385 12.95451 4.00122 24 4.00122C35.0451 4.00155 43.9977 12.95403 43.998 23.99928ZM32.5956 23.54223C33.2403 22.89753 33.2403 21.852 32.5956 21.20727L25.16601 13.77759C24.52125 13.13358 23.47554 13.1331 22.83105 13.77759L15.40431 21.20727C14.75958 21.852 14.75958 22.89753 15.40431 23.54223C16.04883 24.18594 17.09181 24.18591 17.73633 23.54223L22.33302 18.94557L22.33302 33.348C22.33302 34.2597 23.07357 35.0001 23.98536 35.0001C24.8967 34.9998 25.63476 34.2594 25.63476 33.348L25.63476 18.91626L30.2607 23.54223C30.9054 24.1869 31.9509 24.18678 32.5956 23.54223Z"/></svg>
