<svg xmlns="http://www.w3.org/2000/svg" width="48" height="48"><path id="icon" fill="currentColor" fill-rule="evenodd" d="M4.95 11.64C4.95 9.536 6.403 8 7.998 8h31.99c1.596 0 3.047 1.536 3.047 3.64v4.47c0 .44-.277.83-.703.96l-.006.001c-2.72.85-4.623 3.673-4.623 6.929s1.913 6.08 4.622 6.928l.007.002c.424.13.703.527.703.96v4.47c0 2.104-1.45 3.64-3.047 3.64H7.997c-1.595 0-3.046-1.536-3.046-3.64v-4.47c0-.44.277-.83.704-.96l.006-.002c2.709-.849 4.622-3.67 4.622-6.928S8.37 17.92 5.66 17.072l-.006-.002a1 1 0 0 1-.704-.96zM30.658 18c0-1.105-.852-2-1.904-2s-1.904.895-1.904 2v12c0 1.105.852 2 1.904 2s1.904-.895 1.904-2z" clip-rule="evenodd"/></svg>