<svg width="48" height="48" viewBox="0 0 48 48" fill="currentColor" xmlns="http://www.w3.org/2000/svg"><path id="icon" fill-rule="evenodd" clip-rule="evenodd" d="M4 11.64C4 9.53593 5.52386 8.00024 7.19961 8H40.8C42.4759 8 44 9.53577 44 11.64V16.11C44 16.5493 43.7092 16.9394 43.2609 17.0697L43.2552 17.0714C40.3974 17.9204 38.4 20.7445 38.4 24C38.4 27.2574 40.409 30.0795 43.2541 30.9283L43.2609 30.9302C43.7063 31.0597 44 31.4577 44 31.89V36.36C44 38.4642 42.4759 40 40.8 40H7.2C5.5241 40 4 38.4642 4 36.36V31.89C4 31.4507 4.2908 31.0606 4.73915 30.9303L4.74587 30.9283C7.59097 30.0795 9.6 27.2574 9.6 24C9.6 20.7426 7.59097 17.9205 4.74588 17.0717L4.73914 17.0697C4.29369 16.9403 4 16.5423 4 16.11V11.64ZM31 18C31 16.8954 30.1046 16 29 16C27.8954 16 27 16.8954 27 18V30C27 31.1046 27.8954 32 29 32C30.1046 32 31 31.1046 31 30V18Z" fill="currentColor"/></svg>
