<svg width="48" height="48" viewBox="0 0 48 48" fill="none" xmlns="http://www.w3.org/2000/svg">
<g id="icon">
<path d="M9 28.99C11.7614 28.99 14 26.7514 14 23.99C14 21.2286 11.7614 18.99 9 18.99C6.23858 18.99 4 21.2286 4 23.99C4 26.7514 6.23858 28.99 9 28.99Z" fill="currentColor"/>
<path d="M24 29C26.7614 29 29 26.7614 29 24C29 21.2386 26.7614 19 24 19C21.2386 19 19 21.2386 19 24C19 26.7614 21.2386 29 24 29Z" fill="currentColor"/>
<path d="M39 29.01C41.7614 29.01 44 26.7714 44 24.01C44 21.2486 41.7614 19.01 39 19.01C36.2386 19.01 34 21.2486 34 24.01C34 26.7714 36.2386 29.01 39 29.01Z" fill="currentColor"/>
</g>
</svg>
