<svg xmlns="http://www.w3.org/2000/svg" width="48" height="48" fill="none"><path id="icon" fill="currentColor" fill-rule="evenodd" clip-rule="evenodd" d="M16 5C14.3431 5 13 6.34315 13 8V13H9C6.79086 13 5 14.7909 5 17V23V39C5 41.2091 6.79086 43 9 43H39C41.2091 43 43 41.2091 43 39V23V17C43 14.7909 41.2091 13 39 13H35V8C35 6.34315 33.6569 5 32 5C30.3431 5 29 6.34315 29 8V13H19V8C19 6.34315 17.6569 5 16 5ZM12 22C12 20.8954 12.8954 20 14 20C15.1046 20 16 20.8954 16 22C16 23.1046 15.1046 24 14 24C12.8954 24 12 23.1046 12 22ZM41 30H34C31.7909 30 30 31.7909 30 34V41L35.5 35.5L41 30ZM24 20C22.8954 20 22 20.8954 22 22C22 23.1046 22.8954 24 24 24C25.1046 24 26 23.1046 26 22C26 20.8954 25.1046 20 24 20ZM31 22C31 20.8954 31.8954 20 33 20C34.1046 20 35 20.8954 35 22C35 23.1046 34.1046 24 33 24C31.8954 24 31 23.1046 31 22ZM14 28C12.8954 28 12 28.8954 12 30C12 31.1046 12.8954 32 14 32C15.1046 32 16 31.1046 16 30C16 28.8954 15.1046 28 14 28ZM22 30C22 28.8954 22.8954 28 24 28C25.1046 28 26 28.8954 26 30C26 31.1046 25.1046 32 24 32C22.8954 32 22 31.1046 22 30Z"/></svg>
