<svg xmlns="http://www.w3.org/2000/svg" width="48" height="48"><path id="icon" fill="currentColor" fill-rule="evenodd" d="M24 44c11.046 0 20-8.954 20-20S35.046 4 24 4 4 12.954 4 24s8.954 20 20 20m2.386-29.201a2.299 2.299 0 1 1-4.598 0 2.299 2.299 0 0 1 4.598 0m-4.39 4.853h2.145c.634 0 1.187.303 1.544.75.243.298.405.671.439 1.083a2 2 0 0 1 .006.34v12.181c0 1.149-.963 1.994-2.043 1.994s-2.044-.845-2.044-1.994V23.74h-.047c-1.148 0-1.993-.963-1.993-2.043s.845-2.044 1.993-2.044" clip-rule="evenodd"/></svg>