<svg xmlns="http://www.w3.org/2000/svg" width="48" height="48" fill="none"><g id="icon" fill="currentColor"><path d="M24.826 21.017a4.21 4.21 0 0 1-.004 5.944l-.004.004L13.7 38.168a2.696 2.696 0 0 1-3.813.018 2.697 2.697 0 0 1-.008-3.813l10.294-10.374L9.834 13.637a2.696 2.696 0 0 1 .009-3.814 2.696 2.696 0 0 1 3.813 0z"/><path d="M38.12 13.673 27.795 23.97l10.363 10.286a2.696 2.696 0 0 1 .008 3.813 2.697 2.697 0 0 1-3.814.017L23.157 26.973l-.004-.005a4.21 4.21 0 0 1-.01-5.964l.005-.004.002-.002L34.316 9.86a2.696 2.696 0 0 1 3.813 0 2.696 2.696 0 0 1-.01 3.813"/></g></svg>