<svg xmlns="http://www.w3.org/2000/svg" width="48" height="48" fill="none" id="icon">
<path d="M15.2292 6.86606L15.6458 5.53446L14.5208 4.70221V3.30819L13.1875 2.87126L12.75 1.53966H11.3542L10.5208 0.416125L9.1875 0.83225L8.02083 0L6.875 0.811443L5.54167 0.395319L4.70833 1.51886H3.3125L2.875 2.85046L1.54167 3.28739V4.6814L0.416667 5.51365L0.833333 6.84525L0 8.0104L0.8125 9.15475L0.395833 10.4863L1.52083 11.3186V12.7126L2.85417 13.1495L3.29167 14.4811H4.6875L5.52083 15.6047L6.85417 15.1886L8 16L9.14583 15.1886L10.4792 15.6047L11.3125 14.4811H12.7083L13.1458 13.1495L14.4792 12.7126V11.3186L15.6042 10.4863L15.1875 9.15475L16 8.0104L15.2292 6.86606Z" fill="currentColor"/>
<path fill-rule="evenodd" clip-rule="evenodd" d="M5 5.00004V10.89C5.075 10.8534 5.16 10.8334 5.25 10.8334H6V9.16671V8.33337V4.33337H5.66667C5.29833 4.33337 5 4.63171 5 5.00004ZM5.285 11.62H10.31C10.3917 11.62 10.4417 11.6084 10.4667 11.5934C10.4767 11.5884 10.4817 11.5817 10.4867 11.5734C10.4917 11.565 10.4983 11.5467 10.4983 11.5117V11.12H5.285C5.12833 11.12 5 11.2317 5 11.37C5 11.5084 5.12833 11.62 5.285 11.62ZM11 4.83337V5.27671V6.16671V10.1667C11 10.4784 10.7867 10.735 10.5 10.81V10.8334H6.36504V9.50004V4.33337H10.5C10.775 4.33337 11 4.55837 11 4.83337ZM7.66671 7.50004H9.00004C9.09171 7.50004 9.16671 7.42504 9.16671 7.33337C9.16671 7.24171 9.09171 7.16671 9.00004 7.16671H7.66671C7.57504 7.16671 7.50004 7.24171 7.50004 7.33337C7.50004 7.42504 7.57504 7.50004 7.66671 7.50004ZM7.66671 6.66671H9.66671C9.75837 6.66671 9.83337 6.59171 9.83337 6.50004C9.83337 6.40837 9.75837 6.33337 9.66671 6.33337H7.66671C7.57504 6.33337 7.50004 6.40837 7.50004 6.50004C7.50004 6.59171 7.57504 6.66671 7.66671 6.66671Z" fill="white"/>
</svg>
