<svg xmlns="http://www.w3.org/2000/svg" width="48" height="48" fill="none"><g id="icon" fill="currentColor"><path fill-rule="evenodd" d="M40.267 9.65a.943.943 0 0 0 0-1.367 1.025 1.025 0 0 0-1.414 0l-4.95 4.783C30.984 11.298 27.613 10 24 10c-5.866 0-11.092 3.421-14.782 6.718a44 44 0 0 0-5.595 6.068 25 25 0 0 0-.4.546l-.023.031-.006.01-.002.003c-.256.37-.256.879 0 1.248l.002.003.005.008.02.028q.025.036.072.101.095.133.275.375c.24.32.591.776 1.043 1.326.904 1.1 3.44 3.54 5.072 5.073l.401.31c.852.658 1.66 1.283 2.45 1.865l-4.8 4.638a.943.943 0 0 0 0 1.366c.391.377 1.024.377 1.415 0l5.022-4.852.051.034 4.082-3.93-.054-.046 3.646-3.522.069.042 3.048-2.935-.069-.052 6.137-5.93.062.08 4.539-4.372-.092-.064zM24 15c2.04 0 4.082.783 5.703 2.124l-5.7 5.506L24 22.5a2.5 2.5 0 0 1 1.403-2.247 4 4 0 0 0-4.875 5.735l-3.646 3.522A8.96 8.96 0 0 1 15 24c0-4.972 4.5-9 9-9" clip-rule="evenodd"/><path d="m38.502 16.47-5.715 5.604c.139.616.213 1.26.213 1.926 0 5.192-4.028 9-9 9a9 9 0 0 1-2.102-.246l-4.145 4.065C19.577 37.57 21.572 38 24 38c5.866 0 10.629-3.165 14.318-6.462 1.858-1.66 3.823-3.573 4.86-4.816a39 39 0 0 0 1.516-1.937l.083-.117.023-.031.006-.01.002-.002v-.001c.256-.37.256-.879 0-1.248l-.002-.004-.006-.009-.023-.031-.083-.117q-.108-.152-.317-.429c-.276-.366-.68-.886-1.199-1.508a44 44 0 0 0-4.676-4.808"/></g></svg>