<svg xmlns="http://www.w3.org/2000/svg" width="48" height="48" fill="none"><path id="icon" fill="currentColor" fill-rule="evenodd" d="M36.422 6c-1.43 0-2.86.547-3.955 1.63l-1.5 1.5c1.562.51 3.595 1.386 5.109 2.984 1.421 1.5 2.322 3.418 2.863 4.83l1.427-1.427a5.59 5.59 0 0 0 0-7.897A5.6 5.6 0 0 0 36.422 6m.945 12.522c-.452-1.333-1.246-3.443-2.748-5.028-1.533-1.618-3.742-2.323-5.262-2.745l-.007.009L9.227 30.876l.11.082q-.077.113-.123.249l-3.162 9.472a1.003 1.003 0 0 0 1.269 1.27l9.486-3.162q.136-.046.25-.124l.08.11L37.35 18.556zm-22.116 18.51q.03.073.054.14l-4.9 1.634a3 3 0 0 0-.195-.378 3.1 3.1 0 0 0-.97-.962l1.59-4.763.143.055c.601.24 1.495.733 2.516 1.754 1.022 1.022 1.52 1.917 1.762 2.52" clip-rule="evenodd"/></svg>