<svg xmlns="http://www.w3.org/2000/svg" width="48" height="48" fill="none"><path id="icon" fill="currentColor" fill-rule="evenodd" d="M5 10.7A5.7 5.7 0 0 1 10.7 5h26.6a5.7 5.7 0 0 1 5.7 5.7v26.6a5.7 5.7 0 0 1-5.7 5.7H10.7A5.7 5.7 0 0 1 5 37.3zM31.5 35a1.5 1.5 0 0 1 0 3h-15a1.5 1.5 0 0 1 0-3zm-1.149-10.84a1.516 1.516 0 0 1 0 2.145l-4.626 4.626a2.44 2.44 0 0 1-3.45 0l-4.626-4.626a1.516 1.516 0 0 1 2.144-2.145l2.69 2.691V11.517a1.516 1.516 0 0 1 3.033 0V26.85l2.69-2.69a1.516 1.516 0 0 1 2.145 0" clip-rule="evenodd"/></svg>