<svg xmlns="http://www.w3.org/2000/svg" width="48" height="48" fill="none"><g id="icon" fill="currentColor"><path d="M26.704 22.51a4.21 4.21 0 0 1-4.206 4.2h-.006l-15.783.06A2.696 2.696 0 0 1 4 24.088a2.697 2.697 0 0 1 2.691-2.702l14.614-.057.017-14.638A2.696 2.696 0 0 1 24.024 4a2.696 2.696 0 0 1 2.697 2.695z"/><path d="m41.297 26.717-14.582-.02.055 14.602A2.696 2.696 0 0 1 24.079 44a2.697 2.697 0 0 1-2.709-2.685l-.058-15.774v-.006a4.21 4.21 0 0 1 4.212-4.224h.008l15.771.02A2.696 2.696 0 0 1 44 24.027a2.697 2.697 0 0 1-2.703 2.69"/></g></svg>