<svg xmlns="http://www.w3.org/2000/svg" width="48" height="48"><path id="icon" fill="currentColor" fill-rule="evenodd" d="M44 24c0 11.046-8.954 20-20 20S4 35.046 4 24 12.954 4 24 4s20 8.954 20 20m-20 7.402A2.299 2.299 0 1 0 24 36a2.299 2.299 0 0 0 0-4.598m-2.183-3.713c-.17 1.091.758 1.993 1.863 1.993h.062c1.105 0 1.763-.947 2.152-1.98.173-.46.52-.958 1.208-1.645l1.265-1.203q1.484-1.437 2.078-2.61.594-1.187.594-2.515 0-2.922-1.828-4.516-1.828-1.608-5.14-1.609-3.282 0-5.188 1.688a5.45 5.45 0 0 0-1.492 2.178c-.492 1.31.713 2.493 2.113 2.493.996 0 1.712-.821 2.381-1.588q.11-.128.22-.252.05-.056.106-.113.703-.719 1.86-.719 2.436 0 2.437 2.641 0 .875-.469 1.672-.469.78-1.89 2.047-1.407 1.25-1.938 2.547a6.6 6.6 0 0 0-.394 1.49" clip-rule="evenodd"/></svg>