<svg xmlns="http://www.w3.org/2000/svg" id="icon" width="48" height="48" fill="none"><path fill="currentColor" d="M45.286 22.89h-4.822C39.954 13.433 32.768 6 24.004 6c-2.828 0-5.61.81-8.02 2.276l-.882.556a.883.883 0 0 0-.278 1.163l1.391 2.326c.232.354.65.506 1.02.253l.742-.455c1.855-1.113 3.941-1.72 6.028-1.72 6.537 0 11.869 5.462 12.38 12.44H31.7c-.603 0-.974.708-.649 1.264l6.77 11.378a.706.706 0 0 0 1.251 0l6.77-11.378c.37-.506.046-1.213-.557-1.213M31.794 35.68c-.232-.355-.65-.507-1.02-.254l-.742.455c-1.9 1.113-3.895 1.72-6.027 1.72-6.538 0-11.87-5.512-12.426-12.44h4.683c.602 0 .973-.708.649-1.264l-6.77-11.428a.706.706 0 0 0-1.251 0L2.12 23.846c-.324.557.047 1.264.65 1.264h4.775C8.055 34.517 15.242 42 24.005 42c2.782 0 5.564-.81 8.02-2.276l.882-.556a.883.883 0 0 0 .278-1.163z"/></svg>