<svg xmlns="http://www.w3.org/2000/svg" width="48" height="48"><path id="icon" fill="currentColor" fill-rule="evenodd" d="M20.707 4.876a2.97 2.97 0 0 1 2.484-.851L38.16 5.897q.094.012.18.04c.4.088.72.42.773.849l1.784 14.943a2.96 2.96 0 0 1-.667 2.285A11.5 11.5 0 0 0 35.5 23C29.149 23 24 28.149 24 34.5c0 1.69.364 3.294 1.019 4.74l-1.807 1.806a2.99 2.99 0 0 1-4.228 0l-9.91-9.91a1 1 0 0 1-.177-.239l-3.66-3.66a1 1 0 0 1-.217-.165l-1.146-1.145a2.99 2.99 0 0 1 0-4.228zm9.5 13.822a3.983 3.983 0 0 0 3.984-3.984 3.983 3.983 0 0 0-3.984-3.984 3.983 3.983 0 1 0 0 7.968M45 34.5a9.5 9.5 0 1 0-19 0 9.5 9.5 0 0 0 19 0m-8.527-4.527a.973.973 0 0 0-1.938-.131l-.008.131v3.554h-3.554a.974.974 0 0 0-.132 1.938l.132.008h3.554v3.554a.973.973 0 0 0 1.938.132l.008-.132v-3.554h3.554a.973.973 0 0 0 .132-1.938l-.132-.008h-3.554z" clip-rule="evenodd"/></svg>