<svg xmlns="http://www.w3.org/2000/svg" width="48" height="48" fill="none"><path fill="currentColor" id="icon" fill-rule="evenodd" d="M43 21.619c0 8.625-8.507 15.618-19 15.618a22.52 22.52 0 0 1-7.45-1.246c-1.644 2.54-7.36 3.622-10.085 4.001-.404.056-.659-.523-.38-.821 1.18-1.27 2.942-3.774 3.236-7.635C6.621 28.84 5 25.384 5 21.62 5 12.993 13.507 6 24 6s19 6.993 19 15.619ZM17.5 25a2.5 2.5 0 1 0 0-5 2.5 2.5 0 0 0 0 5Zm7 0a2.5 2.5 0 1 0 0-5 2.5 2.5 0 0 0 0 5Zm9.5-2.5a2.5 2.5 0 1 1-5 0 2.5 2.5 0 0 1 5 0Z" clip-rule="evenodd"/></svg>