<svg xmlns="http://www.w3.org/2000/svg" width="48" height="48" fill="none"><path id="icon" fill="currentColor" fill-rule="evenodd" d="M4 5.463C4 4.655 4.672 4 5.5 4h22c.828 0 1.5.655 1.5 1.463v12.31c0 .808-.672 1.464-1.5 1.464s-1.5-.655-1.5-1.464V6.927H11.673l8.965 1.245a1 1 0 0 1 .862.99v31.911H26V30.227c0-.808.672-1.464 1.5-1.464s1.5.656 1.5 1.464v12.31c0 .808-.672 1.463-1.5 1.463h-22c-.828 0-1.5-.655-1.5-1.463zm34.225 11.995a1.7 1.7 0 0 0-2.319 0 1.51 1.51 0 0 0 0 2.208l2.91 2.772H24.4a.4.4 0 0 0-.4.4v2.325c0 .22.18.4.4.4l14.416-.001-2.91 2.771a1.51 1.51 0 0 0 0 2.21c.64.61 1.679.61 2.319 0l5.003-4.766a2.43 2.43 0 0 0 0-3.554z" clip-rule="evenodd"/></svg>