<svg xmlns="http://www.w3.org/2000/svg" width="22" height="14" viewBox="0 0 22 14"><g fill="none"><path fill="#FFF" d="M8 10.333A4.32 4.32 0 014.16 8h3.173C7.7 8 8 7.7 8 7.333c0-.366-.3-.666-.667-.666H3.72A4.467 4.467 0 013.667 6c0-.227.02-.447.053-.667h3.613c.367 0 .667-.3.667-.666C8 4.3 7.7 4 7.333 4H4.16A4.326 4.326 0 018 1.667c.833 0 1.613.24 2.28.646a.845.845 0 001.047-.106A.835.835 0 0011.16.9 6.02 6.02 0 008 0a6.002 6.002 0 00-5.653 4H.667C.3 4 0 4.3 0 4.667c0 .366.3.666.667.666H2.04a5.443 5.443 0 000 1.334H.667c-.367 0-.667.3-.667.666C0 7.7.3 8 .667 8h1.68c.826 2.327 3.04 4 5.653 4m5.375-.546L10.421 8.5l-1.006.999 3.96 3.959 8.5-8.5-.999-.998z"/><path d="M0 0h22v14H0z"/></g></svg>