<svg width="21" height="20" viewBox="0 0 21 20" fill="none" xmlns="http://www.w3.org/2000/svg">
<path d="M5.1144 14.9993H5.41147V5.76553C5.41147 4.74873 6.28102 3.92445 7.35367 3.92445H14.2261V3.66671C14.2261 2.79226 13.4895 2.08337 12.5809 2.08337H5.1144C4.2058 2.08337 3.46924 2.79226 3.46924 3.66671V13.416C3.46924 14.2904 4.2058 14.9993 5.1144 14.9993Z" fill="white"/>
<path d="M8.31332 5.09924C7.4552 5.09924 6.75956 5.75508 6.75956 6.56409V16.4519C6.75956 17.2609 7.4552 17.9167 8.31332 17.9167H16.0821C16.9403 17.9167 17.6359 17.2609 17.6359 16.4519V6.56409C17.6359 5.75508 16.9403 5.09924 16.0821 5.09924H8.31332Z" fill="white"/>
</svg>
