<svg width="21" height="20" viewBox="0 0 21 20" fill="none" xmlns="http://www.w3.org/2000/svg">
<path id="icon" fill-rule="evenodd" clip-rule="evenodd" d="M10.5001 18.3327C15.1025 18.3327 18.8334 14.6017 18.8334 9.99935C18.8334 5.39698 15.1025 1.66602 10.5001 1.66602C5.89771 1.66602 2.16675 5.39698 2.16675 9.99935C2.16675 14.6017 5.89771 18.3327 10.5001 18.3327ZM10.5001 4.08118C10.9498 4.08118 11.3145 4.44579 11.3145 4.89557V9.66203L13.4623 11.8099C13.7803 12.1279 13.7803 12.6435 13.4623 12.9616C13.1442 13.2796 12.6286 13.2796 12.3106 12.9616L9.9242 10.5752C9.77147 10.4225 9.68567 10.2154 9.68567 9.99936V4.89557C9.68567 4.44579 10.0503 4.08118 10.5001 4.08118Z" fill="#EB0055"/>
</svg>
