<svg width="38" height="36" viewBox="0 0 38 36" xmlns="http://www.w3.org/2000/svg">
<path fill-rule="evenodd" clip-rule="evenodd" d="M14.6189 11.2895L18.2271 2.6834L20.4699 4.38383L23.3652 11.2895L23.3662 11.2919C23.725 12.1403 24.5214 12.7372 25.4545 12.8147L25.4575 12.8149L27.1689 12.9657C27.6274 13.0061 28.0318 12.6672 28.0722 12.2086C28.1126 11.7501 27.7737 11.3456 27.3152 11.3052L25.5985 11.1539L25.5933 11.1535C25.2947 11.1291 25.026 10.9367 24.9016 10.6435L24.9013 10.6426L23.1194 6.39252L31.5531 12.7867C31.6408 13.1163 31.9268 13.3714 32.2861 13.4028L32.3762 13.4107L34.9001 15.3242L28.1604 21.2154L28.1574 21.218C27.4667 21.8275 27.1509 22.7681 27.3638 23.6792L27.364 23.6803L29.4634 32.78C29.6357 33.5277 28.8348 34.0747 28.2248 33.7042L20.2917 28.8799L20.2868 28.877C19.4899 28.3998 18.5026 28.3998 17.7056 28.877L17.7008 28.8799L9.76747 33.7042C9.15545 34.0761 8.35704 33.5329 8.52932 32.7789L10.6285 23.6803L10.6288 23.6789C10.8402 22.7735 10.5302 21.8201 9.83051 21.214L9.82867 21.2124L2.83176 15.0964C2.26362 14.6004 2.57847 13.6755 3.30558 13.613L12.5266 12.8149L12.5288 12.8147C13.4623 12.7376 14.2591 12.1405 14.6179 11.2919L14.6189 11.2895ZM34.9008 15.3236L34.9001 15.3242L36.2564 16.3525L29.2601 22.4679L29.2586 22.4692C29.0173 22.6831 28.917 23.002 28.9868 23.3003L28.9874 23.3029L31.0874 32.4052C31.5816 34.5486 29.2659 36.2876 27.3593 35.1287L19.4307 30.3072L19.4286 30.306C19.1599 30.1461 18.8326 30.1461 18.5639 30.306L18.5618 30.3072L10.6333 35.1286C8.7289 36.2861 6.41111 34.5599 6.90481 32.4063L9.00507 23.3029L9.00568 23.3003C9.07677 22.9966 8.97074 22.674 8.7388 22.4735L8.73534 22.4705L1.73571 16.3522C0.0711194 14.8984 0.956183 12.1423 3.16189 11.9523L12.3869 11.1538L12.3908 11.1535C12.6894 11.1291 12.9581 10.9367 13.0825 10.6435L13.0829 10.6426L16.6902 2.03849C17.5488 -0.00702763 20.441 -0.0192417 21.2947 2.04034L21.2954 2.04218L23.1192 6.39206L20.4699 4.38362L19.7569 2.6831L19.7554 2.67942C19.4747 2.001 18.5185 1.98988 18.2271 2.6834L20.4699 4.38362L20.4699 4.38383L23.1194 6.39252L23.1192 6.39206L31.5529 12.7856C31.553 12.786 31.553 12.7863 31.5531 12.7867L32.3762 13.4107L32.3776 13.4108L34.9008 15.3236ZM34.9008 15.3236L35.1611 15.0961C35.7243 14.6049 35.4092 13.6751 34.6874 13.6131L32.3776 13.4108L31.5529 12.7856C31.5289 12.6949 31.5199 12.5987 31.5286 12.4999C31.5687 12.0413 31.9729 11.7021 32.4314 11.7422L34.8301 11.9522C37.0408 12.1428 37.9094 14.9099 36.2571 16.3519L34.9008 15.3236ZM4.58958 2.39736C4.26414 2.07187 3.73651 2.07187 3.41107 2.39736C3.08563 2.72285 3.08563 3.25057 3.41107 3.57606L7.57774 7.7434C7.90317 8.06889 8.43081 8.06889 8.75625 7.7434C9.08168 7.41791 9.08168 6.89019 8.75625 6.5647L4.58958 2.39736ZM34.5896 3.57606C34.915 3.25057 34.915 2.72285 34.5896 2.39736C34.2641 2.07187 33.7365 2.07187 33.4111 2.39736L29.2444 6.5647C28.919 6.89019 28.919 7.41791 29.2444 7.7434C29.5698 8.06889 30.0975 8.06889 30.4229 7.7434L34.5896 3.57606ZM33.7562 24.901C33.4308 24.5755 32.9032 24.5755 32.5777 24.901C32.2523 25.2265 32.2523 25.7542 32.5777 26.0797L35.9111 29.4136C36.2365 29.7391 36.7641 29.7391 37.0896 29.4136C37.415 29.0881 37.415 28.5604 37.0896 28.2349L33.7562 24.901ZM5.42291 26.9132C5.74835 26.5877 5.74835 26.06 5.42291 25.7345C5.09748 25.409 4.56984 25.409 4.2444 25.7345L0.91107 29.0683C0.585633 29.3938 0.585633 29.9216 0.91107 30.247C1.23651 30.5725 1.76414 30.5725 2.08958 30.247L5.42291 26.9132Z" fill="#fff"/>
</svg>
