<svg width="27" height="24" viewBox="0 0 23 24" fill="none" xmlns="http://www.w3.org/2000/svg">
<path fill-rule="evenodd" clip-rule="evenodd" d="M20.0698 0.346234C19.868 0.15493 19.5103 0.199621 19.2708 0.446054L17.0883 3.3247C16.8489 3.57113 16.8183 3.92599 17.0201 4.11729C17.2218 4.3086 17.5795 4.26391 17.819 4.01748L20.0015 1.13883C20.241 0.892395 20.2715 0.537539 20.0698 0.346234ZM0.923828 13.9722C0.923828 8.91811 5.01877 4.82245 10.072 4.82245C11.6259 4.82245 13.095 5.21007 14.3776 5.89948C14.6475 6.04458 14.7487 6.38106 14.6037 6.65105C14.4586 6.92103 14.1222 7.02228 13.8522 6.87718C12.7287 6.27329 11.4398 5.93239 10.072 5.93239C5.63166 5.93239 2.03358 9.53111 2.03358 13.9722C2.03358 18.4133 5.63166 22.012 10.072 22.012C14.5123 22.012 18.1104 18.4133 18.1104 13.9722C18.1104 12.5858 17.7583 11.281 17.1384 10.1404C16.992 9.87113 17.0916 9.53416 17.3609 9.38777C17.6301 9.24138 17.967 9.34101 18.1134 9.61029C18.8193 10.909 19.2201 12.3955 19.2201 13.9722C19.2201 19.0263 15.1252 23.1219 10.072 23.1219C5.01877 23.1219 0.923828 19.0263 0.923828 13.9722ZM9.49759 10.0925C9.49759 9.77999 9.76169 9.53893 10.072 9.53893C10.3822 9.53893 10.6463 9.77999 10.6463 10.0925V15.2795C10.6463 15.592 10.3822 15.833 10.072 15.833C9.76169 15.833 9.49759 15.592 9.49759 15.2795V10.0925ZM10.0729 17.0423C9.69654 17.0423 9.39141 17.3475 9.39141 17.7239C9.39141 18.1004 9.69654 18.4056 10.0729 18.4056C10.4493 18.4056 10.7545 18.1004 10.7545 17.7239C10.7545 17.3475 10.4493 17.0423 10.0729 17.0423ZM22.0982 5.70119C22.4384 5.56279 22.8002 5.65787 22.9064 5.91357C23.0126 6.16927 22.8229 6.48876 22.4827 6.62716L19.9953 7.59938C19.6552 7.73779 19.2934 7.6427 19.1872 7.387C19.081 7.1313 19.2707 6.81182 19.6109 6.67341L22.0982 5.70119Z" fill="#EB0055"/>
</svg>
