<svg width="16" height="16" viewBox="0 0 16 16" xmlns="http://www.w3.org/2000/svg">
<path id="icon" fill="currentColor" fill-rule="evenodd" clip-rule="evenodd" d="M2.66667 2.0013C2.66667 1.63206 2.96409 1.33464 3.33333 1.33464H12.6667C13.0359 1.33464 13.3333 1.63206 13.3333 2.0013V3.0313C13.3333 3.2154 13.4826 3.36464 13.6667 3.36464C13.8508 3.36464 14 3.2154 14 3.0313V2.0013C14 1.26387 13.4041 0.667969 12.6667 0.667969H3.33333C2.59591 0.667969 2 1.26387 2 2.0013V14.0013C2 14.7387 2.59591 15.3346 3.33333 15.3346H12.6667C13.4041 15.3346 14 14.7387 14 14.0013V9.3213C14 9.13721 13.8508 8.98797 13.6667 8.98797C13.4826 8.98797 13.3333 9.13721 13.3333 9.3213V14.0013C13.3333 14.3705 13.0359 14.668 12.6667 14.668H3.33333C2.96409 14.668 2.66667 14.3705 2.66667 14.0013V2.0013ZM5.57833 9.11403L5.57096 9.12158C5.51497 9.16385 5.47279 9.22344 5.4522 9.29289L4.68043 11.8959C4.64561 12.0134 4.67799 12.1405 4.76476 12.2269C4.85154 12.3134 4.97872 12.3452 5.09597 12.3099L7.68171 11.5306C7.74372 11.5119 7.79778 11.476 7.83857 11.4284C7.84915 11.4195 7.85945 11.4101 7.86943 11.4001L13.8699 5.38647C14.0236 5.2324 14.0426 5.00209 13.9123 4.87205L12.0931 3.05686C11.9628 2.92683 11.7325 2.94632 11.5788 3.10039L5.57833 9.11403ZM5.6463 10.9826L5.93093 10.0226L6.21581 10.3068L6.95757 11.0526L6.00228 11.3405L5.6463 10.9826ZM7.67587 10.6503L6.32861 9.30594L11.7723 3.85025L13.1196 5.19456L7.67587 10.6503Z" />
</svg>
