<svg width="20" height="20" viewBox="0 0 20 20" fill="none" xmlns="http://www.w3.org/2000/svg">
<path fill-rule="evenodd" clip-rule="evenodd" d="M18.3181 4.8909L10.9248 10.4987L10.9235 10.4997C10.3858 10.9101 9.60973 10.91 9.07201 10.4997L1.77828 4.89194L1.77731 4.89121C1.75038 4.87077 1.72217 4.85281 1.69298 4.83732C1.74381 4.60893 1.83408 4.3959 1.95606 4.20616C2.18922 3.924 2.53932 3.75 2.9165 3.75H14.7814H17.0832C17.4609 3.75 17.8115 3.92452 18.0447 4.20743C18.1757 4.41163 18.27 4.64273 18.3181 4.8909ZM13.4834 10.0561L18.3332 6.37752V14.8721L14.9597 11.5205C14.9483 11.5092 14.9366 11.4985 14.9245 11.4882L13.4834 10.0561ZM14.5253 12.7823L17.7908 16.0266C17.5868 16.1685 17.3413 16.25 17.0832 16.25H2.9165C2.6583 16.25 2.41278 16.1685 2.20878 16.0265L7.48556 10.786L8.30213 11.4138L8.30274 11.4143L8.30316 11.4146C9.29025 12.1677 10.7055 12.1675 11.6926 11.4144L11.693 11.4141L12.5169 10.7892L14.4891 12.7491C14.5008 12.7608 14.5129 12.7718 14.5253 12.7823ZM1.6665 6.31202V14.8721L6.52471 10.0472L1.6665 6.31202Z" fill="#161617"/>
</svg>
