<svg width="48" height="48" viewBox="0 0 48 48" fill="none" xmlns="http://www.w3.org/2000/svg">
<g id="icon">
<path fill-rule="evenodd" clip-rule="evenodd" d="M21.3449 9.41006C12.8289 9.89669 5.97315 17.0521 5.97315 25.6809C5.97315 34.6202 13.3311 41.9781 22.2704 41.9781C30.8744 41.9781 38.0135 35.1617 38.5369 26.6797H22.2704C22.0047 26.6797 21.75 26.5738 21.5626 26.3856C21.3751 26.1973 21.2704 25.9421 21.2716 25.6764L21.3449 9.41006ZM3.97559 25.6809C3.97559 15.6384 12.2279 7.38611 22.2704 7.38611H22.348C22.6137 7.38611 22.8687 7.49196 23.0562 7.68024C23.2436 7.86852 23.3483 8.12372 23.3471 8.38939L23.2737 24.6821H39.5664C40.118 24.6821 40.5652 25.1293 40.5652 25.6809C40.5652 35.7234 32.3129 43.9757 22.2704 43.9757C12.2279 43.9757 3.97559 35.7234 3.97559 25.6809Z"/>
<path fill-rule="evenodd" clip-rule="evenodd" d="M27.6055 4.97437C27.6055 4.42276 28.0526 3.97559 28.6043 3.97559C37.0277 3.97559 43.9654 10.8911 43.9758 19.3166C43.9765 19.868 43.5303 20.3155 42.979 20.3167L28.6063 20.3459C28.341 20.3464 28.0865 20.2414 27.8987 20.0541C27.711 19.8667 27.6055 19.6124 27.6055 19.3471V4.97437ZM29.603 6.0107V18.3463L41.9394 18.3212C41.438 11.7882 36.1391 6.5035 29.603 6.0107Z"/>
</g>
</svg>
