<svg width="20" height="20" viewBox="0 0 20 20" fill="none" xmlns="http://www.w3.org/2000/svg">
<path id="icon" fill-rule="evenodd" clip-rule="evenodd" d="M2.08333 4.45833C2.08333 3.14665 3.14665 2.08333 4.45833 2.08333H15.5417C16.8533 2.08333 17.9167 3.14665 17.9167 4.45833V15.5417C17.9167 16.8533 16.8533 17.9167 15.5417 17.9167H4.45833C3.14665 17.9167 2.08333 16.8533 2.08333 15.5417V4.45833ZM13.125 14.5833C13.4702 14.5833 13.75 14.8631 13.75 15.2083C13.75 15.5535 13.4702 15.8333 13.125 15.8333L6.875 15.8333C6.52982 15.8333 6.25 15.5535 6.25 15.2083C6.25 14.8631 6.52982 14.5833 6.875 14.5833H13.125ZM12.6463 10.0669C12.893 10.3135 12.8931 10.7136 12.6463 10.9604L10.7187 12.888C10.3219 13.2848 9.67789 13.2846 9.28126 12.888L7.3536 10.9604C7.10694 10.7137 7.10684 10.3137 7.35365 10.0669C7.60045 9.82005 8.00049 9.82015 8.24714 10.0668L9.36828 11.1879L9.36814 4.79854C9.36814 4.44957 9.65106 4.16666 10 4.16666C10.3489 4.16667 10.6317 4.44948 10.6317 4.79838L10.6319 11.1879L11.7528 10.0669C11.9996 9.82012 12.3996 9.82022 12.6463 10.0669Z" fill="#161617"/>
</svg>
