<svg width="16" height="16" viewBox="0 0 16 16" fill="none" xmlns="http://www.w3.org/2000/svg">
<path d="M6.06305 2.39802C6.48283 1.75413 7.1931 1.3335 7.99923 1.3335C9.28839 1.3335 10.3326 2.4118 10.3326 3.74619V5.25413C10.3326 6.58853 9.28839 7.66683 7.99923 7.66683C6.71006 7.66683 5.66589 6.58853 5.66589 5.25413V3.74619C5.66589 3.2472 5.81247 2.78144 6.06305 2.39802Z" fill="#161617"/>
<path d="M3.00998 12.22C3.5911 10.0117 5.59907 8.37891 7.99848 8.37891C10.3977 8.37891 12.4088 10.0114 12.99 12.22C13.0163 12.3198 12.9899 12.4261 12.9201 12.5021C12.5703 12.8826 12.1756 13.2255 11.742 13.518C11.742 13.518 9.96896 14.6668 8.00152 14.6668C6.04951 14.6668 4.30154 13.8281 3.08016 12.5024C3.01014 12.4264 2.98368 12.3199 3.00998 12.22Z" fill="#161617"/>
</svg>
