<svg width="24" height="24" viewBox="0 0 24 24" fill="none" xmlns="http://www.w3.org/2000/svg">
<path d="M8.22971 9.90716C8.20162 9.99034 8.2157 10.0818 8.26755 10.1529C8.31939 10.2241 8.40268 10.2663 8.49138 10.2663H13.3067C13.6411 10.2663 13.902 10.527 13.902 10.8365C13.902 11.146 13.6411 11.4068 13.3067 11.4068H8.12385C7.98253 11.4068 7.86407 11.5123 7.84946 11.6513C7.81942 11.9371 7.804 12.2277 7.804 12.5225C7.804 13.122 7.86829 13.7054 7.98993 14.2656C8.01722 14.3913 8.12961 14.4811 8.25965 14.4811H13.3067C13.6411 14.4811 13.902 14.7419 13.902 15.0514C13.902 15.3608 13.6411 15.6216 13.3067 15.6216H8.8346C8.74017 15.6216 8.65229 15.6694 8.60169 15.7482C8.55108 15.827 8.54478 15.926 8.58498 16.0104C9.17694 17.2545 10.0748 18.3098 11.1716 19.0709C12.368 19.9012 13.8007 20.382 15.3394 20.382C16.7032 20.382 17.983 20.0044 19.0889 19.3411C19.3714 19.1717 19.7403 19.2581 19.9121 19.5263C20.0816 19.7909 19.9997 20.1404 19.7206 20.3078C18.4346 21.079 16.9374 21.5225 15.3394 21.5225C13.5353 21.5225 11.8606 20.9574 10.4731 19.9945C9.00603 18.9763 7.85967 17.5139 7.20962 15.7987C7.16926 15.6922 7.06631 15.6216 6.95129 15.6216H4.59528C4.26091 15.6216 4 15.3608 4 15.0514C4 14.7419 4.26091 14.4811 4.59528 14.4811H6.48611C6.56765 14.4811 6.64502 14.4455 6.69743 14.3837C6.74985 14.3219 6.77194 14.2404 6.75778 14.161C6.66295 13.6294 6.61344 13.0817 6.61344 12.5225C6.61344 12.2465 6.62558 11.9732 6.64934 11.7031C6.65604 11.627 6.63011 11.5515 6.57786 11.4952C6.52561 11.4388 6.45184 11.4068 6.37452 11.4068H4.59528C4.26091 11.4068 4 11.146 4 10.8365C4 10.527 4.26091 10.2663 4.59528 10.2663H6.67776C6.80223 10.2663 6.91128 10.1839 6.94395 10.0651C7.97753 6.30917 11.3157 3.52246 15.3394 3.52246C16.9374 3.52246 18.4346 3.96589 19.7206 4.73712C19.9997 4.90451 20.0816 5.25404 19.9121 5.51864C19.7403 5.78682 19.3714 5.87324 19.0889 5.7038C17.983 5.04052 16.7032 4.66296 15.3394 4.66296C12.0859 4.66296 9.26728 6.83459 8.22971 9.90716Z" fill="#626262"/>
</svg>
