<svg width="42" height="40" viewBox="0 0 42 40" fill="none" xmlns="http://www.w3.org/2000/svg">
<path fill-rule="evenodd" clip-rule="evenodd" d="M17.7074 0.876151C18.3601 0.223474 19.273 -0.0947127 20.1914 0.0247123L35.1592 1.89693C35.2217 1.90474 35.282 1.91817 35.3399 1.93666C35.7392 2.02542 36.0583 2.35644 36.112 2.78556L37.8963 17.7294C38.0028 18.5485 37.7614 19.3818 37.229 20.0142C35.7866 19.3627 34.1856 19 32.5 19C26.1487 19 21 24.1487 21 30.5C21 32.1896 21.3644 33.7941 22.0189 35.2393L20.2117 37.0464C19.0458 38.2123 17.1502 38.2123 15.9843 37.0464L6.07375 27.1359C6.00148 27.0636 5.94263 26.983 5.89722 26.8971L2.23675 23.2367C2.15905 23.193 2.08596 23.1381 2.01985 23.072L0.874412 21.9266C-0.291471 20.7607 -0.291471 18.8651 0.874412 17.6992L17.7074 0.876151ZM27.2071 14.6982C29.4084 14.6982 31.1913 12.9153 31.1913 10.7141C31.1913 8.51284 29.4084 6.72994 27.2071 6.72994C25.0059 6.72994 23.223 8.51284 23.223 10.7141C23.223 12.9153 25.0159 14.6982 27.2071 14.6982ZM42 30.5C42 25.2534 37.7466 21 32.5 21C27.2534 21 23 25.2534 23 30.5C23 35.7466 27.2534 40 32.5 40C37.7466 40 42 35.7466 42 30.5ZM33.4734 25.9734C33.4734 25.4361 33.0378 25 32.5 25C32.0073 25 31.5998 25.366 31.5354 25.8416L31.5266 25.9734V29.5266H27.9734C27.4361 29.5266 27 29.9627 27 30.5C27 30.9927 27.366 31.4002 27.841 31.4646L27.9734 31.4734H31.5266V35.0266C31.5266 35.5639 31.9621 36 32.5 36C32.9927 36 33.4002 35.634 33.4646 35.159L33.4734 35.0266V31.4734H37.0266C37.5639 31.4734 38 31.0378 38 30.5C38 30.0073 37.634 29.5998 37.159 29.5354L37.0266 29.5266H33.4734V25.9734Z" fill="#EB0055"/>
</svg>
