<svg width="48" height="48" viewBox="0 0 48 48" fill="none" xmlns="http://www.w3.org/2000/svg">
<g id="icon">
<path fill-rule="evenodd" clip-rule="evenodd" d="M32.9638 5C31.8575 5 30.9663 5.89228 30.9663 7V7.79993C30.9794 7.86457 30.9863 7.93148 30.9863 8C30.9863 8.06852 30.9794 8.13543 30.9663 8.20007V9C30.9663 10.1077 31.8575 11 32.9638 11C33.5154 11 33.9625 11.4477 33.9625 12C33.9625 12.5523 33.5154 13 32.9638 13C30.7543 13 28.9688 11.2123 28.9688 9H18.0025H18.0025H16.2447C15.6931 9 15.246 8.55228 15.246 8C15.246 7.44772 15.6931 7 16.2447 7H17.0038C17.0038 5.89228 16.1126 5 15.0063 5C13.8999 5 13.0088 5.89228 13.0088 7V9C13.0088 10.1077 13.8999 11 15.0063 11C15.5579 11 16.005 11.4477 16.005 12C16.005 12.5523 15.5579 13 15.0063 13C12.7967 13 11.0113 11.2123 11.0113 9H7.99501C6.88867 9 5.9975 9.89228 5.9975 11V15H36.9788C37.5304 15 37.9776 15.4477 37.9776 16C37.9776 16.5523 37.5304 17 36.9788 17H5.9975V37C5.9975 39.7577 8.23699 42 10.9913 42H36.9588C39.7451 42 41.9943 39.7089 41.9527 36.9149L41.9526 36.8981L42.0025 11.0089C41.9775 9.89638 41.0635 9 39.9551 9H35.98H35.9601H34.2222C33.6706 9 33.2235 8.55228 33.2235 8C33.2235 7.44772 33.6706 7 34.2222 7H34.9613C34.9613 5.89228 34.0701 5 32.9638 5ZM19.0013 7H28.9688C28.9688 4.78772 30.7543 3 32.9638 3C35.1733 3 36.9588 4.78772 36.9588 7H39.9551C42.1595 7 43.9601 8.77871 43.9998 10.9819L44 11.0019L43.9501 36.8939C44.0034 40.7959 40.8612 44 36.9588 44H10.9913C7.1338 44 4 40.8623 4 37V11C4 8.78772 5.78548 7 7.99501 7H11.0113C11.0113 4.78772 12.7967 3 15.0063 3C17.2158 3 19.0013 4.78772 19.0013 7Z"/>
<path fill-rule="evenodd" clip-rule="evenodd" d="M31.54 25.2689C31.8266 24.9699 31.8165 24.4952 31.5175 24.2085C31.2185 23.9219 30.7437 23.932 30.4571 24.231L29.4971 25.2326C29.487 25.2432 29.4772 25.254 29.4677 25.2651L21.3419 33.7407L17.2933 29.4853C17.0078 29.1852 16.5331 29.1734 16.233 29.4589C15.933 29.7443 15.9211 30.2191 16.2066 30.5191L20.2679 34.7879L20.2697 34.7899C20.8574 35.4032 21.8261 35.4032 22.4138 34.79L22.414 34.7899L30.5813 26.2709C30.5916 26.2603 30.6014 26.2494 30.6109 26.2383L31.54 25.2689Z"/>
<path d="M31.5175 24.2085L31.777 23.9378L31.777 23.9378L31.5175 24.2085ZM31.54 25.2689L31.2693 25.0094L31.54 25.2689ZM30.4571 24.231L30.7279 24.4905V24.4905L30.4571 24.231ZM29.4971 25.2326L29.2264 24.9731L29.2264 24.9731L29.4971 25.2326ZM29.4677 25.2651L29.7384 25.5246C29.7434 25.5194 29.7483 25.514 29.7529 25.5086L29.4677 25.2651ZM21.3419 33.7407L21.0702 33.9992C21.1408 34.0734 21.2387 34.1155 21.3412 34.1157C21.4436 34.1159 21.5417 34.0742 21.6126 34.0003L21.3419 33.7407ZM17.2933 29.4853L17.0216 29.7437H17.0216L17.2933 29.4853ZM16.233 29.4589L15.9746 29.1872H15.9746L16.233 29.4589ZM16.2066 30.5191L15.9349 30.7776H15.9349L16.2066 30.5191ZM20.2679 34.7879L19.9962 35.0464L19.9967 35.0469L20.2679 34.7879ZM20.2697 34.7899L19.9985 35.0489L19.999 35.0494L20.2697 34.7899ZM22.4138 34.79L22.6846 35.0495L22.6847 35.0494L22.4138 34.79ZM22.414 34.7899L22.1433 34.5304L22.1431 34.5305L22.414 34.7899ZM30.5813 26.2709L30.3107 26.0114L30.3106 26.0114L30.5813 26.2709ZM30.6109 26.2383L30.3401 25.9788C30.3352 25.984 30.3303 25.9893 30.3256 25.9948L30.6109 26.2383ZM31.258 24.4793C31.4075 24.6226 31.4126 24.8599 31.2693 25.0094L31.8107 25.5284C32.2406 25.0799 32.2255 24.3677 31.777 23.9378L31.258 24.4793ZM30.7279 24.4905C30.8712 24.341 31.1085 24.336 31.258 24.4793L31.777 23.9378C31.3285 23.5079 30.6163 23.523 30.1864 23.9715L30.7279 24.4905ZM29.7679 25.4921L30.7279 24.4905L30.1864 23.9715L29.2264 24.9731L29.7679 25.4921ZM29.7529 25.5086C29.7577 25.503 29.7627 25.4975 29.7679 25.4921L29.2264 24.9731C29.2113 24.9889 29.1966 25.0051 29.1825 25.0216L29.7529 25.5086ZM21.6126 34.0003L29.7384 25.5246L29.197 25.0056L21.0712 33.4812L21.6126 34.0003ZM17.0216 29.7437L21.0702 33.9992L21.6136 33.4823L17.565 29.2268L17.0216 29.7437ZM16.4915 29.7305C16.6416 29.5878 16.8789 29.5937 17.0216 29.7437L17.565 29.2268C17.1368 28.7767 16.4247 28.7589 15.9746 29.1872L16.4915 29.7305ZM16.4783 30.2607C16.3356 30.1106 16.3415 29.8733 16.4915 29.7305L15.9746 29.1872C15.5244 29.6154 15.5067 30.3275 15.9349 30.7776L16.4783 30.2607ZM20.5396 34.5295L16.4783 30.2607L15.9349 30.7776L19.9962 35.0464L20.5396 34.5295ZM20.5409 34.5309L20.5391 34.529L19.9967 35.0469L19.9985 35.0489L20.5409 34.5309ZM22.1431 34.5305C21.703 34.9897 20.9806 34.9897 20.5405 34.5305L19.999 35.0494C20.7343 35.8167 21.9492 35.8168 22.6846 35.0495L22.1431 34.5305ZM22.1431 34.5305L22.143 34.5307L22.6847 35.0494L22.6848 35.0493L22.1431 34.5305ZM30.3106 26.0114L22.1433 34.5304L22.6847 35.0494L30.852 26.5304L30.3106 26.0114ZM30.3256 25.9948C30.3209 26.0004 30.3159 26.006 30.3107 26.0114L30.852 26.5304C30.8673 26.5146 30.8819 26.4983 30.8961 26.4818L30.3256 25.9948ZM31.2693 25.0094L30.3401 25.9788L30.8816 26.4978L31.8107 25.5284L31.2693 25.0094Z"/>
</g>
</svg>
