<svg width="24" height="24" viewBox="0 0 24 24" fill="none" xmlns="http://www.w3.org/2000/svg">
<path id="icon" fill-rule="evenodd" clip-rule="evenodd" d="M12 21.5455C6.72723 21.5455 2.45455 17.2728 2.45455 12C2.45455 10.3762 2.85922 8.84524 3.57654 7.51048C3.70132 7.2783 3.61426 6.98892 3.38207 6.86414C3.14988 6.73936 2.86051 6.82643 2.73573 7.05861C1.94487 8.53022 1.5 10.2161 1.5 12C1.5 17.8 6.20005 22.5 12 22.5C17.8 22.5 22.5 17.8 22.5 12C22.5 6.20005 17.8 1.5 12 1.5C10.1905 1.5 8.48483 1.96008 6.99455 2.77023C6.76297 2.89612 6.67729 3.18591 6.80318 3.4175C6.92908 3.64908 7.21887 3.73476 7.45045 3.60886C8.80472 2.87265 10.3541 2.45455 12 2.45455C17.2728 2.45455 21.5455 6.72723 21.5455 12C21.5455 17.2728 17.2728 21.5455 12 21.5455ZM12.4773 5.37547C12.4773 5.11188 12.2636 4.8982 12 4.8982C11.7364 4.8982 11.5227 5.11188 11.5227 5.37547V12C11.5227 12.1266 11.573 12.248 11.6625 12.3375L14.5261 15.2011C14.7125 15.3875 15.0147 15.3875 15.2011 15.2011C15.3875 15.0147 15.3875 14.7126 15.2011 14.5262L12.4773 11.8023V5.37547Z" fill="#000000"/>
</svg>
