<svg width="24" height="24" viewBox="0 0 24 24" fill="none" xmlns="http://www.w3.org/2000/svg">
<path id="icon" fill-rule="evenodd" clip-rule="evenodd" d="M18.2109 3C17.4959 3 16.7808 3.27367 16.2333 3.81544L15.4835 4.5651C16.2644 4.81966 17.2809 5.25802 18.0379 6.05698C18.7487 6.80711 19.1989 7.76616 19.4694 8.47201L20.183 7.75858C21.2723 6.66947 21.2723 4.89897 20.183 3.80985C19.6411 3.27367 18.926 3 18.2109 3ZM18.6837 9.26112C18.4574 8.59454 18.0607 7.53966 17.3095 6.74688C16.5429 5.93785 15.4384 5.58543 14.6785 5.37451C14.6774 5.37595 14.6762 5.37739 14.6751 5.37884L4.6134 15.4382L4.66864 15.4789C4.64278 15.5166 4.62182 15.5584 4.60679 15.6034L3.02582 20.3396C2.96565 20.5199 3.01253 20.7186 3.1469 20.853C3.28126 20.9874 3.48006 21.0343 3.66036 20.9742L8.4033 19.3936C8.44846 19.3786 8.49034 19.3576 8.52821 19.3316L8.56864 19.3869L18.6746 9.2777L18.6837 9.26112ZM7.62558 18.5158C7.63541 18.5402 7.64443 18.5637 7.65271 18.5863L5.20293 19.4028C5.17735 19.342 5.1452 19.2784 5.10488 19.2138C4.99497 19.0375 4.83709 18.8723 4.61994 18.7329L5.41479 16.3517C5.43769 16.36 5.46156 16.369 5.48636 16.3789C5.78711 16.4987 6.23388 16.7455 6.74466 17.2562C7.25577 17.7672 7.5043 18.2144 7.62558 18.5158Z"/>
</svg>
