<svg width="48" height="49" viewBox="0 0 48 49" xmlns="http://www.w3.org/2000/svg">
<path id="icon" fill="currentColor" fill-rule="evenodd" clip-rule="evenodd" d="M7.0392 8.5C7.0392 7.3989 7.95184 6.5 9.09996 6.5H27.5821C28.7302 6.5 29.6429 7.3989 29.6429 8.5V17.09C29.6429 17.6423 30.0994 18.09 30.6625 18.09C31.2256 18.09 31.6821 17.6423 31.6821 17.09V8.5C31.6821 6.2811 29.8429 4.5 27.5821 4.5H9.09996C6.83915 4.5 5 6.2811 5 8.5V40.5C5 42.7189 6.83915 44.5 9.09996 44.5H27.5821C29.8429 44.5 31.6821 42.7189 31.6821 40.5V33.09C31.6821 32.5377 31.2256 32.09 30.6625 32.09C30.0994 32.09 29.6429 32.5377 29.6429 33.09V40.5C29.6429 41.6011 28.7302 42.5 27.5821 42.5H9.09996C7.95184 42.5 7.0392 41.6011 7.0392 40.5V8.5ZM37.6195 18.4676C37.2158 18.0742 36.5667 18.069 36.1696 18.4559C35.7726 18.8428 35.7779 19.4753 36.1816 19.8687L39.9913 23.6846L19.3126 23.5127C18.7464 23.5081 18.2912 23.9517 18.2959 24.5034C18.3006 25.0552 18.7634 25.5061 19.3296 25.5107L40.0027 25.6735L36.2364 29.2112C35.8393 29.5981 35.8447 30.2306 36.2484 30.624C36.6521 31.0174 37.3012 31.0226 37.6983 30.6357L42.4115 26.0429C43.2056 25.2691 43.1949 24.0041 42.3875 23.2173L37.6195 18.4676Z"/>
</svg>
