<svg width="48" height="48" viewBox="0 0 48 48" xmlns="http://www.w3.org/2000/svg">
<g id="icon">
    <path d="M21.3957 8.5123C22.5472 6.4959 25.4545 6.4959 26.606 8.5123L28.8527 12.4467C29.1266 12.9263 29.7374 13.093 30.217 12.8191C30.6966 12.5453 30.8634 11.9345 30.5895 11.4549L28.3427 7.5205C26.4236 4.15983 21.5781 4.15984 19.6589 7.5205L3.66829 35.522C1.76478 38.8553 4.17169 43.0015 8.01019 43.0015H39.9914C43.83 43.0015 46.2369 38.8553 44.3333 35.522L36.3098 21.4718C36.0359 20.9922 35.4251 20.8254 34.9455 21.0993C34.4659 21.3732 34.2991 21.984 34.573 22.4636L42.5966 36.5138C43.7387 38.5138 42.2945 41.0015 39.9914 41.0015H8.01019C5.70709 41.0015 4.26295 38.5138 5.40505 36.5138L21.3957 8.5123Z" fill="#67686B"/>
    <path d="M24.0099 16.0072C24.5624 16.0072 25.0104 16.4329 25.0104 16.9581V29.0511C25.0104 29.5762 24.5624 30.002 24.0099 30.002C23.4574 30.002 23.0094 29.5762 23.0094 29.0511V16.9581C23.0094 16.4329 23.4574 16.0072 24.0099 16.0072Z" fill="#67686B"/>
    <path d="M22.7593 34.7502C22.7593 34.0601 23.3192 33.5007 24.0099 33.5007C24.7006 33.5007 25.2605 34.0601 25.2605 34.7502C25.2605 35.4403 24.7006 35.9997 24.0099 35.9997C23.3192 35.9997 22.7593 35.4403 22.7593 34.7502Z" fill="#67686B"/>
</g>
</svg>
