<svg width="22" height="26" viewBox="0 0 22 26" fill="none" xmlns="http://www.w3.org/2000/svg">
<path fill-rule="evenodd" clip-rule="evenodd" d="M3.27916 0.147543C3.46398 -0.0604883 3.82477 -0.0468849 4.08499 0.177927L6.51131 2.85715C6.77153 3.08196 6.83265 3.43285 6.64782 3.64088C6.46299 3.84892 6.10221 3.83531 5.84199 3.6105L3.41567 0.931277C3.15545 0.706465 3.09433 0.355575 3.27916 0.147543ZM0.0191208 4.47795C0.102959 4.21402 0.43856 4.08273 0.768708 4.1847L4.08591 5.66887C4.41606 5.77085 4.61573 6.06747 4.53189 6.33141C4.44805 6.59534 4.11245 6.72663 3.78231 6.62466L0.465104 5.14049C0.134957 5.03851 -0.064717 4.74189 0.0191208 4.47795ZM12.63 14.555C12.5179 14.2228 12.2112 14.0243 11.9451 14.1117C11.679 14.199 11.5541 14.5391 11.6662 14.8713L12.3812 16.9902C12.4933 17.3224 12.7999 17.5209 13.0661 17.4336C13.3322 17.3463 13.4571 17.0062 13.345 16.674L12.63 14.555ZM16.2623 14.1244C15.9962 14.037 15.6919 14.2287 15.5826 14.5524L14.8859 16.6171C14.7767 16.9408 14.9039 17.274 15.17 17.3614C15.4361 17.4487 15.7404 17.2571 15.8496 16.9334L16.5464 14.8686C16.6556 14.5449 16.5284 14.2117 16.2623 14.1244ZM9.32058 6.09997C10.5841 4.70481 12.4492 3.85189 14.5105 3.92857C18.0341 4.06277 20.9047 7.03378 20.8709 10.5151C20.8563 11.9493 20.3754 13.2709 19.5648 14.3387L19.564 14.3397C18.5049 15.7421 17.8921 17.4375 17.8921 19.2069V19.2535C17.8921 19.6314 17.5905 19.9209 17.226 19.9209H11.279C10.9131 19.9209 10.6129 19.6248 10.6129 19.2638V19.2069C10.6129 17.4509 10.0178 15.7544 8.9504 14.3538C8.12427 13.2654 7.63415 11.9197 7.63415 10.453C7.63415 10.1673 7.39936 9.93562 7.10972 9.93562C6.82008 9.93562 6.58529 10.1673 6.58529 10.453C6.58529 12.1524 7.1544 13.7142 8.11117 14.9745L8.11179 14.9753C9.04755 16.203 9.56407 17.6829 9.56407 19.2069V19.2638C9.56407 20.1963 10.3338 20.9556 11.279 20.9556H17.226C18.1727 20.9556 18.9409 20.2 18.9409 19.2535V19.2069C18.9409 17.6757 19.4712 16.1946 20.4047 14.9584C21.3455 13.7189 21.9028 12.1848 21.9197 10.5254L21.9197 10.5252C21.9591 6.4841 18.6416 3.05024 14.5507 2.89458L14.5502 2.89457C12.1644 2.80575 10.0019 3.79465 8.53843 5.41055C8.34545 5.62363 8.36411 5.95069 8.58009 6.14107C8.79608 6.33145 9.1276 6.31305 9.32058 6.09997ZM11.3046 22.645C10.9564 22.645 10.6741 22.8761 10.6741 23.1611C10.6741 23.4462 10.9564 23.6773 11.3046 23.6773H17.1998C17.548 23.6773 17.8303 23.4462 17.8303 23.1611C17.8303 22.8761 17.548 22.645 17.1998 22.645H11.3046ZM11.1857 25.4838C11.1857 25.1987 11.4881 24.9676 11.8612 24.9676H16.644C17.0171 24.9676 17.3196 25.1987 17.3196 25.4838C17.3196 25.7689 17.0171 26 16.644 26H11.8612C11.4881 26 11.1857 25.7689 11.1857 25.4838Z" fill="#6123DF"/>
</svg>
