<svg width="40" height="40" viewBox="0 0 40 40" xmlns="http://www.w3.org/2000/svg">
<g id="icon">
<path fill-rule="evenodd" clip-rule="evenodd" d="M7.50016 4.16667C6.11945 4.16667 5.00016 5.28595 5.00016 6.66667C5.00016 8.04738 6.11945 9.16667 7.50016 9.16667C8.88087 9.16667 10.0002 8.04738 10.0002 6.66667C10.0002 5.28595 8.88087 4.16667 7.50016 4.16667ZM3.3335 6.66667C3.3335 4.36548 5.19898 2.5 7.50016 2.5C9.80135 2.5 11.6668 4.36548 11.6668 6.66667C11.6668 8.96785 9.80135 10.8333 7.50016 10.8333C5.19898 10.8333 3.3335 8.96785 3.3335 6.66667Z" fill="#6123DF"/>
<path fill-rule="evenodd" clip-rule="evenodd" d="M37.2559 30.2441C37.5814 30.5695 37.5814 31.0972 37.2559 31.4226L33.9226 34.7559C33.5972 35.0814 33.0695 35.0814 32.7441 34.7559C32.4186 34.4305 32.4186 33.9028 32.7441 33.5774L36.0774 30.2441C36.4028 29.9186 36.9305 29.9186 37.2559 30.2441Z" fill="#6123DF"/>
<path fill-rule="evenodd" clip-rule="evenodd" d="M32.7441 30.2441C33.0695 29.9186 33.5972 29.9186 33.9226 30.2441L37.2559 33.5774C37.5814 33.9028 37.5814 34.4305 37.2559 34.7559C36.9305 35.0814 36.4028 35.0814 36.0774 34.7559L32.7441 31.4226C32.4186 31.0972 32.4186 30.5695 32.7441 30.2441Z" fill="#6123DF"/>
<path fill-rule="evenodd" clip-rule="evenodd" d="M10.8332 6.66536C10.8332 6.20513 11.2063 5.83203 11.6665 5.83203H25.4165C29.3267 5.83203 32.4998 9.00513 32.4998 12.9154C32.4998 16.8256 29.3267 19.9987 25.4165 19.9987H16.6665C13.4434 19.9987 10.8332 22.6089 10.8332 25.832C10.8332 29.0551 13.4434 31.6654 16.6665 31.6654H29.1665C29.5036 31.6654 29.8074 31.8684 29.9364 32.1798C30.0654 32.4912 29.9941 32.8496 29.7558 33.088L25.5891 37.2546C25.2637 37.5801 24.736 37.5801 24.4106 37.2546C24.0851 36.9292 24.0851 36.4015 24.4106 36.0761L27.1547 33.332H16.6665C12.5229 33.332 9.1665 29.9756 9.1665 25.832C9.1665 21.6885 12.5229 18.332 16.6665 18.332H25.4165C28.4063 18.332 30.8332 15.9051 30.8332 12.9154C30.8332 9.9256 28.4063 7.4987 25.4165 7.4987H11.6665C11.2063 7.4987 10.8332 7.1256 10.8332 6.66536Z" fill="#6123DF"/>
<path fill-rule="evenodd" clip-rule="evenodd" d="M24.4106 27.7441C24.736 27.4186 25.2637 27.4186 25.5891 27.7441L29.7558 31.9107C30.0812 32.2362 30.0812 32.7638 29.7558 33.0893C29.4303 33.4147 28.9027 33.4147 28.5772 33.0893L24.4106 28.9226C24.0851 28.5972 24.0851 28.0695 24.4106 27.7441Z" fill="#6123DF"/>
</g>
</svg>
