<svg width="14" height="16" viewBox="0 0 14 16" xmlns="http://www.w3.org/2000/svg">
<path d="M3.85874 6.25613C3.83534 6.32545 3.84707 6.40166 3.89027 6.46095C3.93348 6.52024 4.00289 6.55538 4.0768 6.55538H8.08957C8.36821 6.55538 8.58564 6.7727 8.58564 7.03058C8.58564 7.28846 8.36821 7.50579 8.08957 7.50579H3.77052C3.65276 7.50579 3.55404 7.59377 3.54187 7.70957C3.51684 7.94772 3.50398 8.18993 3.50398 8.43555C3.50398 8.93517 3.55756 9.4213 3.65893 9.88818C3.68167 9.99294 3.77532 10.0678 3.88369 10.0678H8.08957C8.36821 10.0678 8.58564 10.2851 8.58564 10.543C8.58564 10.8008 8.36821 11.0182 8.08957 11.0182H4.36282C4.28412 11.0182 4.2109 11.058 4.16873 11.1237C4.12655 11.1893 4.1213 11.2718 4.1548 11.3422C4.6481 12.3789 5.39633 13.2583 6.31028 13.8926C7.30733 14.5845 8.5012 14.9851 9.78348 14.9851C10.92 14.9851 11.9864 14.6705 12.908 14.1178C13.1435 13.9766 13.4509 14.0486 13.5941 14.2721C13.7353 14.4926 13.667 14.7838 13.4345 14.9233C12.3629 15.566 11.1152 15.9355 9.78348 15.9355C8.28004 15.9355 6.88451 15.4647 5.72827 14.6622C4.50568 13.8138 3.55038 12.5951 3.00866 11.1657C2.97503 11.077 2.88924 11.0182 2.79339 11.0182H0.83005C0.551411 11.0182 0.333984 10.8008 0.333984 10.543C0.333984 10.2851 0.551411 10.0678 0.83005 10.0678H2.40574C2.47369 10.0678 2.53816 10.038 2.58184 9.98658C2.62552 9.93511 2.64393 9.86718 2.63213 9.80102C2.55311 9.35801 2.51185 8.9016 2.51185 8.43555C2.51185 8.20556 2.52197 7.97781 2.54177 7.75276C2.54735 7.6893 2.52574 7.62643 2.4822 7.57948C2.43866 7.53252 2.37718 7.50579 2.31275 7.50579H0.83005C0.551411 7.50579 0.333984 7.28846 0.333984 7.03058C0.333984 6.7727 0.551411 6.55538 0.83005 6.55538H2.56545C2.66917 6.55538 2.76005 6.48671 2.78728 6.38777C3.6486 3.2578 6.43037 0.935547 9.78348 0.935547C11.1152 0.935547 12.3629 1.30507 13.4345 1.94776C13.667 2.08725 13.7353 2.37853 13.5941 2.59903C13.4509 2.82252 13.1435 2.89453 12.908 2.75333C11.9864 2.2006 10.92 1.88596 9.78348 1.88596C7.07225 1.88596 4.72339 3.69566 3.85874 6.25613Z"/>
</svg>
