<svg width="24" height="25" viewBox="0 0 24 25" fill="none" xmlns="http://www.w3.org/2000/svg">
<g clip-path="url(#clip0_964_6359)">
<g clip-path="url(#clip1_964_6359)">
<path opacity="0.4" d="M16.0061 6.56373C16.0066 6.37167 16.0051 5.97502 16.0031 5.70945C16.0022 5.5976 16.0015 5.50816 16.001 5.40474C15.9994 5.07338 15.7314 4.80469 15.4 4.80469H4.46833C4.20475 4.80471 3.98706 5.01531 3.99186 5.27885C3.99402 5.39777 3.99723 5.49879 3.99422 5.70945C3.99057 5.96465 3.99342 6.25316 3.99422 6.56373C3.9949 6.8342 3.9994 7.15767 4.01138 7.51897H1.91696C1.41072 7.51897 0.983529 7.92367 1.00049 8.43841C1.03134 9.37464 1.15601 10.1547 1.35645 10.8146C1.4703 11.1895 1.74149 11.7402 1.90016 12.0428C2.09289 12.4104 2.58909 13.1245 2.9966 13.5342C3.42983 13.9697 4.10829 14.3326 4.56563 14.5471C5.05 14.7571 5.17584 14.8856 5.32464 14.9753C5.62143 15.1543 6.06465 15.4536 6.14605 15.5831C6.92373 16.82 7.6533 17.6323 8.03467 18.0205C8.13586 18.1235 8.16586 18.2155 8.16279 18.2792C8.13442 18.8685 7.90813 20.1101 6.5554 20.8539C6.40976 20.934 6.31961 21.0848 6.31961 21.2483L6.32224 22.8523C6.32224 23.1021 6.52909 23.3047 6.78424 23.3047H13.2297C13.4848 23.3047 13.6917 23.1021 13.6917 22.8523L13.689 21.2483C13.689 21.0774 13.5906 20.9211 13.4347 20.8443C11.8829 20.0794 11.78 18.8097 11.8079 18.2693C11.8104 18.2222 11.8376 18.1494 11.9272 18.0593C12.1983 17.7868 12.6763 17.2696 13.2297 16.5074C13.3085 16.4636 13.375 16.3966 13.4174 16.3105C13.725 15.6849 14.1707 15.2637 14.7032 14.8899C14.97 14.7027 15.2525 14.5315 15.5538 14.3488L15.565 14.342C15.8661 14.1594 16.185 13.9658 16.496 13.7463C17.125 13.3024 17.7362 12.7437 18.1973 11.8944C18.6565 11.0488 18.9495 9.94767 18.9995 8.44186C19.0163 7.93707 18.6032 7.52808 18.1 7.51912L18.0831 7.51897H15.9889C16.0009 7.15767 16.0054 6.8342 16.0061 6.56373Z" fill="#FFA5C0"/>
<path fill-rule="evenodd" clip-rule="evenodd" d="M19.5034 2.30469C19.5058 2.59821 19.5075 3.03662 19.5069 3.2489C19.5053 3.84252 19.4862 4.66711 19.416 5.59153C19.2837 7.33372 18.966 9.49554 18.201 11.1247C18.2672 11.0864 18.3332 11.0486 18.3986 11.011L18.3986 11.011L18.4252 10.9957C18.7802 10.7918 19.1209 10.5953 19.4485 10.3762C20.0956 9.94366 20.6748 9.43385 21.1119 8.67122C21.5502 7.90666 21.866 6.85217 21.9217 5.30469H20.9697C20.672 5.30469 20.4307 5.08083 20.4307 4.80469C20.4307 4.52855 20.672 4.30469 20.9697 4.30469H21.9305C22.5265 4.30469 23.0194 4.76057 22.9996 5.32472C22.9413 6.98904 22.5995 8.20606 22.0637 9.1407C21.5257 10.0793 20.8127 10.6969 20.0788 11.1875C19.716 11.4301 19.344 11.6441 18.9927 11.8459L18.9796 11.8535C18.628 12.0554 18.2985 12.2446 17.9873 12.4516C17.366 12.8647 16.8461 13.3302 16.4871 14.0216C16.4376 14.117 16.3598 14.1911 16.2675 14.2396C15.622 15.0818 15.0645 15.6534 14.7482 15.9546C14.6437 16.0541 14.6119 16.1345 14.6091 16.1866C14.5764 16.7839 14.6966 18.1873 16.507 19.0326C16.6889 19.1176 16.8037 19.2903 16.8037 19.4792V21.8047C16.8037 22.0808 16.5623 22.3047 16.2647 22.3047H8.74503C8.44734 22.3047 8.20602 22.0808 8.20602 21.8047V19.4792C8.20602 19.2985 8.3112 19.1318 8.48111 19.0433C10.0593 18.2212 10.3233 16.8489 10.3564 16.1976C10.36 16.1272 10.325 16.0254 10.2069 15.9116C9.76198 15.4826 8.91074 14.5847 8.00341 13.2174C7.97709 13.2002 7.95205 13.1805 7.92866 13.1582C7.7141 12.9539 7.36699 12.7297 7.04541 12.5459C6.98728 12.5127 6.92022 12.4789 6.84975 12.4435C6.48194 12.2584 6.02141 12.0266 6.25532 11.5811C6.40595 11.2941 6.65382 11.2736 6.90957 11.3502C6.0642 9.69919 5.72251 7.4154 5.58399 5.59153C5.57664 5.49477 5.56985 5.39911 5.56359 5.30469H3.07868C3.11323 6.26415 3.24781 7.03394 3.44922 7.66216C3.56411 8.02049 3.70095 8.33348 3.85404 8.61007C4.03957 8.9453 4.25088 9.23055 4.48035 9.4805C4.63089 9.64448 4.79041 9.79452 4.95752 9.93447C5.18194 10.1224 5.22994 10.4565 5.04457 10.6831C4.87248 10.8934 4.56479 10.9294 4.3546 10.7572C4.12167 10.5663 3.83571 10.3207 3.65964 10.1289C3.3782 9.82231 3.11989 9.47307 2.89504 9.06681C2.70992 8.73232 2.54878 8.36155 2.41595 7.94722C2.18211 7.21784 2.03665 6.35569 2.00066 5.3209C1.98088 4.75199 2.47927 4.30469 3.06989 4.30469H5.5131C5.49912 3.90535 5.49387 3.54784 5.49307 3.24889C5.49214 2.90563 5.49966 2.58386 5.5257 2.30469H4.95431C4.65663 2.30469 4.41531 2.08083 4.41531 1.80469C4.41531 1.52855 4.65663 1.30469 4.95431 1.30469H6.03232L6.03999 1.30474L6.0462 1.30469H15.7397C16.0373 1.30469 16.2787 1.52855 16.2787 1.80469C16.2787 2.08083 16.0373 2.30469 15.7397 2.30469H6.57322C6.5716 2.43077 6.57062 3.07906 6.57107 3.24639C6.57262 3.82336 6.59123 4.62462 6.65933 5.52125C6.79698 7.33363 7.13244 9.46394 7.89033 10.9349C9.08268 13.249 10.4228 14.6774 10.9838 15.2183C11.0122 15.2457 11.0402 15.2745 11.0674 15.3047H11.9632C12.2609 15.3047 12.5022 15.5285 12.5022 15.8047C12.5022 16.0808 12.2609 16.3047 11.9632 16.3047H11.4297C11.3849 16.9877 11.1287 18.2858 9.92551 19.3047H13.1072C13.4049 19.3047 13.6462 19.5285 13.6462 19.8047C13.6462 20.0808 13.4049 20.3047 13.1072 20.3047H9.28403V21.3047H15.7257V19.7771C13.6557 18.664 13.4909 16.8971 13.5325 16.136C13.5529 15.7613 13.7591 15.4633 13.976 15.2568C14.5106 14.7477 15.8877 13.3064 17.1096 10.9349C17.8675 9.46394 18.203 7.33363 18.3406 5.52125C18.4087 4.62462 18.4274 3.82335 18.4289 3.24639L18.4295 3.01898C18.4304 2.69498 18.4318 2.17611 18.4291 2.05469L18.4289 1.80469L18.4293 1.8045C18.4294 1.52844 18.6707 1.30469 18.9683 1.30469H20.0463C20.344 1.30469 20.5853 1.52855 20.5853 1.80469C20.5853 2.08083 20.344 2.30469 20.0463 2.30469H19.5034Z" fill="#EB0055"/>
</g>
</g>
<defs>
<clipPath id="clip0_964_6359">
<rect width="24" height="24" fill="white" transform="translate(0 0.304688)"/>
</clipPath>
<clipPath id="clip1_964_6359">
<rect width="22.0001" height="23" fill="white" transform="translate(1 1.30469)"/>
</clipPath>
</defs>
</svg>
