<svg width="20" height="20" viewBox="0 0 20 20" fill="none" xmlns="http://www.w3.org/2000/svg">
<path fill-rule="evenodd" clip-rule="evenodd" d="M16.7778 3.45092C16.9405 3.60814 16.9405 3.86303 16.7778 4.02025L10.2946 10.2842L6.23888 14.2027C6.23412 14.2076 6.22925 14.2123 6.22428 14.2168L3.81109 16.5484C3.64837 16.7056 3.38455 16.7056 3.22183 16.5484C3.05911 16.3912 3.05911 16.1363 3.22183 15.9791L5.25939 14.0104C4.03009 13.2874 2.99864 12.4116 2.25354 11.6912C1.83262 11.2843 1.50038 10.9243 1.27264 10.6652C1.15872 10.5356 1.07079 10.431 1.01083 10.3582C0.980852 10.3218 0.957852 10.2933 0.942082 10.2736L0.923875 10.2506L0.918893 10.2443L0.917442 10.2424L0.916688 10.2415L1.24982 9.99967L0.917 9.75747L0.91728 9.75711L0.91811 9.75605L0.920845 9.75256L0.930585 9.74024C0.938966 9.72968 0.951106 9.71449 0.966914 9.69498C0.998529 9.65597 1.04483 9.59965 1.10509 9.5285C1.22558 9.38623 1.40205 9.18445 1.62864 8.94299C2.08135 8.46057 2.73663 7.81705 3.54767 7.17264C5.15814 5.89303 7.43923 4.5649 9.99982 4.5649C11.4428 4.5649 12.798 4.98787 13.985 5.57989L16.1885 3.45092C16.3512 3.2937 16.6151 3.2937 16.7778 3.45092ZM13.364 6.17992C12.3229 5.69275 11.1834 5.37005 9.99982 5.37005C7.72709 5.37005 5.63318 6.55802 4.07698 7.79451C3.30468 8.40815 2.67872 9.02268 2.246 9.4838C2.04999 9.69268 1.89415 9.86952 1.78286 9.99979C1.81969 10.0429 1.86141 10.0912 1.90786 10.1441C2.12348 10.3894 2.44046 10.7329 2.84298 11.1221C3.59554 11.8497 4.63774 12.7275 5.86708 13.4233L7.07303 12.2581C7.06054 12.2461 7.04869 12.2332 7.03758 12.2194C6.54544 11.6081 6.24982 10.8374 6.24982 9.99966C6.24982 7.99794 7.92803 6.37647 9.99982 6.37647C10.8864 6.37647 11.7 6.67556 12.3412 7.16816L13.364 6.17992ZM11.747 7.74223C11.2588 7.3911 10.6548 7.18163 9.99982 7.18163C8.38827 7.18163 7.08315 8.44261 7.08315 9.99966C7.08315 10.6339 7.30033 11.2173 7.66477 11.6864L8.87043 10.5215C8.62887 10.0362 8.74898 9.43734 9.19566 9.07374C9.4606 8.85807 9.79029 8.76754 10.1094 8.79507C10.0397 8.91279 9.99982 9.04916 9.99982 9.19453C9.99982 9.26665 10.0096 9.33656 10.028 9.40307L11.747 7.74223ZM0.917 9.75747C0.916898 9.7576 0.91681 9.75772 1.24982 9.99967C0.916688 10.2415 0.916623 10.2414 0.916688 10.2415C0.805268 10.0982 0.805508 9.90072 0.917 9.75747ZM16.7849 7.44483C16.6109 7.29935 16.3478 7.31771 16.1972 7.48585C16.0466 7.65398 16.0656 7.90821 16.2396 8.05369C16.919 8.62166 17.4657 9.17144 17.8421 9.57884C17.997 9.74648 18.1227 9.88967 18.2167 9.99965C18.1054 10.1299 17.9496 10.3067 17.7536 10.5155C17.3209 10.9767 16.6949 11.5912 15.9226 12.2048C14.3664 13.4413 12.2725 14.6293 9.99978 14.6293C9.34752 14.6293 8.71075 14.5312 8.09206 14.3626C7.87058 14.3022 7.64039 14.4268 7.57793 14.6408C7.51546 14.8548 7.64436 15.0772 7.86584 15.1375C8.54714 15.3232 9.26038 15.4344 9.99978 15.4344C12.5604 15.4344 14.8415 14.1063 16.4519 12.8267C17.263 12.1823 17.9183 11.5388 18.371 11.0563C18.5976 10.8149 18.774 10.6131 18.8945 10.4708C18.9548 10.3997 19.0011 10.3434 19.0327 10.3043C19.0485 10.2848 19.0606 10.2697 19.069 10.2591L19.0788 10.2468L19.0815 10.2433L19.0826 10.2419C19.1941 10.0986 19.1942 9.90082 19.0826 9.75751L19.0817 9.75624L19.0793 9.75318L19.0708 9.74241L19.0392 9.70298C19.0117 9.66899 18.9715 9.6199 18.9192 9.55769C18.8145 9.43331 18.6611 9.25633 18.4637 9.04267C18.0693 8.61573 17.4972 8.04031 16.7849 7.44483ZM19.0826 9.75751L18.7498 9.99966C19.0828 9.75773 19.0827 9.75756 19.0826 9.75751ZM18.7498 9.99966L19.0826 10.2419C19.0827 10.2417 19.0828 10.2416 18.7498 9.99966ZM13.7499 9.99967C13.7499 9.77734 13.5633 9.5971 13.3332 9.5971C13.1031 9.5971 12.9165 9.77734 12.9165 9.99967C12.9165 11.5567 11.6114 12.8177 9.99988 12.8177C9.69772 12.8177 9.40552 12.772 9.13037 12.6905C8.91036 12.6253 8.67732 12.7448 8.60985 12.9573C8.54238 13.1699 8.66604 13.395 8.88605 13.4602C9.2359 13.5639 9.61036 13.6229 9.99988 13.6229C12.0717 13.6229 13.7499 12.0014 13.7499 9.99967Z" fill="#161617"/>
</svg>
