<svg width="88" height="88" viewBox="0 0 88 88" fill="none" xmlns="http://www.w3.org/2000/svg">
<g id="icon">
<path fill-rule="evenodd" clip-rule="evenodd" d="M38.546 16.735C22.2761 17.627 9.16691 31.2852 9.16691 47.7613C9.16691 64.8053 23.1955 78.8339 40.2396 78.8339C56.6684 78.8339 70.2955 65.7998 71.2579 49.5946H40.2396C39.7519 49.5946 39.2843 49.4003 38.9403 49.0547C38.5962 48.7091 38.404 48.2407 38.4062 47.753L38.546 16.735ZM5.50024 47.7613C5.50024 28.6922 21.1705 13.022 40.2396 13.022H40.3861C40.8738 13.022 41.3431 13.2163 41.6871 13.5619C42.0312 13.9075 42.2234 14.3759 42.2212 14.8636L42.0812 45.928H73.1455C74.1581 45.928 74.9789 46.7488 74.9789 47.7613C74.9789 66.8304 59.3087 82.5006 40.2396 82.5006C21.1705 82.5006 5.50024 66.8304 5.50024 47.7613Z" fill="#CBCDD2"/>
<path fill-rule="evenodd" clip-rule="evenodd" d="M51.151 6.05129C51.4958 5.69902 51.968 5.50049 52.461 5.50049H53.0599C69.2291 5.50049 82.4796 19.0523 82.4995 35.4794C82.5007 36.4913 81.6819 37.3128 80.67 37.3149L53.0637 37.3723C52.0649 37.3744 51.2482 36.5765 51.227 35.5779L50.6281 7.37274C50.6176 6.87988 50.8061 6.40356 51.151 6.05129ZM54.3344 9.19961L54.8547 33.7019L78.768 33.6522C77.8477 20.4556 67.2419 9.85804 54.3344 9.19961Z" fill="#CBCDD2"/>
</g>
</svg>
