<svg width="88" height="88" viewBox="0 0 88 88" xmlns="http://www.w3.org/2000/svg">
<path id="icon" fill="currentColor" fill-rule="evenodd" clip-rule="evenodd" d="M43.9651 8.52594C43.4323 7.46096 42.1371 7.02952 41.0721 7.56229C40.0071 8.09506 39.5757 9.39029 40.1085 10.4553C41.2277 12.6925 41.6262 13.5168 41.8233 14.3047C42.0129 15.0626 42.0272 15.8314 42.0272 18.0723C42.0272 19.2631 42.9925 20.2285 44.1833 20.2285C45.3741 20.2285 46.3395 19.2631 46.3395 18.0723L46.3395 17.8383C46.34 15.9163 46.3404 14.5923 46.0067 13.2583C45.6801 11.9524 45.0433 10.6802 44.0809 8.75741L43.9651 8.52594ZM40.9633 37.3811C42.2728 37.3811 43.3996 36.5998 43.9028 35.4782C44.6319 36.1615 45.363 36.8687 46.093 37.5983C48.8791 40.383 51.338 43.1822 53.3881 45.835C52.7066 46.1632 52.0482 46.5309 51.4161 46.9344C50.4124 47.5751 50.1181 48.9082 50.7588 49.912C51.3995 50.9157 52.7326 51.21 53.7363 50.5693C54.4405 50.1198 55.1845 49.729 55.9614 49.4047C56.6514 50.4401 57.2638 51.4372 57.7926 52.3842C58.9917 54.5315 59.6987 56.3111 59.9591 57.6303C60.0883 58.285 60.0893 58.7376 60.0433 59.0222C60.0353 59.0717 60.0262 59.114 60.0169 59.1497L59.0408 59.4684C58.8144 59.4568 58.5443 59.4243 58.2268 59.3617C56.9069 59.1014 55.1264 58.3948 52.978 57.1963C48.708 54.8143 43.4205 50.7362 38.1844 45.5029C32.9483 40.2695 28.868 34.9848 26.4848 30.717C25.2857 28.5697 24.5787 26.7901 24.3183 25.4709C24.2613 25.182 24.2292 24.9324 24.2152 24.7193L24.5571 23.6751C24.5868 23.6682 24.6202 23.6615 24.6579 23.6554C24.9427 23.6094 25.3956 23.6104 26.0506 23.7396C27.3705 23.9998 29.151 24.7064 31.2994 25.9049C33.6975 27.2426 36.4164 29.1153 39.2669 31.4271C38.3524 31.9948 37.7435 33.0078 37.7435 34.1629C37.7435 35.9403 39.185 37.3811 40.9633 37.3811ZM60.4116 48.3466C60.8241 49.0064 61.2071 49.6528 61.5591 50.2831C62.8649 52.6216 63.8069 54.8502 64.1909 56.7959C64.5538 58.6344 64.522 60.8172 63.0213 62.3506C62.873 62.5312 62.6943 62.689 62.4897 62.8153C61.6811 63.4168 60.7394 63.6905 59.7816 63.7628L37.0006 71.1998C36.7938 71.3773 36.5497 71.5182 36.2751 71.6092C35.6536 71.8151 34.9933 71.9737 34.3017 72.0809L8.6741 80.4472L8.66691 80.4496C5.27323 81.5742 2.17516 78.3443 3.23477 75.04L3.23824 75.0292L11.6341 49.3141C11.7259 48.6298 11.882 47.9738 12.1098 47.359C12.5133 46.2703 13.7029 45.7014 14.7971 46.0573C14.8486 46.0701 14.9 46.0848 14.9512 46.1015C16.0832 46.4711 16.7012 47.6884 16.3316 48.8204L15.8714 50.2301C15.8038 51.0474 15.8616 52.0438 16.0963 53.1892C16.4664 54.9958 17.2483 57.0247 18.4629 59.0271C18.5042 59.0811 18.5432 59.1375 18.5799 59.1963C19.4215 60.5462 20.4369 61.853 21.6446 63.06C25.7661 67.1794 30.2322 68.2298 33.3383 67.8592L52.243 61.6876C51.7924 61.4604 51.3362 61.2176 50.8758 60.9608C46.1695 58.3354 40.5695 53.9836 35.1343 48.5513C29.6992 43.119 25.3451 37.5219 22.7184 32.8181C22.4657 32.3657 22.2267 31.9174 22.0027 31.4744L20.0661 37.3871C19.6955 38.5188 18.4776 39.1357 17.3459 38.7651C16.2143 38.3944 15.5974 37.1766 15.968 36.0449L19.9081 24.015C19.9813 22.8206 20.3609 21.645 21.2918 20.7146C22.8277 19.1796 25.0315 19.1444 26.8854 19.5099C28.8321 19.8938 31.0619 20.8352 33.4016 22.1404C38.1079 24.7658 43.708 29.1176 49.1431 34.5499C52.4385 37.8436 55.3366 41.198 57.6931 44.377C58.8904 44.1304 60.1296 43.9997 61.3985 43.9997C66.0126 43.9997 70.2689 45.6999 73.5052 48.5211C74.4028 49.3036 74.4961 50.6656 73.7137 51.5632C72.9312 52.4608 71.5692 52.5542 70.6715 51.7717C68.198 49.6155 64.9414 48.312 61.3985 48.312C61.0669 48.312 60.7378 48.3237 60.4116 48.3466ZM18.5961 66.1101C20.6238 68.1367 22.7875 69.6066 24.9474 70.5985L7.34502 76.3449L13.2366 58.3C13.7038 59.3714 14.2653 60.4442 14.9188 61.4963C14.961 61.5643 15.0064 61.629 15.0546 61.6905C16.0327 63.2267 17.2061 64.7208 18.5961 66.1101ZM82.8209 58.8354C84.0064 58.8354 84.9675 57.8748 84.9675 56.69C84.9675 55.5051 84.0064 54.5445 82.8209 54.5445C81.6354 54.5445 80.6744 55.5051 80.6744 56.69C80.6744 57.8748 81.6354 58.8354 82.8209 58.8354ZM59.3091 19.0908C59.4569 17.9092 58.6188 16.8315 57.4372 16.6838C56.2556 16.536 55.178 17.3741 55.0302 18.5557C54.4755 22.9909 52.7703 27.2148 50.1507 30.785C49.4463 31.7451 49.6535 33.0945 50.6136 33.7989C51.5737 34.5034 52.9231 34.2961 53.6276 33.336C56.6749 29.1827 58.6618 24.267 59.3091 19.0908ZM71.0152 33.0902C72.7934 33.0902 74.235 31.6494 74.235 29.8721C74.235 28.0947 72.7934 26.6539 71.0152 26.6539C69.2369 26.6539 67.7954 28.0947 67.7954 29.8721C67.7954 31.6494 69.2369 33.0902 71.0152 33.0902ZM76.3813 20.2177C76.3813 21.4025 75.4202 22.3631 74.2347 22.3631C73.0492 22.3631 72.0882 21.4025 72.0882 20.2177C72.0882 19.0328 73.0492 18.0722 74.2347 18.0722C75.4202 18.0722 76.3813 19.0328 76.3813 20.2177Z" />
</svg>
