<svg width="33" height="33" viewBox="0 0 33 33" fill="none" xmlns="http://www.w3.org/2000/svg"><path id="icon" fill="currentColor" d="M10.562 6.559l.039.058.957 1.658 8.041.837a.517.517 0 01.354.197l.04.058 5.314 9.22c.52.903.212 2.058-.69 2.58a.515.515 0 01-.575-.853l.058-.039a.86.86 0 00.356-1.09l-.043-.083-5.183-8.992-7.036-.733 1.067 1.846.037.08a1.719 1.719 0 11-.819.568.385.385 0 01-.071-.074l-.04-.058-.961-1.665-2.724 6.134 5.183 8.971a.86.86 0 001.09.356l.084-.043 5.328-3.06a.517.517 0 01.572.856l-.058.04-5.327 3.058c-.868.5-1.967.236-2.516-.585l-.065-.106-5.315-9.198a.518.518 0 01-.052-.39l.027-.078 3.135-7.058-1.061-1.838a.515.515 0 01.854-.574zm3.264 5.692a.688.688 0 100 1.376.688.688 0 000-1.376z" fill-rule="nonzero"/></svg>