<svg width="48" height="48" viewBox="0 0 48 48" fill="none" xmlns="http://www.w3.org/2000/svg">
<path id="icon" d="M21.8859 3.87057C23.0562 2.70687 24.9459 2.70737 26.1156 3.87206L32 9.73135V7.15955C32 6.05558 32.9018 5.16382 34 5.16382H37C38.0982 5.16382 39 6.05558 39 7.15955V16.6947L40.8773 18.5211L40.8851 18.5287C40.8917 18.5353 40.8983 18.5421 40.9048 18.5489C41.6114 19.2923 42 20.2658 42 21.2891V41.0145C42 43.2238 40.2082 45.0017 38 45.0017H28C27.5858 45.0017 27.2304 44.7499 27.0786 44.391C27.028 44.2713 27 44.1398 27 44.0017C27 44.0017 27 44.0017 27 44.0017V30.0662L21.0006 30.0657L21 44.0017C21 44.5539 20.5523 45.0017 20 45.0017H10C7.79175 45.0017 6 43.2237 6 41.0145V21.289C6 20.2657 6.38862 19.2922 7.09518 18.5489C7.10177 18.5419 7.10846 18.5351 7.11524 18.5283L15.5852 10.1144C15.9771 9.72518 16.6102 9.72728 16.9995 10.1191C17.3887 10.5109 17.3866 11.1441 16.9948 11.5333L8.53595 19.9361C8.18817 20.3067 8 20.7832 8 21.289V41.0145C8 42.1111 8.88825 43.0017 10 43.0017H19V30.0614C19 28.9574 19.9018 28.0657 21 28.0657H27C28.0982 28.0657 29 28.9574 29 30.0614V43.0017H38C39.1118 43.0017 40 42.1111 40 41.0145V21.2891C40 20.7848 39.813 20.3097 39.4673 19.9396L37.3027 17.8337C37.1968 17.7307 37.1186 17.6099 37.0682 17.4806C37.0246 17.3691 37.0005 17.2478 37 17.121L37 17.1169V7.16432L34.0006 7.16382L34 11.7227L34.7056 12.4253C35.097 12.815 35.0983 13.4482 34.7086 13.8395C34.3189 14.2309 33.6858 14.2323 33.2944 13.8426L32.3016 12.8539L32.2944 12.8469L24.7044 5.28929C24.3146 4.90113 23.6854 4.90113 23.2956 5.28929L23.2928 5.29202L20.7028 7.85105C20.31 8.23922 19.6768 8.23541 19.2887 7.84255C18.9005 7.44968 18.9043 6.81653 19.2972 6.42836L21.8859 3.87057Z"/>
</svg>
