<svg width="20" height="20" viewBox="0 0 20 20" fill="none" xmlns="http://www.w3.org/2000/svg">
<path fill-rule="evenodd" clip-rule="evenodd" d="M15.1758 2.5C14.5799 2.5 13.984 2.72806 13.5278 3.17953L12.9029 3.80425C13.5537 4.01639 14.4008 4.38168 15.0316 5.04748C15.6239 5.67259 15.9991 6.4718 16.2245 7.06L16.8191 6.46549C17.7269 5.55789 17.7269 4.08247 16.8191 3.17488C16.3676 2.72806 15.7717 2.5 15.1758 2.5ZM15.5697 7.7176C15.3812 7.16211 15.0506 6.28305 14.4246 5.6224C13.7858 4.9482 12.8653 4.65452 12.2321 4.47876C12.2311 4.47996 12.2302 4.48116 12.2292 4.48237L3.8445 12.8651L3.89053 12.899C3.86899 12.9305 3.85151 12.9653 3.839 13.0028L2.52151 16.9497C2.47137 17.0999 2.51044 17.2655 2.62241 17.3775C2.73439 17.4895 2.90005 17.5286 3.0503 17.4785L7.00275 16.1614C7.04038 16.1488 7.07528 16.1313 7.10684 16.1097L7.14054 16.1558L15.5622 7.73142L15.5697 7.7176ZM6.35465 15.4298C6.36284 15.4502 6.37036 15.4698 6.37726 15.4886L4.33577 16.169C4.31445 16.1183 4.28767 16.0654 4.25407 16.0115C4.16247 15.8646 4.03091 15.7269 3.84995 15.6108L4.51233 13.6264C4.53141 13.6333 4.5513 13.6409 4.57196 13.6491C4.8226 13.7489 5.1949 13.9546 5.62055 14.3802C6.04648 14.806 6.25359 15.1787 6.35465 15.4298Z" fill="#161617"/>
</svg>
