<svg width="49" height="48" viewBox="0 0 49 48" fill="none" xmlns="http://www.w3.org/2000/svg">
<path id="icon" fill-rule="evenodd" clip-rule="evenodd" d="M4.91553 11.64C4.91553 9.53593 6.43939 8.00024 8.11514 8L33.2547 8.02C33.807 8.02044 34.2551 7.57308 34.2555 7.0208C34.256 6.46851 33.8086 6.02044 33.2563 6.02L8.11553 6C5.15143 6 2.91553 8.62423 2.91553 11.64V16.11C2.91553 17.4564 3.82003 18.6174 5.09257 18.9891C7.00609 19.5615 8.51553 21.5387 8.51553 24C8.51553 26.4614 7.00595 28.4387 5.0923 29.0109C3.8228 29.3819 2.91553 30.5308 2.91553 31.89V36.36C2.91553 39.3758 5.15143 42 8.11553 42H41.7155C44.6796 42 46.9155 39.3758 46.9155 36.36V31.89C46.9155 30.5438 46.0112 29.3828 44.7388 29.011C42.8251 28.4387 41.3155 26.4614 41.3155 24C41.3155 21.5365 42.8169 19.5613 44.7379 18.9893C46.0079 18.6186 46.9155 17.4695 46.9155 16.11V11.64C46.9155 8.62423 44.6796 6 41.7155 6C41.1632 6 40.7155 6.44772 40.7155 7C40.7155 7.55228 41.1632 8 41.7155 8C43.3914 8 44.9155 9.53577 44.9155 11.64V16.11C44.9155 16.5493 44.6247 16.9394 44.1764 17.0697L44.1708 17.0714C41.313 17.9204 39.3155 20.7445 39.3155 24C39.3155 27.2574 41.3246 30.0795 44.1697 30.9283L44.1764 30.9302C44.6218 31.0597 44.9155 31.4577 44.9155 31.89V36.36C44.9155 38.4642 43.3914 40 41.7155 40H8.11553C6.43962 40 4.91553 38.4642 4.91553 36.36V31.89C4.91553 31.4507 5.20632 31.0606 5.65468 30.9303L5.6614 30.9283C8.50649 30.0795 10.5155 27.2574 10.5155 24C10.5155 20.7426 8.5065 17.9205 5.6614 17.0717L5.65467 17.0697C5.20922 16.9403 4.91553 16.5423 4.91553 16.11V11.64ZM29.9155 16.03C29.9155 15.4777 29.4678 15.03 28.9155 15.03C28.3632 15.03 27.9155 15.4777 27.9155 16.03V32.08C27.9155 32.6323 28.3632 33.08 28.9155 33.08C29.4678 33.08 29.9155 32.6323 29.9155 32.08V16.03Z"/>
</svg>
