<svg width="36" height="31" viewBox="0 0 36 31" fill="none" xmlns="http://www.w3.org/2000/svg">
<path d="M19.0038 25.4456C17.9345 26.515 17.9345 28.2487 19.0038 29.318C20.0731 30.3873 21.8069 30.3873 22.8762 29.318L35.198 16.9962C36.2673 15.9269 36.2673 14.1931 35.198 13.1238L22.8762 0.801997C21.8069 -0.267333 20.0731 -0.267332 19.0038 0.801997C17.9345 1.87132 17.9345 3.60504 19.0038 4.67437L26.6264 12.2969L2.73818 12.2969C1.22593 12.2969 -1.32206e-07 13.5228 0 15.0351C1.32205e-07 16.5474 1.22593 17.7733 2.73818 17.7733L26.6762 17.7733L19.0038 25.4456Z"/>
</svg>
