<svg width="48" height="48" viewBox="0 0 48 48" fill="none" xmlns="http://www.w3.org/2000/svg">
<path fill-rule="evenodd" clip-rule="evenodd" d="M14.6125 15H18.6949C18.6949 15 19.5 18 23 17.9474C26.5 17.8947 27.3051 15 27.3051 15H31.3875C32.8303 15 34 16.1753 34 17.625L34 40.375C34 41.8247 32.8303 43 31.3875 43H27.3051C26.891 43 26.5443 42.7012 26.3846 42.3173C25.8314 40.9872 24.5243 40.0526 23 40.0526C21.4757 40.0526 20.1686 40.9872 19.6154 42.3173C19.4557 42.7012 19.109 43 18.6949 43H14.6125C13.1697 43 12 41.8247 12 40.375V17.625C12 16.1753 13.1697 15 14.6125 15Z" fill="inherit"/>
<path fill-rule="evenodd" clip-rule="evenodd" d="M9.9324 7.32513L5.96534 7.8991C4.32556 8.13635 3.18859 9.65798 3.42584 11.2978L6.7828 34.4998C6.96116 35.7326 7.86547 36.6812 9.00016 36.9753V17.625C9.00016 14.532 11.4995 12 14.6127 12H18.7684C20.0825 12 21.2328 12.8824 21.5735 14.1515C21.5785 14.164 21.5861 14.1822 21.5966 14.2049C21.6396 14.2973 21.7105 14.422 21.8105 14.5383C21.9476 14.6978 22.209 14.959 22.9551 14.9477C23.7579 14.9357 24.06 14.6472 24.2072 14.4788C24.3094 14.362 24.3786 14.2421 24.4184 14.1589C24.4262 14.1425 24.4322 14.129 24.4365 14.1189C24.766 12.9343 25.8041 12.095 27.0156 12.0076L26.4313 7.96925C26.194 6.32947 24.6724 5.19249 23.0326 5.42974L19.0655 6.00372C18.5948 6.07183 18.2506 6.46745 18.1242 6.92594C17.7275 8.3642 16.5138 9.50453 14.9427 9.73184C13.3716 9.95915 11.8845 9.20959 11.0965 7.94274C10.8452 7.53889 10.4031 7.25703 9.9324 7.32513ZM27.5489 15.6939C27.015 16.0374 26.5156 16.4643 26.0484 16.8693C25.3894 17.4404 24.415 17.9261 23.0002 17.9474C21.5761 17.9688 20.5982 17.4849 19.9391 16.9033C18.9213 16.0052 17.7514 15 16.394 15H14.6127C13.1698 15 12.0002 16.1753 12.0002 17.625V36.7762L14.1485 36.4654C14.6192 36.3973 14.9633 36.0017 15.0897 35.5432C15.4864 34.105 16.7001 32.9647 18.2712 32.7374C19.8422 32.51 21.3293 33.2596 22.1174 34.5264C22.3686 34.9302 22.8108 35.2121 23.2815 35.144L27.2487 34.57C28.8885 34.3327 30.0255 32.8111 29.7882 31.1713L27.5489 15.6939Z" fill="inherit"/>
</svg>
