<svg xmlns="http://www.w3.org/2000/svg" width="308" height="194" viewBox="0 0 308 194"><path fill="#FFF" d="M205.26 147.798l.2.183 32.832 32.855a3.13 3.13 0 010 4.425 3.125 3.125 0 01-4.223.183l-.199-.183-32.832-32.855a3.13 3.13 0 010-4.425 3.125 3.125 0 014.223-.183zM83.107 161.641c1.379.591 2.852.945 4.373 1.042l.573.024a3.127 3.127 0 013.06 3.193 3.125 3.125 0 01-3.19 3.063 19.444 19.444 0 01-7.281-1.571 3.13 3.13 0 012.465-5.751zm20.915-6.45a3.13 3.13 0 011.066 4.295 19.65 19.65 0 01-4.977 5.533 3.13 3.13 0 01-3.772-4.992 13.363 13.363 0 003.391-3.77 3.127 3.127 0 014.292-1.066zm-28.902-4.374a13.189 13.189 0 001.48 4.838 3.13 3.13 0 01-1.288 4.233 3.125 3.125 0 01-4.23-1.288 19.467 19.467 0 01-2.182-7.13 3.128 3.128 0 116.22-.653zm94.514-69.462c19.427 0 35.18 15.76 35.18 35.2 0 19.44-15.754 35.203-35.18 35.203-19.426 0-35.176-15.763-35.176-35.203 0-19.44 15.75-35.2 35.176-35.2zm-64.25 58.49a19.464 19.464 0 012.338 7.08 3.13 3.13 0 01-2.707 3.499 3.129 3.129 0 01-3.459-2.479l-.038-.23a13.177 13.177 0 00-1.587-4.804 3.13 3.13 0 011.195-4.26 3.125 3.125 0 014.257 1.194zm64.25-52.232c-15.973 0-28.922 12.958-28.922 28.942s12.95 28.945 28.922 28.945c15.972 0 28.925-12.962 28.925-28.945s-12.952-28.942-28.925-28.942zm-88.362 46.64a3.13 3.13 0 01-.704 4.369 13.363 13.363 0 00-3.473 3.695 3.126 3.126 0 01-4.314.971 3.13 3.13 0 01-.971-4.317 19.647 19.647 0 015.096-5.422 3.126 3.126 0 014.366.704zm7.064-4.398c2.534 0 5.006.485 7.31 1.416a3.129 3.129 0 01-2.341 5.803 13.224 13.224 0 00-4.969-.961 3.128 3.128 0 010-6.258zm141.736-18.475l14.48 6.147.202.095c1.455.759 2.086 2.47 1.458 3.948-.664 1.565-2.484 2.285-4.06 1.615l-14.482-6.147-.201-.094c-1.455-.76-2.086-2.47-1.459-3.949.665-1.565 2.484-2.284 4.062-1.615zm-68.079-13.103a3.13 3.13 0 01-.669 4.374c-3.961 2.912-6.541 8.474-6.541 14.688a3.128 3.128 0 11-6.254-.001c0-8.132 3.46-15.59 9.093-19.73a3.124 3.124 0 014.371.669zm-57.24-1.002a3.128 3.128 0 013.126 3.13v6.257c0 1.728-1.4 3.13-3.127 3.13a3.129 3.129 0 01-3.127-3.13v-6.258c0-1.728 1.4-3.129 3.127-3.129zm138.988-5.208c1.647-.472 3.366.464 3.834 2.098.443 1.544-.392 3.165-1.929 3.742l-.21.069-15.123 4.336c-1.647.472-3.366-.464-3.834-2.098-.443-1.544.392-3.165 1.929-3.741l.21-.07zm-138.99-13.566c1.727 0 3.127 1.4 3.127 3.129v6.258c0 1.728-1.4 3.13-3.127 3.13a3.129 3.129 0 01-3.127-3.13V81.63c0-1.728 1.4-3.129 3.127-3.129zm126.383-6.72c1.124-1.292 3.075-1.444 4.358-.328 1.213 1.054 1.396 2.868.42 4.188l-.139.173-10.321 11.873c-1.124 1.293-3.075 1.444-4.358.33-1.212-1.055-1.395-2.87-.42-4.19l.14-.172zm-43.52-9.64a3.128 3.128 0 013.127 3.13v6.257a3.128 3.128 0 11-6.254-.001v-6.256c0-1.729 1.4-3.13 3.127-3.13zm-82.863-2.414c1.727 0 3.127 1.4 3.127 3.129v6.258a3.128 3.128 0 11-6.254-.001v-6.257c0-1.728 1.4-3.13 3.127-3.13zm82.863-16.36c1.727 0 3.127 1.4 3.127 3.128v6.259c0 1.728-1.4 3.13-3.127 3.13a3.129 3.129 0 01-3.127-3.13v-6.259c0-1.728 1.4-3.129 3.127-3.129zm-82.863-2.414c1.727 0 3.127 1.4 3.127 3.129v6.258a3.128 3.128 0 11-6.254-.001v-6.257c0-1.728 1.4-3.13 3.127-3.13zm82.863-16.362a3.128 3.128 0 013.127 3.13v6.257c0 1.728-1.4 3.13-3.127 3.13a3.129 3.129 0 01-3.127-3.13V27.72c0-1.728 1.4-3.129 3.127-3.129zm-76.31.806a3.13 3.13 0 011.975 5.938l-.392.142a7.898 7.898 0 00-3.283 2.423 3.128 3.128 0 01-4.884-3.907 14.148 14.148 0 016.583-4.596zm18.413-4.669a3.13 3.13 0 011.525 6.069l-6.066 1.525a3.13 3.13 0 01-1.524-6.069zm18.197-4.574a3.13 3.13 0 011.524 6.069l-6.066 1.525a3.13 3.13 0 01-1.524-6.069zm18.196-4.574a3.13 3.13 0 011.524 6.069l-6.066 1.525a3.13 3.13 0 01-1.524-6.069zm10 .508a3.127 3.127 0 013.773-2.308 14.26 14.26 0 016.944 4.002 3.131 3.131 0 01-.096 4.424 3.125 3.125 0 01-4.421-.096l-.296-.293a8.003 8.003 0 00-3.598-1.954l-.225-.063a3.129 3.129 0 01-2.081-3.712z"/></svg>