<svg width="17" height="16" viewBox="0 0 17 16"  xmlns="http://www.w3.org/2000/svg">
<path id="icon" fill-rule="evenodd" clip-rule="evenodd" d="M8.50265 1.33317C7.80841 1.33317 7.19821 1.68151 6.83676 2.21641L6.83652 2.21677C6.62226 2.53295 6.49608 2.91811 6.49608 3.33317V4.99984C6.49608 6.10498 7.39235 6.99984 8.50265 6.99984C9.61296 6.99984 10.5092 6.10498 10.5092 4.99984V3.33317C10.5092 2.22803 9.61296 1.33317 8.50265 1.33317ZM6.28417 1.84309C6.76516 1.13142 7.57899 0.666504 8.50265 0.666504C9.97978 0.666504 11.1762 1.85831 11.1762 3.33317V4.99984C11.1762 6.47469 9.97978 7.6665 8.50265 7.6665C7.02552 7.6665 5.82911 6.47469 5.82911 4.99984V3.33317C5.82911 2.78165 5.99706 2.26687 6.28417 1.84309ZM3.01195 12.6417C3.65118 10.2125 5.85995 8.4165 8.4993 8.4165C11.1384 8.4165 13.3507 10.2123 13.99 12.6417C14.0189 12.7515 13.9899 12.8684 13.913 12.952C13.5283 13.3705 13.0941 13.7477 12.6171 14.0695C12.4645 14.1725 12.2572 14.1322 12.1542 13.9796C12.0511 13.827 12.0914 13.6198 12.2441 13.5169C12.625 13.2599 12.9769 12.9632 13.2951 12.6352C12.6728 10.5812 10.7636 9.08317 8.4993 9.08317C6.23535 9.08317 4.32919 10.5809 3.70688 12.635C4.92315 13.8853 6.618 14.6665 8.50265 14.6665C9.0376 14.6665 9.55339 14.603 10.0505 14.4855C10.2298 14.4431 10.4094 14.5539 10.4518 14.7331C10.4942 14.9122 10.3833 15.0918 10.2041 15.1342C9.65824 15.2633 9.09093 15.3332 8.50265 15.3332C6.35544 15.3332 4.43267 14.4106 3.08915 12.9523C3.01213 12.8687 2.98303 12.7516 3.01195 12.6417ZM6.81959 10.8625C6.97946 10.7711 7.03492 10.5675 6.94346 10.4077C6.85201 10.2479 6.64827 10.1924 6.4884 10.2838C5.72169 10.7223 5.09959 11.4037 4.74271 12.2389C4.67036 12.4082 4.74902 12.6041 4.9184 12.6764C5.08777 12.7487 5.28372 12.6701 5.35607 12.5008C5.65441 11.8026 6.17558 11.2308 6.81959 10.8625Z" fill="#161617"/>
</svg>
