<svg width="24" height="25" viewBox="0 0 24 25" fill="none" xmlns="http://www.w3.org/2000/svg">
<g clip-path="url(#clip0_964_6562)">
<g clip-path="url(#clip1_964_6562)">
<circle opacity="0.4" cx="10.5" cy="13.8047" r="10.5" fill="#FFA5C0"/>
<path fill-rule="evenodd" clip-rule="evenodd" d="M13 1.30469C7.47614 1.30469 3 5.78083 3 11.3047C3 16.8285 7.47614 21.3047 13 21.3047C18.5239 21.3047 23 16.8285 23 11.3047C23 9.58041 22.562 7.95725 21.7907 6.53849C21.6588 6.29588 21.7486 5.99229 21.9912 5.8604C22.2338 5.72851 22.5374 5.81827 22.6693 6.06088C23.518 7.62213 24 9.40897 24 11.3047C24 17.3808 19.0761 22.3047 13 22.3047C6.92386 22.3047 2 17.3808 2 11.3047C2 5.22855 6.92386 0.304688 13 0.304688C14.8688 0.304688 16.635 0.770738 18.1767 1.59926C18.4199 1.72998 18.5112 2.03314 18.3804 2.27638C18.2497 2.51962 17.9465 2.61084 17.7033 2.48012C16.305 1.72864 14.7012 1.30469 13 1.30469Z" fill="#EB0055"/>
<path fill-rule="evenodd" clip-rule="evenodd" d="M8.30438 11.9694C7.75911 9.68462 8.68286 7.22944 10.7989 6.00772C11.6525 5.51491 12.5892 5.29005 13.5135 5.30542C13.8198 5.31052 14.0593 5.56052 14.0453 5.86474C14.0314 6.16659 13.773 6.4048 13.4689 6.39974C12.7407 6.38762 12.0089 6.56423 11.3424 6.94905C9.82002 7.828 9.04925 9.57286 9.30721 11.3053C9.31273 11.3423 9.33619 11.3742 9.36989 11.3904C9.40358 11.4067 9.44314 11.4052 9.47555 11.3865L11.754 10.0711C12.0192 9.91791 12.3581 10.0009 12.5092 10.2626C12.6603 10.5243 12.5627 10.8592 12.2974 11.0124L9.76017 12.4773C9.70891 12.5069 9.68916 12.571 9.71489 12.6243C9.76531 12.7288 9.82004 12.8323 9.87916 12.9347C10.027 13.1908 10.1951 13.4269 10.3799 13.6422C10.4153 13.6834 10.4751 13.6936 10.5222 13.6664L13.0029 12.2342C13.2681 12.0811 13.607 12.164 13.7581 12.4257C13.9092 12.6874 13.8116 13.0224 13.5463 13.1755L11.4719 14.3732C11.4373 14.3932 11.4158 14.4299 11.4154 14.4699C11.4149 14.5098 11.4356 14.547 11.4697 14.5678C12.0596 14.9258 12.7181 15.1399 13.3869 15.1956C14.207 15.2639 15.0427 15.0944 15.7945 14.6604C16.4611 14.2755 16.9799 13.7301 17.3335 13.0934C17.4812 12.8275 17.8167 12.7228 18.085 12.8617C18.3555 13.0017 18.4522 13.3341 18.3035 13.6019C17.8547 14.4101 17.1916 15.1089 16.338 15.6017C15.3743 16.1581 14.3053 16.3726 13.268 16.2862C12.206 16.1978 11.1772 15.7944 10.3196 15.1205C10.2833 15.0919 10.2332 15.0884 10.1932 15.1115L9.07545 15.7568C8.81018 15.91 8.4713 15.827 8.3202 15.5653C8.16911 15.3036 8.2667 14.9686 8.53198 14.8155L9.34431 14.3465C9.37273 14.3301 9.39262 14.3021 9.39881 14.2699C9.40499 14.2377 9.39687 14.2043 9.37655 14.1786C9.20781 13.9646 9.05236 13.7359 8.91214 13.493C8.86528 13.4119 8.82064 13.33 8.7782 13.2475C8.77429 13.2399 8.76953 13.2327 8.764 13.2262C8.76178 13.2236 8.75975 13.2206 8.75801 13.2171L8.74893 13.1991C8.73494 13.1713 8.71013 13.1505 8.68033 13.1416C8.65053 13.1327 8.61838 13.1365 8.59145 13.152L7.82656 13.5937C7.56128 13.7468 7.2224 13.6639 7.07131 13.4022C6.92022 13.1405 7.0178 12.8055 7.28308 12.6523L8.25094 12.0935C8.29425 12.0685 8.31599 12.018 8.30438 11.9694Z" fill="#EB0055"/>
</g>
</g>
<defs>
<clipPath id="clip0_964_6562">
<rect width="24" height="24" fill="white" transform="translate(0 0.304688)"/>
</clipPath>
<clipPath id="clip1_964_6562">
<rect width="24" height="24" fill="white" transform="translate(0 0.304688)"/>
</clipPath>
</defs>
</svg>
