<svg width="48" height="48" viewBox="0 0 48 48" fill="none" xmlns="http://www.w3.org/2000/svg">
<path id="icon" fill-rule="evenodd" clip-rule="evenodd" d="M18.5 5C16.8477 5 15.5 6.34772 15.5 8V9H7.23C4.61772 9 2.5 11.1177 2.5 13.73V28C2.5 29.3019 3.33678 30.4148 4.5 30.8282V38.58C4.5 41.0223 6.47772 43 8.92 43H32.14C32.6923 43 33.14 42.5523 33.14 42C33.14 41.4477 32.6923 41 32.14 41H8.92C7.58228 41 6.5 39.9177 6.5 38.58V31H10.5H11.5H12.5V35C12.5 35.5523 12.9477 36 13.5 36C14.0523 36 14.5 35.5523 14.5 35V31H16.5C17.0523 31 17.5 30.5523 17.5 30C17.5 29.4477 17.0523 29 16.5 29H14.5V24C14.5 23.4477 14.0523 23 13.5 23C12.9477 23 12.5 23.4477 12.5 24V29H11.5H10.5H5.5C4.95228 29 4.5 28.5477 4.5 28V13.73C4.5 12.2223 5.72228 11 7.23 11H16.5H25.53H26.01C26.5623 11 27.01 10.5523 27.01 10C27.01 9.44772 26.5623 9 26.01 9H25.53H17.5V8C17.5 7.45228 17.9523 7 18.5 7H30.5C31.0477 7 31.5 7.45228 31.5 8V9H31.01C30.4577 9 30.01 9.44772 30.01 10C30.01 10.5523 30.4577 11 31.01 11H32.5H42.7C43.6977 11 44.5 11.8023 44.5 12.8V28C44.5 28.5477 44.0477 29 43.5 29H36.5V24C36.5 23.4477 36.0523 23 35.5 23C34.9477 23 34.5 23.4477 34.5 24V29H21.5C20.9477 29 20.5 29.4477 20.5 30C20.5 30.5523 20.9477 31 21.5 31H34.5V35C34.5 35.5523 34.9477 36 35.5 36C36.0523 36 36.5 35.5523 36.5 35V31H42.5V38.58C42.5 39.9177 41.4177 41 40.08 41H38.52C37.9677 41 37.52 41.4477 37.52 42C37.52 42.5523 37.9677 43 38.52 43H40.08C42.5223 43 44.5 41.0223 44.5 38.58V30.8282C45.6632 30.4148 46.5 29.3019 46.5 28V12.8C46.5 10.6977 44.8023 9 42.7 9H33.5V8C33.5 6.34772 32.1523 5 30.5 5H18.5Z"/>
</svg>
