<svg width="20" height="20" viewBox="0 0 20 20" xmlns="http://www.w3.org/2000/svg">
<path id="icon" fill-rule="evenodd" clip-rule="evenodd" d="M10.0013 18.3307C14.6037 18.3307 18.3346 14.5998 18.3346 9.9974C18.3346 5.39502 14.6037 1.66406 10.0013 1.66406C5.39893 1.66406 1.66797 5.39502 1.66797 9.9974C1.66797 14.5998 5.39893 18.3307 10.0013 18.3307ZM8.7513 6.2474C8.7513 6.93775 9.31095 7.4974 10.0013 7.4974C10.6917 7.4974 11.2513 6.93775 11.2513 6.2474C11.2513 5.55704 10.6917 4.9974 10.0013 4.9974C9.31095 4.9974 8.7513 5.55704 8.7513 6.2474ZM8.7513 9.9974C8.7513 10.6878 9.31095 11.2474 10.0013 11.2474C10.6917 11.2474 11.2513 10.6878 11.2513 9.9974C11.2513 9.30704 10.6917 8.7474 10.0013 8.7474C9.31095 8.7474 8.7513 9.30704 8.7513 9.9974ZM10.0013 14.9974C9.31095 14.9974 8.7513 14.4378 8.7513 13.7474C8.7513 13.057 9.31095 12.4974 10.0013 12.4974C10.6917 12.4974 11.2513 13.057 11.2513 13.7474C11.2513 14.4378 10.6917 14.9974 10.0013 14.9974Z"/>
</svg>
