<svg width="24" height="24" viewBox="0 0 24 24" fill="none" xmlns="http://www.w3.org/2000/svg">
<path id="icon" fill-rule="evenodd" clip-rule="evenodd" d="M12.2963 2.58422C12.756 2.12452 13.6107 2.11456 14.2107 2.71455L15.534 4.03786C15.6357 4.1395 15.6643 4.30405 15.5869 4.45121C14.9767 5.58178 15.2288 7.0509 16.2157 8.03786C17.2034 9.02548 18.6738 9.27722 19.8047 8.66543L19.8062 8.6646C19.9506 8.58583 20.1111 8.61296 20.2124 8.71626L21.539 10.0429C22.1339 10.6377 22.1295 11.4931 21.6687 11.958L21.6681 11.9586L11.7095 21.9172C11.2498 22.3769 10.395 22.3869 9.79503 21.7869L8.47172 20.4636C8.37009 20.3619 8.3415 20.1974 8.41881 20.0503C9.02904 18.9197 8.77698 17.4505 7.79001 16.4636C6.80239 15.476 5.33194 15.2242 4.20106 15.836L4.19954 15.8368C4.05513 15.9156 3.8947 15.8885 3.79332 15.7852L2.46671 14.4586C1.87194 13.8638 1.87625 13.0085 2.33696 12.5435L2.33766 12.5428L9.79479 5.09574C9.99018 4.90061 9.9904 4.58402 9.79527 4.38863C9.60013 4.19324 9.28355 4.19302 9.08816 4.38815L1.62951 11.8368L1.62799 11.8383C0.715963 12.757 0.840882 14.247 1.7596 15.1657L3.08146 16.4875C3.51118 16.9237 4.16114 16.9964 4.6775 16.7152C5.38117 16.3349 6.3765 16.4643 7.08291 17.1707C7.78952 17.8773 7.91872 18.873 7.53803 19.5767L7.53608 19.5804C7.26343 20.0945 7.33524 20.7413 7.76461 21.1707L9.08792 22.494C10.0117 23.4178 11.5029 23.538 12.4166 22.6243L22.3765 12.6644L22.3778 12.6631C23.2898 11.7444 23.1649 10.2545 22.2462 9.33576L20.9261 8.01577L20.9243 8.01391C20.4946 7.57777 19.8447 7.50507 19.3283 7.78619C18.6246 8.16651 17.6293 8.03717 16.9228 7.33075C16.2162 6.62414 16.087 5.62843 16.4677 4.92473L16.4697 4.92106C16.7423 4.40691 16.6705 3.76012 16.2411 3.33075L14.9178 2.00744C13.994 1.08361 12.5029 0.963384 11.5892 1.87711C11.3939 2.07238 11.3939 2.38896 11.5892 2.58422C11.7844 2.77948 12.101 2.77948 12.2963 2.58422ZM11.1785 8.34829C10.9832 8.15303 10.6667 8.15303 10.4714 8.34829C10.2761 8.54355 10.2761 8.86013 10.4714 9.0554L15.2283 13.8123C15.4236 14.0076 15.7401 14.0076 15.9354 13.8123C16.1307 13.617 16.1307 13.3004 15.9354 13.1052L11.1785 8.34829Z" fill="#000000"/>
</svg>
