<svg width="20" height="20" viewBox="0 0 20 20" fill="none" xmlns="http://www.w3.org/2000/svg">
<path id="icon" fill-rule="evenodd" clip-rule="evenodd" d="M8.62809 2.03157C8.90004 1.75962 9.28042 1.62704 9.6631 1.6768L15.8997 2.45689C15.9257 2.46015 15.9508 2.46574 15.975 2.47345C16.1413 2.51043 16.2743 2.64835 16.2967 2.82715L17.0401 9.05373C17.0845 9.39503 16.9839 9.74224 16.7621 10.0058C16.1611 9.73429 15.494 9.58317 14.7917 9.58317C12.1453 9.58317 10 11.7285 10 14.3748C10 15.0788 10.1518 15.7474 10.4245 16.3495L9.67154 17.1025C9.18575 17.5883 8.39591 17.5883 7.91013 17.1025L3.78073 12.9731C3.75062 12.943 3.7261 12.9094 3.70717 12.8736L2.18198 11.3484C2.14961 11.3303 2.11915 11.3074 2.09161 11.2799L1.61434 10.8026C1.12855 10.3168 1.12855 9.52696 1.61434 9.04117L8.62809 2.03157ZM12.5863 7.79077C13.5035 7.79077 14.2464 7.04789 14.2464 6.13071C14.2464 5.21352 13.5035 4.47064 12.5863 4.47064C11.6691 4.47064 10.9262 5.21352 10.9262 6.13071C10.9262 7.04789 11.6733 7.79077 12.5863 7.79077ZM18.75 14.3748C18.75 12.1887 16.9778 10.4165 14.7917 10.4165C12.6056 10.4165 10.8333 12.1887 10.8333 14.3748C10.8333 16.5609 12.6056 18.3332 14.7917 18.3332C16.9778 18.3332 18.75 16.5609 18.75 14.3748ZM15.1973 12.4888C15.1973 12.2649 15.0158 12.0832 14.7917 12.0832C14.5864 12.0832 14.4166 12.2357 14.3897 12.4338L14.3861 12.4888V13.9692H12.9056C12.6817 13.9692 12.5 14.1509 12.5 14.3748C12.5 14.5801 12.6525 14.7499 12.8504 14.7768L12.9056 14.7804H14.3861V16.2609C14.3861 16.4848 14.5676 16.6665 14.7917 16.6665C14.997 16.6665 15.1668 16.514 15.1936 16.3161L15.1973 16.2609V14.7804H16.6777C16.9016 14.7804 17.0833 14.5989 17.0833 14.3748C17.0833 14.1695 16.9308 13.9997 16.7329 13.9729L16.6777 13.9692H15.1973V12.4888Z" fill="#161617"/>
</svg>
