<svg width="20" height="20" viewBox="0 0 20 20" fill="none" xmlns="http://www.w3.org/2000/svg">
<path fill-rule="evenodd" clip-rule="evenodd" d="M10 18.3334C14.6024 18.3334 18.3333 14.6024 18.3333 10C18.3333 5.39765 14.6024 1.66669 10 1.66669C5.39763 1.66669 1.66667 5.39765 1.66667 10C1.66667 14.6024 5.39763 18.3334 10 18.3334ZM10.3136 13.5819C10.045 13.3133 10.045 12.8777 10.3136 12.6091L12.2411 10.6817L6.22743 10.6817C5.84753 10.6817 5.53956 10.3737 5.53956 9.99378C5.53956 9.61388 5.84753 9.30591 6.22743 9.30591L12.2286 9.3059L10.3136 7.39099C10.045 7.12236 10.045 6.68682 10.3136 6.41818C10.5823 6.14955 11.0178 6.14955 11.2865 6.41818L14.3819 9.51363C14.6505 9.78227 14.6505 10.2178 14.3819 10.4864L11.2865 13.5819C11.0178 13.8505 10.5823 13.8505 10.3136 13.5819Z" />
</svg>
