<svg width="20" height="20" viewBox="0 0 20 20" fill="none" xmlns="http://www.w3.org/2000/svg">
<path id="icon" fill-rule="evenodd" clip-rule="evenodd" d="M10 18.3334C14.6024 18.3334 18.3334 14.6024 18.3334 10C18.3334 5.39765 14.6024 1.66669 10 1.66669C5.39765 1.66669 1.66669 5.39765 1.66669 10C1.66669 14.6024 5.39765 18.3334 10 18.3334ZM9.80927 6.41816C10.0779 6.6868 10.0779 7.12234 9.80927 7.39097L7.88184 9.3184L13.8955 9.3184C14.2754 9.3184 14.5834 9.62637 14.5834 10.0063C14.5834 10.3862 14.2754 10.6942 13.8955 10.6942H7.89435L9.80927 12.6091C10.0779 12.8777 10.0779 13.3132 9.80927 13.5819C9.54063 13.8505 9.10509 13.8505 8.83646 13.5819L5.74101 10.4864C5.47237 10.2178 5.47237 9.78225 5.74101 9.51362L8.83646 6.41816C9.10509 6.14953 9.54063 6.14953 9.80927 6.41816Z" fill="#EB0055"/>
</svg>
