<svg width="48" height="48" viewBox="0 0 48 48" fill="none" xmlns="http://www.w3.org/2000/svg">
<path id="icon" fill-rule="evenodd" clip-rule="evenodd" d="M45.7321 11.6812C46.1083 11.2769 46.0855 10.6442 45.6812 10.2679C45.2769 9.8917 44.6442 9.91447 44.2679 10.3188L22.5002 33.7117C22.099 34.1429 21.4139 34.1357 21.0219 33.6961L11.7463 23.2973C11.3786 22.8852 10.7465 22.8491 10.3344 23.2167C9.92221 23.5843 9.88612 24.2165 10.2537 24.6286L19.5293 35.0274C20.7055 36.346 22.7607 36.3677 23.9644 35.0741L45.7321 11.6812ZM37.7288 11.6847C38.107 11.2822 38.0872 10.6493 37.6847 10.2712C37.2822 9.89303 36.6493 9.91278 36.2712 10.3153L20.6133 26.982C20.2351 27.3845 20.2549 28.0173 20.6574 28.3955C21.0599 28.7736 21.6928 28.7539 22.0709 28.3514L37.7288 11.6847ZM3.74627 23.2973C3.37864 22.8852 2.74651 22.8491 2.33436 23.2167C1.92221 23.5843 1.88612 24.2165 2.25375 24.6286L12.9906 36.6657C13.3582 37.0778 13.9904 37.1139 14.4025 36.7463C14.8147 36.3786 14.8507 35.7465 14.4831 35.3344L3.74627 23.2973Z"/>
</svg>
