<svg viewBox="0 0 48 48" fill="none" xmlns="http://www.w3.org/2000/svg">
<path fill-rule="evenodd" clip-rule="evenodd" d="M19 4C18.4523 4 18 4.45228 18 5V8H30V5C30 4.45228 29.5477 4 29 4H19ZM16 5C16 3.34772 17.3477 2 19 2H29C30.6523 2 32 3.34772 32 5V8.09998H41C41.5523 8.09998 42 8.54769 42 9.09998C42 9.65226 41.5523 10.1 41 10.1H7C6.44772 10.1 6 9.65226 6 9.09998C6 8.54769 6.44772 8.09998 7 8.09998H16V5ZM10.998 13.9356C10.9624 13.3845 10.4867 12.9665 9.93561 13.0021C9.38447 13.0377 8.96653 13.5133 9.00211 14.0645L10.8221 42.2538C10.9557 44.3594 12.7017 46 14.81 46H33.19C35.2982 46 37.0441 44.3598 37.178 42.2545L37.178 42.2532L38.998 14.0645C39.0335 13.5133 38.6156 13.0377 38.0645 13.0021C37.5133 12.9665 37.0377 13.3845 37.0021 13.9356L35.1821 42.1256L35.182 42.1269C35.1153 43.181 34.2415 44 33.19 44H14.81C13.7586 44 12.8848 43.181 12.818 42.1269L10.998 13.9356ZM25 17.49C25 16.9377 24.5523 16.49 24 16.49C23.4477 16.49 23 16.9377 23 17.49V38.51C23 39.0623 23.4477 39.51 24 39.51C24.5523 39.51 25 39.0623 25 38.51V17.49ZM16.9525 16.4911C17.5042 16.4649 17.9726 16.8908 17.9989 17.4425L18.9989 38.4625C19.0251 39.0142 18.5992 39.4826 18.0475 39.5089C17.4959 39.5351 17.0274 39.1092 17.0012 38.5575L16.0012 17.5375C15.9749 16.9859 16.4008 16.5174 16.9525 16.4911ZM31.9989 17.5375C32.0251 16.9859 31.5992 16.5174 31.0475 16.4911C30.4959 16.4649 30.0274 16.8908 30.0012 17.4425L29.0012 38.4625C28.9749 39.0142 29.4008 39.4826 29.9525 39.5089C30.5042 39.5351 30.9726 39.1092 30.9989 38.5575L31.9989 17.5375Z" fill="#67686B"/>
</svg>
