<svg xmlns="http://www.w3.org/2000/svg" width="18" height="18" viewBox="0 0 18 18">
    <g fill-rule="evenodd">
        <g>
            <g>
                <path d="M13.106 4.626c.17-.163.452-.169.63-.014.179.156.186.414.016.577l-2.994 2.874c-.655.63-.655 1.62 0 2.249l2.994 2.874c.17.163.163.421-.015.577-.179.155-.46.149-.63-.014l-2.994-2.875c-.984-.944-.984-2.429 0-3.373zm-8.212 0l2.993 2.875c.984.944.984 2.429 0 3.373l-2.993 2.874c-.17.164-.452.17-.63.015-.179-.156-.186-.414-.016-.577l2.994-2.874c.655-.63.655-1.62 0-2.249L4.248 5.19c-.17-.163-.163-.421.015-.577.179-.155.46-.149.63.014z" transform="translate(-1114.000000, -104.000000) translate(1114.000000, 104.000000)"/>
            </g>
        </g>
    </g>
</svg>
