<svg width="30" height="30" viewBox="0 0 30 30" xmlns="http://www.w3.org/2000/svg">
  <path id="icon" fill-rule="evenodd" clip-rule="evenodd" d="M20.6024 3.125C19.9109 3.125 19.3539 3.68268 19.3539 4.375V4.87495C19.3621 4.91535 19.3664 4.95717 19.3664 5C19.3664 5.04283 19.3621 5.08465 19.3539 5.12505V5.625C19.3539 6.31732 19.9109 6.875 20.6024 6.875C20.9471 6.875 21.2266 7.15482 21.2266 7.5C21.2266 7.84518 20.9471 8.125 20.6024 8.125C19.2214 8.125 18.1055 7.00768 18.1055 5.625H11.2516H11.2516H10.1529C9.80819 5.625 9.52872 5.34518 9.52872 5C9.52872 4.65482 9.80819 4.375 10.1529 4.375H10.6274C10.6274 3.68268 10.0704 3.125 9.37891 3.125C8.68746 3.125 8.13047 3.68268 8.13047 4.375V5.625C8.13047 6.31732 8.68746 6.875 9.37891 6.875C9.72366 6.875 10.0031 7.15482 10.0031 7.5C10.0031 7.84518 9.72366 8.125 9.37891 8.125C7.99796 8.125 6.88203 7.00768 6.88203 5.625H4.99688C4.30542 5.625 3.74844 6.18268 3.74844 6.875V9.375H23.1118C23.4565 9.375 23.736 9.65482 23.736 10C23.736 10.3452 23.4565 10.625 23.1118 10.625H3.74844V23.125C3.74844 24.8486 5.14812 26.25 6.86954 26.25H23.0993C24.8407 26.25 26.2465 24.8181 26.2204 23.0718L26.2203 23.0613L26.2515 6.88059C26.2359 6.18524 25.6647 5.625 24.9719 5.625H22.4875H22.475H21.3889C21.0441 5.625 20.7647 5.34518 20.7647 5C20.7647 4.65482 21.0441 4.375 21.3889 4.375H21.8508C21.8508 3.68268 21.2938 3.125 20.6024 3.125ZM11.8758 4.375H18.1055C18.1055 2.99232 19.2214 1.875 20.6024 1.875C21.9833 1.875 23.0993 2.99232 23.0993 4.375H24.9719C26.3497 4.375 27.475 5.4867 27.4999 6.86371L27.5 6.87621L27.4688 23.0587C27.5022 25.4974 25.5382 27.5 23.0993 27.5H6.86954C4.45862 27.5 2.5 25.5389 2.5 23.125V6.875C2.5 5.49232 3.61593 4.375 4.99688 4.375H6.88203C6.88203 2.99232 7.99796 1.875 9.37891 1.875C10.7599 1.875 11.8758 2.99232 11.8758 4.375Z"/>
</svg>
