<svg width="24" height="24" viewBox="0 0 24 24" fill="none" xmlns="http://www.w3.org/2000/svg">
<path fill-rule="evenodd" clip-rule="evenodd" d="M7.5 2C6.94614 2 6.5 2.44614 6.5 3V5.125C6.5 5.40114 6.27614 5.625 6 5.625C5.72386 5.625 5.5 5.40114 5.5 5.125V3C5.5 1.89386 6.39386 1 7.5 1H12H16.5C17.6061 1 18.5 1.89386 18.5 3V20V21C18.5 22.1061 17.6061 23 16.5 23H7.5C6.39386 23 5.5 22.1061 5.5 21V8C5.5 7.72386 5.72386 7.5 6 7.5C6.27614 7.5 6.5 7.72386 6.5 8V19.5H12.5C12.7761 19.5 13 19.7239 13 20C13 20.2761 12.7761 20.5 12.5 20.5H6.5V21C6.5 21.5539 6.94614 22 7.5 22H16.5C17.0539 22 17.5 21.5539 17.5 21V20.5H15.5C15.2239 20.5 15 20.2761 15 20C15 19.7239 15.2239 19.5 15.5 19.5H17.5V3C17.5 2.44614 17.0539 2 16.5 2H12.5V3H14.5C14.7761 3 15 3.22386 15 3.5C15 3.77614 14.7761 4 14.5 4H12H9.5C9.22386 4 9 3.77614 9 3.5C9 3.22386 9.22386 3 9.5 3H11.5V2H7.5Z" fill="#161617"/>
</svg>
