<svg width="49" height="48" viewBox="0 0 49 48" xmlns="http://www.w3.org/2000/svg">
<path id="icon" fill="currentColor" fill-rule="evenodd" clip-rule="evenodd" d="M45.3988 15.7013C45.2228 15.7013 45.0358 15.6574 44.8708 15.5697L24.5 4.49911L4.12916 15.5697C3.60119 15.8547 2.93023 15.6684 2.63324 15.1313C2.34726 14.6052 2.53425 13.9365 3.07322 13.6406L24.5 2L45.9268 13.6406C46.4657 13.9256 46.6527 14.5942 46.3668 15.1313C46.1688 15.493 45.7838 15.7013 45.3988 15.7013ZM24.5001 45.9975C24.1152 45.9975 23.7192 45.8659 23.4112 45.6029C22.7842 45.0767 19.0115 42.5119 6.25218 44.167C5.55922 44.2547 4.87726 44.0574 4.38229 43.6189C3.93131 43.2243 3.66733 42.6653 3.66733 42.0844V22.0038C3.66733 21.9513 3.67108 21.8996 3.67834 21.8491V18.5073C3.67834 17.4441 4.49229 16.5233 5.53723 16.4247C12.2139 15.778 20.8594 15.6355 24.1812 18.6388C24.3022 18.7484 24.4122 18.858 24.5222 18.9786C24.6321 18.858 24.7421 18.7484 24.8631 18.6388C28.1849 15.6355 36.8305 15.778 43.5071 16.4247C44.552 16.5233 45.366 17.4441 45.366 18.5073V41.6569C45.366 42.2379 45.102 42.7969 44.651 43.1915C44.2 43.5751 43.6501 43.7724 43.0781 43.7724C42.9773 43.7724 42.8858 43.7632 42.7866 43.7532L42.7865 43.7532L42.7591 43.7505C42.1541 43.6737 41.7362 43.1257 41.8132 42.5228C41.8902 41.92 42.4401 41.5035 43.0451 41.5802C43.0891 41.5802 43.1221 41.5802 43.1441 41.5692V18.595C34.5316 17.7729 28.4049 18.3757 26.3261 20.261C25.8421 20.6995 25.6111 21.1927 25.6111 21.7956L25.6 21.7956V43.0472C27.4778 42.1432 31.093 41.1525 37.7324 41.5035C38.3374 41.5363 38.7993 42.0515 38.7773 42.6544C38.7443 43.2572 38.2164 43.7176 37.6224 43.6957C29.0979 43.2463 26.271 45.0439 25.6001 45.6138C25.2811 45.8659 24.8851 45.9975 24.5001 45.9975ZM23.4076 21.6676C23.3768 21.1237 23.1455 20.6782 22.6963 20.261C20.6174 18.3757 14.4907 17.7729 5.87821 18.595V23.0013C5.87821 23.0538 5.87446 23.1055 5.8672 23.1561V41.9967C5.88919 42.0077 5.92218 42.0077 5.96615 42.0077H5.9662C16.0543 40.688 21.045 41.8968 23.4001 43.0396V21.7956C23.4001 21.7523 23.4027 21.7096 23.4076 21.6676ZM19.6053 23.9987C19.6933 24.0206 19.7703 24.0316 19.8583 24.0316C20.3532 24.0316 20.8042 23.6918 20.9252 23.1876C21.0682 22.6066 20.7052 22.0147 20.1113 21.8723C17.6364 21.2804 12.6757 20.9844 9.25487 21.4777C8.6499 21.5653 8.23193 22.1134 8.31992 22.7163C8.40792 23.3191 8.94689 23.7247 9.56285 23.6479C12.6867 23.1985 17.3614 23.4726 19.6053 23.9987ZM29.1417 24.0316C28.6468 24.0316 28.1958 23.6918 28.0748 23.1876C27.9318 22.5957 28.3058 22.0038 28.8887 21.8723C31.3746 21.2914 36.3243 20.9954 39.7451 21.4777C40.3501 21.5654 40.7681 22.1244 40.6801 22.7163C40.5921 23.3191 40.0531 23.7357 39.4371 23.648C36.3133 23.1986 31.6386 23.4726 29.3947 23.9987C29.3067 24.0207 29.2297 24.0316 29.1417 24.0316ZM28.0748 27.3528C28.1958 27.8571 28.6468 28.1968 29.1417 28.1968C29.2208 28.1968 29.2911 28.188 29.3684 28.1782L29.3947 28.1749L29.4707 28.1571C30.5358 27.9077 31.8621 27.5971 33.8495 27.7255C34.4764 27.7694 34.9824 27.298 35.0154 26.6952C35.0484 26.0923 34.5864 25.5662 33.9815 25.5333C31.6276 25.3908 30.0437 25.7635 28.8887 26.0375C28.3058 26.1691 27.9318 26.761 28.0748 27.3528ZM19.8583 28.1968C19.7703 28.1968 19.6933 28.1858 19.6053 28.1639C17.3614 27.6377 12.6867 27.3637 9.56285 27.8131C8.94689 27.8898 8.40792 27.4843 8.31992 26.8814C8.23193 26.2786 8.6499 25.7305 9.25487 25.6428C12.6757 25.1496 17.6364 25.4455 20.1113 26.0374C20.7052 26.1799 21.0682 26.7718 20.9252 27.3528C20.8042 27.857 20.3532 28.1968 19.8583 28.1968ZM8.31992 31.0467C8.39692 31.5947 8.86989 31.9893 9.40886 31.9893C9.45286 31.9893 9.50786 31.9784 9.56285 31.9674C11.3008 31.7153 13.7426 31.6715 16.1075 31.8468C16.7014 31.8907 17.2404 31.4413 17.2844 30.8384C17.3284 30.2356 16.8774 29.7094 16.2725 29.6656C13.7206 29.4902 11.1688 29.5341 9.25487 29.8081C8.6499 29.8958 8.23193 30.4438 8.31992 31.0467Z"/>
</svg>
