<svg width="24" height="24" viewBox="0 0 24 24" fill="none" xmlns="http://www.w3.org/2000/svg">
<path fill-rule="evenodd" clip-rule="evenodd" d="M12 1.00061C10.6988 1.00061 9.47711 1.33281 8.41146 1.91116C8.16875 2.04288 8.07878 2.3464 8.2105 2.58911C8.34222 2.83181 8.64575 2.92178 8.88845 2.79006C9.8128 2.28841 10.8711 2.00061 12 2.00061C15.5888 2.00061 18.5 4.91175 18.5 8.50061C18.5 9.62575 18.0377 10.7983 17.645 11.7196C17.4603 12.1529 16.1655 14.6463 14.8958 17.0692C14.2655 18.2721 13.6472 19.4466 13.1866 20.3203C12.9562 20.7572 12.7653 21.1189 12.632 21.3713L12.4282 21.757C12.2344 22.0804 11.7646 22.0802 11.5713 21.7562L11.3703 21.3796C11.239 21.1334 11.0509 20.7804 10.8238 20.3532C10.3694 19.4987 9.75883 18.3475 9.13362 17.1602C7.87299 14.7661 6.58114 12.2777 6.35836 11.7279L6.35779 11.7265C5.88206 10.5624 5.49995 9.6269 5.49995 8.50061C5.49995 7.02755 5.98752 5.66838 6.8129 4.58332C6.98009 4.36354 6.93745 4.04985 6.71767 3.88266C6.49789 3.71548 6.18419 3.75811 6.017 3.9779C5.06239 5.23284 4.49995 6.80367 4.49995 8.50061C4.49995 9.82524 4.94796 10.9208 5.40219 12.0316L5.43155 12.1034L5.89495 11.9156L5.43212 12.1048L5.43185 12.1041C5.67986 12.7156 7.00743 15.2686 8.24879 17.6261C8.87483 18.815 9.4861 19.9675 9.94082 20.8227C10.1682 21.2503 10.3565 21.6037 10.4879 21.8501L10.694 22.2363L10.7022 22.2511C11.2798 23.2488 12.7201 23.2488 13.2977 22.2511L13.3014 22.2445L13.3072 22.234L13.5162 21.8383C13.6497 21.5857 13.8407 21.2238 14.0712 20.7867C14.5321 19.9125 15.1507 18.7372 15.7816 17.5333C17.0344 15.1424 18.3596 12.5933 18.5649 12.1117C18.9523 11.2029 19.5 9.85548 19.5 8.50061C19.5 4.35947 16.1411 1.00061 12 1.00061ZM12.865 22.0006L13.3072 22.234C13.3071 22.234 13.3069 22.2344 12.865 22.0006ZM10.0001 8.50061C10.0001 7.39675 10.8963 6.50061 12.0001 6.50061C12.2763 6.50061 12.5001 6.27675 12.5001 6.00061C12.5001 5.72447 12.2763 5.50061 12.0001 5.50061C10.344 5.50061 9.00011 6.84447 9.00011 8.50061C9.00011 10.1568 10.344 11.5006 12.0001 11.5006C13.6563 11.5006 15.0001 10.1568 15.0001 8.50061C15.0001 8.22447 14.7763 8.00061 14.5001 8.00061C14.224 8.00061 14.0001 8.22447 14.0001 8.50061C14.0001 9.60447 13.104 10.5006 12.0001 10.5006C10.8963 10.5006 10.0001 9.60447 10.0001 8.50061Z" fill="#EB0055"/>
</svg>
