<svg version="1.1" id="Calque_1" xmlns="http://www.w3.org/2000/svg" xmlns:xlink="http://www.w3.org/1999/xlink" x="0" y="0" viewBox="0 0 482.64 319.61" style="enable-background:new 0 0 482.64 319.61" xml:space="preserve" aria-hidden="true"><style>.st0{fill:#e1251b}.st1{fill:#fff}.st2{fill:none}.st7{fill:#5b6067}</style><path class="st0" d="M32.27 44.88h188.14v188.15H32.27z"/><path class="st1" d="m186.63 71.39 15.01-14.52c1.32-.25 2.66 1.05 2.63 2.46l-12.83 16.5 19.74 6.2c.83 1.15.65 3.08-.73 3.66l-20.55-3.76 4.35 18.96c-.64.98-2.35 1.51-3.42 1.06l-7.33-18.02-14.79 14.76c-1.32.26-2.71-1.19-2.68-2.61l12.73-16.31-19.93-6.3c-.82-1.14-.46-2.97.79-3.52l20.6 3.43-4.2-19.01c.63-.98 2.2-1.46 3.42-1.07l7.19 18.09zM32.24 154.2h10.33c10.51 0 15.84 4.63 15.84 13.07 0 8.01-5.87 13.18-15.71 13.18H32.24m-.09-4.59v-17.08m9.28 17.17c6.97 0 10.23-2.25 10.23-8.6 0-6.53-3.39-8.65-10.77-8.65h-2.31v17.25h2.85zM62.66 175.92v-17.25c0-2.38-.66-3.8-2.21-4.5h26.32c-.31.4-.44.75-.44 1.06 0 .53.71 2.33 1.63 5.69-2.96-1.81-6.05-2.25-9.62-2.25H69.1v6.13h10.34c1.54 0 2.65-.35 3.53-.71l-2.21 3.71c-.57.97-1.54 1.5-2.73 1.5H69.1v6.62h9.61c4.36 0 7.85-1.1 10.23-3.13-1.45 3.75-2.47 5.82-2.47 6.48 0 .35.18.7.49 1.15H60.45c1.55-.66 2.21-2.12 2.21-4.5zM113.93 180.12c-1.94 0-3.63.88-7.73.88-9.35 0-14.74-4.9-14.74-13.37 0-8.57 6.14-14.13 15.98-14.13 4.5 0 6.14 1.06 7.86 1.06.44 0 .88-.13 1.45-.26l-2.34 6.53c-2.56-1.72-3.71-2.52-6.71-2.52-5.78 0-9.35 3.75-9.35 9 0 5.78 3.09 8.87 8.95 8.87 3.31 0 4.99-1.02 8.57-2.78v7.1c-.75-.25-1.37-.38-1.94-.38zM129.56 158.78v17.08c0 2.42.66 3.88 2.24 4.58h-10.89c1.58-.7 2.2-2.16 2.2-4.58v-17.08c0-2.42-.62-3.88-2.2-4.59h10.89c-1.57.71-2.24 2.17-2.24 4.59zM144.87 177.29v-18.62h-1c-3.61 0-5.91.43-8.87 2.25.88-3.31 1.63-5.12 1.63-5.69 0-.3-.17-.66-.44-1.06h23.98c-.3.4-.43.75-.43 1.06 0 .53.7 2.34 1.63 5.69-2.96-1.81-5.26-2.25-8.87-2.25h-1.19v17.16c0 2.16.93 4.06 2.38 4.59h-10.95c1.34-.58 2.13-1.94 2.13-3.13zM175.11 180.41h-10.9c1.6-.71 2.21-2.16 2.21-4.59v-17.16c0-2.39-.66-3.79-2.21-4.5h14.75c3.4 0 6.09 0 8.03.62 3.05.96 4.99 3.66 4.99 7.14 0 3.71-2.52 6.48-7.15 7.37 2.26 1.02 3.4 2.52 4.6 4.37 1.63 2.52 2.24 5.08 4.71 6.75h-9.93c.53-.53.8-.96.8-1.54 0-1.33-.84-3.13-2.65-5.33-1.72-2.12-4.53-3.1-7.17-3.1h-2.3v5.39c-.03 2.42.67 3.92 2.22 4.58m3.99-14.48c4.19 0 5.96-.83 5.96-3.66 0-2.82-1.77-3.62-5.96-3.62h-6.27v7.28h6.27z"/><path class="st2" d="M219.02 174.69v-14.97h1.41v-.21c-2.02-.64-4.15-.84-6.49-.84h-9.24v6.14h10.35c1.54 0 2.65-.35 3.53-.71l-2.2 3.7c-.58.98-1.54 1.5-2.74 1.5h-8.93v6.62h9.59c2.31 0 4.36-.31 6.14-.89v-.35h-1.42z"/><path class="st1" d="M204.7 175.94v-6.62h8.93c1.19 0 2.16-.53 2.74-1.5l2.2-3.7c-.88.35-1.99.71-3.53.71H204.7v-6.14h9.24c2.33 0 4.46.19 6.49.84v-5.32h-24.38c1.55.7 2.21 2.11 2.21 4.49v17.26c0 2.38-.66 3.83-2.21 4.5h24.38v-5.39c-1.78.58-3.83.89-6.14.89h-9.59z"/><path style="fill:#575756" d="M240.28 24.6h3.08v270.57h-3.08z"/><path style="fill:#fafafa" d="M259.89 42.21h194.04v194.08H259.89z"/><path class="st2" d="M259.89 42.21h194.04v233.07H259.89z"/><path d="M290.86 274.99v-2.25c-1.62 1.69-3.91 2.53-6.2 2.53-2.48 0-4.48-.8-5.87-2.16-2-1.97-2.53-4.27-2.53-6.94v-15.63h6.2v14.78c0 3.33 2.15 4.46 4.1 4.46 1.95 0 4.15-1.13 4.15-4.46v-14.78h6.2v24.45h-6.05M315.95 257.21c-.95-.94-1.76-1.46-3.29-1.46-1.91 0-4.01 1.41-4.01 4.51v14.73h-6.2v-24.45h6.06v2.35c1.19-1.41 3.58-2.63 6.25-2.63 2.43 0 4.15.61 5.87 2.3l-4.68 4.65M326.11 264.67c0 3.14 1.96 5.44 5.44 5.44 2.72 0 4.05-.75 5.63-2.3l3.77 3.61c-2.53 2.49-4.96 3.85-9.44 3.85-5.87 0-11.5-2.63-11.5-12.53 0-7.98 4.39-12.48 10.83-12.48 6.92 0 10.83 4.97 10.83 11.68v2.72h-15.56m8.88-6.8c-.67-1.45-2.05-2.53-4.15-2.53-2.1 0-3.48 1.08-4.15 2.53-.38.89-.52 1.55-.57 2.63h9.45c-.06-1.08-.2-1.74-.58-2.63zM353.73 274.99c-5.06 0-7.2-3.52-7.2-6.99v-12.11h-2.62v-4.65h2.62v-7.23h6.2v7.23h4.39v4.65h-4.39v11.73c0 1.41.67 2.21 2.15 2.21h2.24v5.16h-3.39M361.08 268.05h7.11v6.94h-7.11zM383.36 275.27c-4.96 0-11.11-2.63-11.11-12.53 0-9.9 6.15-12.48 11.11-12.48 3.43 0 6.01 1.03 8.21 3.28l-4.2 4.13c-1.29-1.36-2.39-1.92-4.01-1.92-1.48 0-2.62.52-3.53 1.6-.96 1.17-1.38 2.82-1.38 5.4 0 2.58.43 4.27 1.38 5.44.9 1.08 2.05 1.6 3.53 1.6 1.62 0 2.72-.56 4.01-1.93l4.2 4.08c-2.2 2.25-4.78 3.33-8.21 3.33M411.26 272.27c-1.53 1.6-4.06 3-7.73 3-3.67 0-6.15-1.41-7.68-3-2.24-2.3-2.82-5.07-2.82-9.53 0-4.41.57-7.18 2.82-9.48 1.52-1.6 4.01-3 7.68-3s6.2 1.41 7.73 3c2.24 2.3 2.81 5.07 2.81 9.48 0 4.46-.57 7.23-2.81 9.53m-4.82-15.44c-.71-.7-1.67-1.08-2.91-1.08-1.24 0-2.15.38-2.86 1.08-1.29 1.27-1.43 3.38-1.43 5.91s.14 4.69 1.43 5.96c.72.7 1.62 1.08 2.86 1.08 1.24 0 2.19-.38 2.91-1.08 1.29-1.27 1.43-3.43 1.43-5.96s-.14-4.64-1.43-5.91z"/><g><path style="fill:#e30613" d="M263.29 45.64h187.22v187.22H263.29z"/><path class="st1" d="M299.14 179.94s-.7-1.43-.85-2.91c-.05.05-.79 1.01-2.33 1.98-1.28.76-2.87 1.31-4.94 1.35-7.81.17-11.9-6.1-11.9-12.91 0-6.65 3.92-12.62 11.74-12.45 1.6.04 3.04.42 4.26.97 1.59.71 2.92 2.15 2.92 2.15v-11.15h5.9v25.94c0 3.32.96 3.74.96 3.74v3.29h-5.76m-7.45-20.87c-4.83-.12-6.59 4.04-6.59 8.46 0 4.83 1.75 8.83 6.59 8.7 5.1-.09 6.54-4.33 6.49-8.66 0-4.24-1.49-8.33-6.49-8.5zM430.04 179.94s-.69-1.43-.85-2.91c-.05.05-.79 1.01-2.34 1.98-1.28.76-2.87 1.31-4.94 1.35-7.81.17-11.91-6.1-11.91-12.91 0-6.65 3.93-12.62 11.74-12.45 1.59.04 3.03.42 4.25.97 1.59.71 2.92 2.15 2.92 2.15v-11.15h5.9v25.94c0 3.32.95 3.74.95 3.74v3.29h-5.72m-7.44-20.87c-4.84-.12-6.59 4.04-6.59 8.46 0 4.83 1.75 8.83 6.59 8.7 5.1-.09 6.54-4.33 6.49-8.66-.01-4.24-1.5-8.33-6.49-8.5zM325.55 179.94l-.33-2.49c-.63.76-3.45 2.95-7.54 2.95-5.96 0-8.56-2.48-8.56-8.46v-16.4h5.9v15.27c0 3.83 1.06 5.43 4.46 5.43 3.35 0 5.31-2.44 5.31-4.88v-15.82h5.89v15.52c0 7.15.7 8.88.7 8.88h-5.83M358.8 179.94v-15.27c0-4-1.07-5.43-4.46-5.43-3.35 0-5.32 2.45-5.32 4.89v15.81h-5.89v-15.65c-.06-7.11-.54-8.75-.54-8.75h5.58l.54 2.4c.64-.72 3.45-2.86 7.44-2.86 5.96 0 8.56 2.61 8.56 8.46v16.4h-5.91M379.74 180.36c-8.08 0-12.11-5.68-12.11-13.04 0-6.86 4.61-12.33 12.8-12.33 7.92 0 12.28 5.34 12.28 12.45 0 7.46-4.57 12.92-12.97 12.92m.37-21.29c-4.41 0-6.43 3.62-6.43 8.5 0 4.79 1.96 8.66 6.43 8.66 4.68 0 6.65-3.78 6.65-8.7 0-4.75-2.19-8.46-6.65-8.46zM406.36 159.96c-2.71-.13-4.57 2.15-4.57 4.59v15.39h-5.9v-15.52c0-7.23-.54-8.88-.54-8.88h5.58l.59 2.78c.75-.97 3.35-3.5 7.65-3.24v5.3c.01 0-1.27-.38-2.81-.42M292.55 123.14v20.5h-9.34V97.85h26.71v6.34h-17.37v12.8h17.37v6.15h-17.37M337.92 143.64l-.46-3.58c-.94 1.09-5.04 4.26-11.03 4.26-8.69 0-12.49-3.58-12.49-12.22v-23.7h8.62v22.06c0 5.53 1.55 7.84 6.51 7.84 4.89 0 7.76-3.52 7.76-7.04V108.4h8.62v22.42c0 10.33 1.01 12.82 1.01 12.82h-8.54M367.96 114.78c-3.95-.18-6.67 3.1-6.67 6.62v22.24h-8.62v-22.42c0-10.46-.78-12.82-.78-12.82h8.15l.85 4.01c1.08-1.39 4.89-5.04 11.18-4.68v7.66s-1.86-.55-4.11-.61M409.02 127.78h-27.01c.15 5.77 4.65 10.08 11.33 10.27 5.58.24 9.7-1.16 9.7-1.16l.07 6.27s-4.42 1.28-9.93 1.09c-12.96-.43-19.94-7.36-19.94-18.84 0-10.14 5.98-17.81 18.32-17.81 11.8 0 17.46 6.44 17.46 16.29v3.89m-17.93-14.4c-4.65 0-8.38 3.59-8.85 9.06h17.7c.31-5.72-3.34-9.06-8.85-9.06zM427.87 143.83c-9.47 0-12.65-2.49-12.65-8.93v-21.03h-5.82v-5.41h2.64c2.48 0 3.56-.42 3.95-2.97l.77-5.29h7.06v8.26h10.71v5.41h-10.71v20.48c0 2.98.86 3.88 4.58 3.88h6.26v5.59c.01-.01-4.08.01-6.79.01"/><path d="M447.47 274.99v-14.78c0-3.33-2.15-4.46-4.1-4.46-1.91 0-4.15 1.13-4.15 4.32v14.92h-6.2v-14.78c0-3.33-2.15-4.46-4.1-4.46-1.95 0-4.15 1.13-4.15 4.46v14.78h-6.2v-24.45h6.06v2.25c1.62-1.64 3.91-2.53 6.2-2.53 2.77 0 5.01.99 6.58 3.1 2.1-2.16 4.34-3.1 7.44-3.1 2.48 0 4.72.8 6.11 2.16 2 1.97 2.72 4.27 2.72 6.94v15.63h-6.21"/></g><path d="M268.63 255.89v19.1h-6.2v-19.1h-2.58v-4.65h2.58v-3.05c0-3.47 2.19-6.99 7.25-6.99h3.53v5.16h-2.43c-1.48 0-2.15.8-2.15 2.21v2.67h4.58v4.65h-4.58"/><g><defs><path id="SVGID_1_" d="M27.8 42.03h196.47v235.98H27.8z"/></defs><clipPath id="SVGID_2_"><use xlink:href="#SVGID_1_" style="overflow:visible"/></clipPath><path style="clip-path:url(#SVGID_2_);fill:#fafafa" d="M27.8 42.03h196.47v196.51H27.8z"/><path class="st2" d="M27.8 42.03h196.47v235.98H27.8z"/><path class="st1" d="M130.26 270.69h7.2v7.03h-7.2z"/><path class="st7" d="m51.28 242.11.47 26.26c.03 1.93.16 4.13.28 5.61l-3.5.06-.25-3.77h-.14c-1.12 2.44-3.69 4.33-7.24 4.39-5.25.1-9.42-4.28-9.54-10.88-.17-7.23 4.28-11.71 9.54-11.8 3.37-.06 5.6 1.47 6.61 3.16h.09l-.23-12.97 3.91-.06zm-3.57 19.06c-.01-.49-.07-1.17-.21-1.66-.63-2.46-2.82-4.49-5.78-4.43-4.09.07-6.45 3.71-6.36 8.47.08 4.4 2.34 8 6.56 7.92 2.65-.05 5.04-1.89 5.71-4.82.13-.54.16-1.08.15-1.71l-.07-3.77zM63.01 264.11c.19 5.34 3.59 7.48 7.59 7.41 2.83-.05 4.57-.58 6-1.23l.77 2.81c-1.38.65-3.79 1.46-7.25 1.52-6.69.12-10.76-4.25-10.88-10.81s3.65-11.74 9.98-11.85c7.14-.13 9.09 6.03 9.16 10.03.01.81-.02 1.39-.1 1.84l-15.27.28zm11.53-3.03c0-2.47-1.15-6.36-5.59-6.28-4.04.07-5.68 3.74-5.95 6.48l11.54-.2zM101.5 273.23c-1.02.51-3.3 1.32-6.22 1.37-6.56.12-10.9-4.25-11.02-10.9-.12-6.69 4.37-11.66 11.47-11.79 2.33-.04 4.41.5 5.5 1.07l-.85 3.02c-.95-.48-2.44-.99-4.6-.95-4.98.09-7.61 3.86-7.53 8.35.09 5.03 3.38 8.07 7.69 7.99 2.24-.04 3.72-.6 4.83-1.12l.73 2.96zM112.59 246.28c.02 1.35-.9 2.44-2.47 2.47-1.44.02-2.4-1.04-2.42-2.38-.02-1.35.94-2.49 2.42-2.51 1.44-.03 2.45 1.02 2.47 2.42zm-3.9 27.91-.39-21.73 3.95-.07.39 21.73-3.95.07zM126.01 247.21l.09 5.21 5.66-.1.05 3.01-5.66.1.21 11.72c.05 2.7.84 4.21 3.04 4.17 1.08-.02 1.7-.12 2.28-.31l.23 3c-.76.28-1.97.57-3.49.6-1.84.03-3.33-.57-4.29-1.59-1.1-1.19-1.58-3.11-1.63-5.67l-.21-11.85-3.37.06-.05-3.01 3.37-.06-.07-4.04 3.84-1.24zM138.87 259.28c-.04-2.56-.13-4.76-.3-6.78l3.46-.06.26 4.31h.13c.94-2.93 3.33-4.82 5.98-4.87.4-.01.72.03 1.08.07l.07 3.73c-.4-.08-.81-.08-1.35-.07-2.78.05-4.72 2.15-5.21 5.12-.08.54-.11 1.22-.1 1.84l.21 11.58-3.95.07-.28-14.94zM158.37 264.11c.19 5.34 3.59 7.48 7.59 7.41 2.83-.05 4.57-.58 6-1.23l.77 2.81c-1.38.65-3.79 1.46-7.25 1.52-6.69.12-10.76-4.25-10.88-10.81s3.65-11.74 9.98-11.85c7.14-.13 9.09 6.03 9.16 10.03.01.81-.02 1.39-.1 1.84l-15.27.28zm11.53-3.03c0-2.47-1.15-6.36-5.59-6.28-4.04.07-5.68 3.74-5.95 6.48l11.54-.2zM180.41 271.86c-.03-1.62 1.07-2.85 2.64-2.88 1.57-.03 2.67 1.12 2.7 2.78.03 1.62-1.03 2.85-2.69 2.88-1.53.03-2.63-1.16-2.65-2.78zM193.63 274.2l-.33-18.72-3.01.05-.05-3.01 3.01-.05-.02-1.03c-.05-3.05.61-5.85 2.38-7.63 1.46-1.46 3.42-2.08 5.26-2.12 1.44-.02 2.61.27 3.38.57l-.48 3.06c-.59-.26-1.36-.47-2.52-.45-3.37.06-4.17 2.99-4.11 6.36l.02 1.17 5.25-.1.05 3.01-5.25.1.33 18.72-3.91.07zM208.61 259.28c-.05-2.56-.13-4.76-.3-6.78l3.46-.06.26 4.31h.13c.94-2.93 3.33-4.82 5.98-4.87.4-.01.72.03 1.08.07l.07 3.73c-.41-.08-.81-.08-1.35-.07-2.78.05-4.72 2.15-5.21 5.12-.08.54-.11 1.22-.1 1.84l.2 11.58-3.95.07-.27-14.94z"/><path class="st0" d="M30.94 45.78h189.34v187.1H30.94z"/><g><path class="st1" d="m185.96 72.32 15.26-14.58c1.34-.26 2.71 1.05 2.68 2.47l-13.04 16.57L210.92 83c.84 1.15.66 3.09-.75 3.68l-20.88-3.77 4.42 19.04c-.65.98-2.38 1.51-3.47 1.06l-7.45-18.09-15.03 14.82c-1.35.26-2.75-1.19-2.72-2.61l12.93-16.38-20.26-6.32c-.83-1.15-.46-2.99.8-3.53l20.93 3.45-4.27-19.09c.64-.98 2.23-1.47 3.47-1.07l7.32 18.13zM40.17 177.3c7.08 0 10.4-2.25 10.4-8.64 0-6.55-3.44-8.68-10.94-8.68h-2.35v17.32h2.89zm-9.43-.08v-17.15m.09-4.61h10.5c10.68 0 16.1 4.65 16.1 13.12 0 8.05-5.96 13.23-15.96 13.23H30.83M61.04 177.27v-17.32c0-2.39-.67-3.81-2.25-4.52h26.75c-.32.41-.45.76-.45 1.07 0 .53.72 2.34 1.66 5.71-3.01-1.82-6.15-2.26-9.77-2.26h-9.4v6.15h10.51c1.57 0 2.69-.35 3.59-.71l-2.24 3.73c-.58.98-1.57 1.51-2.78 1.51h-9.09v6.64h9.76c4.43 0 7.98-1.11 10.4-3.15-1.47 3.77-2.51 5.85-2.51 6.51 0 .35.18.71.49 1.15H58.79c1.58-.65 2.25-2.11 2.25-4.51M112.08 181.49c-1.98 0-3.69.89-7.85.89-9.5 0-14.98-4.92-14.98-13.43 0-8.6 6.24-14.18 16.24-14.18 4.57 0 6.24 1.07 7.99 1.07.45 0 .9-.13 1.47-.26l-2.38 6.55c-2.6-1.73-3.77-2.52-6.82-2.52-5.88 0-9.5 3.77-9.5 9.04 0 5.79 3.14 8.9 9.09 8.9 3.36 0 5.08-1.02 8.7-2.79v7.14c-.75-.28-1.38-.41-1.96-.41M127.97 160.07v17.15c0 2.43.67 3.9 2.28 4.6h-11.07c1.61-.7 2.24-2.17 2.24-4.6v-17.15c0-2.43-.63-3.89-2.24-4.61h11.07c-1.61.72-2.28 2.18-2.28 4.61M143.52 178.65v-18.7h-1.01c-3.67 0-6 .43-9.01 2.26.9-3.33 1.65-5.14 1.65-5.72 0-.3-.17-.66-.45-1.06h24.37c-.31.4-.44.76-.44 1.06 0 .53.71 2.35 1.66 5.72-3.01-1.82-5.34-2.26-9.01-2.26h-1.21v17.23c0 2.17.94 4.08 2.42 4.61h-11.12c1.35-.57 2.15-1.95 2.15-3.14M178.31 167.25c4.26 0 6.06-.84 6.06-3.68 0-2.83-1.8-3.63-6.06-3.63h-6.37v7.31h6.37zm-4.06 14.54h-11.08c1.62-.72 2.25-2.17 2.25-4.61v-17.24c0-2.4-.67-3.81-2.25-4.51h14.98c3.45 0 6.18 0 8.16.61 3.1.97 5.07 3.68 5.07 7.18 0 3.72-2.56 6.51-7.27 7.4 2.3 1.02 3.46 2.53 4.67 4.39 1.66 2.53 2.28 5.11 4.78 6.78h-10.1c.54-.53.81-.97.81-1.55 0-1.33-.86-3.14-2.69-5.36-1.75-2.13-4.6-3.11-7.29-3.11h-2.34v5.41c.01 2.43.73 3.95 2.3 4.61M204.33 177.3v-6.65h9.08c1.22 0 2.2-.53 2.78-1.5l2.24-3.72c-.9.36-2.02.71-3.59.71h-10.51v-6.17h9.4c2.37 0 4.53.19 6.59.84v-5.35h-24.77c1.57.7 2.24 2.12 2.24 4.51v17.33c0 2.39-.67 3.85-2.24 4.52h24.77v-5.42c-1.81.59-3.9.9-6.24.9h-9.75z"/></g></g></svg>
