<svg width="120" height="39" viewBox="0 0 120 39" fill="none" xmlns="http://www.w3.org/2000/svg">
<g clip-path="url(#clip0_1567_5933)">
<path fill-rule="evenodd" clip-rule="evenodd" d="M94.3149 10.4414C94.1843 10.4414 94.057 10.3746 93.9896 10.2563L91.3917 5.71634C91.2929 5.54397 91.3586 5.32752 91.5381 5.23259C91.7171 5.13767 91.9424 5.20082 92.0412 5.37319L94.6395 9.91353C94.7383 10.0859 94.6725 10.3024 94.4935 10.3973C94.4365 10.4271 94.3757 10.4414 94.3149 10.4414ZM90.9676 4.59158C90.8365 4.59158 90.7096 4.52485 90.6422 4.4069L89.5801 2.55096C89.4818 2.3782 89.5467 2.16175 89.7265 2.06722C89.9055 1.9723 90.1316 2.03545 90.2296 2.20742L91.2921 4.06375C91.3909 4.23612 91.3251 4.45257 91.1453 4.54749C91.0891 4.57728 91.0283 4.59158 90.9676 4.59158ZM97.9368 13.2505C97.7715 13.2505 97.6206 13.1436 97.5776 12.9828L94.587 1.7912C94.5357 1.60096 94.6552 1.40674 94.8536 1.35789C95.052 1.30864 95.2542 1.42382 95.3046 1.61406L98.2961 12.8057C98.3469 12.9963 98.2274 13.1901 98.0294 13.2394C97.998 13.2469 97.967 13.2505 97.9368 13.2505ZM94.8557 11.7699C94.7573 11.5975 94.8226 11.3806 95.002 11.2861C95.1814 11.1912 95.4067 11.2539 95.5056 11.4263L96.2451 12.7211C96.3439 12.8934 96.2786 13.1103 96.0992 13.2048C96.0426 13.235 95.9814 13.2489 95.9206 13.2489C95.79 13.2489 95.6635 13.1822 95.5957 13.0642L94.8557 11.7699ZM93.9226 13.9435C93.8238 13.9435 93.725 13.9058 93.6522 13.8311L86.8934 6.91656C86.7533 6.77278 86.7607 6.54759 86.9103 6.41296C87.0592 6.27832 87.294 6.28547 87.4341 6.42884L94.193 13.3434C94.3327 13.4868 94.3253 13.7124 94.1764 13.847C94.1045 13.9114 94.0131 13.9435 93.9226 13.9435ZM101.468 13.2505C101.438 13.2505 101.407 13.2469 101.376 13.2394C101.178 13.1901 101.058 12.9963 101.108 12.8057L103.918 2.29082C103.97 2.10019 104.172 1.98541 104.37 2.03426C104.569 2.08311 104.688 2.27732 104.637 2.46796L101.827 12.9828C101.784 13.1436 101.633 13.2505 101.468 13.2505ZM91.4211 23.637C91.3698 23.6605 91.3165 23.6712 91.2636 23.6712C91.1246 23.6712 90.9907 23.5953 90.9275 23.4662C90.841 23.2887 90.92 23.0762 91.1056 22.9924L92.6687 22.2859C92.8539 22.2021 93.0747 22.2787 93.1619 22.4563C93.2487 22.6346 93.1698 22.8467 92.9846 22.9305L91.4211 23.637ZM93.1789 17.4636C93.1284 17.6141 92.9825 17.7098 92.8267 17.7098C92.7886 17.7098 92.7498 17.7042 92.7121 17.6923L85.4485 15.4249C85.2538 15.3642 85.1472 15.1632 85.2104 14.9761C85.2737 14.7891 85.4828 14.687 85.6776 14.7478L92.9412 17.0148C93.1359 17.0755 93.2425 17.2765 93.1789 17.4636ZM85.5812 25.4902L89.6062 23.6704C89.791 23.5866 90.0122 23.6632 90.0994 23.8412C90.1862 24.0191 90.1072 24.2312 89.9216 24.315L85.8967 26.1348C85.8454 26.1578 85.7917 26.1685 85.7387 26.1685C85.5998 26.1685 85.4667 26.0931 85.4031 25.964C85.3162 25.7861 85.3956 25.574 85.5812 25.4902ZM92.7572 20.4101C92.9577 20.3732 93.152 20.4999 93.1909 20.6933C93.2293 20.8863 93.097 21.073 92.8961 21.1099L81.7411 23.1541C81.7179 23.1581 81.6944 23.1604 81.6712 23.1604C81.4972 23.1604 81.3417 23.0417 81.3078 22.8709C81.269 22.6775 81.4012 22.4912 81.6026 22.4543L92.7572 20.4101ZM92.8035 19.4398L87.9054 19.1435C87.7012 19.1312 87.5458 18.962 87.5586 18.7658C87.5718 18.5697 87.7479 18.4203 87.9517 18.433L92.8498 18.7289C93.0544 18.7412 93.2095 18.9104 93.1962 19.1066C93.1843 19.2953 93.021 19.4402 92.8271 19.4402C92.8218 19.4402 92.8168 19.4402 92.8119 19.4401C92.8091 19.4401 92.8063 19.44 92.8035 19.4398ZM106.531 15.6946C106.408 15.6946 106.289 15.6362 106.218 15.5294C106.109 15.3634 106.16 15.1433 106.333 15.0381L115.74 9.30031C115.913 9.19507 116.142 9.24392 116.252 9.40993C116.361 9.57634 116.31 9.79637 116.137 9.90162L106.73 15.6394C106.668 15.6767 106.599 15.6946 106.531 15.6946ZM113.229 14.9031C113.424 14.8423 113.633 14.9448 113.696 15.1318C113.759 15.3189 113.653 15.5199 113.457 15.5806L106.692 17.6923C106.655 17.7042 106.616 17.7098 106.578 17.7098C106.422 17.7098 106.276 17.6141 106.226 17.4636C106.162 17.2765 106.269 17.0755 106.463 17.0148L113.229 14.9031ZM106.208 19.1066C106.195 18.9104 106.351 18.7412 106.555 18.7289L110.61 18.4835C110.814 18.4712 110.99 18.6205 111.003 18.8167C111.016 19.0133 110.861 19.1825 110.656 19.1944L106.601 19.4398C106.594 19.4402 106.585 19.4402 106.578 19.4402C106.384 19.4402 106.22 19.2953 106.208 19.1066ZM113.508 26.1348L106.42 22.9305C106.235 22.8467 106.155 22.6346 106.243 22.4563C106.33 22.2787 106.551 22.2021 106.736 22.2859L113.824 25.4902C114.009 25.574 114.088 25.7861 114.002 25.964C113.938 26.0931 113.805 26.1685 113.666 26.1685C113.612 26.1685 113.559 26.1578 113.508 26.1348ZM103.482 13.2505C103.422 13.2505 103.36 13.2362 103.304 13.2064C103.124 13.1115 103.059 12.895 103.157 12.7226L105.357 8.87972C105.456 8.70696 105.681 8.64421 105.86 8.73913C106.04 8.83365 106.105 9.0505 106.006 9.22247L103.807 13.0658C103.74 13.1838 103.613 13.2505 103.482 13.2505ZM91.462 14.0543L93.0714 15.0361C93.2442 15.1414 93.2955 15.3614 93.1859 15.5274C93.1152 15.6342 92.9957 15.6926 92.8725 15.6926C92.8047 15.6926 92.7357 15.6747 92.6745 15.6374L91.0643 14.6556C90.8919 14.5504 90.8406 14.33 90.9506 14.1639C91.0597 13.9979 91.2888 13.9487 91.462 14.0543ZM115.318 14.9817C115.162 14.9817 115.017 14.886 114.966 14.7355C114.903 14.548 115.009 14.3474 115.204 14.2867L117.798 13.4769C117.993 13.4161 118.202 13.5182 118.265 13.7052C118.329 13.8923 118.222 14.0933 118.028 14.154L115.433 14.9638C115.395 14.9757 115.357 14.9817 115.318 14.9817ZM107.178 12.2083C107.087 12.2083 106.995 12.1762 106.924 12.1118C106.775 11.9772 106.767 11.752 106.907 11.6086L110.363 8.07349C110.503 7.93011 110.737 7.92296 110.887 8.0576C111.036 8.19263 111.044 8.41782 110.903 8.5612L107.448 12.0959C107.375 12.1706 107.276 12.2083 107.178 12.2083ZM105.763 12.7794C105.903 12.6357 106.138 12.6289 106.287 12.7636C106.437 12.8982 106.444 13.1234 106.304 13.2668L105.751 13.8303C105.678 13.905 105.58 13.9427 105.481 13.9427C105.39 13.9427 105.298 13.911 105.227 13.8462C105.078 13.7116 105.071 13.486 105.211 13.3426L105.763 12.7794ZM106.649 7.71644C106.588 7.71644 106.527 7.70254 106.47 7.67235C106.291 7.57743 106.226 7.36098 106.324 7.18861L108.977 2.55255C109.076 2.38018 109.301 2.31743 109.481 2.41196C109.66 2.50688 109.726 2.72333 109.627 2.8957L106.974 7.53176C106.907 7.64971 106.78 7.71644 106.649 7.71644ZM104.263 26.1348C104.143 25.9759 104.179 25.7531 104.345 25.6375C104.511 25.522 104.743 25.5573 104.863 25.7162L106.84 28.3315C106.959 28.4903 106.924 28.7131 106.758 28.8287C106.692 28.8748 106.615 28.897 106.54 28.897C106.425 28.897 106.312 28.8458 106.24 28.7501L104.263 26.1348ZM112.137 7.29902C112.064 7.37369 111.965 7.41142 111.867 7.41142C111.775 7.41142 111.684 7.37965 111.612 7.31491C111.464 7.18027 111.456 6.95508 111.596 6.81171L113.564 4.7981C113.704 4.65512 113.939 4.64797 114.088 4.78261C114.237 4.91725 114.245 5.14284 114.105 5.28621L112.137 7.29902ZM89.6885 13.8164L83.7329 10.1856C83.5601 10.0803 83.5092 9.86031 83.6188 9.6939C83.7287 9.52829 83.9578 9.47904 84.1306 9.58428L90.0853 13.2147C90.2586 13.3204 90.3094 13.5404 90.1999 13.7064C90.1292 13.8133 90.0089 13.872 89.8865 13.872C89.8187 13.872 89.7496 13.8538 89.6885 13.8164ZM106.186 35.2313C106.376 35.1591 106.592 35.2488 106.667 35.4315L107.382 37.1679C107.458 37.351 107.365 37.5579 107.174 37.6302C107.13 37.6473 107.084 37.6552 107.038 37.6552C106.89 37.6552 106.751 37.5702 106.693 37.4304L105.977 35.6936C105.902 35.5109 105.995 35.304 106.186 35.2313ZM102.769 25.9743L103.253 27.1487C103.329 27.3314 103.235 27.5383 103.045 27.611C103 27.6281 102.954 27.636 102.909 27.636C102.761 27.636 102.622 27.5506 102.564 27.4108L102.08 26.2364C102.005 26.0537 102.098 25.8468 102.288 25.7741C102.479 25.7019 102.694 25.7916 102.769 25.9743ZM101.755 32.2689C101.781 32.4639 101.637 32.6419 101.433 32.6669C101.418 32.6685 101.402 32.6697 101.387 32.6697C101.202 32.6697 101.043 32.5382 101.02 32.3579L100.203 26.1503C100.177 25.9549 100.321 25.7765 100.525 25.7523C100.728 25.7273 100.913 25.8659 100.939 26.0609L101.755 32.2689ZM101.242 34.053C101.216 33.8576 101.36 33.6792 101.564 33.655C101.767 33.6304 101.952 33.7686 101.978 33.9636L102.455 37.5913C102.481 37.7863 102.337 37.9646 102.134 37.9892C102.118 37.9912 102.102 37.992 102.087 37.992C101.903 37.992 101.743 37.8605 101.72 37.6802L101.242 34.053ZM105.879 24.4099C106.01 24.2582 106.243 24.2371 106.401 24.3626L114.326 30.6596C114.484 30.7851 114.505 31.0095 114.375 31.1612C114.302 31.2462 114.196 31.2903 114.089 31.2903C114.006 31.2903 113.923 31.2637 113.853 31.2085L105.928 24.9111C105.771 24.786 105.749 24.5616 105.879 24.4099ZM112.225 18.3862L119.606 17.9402C119.811 17.9278 119.986 18.0768 119.999 18.273C120.012 18.4692 119.857 18.6388 119.653 18.6511L112.272 19.0971C112.264 19.0975 112.256 19.0979 112.248 19.0979C112.054 19.0979 111.891 18.9525 111.878 18.7639C111.865 18.5677 112.021 18.3985 112.225 18.3862ZM106.648 20.4101L118.359 22.5564C118.56 22.5933 118.692 22.78 118.654 22.973C118.62 23.1434 118.464 23.2625 118.29 23.2625C118.267 23.2625 118.244 23.2601 118.22 23.2558L106.508 21.1099C106.308 21.073 106.176 20.8863 106.214 20.6933C106.253 20.4999 106.446 20.3732 106.648 20.4101ZM99.3313 0.356253C99.3313 0.159659 99.4979 0 99.7025 0C99.9067 0 100.073 0.159659 100.073 0.356253V3.0494C100.073 3.246 99.9067 3.40526 99.7025 3.40526C99.4979 3.40526 99.3313 3.246 99.3313 3.0494V0.356253ZM107.648 30.0071C107.814 29.8915 108.046 29.9265 108.166 30.0857L110.933 33.744C111.053 33.9032 111.017 34.1256 110.851 34.2412C110.785 34.2873 110.709 34.3095 110.633 34.3095C110.519 34.3095 110.406 34.2587 110.333 34.1626L107.566 30.5043C107.446 30.3455 107.483 30.1227 107.648 30.0071ZM115.477 26.2372L118.071 27.4101C118.256 27.4939 118.336 27.7059 118.248 27.8839C118.185 28.0129 118.052 28.0888 117.913 28.0888C117.86 28.0888 117.807 28.0777 117.755 28.0546L115.161 26.8818C114.975 26.798 114.896 26.5859 114.983 26.4076C115.07 26.2297 115.291 26.1534 115.477 26.2372ZM103.457 28.6111C103.648 28.5388 103.863 28.6285 103.938 28.8112L105.924 33.6288C105.999 33.8119 105.906 34.0188 105.716 34.0911C105.671 34.1082 105.625 34.1165 105.579 34.1165C105.432 34.1165 105.292 34.0311 105.234 33.8913L103.249 29.0734C103.174 28.8907 103.267 28.6837 103.457 28.6111ZM93.0057 24.3611C93.1636 24.2355 93.3976 24.2566 93.5278 24.4083C93.6584 24.5596 93.6361 24.7844 93.4786 24.9095L85.7991 31.0115C85.7301 31.0663 85.6461 31.0933 85.5635 31.0933C85.4564 31.0933 85.3505 31.0492 85.2774 30.9642C85.1467 30.8125 85.1691 30.5881 85.327 30.4626L93.0057 24.3611ZM81.5141 27.3286L84.0632 26.1761C84.248 26.0927 84.4692 26.1689 84.5564 26.3469C84.6436 26.5248 84.5642 26.7369 84.379 26.8207L81.8295 27.9728C81.7787 27.9959 81.7254 28.007 81.672 28.007C81.5331 28.007 81.3996 27.9315 81.3363 27.8024C81.2495 27.6245 81.3285 27.4124 81.5141 27.3286ZM86.6354 18.7098C86.623 18.8989 86.4601 19.0439 86.2658 19.0439C86.258 19.0439 86.2501 19.0435 86.2423 19.0431L79.7522 18.6511C79.5479 18.6388 79.3925 18.4692 79.4053 18.273C79.4181 18.0768 79.5942 17.9274 79.7989 17.9402L86.2886 18.3321C86.4932 18.3445 86.6482 18.5137 86.6354 18.7098ZM83.7598 14.8979L80.636 13.9229C80.4413 13.8621 80.3351 13.6611 80.3979 13.4741C80.4612 13.287 80.6703 13.1845 80.8651 13.2453L83.9888 14.2203C84.1835 14.2811 84.2902 14.4821 84.2269 14.6691C84.1761 14.8197 84.0301 14.9154 83.8743 14.9154C83.8362 14.9154 83.7978 14.9098 83.7598 14.8979ZM87.6896 34.7782L89.464 32.4322C89.5843 32.2729 89.8162 32.2375 89.9816 32.3531C90.1473 32.4687 90.1841 32.6915 90.0638 32.8508L88.2899 35.1968C88.2171 35.2925 88.1039 35.3437 87.9889 35.3437C87.9137 35.3437 87.8372 35.3215 87.7715 35.2754C87.6061 35.1599 87.5689 34.937 87.6896 34.7782ZM94.5423 25.717C94.6622 25.5577 94.8941 25.5223 95.0599 25.6379C95.2257 25.7535 95.2625 25.9763 95.1418 26.1356L91.1379 31.4305C91.0655 31.5262 90.9523 31.5771 90.8377 31.5771C90.7617 31.5771 90.686 31.5552 90.6203 31.5092C90.4545 31.3936 90.4177 31.1708 90.538 31.0119L94.5423 25.717ZM96.6354 25.9743C96.7106 25.7916 96.926 25.7019 97.1162 25.7741C97.3068 25.8468 97.3998 26.0537 97.3246 26.2364L95.7404 30.0798C95.6829 30.2196 95.5436 30.305 95.396 30.305C95.3505 30.305 95.3042 30.2966 95.2596 30.2799C95.0694 30.2073 94.976 30.0003 95.0516 29.8176L96.6354 25.9743ZM98.466 26.0609C98.4916 25.8659 98.6772 25.7277 98.8802 25.7523C99.0832 25.7765 99.2271 25.9549 99.2014 26.1503L97.5523 38.6882C97.5292 38.8681 97.3696 39 97.1857 39C97.1699 39 97.1538 38.9988 97.1381 38.9968C96.9351 38.9722 96.7913 38.7943 96.8169 38.5989L98.466 26.0609ZM99.3313 5.54476C99.3313 5.34817 99.4979 5.18851 99.7025 5.18851C99.9067 5.18851 100.073 5.34817 100.073 5.54476V12.8942C100.073 13.0908 99.9067 13.2505 99.7025 13.2505C99.4979 13.2505 99.3313 13.0908 99.3313 12.8942V5.54476ZM94.3286 31.5715C94.4038 31.3884 94.6196 31.2991 94.8094 31.3713C95 31.4436 95.0934 31.6505 95.0181 31.8336L92.7113 37.4304C92.6539 37.5702 92.5141 37.6552 92.3665 37.6552C92.3211 37.6552 92.2748 37.6473 92.2301 37.6302C92.0399 37.5579 91.9465 37.351 92.0222 37.1679L94.3286 31.5715ZM39.5832 12.6968C39.159 13.5257 38.5604 14.1687 37.7869 14.6262C37.0134 15.0846 36.1143 15.3129 35.0882 15.3129C34.3217 15.3129 33.6412 15.1684 33.0455 14.8788C32.451 14.5901 31.9475 14.1687 31.5378 13.6171L31.5374 19.1098H28.376V4.32588H31.5378V5.92167C31.9343 5.36882 32.4304 4.94862 33.0257 4.65909C33.621 4.36917 34.2874 4.22381 35.0262 4.22381C36.0522 4.22381 36.9597 4.45614 37.746 4.92122C38.5323 5.3859 39.1412 6.0428 39.5733 6.89074C40.004 7.73868 40.2194 8.7149 40.2194 9.81861C40.2194 10.9096 40.0073 11.8692 39.5832 12.6968ZM31.5378 9.71813C31.5378 10.6209 31.7941 11.3481 32.3063 11.8997C32.8202 12.4518 33.48 12.7274 34.2874 12.7274C35.0944 12.7274 35.7521 12.4486 36.2581 11.8902C36.7641 11.331 37.0167 10.607 37.0167 9.71813C37.0167 8.84318 36.7641 8.12591 36.2581 7.56671C35.7521 7.0083 35.0944 6.7283 34.2874 6.7283C33.48 6.7283 32.8202 7.0083 32.3063 7.56671C31.7941 8.12591 31.5378 8.84318 31.5378 9.71813ZM70.524 13.0511C70.9482 13.0511 71.2859 12.98 71.5398 12.839C71.7932 12.6968 71.9193 12.4855 71.9193 12.2024C71.9193 11.8922 71.7576 11.6503 71.4372 11.4752C71.1156 11.3012 70.5988 11.1122 69.8874 10.9096C69.135 10.6951 68.5091 10.4787 68.0092 10.2634C67.5103 10.0478 67.0824 9.7221 66.7268 9.28403C66.3701 8.84676 66.1931 8.27763 66.1931 7.57743C66.1931 6.49993 66.6032 5.6647 67.4243 5.07254C68.2457 4.48037 69.2854 4.18449 70.5447 4.18449C71.2959 4.18449 72.0491 4.28854 72.8015 4.49665C73.5539 4.70556 74.2385 5.00621 74.8541 5.39662L73.766 7.51666C73.164 7.18027 72.5687 6.92013 71.9805 6.73902C71.3922 6.55752 70.8651 6.46618 70.4 6.46618C70.0176 6.46618 69.7096 6.53409 69.4764 6.66793C69.2445 6.80376 69.1271 7.00512 69.1271 7.274C69.1271 7.57068 69.2854 7.79905 69.6 7.96149C69.9151 8.12273 70.4273 8.30424 71.1388 8.50599C71.9193 8.73515 72.5617 8.96114 73.0686 9.18315C73.5746 9.40477 74.0124 9.73481 74.3824 10.1721C74.7511 10.6105 74.9368 11.1864 74.9368 11.8997C74.9368 12.9768 74.5159 13.8152 73.6742 14.4142C72.8325 15.0135 71.7551 15.3129 70.4417 15.3129C69.5384 15.3129 68.669 15.1823 67.8348 14.9189C67.0001 14.6568 66.275 14.2835 65.6598 13.7982L66.6863 11.6984C67.2465 12.1289 67.8724 12.4621 68.564 12.6968C69.2544 12.9331 69.9084 13.0511 70.524 13.0511ZM31.5374 34.8767H28.376V19.8898H31.5374V34.8767ZM21.8987 31.3622C22.3374 30.8507 22.5561 30.1902 22.5561 29.3827V24.0096H25.6967V34.8767H22.5561V32.9584C21.8037 34.3187 20.5717 34.9978 18.8622 34.9978C17.6435 34.9978 16.6761 34.6241 15.958 33.877C15.2387 33.13 14.8799 32.1168 14.8799 30.8368V24.0096H18.04V29.9483C18.04 30.635 18.226 31.1743 18.5948 31.5636C18.9648 31.9552 19.4708 32.1494 20.1136 32.1494C20.866 32.1367 21.4613 31.8745 21.8987 31.3622ZM7.69728 32.1911C8.34013 32.1911 8.99291 32.039 9.65684 31.7355C10.3195 31.4329 10.912 31.0254 11.432 30.5143L13.3407 32.5537C12.5743 33.3349 11.6755 33.9549 10.6424 34.412C9.60847 34.8703 8.57205 35.0987 7.53274 35.0987C6.12301 35.0987 4.84392 34.7794 3.69506 34.1391C2.54536 33.5005 1.64248 32.6216 0.985156 31.5032C0.329074 30.3868 0 29.1409 0 27.7667C0 26.4072 0.335689 25.1748 1.00624 24.0711C1.67555 22.9666 2.59704 22.0984 3.76699 21.465C4.93653 20.8323 6.23257 20.5161 7.65511 20.5161C8.69566 20.5161 9.72216 20.7282 10.7342 21.152C11.747 21.5762 12.6082 22.1512 13.3197 22.8784L11.432 25.1609C10.9392 24.5827 10.3617 24.1287 9.69777 23.7975C9.03383 23.4682 8.36659 23.303 7.69728 23.303C6.88989 23.303 6.15071 23.498 5.48016 23.8884C4.80961 24.2792 4.28293 24.811 3.8997 25.485C3.51605 26.1574 3.32506 26.9057 3.32506 27.7262C3.32506 28.5487 3.51605 29.2989 3.8997 29.9781C4.28293 30.6584 4.80961 31.1974 5.48016 31.5945C6.15071 31.9925 6.88989 32.1911 7.69728 32.1911ZM38.2342 31.1402C38.2342 31.9754 38.5699 32.3924 39.2409 32.3924C39.7055 32.3924 40.2186 32.2578 40.7796 31.9881L41.4365 34.271C41.026 34.5129 40.5704 34.6983 40.0714 34.8258C39.572 34.9545 39.0697 35.0181 38.5633 35.0181C37.5372 35.0181 36.7021 34.7293 36.0593 34.1499C35.4164 33.5704 35.0952 32.7427 35.0952 31.6656V26.6364H33.5548V24.4945H35.0952V21.5051H38.2342V24.4945H41.231V26.6554H38.2342V31.1402ZM59.5715 24.0096V25.9688C59.9552 25.296 60.4542 24.7844 61.0697 24.4341C61.6861 24.0842 62.4038 23.9023 63.2248 23.8884V26.8179C63.1153 26.8052 62.9512 26.7976 62.7321 26.7976C61.761 26.7976 60.9912 27.0566 60.4236 27.5753C59.8556 28.0932 59.5715 28.7842 59.5715 29.6449V34.8767H56.4114V24.0096H59.5715ZM66.5425 24.6061C67.404 24.1414 68.3896 23.9091 69.4971 23.9091C71.276 23.9091 72.6283 24.4139 73.5518 25.4235C74.475 26.4334 74.9368 27.841 74.9368 29.6449C74.9368 29.9686 74.9305 30.218 74.9161 30.3931H66.9943C67.1721 31.0798 67.5136 31.6148 68.0204 31.9988C68.5264 32.3817 69.135 32.5739 69.8464 32.5739C70.3669 32.5739 70.8659 32.4762 71.3455 32.2812C71.8238 32.0858 72.255 31.8003 72.6378 31.4226L74.3005 33.0791C73.7395 33.6987 73.059 34.1733 72.2583 34.5033C71.4583 34.8334 70.5658 34.9978 69.5802 34.9978C68.4173 34.9978 67.4007 34.7686 66.5325 34.3111C65.6636 33.854 64.9926 33.2074 64.5209 32.3722C64.0492 31.5369 63.8127 30.5746 63.8127 29.4836C63.8127 28.3799 64.0525 27.4069 64.5312 26.5653C65.0104 25.7233 65.6805 25.0708 66.5425 24.6061ZM67.805 26.8274C67.347 27.252 67.0563 27.8283 66.9323 28.5551H71.961C71.9329 27.841 71.7014 27.2687 71.2628 26.8377C70.8254 26.4072 70.2433 26.1916 69.5182 26.1916C68.8348 26.1916 68.2635 26.4036 67.805 26.8274ZM50.0354 31.3622C50.474 30.8507 50.6927 30.1902 50.6927 29.3827V24.0096H53.8334V34.8767H50.6927V32.9584C49.9403 34.3187 48.7084 34.9978 46.9989 34.9978C45.7802 34.9978 44.8128 34.6241 44.0947 33.877C43.3754 33.13 43.0165 32.1168 43.0165 30.8368V24.0096H46.1766V29.9483C46.1766 30.635 46.3627 31.1743 46.7314 31.5636C47.1014 31.9552 47.6075 32.1494 48.2503 32.1494C49.0027 32.1367 49.5976 31.8745 50.0354 31.3622ZM59.4087 13.0511C59.8332 13.0511 60.1722 12.98 60.4248 12.839C60.6782 12.6968 60.8047 12.4855 60.8047 12.2024C60.8047 11.8922 60.6435 11.6503 60.3223 11.4752C60.0007 11.3012 59.4839 11.1122 58.7724 10.9096C58.0204 10.6951 57.3937 10.4787 56.8947 10.2634C56.3949 10.0478 55.9674 9.7221 55.6119 9.28403C55.2564 8.84676 55.0782 8.27763 55.0782 7.57743C55.0782 6.49993 55.4879 5.6647 56.3102 5.07254C57.1312 4.48037 58.1705 4.18449 59.4293 4.18449C60.1817 4.18449 60.9341 4.28854 61.6874 4.49665C62.4398 4.70556 63.1236 5.00621 63.7391 5.39662L62.6523 7.51666C62.0504 7.18027 61.4546 6.92013 60.8659 6.73902C60.2781 6.55752 59.7514 6.46618 59.2863 6.46618C58.9031 6.46618 58.5947 6.53409 58.3623 6.66793C58.1296 6.80376 58.0138 7.00512 58.0138 7.274C58.0138 7.57068 58.1705 7.79905 58.4855 7.96149C58.8001 8.12273 59.3127 8.30424 60.0255 8.50599C60.8047 8.73515 61.448 8.96114 61.9536 9.18315C62.46 9.40477 62.8983 9.73481 63.2674 10.1721C63.6374 10.6105 63.8222 11.1864 63.8222 11.8997C63.8222 12.9768 63.4014 13.8152 62.5597 14.4142C61.7171 15.0135 60.6406 15.3129 59.3272 15.3129C58.4235 15.3129 57.5553 15.1823 56.7198 14.9189C55.886 14.6568 55.1605 14.2835 54.5449 13.7982L55.571 11.6984C56.1324 12.1289 56.7575 12.4621 57.4491 12.6968C58.1395 12.9331 58.7935 13.0511 59.4087 13.0511ZM43.165 9.54695C43.8975 8.97385 44.9339 8.68114 46.2746 8.66803H49.3124V8.46548C49.3124 7.88722 49.1168 7.43922 48.727 7.12308C48.3371 6.80694 47.7662 6.64768 47.0138 6.64768C45.9873 6.64768 44.8926 6.96501 43.7297 7.59729L42.7441 5.45699C43.6201 5.02607 44.4407 4.70874 45.2076 4.50698C45.9728 4.30522 46.8145 4.20355 47.7319 4.20355C49.2098 4.20355 50.3554 4.54749 51.1694 5.23418C51.9838 5.92167 52.3976 6.87684 52.4113 8.10168L52.432 15.1918H49.3322V13.9193C48.963 14.3776 48.4843 14.7279 47.896 14.9698C47.3077 15.2121 46.6302 15.334 45.8649 15.334C44.7016 15.334 43.7768 15.0198 43.0934 14.3947C42.4097 13.7676 42.0669 12.9506 42.0669 11.9402C42.0669 10.9172 42.4336 10.1189 43.165 9.54695ZM48.4496 12.6468C48.9291 12.3382 49.2165 11.9466 49.3124 11.4752V10.5061H46.829C46.2126 10.5061 45.7579 10.6038 45.4639 10.7992C45.1704 10.9946 45.0232 11.3076 45.0232 11.7385C45.0232 12.1555 45.1766 12.4887 45.485 12.7369C45.7918 12.9876 46.2126 13.1119 46.7463 13.1119C47.4036 13.1119 47.9717 12.957 48.4496 12.6468Z" fill="#870087"/>
</g>
<defs>
<clipPath id="clip0_1567_5933">
<rect width="120" height="39" fill="white"/>
</clipPath>
</defs>
</svg>
