<svg xmlns="http://www.w3.org/2000/svg" viewBox="0 0 114 84" aria-hidden="true"><path d="M28.693 60.38c.015 0 .03.002.046.004.2.025.34.208.316.408l-.433 3.433a.365.365 0 1 1-.722-.091l.432-3.434a.365.365 0 0 1 .361-.32zm6.61-6.76l1.241 9.842a.366.366 0 0 1-.315.409l-.046.002a.364.364 0 0 1-.361-.319l-1.24-9.843a.364.364 0 1 1 .722-.091zm-3.041 4.578c.201 0 .364.164.364.365v4.183a.364.364 0 1 1-.728 0v-4.183c0-.201.163-.365.364-.365zm9.959-1.583l2.145 5.433a.365.365 0 0 1-.338.499.367.367 0 0 1-.34-.23l-2.144-5.433a.365.365 0 0 1 .204-.474.363.363 0 0 1 .473.205zm-16.086-.65a.365.365 0 0 1 .353.456l-1.13 4.416a.365.365 0 1 1-.706-.182l1.13-4.415a.366.366 0 0 1 .353-.275zm-4.426 2.793a.365.365 0 0 1 .338.5l-.64 1.622a.366.366 0 0 1-.678-.269l.641-1.622a.365.365 0 0 1 .339-.23zm-1.246-5.19a.366.366 0 0 1 .318.541l-3.593 6.535a.362.362 0 0 1-.494.144.366.366 0 0 1-.144-.495l3.593-6.536a.364.364 0 0 1 .32-.19zm25.431 2.924l1.584 2.888a.366.366 0 0 1-.319.541.365.365 0 0 1-.32-.19l-1.583-2.887a.366.366 0 0 1 .144-.496.363.363 0 0 1 .494.144zm-6.993.354l.535 2.086a.365.365 0 0 1-.706.182l-.534-2.086a.365.365 0 0 1 .262-.444.363.363 0 0 1 .443.262zM30.694 44.87c.2.025.34.208.315.408l-1.703 13.515a.363.363 0 0 1-.406.316.365.365 0 0 1-.316-.408l1.703-13.515a.364.364 0 0 1 .407-.316zm-3.5-.003a.366.366 0 0 1 .339.5l-4.668 11.82a.363.363 0 0 1-.472.205.366.366 0 0 1-.205-.474l4.668-11.82a.363.363 0 0 1 .338-.23zm5.068 4.37c.201 0 .364.163.364.364v7.336a.364.364 0 1 1-.728 0v-7.336c0-.201.163-.365.364-.365zm-15.829 4.635a.365.365 0 0 1 .294.58l-1.424 1.966a.365.365 0 0 1-.589-.43l1.424-1.965a.366.366 0 0 1 .295-.15zm-3.388-.967a.366.366 0 0 1 .017.516l-2.413 2.576a.366.366 0 0 1-.515.016.365.365 0 0 1-.016-.516l2.413-2.576a.362.362 0 0 1 .514-.016zm35.564-3.598l5.797 6.19a.366.366 0 0 1-.266.615.366.366 0 0 1-.265-.115l-5.797-6.19a.364.364 0 1 1 .531-.5zm-1.648 2.744l2.162 2.983a.366.366 0 0 1-.295.58.367.367 0 0 1-.295-.151l-2.161-2.983a.365.365 0 1 1 .589-.429zm-19.34-1.888a.366.366 0 0 1 .353.456l-1.128 4.405a.364.364 0 1 1-.706-.182l1.128-4.405a.364.364 0 0 1 .353-.274zm12.004-5.106l5.248 9.572a.365.365 0 0 1-.638.352l-5.249-9.572a.364.364 0 1 1 .639-.352zm-2.388 5.288l1.095 4.277a.366.366 0 0 1-.353.456.365.365 0 0 1-.352-.274l-1.096-4.277a.365.365 0 1 1 .706-.182zm.436-5.247l3.422 8.665a.367.367 0 0 1-.338.5.367.367 0 0 1-.34-.23l-3.421-8.666a.365.365 0 1 1 .677-.269zm16.015 4.587l3.432 2.847a.366.366 0 0 1-.232.646.363.363 0 0 1-.232-.083l-3.432-2.847a.366.366 0 0 1-.049-.514.364.364 0 0 1 .513-.049zm-32.862-1.874a.364.364 0 0 1 .293.58l-3.3 4.554a.364.364 0 0 1-.588-.43l3.3-4.553a.361.361 0 0 1 .295-.151zm4.398-2.944a.365.365 0 0 1 .318.541l-3.708 6.781a.363.363 0 0 1-.495.144.366.366 0 0 1-.144-.495l3.71-6.782a.364.364 0 0 1 .319-.189zm-5.348.744c.147.138.154.37.017.516l-5.53 5.904a.362.362 0 0 1-.515.016.367.367 0 0 1-.016-.516l5.53-5.904a.363.363 0 0 1 .514-.016zm-5.853 1.905a.366.366 0 0 1-.049.514L9.32 51.89a.364.364 0 0 1-.513-.048.366.366 0 0 1 .048-.514l4.655-3.861a.363.363 0 0 1 .513.049zm29.754.14l2.302 3.177a.366.366 0 0 1-.59.43l-2.301-3.178a.365.365 0 1 1 .589-.429zm-9.535-2.462l.722 5.73a.366.366 0 0 1-.362.412.364.364 0 0 1-.36-.32l-.723-5.73a.365.365 0 0 1 .723-.092zm1.662-.053l.954 3.726a.366.366 0 0 1-.352.456.366.366 0 0 1-.353-.274l-.954-3.726a.365.365 0 0 1 .705-.182zm-6.927-.274a.365.365 0 0 1 .353.456l-.862 3.366a.363.363 0 0 1-.443.263.366.366 0 0 1-.263-.444l.862-3.367a.366.366 0 0 1 .353-.274zm15.584-2.752l7.373 6.115a.365.365 0 0 1-.464.563l-7.373-6.116a.364.364 0 1 1 .464-.562zm-1.237 1.55l4.1 4.378a.366.366 0 0 1-.016.516.362.362 0 0 1-.515-.017l-4.1-4.377a.366.366 0 0 1 .017-.516.363.363 0 0 1 .514.016zm-11.062 1.21c.201 0 .364.163.364.365v2.567a.365.365 0 1 1-.728 0V45.24c0-.202.163-.365.364-.365zm-20.894.807a.365.365 0 0 1-.112.504L8.54 47.913a.364.364 0 1 1-.39-.617l2.715-1.727a.362.362 0 0 1 .502.113zm41.546-.587l2.929 1.864a.365.365 0 0 1-.39.616l-2.93-1.863a.365.365 0 0 1 .391-.617zm-29.719-.554a.364.364 0 0 1 .294.58l-1.526 2.107a.365.365 0 1 1-.589-.43l1.526-2.107a.366.366 0 0 1 .295-.15zm18.434.151l1.218 1.682a.366.366 0 0 1-.294.58.365.365 0 0 1-.295-.151L41.04 45.12a.365.365 0 1 1 .589-.429zm-21.153-2.53a.367.367 0 0 1-.048.515l-4.791 3.974a.363.363 0 0 1-.512-.049.365.365 0 0 1 .048-.514l4.79-3.974a.364.364 0 0 1 .513.049zM7.547 44.049c.086.182.008.4-.174.485l-3.875 1.829a.364.364 0 1 1-.31-.661l3.875-1.828a.363.363 0 0 1 .484.175zm45.859-2.089l6.65 3.138a.365.365 0 0 1-.31.661l-6.65-3.138a.366.366 0 0 1-.175-.486.364.364 0 0 1 .485-.175zm-36.728.344a.365.365 0 0 1-.112.504l-4.007 2.55a.365.365 0 1 1-.391-.617l4.008-2.55a.363.363 0 0 1 .502.113zm5.036 1.346a.365.365 0 0 1 .016.516l-.437.467a.362.362 0 0 1-.515.017.365.365 0 0 1-.016-.516l.437-.468a.364.364 0 0 1 .515-.016zm26.831-1.333l2.698 1.716a.367.367 0 0 1-.195.674.368.368 0 0 1-.195-.057l-2.698-1.717a.365.365 0 0 1 .39-.616zm-28.765-4.04c.086.182.008.4-.174.486L8.833 43.844a.365.365 0 0 1-.31-.66L19.296 38.1a.363.363 0 0 1 .484.175zm37.476 1.87l5.515 1.796a.366.366 0 0 1-.225.695l-5.515-1.797a.365.365 0 0 1 .225-.695zm-46.64-.708a.364.364 0 0 1-.233.46l-7.45 2.428a.366.366 0 0 1-.225-.695l7.45-2.427a.365.365 0 0 1 .459.234zm34.58.746l2.116 1.347a.365.365 0 0 1-.391.616l-2.115-1.346a.365.365 0 0 1 .39-.617zm-25.345.1a.365.365 0 0 1-.112.504l-1.844 1.173a.365.365 0 1 1-.39-.616l1.844-1.174a.362.362 0 0 1 .502.113zM45.228 38.1l6.641 3.133a.365.365 0 0 1-.31.661l-6.64-3.133a.366.366 0 0 1-.175-.486.364.364 0 0 1 .484-.175zm2.049-1.207L55.89 39.7a.366.366 0 0 1-.112.713.366.366 0 0 1-.113-.018l-8.613-2.806a.365.365 0 0 1 .225-.695zm-27.48-.446a.366.366 0 0 1-.234.46l-7.613 2.48a.366.366 0 0 1-.459-.234.365.365 0 0 1 .234-.46l7.613-2.48a.364.364 0 0 1 .459.234zm-11.434.51a.364.364 0 0 1-.29.427l-3.78.723a.364.364 0 1 1-.136-.717l3.78-.723c.2-.038.388.092.426.29zm44.373-1.027l6.58 1.259a.365.365 0 0 1-.137.717l-6.58-1.259a.365.365 0 0 1 .137-.717zm-7.55.282l.457.15a.365.365 0 0 1-.225.694l-.457-.15a.365.365 0 0 1 .225-.694zm-29.814-.596a.365.365 0 0 1-.29.427l-4.965.95a.364.364 0 0 1-.426-.29.364.364 0 0 1 .29-.427l4.965-.95a.364.364 0 0 1 .426.29zm29.77-1.138l5.04.964a.366.366 0 0 1-.068.724.404.404 0 0 1-.069-.007l-5.04-.964a.365.365 0 1 1 .137-.717zm-25.334.29a.364.364 0 0 1-.29.427l-2.547.487a.364.364 0 1 1-.136-.717l2.547-.487c.2-.038.389.092.426.29zm39.462-1.044l4.913.31a.364.364 0 0 1-.023.729h-.023l-4.912-.31a.366.366 0 0 1 .045-.729zm-49.399-.291a.365.365 0 0 1 .046.728l-8.029.507h-.023a.365.365 0 0 1-.023-.729l8.03-.506zm41.2-.226l5.84.368a.365.365 0 0 1-.022.729h-.023l-5.84-.369a.364.364 0 1 1 .045-.728zM16.88 32.99a.365.365 0 0 1 .046.729l-5.069.32h-.023a.364.364 0 0 1-.023-.729l5.069-.32zm28.216-.16l4.447.28a.365.365 0 0 1-.023.73l-.023-.001-4.446-.28a.365.365 0 0 1 .045-.729zm-25.668 0a.364.364 0 0 1 .046.729l-.986.062h-.023a.365.365 0 0 1-.023-.729l.986-.062zm-4.401-1.897l4.446.28a.365.365 0 0 1-.022.73h-.023l-4.447-.281a.365.365 0 0 1 .046-.729zm31.009.218a.366.366 0 0 1 .046.729l-.986.062h-.023a.365.365 0 0 1-.023-.729l.986-.062zm6.63-.418a.365.365 0 0 1 .047.729l-5.069.32h-.023a.366.366 0 0 1-.023-.729l5.069-.32zm-45.008-.265l5.84.369a.364.364 0 0 1-.022.729h-.023l-5.84-.37a.363.363 0 0 1-.34-.386.366.366 0 0 1 .385-.342zm54.978-.364a.365.365 0 0 1 .046.729l-8.03.506-.023.001a.366.366 0 0 1-.023-.729l8.03-.507zM.387 30.01l4.912.31a.365.365 0 0 1-.022.73l-.023-.001-4.913-.31a.365.365 0 0 1 .046-.729zm47.592-.63a.365.365 0 0 1-.29.428l-2.547.487a.364.364 0 1 1-.136-.717l2.547-.487c.2-.039.389.092.426.29zm-33.5-.766l5.04.964a.366.366 0 0 1 .29.427.366.366 0 0 1-.427.29l-5.04-.964a.365.365 0 0 1 .137-.717zm40.354-.544a.365.365 0 0 1-.29.427l-4.965.95a.365.365 0 0 1-.136-.718l4.965-.95c.2-.037.389.093.426.29zM5.345 26.867l6.58 1.258a.366.366 0 0 1-.137.718l-6.58-1.259a.365.365 0 0 1 .137-.717zm13.76.85l.458.149a.365.365 0 0 1-.225.694l-.457-.148a.365.365 0 0 1 .225-.695zm33.928-2.097a.365.365 0 0 1-.234.46l-7.613 2.48a.365.365 0 0 1-.225-.694l7.613-2.48a.365.365 0 0 1 .459.234zm7.624 1.336a.364.364 0 0 1-.29.427l-3.78.723a.365.365 0 0 1-.136-.717l3.78-.723c.2-.038.389.092.426.29zM8.86 24.379l8.613 2.806a.365.365 0 0 1-.225.694l-8.613-2.806a.365.365 0 0 1 .226-.694zm4.106-1.5l6.64 3.133a.365.365 0 0 1-.309.661l-6.641-3.133a.365.365 0 0 1 .31-.661zm43.21-1.775c.086.183.008.4-.174.486l-10.773 5.083a.365.365 0 0 1-.31-.661l10.773-5.082a.363.363 0 0 1 .484.174zm5.875 1.579a.365.365 0 0 1-.234.46l-7.45 2.427a.364.364 0 0 1-.459-.235.366.366 0 0 1 .234-.46l7.45-2.427a.366.366 0 0 1 .46.235zm-14.918.242a.367.367 0 0 1-.113.504l-1.844 1.174a.362.362 0 0 1-.502-.113.365.365 0 0 1 .112-.504l1.844-1.173a.363.363 0 0 1 .503.112zm-45.154-.788l5.515 1.797a.365.365 0 0 1-.225.694l-5.515-1.796a.365.365 0 0 1 .225-.695zm15.625.49l2.115 1.346a.367.367 0 0 1-.195.674.368.368 0 0 1-.195-.057l-2.116-1.347a.365.365 0 0 1 .391-.616zm-12.825-3.61l6.65 3.137a.366.366 0 0 1-.155.696.372.372 0 0 1-.155-.035l-6.65-3.138a.365.365 0 0 1 .31-.661zm44.622-.845a.366.366 0 0 1-.049.514l-4.79 3.974a.363.363 0 0 1-.513-.049.366.366 0 0 1 .048-.514l4.791-3.974a.364.364 0 0 1 .513.049zm-36.346-2.19l7.373 6.114c.155.129.177.36.049.515a.364.364 0 0 1-.513.048l-7.373-6.115a.366.366 0 0 1-.048-.514.362.362 0 0 1 .512-.049zm39.414 3.548a.366.366 0 0 1-.112.504l-4.008 2.55a.363.363 0 0 1-.502-.113.365.365 0 0 1 .112-.504l4.007-2.55a.364.364 0 0 1 .503.113zm-38.797.595l2.698 1.717a.365.365 0 0 1-.39.616l-2.698-1.717a.365.365 0 0 1 .39-.616zm3.96-3.893l4.1 4.377a.366.366 0 0 1-.266.615.362.362 0 0 1-.265-.115l-4.1-4.378a.364.364 0 1 1 .531-.499zm26.115 3.893c.147.138.154.37.016.516l-.437.468a.366.366 0 0 1-.516.016.366.366 0 0 1-.015-.516l.437-.468a.364.364 0 0 1 .515-.016zm17.764-1.538c.086.183.008.4-.174.486L57.461 20.9a.365.365 0 0 1-.31-.66l3.875-1.829a.363.363 0 0 1 .484.175zm-18.436-1.121c.163.118.2.346.081.51l-1.527 2.106a.36.36 0 0 1-.295.15.365.365 0 0 1-.294-.579l1.527-2.107a.362.362 0 0 1 .508-.08zm-20.808.505l1.218 1.682a.365.365 0 1 1-.589.429L21.677 18.4a.364.364 0 1 1 .589-.43zm2.94-4.712l2.322 6.148a.365.365 0 0 1-.677.27l-2.322-6.149a.365.365 0 0 1 .678-.269zm3.165 2.466l.954 3.726a.365.365 0 0 1-.705.182l-.954-3.726a.364.364 0 1 1 .705-.182zm13.765-8.343a.366.366 0 0 1 .205.474l-4.668 11.82a.365.365 0 0 1-.677-.269l4.667-11.82a.364.364 0 0 1 .473-.205zM20.29 9.792l5.249 9.573a.367.367 0 0 1-.319.541.364.364 0 0 1-.32-.19l-5.248-9.572a.364.364 0 1 1 .638-.351zm16.215 6.03c.195.05.312.249.262.444l-.862 3.366a.364.364 0 1 1-.705-.181l.862-3.366a.363.363 0 0 1 .443-.263zm-4.242 2.4c.201 0 .364.164.364.366v.954a.365.365 0 1 1-.728 0v-.954c0-.202.163-.365.364-.365zM43.19 12.44c.177.097.24.32.144.496l-3.709 6.781a.363.363 0 1 1-.638-.351l3.709-6.782a.365.365 0 0 1 .494-.144zm-7.56-6.775c.2.025.34.208.316.408l-1.703 13.514a.365.365 0 0 1-.361.32l-.046-.003a.366.366 0 0 1-.316-.408L35.222 5.98a.364.364 0 0 1 .407-.316zm-5.347 8.092l.723 5.731a.365.365 0 0 1-.362.411.364.364 0 0 1-.36-.32l-.723-5.73a.364.364 0 1 1 .722-.092zm-21.21 3.441L12 19.062a.365.365 0 0 1-.391.617L8.68 17.815a.365.365 0 0 1 .39-.617zm41.604-4.471a.367.367 0 0 1 .016.516l-5.53 5.903a.36.36 0 0 1-.515.016.365.365 0 0 1-.015-.515l5.529-5.904a.363.363 0 0 1 .515-.016zm5.81 4.247a.367.367 0 0 1-.113.504l-2.715 1.727a.364.364 0 1 1-.39-.617l2.715-1.727a.362.362 0 0 1 .502.113zm-.769-4.042a.366.366 0 0 1-.048.514l-4.655 3.86a.36.36 0 0 1-.512-.048.364.364 0 0 1 .048-.514l4.655-3.86a.36.36 0 0 1 .512.048zm-36.682.58l2.302 3.176a.366.366 0 0 1-.59.43l-2.302-3.177a.365.365 0 1 1 .59-.43zm13.227-3.34c.201 0 .364.163.364.364v6.28a.365.365 0 1 1-.728 0v-6.28c0-.201.163-.365.364-.365zm14.956 1.576a.367.367 0 0 1 .08.51l-3.3 4.554a.36.36 0 0 1-.295.15.366.366 0 0 1-.294-.579l3.3-4.554a.364.364 0 0 1 .509-.081zm-36.57-2.971l5.798 6.19a.366.366 0 0 1-.266.615.366.366 0 0 1-.265-.115l-5.797-6.19a.366.366 0 0 1 .016-.516.363.363 0 0 1 .515.016zm-2.78 2.902l3.432 2.847a.366.366 0 0 1-.232.646.363.363 0 0 1-.232-.083l-3.432-2.847a.366.366 0 0 1-.049-.514.363.363 0 0 1 .513-.049zm19.03-1.709l1.095 4.277a.365.365 0 0 1-.706.182l-1.095-4.277a.363.363 0 1 1 .705-.182zm11.228-.483c.195.05.312.249.262.444l-1.128 4.406a.363.363 0 1 1-.705-.182l1.128-4.405a.363.363 0 0 1 .443-.263zM15.991 9.31l2.161 2.983a.367.367 0 0 1-.294.58.364.364 0 0 1-.295-.151L15.4 9.74a.365.365 0 1 1 .59-.429zm38.399-.55a.365.365 0 0 1 .016.516l-2.413 2.576a.362.362 0 0 1-.515.016.367.367 0 0 1-.016-.516l2.413-2.576a.363.363 0 0 1 .515-.016zM20.835 2.457l3.597 8.767a.366.366 0 0 1-.338.499.367.367 0 0 1-.34-.23l-3.596-8.767a.365.365 0 1 1 .677-.269zm7.873-1.194l1.235 9.8a.365.365 0 0 1-.316.408c-.015.001-.03.003-.046.003a.364.364 0 0 1-.36-.32l-1.236-9.8a.365.365 0 1 1 .723-.091zm19.127 2.722c.176.098.24.32.143.496l-3.593 6.536a.365.365 0 0 1-.494.144.367.367 0 0 1-.144-.496L47.34 4.13a.366.366 0 0 1 .495-.144zm1.899 4.29a.365.365 0 0 1 .08.51l-1.424 1.966a.363.363 0 0 1-.508.08.365.365 0 0 1-.081-.51l1.424-1.965a.363.363 0 0 1 .509-.08zm-17.472-6.33c.201 0 .364.164.364.366v6.493a.364.364 0 1 1-.728 0V2.311c0-.202.163-.365.364-.365zm7.353 1.73c.194.05.312.248.262.444l-1.13 4.415a.366.366 0 0 1-.444.263.365.365 0 0 1-.262-.444l1.13-4.416a.364.364 0 0 1 .444-.263zm-21.93 1.367l1.583 2.888a.366.366 0 0 1-.319.541.366.366 0 0 1-.32-.189l-1.583-2.888a.366.366 0 0 1 .144-.496.363.363 0 0 1 .494.144zm8.109.618l.534 2.086a.365.365 0 1 1-.705.181l-.535-2.085a.365.365 0 0 1 .706-.182zm17.8-1.972c.187.075.28.287.205.474l-.64 1.623a.365.365 0 0 1-.678-.269l.641-1.623a.364.364 0 0 1 .473-.205zM36.315.232c.199.025.34.208.315.408l-.433 3.434a.364.364 0 1 1-.722-.092l.433-3.434a.363.363 0 0 1 .406-.316zm74.722 76.902c-.03-.76-.272-1.37-.728-1.83-.457-.459-1.063-.688-1.82-.688-.713 0-1.308.226-1.786.677-.478.452-.781 1.066-.91 1.84h5.244zm1.544-3.213c.947 1.064 1.42 2.545 1.42 4.444 0 .34-.008.603-.02.787h-8.12c.182.723.533 1.286 1.052 1.69.519.404 1.142.606 1.872.606.532 0 1.044-.102 1.536-.308.49-.206.932-.507 1.325-.904l1.703 1.744a5.729 5.729 0 0 1-2.093 1.499c-.82.347-1.735.521-2.744.521-1.193 0-2.233-.241-3.124-.723a5.04 5.04 0 0 1-2.06-2.042c-.485-.878-.727-1.892-.727-3.04 0-1.162.246-2.186.737-3.072a5.185 5.185 0 0 1 2.061-2.063c.883-.489 1.893-.733 3.029-.733 1.822 0 3.207.531 4.153 1.594zm-13.127-1.026c.639-.364 1.384-.554 2.235-.568v3.05a4.853 4.853 0 0 0-.51-.02c-1.009 0-1.807.27-2.396.81-.59.54-.883 1.258-.883 2.156v5.448h-3.28V72.453h3.28v2.04c.396-.7.914-1.233 1.553-1.598zm-7.797-.568v11.317h-3.244v-1.998c-.777 1.417-2.049 2.125-3.815 2.125-1.258 0-2.258-.39-3-1.168-.742-.778-1.113-1.833-1.113-3.166v-7.11h3.265v6.185c0 .715.19 1.276.572 1.682.382.407.904.61 1.569.61.777-.013 1.392-.287 1.845-.82.451-.533.677-1.22.677-2.061v-5.596h3.244zM78.888 83.215c-.427.254-.901.45-1.421.583a6.275 6.275 0 0 1-1.571.202c-1.07 0-1.938-.304-2.608-.912-.67-.608-1.005-1.478-1.005-2.61v-5.281H70.68v-2.249h1.603V69.81h3.27v3.14h3.121v2.27h-3.12v4.708c0 .877.349 1.315 1.047 1.315.484 0 1.019-.14 1.603-.424l.684 2.397zm-13.452.556h3.192V67.978h-3.192v15.793zm-3.42-11.444v11.317h-3.244v-1.998c-.777 1.417-2.049 2.125-3.815 2.125-1.258 0-2.258-.39-3-1.168-.742-.778-1.113-1.833-1.113-3.166v-7.11h3.265v6.185c0 .715.19 1.276.572 1.682.382.407.904.61 1.569.61.777-.013 1.392-.287 1.844-.82.452-.533.678-1.22.678-2.061v-5.596h3.244zm-16.276-.21c-.68-.348-1.364-.521-2.052-.521-.828 0-1.585.205-2.273.616-.687.41-1.228.97-1.62 1.678a4.775 4.775 0 0 0-.59 2.357c0 .864.197 1.654.59 2.368a4.471 4.471 0 0 0 1.62 1.7 4.292 4.292 0 0 0 2.273.626c.66 0 1.33-.159 2.01-.478a6.286 6.286 0 0 0 1.82-1.285l1.958 2.145a8.865 8.865 0 0 1-2.768 1.955c-1.06.481-2.122.722-3.188.722-1.445 0-2.757-.337-3.936-1.01a7.34 7.34 0 0 1-2.778-2.771c-.673-1.175-1.01-2.485-1.01-3.93 0-1.43.344-2.725 1.031-3.886a7.407 7.407 0 0 1 2.83-2.74c1.2-.665 2.53-.998 3.99-.998 1.065 0 2.118.223 3.156.669a7.956 7.956 0 0 1 2.652 1.816l-1.936 2.4a5.594 5.594 0 0 0-1.779-1.434zm63.613-17.938c-.607-.191-1.151-.286-1.631-.286-.396 0-.713.07-.953.211a.692.692 0 0 0-.361.636c0 .31.162.55.487.72.325.17.855.36 1.59.572a16.7 16.7 0 0 1 1.991.71c.522.233.975.58 1.357 1.038.38.46.571 1.063.571 1.811 0 1.13-.434 2.01-1.303 2.638-.868.628-1.98.943-3.337.943-.932 0-1.83-.138-2.69-.414-.862-.275-1.611-.667-2.246-1.175l1.059-2.203a6.668 6.668 0 0 0 1.939 1.048c.713.248 1.388.37 2.023.37.438 0 .788-.073 1.05-.221a.723.723 0 0 0 .39-.668c0-.325-.165-.579-.498-.763-.331-.183-.864-.38-1.6-.593a16.075 16.075 0 0 1-1.938-.678 3.447 3.447 0 0 1-1.324-1.027c-.367-.459-.55-1.056-.55-1.79 0-1.13.423-2.006 1.271-2.627.847-.622 1.92-.932 3.22-.932.776 0 1.554.11 2.33.328a7.769 7.769 0 0 1 2.12.943l-1.123 2.224a9.491 9.491 0 0 0-1.844-.815zm-10.944 0c-.607-.191-1.151-.286-1.63-.286-.396 0-.715.07-.955.211a.693.693 0 0 0-.36.636c0 .31.163.55.488.72.325.17.854.36 1.588.572.806.24 1.469.477 1.992.71.523.233.974.58 1.356 1.038.381.46.572 1.063.572 1.811 0 1.13-.434 2.01-1.303 2.638-.869.628-1.98.943-3.337.943a8.76 8.76 0 0 1-2.69-.414c-.861-.275-1.61-.667-2.246-1.175l1.06-2.203a6.662 6.662 0 0 0 1.938 1.048c.712.248 1.387.37 2.023.37.438 0 .787-.073 1.049-.221a.723.723 0 0 0 .392-.668c0-.325-.167-.579-.498-.763-.333-.183-.866-.38-1.6-.593a16.013 16.013 0 0 1-1.938-.678 3.44 3.44 0 0 1-1.324-1.027c-.367-.459-.551-1.056-.551-1.79 0-1.13.424-2.006 1.27-2.627.848-.622 1.922-.932 3.222-.932a8.6 8.6 0 0 1 2.33.328 7.783 7.783 0 0 1 2.118.943l-1.123 2.224a9.458 9.458 0 0 0-1.843-.815zm-12.64 6.214c.484-.326.774-.738.871-1.235v-1.022h-2.508c-.622 0-1.081.103-1.378.309-.298.206-.446.536-.446.99 0 .44.155.791.466 1.054.311.263.736.394 1.275.394.663 0 1.236-.163 1.72-.49zm.858 2.63V61.69c-.381.48-.877.847-1.485 1.101-.608.255-1.308.382-2.1.382-1.203 0-2.158-.329-2.865-.986-.708-.656-1.061-1.514-1.061-2.574 0-1.073.378-1.91 1.135-2.51.757-.6 1.828-.907 3.215-.922h3.14v-.211c0-.607-.202-1.077-.605-1.41-.403-.33-.994-.497-1.771-.497-1.061 0-2.193.332-3.395.996l-1.019-2.246c.905-.452 1.754-.784 2.546-.996a10.134 10.134 0 0 1 2.61-.317c1.528 0 2.713.36 3.554 1.08.842.72 1.27 1.723 1.284 3.008l.022 7.436h-3.205zm-13.089-3.461c.526-.576.79-1.322.79-2.237 0-.902-.264-1.64-.79-2.216-.527-.576-1.21-.864-2.05-.864-.84 0-1.526.288-2.06.864-.533.576-.8 1.314-.8 2.216 0 .93.267 1.678.8 2.247.534.569 1.22.853 2.06.853.84 0 1.523-.288 2.05-.863zm1.458-7.106c.803.486 1.424 1.172 1.864 2.06.44.886.66 1.907.66 3.061 0 1.14-.217 2.144-.65 3.01-.432.865-1.043 1.538-1.832 2.016-.789.479-1.707.718-2.754.718-.782 0-1.476-.15-2.083-.454a4.193 4.193 0 0 1-1.54-1.32v5.745h-3.225V51.833h3.225v1.668a4.034 4.034 0 0 1 1.519-1.32c.607-.302 1.287-.453 2.042-.453 1.047 0 1.971.242 2.774.728z" fill="#FFFFFE" fill-rule="evenodd" opacity=".5"/></svg>