<svg width="29" height="24" viewBox="0 0 29 24" xmlns="http://www.w3.org/2000/svg"><g fill="#EBB300" fill-rule="nonzero"><path d="M17 9.591c0 .328.375.409.795.409C18.234 10 19 9.864 19 9c-.22.13-.83.136-1.232.186-.403.055-.768.083-.768.405z"/><path d="M10.78 6.613h.57v.558h.025c.3-.45 1.172-.654 1.673-.654 1.26 0 2.003.646 2.003 1.639v2.465h-1.185V8.357c0-.659-.668-.997-1.22-.997-.642 0-1.238.346-1.238 1.16v2.101h-1.186V7.35H8.4v3.272H7.294V7.35h-.492L5 18.997 22.215 22l1.848-11.94c-.411.438-1.057.67-1.856.67-1.451 0-2.429-.853-2.429-2.055 0-1.248.894-2.17 2.457-2.17 1.004 0 1.934.387 2.195 1.183L25 4.003 7.785 1l-.869 5.613h.378v-.31c0-.706.624-1.525 1.987-1.525.908 0 2.03.245 2.03 1.468H10.27c0-.435-.668-.598-.988-.598-.454 0-.882.391-.882.724v.24h2.381zm8.93 4.063h-1.16v-.442c-.427.364-1.108.496-1.707.496-.932 0-1.673-.38-1.673-1.202 0-.907.836-1.124 1.673-1.217.827-.101 1.597-.078 1.597-.527 0-.473-.4-.543-.875-.543-.513 0-.846.17-.893.605h-1.35c.076-1.032 1.127-1.342 2.23-1.342.979 0 2.157.342 2.157 1.303v2.869z"/><path d="M22.03 7C21.257 7 21 7.834 21 8.523c0 .67.247 1.477 1.005 1.477.562 0 .886-.38.963-.952h.882L24 7.807h-1.075C22.848 7.28 22.533 7 22.031 7z"/></g></svg>