<svg width="119" height="40" viewBox="0 0 119 40" fill="none" xmlns="http://www.w3.org/2000/svg">
<path id="icon" d="M38.6662 33.2193C38.0031 33.2193 37.6737 32.8023 37.6737 31.9349V27.3478H40.6261V25.1334H37.6737V22.0684H34.5794V25.1334H33.0657V27.3269H34.5794V32.4854C34.5501 32.9531 34.6196 33.4217 34.7834 33.8607C34.9472 34.2997 35.2017 34.6992 35.5302 35.0334C36.2052 35.6412 37.0915 35.9601 37.9989 35.9216C38.5003 35.9224 38.9995 35.8565 39.4835 35.7256C39.9571 35.6032 40.4097 35.4106 40.8263 35.1543L40.1799 32.8148C39.7138 33.0659 39.1954 33.2044 38.6662 33.2193ZM45.5928 8.89075C44.275 8.89075 43.2547 9.19098 42.5319 9.79148C42.1724 10.0882 41.8873 10.4648 41.699 10.8912C41.5108 11.3177 41.4247 11.7822 41.4476 12.2477C41.4313 12.7125 41.5132 13.1756 41.6878 13.6067C41.8624 14.0378 42.1258 14.4273 42.461 14.7498C43.2068 15.4191 44.1875 15.7655 45.1883 15.7131C45.8737 15.7256 46.5546 15.5994 47.1899 15.342C47.7471 15.1091 48.2353 14.7372 48.6078 14.2619V15.5671H51.6603L51.6311 8.31109C51.6554 7.76144 51.5585 7.21319 51.3474 6.70514C51.1362 6.19709 50.816 5.74167 50.4093 5.37114C49.6045 4.66638 48.4785 4.31192 47.019 4.31192C46.1746 4.30241 45.3329 4.40762 44.5169 4.62469C43.6771 4.86556 42.8639 5.19111 42.0898 5.59633L43.0615 7.794C44.0371 7.19323 45.1524 6.85692 46.2975 6.81818C46.9005 6.77603 47.4989 6.9489 47.9864 7.30608C48.1803 7.47689 48.3329 7.68952 48.4326 7.92791C48.5323 8.16631 48.5765 8.42424 48.5619 8.68223V8.89075H45.5928ZM48.5869 11.7681C48.536 12.0142 48.4359 12.2474 48.2926 12.4538C48.1493 12.6602 47.9657 12.8355 47.7529 12.9691C47.2584 13.2944 46.6766 13.4617 46.0849 13.4487C45.6352 13.4758 45.1909 13.3396 44.8338 13.065C44.6846 12.9402 44.5661 12.7828 44.4873 12.605C44.4085 12.4271 44.3715 12.2336 44.3793 12.0392C44.3611 11.8564 44.3899 11.672 44.4629 11.5035C44.5358 11.3349 44.6506 11.1878 44.7963 11.0759C45.2047 10.8463 45.6717 10.7419 46.1391 10.7756H48.5869V11.7681ZM37.2316 15C37.9993 14.5242 38.6144 13.8382 39.0039 13.0233C39.4368 12.1004 39.6508 11.0901 39.6295 10.0709C39.6501 9.03434 39.4318 8.00696 38.9914 7.06839C38.5986 6.23695 37.9746 5.53624 37.1941 5.05004C36.3858 4.56289 35.4563 4.31424 34.5127 4.33278C33.8305 4.32323 33.1558 4.47617 32.5444 4.77898C31.9528 5.07949 31.4476 5.52585 31.0765 6.07589V4.43703H27.9614V19.5997H31.0765V13.9658C31.4581 14.5117 31.9679 14.9556 32.5611 15.2585C33.1879 15.5641 33.8781 15.717 34.5753 15.7048C35.5096 15.726 36.4307 15.4816 37.2316 15ZM31.8355 12.206C31.3431 11.5697 31.076 10.7879 31.076 9.98332C31.076 9.17876 31.3431 8.39697 31.8355 7.76063C32.0774 7.48252 32.3778 7.2613 32.7152 7.1128C33.0526 6.96429 33.4186 6.89217 33.7871 6.90158C34.154 6.89079 34.5186 6.96237 34.8542 7.11103C35.1897 7.25969 35.4877 7.48166 35.7262 7.76063C36.2102 8.39817 36.4722 9.17661 36.4722 9.97706C36.4722 10.7775 36.2102 11.556 35.7262 12.1935C35.4885 12.4734 35.1907 12.696 34.8549 12.8448C34.5191 12.9935 34.1541 13.0645 33.7871 13.0525C33.4196 13.0635 33.0542 12.9933 32.7168 12.847C32.3795 12.7007 32.0786 12.4818 31.8355 12.206ZM27.9614 35.7631H31.0765V20.3962H27.9614V35.7631ZM71.9898 9.42035C71.3711 9.14867 70.736 8.91608 70.0882 8.72394C69.5657 8.58587 69.0575 8.39878 68.5702 8.16514C68.4326 8.10544 68.3152 8.00708 68.2323 7.88199C68.1494 7.7569 68.1045 7.61045 68.1032 7.46038C68.0984 7.33503 68.1281 7.21076 68.1891 7.10117C68.2502 6.99158 68.3402 6.90089 68.4493 6.83903C68.7285 6.69047 69.0425 6.61988 69.3584 6.63469C69.8896 6.64641 70.4158 6.74068 70.918 6.9141C71.5307 7.11443 72.1194 7.38153 72.6737 7.71059L73.7454 5.53795C73.1217 5.12919 72.4398 4.81707 71.7229 4.61218C71.0006 4.40255 70.2523 4.29586 69.5002 4.29524C68.4035 4.25063 67.3228 4.57029 66.4268 5.20433C66.0298 5.50057 65.7116 5.88969 65.5 6.33756C65.2884 6.78543 65.19 7.27836 65.2133 7.77314C65.1847 8.39837 65.37 9.01468 65.7387 9.52043C66.0677 9.95223 66.4972 10.2972 66.9898 10.5254C67.5919 10.7863 68.2104 11.0077 68.8413 11.1885C69.3786 11.3269 69.8999 11.5211 70.3968 11.7681C70.5381 11.8354 70.6576 11.9411 70.7416 12.0731C70.8257 12.2051 70.8709 12.3581 70.8722 12.5146C70.8776 12.648 70.8453 12.7802 70.7789 12.896C70.7125 13.0119 70.6147 13.1066 70.4968 13.1693C70.1875 13.3266 69.8427 13.4013 69.496 13.3862C68.8365 13.376 68.1835 13.2533 67.5652 13.0233C66.8961 12.7877 66.2716 12.4409 65.7179 11.9975L64.7045 14.1493C65.3401 14.6646 66.0674 15.0551 66.848 15.3003C67.6764 15.5758 68.5437 15.7166 69.4168 15.7173C70.5507 15.7642 71.669 15.4407 72.6028 14.7957C73.0076 14.5025 73.3336 14.1138 73.5519 13.6642C73.7702 13.2145 73.8739 12.7179 73.8538 12.2185C73.8836 11.5822 73.6904 10.9553 73.3075 10.4462C72.9561 10.0043 72.5044 9.65261 71.9898 9.42035ZM59.5336 13.1735C59.2241 13.3304 58.8794 13.4051 58.5327 13.3903C57.8731 13.3809 57.22 13.2581 56.6019 13.0275C55.932 12.791 55.3062 12.4443 54.7504 12.0017L53.7412 14.1535C54.3762 14.6696 55.1037 15.0602 55.8847 15.3044C56.713 15.5803 57.5804 15.7212 58.4535 15.7214C59.5861 15.7684 60.7031 15.4448 61.6353 14.7998C62.0406 14.5072 62.3671 14.1186 62.5854 13.6688C62.8038 13.2191 62.9072 12.7222 62.8863 12.2227C62.9183 11.5861 62.7249 10.9585 62.3401 10.4504C61.9962 10.0142 61.5529 9.66675 61.0473 9.43703C60.4269 9.15798 59.7889 8.91977 59.1374 8.72394C58.616 8.58678 58.1091 8.39965 57.6236 8.16514C57.4853 8.10632 57.3673 8.00818 57.2843 7.88289C57.2012 7.7576 57.1568 7.61069 57.1566 7.46038C57.1517 7.33503 57.1814 7.21076 57.2425 7.10117C57.3035 6.99158 57.3936 6.90089 57.5027 6.83903C57.7815 6.68949 58.0958 6.61884 58.4118 6.63469C58.9416 6.64644 59.4664 6.74071 59.9672 6.9141C60.5815 7.11357 61.1718 7.3807 61.727 7.71059L62.7988 5.53795C62.1747 5.12997 61.4929 4.81791 60.7762 4.61218C60.0538 4.4031 59.3056 4.29641 58.5536 4.29524C57.4568 4.25 56.3759 4.56971 55.4802 5.20433C55.0832 5.50057 54.765 5.88969 54.5534 6.33756C54.3418 6.78543 54.2434 7.27836 54.2667 7.77314C54.238 8.39837 54.4234 9.01468 54.7921 9.52043C55.1199 9.95343 55.5497 10.2987 56.0431 10.5254C56.6441 10.7856 57.2612 11.0071 57.8905 11.1885C58.4194 11.3282 58.9323 11.5224 59.421 11.7681C59.5622 11.8354 59.6818 11.9411 59.7658 12.0731C59.8499 12.2051 59.8951 12.3581 59.8964 12.5146C59.905 12.6446 59.8777 12.7745 59.8174 12.89C59.757 13.0055 59.6661 13.1021 59.5544 13.1693L59.5336 13.1735ZM68.4702 24.5246C67.4516 24.5035 66.4452 24.7494 65.5511 25.2377C64.7116 25.7038 64.024 26.4015 63.5702 27.2477C63.1091 28.1725 62.8691 29.1918 62.8691 30.2252C62.8691 31.2586 63.1091 32.2779 63.5702 33.2027C64.0226 34.0449 64.713 34.7353 65.5552 35.1877C66.4795 35.675 67.5132 35.9176 68.5577 35.8924C69.4615 35.9056 70.3583 35.7339 71.1933 35.3878C71.9668 35.0586 72.6555 34.5581 73.2074 33.9241L71.5686 32.2269C71.2076 32.6021 70.7752 32.9013 70.2967 33.1067C69.8287 33.3061 69.325 33.4083 68.8163 33.407C68.1674 33.4234 67.5327 33.2158 67.019 32.819C66.5054 32.4004 66.1495 31.8195 66.0098 31.1718H73.8121C73.8121 30.9925 73.833 30.7548 73.833 30.4045C73.833 28.553 73.3784 27.1101 72.4693 26.0759C71.5602 25.0417 70.2272 24.5232 68.4702 24.5204V24.5246ZM65.9431 29.2869C66.0272 28.6179 66.3291 27.9951 66.8021 27.5146C67.0263 27.2994 67.2911 27.1311 67.5811 27.0194C67.8711 26.9077 68.1804 26.8549 68.491 26.864C68.8077 26.8496 69.1239 26.9011 69.4197 27.0152C69.7154 27.1293 69.9842 27.3037 70.2091 27.5271C70.6555 28.0038 70.9019 28.6338 70.8972 29.2869H65.9431ZM49.9464 30.1209C49.9775 30.853 49.7485 31.5724 49.3 32.1518C49.0874 32.4114 48.8184 32.6192 48.5135 32.7593C48.2086 32.8995 47.8757 32.9684 47.5402 32.9608C47.2621 32.9748 46.9843 32.9284 46.7258 32.8248C46.4674 32.7211 46.2345 32.5626 46.0431 32.3603C45.6553 31.8941 45.4599 31.2975 45.4969 30.6922V24.6205H42.3859V31.6222C42.323 32.7597 42.7026 33.8774 43.4451 34.7414C43.812 35.1264 44.2573 35.428 44.7508 35.6258C45.2444 35.8237 45.7747 35.9132 46.3059 35.8882C47.9906 35.8882 49.2041 35.1932 49.9464 33.8032V35.7673H53.0406V24.6205H49.9631L49.9464 30.1209ZM58.7037 26.6222V24.6122H55.5928V35.7548H58.7037V30.4003C58.6846 30.0077 58.749 29.6154 58.8928 29.2495C59.0366 28.8836 59.2564 28.5523 59.5377 28.2777C60.1607 27.7231 60.9775 27.4369 61.8104 27.4812C61.972 27.4794 62.1334 27.4863 62.2942 27.5021V24.4954C61.5497 24.495 60.818 24.6891 60.1716 25.0584C59.5449 25.4388 59.0332 25.9821 58.6912 26.6305L58.7037 26.6222ZM22.24 30.1209C22.2729 30.8532 22.0437 31.5733 21.5936 32.1518C21.3811 32.4116 21.1122 32.6196 20.8072 32.7598C20.5023 32.8999 20.1694 32.9687 19.8338 32.9608C19.5563 32.9748 19.2791 32.9283 19.0213 32.8247C18.7636 32.721 18.5314 32.5625 18.3409 32.3603C17.953 31.8941 17.7576 31.2975 17.7946 30.6922V24.6205H14.6795V31.6222C14.6182 32.7602 14.9992 33.8779 15.7429 34.7414C16.1096 35.1266 16.5548 35.4283 17.0484 35.6262C17.542 35.8241 18.0724 35.9134 18.6036 35.8882C20.2883 35.8882 21.5005 35.1932 22.24 33.8032V35.7673H25.3342V24.6205H22.24V30.1209ZM9.5127 32.5438C8.91273 32.8435 8.25256 33.0032 7.58193 33.0108C6.81151 33.0175 6.05509 32.8049 5.40095 32.3978C4.74074 31.9919 4.202 31.4157 3.84131 30.7298C3.46268 30.0192 3.26907 29.2246 3.27834 28.4195C3.26847 27.6183 3.46218 26.8277 3.84131 26.1218C4.20556 25.446 4.74409 24.8802 5.40095 24.4829C6.05916 24.0871 6.81389 23.8807 7.58193 23.8866C8.27057 23.8926 8.94746 24.0658 9.55441 24.3912C10.2131 24.7361 10.7949 25.2114 11.2642 25.7882L13.124 23.4487C11.9374 22.1986 10.369 21.3782 8.6654 21.1163C6.96179 20.8544 5.21943 21.1658 3.71204 22.0017C2.58082 22.6287 1.64109 23.5512 0.993108 24.6706C0.326416 25.8215 -0.01653 27.1313 0.000612566 28.4612C-0.0162163 29.8017 0.318805 31.1231 0.97225 32.2936C1.59954 33.4203 2.5223 34.3546 3.64115 34.9958C4.79122 35.6562 6.09736 35.9961 7.42346 35.98C8.48308 35.9723 9.52805 35.7317 10.4843 35.2752C11.4857 34.8173 12.3891 34.1702 13.1449 33.3695L11.2642 31.2844C10.7599 31.805 10.1668 32.2315 9.5127 32.5438ZM8.59944 11.1093H10.2675C10.4332 11.1094 10.5989 11.1011 10.7637 11.0842L12.1774 13.0734H12.8947L11.3809 10.9508C11.8042 10.837 12.1757 10.5817 12.4337 10.2274C12.6916 9.87305 12.8205 9.44108 12.7988 9.00333C12.8129 8.70963 12.7594 8.4166 12.6422 8.14689C12.5251 7.87719 12.3475 7.63802 12.1232 7.44787C11.5928 7.04219 10.9341 6.84089 10.2675 6.88073H7.9489V13.0734H8.60362L8.59944 11.1093ZM8.59944 7.44787H10.2467C10.7493 7.41917 11.2463 7.56664 11.652 7.86489C11.8164 8.00713 11.946 8.18528 12.0306 8.38558C12.1152 8.58588 12.1526 8.80296 12.1399 9.02002C12.1519 9.23517 12.1141 9.45019 12.0295 9.64837C11.9449 9.84654 11.8157 10.0225 11.652 10.1626C11.2473 10.4628 10.7496 10.6105 10.2467 10.5796H8.59944V7.44787ZM1.45599 11.1176H3.12404C3.79045 11.156 4.44907 10.9582 4.98394 10.5588C5.19571 10.3588 5.36442 10.1177 5.47973 9.85027C5.59504 9.5828 5.65452 9.2946 5.65452 9.00333C5.65452 8.71207 5.59504 8.42387 5.47973 8.15641C5.36442 7.88894 5.19571 7.64784 4.98394 7.44787C4.45188 7.04224 3.79191 6.841 3.12404 6.88073H0.805447V13.0734H1.46016L1.45599 11.1176ZM1.45599 7.44787H3.1032C3.60589 7.41917 4.10286 7.56664 4.50853 7.86489C4.67299 8.00713 4.80253 8.18528 4.88713 8.38558C4.97173 8.58588 5.00914 8.80296 4.99645 9.02002C5.00585 9.2318 4.96678 9.44293 4.88223 9.63733C4.79768 9.83173 4.66987 10.0043 4.50853 10.1418C4.10286 10.44 3.60589 10.5875 3.1032 10.5588H1.46434L1.45599 7.44787ZM16.26 12.7148C16.7709 12.995 17.3454 13.1386 17.928 13.1318C18.511 13.1409 19.0861 12.9971 19.5961 12.7148C20.0792 12.4524 20.4815 12.0631 20.7596 11.5888C21.0357 11.095 21.1807 10.5387 21.1807 9.9729C21.1807 9.40712 21.0357 8.85078 20.7596 8.35696C20.4815 7.88272 20.0792 7.49341 19.5961 7.23102C19.082 6.95968 18.5094 6.81787 17.928 6.81787C17.3467 6.81787 16.7741 6.95968 16.26 7.23102C15.7748 7.4921 15.3709 7.88163 15.0924 8.35696C14.8162 8.84926 14.6712 9.40426 14.6712 9.96872C14.6712 10.5332 14.8162 11.0882 15.0924 11.5805C15.372 12.06 15.779 12.4526 16.2683 12.7148H16.26ZM15.6553 8.66138C15.8788 8.27587 16.2032 7.95866 16.5936 7.74395C17.0023 7.51968 17.4619 7.40476 17.928 7.41034C18.3915 7.40488 18.8484 7.51983 19.2541 7.74395C19.6431 7.9578 19.965 8.2754 20.1841 8.66138C20.4031 9.06533 20.5178 9.51756 20.5178 9.97706C20.5178 10.4366 20.4031 10.8888 20.1841 11.2927C19.965 11.6787 19.6431 11.9963 19.2541 12.2102C18.8484 12.4343 18.3915 12.5492 17.928 12.5438C17.4619 12.5494 17.0023 12.4344 16.5936 12.2102C16.2032 11.9955 15.8788 11.6782 15.6553 11.2927C15.4338 10.8896 15.3176 10.4371 15.3176 9.97706C15.3176 9.51705 15.4338 9.0645 15.6553 8.66138ZM86.6019 19.6497L91.4268 19.9541H91.4518C91.5424 19.9474 91.6272 19.9073 91.69 19.8417C91.7527 19.776 91.7888 19.6894 91.7914 19.5986C91.794 19.5079 91.7629 19.4194 91.704 19.3502C91.6451 19.2811 91.5627 19.2362 91.4727 19.2244L86.6603 18.9032C86.5685 18.9054 86.4808 18.9419 86.4146 19.0056C86.3484 19.0693 86.3085 19.1554 86.3027 19.2471C86.2969 19.3388 86.3258 19.4293 86.3835 19.5007C86.4412 19.5722 86.5236 19.6194 86.6145 19.633L86.6019 19.6497ZM91.4518 18.1776C91.5285 18.1779 91.6034 18.1538 91.6656 18.1089C91.7278 18.0639 91.7741 18.0004 91.7979 17.9274C91.8283 17.8351 91.8207 17.7345 91.7769 17.6477C91.7331 17.5609 91.6567 17.4951 91.5644 17.4646L84.4084 15.1418C84.363 15.127 84.3151 15.1213 84.2674 15.125C84.2198 15.1288 84.1733 15.1419 84.1307 15.1635C84.0881 15.1852 84.0502 15.2151 84.0192 15.2514C83.9881 15.2878 83.9645 15.3299 83.9497 15.3753C83.9349 15.4208 83.9293 15.4687 83.933 15.5163C83.9367 15.564 83.9498 15.6104 83.9715 15.653C83.9932 15.6956 84.023 15.7335 84.0594 15.7646C84.0957 15.7956 84.1378 15.8192 84.1833 15.834L91.3392 18.161C91.3765 18.167 91.4145 18.167 91.4518 18.161V18.1776ZM104.713 13.1068C104.644 13.0385 104.551 13.0002 104.454 13.0002C104.357 13.0002 104.265 13.0385 104.196 13.1068L103.649 13.6822C103.601 13.7344 103.568 13.7997 103.556 13.87C103.544 13.9403 103.553 14.0126 103.581 14.0781C103.609 14.1436 103.656 14.1994 103.716 14.2387C103.775 14.278 103.845 14.2991 103.916 14.2994C103.967 14.2997 104.016 14.2895 104.062 14.2693C104.108 14.2492 104.149 14.2197 104.183 14.1827L104.725 13.6072C104.759 13.5726 104.785 13.5317 104.803 13.4868C104.82 13.442 104.829 13.3941 104.827 13.346C104.826 13.2979 104.816 13.2505 104.796 13.2065C104.776 13.1626 104.748 13.123 104.713 13.0901V13.1068ZM112.011 15.5338C111.98 15.4415 111.914 15.3651 111.827 15.3213C111.741 15.2775 111.64 15.2699 111.548 15.3003L104.875 17.4646C104.783 17.4951 104.707 17.5609 104.663 17.6477C104.619 17.7345 104.612 17.8351 104.642 17.9274C104.666 18.0004 104.712 18.0639 104.774 18.1089C104.837 18.1538 104.911 18.1779 104.988 18.1776C105.025 18.1837 105.063 18.1837 105.101 18.1776L111.773 16.0133C111.822 15.998 111.868 15.9727 111.907 15.9389C111.946 15.9051 111.978 15.8636 112 15.8171C112.022 15.7705 112.035 15.7198 112.037 15.6682C112.038 15.6166 112.03 15.5651 112.011 15.5171V15.5338ZM104.642 15.9508C104.667 15.9916 104.701 16.0269 104.74 16.0547C104.779 16.0825 104.824 16.1022 104.871 16.1127C104.918 16.1232 104.966 16.1242 105.014 16.1158C105.061 16.1073 105.106 16.0895 105.147 16.0634L114.413 10.1793C114.453 10.1539 114.488 10.1207 114.516 10.0816C114.544 10.0426 114.563 9.99847 114.574 9.95181C114.585 9.90515 114.586 9.85685 114.578 9.80967C114.57 9.76249 114.553 9.71733 114.527 9.67681C114.502 9.63628 114.469 9.60118 114.43 9.57348C114.391 9.54579 114.346 9.52605 114.3 9.5154C114.206 9.49389 114.107 9.5107 114.025 9.56213L104.755 15.4462C104.679 15.4973 104.625 15.575 104.604 15.6639C104.584 15.7528 104.597 15.8463 104.642 15.9258V15.9508ZM113.262 15.1376C113.285 15.2106 113.332 15.2741 113.394 15.319C113.456 15.364 113.531 15.3881 113.608 15.3878C113.645 15.3939 113.683 15.3939 113.72 15.3878L116.277 14.5538C116.322 14.5391 116.364 14.5156 116.401 14.4846C116.437 14.4536 116.467 14.4156 116.489 14.373C116.511 14.3304 116.524 14.2839 116.527 14.2362C116.531 14.1885 116.525 14.1405 116.51 14.0951C116.481 14.003 116.416 13.9263 116.33 13.8818C116.244 13.8373 116.144 13.8285 116.051 13.8574L113.495 14.6914C113.411 14.7209 113.341 14.7801 113.298 14.8577C113.255 14.9353 113.242 15.026 113.262 15.1126V15.1376ZM89.9089 24.3119C89.962 24.3107 90.0143 24.2994 90.0632 24.2786L91.6019 23.553C91.6452 23.5327 91.684 23.5041 91.7163 23.4688C91.7485 23.4336 91.7734 23.3923 91.7897 23.3474C91.806 23.3024 91.8132 23.2548 91.8111 23.207C91.8089 23.1593 91.7973 23.1125 91.7771 23.0692C91.7568 23.026 91.7282 22.9871 91.693 22.9549C91.6577 22.9227 91.6164 22.8977 91.5715 22.8815C91.5266 22.8652 91.4789 22.8579 91.4312 22.8601C91.3834 22.8623 91.3366 22.8738 91.2933 22.8941L89.7504 23.6155C89.6626 23.6571 89.5948 23.7318 89.5619 23.8232C89.5291 23.9147 89.5339 24.0155 89.5752 24.1034C89.6113 24.1593 89.6616 24.2046 89.721 24.2346C89.7803 24.2647 89.8466 24.2784 89.913 24.2744L89.9089 24.3119ZM101.769 13.5822C101.823 13.6114 101.883 13.6271 101.944 13.628C102.01 13.6278 102.074 13.6098 102.131 13.5761C102.187 13.5423 102.234 13.494 102.265 13.4362L104.429 9.49541C104.476 9.4108 104.487 9.31121 104.46 9.21854C104.433 9.12586 104.37 9.0477 104.285 9.00125C104.201 8.95479 104.101 8.94386 104.009 8.97084C103.916 8.99782 103.838 9.06051 103.791 9.14512L101.623 13.0859C101.588 13.1676 101.584 13.2591 101.612 13.3434C101.639 13.4277 101.697 13.4992 101.773 13.5446L101.769 13.5822ZM104.888 7.90658C104.941 7.93773 105.002 7.9536 105.063 7.95246C105.129 7.95306 105.193 7.93595 105.25 7.90291C105.306 7.86987 105.353 7.82215 105.384 7.7648L107.995 3.01084C108.018 2.96902 108.033 2.92293 108.039 2.87526C108.045 2.82758 108.041 2.77926 108.028 2.7331C108.014 2.68695 107.992 2.64387 107.962 2.60636C107.932 2.56885 107.895 2.53766 107.853 2.51459C107.768 2.46814 107.669 2.45697 107.576 2.48351C107.483 2.51006 107.404 2.57217 107.357 2.65638L104.742 7.41034C104.706 7.4919 104.702 7.58371 104.73 7.66829C104.757 7.75286 104.815 7.82431 104.892 7.86905L104.888 7.90658ZM96.1307 13.3528C96.1504 13.4318 96.196 13.5019 96.2603 13.5518C96.3246 13.6017 96.4038 13.6286 96.4852 13.628H96.5769C96.6708 13.6035 96.7512 13.5428 96.8004 13.4592C96.8496 13.3755 96.8637 13.2758 96.8396 13.1818L93.8913 1.70975C93.8796 1.66348 93.8588 1.61998 93.8302 1.58173C93.8016 1.54349 93.7658 1.51124 93.7247 1.48685C93.6837 1.46245 93.6382 1.44638 93.591 1.43955C93.5437 1.43272 93.4956 1.43527 93.4493 1.44704C93.403 1.45881 93.3595 1.47958 93.3213 1.50817C93.283 1.53676 93.2508 1.5726 93.2264 1.61365C93.202 1.65469 93.1859 1.70014 93.1791 1.7474C93.1723 1.79466 93.1748 1.8428 93.1866 1.88907L96.1307 13.3528ZM99.8839 13.6155H99.9756C100.057 13.616 100.136 13.5892 100.2 13.5393C100.265 13.4894 100.31 13.4193 100.33 13.3403L103.087 2.55212C103.104 2.46067 103.086 2.3661 103.036 2.28755C102.986 2.20899 102.908 2.15232 102.818 2.129C102.728 2.10568 102.632 2.11746 102.55 2.16195C102.469 2.20644 102.407 2.28032 102.378 2.36864L99.6086 13.1485C99.5894 13.2401 99.6059 13.3355 99.6547 13.4154C99.7035 13.4952 99.781 13.5534 99.8713 13.578L99.8839 13.6155ZM102.803 26.3303C102.725 26.3871 102.672 26.4723 102.657 26.5675C102.641 26.6628 102.664 26.7603 102.72 26.839L104.667 29.5204C104.701 29.5667 104.746 29.6044 104.797 29.6304C104.849 29.6565 104.905 29.6702 104.963 29.6706C105.041 29.6715 105.117 29.6465 105.18 29.5997C105.257 29.5422 105.309 29.4567 105.324 29.3615C105.339 29.2663 105.315 29.1691 105.259 29.0909L103.312 26.4095C103.287 26.3672 103.253 26.3304 103.213 26.3015C103.174 26.2725 103.128 26.2519 103.08 26.241C103.032 26.2301 102.983 26.229 102.934 26.2379C102.886 26.2468 102.84 26.2655 102.799 26.2927L102.803 26.3303ZM110.209 7.6397C110.259 7.64052 110.309 7.63052 110.355 7.61037C110.401 7.59023 110.442 7.5604 110.476 7.52293L112.415 5.43786C112.483 5.36983 112.521 5.27758 112.521 5.1814C112.521 5.08521 112.483 4.99297 112.415 4.92494C112.346 4.85669 112.253 4.81839 112.157 4.81839C112.06 4.81839 111.967 4.85669 111.898 4.92494L109.963 7.01001C109.895 7.07804 109.857 7.17028 109.857 7.26647C109.857 7.36265 109.895 7.4549 109.963 7.52293C110.032 7.57735 110.117 7.60545 110.205 7.60217L110.209 7.6397ZM105.343 12.4604C105.41 12.525 105.5 12.5609 105.593 12.5605C105.643 12.5595 105.692 12.5487 105.738 12.5287C105.784 12.5087 105.825 12.4798 105.86 12.4437L109.262 8.81985C109.32 8.74773 109.348 8.65653 109.342 8.56444C109.335 8.47235 109.294 8.38614 109.227 8.32299C109.159 8.25985 109.071 8.22442 108.978 8.22375C108.886 8.22309 108.797 8.25726 108.729 8.31943L105.326 11.9433C105.27 12.0114 105.241 12.0974 105.243 12.1854C105.245 12.2734 105.279 12.3577 105.338 12.4229L105.343 12.4604ZM104.846 23.553L111.827 26.839C111.875 26.8619 111.928 26.8733 111.981 26.8724C112.064 26.8717 112.144 26.8431 112.208 26.7913C112.273 26.7395 112.318 26.6674 112.336 26.5869C112.354 26.5063 112.345 26.4219 112.309 26.3473C112.274 26.2727 112.214 26.2124 112.14 26.176L105.155 22.8941C105.112 22.8738 105.065 22.8623 105.017 22.8601C104.969 22.8579 104.922 22.8652 104.877 22.8815C104.832 22.8977 104.791 22.9227 104.755 22.9549C104.72 22.9871 104.691 23.026 104.671 23.0692C104.651 23.1125 104.639 23.1593 104.637 23.207C104.635 23.2548 104.642 23.3024 104.659 23.3474C104.675 23.3923 104.7 23.4336 104.732 23.4688C104.764 23.5041 104.803 23.5327 104.846 23.553ZM91.8146 21.2594C91.7963 21.1662 91.7427 21.0838 91.6649 21.0294C91.5872 20.9749 91.4914 20.9528 91.3976 20.9675L80.4093 23.0525C80.3164 23.0708 80.2343 23.1246 80.1806 23.2025C80.1268 23.2804 80.1056 23.3762 80.1215 23.4696C80.1378 23.5532 80.1823 23.6286 80.2476 23.6833C80.3129 23.7379 80.395 23.7685 80.4802 23.7698H80.5469L91.5352 21.6847C91.585 21.6747 91.6321 21.6544 91.6735 21.6251C91.7149 21.5958 91.7497 21.5581 91.7757 21.5144C91.8016 21.4708 91.8181 21.4222 91.8241 21.3718C91.8301 21.3214 91.8254 21.2703 91.8104 21.2218L91.8146 21.2594ZM88.2825 24.3119L84.3167 26.176C84.2425 26.2124 84.1828 26.2727 84.1472 26.3473C84.1116 26.4219 84.1022 26.5063 84.1205 26.5869C84.1388 26.6674 84.1838 26.7395 84.2482 26.7913C84.3126 26.8431 84.3925 26.8717 84.4752 26.8724C84.5285 26.8733 84.5813 26.8619 84.6295 26.839L88.5953 24.9708C88.6385 24.9503 88.6773 24.9214 88.7094 24.8859C88.7416 24.8504 88.7663 24.8089 88.7824 24.7637C88.7985 24.7186 88.8055 24.6708 88.8031 24.623C88.8007 24.5751 88.7889 24.5282 88.7683 24.485C88.7478 24.4417 88.7189 24.4029 88.6834 24.3708C88.6479 24.3387 88.6064 24.3139 88.5613 24.2978C88.5161 24.2818 88.4683 24.2747 88.4205 24.2772C88.3727 24.2796 88.3258 24.2914 88.2825 24.3119ZM92.2692 14.2243C92.3035 14.2604 92.345 14.2891 92.3909 14.3084C92.4368 14.3278 92.4862 14.3375 92.536 14.3369C92.6291 14.3365 92.7186 14.3007 92.7863 14.2369C92.8542 14.1688 92.8924 14.0766 92.8924 13.9804C92.8924 13.8842 92.8542 13.792 92.7863 13.7239L86.114 6.63469C86.0458 6.57252 85.9566 6.53835 85.8643 6.53901C85.772 6.53968 85.6833 6.57511 85.6159 6.63826C85.5486 6.70141 85.5075 6.78762 85.5009 6.87971C85.4943 6.9718 85.5226 7.06299 85.5803 7.13511L92.2692 14.2243ZM93.5994 11.6138C93.557 11.6366 93.5195 11.6675 93.4891 11.7048C93.4587 11.7422 93.4361 11.7852 93.4225 11.8314C93.4089 11.8776 93.4047 11.926 93.41 11.9738C93.4153 12.0217 93.4301 12.068 93.4535 12.1101L94.1666 13.3945C94.1982 13.4518 94.2447 13.4996 94.3012 13.5326C94.3578 13.5656 94.4222 13.5828 94.4877 13.5822C94.5485 13.5823 94.6086 13.568 94.6628 13.5405C94.7049 13.5174 94.742 13.4862 94.772 13.4487C94.8019 13.4112 94.8242 13.3681 94.8373 13.3219C94.8505 13.2758 94.8544 13.2275 94.8488 13.1798C94.8432 13.1321 94.8282 13.086 94.8046 13.0442L94.0915 11.7264C94.0692 11.6836 94.0385 11.6457 94.0013 11.6149C93.9641 11.5841 93.9212 11.561 93.8749 11.5471C93.8287 11.5331 93.7802 11.5285 93.7322 11.5335C93.6841 11.5385 93.6376 11.5531 93.5953 11.5763L93.5994 11.6138ZM89.3042 4.55796C89.3356 4.61579 89.382 4.66411 89.4385 4.69785C89.495 4.7316 89.5595 4.74954 89.6253 4.74979C89.6864 4.74838 89.7464 4.73267 89.8004 4.70392C89.8425 4.68085 89.8796 4.64966 89.9096 4.61215C89.9396 4.57464 89.9618 4.53156 89.975 4.4854C89.9882 4.43925 89.9921 4.39093 89.9864 4.34326C89.9808 4.29558 89.9658 4.2495 89.9422 4.20767L88.8955 2.30191C88.8434 2.22773 88.7657 2.17547 88.6773 2.15519C88.589 2.1349 88.4963 2.14804 88.417 2.19206C88.3378 2.23608 88.2776 2.30788 88.2482 2.39361C88.2187 2.47934 88.222 2.57295 88.2575 2.65638L89.3042 4.55796ZM92.6028 10.5588C92.6337 10.6158 92.6795 10.6634 92.7353 10.6964C92.7911 10.7295 92.8549 10.7468 92.9197 10.7465C92.9825 10.7475 93.0444 10.7317 93.099 10.7006C93.1832 10.6532 93.2453 10.5745 93.2719 10.4816C93.2984 10.3887 93.2873 10.2891 93.2408 10.2043L90.6803 5.55046C90.6576 5.508 90.6267 5.47049 90.5893 5.44011C90.552 5.40974 90.509 5.3871 90.4628 5.37351C90.4166 5.35993 90.3682 5.35567 90.3203 5.36099C90.2725 5.36631 90.2262 5.3811 90.1841 5.4045C90.0999 5.45189 90.0378 5.53058 90.0112 5.62349C89.9847 5.71639 89.9958 5.81602 90.0423 5.90075L92.6028 10.5588ZM104.98 19.2452C104.89 19.2571 104.807 19.3019 104.748 19.3711C104.69 19.4402 104.658 19.5287 104.661 19.6195C104.664 19.7103 104.7 19.7969 104.762 19.8625C104.825 19.9282 104.91 19.9682 105.001 19.975H105.009L109.004 19.7206C109.1 19.7145 109.19 19.6705 109.254 19.5981C109.317 19.5258 109.35 19.4311 109.344 19.3349C109.338 19.2386 109.294 19.1488 109.221 19.085C109.149 19.0213 109.054 18.9889 108.958 18.995L104.98 19.2452ZM93.6536 26.3344C93.6151 26.3061 93.5713 26.2856 93.5248 26.2742C93.4784 26.2629 93.4301 26.2608 93.3828 26.2682C93.3355 26.2755 93.2901 26.2922 93.2493 26.3171C93.2085 26.3421 93.173 26.3749 93.1449 26.4137L89.1999 31.8349C89.1718 31.8737 89.1516 31.9177 89.1405 31.9643C89.1295 32.0109 89.1278 32.0593 89.1356 32.1066C89.1433 32.1539 89.1604 32.1992 89.1857 32.2399C89.2111 32.2806 89.2443 32.3158 89.2833 32.3436C89.3439 32.3911 89.4191 32.4161 89.496 32.4145C89.5538 32.4152 89.6109 32.4019 89.6625 32.3758C89.714 32.3496 89.7585 32.3114 89.7921 32.2644L93.7371 26.8432C93.772 26.8032 93.7978 26.7559 93.8125 26.7048C93.8272 26.6537 93.8305 26.6 93.8222 26.5475C93.8138 26.4949 93.794 26.4449 93.7642 26.4009C93.7343 26.3569 93.6952 26.3199 93.6495 26.2927L93.6536 26.3344ZM105.084 36.3303C105.067 36.2859 105.04 36.2454 105.007 36.2111C104.974 36.1768 104.935 36.1493 104.891 36.1304C104.847 36.1114 104.8 36.1012 104.752 36.1005C104.705 36.0997 104.657 36.1084 104.613 36.1259C104.523 36.1613 104.451 36.2306 104.412 36.3188C104.373 36.407 104.37 36.507 104.404 36.5972L105.109 38.3778C105.136 38.4466 105.183 38.5057 105.244 38.5474C105.305 38.5891 105.377 38.6114 105.451 38.6113C105.497 38.6121 105.543 38.6021 105.584 38.5821C105.629 38.5651 105.67 38.5393 105.705 38.5063C105.739 38.4732 105.767 38.4335 105.786 38.3896C105.805 38.3457 105.815 38.2984 105.816 38.2505C105.816 38.2027 105.807 38.1552 105.789 38.1109L105.084 36.3303ZM102.398 29.5413C102.358 29.4583 102.287 29.3937 102.201 29.3605C102.115 29.3273 102.019 29.3278 101.933 29.3621C101.847 29.3963 101.777 29.4617 101.738 29.5452C101.698 29.6287 101.691 29.7241 101.719 29.8123L103.674 34.7498C103.716 34.8307 103.786 34.8933 103.871 34.9254C103.956 34.9576 104.05 34.9569 104.135 34.9237C104.22 34.8905 104.289 34.827 104.33 34.7455C104.37 34.6641 104.379 34.5705 104.354 34.4829L102.398 29.5413ZM101.723 27.8357L101.256 26.6347C101.239 26.59 101.213 26.5491 101.18 26.5145C101.147 26.4798 101.107 26.4522 101.063 26.4332C101.019 26.4141 100.972 26.4041 100.924 26.4036C100.876 26.4031 100.829 26.4122 100.785 26.4304C100.695 26.4665 100.623 26.5368 100.584 26.6259C100.546 26.715 100.545 26.8156 100.58 26.9057L101.056 28.1109C101.083 28.178 101.13 28.2355 101.19 28.2762C101.25 28.317 101.321 28.3393 101.393 28.3403C101.44 28.3397 101.487 28.3313 101.531 28.3153C101.619 28.2767 101.688 28.2054 101.724 28.1166C101.76 28.0278 101.759 27.9285 101.723 27.8399V27.8357ZM99.9297 33.4946C99.9781 33.4884 100.025 33.4727 100.067 33.4483C100.109 33.424 100.146 33.3914 100.176 33.3526C100.205 33.3137 100.227 33.2694 100.239 33.2222C100.251 33.175 100.254 33.1258 100.247 33.0776L99.4418 26.7389C99.4397 26.6882 99.427 26.6385 99.4047 26.5929C99.3823 26.5473 99.3508 26.5068 99.312 26.4741C99.2732 26.4413 99.228 26.417 99.1793 26.4025C99.1306 26.3881 99.0795 26.384 99.0291 26.3903C98.9788 26.3967 98.9303 26.4135 98.8867 26.4395C98.8431 26.4656 98.8054 26.5005 98.776 26.5418C98.7466 26.5832 98.7261 26.6303 98.7158 26.68C98.7055 26.7297 98.7056 26.781 98.7162 26.8307L99.521 33.1943C99.5322 33.2828 99.5752 33.3642 99.6419 33.4233C99.7087 33.4824 99.7947 33.5151 99.8839 33.5154L99.9297 33.4946ZM100.059 34.5079C100.011 34.5141 99.9639 34.5298 99.9217 34.5542C99.8795 34.5785 99.8425 34.6111 99.813 34.6499C99.7835 34.6887 99.762 34.7331 99.7498 34.7803C99.7377 34.8275 99.735 34.8767 99.7421 34.9249L100.213 38.6447C100.224 38.7324 100.266 38.8133 100.332 38.8717C100.398 38.9302 100.484 38.9622 100.572 38.9616H100.618C100.666 38.9555 100.713 38.9398 100.755 38.9154C100.797 38.891 100.834 38.8585 100.864 38.8196C100.893 38.7808 100.915 38.7365 100.927 38.6893C100.939 38.642 100.942 38.5929 100.935 38.5446L100.468 34.8249C100.454 34.7295 100.404 34.6433 100.327 34.5848C100.251 34.5263 100.155 34.5002 100.059 34.5121V34.5079ZM98.2241 7.66094e-10C98.1275 -6.2371e-06 98.0348 0.038082 97.9661 0.106003C97.8974 0.173925 97.8582 0.266198 97.8571 0.3628V3.12343C97.8571 3.22076 97.8958 3.3141 97.9646 3.38292C98.0334 3.45174 98.1268 3.49041 98.2241 3.49041C98.3214 3.49041 98.4148 3.45174 98.4836 3.38292C98.5524 3.3141 98.5911 3.22076 98.5911 3.12343V0.3628C98.5889 0.266926 98.5493 0.175716 98.4807 0.108689C98.4121 0.0416615 98.32 0.00414308 98.2241 0.00416785V7.66094e-10ZM117.824 18.3945L110.551 18.8532C110.503 18.8559 110.457 18.8679 110.414 18.8886C110.371 18.9094 110.332 18.9384 110.3 18.974C110.269 19.0097 110.244 19.0513 110.229 19.0964C110.213 19.1415 110.206 19.1892 110.209 19.2369C110.215 19.3302 110.257 19.4177 110.325 19.4818C110.393 19.546 110.483 19.5821 110.576 19.583L117.849 19.1284C117.94 19.1148 118.022 19.0676 118.08 18.9961C118.138 18.9247 118.166 18.8342 118.161 18.7425C118.155 18.6508 118.115 18.5647 118.049 18.501C117.982 18.4373 117.895 18.4008 117.803 18.3987L117.824 18.3945ZM116.573 23.1276L105.038 20.9258C104.989 20.9112 104.937 20.907 104.887 20.9136C104.836 20.9202 104.787 20.9374 104.743 20.964C104.699 20.9906 104.662 21.0261 104.632 21.0682C104.603 21.1103 104.583 21.1581 104.573 21.2084C104.564 21.2588 104.565 21.3105 104.576 21.3605C104.588 21.4104 104.61 21.4574 104.641 21.4983C104.671 21.5392 104.71 21.5733 104.755 21.5982C104.8 21.6231 104.849 21.6384 104.901 21.643L116.435 23.8449H116.506C116.596 23.8423 116.681 23.807 116.747 23.7456C116.812 23.6842 116.853 23.601 116.861 23.5116C116.869 23.4223 116.844 23.333 116.791 23.2607C116.738 23.1884 116.66 23.1381 116.573 23.1193V23.1276ZM116.289 28.1068L113.766 26.9057C113.68 26.8741 113.585 26.876 113.5 26.9111C113.415 26.9463 113.346 27.0121 113.307 27.0955C113.268 27.1789 113.262 27.2738 113.29 27.3615C113.318 27.4491 113.378 27.5231 113.458 27.5688L116.014 28.7698C116.062 28.7931 116.115 28.8046 116.168 28.8032C116.251 28.8037 116.332 28.7758 116.397 28.7242C116.461 28.6725 116.507 28.6002 116.525 28.5193C116.543 28.4384 116.533 28.3537 116.496 28.2794C116.459 28.2051 116.398 28.1457 116.323 28.1109L116.289 28.1068ZM104.792 24.9791C104.755 24.9485 104.713 24.9256 104.667 24.9115C104.621 24.8975 104.573 24.8926 104.525 24.8973C104.478 24.9019 104.431 24.916 104.389 24.9386C104.347 24.9613 104.309 24.992 104.279 25.0292C104.248 25.0658 104.225 25.1083 104.21 25.1542C104.196 25.2001 104.191 25.2484 104.196 25.2963C104.2 25.3441 104.214 25.3905 104.237 25.4328C104.26 25.475 104.292 25.5122 104.329 25.5421L112.136 31.9975C112.199 32.0534 112.281 32.0845 112.365 32.0851C112.441 32.0866 112.515 32.0643 112.578 32.0214C112.64 31.9784 112.688 31.9169 112.714 31.8456C112.739 31.7743 112.742 31.6967 112.722 31.6237C112.701 31.5507 112.658 31.486 112.599 31.4387L104.792 24.9791ZM106.531 30.8465C106.506 30.8017 106.473 30.7626 106.432 30.7318C106.391 30.7009 106.344 30.6791 106.294 30.6676C106.244 30.6562 106.193 30.6554 106.143 30.6654C106.092 30.6753 106.045 30.6957 106.003 30.7253C105.961 30.7549 105.926 30.793 105.901 30.837C105.875 30.8811 105.858 30.9301 105.853 30.981C105.847 31.0318 105.852 31.0832 105.868 31.1319C105.883 31.1806 105.909 31.2255 105.943 31.2636L108.666 35.0167C108.7 35.063 108.745 35.1006 108.796 35.1267C108.848 35.1527 108.905 35.1665 108.962 35.1668C109.04 35.1677 109.117 35.1428 109.179 35.0959C109.256 35.0385 109.308 34.9529 109.323 34.8578C109.338 34.7626 109.315 34.6654 109.258 34.5872L106.531 30.8465ZM82.7904 26.839L80.2883 28.0192C80.2005 28.0607 80.1327 28.1354 80.0999 28.2269C80.067 28.3184 80.0718 28.4191 80.1132 28.5071C80.1422 28.5699 80.1887 28.623 80.2471 28.66C80.3056 28.697 80.3735 28.7163 80.4426 28.7156C80.4957 28.7144 80.5481 28.7031 80.5969 28.6822L83.099 27.5021C83.1869 27.4605 83.2546 27.3858 83.2875 27.2943C83.3203 27.2029 83.3155 27.1021 83.2742 27.0142C83.2329 26.9345 83.1637 26.873 83.0797 26.8414C82.9958 26.8098 82.9031 26.8105 82.8196 26.8432L82.7904 26.839ZM98.1949 5.31693C98.0979 5.31801 98.0052 5.35703 97.9367 5.42561C97.8681 5.4942 97.8291 5.58691 97.828 5.6839V13.2193C97.828 13.3167 97.8666 13.41 97.9354 13.4788C98.0042 13.5477 98.0976 13.5863 98.1949 13.5863C98.2923 13.5863 98.3856 13.5477 98.4544 13.4788C98.5232 13.41 98.5619 13.3167 98.5619 13.2193V5.68807C98.5612 5.59588 98.5263 5.50723 98.4639 5.43939C98.4014 5.37155 98.3159 5.32938 98.2241 5.3211L98.1949 5.31693ZM91.6645 15.417L90.0757 14.4078C89.9938 14.3564 89.8949 14.3396 89.8007 14.3611C89.7064 14.3826 89.6246 14.4407 89.5732 14.5225C89.5217 14.6044 89.5049 14.7033 89.5264 14.7975C89.5479 14.8917 89.606 14.9736 89.6879 15.025L91.2725 16.0342C91.354 16.0764 91.4483 16.0866 91.5369 16.0628C91.6256 16.0389 91.702 15.9827 91.7512 15.9052C91.8004 15.8277 91.8188 15.7346 91.8028 15.6442C91.7867 15.5539 91.7374 15.4728 91.6645 15.417ZM92.1107 25.0083C92.0801 24.9715 92.0426 24.9411 92.0002 24.9188C91.9578 24.8965 91.9115 24.8829 91.8638 24.8786C91.8161 24.8743 91.7681 24.8796 91.7224 24.894C91.6767 24.9083 91.6344 24.9316 91.5978 24.9625L84.0331 31.2177C83.9963 31.2482 83.9659 31.2858 83.9436 31.3282C83.9213 31.3706 83.9077 31.4169 83.9034 31.4646C83.8991 31.5123 83.9044 31.5603 83.9188 31.606C83.9331 31.6516 83.9564 31.694 83.9873 31.7306C84.0175 31.7678 84.0549 31.7985 84.0971 31.8212C84.1393 31.8438 84.1856 31.8579 84.2333 31.8625C84.281 31.8672 84.3291 31.8623 84.3749 31.8483C84.4207 31.8342 84.4633 31.8112 84.5002 31.7806L92.0648 25.5254C92.138 25.4677 92.1865 25.3843 92.2005 25.2921C92.2144 25.2 92.1927 25.106 92.1399 25.0292L92.1107 25.0083ZM82.4652 10.4128L88.3326 14.1368C88.3896 14.1741 88.4562 14.1943 88.5244 14.1952C88.6034 14.1946 88.6802 14.1685 88.7432 14.1208C88.8063 14.0731 88.8522 14.0064 88.8742 13.9304C88.8963 13.8545 88.8932 13.7735 88.8654 13.6995C88.8377 13.6255 88.7868 13.5624 88.7204 13.5196L82.9072 9.82903C82.8252 9.77742 82.7262 9.76029 82.6317 9.78138C82.5372 9.80247 82.4548 9.86007 82.4026 9.94162C82.3475 10.0202 82.3257 10.1174 82.3422 10.212C82.3586 10.3066 82.4118 10.3908 82.4902 10.4462L82.4652 10.4128ZM79.4126 14.2452L82.4902 15.246C82.5275 15.2521 82.5655 15.2521 82.6028 15.246C82.6795 15.2463 82.7544 15.2222 82.8166 15.1773C82.8787 15.1323 82.9251 15.0688 82.9489 14.9958C82.9792 14.9035 82.9716 14.8029 82.9279 14.7161C82.8841 14.6293 82.8077 14.5634 82.7154 14.5329L79.6378 13.5363C79.5924 13.5215 79.5444 13.5158 79.4968 13.5195C79.4491 13.5233 79.4027 13.5364 79.3601 13.558C79.3175 13.5797 79.2796 13.6096 79.2485 13.6459C79.2175 13.6823 79.1939 13.7243 79.1791 13.7698C79.1643 13.8153 79.1586 13.8632 79.1624 13.9108C79.1661 13.9585 79.1792 14.0049 79.2009 14.0475C79.2225 14.0901 79.2524 14.128 79.2887 14.1591C79.3251 14.1901 79.3672 14.2137 79.4126 14.2285V14.2452ZM84.9923 19.5288C85.0722 19.5093 85.1432 19.4636 85.194 19.3989C85.2448 19.3343 85.2724 19.2544 85.2724 19.1722C85.2724 19.09 85.2448 19.0102 85.194 18.9455C85.1432 18.8809 85.0722 18.8351 84.9923 18.8157L78.5994 18.3987C78.5076 18.4008 78.4199 18.4373 78.3537 18.501C78.2875 18.5647 78.2476 18.6508 78.2418 18.7425C78.236 18.8342 78.2649 18.9247 78.3226 18.9961C78.3803 19.0676 78.4627 19.1148 78.5536 19.1284L84.9464 19.5455L84.9923 19.5288ZM97.4193 26.4095C97.371 26.4025 97.3219 26.4051 97.2746 26.4173C97.2274 26.4295 97.1831 26.451 97.1443 26.4805C97.1054 26.51 97.0729 26.5469 97.0485 26.5892C97.0241 26.6314 97.0084 26.6781 97.0023 26.7264L95.3759 39.583C95.3689 39.6312 95.3715 39.6804 95.3837 39.7276C95.3959 39.7749 95.4174 39.8192 95.4469 39.858C95.4764 39.8968 95.5133 39.9294 95.5556 39.9538C95.5978 39.9781 95.6445 39.9939 95.6928 40H95.7429C95.8312 40.0006 95.9166 39.9686 95.9828 39.9101C96.049 39.8516 96.0913 39.7708 96.1015 39.6831L97.7279 26.8265C97.7349 26.7786 97.7324 26.7297 97.7205 26.6827C97.7086 26.6357 97.6875 26.5916 97.6584 26.5528C97.6293 26.5141 97.5929 26.4814 97.5511 26.4568C97.5093 26.4322 97.4631 26.4161 97.4151 26.4095H97.4193ZM95.6803 26.4304C95.636 26.4122 95.5886 26.4031 95.5407 26.4036C95.4928 26.4041 95.4455 26.4141 95.4016 26.4332C95.3577 26.4522 95.3181 26.4798 95.285 26.5145C95.2519 26.5491 95.2261 26.59 95.2091 26.6347L93.6453 30.5796C93.6112 30.6698 93.6139 30.7698 93.6529 30.858C93.692 30.9462 93.7641 31.0155 93.8538 31.0509C93.8982 31.0684 93.9456 31.0771 93.9933 31.0763C94.041 31.0756 94.088 31.0654 94.1318 31.0464C94.1756 31.0275 94.2152 31 94.2483 30.9657C94.2815 30.9314 94.3076 30.8909 94.325 30.8465L95.8847 26.9057C95.9022 26.8608 95.9107 26.8129 95.9097 26.7647C95.9088 26.7165 95.8983 26.669 95.8789 26.6249C95.8596 26.5807 95.8317 26.5408 95.7969 26.5074C95.7621 26.4741 95.7211 26.4479 95.6762 26.4304H95.6803ZM93.4034 32.1601C93.3592 32.142 93.3117 32.1329 93.2638 32.1334C93.2159 32.1338 93.1687 32.1439 93.1247 32.1629C93.0808 32.182 93.0412 32.2096 93.0081 32.2442C92.975 32.2789 92.9492 32.3197 92.9322 32.3645L90.6595 38.1026C90.6413 38.1469 90.6322 38.1943 90.6327 38.2422C90.6332 38.2901 90.6433 38.3374 90.6623 38.3813C90.6813 38.4252 90.709 38.4649 90.7436 38.4979C90.7782 38.531 90.8191 38.5568 90.8638 38.5738C90.9054 38.5938 90.9511 38.6038 90.9973 38.603C91.0711 38.603 91.1433 38.5807 91.2043 38.5391C91.2653 38.4974 91.3124 38.4383 91.3392 38.3695L93.612 32.6314C93.6461 32.5412 93.6433 32.4412 93.6043 32.353C93.5653 32.2648 93.4931 32.1955 93.4034 32.1601ZM88.1366 33.2444L86.3893 35.6505C86.3335 35.7293 86.311 35.8268 86.3266 35.922C86.3422 36.0172 86.3947 36.1025 86.4727 36.1593C86.5332 36.2067 86.6084 36.2318 86.6853 36.2302C86.7431 36.2309 86.8002 36.2176 86.8518 36.1914C86.9034 36.1653 86.9478 36.1271 86.9814 36.0801L88.7287 33.6739C88.7571 33.6353 88.7775 33.5916 88.7889 33.5451C88.8003 33.4986 88.8024 33.4503 88.795 33.403C88.7876 33.3557 88.771 33.3104 88.746 33.2695C88.721 33.2287 88.6882 33.1932 88.6495 33.1651C88.6098 33.1373 88.5651 33.1176 88.5178 33.1071C88.4705 33.0966 88.4216 33.0956 88.3739 33.1042C88.3262 33.1127 88.2807 33.1306 88.24 33.1568C88.1992 33.183 88.1641 33.217 88.1366 33.2569V33.2444Z" fill="white"/>
</svg>
