<?xml version="1.0" encoding="utf-8"?>
<!-- Generator: Adobe Illustrator 27.4.0, SVG Export Plug-In . SVG Version: 6.00 Build 0)  -->
<svg version="1.1" xmlns="http://www.w3.org/2000/svg" xmlns:xlink="http://www.w3.org/1999/xlink" x="0px" y="0px"
     viewBox="0 0 283.46 255.12" style="enable-background:new 0 0 283.46 255.12;" xml:space="preserve">
     <g id="icon">
  <g id="Calque_1">
	<path d="M227.8,0H55.67C25.05,0,0,25.14,0,55.85v143.41v55.85h227.8c30.62,0,55.67-25.13,55.67-55.85V55.85
		C283.46,25.13,258.42,0,227.8,0z" fill="#09202E"/>
</g>
  <g id="Calque_3">
	<g>
		<path fill="#FFFFFF" d="M51.89,203.95c-1.41-1.89-3.68-2.9-6.02-2.9c-4.21,0-7.04,3.21-7.04,7.31c0,4.17,2.87,7.18,7.14,7.18
			c2.25,0,4.48-1.09,5.93-2.8v8.24c-2.29,0.7-3.93,1.22-6.07,1.22c-3.68,0-7.17-1.4-9.92-3.89c-2.9-2.63-4.24-6.06-4.24-9.98
			c0-3.62,1.38-7.09,3.89-9.67c2.6-2.66,6.34-4.28,10.06-4.28c2.21,0,4.24,0.49,6.27,1.32V203.95z"/>
    <path fill="#FFFFFF" d="M72.54,221.51h-6.87V195.1h6.87V221.51z"/>
    <path fill="#FFFFFF" d="M86.57,195.1h6.86l12.58,16.14h0.06V195.1h6.87v26.41h-6.87L93.5,205.33h-0.07v16.18h-6.86V195.1z"/>
    <path fill="#FFFFFF" d="M133.84,200.91v4.42h7.75v5.82h-7.75v4.55h8.17v5.81h-15.03V195.1h15.03v5.81H133.84z"/>
    <path fill="#FFFFFF" d="M158.11,195.1h6.76l5.35,14.11l5.68-14.11h6.84l3.99,26.41h-6.86l-1.93-15.2h-0.07l-6.34,15.2h-2.73
			l-6.07-15.2h-0.07l-2.2,15.2h-6.84L158.11,195.1z"/>
    <path fill="#FFFFFF" d="M203.9,216.92l-1.82,4.59h-7.29l10.16-26.41h7.5l9.94,26.41h-7.31l-1.72-4.59H203.9z M208.71,203.26h-0.07
			l-2.85,8.4h5.71L208.71,203.26z"/>
    <path fill="#FFFFFF" d="M245.98,201.89c-1.26-1.05-2.87-1.75-4.54-1.75c-1.27,0-2.94,0.74-2.94,2.21c0,1.54,1.86,2.13,3.04,2.52
			l1.75,0.53c3.68,1.09,6.51,2.95,6.51,7.22c0,2.62-0.63,5.32-2.72,7.11c-2.08,1.75-4.83,2.48-7.5,2.48c-3.32,0-6.59-1.11-9.28-3
			l2.93-5.55c1.72,1.51,3.75,2.74,6.11,2.74c1.61,0,3.33-0.81,3.33-2.67c0-1.92-2.7-2.58-4.16-3.01c-4.32-1.23-7.15-2.35-7.15-7.45
			c0-5.37,3.82-8.86,9.1-8.86c2.66,0,5.92,0.84,8.27,2.17L245.98,201.89z"/>
	</g>
</g>
  <g id="Calque_2">
	<g>
		<path fill="#E1061B" d="M179.63,178.74V38.02l2.29,0.83c30.29,10.96,49.45,27.12,56.92,48.05c9.38,26.26-2.7,51.13-5.68,56.63
			l15.48,17.79l-17.72,15.11l-25.53-28.47v18.56l-0.73,0.51c-7.31,5.12-22.11,10.63-22.73,10.87L179.63,178.74z M205.39,79.46v61
			c11.78-14.7,15.06-29.7,9.75-44.64C212.48,88.34,208.21,82.66,205.39,79.46z"/>
	</g>
    <g>
		<path fill="#E1061B" d="M163.58,179.18l-2.22-0.7c-34.43-10.9-50.95-30.23-58.74-44.52c-8.48-15.56-8.76-28.39-8.77-28.93
			c0-17.98,9.06-35.22,26.19-49.87c12.84-10.98,25.48-16.59,26.01-16.82l1.31-0.58l11.93,17.92l-1.67,0.88
			c-0.32,0.17-32.37,17.43-36.01,43.85c-1.84,13.36,3.85,26.92,16.92,40.36v-40.28h25.04V179.18z"/>
	</g>
    <g>
		<path fill="#E1061B" d="M92.03,177.32l-1.43-0.57c-0.61-0.24-15.13-6.13-29.61-17.94c-19.34-15.78-29.08-34.6-28.17-54.44
			c0.04-0.5,3.99-45.11,51.28-64.37l1.23-0.5L98.1,56.74l-1.74,0.93C96,57.87,60.34,77.32,59.41,105.41
			c-0.6,18.05,13.08,35.93,40.65,53.16l1.34,0.84L92.03,177.32z"/>
	</g>
</g>
</g>
</svg>
