<svg width="74" height="24" viewBox="0 0 74 24" xmlns="http://www.w3.org/2000/svg"><g fill="#000" fill-rule="nonzero"><path d="M13.184 2.174c-2.043.381-3.68 1.239-5.185 2.703A9.966 9.966 0 005 11.985c0 4.418 2.736 8.192 6.93 9.561 1.457.464 3.584.595 5.053.286 3.74-.762 6.56-3.358 7.682-7.06.287-.917.323-1.263.335-2.715 0-1.393-.036-1.822-.263-2.62-1.47-5.108-6.428-8.227-11.553-7.263zm1.195 4.132c.43.38.573 1.095.418 2.095-.382 2.417-1.494 4.68-3.047 6.263l-.657.667.18.357c.334.643.824.857 1.875.798.753-.036 1.063-.12 1.733-.453.537-.261.8-.464.776-.583-.442-2-.263-4.036.586-6.346.68-1.893 1.72-3.06 2.712-3.06.477 0 1.039.476 1.23 1.048.598 1.798-.92 5.858-3.023 8.072-.513.548-.585.667-.454.834.478.56 1.769.726 2.724.345.395-.167.55-.179.658-.071.418.416-.849 1-2.008.916-.788-.047-1.374-.285-1.804-.75l-.274-.297-.37.262c-.646.452-1.661.75-2.63.762-.776.011-.967-.036-1.457-.322-.322-.178-.573-.369-.573-.417 0-.047-.108-.214-.227-.369l-.215-.285-.347.238c-.514.357-1.493.833-1.911.916-.263.06-.419.024-.538-.119-.131-.166-.131-.214.072-.357.12-.095.298-.167.382-.167.215 0 1.04-.416 1.66-.845l.49-.333-.119-.69c-.25-1.441.299-4.454 1.111-6.18.884-1.834 2.187-2.655 3.047-1.93z"/><path d="M13.37 7.186C12.195 7.74 11 10.873 11 13.4c0 .597.047 1.026.118 1.026.214 0 1.552-1.714 2.003-2.582.96-1.804 1.445-3.98 1.03-4.578-.237-.338-.249-.338-.782-.079zm5.212 0c-.498.226-1.15 1.128-1.576 2.165-.616 1.488-.971 4.093-.722 5.288l.082.361.344-.316c1.374-1.24 3.056-4.668 3.056-6.246 0-.654-.201-1.195-.474-1.342-.272-.135-.225-.147-.71.09zm10.472 3.326c-.024.08-.036 1.026-.024 2.098.036 1.725.06 1.973.249 2.086.142.09.26.09.415 0 .177-.113.201-.361.237-1.974.035-2.243.023-2.356-.462-2.356-.19 0-.38.068-.415.146zm8.446-.078c-.142.135-.094 4.194.048 4.273.06.045.249.045.414.011l.285-.068-.024-2.12-.035-2.108-.297-.034c-.165-.022-.343 0-.39.046zm3.306.101c-.119.316-.083 3.777.047 4.014.154.26.51.282.71.045.131-.146.178-.146.392 0 .142.09.485.17.758.17.936 0 1.718-1.016 1.504-1.951-.13-.575-.379-.97-.758-1.15-.474-.237-1.35-.226-1.552.022-.142.158-.177.09-.225-.541-.059-.71-.059-.722-.426-.756-.26-.022-.391.023-.45.147zm2.239 1.973c.485.508.142 1.466-.51 1.466-.45 0-.853-.417-.853-.868 0-.722.877-1.105 1.363-.598zm20.21-1.849c-.13.17-.25.44-.25.609 0 .214-.07.327-.236.372-.308.079-.308.417 0 .496.213.056.237.17.26 1.308.036 1.128.06 1.263.261 1.297.344.067.427-.18.427-1.41v-1.15l.45-.034c.355-.022.45-.079.474-.293.035-.225-.012-.248-.45-.248-.463 0-.486-.011-.45-.316.023-.248.106-.315.45-.36.32-.045.414-.113.414-.282 0-.192-.095-.226-.545-.26-.486-.033-.592.012-.805.271zM31.21 11.73c-.96.722-.877 2.357.154 2.864.924.451 2.452-.022 2.18-.688-.048-.135-.166-.158-.439-.101-.96.191-1.22.191-1.41 0-.118-.102-.2-.226-.2-.282 0-.056.497-.124 1.101-.135l1.09-.034.035-.327c.06-.429-.177-.913-.592-1.252-.462-.372-1.445-.394-1.919-.045zm3.305.045a.988.988 0 00-.178 1.184c.072.124.439.327.83.462.426.147.71.316.71.406 0 .17-.094.17-1.338-.033-.45-.068-.45-.068-.415.248.048.417.652.721 1.41.721.924 0 1.48-.642 1.173-1.364-.13-.293-.367-.44-1.268-.778-.71-.26-.32-.541.438-.327.57.17.853.068.806-.26-.047-.338-.497-.54-1.256-.54-.51 0-.687.056-.912.281zm4.691-.124c-.094.102-.13.62-.106 1.534.035 1.172.07 1.41.248 1.51.143.09.261.09.415 0 .166-.1.202-.338.237-1.51.036-1.421-.035-1.692-.45-1.692a.487.487 0 00-.344.158zm5.698-.022c-.177.169-.19 2.604-.023 2.92a.442.442 0 00.687.079c.083-.079.142-.44.142-.823 0-.846.178-1.184.746-1.443.427-.192.51-.339.368-.688-.095-.237-.616-.226-.9 0-.19.18-.214.18-.285 0-.083-.214-.533-.237-.735-.045zm2.607-.023c-.332.135-.45.406-.26.62.106.124.295.147.78.102.44-.057.688-.034.818.067.296.237.214.372-.19.294-.532-.102-1.231.112-1.516.462-.58.688-.023 1.612.96 1.612.284 0 .628-.079.77-.169.225-.146.26-.146.32 0 .083.203.438.226.64.034.19-.18.19-2.12 0-2.514a1.182 1.182 0 00-.462-.463c-.368-.18-1.434-.203-1.86-.045zm3.305.045c-.095.102-.13.62-.107 1.534.036 1.172.071 1.41.249 1.51.142.09.26.09.415 0 .165-.1.201-.338.237-1.51.035-1.421-.036-1.692-.45-1.692a.487.487 0 00-.344.158zm1.67-.022c-.178.169-.19 2.604-.024 2.92a.442.442 0 00.688.079c.083-.079.142-.44.142-.823 0-.846.177-1.184.746-1.443.427-.192.51-.339.367-.688-.094-.237-.616-.226-.9 0-.19.18-.213.18-.284 0-.083-.214-.533-.237-.735-.045zm2.76.112c-.9.677-.84 2.255.107 2.808.663.383 2.05.203 2.239-.293.142-.338-.047-.53-.438-.451-1.02.191-1.15.191-1.375 0-.13-.113-.236-.248-.236-.293 0-.057.497-.113 1.101-.124l1.09-.034.036-.429c.047-.507-.296-1.105-.747-1.296-.509-.226-1.41-.17-1.777.112zm3.33.102c-.57.643-.261 1.297.757 1.624.368.112.593.248.593.36 0 .136-.095.158-.498.102-1.125-.158-1.22-.147-1.22.158 0 .372.628.676 1.398.676.474 0 .64-.056.924-.327.663-.631.379-1.33-.663-1.68-.676-.225-.83-.552-.237-.485.947.102 1.066.08 1.066-.214 0-.36-.415-.564-1.209-.564-.533 0-.64.045-.912.35zm6.586-.214c-.154.146-.213 2.616-.071 2.954.106.27.51.225.568-.08.036-.134.083-.597.107-1.025.036-.677.071-.812.367-1.037.178-.147.427-.271.557-.271.32 0 .415-.316.178-.541-.19-.18-.225-.18-.652.045-.438.225-.462.225-.592.022-.154-.236-.26-.259-.462-.067z"/></g></svg>