<svg xmlns="http://www.w3.org/2000/svg" viewBox="0 0 71 24"><g id="icon" clip-path="url(#a)"><path fill="currentColor" fill-rule="evenodd" d="M55.803 6.425a.22.22 0 0 1-.192-.113l-1.537-2.794a.219.219 0 1 1 .384-.211L55.995 6.1a.22.22 0 0 1-.192.324zm-1.98-3.6a.22.22 0 0 1-.193-.113l-.628-1.142a.219.219 0 1 1 .384-.212l.628 1.143a.22.22 0 0 1-.192.325zm4.123 5.33a.22.22 0 0 1-.212-.166l-1.77-6.887a.219.219 0 1 1 .425-.109l1.77 6.887a.22.22 0 0 1-.213.274zm-1.823-.912a.22.22 0 0 1 .385-.211l.437.796a.219.219 0 1 1-.384.212zm-.552 1.338a.22.22 0 0 1-.16-.07l-3.999-4.255a.219.219 0 1 1 .32-.3l3.999 4.255a.22.22 0 0 1-.16.37m4.464-.427a.22.22 0 0 1-.213-.274l1.663-6.47a.22.22 0 0 1 .425.109l-1.662 6.47a.22.22 0 0 1-.213.165m-5.944 6.392a.22.22 0 0 1-.292-.105.22.22 0 0 1 .105-.292l.925-.435a.22.22 0 0 1 .187.397zm1.04-3.8a.22.22 0 0 1-.276.142l-4.298-1.396a.22.22 0 1 1 .136-.416l4.297 1.395a.22.22 0 0 1 .14.276zm-4.495 4.94 2.381-1.12a.22.22 0 0 1 .187.397l-2.382 1.12a.22.22 0 0 1-.292-.105.22.22 0 0 1 .106-.292m4.245-3.126a.22.22 0 0 1 .083.43l-6.6 1.259a.22.22 0 0 1-.082-.43zm.028-.597-2.898-.182a.22.22 0 1 1 .027-.438l2.898.182a.219.219 0 0 1-.013.438zm8.122-2.305a.219.219 0 0 1-.117-.404l5.566-3.53a.22.22 0 1 1 .235.37l-5.567 3.53a.2.2 0 0 1-.117.034m3.963-.487a.22.22 0 1 1 .135.417l-4.003 1.3a.219.219 0 1 1-.135-.417zm-4.154 2.587a.22.22 0 0 1 .205-.232l2.4-.152a.22.22 0 0 1 .027.438l-2.4.151h-.013a.22.22 0 0 1-.219-.205m4.32 4.325-4.195-1.972a.22.22 0 1 1 .187-.397l4.194 1.972a.22.22 0 1 1-.187.397zm-5.933-7.929a.22.22 0 0 1-.192-.325l1.301-2.365a.22.22 0 0 1 .384.211l-1.3 2.365a.22.22 0 0 1-.193.114m-7.112.495.952.604a.219.219 0 1 1-.234.37l-.953-.604a.22.22 0 1 1 .235-.37m14.115.57a.22.22 0 0 1-.068-.427l1.535-.499a.22.22 0 0 1 .136.417l-1.535.499a.2.2 0 0 1-.068.01m-4.816-1.706a.22.22 0 0 1-.16-.37l2.044-2.175a.22.22 0 1 1 .32.3l-2.044 2.176a.22.22 0 0 1-.16.069m-.837.351a.22.22 0 0 1 .32.3l-.328.347a.22.22 0 0 1-.31.01.22.22 0 0 1-.009-.31zM63.1 4.75a.22.22 0 0 1-.192-.325l1.57-2.853a.22.22 0 0 1 .385.211l-1.57 2.853a.22.22 0 0 1-.193.114m-1.41 11.334a.219.219 0 1 1 .354-.258l1.17 1.61a.22.22 0 1 1-.355.257zm4.658-11.591a.22.22 0 0 1-.31.01.22.22 0 0 1-.01-.31l1.164-1.24a.22.22 0 0 1 .32.301zm-13.282 4.01-3.524-2.234a.22.22 0 1 1 .235-.37l3.524 2.234a.22.22 0 1 1-.235.37m9.76 13.179a.22.22 0 0 1 .285.123l.424 1.069a.22.22 0 0 1-.408.161l-.424-1.069a.22.22 0 0 1 .124-.284zm-2.02-5.697.286.723a.22.22 0 0 1-.408.161l-.287-.723a.22.22 0 0 1 .408-.16zm-.601 3.874a.219.219 0 1 1-.435.055l-.483-3.82a.219.219 0 1 1 .435-.055zm-.303 1.098a.22.22 0 0 1 .435-.055l.282 2.232a.22.22 0 0 1-.435.055zm2.743-5.934a.22.22 0 0 1 .309-.03l4.689 3.875a.22.22 0 1 1-.28.338l-4.689-3.875a.22.22 0 0 1-.029-.309zm3.755-3.707 4.367-.275a.22.22 0 1 1 .028.438l-4.367.274h-.015a.22.22 0 0 1-.013-.437m-3.3 1.245 6.93 1.32a.22.22 0 0 1-.083.431l-6.93-1.32a.22.22 0 0 1 .083-.43zM58.771.22a.22.22 0 0 1 .439 0v1.657a.22.22 0 0 1-.439 0zm4.92 18.246a.22.22 0 0 1 .307.048l1.637 2.252a.219.219 0 1 1-.354.257l-1.638-2.251a.22.22 0 0 1 .049-.306zm4.633-2.32 1.535.722a.219.219 0 1 1-.187.396l-1.535-.721a.219.219 0 1 1 .187-.397m-7.112 1.46a.22.22 0 0 1 .285.124l1.175 2.965a.219.219 0 1 1-.408.161l-1.175-2.965a.22.22 0 0 1 .123-.284zm-6.184-2.615a.22.22 0 0 1 .28.338l-4.544 3.755a.219.219 0 1 1-.279-.338zm-6.799 1.827 1.508-.71a.22.22 0 0 1 .187.397l-1.508.71a.219.219 0 1 1-.187-.397m3.03-5.304a.22.22 0 0 1-.232.205l-3.84-.241a.22.22 0 0 1 .027-.438l3.84.241a.22.22 0 0 1 .205.233m-1.701-2.346-1.848-.6a.22.22 0 0 1 .135-.417l1.848.6a.22.22 0 1 1-.135.417m2.325 12.234 1.05-1.444a.22.22 0 0 1 .355.258l-1.05 1.444a.22.22 0 0 1-.306.048.22.22 0 0 1-.049-.306m4.055-5.576a.22.22 0 1 1 .354.257l-2.369 3.259a.219.219 0 0 1-.355-.258zm1.238.158a.22.22 0 0 1 .408.161l-.938 2.366a.22.22 0 1 1-.407-.162zm1.083.054a.22.22 0 0 1 .435.055l-.976 7.715a.219.219 0 1 1-.435-.055zm.512-12.626a.22.22 0 0 1 .439 0v4.523a.22.22 0 0 1-.439 0zm-2.96 16.017a.22.22 0 0 1 .408.16l-1.365 3.445a.22.22 0 0 1-.407-.161zM23.42 7.814q-.375.765-1.063 1.187-.686.422-1.596.422a2.65 2.65 0 0 1-1.21-.267 2.44 2.44 0 0 1-.891-.776v3.38h-1.87V2.662h1.87v.982a2.34 2.34 0 0 1 .88-.777 2.6 2.6 0 0 1 1.184-.268q.911 0 1.609.43.698.429 1.081 1.212t.383 1.801q0 1.008-.377 1.772M18.66 5.98q0 .833.455 1.342t1.172.51q.716 0 1.166-.516t.449-1.337q0-.808-.45-1.323-.449-.516-1.165-.516t-1.172.516q-.455.516-.455 1.324m23.067 2.05q.375 0 .6-.13a.43.43 0 0 0 .225-.392q0-.286-.285-.447t-.917-.348a9 9 0 0 1-1.111-.398 2 2 0 0 1-.759-.603q-.316-.403-.316-1.05 0-.995.729-1.541.728-.547 1.846-.547.667 0 1.335.192.667.194 1.215.554l-.644 1.305a5.4 5.4 0 0 0-1.057-.479 3.1 3.1 0 0 0-.935-.168q-.339 0-.546.124a.41.41 0 0 0-.207.373q0 .274.28.423.28.15.91.336.692.211 1.142.416.45.206.778.609.328.405.328 1.063 0 .995-.747 1.547-.747.554-1.913.553-.802 0-1.542-.242a3.9 3.9 0 0 1-1.287-.69l.607-1.292q.497.397 1.111.615a3.5 3.5 0 0 0 1.16.218zM18.66 21.464h-1.87V12.24h1.87zM12.957 19.3q.39-.473.389-1.218v-3.307h1.858v6.688h-1.858v-1.18q-.668 1.254-2.186 1.254-1.08 0-1.718-.69-.639-.69-.638-1.87v-4.202h1.87v3.655q0 .634.328.994t.899.36q.668-.012 1.056-.484m-8.403.51a2.7 2.7 0 0 0 1.16-.28 3.7 3.7 0 0 0 1.05-.752l1.13 1.255q-.68.72-1.597 1.144a4.4 4.4 0 0 1-1.84.422q-1.251 0-2.27-.59a4.26 4.26 0 0 1-1.604-1.622q-.582-1.03-.583-2.3 0-1.255.595-2.274A4.3 4.3 0 0 1 2.23 13.21a4.6 4.6 0 0 1 2.3-.584q.924 0 1.822.392.9.39 1.53 1.062l-1.117 1.405a3.3 3.3 0 0 0-1.026-.84 2.56 2.56 0 0 0-1.184-.304q-.716 0-1.312.36a2.6 2.6 0 0 0-.935.983q-.34.621-.34 1.38t.34 1.385a2.6 2.6 0 0 0 .935.995 2.45 2.45 0 0 0 1.312.367zm18.068-.647q0 .77.596.77.412 0 .91-.248l.389 1.405a3 3 0 0 1-.808.341q-.444.12-.892.119-.912 0-1.482-.535t-.57-1.528v-3.095h-.912v-1.318h.912v-1.84h1.857v1.84h1.773v1.33h-1.773v2.76zm12.624-4.388v1.206q.34-.621.887-.944.548-.324 1.275-.336v1.802a3 3 0 0 0-.291-.012q-.862 0-1.366.479-.505.478-.505 1.273v3.22h-1.87v-6.688zm4.125.367q.765-.429 1.748-.429 1.58 0 2.4.932.818.933.819 2.598 0 .3-.013.46h-4.687q.158.634.607.989.45.353 1.08.354.463 0 .888-.18a2.3 2.3 0 0 0 .764-.529l.984 1.02a3.3 3.3 0 0 1-1.208.876 4 4 0 0 1-1.585.304q-1.033 0-1.803-.422a2.92 2.92 0 0 1-1.19-1.194q-.42-.77-.42-1.777 0-1.02.426-1.796a3 3 0 0 1 1.19-1.206m.747 1.367q-.407.393-.516 1.064h2.975q-.025-.66-.413-1.057-.389-.398-1.032-.398-.608 0-1.014.391M29.604 19.3q.39-.471.39-1.217v-3.307h1.857v6.688h-1.858v-1.18q-.668 1.254-2.185 1.254-1.081 0-1.719-.69-.637-.69-.637-1.87v-4.202h1.87v3.655q0 .634.327.994.33.36.9.36.666-.012 1.055-.484zM35.15 8.033q.377 0 .601-.131a.43.43 0 0 0 .225-.392q0-.286-.285-.447t-.917-.348a9 9 0 0 1-1.111-.398 2 2 0 0 1-.76-.603q-.315-.404-.315-1.05 0-.995.729-1.541.728-.547 1.845-.547.668 0 1.336.192.668.194 1.214.554l-.643 1.305a5.4 5.4 0 0 0-1.057-.479 3.1 3.1 0 0 0-.934-.168q-.341 0-.547.124a.41.41 0 0 0-.206.373q0 .274.279.423.28.15.911.336.692.211 1.14.416.45.205.778.609.329.405.328 1.063 0 .995-.747 1.547-.747.554-1.912.553-.801 0-1.543-.242a3.9 3.9 0 0 1-1.287-.69L32.88 7.2a3.8 3.8 0 0 0 1.11.615q.614.218 1.16.218m-9.61-2.157q.65-.53 1.84-.54h1.797V5.21q0-.534-.347-.826-.345-.293-1.013-.293-.912 0-1.944.584l-.583-1.317a7.7 7.7 0 0 1 1.458-.584 5.6 5.6 0 0 1 1.493-.187q1.313 0 2.034.634.723.634.735 1.765l.012 4.363h-1.834v-.783a2.1 2.1 0 0 1-.85.646 3 3 0 0 1-1.201.224q-1.034 0-1.64-.578-.607-.578-.607-1.51 0-.944.65-1.473zm3.126 1.908q.426-.285.51-.721v-.597h-1.469q-.547 0-.808.18-.26.181-.26.579 0 .384.273.614.272.23.746.23.584 0 1.008-.285" clip-rule="evenodd"/></g><defs><clipPath id="a"><path fill="#fff" d="M0 0h71v24H0z"/></clipPath></defs></svg>