<svg width="20" height="20" viewBox="0 0 20 20" fill="none" xmlns="http://www.w3.org/2000/svg">
<path id="icon" fill="currentColor" fill-rule="evenodd" clip-rule="evenodd" d="M14.5362 3.48012C13.292 2.33836 11.7333 1.66537 10.4359 1.68632C9.37897 1.70507 8.77021 1.82376 8.42729 1.9424C9.1028 2.28792 9.74305 2.79727 10.2254 3.53886C10.7515 4.3478 11.0714 5.40512 11.0714 6.77009C11.0714 8.42982 11.2812 9.77589 11.4897 10.7035C11.5939 11.1672 11.6976 11.526 11.7745 11.7668C11.8129 11.8871 11.8446 11.9779 11.8662 12.0375C11.8771 12.0672 11.8854 12.0892 11.8907 12.1032L11.8965 12.1181L11.8976 12.1208L11.8976 12.121L11.8977 12.121C11.9735 12.3087 11.9063 12.5235 11.7368 12.6353L10.6585 13.3461L10.7276 14.3706C10.7282 14.379 10.7285 14.3875 10.7285 14.3958C11.2956 14.387 11.8329 14.2926 12.2382 14.1962C12.4499 14.1459 12.6228 14.0957 12.7417 14.0585C12.8011 14.0399 12.8468 14.0246 12.877 14.0143L12.9102 14.0026L12.9176 13.9999L12.9187 13.9995C13.0901 13.9359 13.2833 13.9875 13.3996 14.1282C13.5159 14.2688 13.5295 14.4675 13.4335 14.6226L12.9665 15.3768C12.4722 16.178 11.5919 16.665 10.6429 16.665C10.4961 16.665 10.351 16.6533 10.2086 16.6305C10.2091 16.706 10.2135 16.8076 10.2219 16.9372C10.2262 17.0027 10.2314 17.0741 10.2368 17.1489L10.2368 17.1491C10.2482 17.3078 10.2608 17.4814 10.268 17.6441C10.2771 17.8474 10.28 18.0674 10.2581 18.2621C10.8671 18.3705 11.5145 18.2176 12.0149 17.8048L13.2063 16.8215C13.4219 16.6439 13.6272 16.4561 13.8218 16.259C14.9282 15.1383 15.6854 13.7187 15.9863 12.1692L15.9865 12.1685C16.151 11.3298 16.316 10.4348 16.4396 9.64958C16.5648 8.85486 16.6429 8.201 16.6429 7.8295C16.6429 6.16506 15.7755 4.61745 14.5362 3.48012ZM7.52841 2.49858C7.50426 2.49325 7.48082 2.48587 7.45829 2.47663C6.20525 2.09376 4.50147 2.06915 3.16153 2.93214C2.96284 3.06011 2.69749 3.00361 2.56886 2.80595C2.44023 2.60828 2.49702 2.34431 2.69571 2.21634C4.19331 1.25181 6.00965 1.22482 7.40772 1.57777C7.48916 1.48765 7.59582 1.40133 7.73205 1.32218C8.17099 1.06715 8.96247 0.859692 10.4209 0.833859L10.4216 0.833848C11.9955 0.808293 13.7581 1.60599 15.1174 2.85349C16.4817 4.10552 17.5 5.86593 17.5 7.8295C17.5 8.27599 17.4109 8.99112 17.2864 9.78153C17.1605 10.5813 16.9933 11.4876 16.8278 12.3314C16.4359 14.3491 15.3462 16.1652 13.7537 17.4777L12.5622 18.461C11.7569 19.1253 10.6844 19.3077 9.73332 19.01L9.72356 19.0121L9.7228 19.0123C8.40596 19.284 7.29455 19.185 6.2664 18.8084C5.24951 18.4359 4.33724 17.7998 3.40633 17.038C3.22354 16.8884 3.19728 16.6198 3.34766 16.438C3.49804 16.2562 3.76812 16.23 3.9509 16.3796C4.85856 17.1224 5.682 17.6858 6.56262 18.0083C7.34803 18.2961 8.19753 18.3988 9.2162 18.2381C9.26659 18.169 9.33567 18.1182 9.41303 18.0895C9.41985 17.9795 9.41885 17.8419 9.41172 17.6818C9.40497 17.5304 9.39398 17.3787 9.383 17.2269C9.37734 17.1487 9.37167 17.0705 9.36659 16.9923C9.35315 16.7856 9.34112 16.5507 9.36591 16.3806C9.36731 16.371 9.36901 16.3616 9.37102 16.3522C8.94627 16.1299 8.58088 15.7968 8.32003 15.3782L8.31937 15.3771L7.85223 14.6226C7.75621 14.4675 7.76983 14.2688 7.88612 14.1282C7.92511 14.081 7.97277 14.0438 8.02535 14.0177C8.13877 13.9222 8.29313 13.8758 8.46107 13.9173C8.85764 14.0196 9.33337 14.1219 9.85719 14.2025L9.78665 13.1561C9.77635 13.0034 9.8492 12.8568 9.97749 12.7723L10.9846 12.1083C10.976 12.082 10.9669 12.0542 10.9576 12.0249C10.8737 11.7623 10.7632 11.3794 10.6532 10.8895C10.433 9.90987 10.2143 8.50102 10.2143 6.77009C10.2143 5.54121 9.92779 4.65101 9.50567 4.00196C9.08543 3.35579 8.5127 2.92094 7.89158 2.63027C7.77596 2.58312 7.65461 2.53903 7.52841 2.49858ZM10.4538 15.8028L10.459 15.2466C10.5199 15.2483 10.5812 15.2492 10.6429 15.2492C11.1859 15.2492 11.7004 15.1787 12.1222 15.0945C11.7728 15.5434 11.2283 15.8123 10.6429 15.8123C10.5793 15.8123 10.5162 15.8091 10.4538 15.8028ZM7.40485 10.3339C7.74171 10.086 8.04703 10.0903 8.27744 10.1496L8.66443 10.327C8.84958 10.4711 9.1173 10.44 9.26393 10.2566C9.41126 10.0723 9.38054 9.80406 9.19529 9.65749L8.93379 9.98457C9.19529 9.65749 9.19512 9.65735 9.19495 9.65722L9.19459 9.65693L9.1938 9.65631L9.19197 9.65488L9.18733 9.6513L9.1741 9.64136C9.16356 9.63358 9.14956 9.62353 9.1323 9.61175C9.09784 9.58824 9.04994 9.55754 8.99019 9.52413C8.87159 9.45781 8.701 9.37782 8.49208 9.32406C8.06356 9.21379 7.4796 9.21815 6.89503 9.64843C6.70476 9.78848 6.66464 10.0555 6.80542 10.2448C6.9462 10.434 7.21457 10.474 7.40485 10.3339ZM8.66203 10.3252L8.66236 10.3253L8.66291 10.3258L8.6638 10.3265L8.66443 10.327L8.66323 10.3261L8.66203 10.3252ZM8.66203 10.3252C8.65923 10.3231 8.65433 10.3196 8.64747 10.3149C8.63145 10.304 8.60519 10.287 8.57019 10.2675C8.49927 10.2278 8.39799 10.1806 8.27744 10.1496L8.66203 10.3252ZM12.5477 10.3339C12.8846 10.086 13.1899 10.0903 13.4203 10.1496L13.8073 10.327C13.9077 10.4051 14.0323 10.4317 14.1487 10.4105C14.2471 10.3926 14.3396 10.3405 14.4068 10.2566C14.5541 10.0723 14.5234 9.80406 14.3381 9.65749L14.1798 9.85557C14.3381 9.65744 14.3379 9.65733 14.3378 9.65722L14.3374 9.65693L14.3367 9.65631L14.3348 9.65488L14.3302 9.6513L14.3169 9.64136C14.3064 9.63358 14.2924 9.62353 14.2751 9.61175C14.2539 9.59722 14.2274 9.57994 14.1962 9.56098C14.177 9.54925 14.1559 9.53689 14.133 9.52413C14.0144 9.45781 13.8439 9.37782 13.6349 9.32406C13.2064 9.21379 12.6224 9.21815 12.0379 9.64843C11.8476 9.78848 11.8075 10.0555 11.9483 10.2448C12.0891 10.434 12.3574 10.474 12.5477 10.3339ZM13.8049 10.3252L13.8052 10.3253L13.8058 10.3258L13.8067 10.3265L13.8073 10.327L13.8061 10.3261L13.8049 10.3252ZM13.8049 10.3252C13.8021 10.3231 13.7972 10.3196 13.7903 10.3149C13.7743 10.304 13.748 10.287 13.713 10.2675C13.6421 10.2278 13.5408 10.1806 13.4203 10.1496L13.8049 10.3252Z"/>
</svg>
