<svg width="20" height="20" viewBox="0 0 20 20" fill="none" xmlns="http://www.w3.org/2000/svg">
<path id="icon" fill-rule="evenodd" clip-rule="evenodd" d="M6.11993 2.90026C6.11993 2.42178 6.50982 2.0339 6.99077 2.0339C7.47171 2.0339 7.8616 2.42178 7.8616 2.90026C7.8616 3.37875 7.47172 3.76663 6.99077 3.76663C6.50982 3.76663 6.11993 3.37875 6.11993 2.90026ZM6.99077 1.20483C6.04958 1.20483 5.2866 1.9639 5.2866 2.90026C5.2866 3.83662 6.04958 4.59569 6.99077 4.59569C7.93195 4.59569 8.69493 3.83662 8.69493 2.90026C8.69493 1.9639 7.93195 1.20483 6.99077 1.20483ZM5.4523 6.95993C5.32561 5.94609 6.11907 5.05169 7.14495 5.05169C8.00317 5.05169 8.73123 5.68607 8.83736 6.53652L9.50506 11.4645H12.2241C12.5611 11.4645 12.8846 11.5934 13.1271 11.8346L15.5866 14.2815L16.5795 13.2938C16.7422 13.1319 17.006 13.1319 17.1687 13.2938C17.3315 13.4556 17.3315 13.7181 17.1687 13.88L15.8812 15.1609C15.7185 15.3228 15.4547 15.3228 15.292 15.1609L12.5378 12.4208C12.4553 12.3388 12.3454 12.2935 12.2241 12.2935H7.30329C6.65993 12.2935 6.1175 11.8152 6.03605 11.1831L5.4523 6.95993ZM8.66419 11.4645H7.30329C7.08083 11.4645 6.8905 11.2975 6.86251 11.0768L6.27897 6.85523C6.21556 6.33631 6.62165 5.88075 7.14495 5.88075C7.58584 5.88075 7.95716 6.20677 8.01055 6.64004L8.66419 11.4645ZM4.08245 9.59657C4.28175 9.71102 4.35005 9.96454 4.23501 10.1628C2.80844 12.6216 3.65665 15.7673 6.12828 17.1866C8.59972 18.6059 11.7616 17.762 13.1883 15.3031C13.3033 15.1048 13.5581 15.0368 13.7574 15.1513C13.9567 15.2657 14.0251 15.5192 13.91 15.7175C12.2534 18.5729 8.58191 19.5529 5.71168 17.9047C2.84164 16.2565 1.85652 12.6039 3.51328 9.74836C3.62832 9.55008 3.88315 9.48212 4.08245 9.59657Z" />
</svg>
