<svg width="30" height="30" viewBox="0 0 30 30" fill="none" xmlns="http://www.w3.org/2000/svg">
  <path id="icon" fill-rule="evenodd" clip-rule="evenodd" d="M13.5192 2.625C12.7449 2.625 12.1293 3.24299 12.1293 4V26C12.1293 26.757 12.7449 27.375 13.5192 27.375H25.9848C26.7591 27.375 27.3747 26.757 27.3747 26V10.5931C27.3747 10.2134 27.6825 9.90563 28.0623 9.90563C28.4421 9.90563 28.75 10.2134 28.75 10.5931V26C28.75 27.5255 27.5096 28.75 25.9848 28.75H13.5192C11.9944 28.75 10.754 27.5255 10.754 26V4C10.754 2.47451 11.9944 1.25 13.5192 1.25H25.9848C27.5096 1.25 28.75 2.47451 28.75 4V5.78063C28.75 6.16032 28.4421 6.46813 28.0623 6.46813C27.6825 6.46813 27.3747 6.16032 27.3747 5.78063V4C27.3747 3.24299 26.7591 2.625 25.9848 2.625H13.5192ZM8.55423 3.47519C8.65045 3.8425 8.43061 4.21824 8.0632 4.31444L3.65104 5.46964C2.91207 5.66221 2.47554 6.41768 2.67322 7.14789L7.99193 26.8383C8.09095 27.2048 7.87398 27.5822 7.50732 27.6812C7.14066 27.7802 6.76315 27.5633 6.66414 27.1967L1.34562 7.5071C0.948009 6.03756 1.82696 4.52427 3.30372 4.1392L7.71476 2.9843C8.08217 2.8881 8.45801 3.10788 8.55423 3.47519ZM16.0365 13.5519C16.6656 11.5096 18.59 10 20.9075 10C21.8396 10 22.7134 10.2467 23.4636 10.6756C23.7439 10.8358 23.8381 11.1847 23.6577 11.4532C23.4819 11.7148 23.1183 11.7894 22.8438 11.6325C22.2725 11.3059 21.612 11.1202 20.9075 11.1202C19.287 11.1202 17.8704 12.1163 17.2905 13.5519H19.7844C20.1037 13.5519 20.3804 13.7932 20.3804 14.112C20.3804 14.4308 20.1037 14.6721 19.7844 14.6721H17.0246C17.0156 14.7801 17.011 14.8894 17.011 15C17.011 15.2647 17.0376 15.5228 17.0881 15.7719H19.7844C20.1037 15.7719 20.3804 16.0132 20.3804 16.332C20.3804 16.6507 20.1037 16.892 19.7844 16.892H17.505C17.8096 17.4334 18.2402 17.8938 18.7549 18.2343C19.3733 18.6434 20.1128 18.8799 20.9075 18.8799C21.612 18.8799 22.2725 18.6941 22.8438 18.3675C23.1183 18.2106 23.4819 18.2852 23.6577 18.5468C23.8381 18.8153 23.7439 19.1642 23.4636 19.3244C22.7134 19.7533 21.8396 20 20.9075 20C19.8551 20 18.8778 19.6856 18.0685 19.1502C17.2351 18.5989 16.5795 17.8134 16.196 16.892H14.971C14.6517 16.892 14.375 16.6507 14.375 16.332C14.375 16.0132 14.6517 15.7719 14.971 15.7719H15.8793C15.8396 15.5201 15.819 15.2622 15.819 15C15.819 14.8899 15.8227 14.7806 15.8299 14.6721H14.971C14.6517 14.6721 14.375 14.4308 14.375 14.112C14.375 13.7932 14.6517 13.5519 14.971 13.5519H16.0365Z" fill="#161617"/>
</svg>
