<svg width="30" height="30" viewBox="0 0 30 30" fill="none" xmlns="http://www.w3.org/2000/svg">
  <path id="icon" fill-rule="evenodd" clip-rule="evenodd" d="M14.5322 3.75C13.7836 3.75 13.2164 4.32725 13.2164 5V25C13.2164 25.6727 13.7836 26.25 14.5322 26.25H26.1824C26.9311 26.25 27.4982 25.6727 27.4982 25V10.9937C27.4982 10.6486 27.7784 10.3688 28.1241 10.3688C28.4698 10.3688 28.75 10.6486 28.75 10.9937V25C28.75 26.4023 27.5825 27.5 26.1824 27.5H14.5322C13.1321 27.5 11.9646 26.4023 11.9646 25V5C11.9646 3.59775 13.1321 2.5 14.5322 2.5H26.1824C27.5825 2.5 28.75 3.59775 28.75 5V6.61875C28.75 6.96393 28.4698 7.24375 28.1241 7.24375C27.7784 7.24375 27.4982 6.96393 27.4982 6.61875V5C27.4982 4.32725 26.9311 3.75 26.1824 3.75H14.5322ZM10.4521 4.68707C10.5389 5.0212 10.3379 5.36229 10.0033 5.4489L6.59924 6.33006C5.88555 6.51537 5.49266 7.21082 5.67272 7.8578L10.6371 25.7583C10.7294 26.091 10.5341 26.4354 10.201 26.5275C9.86785 26.6196 9.523 26.4246 9.43074 26.092L4.46662 8.1925C4.0903 6.83964 4.92713 5.47247 6.28436 5.12025L9.68919 4.2389C10.0238 4.15228 10.3654 4.35293 10.4521 4.68707ZM3.15442 14.8399C3.45636 14.6718 3.56469 14.2911 3.39639 13.9896C3.22809 13.6881 2.84689 13.58 2.54495 13.748C1.31397 14.4332 0.876424 15.9718 1.60073 17.1775L1.60107 17.1781L6.64883 25.6145C6.82613 25.9108 7.21042 26.0075 7.50716 25.8305C7.80391 25.6534 7.90074 25.2697 7.72345 24.9734L2.67504 16.5359L2.67439 16.5348C2.32476 15.9531 2.52156 15.1921 3.15442 14.8399Z" fill="#161617"/>
</svg>
