<svg width="22" height="22" viewBox="0 0 22 22" xmlns="http://www.w3.org/2000/svg"><path d="M11 21.364c-1.442 0-2.82-.28-4.136-.84a10.482 10.482 0 01-3.386-2.274 10.474 10.474 0 01-2.275-3.386 10.465 10.465 0 01-.84-4.137c0-1.442.28-2.82.84-4.136a10.482 10.482 0 012.275-3.386c.98-.98 2.11-1.74 3.386-2.275A10.45 10.45 0 0111 .09c1.442 0 2.82.28 4.136.84a10.482 10.482 0 013.386 2.275c.981.98 1.74 2.11 2.275 3.386.56 1.316.84 2.694.84 4.136 0 1.442-.28 2.82-.84 4.137a10.482 10.482 0 01-2.275 3.386c-.98.98-2.11 1.739-3.386 2.275a10.467 10.467 0 01-4.136.839zm0-5.91a.57.57 0 00.171.42.57.57 0 00.42.171.57.57 0 00.42-.17.57.57 0 00.17-.42v-6.5a.57.57 0 00-.17-.42.57.57 0 00-.42-.171H9.818a.57.57 0 00-.42.171.57.57 0 00-.17.42.57.57 0 00.17.42.57.57 0 00.42.17H11v5.91zm0-8.733a.57.57 0 00.171.42.57.57 0 00.42.17.57.57 0 00.42-.17.57.57 0 00.17-.42V6a.57.57 0 00-.17-.42.57.57 0 00-.42-.17.57.57 0 00-.42.17A.57.57 0 0011 6v.72z" fill="#696A6F"/></svg>