<svg viewBox="0 0 14 15" xmlns="http://www.w3.org/2000/svg">
<path fill="currentColor" fill-rule="evenodd" clip-rule="evenodd" d="M7 14.1666C10.6819 14.1666 13.6667 11.1818 13.6667 7.49992C13.6667 3.81802 10.6819 0.833252 7 0.833252C3.3181 0.833252 0.333328 3.81802 0.333328 7.49992C0.333328 11.1818 3.3181 14.1666 7 14.1666ZM9.3154 4.08956C9.43938 4.43625 9.25884 4.8178 8.91215 4.94178L8.55402 5.06985C8.92837 5.26747 9.26043 5.5341 9.53298 5.85246C10.0315 6.43482 10.3333 7.1927 10.3333 8.01936C10.3333 9.86031 8.84094 11.3527 6.99999 11.3527C5.15905 11.3527 3.66666 9.86031 3.66666 8.01936C3.66666 7.61168 3.74015 7.21964 3.87519 6.85679C4.00362 6.51172 4.38746 6.3361 4.73252 6.46452C5.07759 6.59294 5.25322 6.97678 5.12479 7.32185C5.0443 7.53814 4.99999 7.77282 4.99999 8.01936C4.99999 9.12393 5.89542 10.0194 6.99999 10.0194C8.10456 10.0194 8.99999 9.12393 8.99999 8.01936C8.99999 7.52253 8.8197 7.06951 8.52012 6.71959C8.34067 6.50997 8.11923 6.33822 7.86888 6.21728L8.14953 6.80035C8.30922 7.13211 8.16973 7.5305 7.83797 7.69019C7.50621 7.84988 7.10782 7.71038 6.94813 7.37863L5.97564 5.35822C5.89367 5.18793 5.88783 4.99085 5.95957 4.81601C6.03132 4.64116 6.1739 4.50499 6.35185 4.44135L8.46318 3.68631C8.80987 3.56233 9.19142 3.74287 9.3154 4.08956Z" fill="unset"/>
</svg>
