<svg width="20" height="20" viewBox="0 0 20 20" fill="none" xmlns="http://www.w3.org/2000/svg">
<path id="icon" fill-rule="evenodd" clip-rule="evenodd" d="M9.99935 18.3333C14.6017 18.3333 18.3327 14.6024 18.3327 10C18.3327 5.39763 14.6017 1.66667 9.99935 1.66667C5.39698 1.66667 1.66602 5.39763 1.66602 10C1.66602 14.6024 5.39698 18.3333 9.99935 18.3333ZM12.8936 5.73706C13.0486 6.17042 12.8229 6.64736 12.3895 6.80234L11.9419 6.96242C12.4098 7.20945 12.8249 7.54274 13.1656 7.94069C13.7888 8.66864 14.166 9.61598 14.166 10.6493C14.166 12.9505 12.3005 14.816 9.99935 14.816C7.69816 14.816 5.83268 12.9505 5.83268 10.6493C5.83268 10.1397 5.92455 9.64966 6.09335 9.1961C6.25388 8.76476 6.73368 8.54523 7.16501 8.70576C7.59635 8.86629 7.81588 9.34608 7.65535 9.77742C7.55473 10.0478 7.49935 10.3411 7.49935 10.6493C7.49935 12.03 8.61864 13.1493 9.99935 13.1493C11.3801 13.1493 12.4994 12.03 12.4994 10.6493C12.4994 10.0283 12.274 9.46199 11.8995 9.02459C11.6752 8.76257 11.3984 8.54788 11.0855 8.3967L11.4363 9.12554C11.6359 9.54024 11.4615 10.0382 11.0468 10.2378C10.6321 10.4375 10.1341 10.2631 9.93452 9.84839L8.7189 7.32288C8.61644 7.11002 8.60915 6.86367 8.69882 6.64512C8.7885 6.42656 8.96673 6.25634 9.18917 6.17679L11.8283 5.233C12.2617 5.07802 12.7386 5.3037 12.8936 5.73706Z" />
</svg>
