<svg width="20" height="20" viewBox="0 0 20 20" fill="none" xmlns="http://www.w3.org/2000/svg">
<path id="icon" fill="currentColor" fill-rule="evenodd" clip-rule="evenodd" d="M2.50115 8.07575C2.50115 4.99851 4.99728 2.50237 8.07452 2.50237C9.49617 2.50237 10.7893 3.03144 11.7771 3.90775C11.9495 4.06065 12.2132 4.04488 12.3661 3.87251C12.519 3.70014 12.5032 3.43646 12.3308 3.28355C11.1963 2.27711 9.70808 1.66797 8.07452 1.66797C4.53646 1.66797 1.66675 4.53768 1.66675 8.07575C1.66675 11.6138 4.53646 14.4835 8.07452 14.4835C11.6126 14.4835 14.4823 11.6138 14.4823 8.07575C14.4823 7.18416 14.2994 6.32844 13.9697 5.5545C13.8794 5.34253 13.6343 5.2439 13.4223 5.33421C13.2104 5.42452 13.1117 5.66957 13.202 5.88155C13.4885 6.55391 13.6479 7.29853 13.6479 8.07575C13.6479 11.153 11.1518 13.6491 8.07452 13.6491C4.99728 13.6491 2.50115 11.153 2.50115 8.07575ZM13.9322 13.3434C13.7693 13.1805 13.5052 13.1805 13.3422 13.3434C13.1793 13.5064 13.1793 13.7705 13.3422 13.9335L17.6212 18.2124C17.7841 18.3754 18.0483 18.3754 18.2112 18.2124C18.3741 18.0495 18.3741 17.7854 18.2112 17.6224L13.9322 13.3434Z"/>
</svg>
