<svg width="24" height="24" viewBox="0 0 24 24" xmlns="http://www.w3.org/2000/svg">
<g id="ico" clip-path="url(#clip0_5430_94481)">
<path opacity="0.4" d="M12.236 6.7561C12.236 5.78485 13.0394 5 14.0337 5C15.028 5 15.8315 5.78485 15.8315 6.7561H17.1798C18.1718 6.7561 18.982 7.537 18.9999 8.50426L19 8.51304L18.9775 19.8802C19.0015 21.5933 17.5875 23 15.8315 23H4.14607C2.41021 23 1 21.6225 1 19.9268V8.5122C1 7.54095 1.80347 6.7561 2.79775 6.7561H4.15488C4.15488 5.78485 4.95835 5 5.95263 5C6.94692 5 7.75038 5.78485 7.75038 6.7561H12.236Z" fill="#FFA5C0"/>
<path fill-rule="evenodd" clip-rule="evenodd" d="M17.4819 1.97561C16.9287 1.97561 16.4831 2.41087 16.4831 2.95122V3.34243C16.4896 3.37365 16.4929 3.40595 16.4929 3.43902C16.4929 3.4721 16.4896 3.5044 16.4831 3.53562V3.92683C16.4831 4.46718 16.9287 4.90244 17.4819 4.90244C17.7577 4.90244 17.9813 5.12084 17.9813 5.39024C17.9813 5.65965 17.7577 5.87805 17.4819 5.87805C16.3771 5.87805 15.4844 5.00599 15.4844 3.92683H10.0011L9.994 3.92678H9.12236C8.84656 3.92678 8.62299 3.70838 8.62299 3.43898C8.62299 3.16957 8.84656 2.95117 9.12236 2.95117H9.50168C9.50165 2.41085 9.05607 1.97561 8.50292 1.97561C7.94976 1.97561 7.50417 2.41087 7.50417 2.95122V3.92683C7.50417 4.46718 7.94976 4.90244 8.50292 4.90244C8.77872 4.90244 9.0023 5.12084 9.0023 5.39024C9.0023 5.65965 8.77872 5.87805 8.50292 5.87805C7.39816 5.87805 6.50542 5.00599 6.50542 3.92683H4.9975C4.44434 3.92683 3.99875 4.36209 3.99875 4.90244V6.85366H19.4893C19.7651 6.85366 19.9887 7.07206 19.9887 7.34146C19.9887 7.61087 19.7651 7.82927 19.4893 7.82927H3.99875V17.5854C3.99875 18.9306 5.11849 20.0244 6.49563 20.0244H19.4794C20.8726 20.0244 21.9972 18.9068 21.9763 17.5439L21.9763 17.5356L22.0012 4.9068C21.9888 4.36409 21.5317 3.92683 20.9775 3.92683H18.98C18.9777 3.92683 18.9753 3.92681 18.973 3.92678H18.1111C17.8353 3.92678 17.6118 3.70838 17.6118 3.43898C17.6118 3.16957 17.8353 2.95117 18.1111 2.95117H18.4806C18.4806 2.41085 18.035 1.97561 17.4819 1.97561ZM17.4819 1C16.3771 1 15.4844 1.87206 15.4844 2.95122H10.5004C10.5004 1.87206 9.60769 1 8.50292 1C7.39816 1 6.50542 1.87206 6.50542 2.95122H4.9975C3.89274 2.95122 3 3.82328 3 4.90244V17.5854C3 19.4694 4.5669 21 6.49563 21H19.4794C21.4306 21 23.0017 19.437 22.975 17.5336L23 4.90338L22.9999 4.89362C22.98 3.81889 22.0797 2.95122 20.9775 2.95122H19.4794C19.4794 1.87206 18.5867 1 17.4819 1Z" fill="#EB0055"/>
</g>
<defs>
<clipPath id="clip0_5430_94481">
<rect width="22" height="22" fill="white" transform="translate(1 1)"/>
</clipPath>
</defs>
</svg>
