<svg width="48" height="48" viewBox="0 0 48 48" fill="none" xmlns="http://www.w3.org/2000/svg">
<g id="icon">
<g clip-path="url(#clip0_5430_94482)">
<g clip-path="url(#clip1_5430_94482)">
<circle opacity="0.4" cx="21" cy="27" r="21" fill="#FFA5C0"/>
<path fill-rule="evenodd" clip-rule="evenodd" d="M26 2C14.9523 2 6 10.9523 6 22C6 33.0477 14.9523 42 26 42C37.0477 42 46 33.0477 46 22C46 18.5514 45.124 15.3051 43.5814 12.4676C43.3176 11.9824 43.4972 11.3752 43.9824 11.1114C44.4676 10.8477 45.0748 11.0272 45.3386 11.5124C47.036 14.6349 48 18.2086 48 22C48 34.1523 38.1523 44 26 44C13.8477 44 4 34.1523 4 22C4 9.84772 13.8477 0 26 0C29.7377 0 33.27 0.9321 36.3534 2.58914C36.8399 2.85059 37.0223 3.4569 36.7609 3.94339C36.4994 4.42987 35.8931 4.6123 35.4066 4.35086C32.61 2.8479 29.4023 2 26 2Z" fill="#EB0055"/>
<path fill-rule="evenodd" clip-rule="evenodd" d="M16.6088 23.3295C15.5182 18.7599 17.3657 13.8495 21.5979 11.4061C23.305 10.4205 25.1784 9.97075 27.0271 10.0015C27.6396 10.0117 28.1187 10.5117 28.0906 11.1201C28.0628 11.7238 27.546 12.2002 26.9379 12.1901C25.4814 12.1659 24.0179 12.5191 22.6848 13.2888C19.64 15.0467 18.0985 18.5364 18.6144 22.0012C18.6255 22.0752 18.6724 22.139 18.7398 22.1715C18.8072 22.204 18.8863 22.2011 18.9511 22.1637L23.5079 19.5328C24.0385 19.2265 24.7162 19.3924 25.0184 19.9158C25.3206 20.4392 25.1254 21.1091 24.5949 21.4155L19.5203 24.3452C19.4178 24.4044 19.3783 24.5327 19.4298 24.6393C19.5306 24.8482 19.6401 25.0553 19.7583 25.2601C20.054 25.7722 20.3902 26.2444 20.7598 26.675C20.8306 26.7575 20.9502 26.7779 21.0444 26.7235L26.0057 23.8591C26.5363 23.5528 27.214 23.7187 27.5162 24.2421C27.8184 24.7655 27.6232 25.4354 27.0927 25.7418L22.9438 28.1371C22.8746 28.1771 22.8316 28.2506 22.8307 28.3304C22.8299 28.4103 22.8712 28.4847 22.9395 28.5262C24.1193 29.2423 25.4362 29.6705 26.7737 29.7819C28.4141 29.9185 30.0853 29.5796 31.5891 28.7114C32.9221 27.9417 33.9598 26.8509 34.667 25.5774C34.9623 25.0457 35.6333 24.8363 36.1701 25.1141C36.711 25.394 36.9045 26.0589 36.607 26.5945C35.7093 28.2108 34.3832 29.6084 32.676 30.594C30.7485 31.7069 28.6106 32.1359 26.536 31.9631C24.412 31.7862 22.3544 30.9795 20.6391 29.6316C20.5665 29.5745 20.4664 29.5674 20.3864 29.6136L18.1509 30.9043C17.6204 31.2106 16.9426 31.0447 16.6404 30.5213C16.3382 29.9979 16.5334 29.3279 17.064 29.0216L18.6886 28.0836C18.7455 28.0508 18.7852 27.9949 18.7976 27.9305C18.81 27.866 18.7937 27.7994 18.7531 27.7478C18.4156 27.3199 18.1047 26.8624 17.8243 26.3767C17.7306 26.2144 17.6413 26.0506 17.5564 25.8856C17.5486 25.8704 17.5391 25.8561 17.528 25.8431C17.5236 25.8378 17.5195 25.8318 17.516 25.8249L17.4979 25.7889C17.4699 25.7333 17.4203 25.6917 17.3607 25.6739C17.3011 25.6561 17.2368 25.6637 17.1829 25.6948L15.6531 26.578C15.1226 26.8843 14.4448 26.7184 14.1426 26.195C13.8404 25.6716 14.0356 25.0016 14.5662 24.6953L16.5019 23.5777C16.5885 23.5277 16.632 23.4267 16.6088 23.3295Z" fill="#EB0055"/>
</g>
</g>
<defs>
<clipPath id="clip0_5430_94482">
<rect width="48" height="48" fill="white"/>
</clipPath>
<clipPath id="clip1_5430_94482">
<rect width="48" height="48" fill="white"/>
</clipPath>
</defs>
</g>
</svg>
