<svg width="48" height="48" viewBox="0 0 48 48" xmlns="http://www.w3.org/2000/svg">
<g id="icon" clip-path="url(#clip0_5430_94481)">
<path opacity="0.4" d="M24.4719 13.5122C24.4719 11.5697 26.0788 10 28.0674 10C30.056 10 31.6629 11.5697 31.6629 13.5122H34.3596C36.3435 13.5122 37.9641 15.074 37.9999 17.0085L38 17.0261L37.9551 39.7605C38.0031 43.1866 35.175 46 31.6629 46H8.29213C4.82042 46 2 43.2449 2 39.8537V17.0244C2 15.0819 3.60694 13.5122 5.59551 13.5122H8.30976C8.30976 11.5697 9.91669 10 11.9053 10C13.8938 10 15.5008 11.5697 15.5008 13.5122H24.4719Z" fill="#FFA5C0"/>
<path fill-rule="evenodd" clip-rule="evenodd" d="M34.9638 3.95122C33.8575 3.95122 32.9663 4.82174 32.9663 5.90244V6.68484C32.9791 6.74729 32.9859 6.8119 32.9859 6.87805C32.9859 6.9442 32.9791 7.0088 32.9663 7.07126V7.85366C32.9663 8.93436 33.8575 9.80488 34.9638 9.80488C35.5154 9.80488 35.9625 10.2417 35.9625 10.7805C35.9625 11.3193 35.5154 11.7561 34.9638 11.7561C32.7543 11.7561 30.9688 10.012 30.9688 7.85366H20.0021L19.988 7.85356H18.2447C17.6931 7.85356 17.246 7.41677 17.246 6.87795C17.246 6.33914 17.6931 5.90234 18.2447 5.90234H19.0034C19.0033 4.82169 18.1121 3.95122 17.0058 3.95122C15.8995 3.95122 15.0083 4.82174 15.0083 5.90244V7.85366C15.0083 8.93436 15.8995 9.80488 17.0058 9.80488C17.5574 9.80488 18.0046 10.2417 18.0046 10.7805C18.0046 11.3193 17.5574 11.7561 17.0058 11.7561C14.7963 11.7561 13.0108 10.012 13.0108 7.85366H9.99501C8.88867 7.85366 7.9975 8.72418 7.9975 9.80488V13.7073H38.9786C39.5301 13.7073 39.9773 14.1441 39.9773 14.6829C39.9773 15.2217 39.5301 15.6585 38.9786 15.6585H7.9975V35.1707C7.9975 37.8612 10.237 40.0488 12.9913 40.0488H38.9588C41.7451 40.0488 43.9943 37.8136 43.9527 35.0877L43.9526 35.0713L44.0025 9.8136C43.9775 8.72817 43.0635 7.85366 41.9551 7.85366H37.9601C37.9553 7.85366 37.9506 7.85363 37.9459 7.85356H36.2223C35.6707 7.85356 35.2235 7.41677 35.2235 6.87795C35.2235 6.33914 35.6707 5.90234 36.2223 5.90234H36.9613C36.9612 4.82169 36.0701 3.95122 34.9638 3.95122ZM34.9638 2C32.7543 2 30.9688 3.74411 30.9688 5.90244H21.0009C21.0009 3.74411 19.2154 2 17.0058 2C14.7963 2 13.0108 3.74411 13.0108 5.90244H9.99501C7.78548 5.90244 6 7.64655 6 9.80488V35.1707C6 38.9388 9.1338 42 12.9913 42H38.9588C42.8612 42 46.0034 38.8741 45.9501 35.0672L46 9.80676L45.9998 9.78725C45.9601 7.63777 44.1595 5.90244 41.9551 5.90244H38.9588C38.9588 3.74411 37.1733 2 34.9638 2Z" fill="#EB0055"/>
</g>
<defs>
<clipPath id="clip0_5430_94481">
<rect width="44" height="44" fill="white" transform="translate(2 2)"/>
</clipPath>
</defs>
</svg>
