<svg xmlns="http://www.w3.org/2000/svg" id="icon" width="48" height="48" fill="none"><path fill="currentColor" fill-rule="evenodd" d="M30.217 45c-.5 0-1.01-.09-1.49-.29l-7.583-3.1c-6.551-2.68-11.583-8.37-13.453-15.24L5.03 16.6a.9.9 0 0 1 0-.51c.09-.34 2.29-8.41 15.154-11.96 4.481-1.23 8.612-1.47 12.283-.69.54.11.89.64.77 1.19-.11.54-.64.89-1.19.77-3.36-.71-7.172-.49-11.343.66C10.091 9 7.481 15.07 7.04 16.36l2.581 9.49c1.71 6.27 6.292 11.47 12.273 13.91l7.582 3.1c.82.33 1.78.07 2.321-.64l4.951-6.55c3.911-5.17 5.232-12 3.521-18.27l-2.66-9.77c-.15-.53.17-1.08.7-1.23s1.08.17 1.23.7l2.66 9.77c1.871 6.86.42 14.34-3.86 20l-4.952 6.55a3.98 3.98 0 0 1-3.17 1.58m3.49-28.56c.19.15.42.23.64.23.29 0 .581-.12.761-.36a.99.99 0 0 0-.13-1.41 5.97 5.97 0 0 0-3.53-1.36c-1.731-.08-3.022.63-3.632 1.05-.45.31-.56.94-.25 1.39s.93.56 1.39.25a3.92 3.92 0 0 1 2.411-.69 4 4 0 0 1 2.34.9M16.744 31.49c.49.63 5.312 6.66 10.753 6.66.62 0 1.25-.08 1.88-.27 6.162-1.69 7.512-11.1 7.622-11.98.16-.8-.16-1.61-.84-2.07a1.97 1.97 0 0 0-2.27.03c-2.981 2.12-5.552 3.54-7.252 4.01s-4.632.57-8.262.27c-.84-.05-1.6.38-1.961 1.14-.35.75-.22 1.61.33 2.21m1.56-1.26-.09-.09c2.731.22 6.502.35 8.963-.34 2.46-.68 5.641-2.72 7.862-4.32v.01c-.01.04-.02.08-.02.12-.01.09-1.14 8.96-6.172 10.35-5.031 1.39-10.492-5.66-10.542-5.73m-4.99-8.14c.13.05.27.08.4.08.38 0 .75-.22.93-.6.2-.46.69-1.3 1.69-1.87.43-.24 1.32-.62 2.46-.47a1 1 0 0 0 1.12-.86 1 1 0 0 0-.86-1.12c-1.71-.23-3.06.34-3.71.71a6.05 6.05 0 0 0-2.541 2.81c-.23.51 0 1.1.51 1.32" clip-rule="evenodd"/></svg>