<svg xmlns="http://www.w3.org/2000/svg" width="48" height="48"><path id="icon" fill="currentColor" fill-rule="evenodd" d="M24 43.09C13.455 43.09 4.91 34.546 4.91 24c0-3.248.808-6.31 2.243-8.979a.955.955 0 0 0-1.682-.904A20.8 20.8 0 0 0 3 24c0 11.6 9.4 21 21 21s21-9.4 21-21S35.6 3 24 3c-3.62 0-7.03.92-10.01 2.54a.954.954 0 1 0 .91 1.678A19 19 0 0 1 24 4.909c10.545 0 19.09 8.546 19.09 19.091S34.546 43.09 24 43.09m0-26.59a1.25 1.25 0 1 0 0-2.5 1.25 1.25 0 0 0 0 2.5M24 34c-.552 0-1-.426-1-.951V21.998h-1.046c-.525 0-.951-.448-.951-1 0-.553.426-1 .95-1h2.1c.314 0 .594.16.767.408.1.136.163.297.177.472a1 1 0 0 1 .003.21v11.96c0 .526-.448.952-1 .952" clip-rule="evenodd"/></svg>