<svg xmlns="http://www.w3.org/2000/svg" width="48" height="48" fill="none"><path id="icon" fill="currentColor" fill-rule="evenodd" d="M30.966 7c0-1.108.892-2 1.998-2s1.997.892 1.997 2h-.739a1 1 0 0 0 0 2h5.733c1.108 0 2.023.896 2.047 2.009l-.05 25.89v.016C41.995 39.709 39.746 42 36.96 42H10.99a5 5 0 0 1-4.993-5V17h30.98a1 1 0 0 0 0-2H5.999v-4c0-1.108.89-2 1.997-2h3.016c0 2.212 1.786 4 3.995 4a1 1 0 0 0 0-2 1.995 1.995 0 0 1-1.997-2V7c0-1.108.89-2 1.997-2s1.998.892 1.998 2h-.76a1 1 0 0 0 0 2H28.97c0 2.212 1.785 4 3.995 4a1 1 0 0 0 0-2 1.995 1.995 0 0 1-1.998-2v-.8a1 1 0 0 0 0-.4zM28.97 7H19c0-2.212-1.785-4-3.995-4a3.993 3.993 0 0 0-3.995 4H7.995A3.993 3.993 0 0 0 4 11v26c0 3.862 3.134 7 6.991 7H36.96c3.902 0 7.044-3.204 6.991-7.106L44 11.002v-.02A4.056 4.056 0 0 0 39.955 7H36.96c0-2.212-1.786-4-3.995-4a3.993 3.993 0 0 0-3.995 4m1.217 16.972a1.125 1.125 0 0 1 1.625 1.556l-.923.963-.036.04-8.167 8.519a1.854 1.854 0 0 1-2.686 0l-.002-.003-4.062-4.27a1.125 1.125 0 1 1 1.63-1.55l3.778 3.97 7.847-8.184.036-.04z" clip-rule="evenodd"/></svg>