<svg xmlns="http://www.w3.org/2000/svg" width="48" height="48" fill="none"><path id="icon" fill="currentColor" fill-rule="evenodd" d="M11.515 11.413c0-2.865 2.303-5.19 5.148-5.19h.044c2.844 0 5.148 2.325 5.148 5.19v4.582c0 2.865-2.304 5.19-5.148 5.19h-.044c-2.845 0-5.148-2.325-5.148-5.19zM16.663 4c-4.057 0-7.348 3.317-7.348 7.413v4.582c0 4.095 3.291 7.413 7.348 7.413h.044c4.057 0 7.348-3.318 7.348-7.413v-4.582C24.055 7.317 20.764 4 16.707 4zm13.662 10.453c0-1.995 1.604-3.616 3.586-3.616h.033c1.982 0 3.586 1.62 3.586 3.616v3.839c0 1.995-1.604 3.615-3.586 3.615h-.033c-1.982 0-3.586-1.62-3.586-3.615zm3.586-5.838c-3.194 0-5.786 2.612-5.786 5.838v3.839c0 3.225 2.592 5.837 5.786 5.837h.033c3.194 0 5.786-2.612 5.786-5.837v-3.84c0-3.225-2.592-5.837-5.786-5.837zM2.06 36.234c2.164-6.289 7.85-11.475 14.81-11.475 6.994 0 12.287 5.223 14.438 11.474.1.29.076.607-.063.878C28.93 41.605 23.466 44 16.872 44c-1.65 0-3.248-.174-4.751-.515a1.11 1.11 0 0 1-.832-1.328 1.1 1.1 0 0 1 1.314-.84 19.4 19.4 0 0 0 4.269.461c5.936 0 10.28-2.064 12.192-5.278-2.03-5.415-6.562-9.52-12.192-9.52-5.656 0-10.52 4.133-12.561 9.508.525.807 1.238 1.337 2.406 2.206l.127.094c.489.364.593 1.06.232 1.554-.36.494-1.049.599-1.538.235l-.253-.188c-1.239-.918-2.37-1.756-3.159-3.274a1.12 1.12 0 0 1-.065-.882m31.872-10.166c-1.4 0-2.747.217-4.004.631-.578.19-.893.818-.705 1.401s.81.902 1.387.712a10.6 10.6 0 0 1 3.322-.522c4.489 0 8.151 2.386 9.74 6.112-.735 1.06-2.003 2.064-3.682 2.837-1.885.869-4.193 1.4-6.586 1.4-.608 0-1.1.496-1.1 1.11s.492 1.111 1.1 1.111c2.7 0 5.32-.596 7.5-1.6 2.16-.995 3.985-2.439 4.957-4.209a1.12 1.12 0 0 0 .07-.924c-1.812-4.956-6.475-8.06-11.999-8.06" clip-rule="evenodd"/></svg>