<svg xmlns="http://www.w3.org/2000/svg" width="48" height="48" fill="none"><path id="icon" fill="currentColor" fill-rule="evenodd" d="m23.571 6.069-4.36 1.46a1 1 0 0 1-.635-1.897l4.363-1.46a3.37 3.37 0 0 1 2.122 0h.003l16.765 5.63C43.097 10.23 44 11.391 44 12.75v22.5c0 1.359-.903 2.52-2.171 2.948l-16.768 5.63a3.38 3.38 0 0 1-2.122 0l-16.767-5.64C4.904 37.76 4 36.599 4 35.24v-22.5c0-1.359.903-2.52 2.171-2.948l7.083-2.38a1 1 0 0 1 .637 1.896L7.398 11.49l11.1 3.727 5.073 1.704h.001c.274.092.582.092.856 0l12.982-4.359a1 1 0 0 1 .637 1.896l-12.983 4.36h-.003a3.38 3.38 0 0 1-2.122 0h-.003l-5.425-1.822-11.339-3.808a1 1 0 0 1-.171-.076V35.24c0 .44.297.88.809 1.052l16.195 5.449V22.12a1 1 0 0 1 2 0v19.618l16.185-5.436c.512-.172.81-.611.81-1.052v-22.5c0-.44-.298-.88-.81-1.052L24.43 6.068h-.001a1.38 1.38 0 0 0-.857 0" clip-rule="evenodd"/></svg>