<svg xmlns="http://www.w3.org/2000/svg" width="48" height="48" fill="none"><g id="icon" fill="currentColor"><path d="M23.447 5.015c4.957-.231 9.443 2.159 11.972 5.926l4.886-4.694a1 1 0 0 1 1.415.027.997.997 0 0 1-.027 1.412l-5.265 5.058a12.6 12.6 0 0 1 1.123 4.605c.146 2.867-.264 5.104-1.015 6.946-.75 1.839-1.817 3.228-2.902 4.419-.447.49-.906.956-1.342 1.399l-.007.007-.255.26c-.52.528-1.001 1.03-1.435 1.55-.857 1.028-1.5 2.097-1.786 3.462-1.076 5.166-4.414 7.658-7.077 7.607h-.003c-1.94-.043-3.609-.616-4.84-1.472-1.208-.842-2.083-2.028-2.212-3.32a1 1 0 0 1 1.991-.199c.053.529.46 1.25 1.366 1.88.884.616 2.163 1.08 3.738 1.115 1.39.025 4.127-1.453 5.078-6.017.373-1.788 1.219-3.15 2.207-4.334.49-.587 1.02-1.137 1.543-1.67l.272-.277c.436-.442.863-.876 1.281-1.335 1-1.097 1.902-2.288 2.53-3.828.626-1.536 1.002-3.476.87-6.092a10.6 10.6 0 0 0-.674-3.218l-3.038 2.918c.111.574.156 1.175.14 1.794-.07 2.64-1.805 4.491-3.353 6.143l-.192.205c-1.671 1.79-3.236 3.54-3.682 6.18a1 1 0 0 1-1.974-.332c.557-3.296 2.538-5.439 4.192-7.21 1.718-1.838 2.937-3.162 3.006-4.99L7.695 40.346a1 1 0 0 1-1.415-.027.997.997 0 0 1 .027-1.412l23.722-22.788.029-.028 3.89-3.737c-2.097-3.36-6.009-5.55-10.408-5.344-2.89.135-5.473 1.284-7.4 3.064a1 1 0 0 1-1.415-.055.997.997 0 0 1 .055-1.41c2.267-2.094 5.296-3.436 8.667-3.594"/><path d="M27.951 14.372a6 6 0 0 0-.737-.507l-4.324-2.972c2.327-.107 4.612.553 6.317 1.923.43.346.498.975.151 1.404-.346.43-.976.497-1.407.152"/><path d="M16.408 17.53a5.5 5.5 0 0 1 1.28-2.242c1.343-1.452 3.408-2.313 5.294-2.4 1.564-.072 3.047.283 4.232.977l-4.324-2.972c-2.358.109-4.938 1.165-6.673 3.04-1.78 1.926-2.628 4.678-1.49 7.958a1.001 1.001 0 0 0 1.891-.653 7.2 7.2 0 0 1-.382-1.718c.895.077 1.84.182 2.669.522.853.35 1.547.934 1.872 2.056a1.001 1.001 0 0 0 1.922-.554c-.526-1.817-1.73-2.814-3.033-3.349-1.13-.463-2.357-.588-3.258-.664"/></g></svg>