<svg xmlns="http://www.w3.org/2000/svg" width="48" height="48" fill="none"><g id="icon" fill="currentColor" fill-rule="evenodd" clip-rule="evenodd"><path d="m29.548 21.35.005.003c2.273.893 3.684 3.123 3.246 5.614C34.732 27.78 36 29.713 36 31.845 36 34.685 33.667 37 30.917 37H17.083C14.264 37 12 34.681 12 31.845c0-2.578 1.767-4.763 4.234-5.18.353-1.675 1.449-3.013 2.99-3.634 1.416-.594 3.019-.527 4.32.222 1.34-2.121 3.818-2.718 6.003-1.902m1.948 7.264h-.002a.95.95 0 0 1-.637-.499 1.18 1.18 0 0 1-.123-.772l.007-.036.013-.034c.356-.912.319-1.769-.006-2.473-.327-.707-.96-1.295-1.857-1.633l-.003-.002c-.866-.337-1.71-.33-2.416-.03-.701.299-1.297.899-1.654 1.809a.944.944 0 0 1-1.516.44l-.006-.006-.007-.006c-.94-.845-2.22-1.077-3.315-.603l-.007.002a3.16 3.16 0 0 0-1.976 2.794.983.983 0 0 1-.973.988c-1.74 0-3.138 1.427-3.138 3.29 0 1.793 1.459 3.292 3.203 3.292h13.834c1.744 0 3.203-1.499 3.203-3.291 0-1.614-1.102-2.93-2.624-3.23"/><path d="M28.969 7H19c0-2.212-1.785-4-3.995-4a3.993 3.993 0 0 0-3.995 4H7.995A3.993 3.993 0 0 0 4 11v26c0 3.862 3.134 7 6.991 7H36.96c3.902 0 7.044-3.204 6.991-7.106L44 11.002v-.02A4.056 4.056 0 0 0 39.955 7H36.96c0-2.212-1.786-4-3.995-4a3.993 3.993 0 0 0-3.995 4m1.997 0c0-1.108.892-2 1.998-2s1.997.892 1.997 2h-.739a1 1 0 0 0 0 2h5.733c1.108 0 2.023.896 2.047 2.009l-.05 25.89v.016C41.995 39.709 39.746 42 36.96 42H10.99a5 5 0 0 1-4.993-5V17h30.98a1 1 0 0 0 0-2H5.999v-4c0-1.108.89-2 1.997-2h3.016c0 2.212 1.786 4 3.995 4a1 1 0 0 0 0-2 1.995 1.995 0 0 1-1.997-2V7c0-1.108.89-2 1.997-2s1.998.892 1.998 2h-.76a1 1 0 0 0 0 2H28.97c0 2.212 1.785 4 3.995 4a1 1 0 0 0 0-2 1.995 1.995 0 0 1-1.998-2v-.8a1 1 0 0 0 0-.4z"/></g></svg>