<svg xmlns="http://www.w3.org/2000/svg" width="48" height="48" fill="none"><path id="icon" fill="currentColor" fill-rule="evenodd" d="M7 7.785c-1.602 0-3 1.395-3 3.25v25.5q0 .208.023.409L16.354 23.88l-9.903-8.019a1 1 0 1 1 1.258-1.554L21.482 25.46a3.984 3.984 0 0 0 5.027 0l.002-.002L44 11.308v-.273c0-1.855-1.398-3.25-3-3.25h-4.16a1 1 0 1 1 0-2H41c2.818 0 5 2.405 5 5.25v25.5c0 2.845-2.182 5.25-5 5.25H7c-2.818 0-5-2.405-5-5.25v-25.5c0-2.845 2.182-5.25 5-5.25h21.78a1 1 0 1 1 0 2zm10.913 17.358L4.934 38.893A2.9 2.9 0 0 0 7 39.784h34c.784 0 1.52-.334 2.066-.893l-5.313-5.63a1 1 0 1 1 1.454-1.373l4.77 5.055q.023-.2.023-.409V13.881l-12.357 9.997 4.924 5.22a1 1 0 0 1-1.455 1.373l-5.029-5.33-2.311 1.87h-.002a5.984 5.984 0 0 1-7.55 0h-.001z" clip-rule="evenodd"/></svg>