<svg xmlns="http://www.w3.org/2000/svg" width="48" height="48" fill="none"><path id="icon" fill="currentColor" fill-rule="evenodd" d="M9 4a1 1 0 0 0 0 2h2.023a21.91 21.91 0 0 0 10.843 17.914l.148.086-.148.087A21.91 21.91 0 0 0 11.023 42H9a1 1 0 1 0 0 2h30a1 1 0 1 0 0-2h-2.023a21.91 21.91 0 0 0-10.843-17.914L25.986 24l.148-.087A21.91 21.91 0 0 0 36.977 6H39a1 1 0 1 0 0-2h-6.5a1 1 0 1 0 0 2h2.475a19.91 19.91 0 0 1-9.85 16.186L24 22.844l-1.126-.657A19.91 19.91 0 0 1 13.025 6H27a1 1 0 1 0 0-2zm16.126 21.814A19.91 19.91 0 0 1 34.975 42h-21.95a19.91 19.91 0 0 1 9.85-16.186L24 25.157z" clip-rule="evenodd"/></svg>