<svg xmlns="http://www.w3.org/2000/svg" width="48" height="48" fill="none"><path id="icon" fill="currentColor" fill-rule="evenodd" d="M22 2.955C11.48 2.955 2.955 11.48 2.955 22S11.48 41.045 22 41.045 41.046 32.52 41.046 22c0-5.26-2.13-10.02-5.578-13.468a1 1 0 0 1 1.415-1.414A20.98 20.98 0 0 1 43.046 22c0 11.625-9.42 21.045-21.045 21.045S.954 33.625.954 22 10.375.955 22.001.955a1 1 0 1 1 0 2M18.45 18.45a5.015 5.015 0 0 1 7.091 0 1 1 0 0 0 1.414-1.414 7.015 7.015 0 1 0 0 9.919 1 1 0 0 0-1.414-1.414 5.015 5.015 0 0 1-7.09-7.091M23.432 22a1.432 1.432 0 1 1-2.863 0 1.432 1.432 0 0 1 2.863 0M9.971 22c0-6.645 5.384-12.03 12.03-12.03 6.644 0 12.029 5.385 12.029 12.03S28.645 34.03 22 34.03a11.99 11.99 0 0 1-8.504-3.526 1 1 0 0 0-1.414 1.415A13.99 13.99 0 0 0 22 36.029c7.75 0 14.03-6.28 14.03-14.029 0-7.75-6.28-14.03-14.03-14.03S7.97 14.25 7.97 22a1 1 0 1 0 2.001 0" clip-rule="evenodd"/></svg>