<svg xmlns="http://www.w3.org/2000/svg" width="48" height="48" fill="none"><path id="icon" fill="currentColor" d="M29.2521 29.6367c0 4.6895 3.7552 8.4893 8.3888 8.4893 4.6342 0 8.3894-3.7998 8.3894-8.4893s-3.7552-8.4893-8.3888-8.4893c-1.4467 0-2.808.3723-3.998 1.027a.787.787 90 01-1.0739-.3215.806.806 90 01.3176-1.0867 9.8233 9.8233 90 014.7542-1.2207c1.1738 0 2.3001.2048 3.346.5816V9.6184H36.6251a.8037.8037 90 01-.8015-.8082c0-.4465.3589-.8076.8015-.8076h4.3624v-1.325c0-2.5669-1.8765-4.5098-4.0136-4.5098h-30.7926c-2.1466 0-4.0141 1.9418-4.0141 4.5098v1.325H30.9265c.4426 0 .8015.3617.8015.8076 0 .4465-.3589.8082-.8015.8082H2.1673v18.5604c0 2.568 1.8675 4.5098 4.0136 4.5098h17.544c.4917 0 .8908.4019.8908.898 0 .4956-.3991.8975-.8908.8975H6.1808c-3.2785 0-5.7946-2.9023-5.7946-6.3053V6.6776c0-3.4024 2.5161-6.3053 5.7946-6.3053h30.7931c3.2668 0 5.7946 2.9012 5.7946 6.3053v13.781c0 .1635-.0435.317-.1194.4493a10.1079 10.1079 90 014.9647 8.7287c0 5.5741-4.464 10.0912-9.9723 10.0912S27.6692 35.2108 27.6692 29.6372c0-1.7135.4225-3.3349 1.1738-4.7498a.787.787 90 011.0722-.3265c.3851.2093.5302.6949.3232 1.085a8.4837 8.4837 90 00-.9857 3.9913m-.0966-4.5801a.4465.4465 90 01.0837-.1111.4465.4465 90 00-.0692.096 9.7451 9.7451 90 00-1.1313 4.5801c0 5.376 4.3049 9.7328 9.6173 9.7328 2.6528 0 5.0551-1.0867 6.7948-2.8437-1.7414 1.766-4.1492 2.8588-6.8093 2.8588-5.3129 0-9.6179-4.3568-9.6179-9.7328 0-1.6538.4074-3.216 1.1319-4.5801m3.7256-3.3751a.4465.4465 90 01.082-.5313.4465.4465 90 00-.067.5163.4353.4353 90 00.5927.1775 8.6177 8.6177 90 014.1671-1.07c4.8301 0 8.7433 3.9606 8.7433 8.8476 0 2.4474-.9807 4.6621-2.5669 6.2634a8.8744 8.8744 90 002.5524-6.2484c0-4.8876-3.9137-8.8476-8.7433-8.8476-1.5075 0-2.9269.3873-4.1671 1.07a.4353.4353 90 01-.5933-.1775m.9611 11.7985a.9209.9209 90 01.0017-1.2921l2.52-2.5457-2.506-2.5418a.9209.9209 90 01.0017-1.2921.8953.8953 90 011.277.0011l2.5021 2.5384 2.506-2.5529a.8953.8953 90 011.277-.0039.9209.9209 90 01.0045 1.2921l-2.5072 2.5535 2.5183 2.5317a.9209.9209 90 01.0045 1.2921.8953.8953 90 01-1.2765.0045l-2.5211-2.534-2.525 2.5501a.8953.8953 90 01-1.277-.0011M5.9319 6.4164a1.0733 1.0733 90 100-2.1466 1.0733 1.0733 90 000 2.1466m4.6515-1.0733a1.0733 1.0733 90 11-2.1472 0 1.0733 1.0733 90 012.1472 0m2.5044 1.0733a1.0733 1.0733 90 100-2.1466 1.0733 1.0733 90 000 2.1466"/></svg>