<svg xmlns="http://www.w3.org/2000/svg" width="48" height="48" fill="none"><path id="icon" fill="currentColor" d="M21.886 3.87a3 3 0 0 1 4.23.002L32 9.732V7.16a2 2 0 0 1 2-1.996h3a2 2 0 0 1 2 1.996v9.535l1.877 1.826.008.008.02.02A3.96 3.96 0 0 1 42 21.289v19.726a3.99 3.99 0 0 1-4 3.987H28a1 1 0 0 1-1-1V30.066h-6v13.936a1 1 0 0 1-1 1H10a3.99 3.99 0 0 1-4-3.988V21.29a3.96 3.96 0 0 1 1.115-2.76l8.47-8.414a1 1 0 0 1 1.41 1.418l-8.46 8.403c-.347.37-.535.847-.535 1.353v19.725a1.99 1.99 0 0 0 2 1.988h9v-12.94a2 2 0 0 1 2-1.996h6a2 2 0 0 1 2 1.995v12.94h9c1.112 0 2-.89 2-1.986V21.289c0-.504-.187-.98-.533-1.35l-2.164-2.105A1 1 0 0 1 37 17.12V7.164h-3v4.559l.706.702a1 1 0 1 1-1.412 1.418l-.992-.989-.008-.007-7.59-7.558a1 1 0 0 0-1.408 0l-.003.003-2.59 2.56a1 1 0 1 1-1.406-1.424z"/></svg>