<svg xmlns="http://www.w3.org/2000/svg" width="48" height="48" fill="none"><g id="icon" fill="currentColor"><path d="M37.558 4H12.561a6.45 6.45 0 0 0-4.553 1.891 6.46 6.46 0 0 0-1.888 4.557v9.337a1.017 1.017 0 1 0 2.034 0v-9.337a4.414 4.414 0 0 1 4.407-4.412h24.997a4.415 4.415 0 0 1 4.408 4.412V33.41a4.417 4.417 0 0 1-4.408 4.413h-8.876a1.018 1.018 0 0 0 0 2.036h8.876a6.45 6.45 0 0 0 4.553-1.891A6.47 6.47 0 0 0 44 33.41V10.448a6.46 6.46 0 0 0-1.89-4.556A6.44 6.44 0 0 0 37.559 4"/><path d="m7.79 34.85-.968 2.48a4.9 4.9 0 0 0 .12 3.826A4.89 4.89 0 0 0 11.377 44a4.905 4.905 0 0 0 4.536-3.097l.717-1.812h1.711a3.74 3.74 0 0 0 3.404-2.208l.679-1.494h1.706a2.93 2.93 0 0 0 2.692-1.774l3.092-7.195a2.625 2.625 0 0 0-2.407-3.665H10.31c-1.948 0-3.786.9-4.983 2.441a6.322 6.322 0 0 0 2.463 9.666zm6.237 5.308a2.845 2.845 0 0 1-5.242.135 2.84 2.84 0 0 1-.062-2.219l1.068-2.74c.176.015.346.053.524.053l5.595.002zm5.867-4.106c-.273.61-.879 1-1.548 1.002h-.904l.661-1.67h2.09zm-9.577-11.268 17.182-.001c.199 0 .385.1.494.265a.6.6 0 0 1 .05.559l-3.093 7.195a.9.9 0 0 1-.826.543H10.31a4.28 4.28 0 0 1-4.28-4.285 4.283 4.283 0 0 1 4.28-4.284zM30.1 17.63v-5.759c0-.561-.456-1.018-1.016-1.018-.561 0-1.017.457-1.017 1.018v5.76a1.017 1.017 0 1 0 2.034 0M24.151 17.63v-5.759a1.017 1.017 0 1 0-2.034 0v5.76a1.018 1.018 0 1 0 2.034 0M18.2 17.63v-5.759a1.018 1.018 0 1 0-2.034 0v5.76a1.018 1.018 0 1 0 2.034 0M35.04 25.025c.56 0 1.017-.455 1.017-1.018V11.87a1.018 1.018 0 1 0-2.034 0v12.135a1.02 1.02 0 0 0 1.016 1.019M34.023 28.845a1.017 1.017 0 1 0 2.033 0v-1.337a1.016 1.016 0 1 0-2.033.001z"/></g></svg>