<svg xmlns="http://www.w3.org/2000/svg" width="48" height="48" fill="none"><path id="icon" fill="currentColor" fill-rule="evenodd" d="M26.357 10.945c.688 0 1.296.419 1.51 1.034l.017.053 7.677 25.165q.028.09.027.179h13.223c.38 0 .689.288.689.644 0 .344-.286.624-.648.644l-.04.001H30.452c-.38 0-.688-.288-.688-.645 0-.343.287-.624.648-.643l.04-.001h3.745l-3.44-11.274-16.072 6.988-1.325 4.286h1.486c.377 0 .682.288.682.644 0 .344-.284.624-.643.644l-.04.001H6.83c-.377 0-.683-.288-.683-.645 0-.343.284-.624.643-.643l.04-.001h5.14a.6.6 0 0 1 .018-.145l.01-.036 7.78-25.168C19.97 11.404 21 11 21.242 10.946l.06-.001H26ZM1.92 37.375c.369 0 .668.29.668.645a.655.655 0 0 1-.629.644l-.04.001H.67A.657.657 0 0 1 0 38.02c0-.343.278-.624.63-.643l.039-.001zm27.592-15.358-13.122 5.56-1.186 3.84 15.164-6.594zm-1.4-4.587-10.017 4.631-1.209 3.911 12.25-5.19zm-1.755-5.196h-5.054a.23.23 0 0 0-.209.13l-.009.025-2.464 7.97 9.102-4.208-1.148-3.761a.22.22 0 0 0-.19-.154z" clip-rule="evenodd"/></svg>