<svg xmlns="http://www.w3.org/2000/svg" width="48" height="48" fill="none"><g id="icon" fill="currentColor"><path d="M40.589 18.527c2.719-2.72 2.636-7.715-.849-11.2-3.485-3.486-8.481-3.568-11.2-.85a1.08 1.08 0 0 1-1.528-1.527c3.73-3.73 10.104-3.302 14.255.849s4.579 10.526.849 14.255l-6.788 6.789a1.08 1.08 0 1 1-1.528-1.528zM21.92 10.042a1.08 1.08 0 1 1 1.528 1.527l-3.394 3.394c-1.304 1.304-1.812 3.373-1.588 5.587.224 2.212 1.161 4.338 2.437 5.614a1.08 1.08 0 1 1-1.528 1.527c-1.694-1.694-2.794-4.32-3.058-6.923-.263-2.601.29-5.412 2.21-7.332z"/><path d="M6.478 28.54c-2.72 2.719-2.637 7.715.848 11.2 3.486 3.485 8.482 3.568 11.2.849l8.486-8.486c1.304-1.304 1.812-3.372 1.588-5.587-.224-2.211-1.16-4.338-2.436-5.613a1.08 1.08 0 1 1 1.527-1.527c1.694 1.694 2.794 4.319 3.058 6.923.263 2.6-.29 5.412-2.21 7.332l-8.485 8.485c-3.73 3.73-10.104 3.303-14.255-.849-4.152-4.15-4.578-10.525-.849-14.255l6.789-6.788a1.08 1.08 0 1 1 1.527 1.527z"/></g></svg>