<svg xmlns="http://www.w3.org/2000/svg" width="48" height="48" fill="none"><g id="icon" fill="currentColor"><path fill-rule="evenodd" d="M15.055 35.7c-1.098.631-2.679.203-3.475-1.172l-1.692-2.922a.76.76 0 0 1 .121-.907l.004-.004c1.544-1.628 1.793-4.231.56-6.36s-3.618-3.216-5.805-2.697h-.005a.76.76 0 0 1-.848-.348L2.223 18.37c-.796-1.376-.378-2.955.72-3.588l22.028-12.68c1.099-.633 2.68-.204 3.476 1.172l1.692 2.921a.76.76 0 0 1-.122.907l-.003.004c-1.544 1.628-1.793 4.231-.56 6.36s3.61 3.22 5.806 2.697h.004a.76.76 0 0 1 .848.348l1.107 1.911c-3.979.68-7.006 4.127-7.006 8.279 0 4.64 3.78 8.4 8.444 8.4s8.443-3.76 8.443-8.4c0-1.447-.37-2.812-1.022-4.005a.67.67 0 0 0-.909-.267.665.665 0 0 0-.269.904 7 7 0 0 1 .86 3.368c0 3.903-3.18 7.066-7.103 7.066-3.924 0-7.103-3.163-7.103-7.066s3.18-7.066 7.103-7.066c1.209 0 2.347.3 3.34.83a.67.67 0 0 0 .907-.272.665.665 0 0 0-.273-.903 8.4 8.4 0 0 0-3.717-.985l-.645-1.088-.846-1.461a2.275 2.275 0 0 0-2.518-1.06c-1.476.35-3.208-.374-4.14-1.984s-.69-3.472.348-4.568a2.27 2.27 0 0 0 .337-2.703l-1.692-2.922C28.617.546 26.158-.325 24.214.794L2.186 13.474C.243 14.593-.229 17.152.912 19.124l1.692 2.921a2.274 2.274 0 0 0 2.517 1.06c1.47-.347 3.209.375 4.14 1.984.932 1.61.691 3.471-.347 4.568a2.27 2.27 0 0 0-.337 2.703l1.692 2.922c1.141 1.972 3.6 2.843 5.544 1.725l11.623-6.71a.754.754 0 0 0 .276-1.03.76.76 0 0 0-1.034-.276z" clip-rule="evenodd"/><path d="M26.982 23.598a.76.76 0 0 1-1.034-.277L19.873 12.83a.754.754 0 0 1 .277-1.031.76.76 0 0 1 1.034.276l6.075 10.492a.754.754 0 0 1-.277 1.03M36.522 23.501a.767.767 0 0 0-1.08-.001.76.76 0 0 0-.002 1.076l2.134 2.126-2.12 2.124a.76.76 0 0 0 .003 1.075c.3.296.784.295 1.081-.003l2.119-2.122 2.136 2.112c.3.296.784.294 1.081-.004a.76.76 0 0 0-.003-1.075l-2.136-2.111 2.124-2.108a.76.76 0 0 0 0-1.075.767.767 0 0 0-1.08-.002l-2.127 2.111z"/></g></svg>