<svg xmlns="http://www.w3.org/2000/svg" width="48" height="48" fill="none"><path id="icon" fill="currentColor" fill-rule="evenodd" d="M31.229 3.728A1.016 1.016 0 0 0 30.21 3a1.01 1.01 0 0 0-.966.766l-.005.014a1 1 0 0 1-.05.13 2.3 2.3 0 0 1-.337.527c-.35.42-1.037.99-2.38 1.339a1 1 0 0 0-.127.042c-1.295.311-2.427.221-3.699.106l-.097-.009c-1.27-.115-2.707-.246-4.334.178-1.663.432-2.933 1.28-3.778 2.005a10 10 0 0 0-.971.954 7 7 0 0 0-.327.398l-.017.023a1 1 0 0 0-.163.336.93.93 0 0 0 .004.486l7.226 26.133a22.6 22.6 0 0 0-12.933 6.947.95.95 0 0 0 .09 1.38c.422.357 1.068.32 1.441-.085 3.746-4.057 9.167-6.598 15.208-6.598 2.75 0 5.373.527 7.771 1.488.52.208 1.12-.027 1.337-.525.218-.498-.027-1.07-.548-1.279a23 23 0 0 0-8.56-1.64q-.889 0-1.76.066l-7.166-25.916c.17-.19.415-.44.73-.712.69-.59 1.685-1.245 2.952-1.575 1.26-.328 2.374-.229 3.703-.108 1.31.118 2.81.254 4.553-.198q.075-.02.144-.049c1.191-.328 2.053-.819 2.67-1.34l2.388 8.646a7 7 0 0 1-.566.66c-.534.547-1.253 1.09-2.1 1.31-.815.213-1.751.144-3.036.048l-.356-.026c-1.398-.101-3.06-.182-4.863.285-.545.141-.867.678-.72 1.2.148.52.71.828 1.254.687 1.443-.374 2.807-.321 4.175-.222l.403.03c1.192.092 2.5.192 3.68-.115 1.359-.354 2.39-1.181 3.056-1.861a8.7 8.7 0 0 0 .981-1.208q.038-.056.057-.089l.017-.027.005-.008.002-.004.002-.002a.94.94 0 0 0 .1-.735zm2.084 11.374.887.486zm2.254 25.251c.33-.438.968-.537 1.426-.222a22.6 22.6 0 0 1 3.75 3.243.95.95 0 0 1-.087 1.38 1.054 1.054 0 0 1-1.442-.084 20.5 20.5 0 0 0-3.416-2.952.95.95 0 0 1-.231-1.365" clip-rule="evenodd"/></svg>