<svg xmlns="http://www.w3.org/2000/svg" width="48" height="48" fill="none"><path id="icon" fill="currentColor" fill-rule="evenodd" d="M24 4.91C13.455 4.91 4.91 13.454 4.91 24S13.454 43.09 24 43.09 43.09 34.546 43.09 24c0-3.292-.835-6.39-2.308-9.1a.954.954 0 1 1 1.678-.91A20.9 20.9 0 0 1 45 24c0 11.6-9.4 21-21 21S3 35.6 3 24 12.4 3 24 3c3.568 0 6.94.89 9.883 2.471a.955.955 0 0 1-.904 1.682A18.9 18.9 0 0 0 24 4.91m-1.25 27.84a1.25 1.25 0 1 1 2.5 0 1.25 1.25 0 0 1-2.5 0M25 14.951c0-.525-.448-.951-1-.951s-1 .426-1 .951V27.05c0 .525.448.951 1 .951s1-.426 1-.951z" clip-rule="evenodd"/></svg>