<svg xmlns="http://www.w3.org/2000/svg" width="48" height="48" fill="none"><path id="icon" fill="currentColor" fill-rule="evenodd" d="M19 4c-.548 0-1 .452-1 1v3h12V5c0-.548-.452-1-1-1zm-3 1c0-1.652 1.348-3 3-3h10c1.652 0 3 1.348 3 3v3.1h9a1 1 0 1 1 0 2H7a1 1 0 0 1 0-2h9zm-5.002 8.936a1 1 0 0 0-1.996.129l1.82 28.189A4 4 0 0 0 14.81 46h18.38a4 4 0 0 0 3.988-3.745v-.002l1.82-28.188a1 1 0 0 0-1.996-.13l-1.82 28.19v.002A2 2 0 0 1 33.19 44H14.81a2 2 0 0 1-1.992-1.873zM25 17.49a1 1 0 1 0-2 0v21.02a1 1 0 1 0 2 0zm-8.047-.999a1 1 0 0 1 1.046.952l1 21.02a1 1 0 0 1-1.998.095l-1-21.02a1 1 0 0 1 .951-1.047m15.046 1.047A1 1 0 0 0 30 17.443l-1 21.02a1 1 0 1 0 1.998.095z" clip-rule="evenodd"/></svg>