<svg xmlns="http://www.w3.org/2000/svg" width="48" height="48" fill="none"><path id="icon" fill="currentColor" fill-rule="evenodd" d="M24.447 4.106a1 1 0 0 0-.894 0l-19 9.5A1 1 0 0 0 4 14.5V43a1 1 0 0 0 1 1h38a1 1 0 0 0 1-1v-4.25a1 1 0 1 0-2 0V42H31.99V29.95A1.95 1.95 0 0 0 30.04 28H17.95A1.95 1.95 0 0 0 16 29.95V42H6V15.118l18-9 18 9V33.75a1 1 0 1 0 2 0V14.5a1 1 0 0 0-.553-.894zM23 30h-5v12h5zm2 12V30h4.99v12zM12 17a1 1 0 0 1 1-1h22a1 1 0 0 1 1 1v5a1 1 0 0 1-1 1H23a1 1 0 1 1 0-2h11v-3H14v3h2a1 1 0 1 1 0 2h-3a1 1 0 0 1-1-1z" clip-rule="evenodd"/></svg>