<svg xmlns="http://www.w3.org/2000/svg" width="48" height="48" fill="none"><path id="icon" fill="currentColor" fill-rule="evenodd" d="M23.981 4.65a1.176 1.176 0 0 0-2.104 1.053c.61 1.22.828 1.67.936 2.1.103.413.11.832.11 2.054a1.176 1.176 0 0 0 2.353 0V9.73c0-1.049 0-1.77-.181-2.499-.179-.712-.526-1.406-1.05-2.455zm-1.637 15.74c.714 0 1.329-.427 1.603-1.039q.598.56 1.195 1.157A47.5 47.5 0 0 1 29.12 25q-.558.27-1.076.6a1.176 1.176 0 0 0 1.266 1.982q.577-.368 1.213-.635.565.848 1 1.625c.653 1.171 1.039 2.142 1.181 2.861.07.357.071.604.046.76l-.014.07-.533.173a3 3 0 0 1-.444-.058c-.72-.142-1.691-.528-2.863-1.181-2.329-1.3-5.213-3.524-8.07-6.379-2.855-2.854-5.08-5.737-6.38-8.065-.655-1.17-1.04-2.142-1.182-2.861a3 3 0 0 1-.057-.41l.187-.57.055-.01c.155-.026.402-.025.76.045.72.142 1.69.528 2.862 1.182 1.309.73 2.791 1.75 4.346 3.012a1.754 1.754 0 0 0 .926 3.247m10.608 5.98q.338.54.626 1.057c.712 1.275 1.226 2.491 1.435 3.552.198 1.003.18 2.194-.638 3.03q-.121.15-.29.254c-.44.328-.954.477-1.477.516L4.731 43.88l-.004.001c-1.85.614-3.54-1.148-2.963-2.95l.002-.006 4.58-14.027q.074-.56.26-1.066c.22-.594.868-.904 1.465-.71l.084.024c.618.201.955.866.753 1.483l-.25.769c-.038.446-.006.99.122 1.614.208 1.017.656 2.164 1.356 3.29q.06.098.1.2l.001.003a11 11 0 0 0 1.72 1.924c2.541 2.252 5.315 2.661 7.055 2.315l9.484-3.097a20 20 0 0 1-.746-.396c-2.567-1.432-5.621-3.806-8.586-6.769s-5.34-6.016-6.772-8.582a20 20 0 0 1-.39-.732l-1.057 3.225a1.176 1.176 0 0 1-2.235-.733l2.149-6.561c.04-.652.247-1.293.755-1.8.837-.838 2.04-.857 3.05-.658 1.063.21 2.279.723 3.555 1.435 2.567 1.432 5.622 3.806 8.586 6.77 1.798 1.796 3.379 3.625 4.664 5.36A10 10 0 0 1 33.49 24c2.517 0 4.838.927 6.604 2.466a1.176 1.176 0 1 1-1.546 1.773 7.68 7.68 0 0 0-5.596-1.869M7.22 31.8c.239.547.522 1.094.85 1.633q.043.107.113.208a13.3 13.3 0 0 0 2.063 2.306 12.4 12.4 0 0 0 3.93 2.375l-10.17 3.32zm37.955.292a1.17 1.17 0 1 0 0-2.341 1.17 1.17 0 0 0 0 2.34m-12.824-21.68a1.176 1.176 0 0 0-2.334-.291 14.3 14.3 0 0 1-2.662 6.67 1.176 1.176 0 1 0 1.896 1.392 16.66 16.66 0 0 0 3.1-7.77m6.385 7.637a1.756 1.756 0 1 0 0-3.512 1.756 1.756 0 0 0 0 3.512m2.927-7.021a1.17 1.17 0 1 1-2.341-.001 1.17 1.17 0 0 1 2.34 0" clip-rule="evenodd"/></svg>