<svg xmlns="http://www.w3.org/2000/svg" width="48" height="48" fill="none"><path id="icon" fill="currentColor" fill-rule="evenodd" d="M28.604 3.976a1 1 0 0 0-.999.998v14.373a1 1 0 0 0 1.001.999l14.373-.03a1 1 0 0 0 .996-1c-.01-8.425-6.948-15.34-15.371-15.34m.999 14.37V6.011c6.536.492 11.835 5.777 12.336 12.31zm-23.63 7.335c0-8.629 6.856-15.784 15.372-16.27l-.073 16.266a1 1 0 0 0 .998 1.003h16.267c-.523 8.482-7.663 15.298-16.267 15.298-8.939 0-16.297-7.358-16.297-16.297M22.27 7.386c-10.042 0-18.294 8.253-18.294 18.295s8.252 18.295 18.294 18.295 18.295-8.252 18.295-18.295a1 1 0 0 0-.999-.999H23.274l.073-16.292a1 1 0 0 0-.999-1.004z" clip-rule="evenodd"/></svg>