<svg width="48" height="48" viewBox="0 0 48 48" fill="none" xmlns="http://www.w3.org/2000/svg">
<g id="icon" fill="currentColor">
<path d="M42 4H6C4.35 4 3 5.35 3 7V11C3 12.32 3.86 13.43 5.05 13.83L6.81 40.26C6.95 42.35 8.7 43.99 10.8 43.99H25.01C25.56 43.99 26.01 43.54 26.01 42.99C26.01 42.44 25.56 41.99 25.01 41.99H10.8C9.75 41.99 8.87 41.17 8.8 40.12L7.06 13.99H40.92L39.18 40.12C39.11 41.17 38.23 41.99 37.18 41.99H31.96C31.41 41.99 30.96 42.44 30.96 42.99C30.96 43.54 31.41 43.99 31.96 43.99H37.18C39.28 43.99 41.03 42.35 41.17 40.26L42.93 13.83C44.12 13.43 44.98 12.32 44.98 11V7C44.98 5.35 43.63 4 41.98 4H42ZM6 12C5.45 12 5 11.55 5 11V7C5 6.45 5.45 6 6 6H42C42.55 6 43 6.45 43 7V11C43 11.55 42.55 12 42 12H6Z"/>
<path d="M36 23V21C36 19.35 34.65 18 33 18H15C13.35 18 12 19.35 12 21V23C12 24.65 13.35 26 15 26H33C34.65 26 36 24.65 36 23ZM14 23V21C14 20.45 14.45 20 15 20H33C33.55 20 34 20.45 34 21V23C34 23.55 33.55 24 33 24H15C14.45 24 14 23.55 14 23Z"/>
</g>
</svg>
