<svg xmlns="http://www.w3.org/2000/svg" width="48" height="48" fill="none"><path id="icon" fill="currentColor" fill-rule="evenodd" d="M24 43.09C13.455 43.09 4.91 34.546 4.91 24c0-3.248.808-6.31 2.243-8.979a.955.955 0 0 0-1.682-.904A20.8 20.8 0 0 0 3 24c0 11.6 9.4 21 21 21s21-9.4 21-21S35.6 3 24 3c-3.62 0-7.03.92-10.01 2.54a.954.954 0 1 0 .91 1.678A19 19 0 0 1 24 4.909c10.545 0 19.09 8.546 19.09 19.091S34.546 43.09 24 43.09m-8.706-27.798a1 1 0 0 1 1.414.002l7.277 7.29 7.269-7.252a1 1 0 1 1 1.412 1.416l-7.264 7.247 7.303 7.256a1 1 0 0 1-1.41 1.418l-7.301-7.253-7.24 7.289a1 1 0 1 1-1.42-1.41l7.242-7.29-7.284-7.299a1 1 0 0 1 .002-1.414" clip-rule="evenodd"/></svg>