<svg xmlns="http://www.w3.org/2000/svg" width="48" height="48" fill="none"><path id="icon" fill="currentColor" fill-rule="evenodd" d="M37 44a7 7 0 0 0 7-7V11a7 7 0 0 0-7-7H11a7 7 0 0 0-7 7v13a1 1 0 1 0 2 0V11a5 5 0 0 1 5-5h26a5 5 0 0 1 5 5v26a5 5 0 0 1-5 5H11a4.98 4.98 0 0 1-3.515-1.444A4.98 4.98 0 0 1 6 37a1 1 0 1 0-2 0c0 1.947.796 3.71 2.078 4.978A6.98 6.98 0 0 0 11 44zM24.72 14c-.575 0-1.041.463-1.041 1.034 0 .572.466 1.035 1.04 1.035h5.837L14.305 32.234a1.03 1.03 0 0 0 0 1.463 1.044 1.044 0 0 0 1.47 0L31.92 17.639v5.212c0 .571.465 1.035 1.04 1.035.574 0 1.04-.464 1.04-1.035V16.07A2.074 2.074 0 0 0 31.92 14z" clip-rule="evenodd"/></svg>