
<svg width="48" height="48" viewBox="0 0 48 48" xmlns="http://www.w3.org/2000/svg">
    <path id="icon" fill="currentColor" d="M38.16 43.46C37.92 43.46 37.68 43.4 37.46 43.29L23.83 36.09 10.19 43.18C9.72 43.42 9.17 43.41 8.72 43.13 8.27 42.86 8 42.38 8 41.85V8C8 5.79 9.79 4 12 4H35.66C37.87 4 39.66 5.79 39.66 8V30.4C39.66 30.95 39.21 31.4 38.66 31.4 38.11 31.4 37.66 30.95 37.66 30.4V8C37.66 6.9 36.76 6 35.66 6H12C10.9 6 10 6.9 10 8V41.02L23.84 33.83 37.66 41.13V35.97C37.66 35.42 38.11 34.97 38.66 34.97 39.21 34.97 39.66 35.42 39.66 35.97V41.96C39.66 42.49 39.39 42.97 38.93 43.25 38.69 43.39 38.42 43.47 38.16 43.47V43.46Z"/>
</svg>
