<svg xmlns="http://www.w3.org/2000/svg" width="48" height="48" fill="none"><g id="icon" fill="currentColor"><path fill-rule="evenodd" d="M32.277 21.044a1 1 0 0 1 .707.956v8.88H35.1a1 1 0 0 1 0 2h-2.117v3.94a1 1 0 1 1-1.998 0v-3.94h-5.643a.999.999 0 0 1-.828-1.558l6.642-9.88a1 1 0 0 1 1.12-.398m-1.29 9.836v-5.603L27.22 30.88z" clip-rule="evenodd"/><path d="M22.152 22.875c-1.56-3.527-6.582-3.4-7.994.167l-.462 1.185a.998.998 0 1 0 1.861.726l.459-1.177c.766-1.93 3.471-1.982 4.309-.092a2.34 2.34 0 0 1-.215 2.284l-.002.002-7.3 10.53a1.001 1.001 0 0 0 .82 1.57h8.67a1 1 0 0 0 0-2h-6.76l6.21-8.957v-.002a4.34 4.34 0 0 0 .405-4.233z"/><path fill-rule="evenodd" d="M19.001 7h9.968c0-2.212 1.785-4 3.995-4a3.993 3.993 0 0 1 3.995 4h2.996A4.056 4.056 0 0 1 44 10.982v.02l-.05 25.892C44.003 40.796 40.861 44 36.96 44H10.99C7.134 44 4 40.862 4 37V11c0-2.212 1.785-4 3.995-4h3.016c0-2.212 1.786-4 3.995-4a3.993 3.993 0 0 1 3.995 4m13.963-2a1.995 1.995 0 0 0-1.998 2v.8a1 1 0 0 1 0 .4V9c0 1.108.892 2 1.998 2a1 1 0 0 1 0 2 3.993 3.993 0 0 1-3.995-4H16.245a1 1 0 0 1 0-2h.759c0-1.108-.891-2-1.998-2a1.995 1.995 0 0 0-1.997 2v2c0 1.108.89 2 1.997 2a1 1 0 0 1 0 2 3.993 3.993 0 0 1-3.995-4H7.995a1.995 1.995 0 0 0-1.998 2v4H36.98a1 1 0 0 1 0 2H5.998v20c0 2.758 2.239 5 4.993 5H36.96c2.786 0 5.035-2.291 4.994-5.085v-.017l.05-25.89A2.057 2.057 0 0 0 39.954 9h-5.733a1 1 0 0 1 0-2h.74c0-1.108-.892-2-1.998-2" clip-rule="evenodd"/></g></svg>