<svg xmlns="http://www.w3.org/2000/svg" width="48" height="48" fill="none" id="icon"><path fill="currentColor" fill-rule="evenodd" d="M24.005 4c-2.287 0-4.135 1.788-4.135 4v.326q-.81.196-1.578.5L17.09 6.408l-.003-.007c-.474-.935-1.625-1.377-2.643-.976l-3.317 1.31A1.99 1.99 0 0 0 9.92 9.14l1.812 6 .004.01-1.201 1.937a7.84 7.84 0 0 0-1.146 3.45l-.734 8.52-.001.014-.63 7.346C7.675 40.5 11.004 44 15.238 44h10.566c.571 0 1.034-.448 1.034-1s-.463-1-1.034-1H15.238c-3.024 0-5.402-2.5-5.152-5.417l.63-7.36.002-.013.732-8.507c.08-.919.373-1.802.86-2.59l2.325-3.748C16.32 11.657 19.353 10 22.62 10h2.77a9.5 9.5 0 0 1 6.199 2.287c.426.367 1.08.33 1.46-.082a.977.977 0 0 0-.086-1.412q-.56-.481-1.177-.887l1.305-2.627.005-.003 3.305 1.305.002.001.001.001.004.006.002.006-1.808 5.985a1 1 0 0 0-.037.193.98.98 0 0 0-.177 1.242l1.302 2.099c.487.788.78 1.67.86 2.59l1.364 15.879C38.164 39.5 35.785 42 32.762 42h-.91c-.57 0-1.034.448-1.034 1s.463 1 1.034 1h.91c4.234 0 7.563-3.5 7.213-7.583l-1.365-15.88a7.84 7.84 0 0 0-1.146-3.45l-1.024-1.651a1 1 0 0 0 .147-.296l1.81-5.99.001-.005c.29-.98-.227-2.01-1.189-2.405l-.014-.006-3.319-1.31c-1.017-.401-2.169.04-2.642.976l-1.26 2.535a11.7 11.7 0 0 0-1.834-.608V8c0-2.212-1.848-4-4.135-4m-10.813 8.837a11.2 11.2 0 0 1 3.266-3.085L15.23 7.28l-.006-.003-3.313 1.308v.014zM25.39 8h.683c0-1.108-.923-2-2.068-2s-2.068.892-2.068 2h3.453m-8.622 11c0-.552.463-1 1.034-1h12.406c.571 0 1.034.448 1.034 1s-.463 1-1.034 1H17.802c-.571 0-1.034-.448-1.034-1m0 8.33c0-.769.197-1.417.46-1.84.275-.443.511-.49.574-.49h12.406c.063 0 .299.047.575.49.263.423.46 1.071.46 1.84q0 .076.01.148L31.49 29h-7.484c-.57 0-1.034.448-1.034 1s.463 1 1.034 1H31.8l.477 3.072c-.012 1.2-.32 2.238-.76 2.949-.461.744-.955.979-1.308.979H17.802c-.352 0-.846-.235-1.308-.98-.44-.71-.748-1.748-.76-2.948L16.212 31h1.591c.57 0 1.034-.448 1.034-1s-.463-1-1.034-1h-1.281l.236-1.522a1 1 0 0 0 .011-.148M17.802 23c-1.074 0-1.872.698-2.346 1.46-.475.763-.742 1.75-.755 2.792l-1.023 6.6a1 1 0 0 0-.012.148c0 1.53.382 2.964 1.055 4.05.66 1.065 1.717 1.95 3.081 1.95h12.406c1.364 0 2.42-.885 3.081-1.95.673-1.086 1.055-2.52 1.055-4.05a1 1 0 0 0-.012-.148l-1.023-6.6c-.012-1.042-.28-2.03-.755-2.793-.473-.761-1.271-1.459-2.346-1.459z" clip-rule="evenodd"/></svg>