<svg xmlns="http://www.w3.org/2000/svg" width="48" height="48" fill="none"><path id="icon" fill="currentColor" fill-rule="evenodd" d="M24.007 4a6.01 6.01 0 0 0-4.998 2.65A5.96 5.96 0 0 0 17.987 10v5c0 3.315 2.69 6 6.02 6s6.02-2.685 6.02-6v-5c0-3.315-2.69-6-6.02-6m-6.655 1.53A8.01 8.01 0 0 1 24.007 2c4.431 0 8.02 3.575 8.02 8v5c0 4.425-3.589 8-8.02 8s-8.02-3.575-8.02-8v-5c0-1.655.503-3.199 1.365-4.47M7.535 37.926c1.918-7.288 8.544-12.676 16.462-12.676s14.554 5.387 16.472 12.676a1 1 0 0 1-.23.93 22 22 0 0 1-3.889 3.353 1 1 0 0 1-1.119-1.658 20 20 0 0 0 3.154-2.645C36.517 31.744 30.79 27.25 23.997 27.25c-6.792 0-12.51 4.493-14.377 10.655C13.269 41.656 18.353 44 24.007 44a20 20 0 0 0 4.644-.543 1 1 0 1 1 .46 1.946 22 22 0 0 1-5.104.597c-6.442 0-12.21-2.768-16.24-7.143a1 1 0 0 1-.232-.931m11.423-5.338a1 1 0 1 0-.994-1.736 12.37 12.37 0 0 0-5.237 5.865 1 1 0 1 0 1.84.786 10.37 10.37 0 0 1 4.39-4.915" clip-rule="evenodd"/></svg>