<svg xmlns="http://www.w3.org/2000/svg" width="48" height="48" fill="none"><path id="icon" fill="currentColor" fill-rule="evenodd" d="M23.252 6c-1.198 0-2.106.924-2.106 2v32c0 1.076.908 2 2.105 2h18.64c1.199 0 2.106-.924 2.106-2V17.59a1 1 0 0 1 2.003 0V40c0 2.244-1.868 4-4.108 4h-18.64c-2.24 0-4.109-1.756-4.109-4V8c0-2.244 1.868-4 4.108-4h18.64C44.133 4 46 5.756 46 8v2.59a1 1 0 0 1-2.003 0V8c0-1.076-.907-2-2.105-2zm-6.529 1.5a1 1 0 0 1-.718 1.218l-5.446 1.41c-1.142.297-1.77 1.41-1.483 2.444l7.943 28.641a1.002 1.002 0 0 1-1.93.534L7.147 13.108c-.603-2.165.736-4.352 2.908-4.916l5.448-1.41a1 1 0 0 1 1.22.717M5.047 23.743a1 1 0 1 0-.975-1.747c-1.97 1.096-2.67 3.558-1.51 5.487l8.076 13.5c.284.473.899.628 1.374.345a1 1 0 0 0 .345-1.372l-8.077-13.5-.001-.001c-.56-.931-.245-2.149.768-2.712" clip-rule="evenodd"/></svg>