<svg xmlns="http://www.w3.org/2000/svg" width="48" height="48"><path id="icon" fill="currentColor" fill-rule="evenodd" d="M2 19.409C2 13.104 7.156 8 13.5 8A11.51 11.51 0 0 1 24 14.75 11.51 11.51 0 0 1 34.5 8C40.844 8 46 13.104 46 19.409c0 6.5-3.88 10.853-6.503 13.794q-.333.373-.635.716a1 1 0 1 1-1.504-1.318q.3-.342.617-.697C40.623 28.92 44 25.114 44 19.409 44 14.224 39.756 10 34.5 10S25 14.224 25 19.409a1 1 0 1 1-2 0C23 14.224 18.756 10 13.5 10S4 14.224 4 19.409c0 4.934 2.804 9.85 6.83 13.958 3.92 4 8.873 7.1 13.109 8.578 2.757-.91 4.523-2.002 6.636-3.412a1 1 0 1 1 1.11 1.664c-2.249 1.5-4.25 2.742-7.453 3.755a1 1 0 0 1-.618-.005c-4.629-1.54-9.995-4.877-14.212-9.18C5.196 30.477 2 25.084 2 19.41" clip-rule="evenodd"/></svg>