<svg xmlns="http://www.w3.org/2000/svg" width="74" height="74" fill="none"><g id="icon"><path fill="currentColor" d="M 27.6597 44.7003 H 4.2681 A 4.2733 4.2733 90 0 1 0 40.4322 V 5.9844 a 4.2733 4.2733 90 0 1 4.2681 -4.2681 h 35.9546 a 4.2733 4.2733 90 0 1 4.2688 4.2681 v 21.8835 a 1.1312 1.1312 90 0 1 -2.2625 0 V 5.9851 a 2.0082 2.0082 90 0 0 -2.0056 -2.0063 H 4.2681 a 2.0082 2.0082 90 0 0 -2.0063 2.0063 v 34.4465 a 2.0082 2.0082 90 0 0 2.0056 2.0063 h 23.3916 a 1.1312 1.1312 90 0 1 0 2.2625 Z"/><path fill="currentColor" d="M 10.1805 5.4921 a 1.1312 1.1312 90 0 1 -1.1312 -1.1312 v -3.0162 a 1.1312 1.1312 90 0 1 2.2625 0 v 3.0162 c 0 0.6246 -0.5066 1.1312 -1.1312 1.1312 Z M 22.2448 5.4921 a 1.1312 1.1312 90 0 1 -1.1312 -1.1312 v -3.0162 a 1.1312 1.1312 90 0 1 2.2625 0 v 3.0162 c 0 0.6246 -0.5066 1.1312 -1.1312 1.1312 Z M 34.3116 5.4921 a 1.1312 1.1312 90 0 1 -1.1312 -1.1312 v -3.0162 a 1.1312 1.1312 90 0 1 2.2625 0 v 3.0162 c 0 0.6246 -0.5066 1.1312 -1.1312 1.1312 Z M 41.8521 11.5219 H 2.64 a 1.1312 1.1312 90 0 1 0 -2.2625 h 39.2128 a 1.1312 1.1312 90 0 1 0 2.2625 Z M 13.1968 25.1034 h -6.0324 A 1.1312 1.1312 90 0 1 6.0324 23.9721 v -6.0324 c 0 -0.6246 0.5059 -1.1312 1.1312 -1.1312 h 6.0324 c 0.6246 0 1.1312 0.5059 1.1312 1.1312 v 6.0324 c 0 0.6246 -0.5066 1.1312 -1.1312 1.1312 Z m -4.9012 -2.2625 H 12.0649 V 19.0703 H 8.2962 v 3.7706 Z M 13.1968 37.1689 h -6.0324 A 1.1312 1.1312 90 0 1 6.0324 36.0376 v -6.0324 c 0 -0.6246 0.5059 -1.1312 1.1312 -1.1312 h 6.0324 c 0.6246 0 1.1312 0.5066 1.1312 1.1312 v 6.0324 c 0 0.6246 -0.5066 1.1312 -1.1312 1.1312 Z m -4.9012 -2.2618 H 12.0649 v -3.7706 H 8.2962 v 3.7706 Z M 25.261 37.1689 h -6.0324 a 1.1312 1.1312 90 0 1 -1.1319 -1.1312 v -6.0324 c 0 -0.6246 0.5066 -1.1312 1.1312 -1.1312 h 6.0324 c 0.6253 0 1.1319 0.5066 1.1319 1.1312 v 6.0324 c 0 0.6246 -0.5066 1.1312 -1.1312 1.1312 Z m -4.9018 -2.2618 H 24.1297 v -3.7706 h -3.7706 v 3.7706 Z M 25.261 25.1034 h -6.0324 a 1.1312 1.1312 90 0 1 -1.1319 -1.1312 v -6.0324 c 0 -0.6246 0.5066 -1.1312 1.1312 -1.1312 h 6.0324 c 0.6253 0 1.1319 0.5059 1.1319 1.1312 v 6.0324 c 0 0.6246 -0.5066 1.1312 -1.1312 1.1312 Z m -4.9018 -2.2625 H 24.1297 V 19.0703 h -3.7706 v 3.7706 Z M 37.3278 25.1034 h -6.0324 a 1.1312 1.1312 90 0 1 -1.1312 -1.1312 v -6.0324 c 0 -0.6246 0.5059 -1.1312 1.1312 -1.1312 h 6.0324 c 0.6246 0 1.1312 0.5059 1.1312 1.1312 v 6.0324 c 0 0.6246 -0.5059 1.1312 -1.1312 1.1312 Z m -4.9012 -2.2625 h 3.7699 V 19.0703 h -3.7699 v 3.7706 Z M 38.8359 47.7211 c -4.7812 0 -8.6724 -3.8899 -8.6724 -8.6711 c 0 -4.7818 3.8912 -8.6724 8.6724 -8.6724 c 4.7818 0 8.6724 3.8906 8.6724 8.6724 c 0 4.7812 -3.8906 8.6718 -8.6724 8.6718 Z m 0 -15.0811 c -3.5338 0 -6.4093 2.8755 -6.4093 6.4099 c 0 3.5338 2.8755 6.4093 6.4093 6.4093 c 3.5345 0 6.4099 -2.8755 6.4099 -6.4093 c 0 -3.5345 -2.8755 -6.4099 -6.4099 -6.4099 Z"/><path fill="currentColor" d="M 38.8365 43.1955 a 1.1312 1.1312 90 0 1 -1.1312 -1.1312 v -6.0324 a 1.1312 1.1312 90 0 1 2.2625 0 v 6.0324 c 0 0.6246 -0.5066 1.1312 -1.1312 1.1312 Z"/><path fill="currentColor" d="M 41.8528 40.1825 h -6.0324 a 1.1312 1.1312 90 0 1 0 -2.2625 h 6.0324 a 1.1312 1.1312 90 0 1 0 2.2625 Z"/></g></svg>