<svg xmlns="http://www.w3.org/2000/svg" width="375" height="156"><g id="icon" fill="currentColor"><path d="M12.134 122c1.27 0 2.312.984 2.413 2.234l.007.199v5.319h5.316a2.427 2.427 0 0 1 2.43 2.424c0 1.27-.981 2.313-2.23 2.414l-.2.009-5.316-.001v6.288a2.426 2.426 0 0 1-2.419 2.434 2.425 2.425 0 0 1-2.413-2.233l-.009-.199v-6.29H3.43A2.426 2.426 0 0 1 1 132.176c0-1.271.981-2.314 2.23-2.415l.2-.007 6.283-.002v-5.319a2.43 2.43 0 0 1 2.42-2.433M41 109.949A4.947 4.947 0 0 1 45.945 105a4.947 4.947 0 0 1 4.944 4.949 4.947 4.947 0 0 1-4.944 4.949A4.947 4.947 0 0 1 41 109.949M320.806 39.62a3.01 3.01 0 0 0-2.993-2.77 3.01 3.01 0 0 0-3.003 3.016v6.6h-7.795l-.246.01A3.01 3.01 0 0 0 304 49.472a3.01 3.01 0 0 0 3.015 3.004h7.796v7.802l.009.247a3.01 3.01 0 0 0 2.993 2.771 3.01 3.01 0 0 0 3.002-3.018v-7.802l6.595.001.247-.01a3.01 3.01 0 0 0 2.769-2.995 3.01 3.01 0 0 0-3.016-3.006h-6.594v-6.6zM367.276 2.914C367.185 1.842 366.242 1 365.093 1c-1.21 0-2.191.933-2.191 2.085v4.559l-5.684.001-.179.006c-1.131.087-2.019.98-2.019 2.07 0 1.146.984 2.075 2.198 2.075h5.684l.002 5.392.007.17c.092 1.073 1.033 1.915 2.182 1.915 1.209 0 2.189-.934 2.189-2.086v-5.39h4.81l.181-.005c1.13-.087 2.019-.981 2.019-2.071 0-1.147-.985-2.077-2.2-2.077h-4.81l.002-4.56zM355.02 74.205a4.946 4.946 0 0 1 4.944-4.949 4.947 4.947 0 0 1 4.945 4.95 4.947 4.947 0 0 1-4.945 4.948 4.946 4.946 0 0 1-4.944-4.949M184.189 14.058 169.181 49.76l-.004.01c-1.493 3.52-4.807 5.996-8.69 6.317h-.009l-38.355 3.311c-3.024.26-4.334 4.096-1.971 6.154l29.104 25.371.008.007a10.41 10.41 0 0 1 3.32 10.226l-.001.005-8.732 37.745c-.716 3.128 2.605 5.381 5.15 3.839L182 122.732l.02-.012a10.45 10.45 0 0 1 10.737 0l.02.012 32.998 20.013c2.537 1.537 5.868-.732 5.152-3.834l-8.733-37.75-.001-.004c-.885-3.78.428-7.682 3.301-10.21l.013-.011 29.119-25.385c2.343-2.038 1.032-5.895-1.97-6.153l-9.988-.872a3.46 3.46 0 0 1-3.151-3.746 3.464 3.464 0 0 1 3.755-3.142l9.977.87c9.196.791 12.809 12.27 5.936 18.252m-.003.003-29.101 25.369-.006.005c-1.004.888-1.421 2.21-1.131 3.448l.003.01 8.735 37.761c2.055 8.892-7.577 16.106-15.507 11.298l-32.98-20.001-.008-.006a3.5 3.5 0 0 0-3.597 0l-.009.006-32.978 20.001c-7.922 4.802-17.562-2.36-15.509-11.293l8.736-37.765.003-.011a3.51 3.51 0 0 0-1.11-3.43l-.015-.012-29.115-25.382c-6.924-6.03-3.242-17.464 5.932-18.252l38.372-3.312.016-.002c1.242-.101 2.36-.9 2.877-2.116l.002-.003 15.005-35.694c3.571-8.485 15.601-8.536 19.152.008l.003.008 14.998 35.678.002.003c.517 1.217 1.635 2.015 2.877 2.116l.022.002 7.14.628a3.46 3.46 0 0 1 3.149 3.747 3.464 3.464 0 0 1-3.757 3.141l-7.119-.626h-.012c-3.882-.322-7.194-2.798-8.687-6.318l-.004-.01-15.009-35.703-.006-.015c-1.167-2.814-5.145-2.86-6.357.017"/></g></svg>