<svg xmlns="http://www.w3.org/2000/svg" width="88" height="88" fill="none"><path id="icon" fill="currentColor" fill-rule="evenodd" d="m42.299 10.304-7.938 18.933-.002.005a5.49 5.49 0 0 1-4.596 3.35h-.005L9.472 34.35c-1.6.137-2.293 2.172-1.043 3.263l15.393 13.455.004.004a5.53 5.53 0 0 1 1.757 5.423l-4.62 20.02c-.378 1.658 1.378 2.853 2.725 2.035L41.14 67.936l.01-.007a5.51 5.51 0 0 1 5.68 0l.01.007 17.453 10.613c1.342.815 3.104-.388 2.725-2.033L62.4 56.496a5.55 5.55 0 0 1 1.746-5.416l.006-.006L79.554 37.61c1.239-1.08.546-3.126-1.042-3.262l-5.283-.463a1.834 1.834 0 0 1 .32-3.653l5.276.462c4.864.42 6.775 6.507 3.14 9.68m0 0L66.571 53.828l-.003.003a1.87 1.87 0 0 0-.598 1.829l.002.005 4.62 20.025c1.087 4.716-4.008 8.542-8.202 5.992L44.947 71.076l-.005-.003a1.85 1.85 0 0 0-1.902 0l-.005.003-17.442 10.607c-4.19 2.546-9.29-1.251-8.203-5.99l4.62-20.027.002-.005a1.86 1.86 0 0 0-.587-1.82l-.008-.006-15.4-13.46c-3.661-3.199-1.714-9.262 3.138-9.68l20.296-1.756.008-.001a1.83 1.83 0 0 0 1.522-1.122l7.937-18.931c1.889-4.5 8.252-4.527 10.13.004l.001.004 7.933 18.92c.274.646.866 1.071 1.523 1.125h.011l3.777.334a1.834 1.834 0 0 1-.322 3.653l-3.765-.332h-.007a5.49 5.49 0 0 1-4.594-3.35l-.002-.006-7.939-18.934-.003-.008c-.617-1.493-2.721-1.517-3.362.008" clip-rule="evenodd"/></svg>