<svg xmlns="http://www.w3.org/2000/svg" width="48" height="48"><g id="icon" fill="currentColor"><path fill-rule="evenodd" d="M40.267 8.283c.39.377.39.99 0 1.366L14.974 34.087l-.036.034-5.791 5.596a1.025 1.025 0 0 1-1.414 0 .943.943 0 0 1 0-1.366l4.89-4.725c-2.95-1.735-5.426-3.837-7.214-5.566a42 42 0 0 1-2.354-2.463 30 30 0 0 1-.794-.94l-.044-.055-.011-.015-.004-.004-.002-.003L3 24l-.799-.581v-.001l.003-.003.006-.008.024-.03.087-.108c.076-.094.187-.23.331-.4.29-.341.713-.825 1.257-1.405a43.6 43.6 0 0 1 4.606-4.249c3.865-3.071 9.34-6.258 15.485-6.258 3.463 0 6.715 1.015 9.564 2.435l5.289-5.109a1.025 1.025 0 0 1 1.414 0m-8.193 6.55c-2.499-1.17-5.234-1.944-8.074-1.944-5.455 0-10.48 2.851-14.215 5.819a41.6 41.6 0 0 0-4.394 4.054c-.47.501-.845.926-1.112 1.238q.133.157.3.346a40 40 0 0 0 2.244 2.348c1.806 1.746 4.308 3.853 7.258 5.523l2.895-2.797a1 1 0 0 1-.086-.093A8.47 8.47 0 0 1 15 24c0-4.804 4.028-8.696 9-8.696 2.127 0 4.08.718 5.619 1.9zm-3.881 3.75A7.16 7.16 0 0 0 24 17.236c-3.868 0-7 3.026-7 6.763 0 1.522.521 2.922 1.396 4.048l2.893-2.796c-.58-1.164-.291-2.602.78-3.474a3.05 3.05 0 0 1 2.194-.67 1.87 1.87 0 0 0-.196 1.46z" clip-rule="evenodd"/><path d="M2.201 23.419 3 24l-.8.58a.94.94 0 0 1 .001-1.161"/><path fill-rule="evenodd" d="M40.284 17.868a1.024 1.024 0 0 0-1.41.099.944.944 0 0 0 .101 1.363 42 42 0 0 1 3.846 3.66c.372.402.674.746.9 1.01-.268.313-.642.737-1.112 1.238a41.6 41.6 0 0 1-4.395 4.054c-3.734 2.968-8.76 5.82-14.214 5.82-1.566 0-3.094-.236-4.579-.641-.531-.145-1.084.154-1.234.668a.96.96 0 0 0 .691 1.192c1.635.445 3.347.712 5.122.712 6.145 0 11.62-3.187 15.485-6.258a43.6 43.6 0 0 0 4.605-4.249 37 37 0 0 0 1.589-1.805l.087-.108.023-.03.007-.008.002-.004a.94.94 0 0 0 0-1.162l-.002-.003-.006-.008-.02-.025-.076-.095q-.099-.124-.288-.349a36 36 0 0 0-1.093-1.236 44 44 0 0 0-4.029-3.835m5.514 5.55L45 24c.799-.58.798-.581.798-.581M45 24l.798.581z" clip-rule="evenodd"/><path d="M33 24c0-.534-.448-.966-1-.966s-1 .432-1 .966c0 3.737-3.132 6.763-7 6.763a7.3 7.3 0 0 1-2.087-.305c-.528-.156-1.087.13-1.25.64a.96.96 0 0 0 .664 1.207c.84.25 1.738.39 2.673.39 4.972 0 9-3.89 9-8.695"/></g></svg>