
<svg width="32" height="36" viewBox="0 0 32 36" fill="none" xmlns="http://www.w3.org/2000/svg">
<path id="icon" fill="currentColor" d="M25.44 28.9734C25.28 28.9734 25.12 28.9334 24.9734 28.8601L15.8867 24.0601L6.79337 28.7867C6.48004 28.9467 6.11337 28.9401 5.81337 28.7534C5.51337 28.5734 5.33337 28.2534 5.33337 27.9001V5.33341C5.33337 3.86008 6.52671 2.66675 8.00004 2.66675H23.7734C25.2467 2.66675 26.44 3.86008 26.44 5.33341V20.2667C26.44 20.6334 26.14 20.9334 25.7734 20.9334C25.4067 20.9334 25.1067 20.6334 25.1067 20.2667V5.33341C25.1067 4.60008 24.5067 4.00008 23.7734 4.00008H8.00004C7.26671 4.00008 6.66671 4.60008 6.66671 5.33341V27.3467L15.8934 22.5534L25.1067 27.4201V23.9801C25.1067 23.6134 25.4067 23.3134 25.7734 23.3134C26.14 23.3134 26.44 23.6134 26.44 23.9801V27.9734C26.44 28.3267 26.26 28.6467 25.9534 28.8334C25.7934 28.9267 25.6134 28.9801 25.44 28.9801V28.9734Z"/>
</svg>
