<svg xmlns="http://www.w3.org/2000/svg" width="375" height="165" fill="none"><g id="icon" fill="#CBCDD2"><path fill-rule="evenodd" d="M12.134 126c1.27 0 2.312.984 2.413 2.234l.007.199v5.319h5.316a2.427 2.427 0 0 1 2.43 2.424c0 1.27-.981 2.313-2.23 2.414l-.2.009-5.316-.001v6.288a2.426 2.426 0 0 1-2.419 2.434 2.425 2.425 0 0 1-2.413-2.233l-.009-.199v-6.29H3.43A2.426 2.426 0 0 1 1 136.176c0-1.271.981-2.314 2.23-2.415l.2-.007 6.283-.002v-5.319a2.43 2.43 0 0 1 2.42-2.433" clip-rule="evenodd"/><path d="M41 113.949A4.947 4.947 0 0 1 45.945 109a4.947 4.947 0 0 1 4.944 4.949 4.947 4.947 0 0 1-4.944 4.949A4.947 4.947 0 0 1 41 113.949M320.806 43.62a3.01 3.01 0 0 0-2.993-2.77 3.01 3.01 0 0 0-3.003 3.016v6.6h-7.795l-.246.01A3.01 3.01 0 0 0 304 53.472a3.01 3.01 0 0 0 3.015 3.004h7.796v7.802l.009.247a3.01 3.01 0 0 0 2.993 2.771 3.01 3.01 0 0 0 3.002-3.018v-7.802l6.595.001.247-.01a3.01 3.01 0 0 0 2.769-2.995 3.01 3.01 0 0 0-3.016-3.006h-6.594v-6.6zM367.276 6.914C367.185 5.842 366.242 5 365.093 5c-1.21 0-2.191.933-2.191 2.085v4.559l-5.684.001-.179.006c-1.131.087-2.019.98-2.019 2.07 0 1.146.984 2.075 2.198 2.075h5.684l.002 5.392.007.17c.092 1.073 1.033 1.915 2.182 1.915 1.209 0 2.189-.934 2.189-2.086v-5.39h4.81l.181-.005c1.13-.087 2.019-.981 2.019-2.071 0-1.147-.985-2.077-2.2-2.077h-4.81l.002-4.56zM355.02 78.205a4.946 4.946 0 0 1 4.944-4.949 4.947 4.947 0 0 1 4.945 4.95 4.947 4.947 0 0 1-4.945 4.948 4.946 4.946 0 0 1-4.944-4.949"/><path fill-rule="evenodd" d="M184.927 20.625c-4.117 0-7.237 3.175-7.237 6.875v110c0 3.7 3.12 6.875 7.237 6.875h64.076c4.118 0 7.237-3.175 7.237-6.875V60.466a3.44 3.44 0 0 1 3.443-3.438 3.44 3.44 0 0 1 3.442 3.438V137.5c0 7.712-6.421 13.75-14.122 13.75h-64.076c-7.701 0-14.122-6.038-14.122-13.75v-110c0-7.712 6.421-13.75 14.122-13.75h64.076c7.701 0 14.122 6.038 14.122 13.75v8.903a3.44 3.44 0 0 1-3.442 3.438 3.44 3.44 0 0 1-3.443-3.438V27.5c0-3.7-3.119-6.875-7.237-6.875zm-22.44 5.154a3.437 3.437 0 0 1-2.469 4.19l-18.722 4.846c-3.925 1.02-6.086 4.845-5.096 8.403l27.304 98.453a3.443 3.443 0 0 1-6.635 1.835l-27.303-98.447c-2.069-7.441 2.533-14.96 9.998-16.898l18.727-4.847a3.443 3.443 0 0 1 4.196 2.465m-40.138 55.84a3.434 3.434 0 0 0 1.331-4.676 3.445 3.445 0 0 0-4.683-1.329c-6.77 3.768-9.177 12.23-5.193 18.862l.002.003 27.763 46.401a3.446 3.446 0 0 0 4.72 1.188 3.434 3.434 0 0 0 1.19-4.714l-27.766-46.407-.004-.006c-1.923-3.199-.84-7.384 2.64-9.322" clip-rule="evenodd"/></g></svg>