<svg xmlns="http://www.w3.org/2000/svg" width="48" height="48" fill="none"><path id="icon" fill="currentColor" d="m45.71 44.29-2.48-2.48A4 4 0 0 0 46 38V10c0-2.21-1.79-4-4-4H14c-.55 0-1 .45-1 1s.45 1 1 1h28c1.11 0 2 .89 2 2v17.43l-7.85-8.57c-.6-.65-1.4-.97-2.21-.97s-1.54.29-2.13.88L26 24.59 3.7 2.3a.996.996 0 1 0-1.41 1.41L24.59 26 10.58 40H6c-1.11 0-2-.89-2-2v-2.13l.04-.04 7.19-5.91c.4-.32.98-.3 1.34.07l1.72 1.72c.39.39 1.03.39 1.42 0s.39-1.03 0-1.42l-1.72-1.72a3.007 3.007 0 0 0-4.03-.19L4 33.28V10c0-1.11.89-2 2-2h.57l-1.8-1.8A3.98 3.98 0 0 0 2 10v28c0 2.21 1.79 4 4 4h34.59l3.71 3.7c.2.2.45.29.71.29s.51-.1.71-.29a.996.996 0 0 0 0-1.41zM13.41 40 26 27.41 38.59 40zm28.01 0-11-11c.77.15 1.52.22 2.25.22.56 0 1.01-.44 1.01-1s-.44-1-1-1c-1.57-.01-3.31-.37-5.09-1.39l5.65-5.64c.19-.2.45-.3.7-.3.27 0 .54.11.74.33l4.63 5.05c-.07.04-.17.11-.3.19-.29.17-.73.4-1.27.64-.51.23-.74.82-.52 1.32.23.51.82.74 1.32.52a14 14 0 0 0 1.89-1.02c.05-.03.09-.06.12-.08l.03-.02h.01l.01-.01c.02-.02.05-.04.07-.06l3.34 3.64V38c0 1.11-.89 2-2 2z"/></svg>