<svg xmlns="http://www.w3.org/2000/svg" width="48" height="48"><path id="icon" fill="currentColor" d="m35.606 36.245.05.046 8.274 8.28a.79.79 90 0 1 0 1.115.79.79 90 0 1-1.065.046l-.05-.046-8.273-8.28a.79.79 90 0 1 0-1.115.79.79 90 0 1 1.064-.046ZM4.822 39.734c.347.148.719.238 1.102.262l.144.006a.79.79 90 0 1 .771.805.79.79 90 0 1-.803.772 4.9 4.9 90 0 1-1.835-.396.789.789 90 0 1 .621-1.45m5.27-1.626a.79.79 90 0 1 .27 1.083 5 5 90 0 1-1.255 1.394.789.789 90 0 1-.95-1.258 3.4 3.4 90 0 0 .854-.95.79.79 90 0 1 1.082-.269M2.81 37.006a3.3 3.3 90 0 0 .373 1.22.79.79 90 0 1-.324 1.066.79.79 90 0 1-1.066-.325 4.9 4.9 90 0 1-.55-1.797.788.788 90 1 1 1.567-.164m23.818-17.504c4.895 0 8.865 3.971 8.865 8.87s-3.97 8.871-8.865 8.871c-4.896 0-8.865-3.972-8.865-8.871s3.97-8.87 8.865-8.87M10.437 34.24a4.9 4.9 90 0 1 .589 1.784.79.79 90 0 1-.682.882.79.79 90 0 1-.872-.625l-.01-.058a3.3 3.3 90 0 0-.4-1.21.79.79 90 0 1 .302-1.074.79.79 90 0 1 1.072.3Zm16.19-13.163c-4.024 0-7.288 3.266-7.288 7.294s3.264 7.294 7.289 7.294 7.289-3.266 7.289-7.294-3.264-7.294-7.29-7.294M4.362 32.832a.79.79 90 0 1-.178 1.1 3.4 3.4 90 0 0-.875.932.79.79 90 0 1-1.087.245.79.79 90 0 1-.245-1.088 5 5 90 0 1 1.284-1.367.79.79 90 0 1 1.1.178m1.78-1.108c.638 0 1.261.122 1.842.356a.789.789 90 0 1-.59 1.463A3.3 3.3 90 0 0 6.14 33.3a.788.788 90 0 1 0-1.578m35.717-4.656 3.65 1.549.05.024a.78.78 0 0 1 .367.995.78.78 0 0 1-1.023.407l-3.65-1.55-.05-.023a.78.78 0 0 1-.367-.995.78.78 0 0 1 1.023-.407m-17.156-3.302a.79.79 90 0 1-.168 1.102c-.998.734-1.649 2.136-1.649 3.701a.788.788 90 1 1-1.576 0c0-2.05.872-3.928 2.292-4.972a.787.787 90 0 1 1.101.169m-14.424-.253a.79.79 90 0 1 .787.79v1.576a.79.79 0 0 1-.787.789.79.79 90 0 1-.789-.79v-1.576c0-.436.353-.789.788-.789Zm35.025-1.312a.78.78 0 0 1 .966.529.78.78 0 0 1-.486.943l-.053.017-3.811 1.093a.78.78 0 0 1-.966-.53.78.78 0 0 1 .486-.942l.053-.017Zm-35.026-3.419c.436 0 .788.353.788.789v1.577a.79.79 0 0 1-.788.788.79.79 90 0 1-.788-.788V19.57c0-.436.353-.789.788-.789m31.849-1.693a.78.78 0 0 1 1.098-.083.78.78 0 0 1 .106 1.055l-.035.044-2.601 2.992a.78.78 0 0 1-1.098.083.78.78 0 0 1-.106-1.056l.035-.043Zm-10.967-2.43a.79.79 90 0 1 .788.79v1.576a.788.788 90 1 1-1.576 0v-1.577c0-.435.353-.789.788-.789m-20.882-.608c.436 0 .788.353.788.789v1.577a.788.788 90 1 1-1.576 0V14.84c0-.436.353-.789.788-.789ZM31.16 9.928c.435 0 .788.353.788.789v1.577a.79.79 0 0 1-.788.789.79.79 90 0 1-.788-.789v-1.577c0-.436.353-.789.788-.789ZM10.277 9.32c.436 0 .788.353.788.789v1.577a.788.788 90 1 1-1.576 0v-1.577c0-.436.353-.79.788-.79ZM31.16 5.197a.79.79 90 0 1 .788.789v1.577a.79.79 0 0 1-.788.788.79.79 90 0 1-.788-.789V5.986c0-.435.353-.788.788-.788m-19.23.203a.789.789 90 0 1 .497 1.496l-.098.036a2 2 90 0 0-.828.61.788.788 90 0 1-1.23-.984A3.57 3.57 90 0 1 11.927 5.4Zm4.64-1.177a.789.789 90 0 1 .384 1.53l-1.529.384a.789.789 90 0 1-.384-1.53Zm4.585-1.152a.789.789 90 0 1 .384 1.53l-1.528.383a.789.789 90 0 1-.384-1.529Zm4.586-1.153a.789.789 90 0 1 .384 1.53l-1.529.384a.789.789 90 0 1-.384-1.53Zm2.52.128a.79.79 90 0 1 .95-.581 3.6 3.6 90 0 1 1.75 1.008.79.79 90 0 1-.024 1.115.79.79 90 0 1-1.114-.024l-.075-.074a2 2 90 0 0-.906-.493l-.057-.015a.79.79 90 0 1-.524-.936"/></svg>