<svg width="48" height="48" viewBox="0 0 48 48" fill="none" xmlns="http://www.w3.org/2000/svg">
<g id="icon">
<path fill-rule="evenodd" clip-rule="evenodd" d="M 15.0553 35.6994 C 13.9565 36.3315 12.3763 35.9028 11.5798 34.5276 L 9.8879 31.6056 C 9.7243 31.323 9.7662 30.9519 10.0092 30.6993 L 10.0129 30.6954 C 11.5569 29.0667 11.8058 26.4639 10.5728 24.3346 C 9.3398 22.2052 6.9546 21.1187 4.7681 21.6377 L 4.7629 21.6389 C 4.4197 21.7229 4.0814 21.5777 3.9151 21.2905 L 2.2231 18.3685 C 1.4267 16.9931 1.8446 15.414 2.9433 14.7815 L 24.9711 2.1008 C 26.07 1.4684 27.6504 1.897 28.4469 3.2725 L 30.1389 6.1945 C 30.3024 6.4771 30.2604 6.848 30.0174 7.1008 L 30.0138 7.1046 C 28.47 8.7332 28.221 11.3361 29.454 13.4654 C 30.6861 15.5935 33.0645 16.6857 35.2596 16.1621 L 35.2638 16.1611 C 35.607 16.0771 35.9454 16.2223 36.1116 16.5095 L 37.2186 18.4213 C 33.24 19.1001 30.2133 22.5477 30.2133 26.7 C 30.2133 31.3398 33.9927 35.1 38.6565 35.1 C 43.3206 35.1 47.1 31.3398 47.1 26.7 C 47.1 25.2526 46.7301 23.8877 46.0785 22.6954 C 45.9015 22.3718 45.4947 22.2521 45.1692 22.428 C 44.844 22.6039 44.7237 23.0088 44.9004 23.3324 C 45.4482 24.3347 45.7593 25.4813 45.7593 26.7 C 45.7593 30.6033 42.5802 33.7662 38.6565 33.7662 C 34.7331 33.7662 31.554 30.6033 31.554 26.7 C 31.554 22.7967 34.7331 19.6338 38.6565 19.6338 C 39.8655 19.6338 41.0043 19.9335 41.9964 20.4639 C 42.3225 20.6383 42.729 20.5166 42.9042 20.1922 C 43.0794 19.8677 42.957 19.4634 42.6309 19.289 C 41.5179 18.6938 40.2528 18.3437 38.9139 18.3038 L 38.2689 17.2157 L 37.4229 15.7547 C 36.9084 14.866 35.8782 14.4574 34.9053 14.6944 C 33.4293 15.0455 31.6974 14.3209 30.765 12.7106 C 29.8335 11.1016 30.0747 9.2394 31.1127 8.1431 C 31.806 7.4199 31.9596 6.3197 31.4499 5.4397 L 29.7582 2.5177 C 28.6167 0.5464 26.1573 -0.3252 24.2142 0.7935 L 2.1863 13.4741 C 0.243 14.5928 -0.2295 17.152 0.912 19.1234 L 2.6039 22.0453 C 3.1183 22.9338 4.148 23.3424 5.1207 23.1058 C 6.5919 22.7576 8.33 23.4804 9.2616 25.0894 C 10.1932 26.6982 9.952 28.5603 8.9142 29.6568 C 8.2206 30.3798 8.0671 31.4802 8.5767 32.3604 L 10.2687 35.2824 C 11.4101 37.2537 13.8693 38.1252 15.8125 37.0065 L 27.4362 30.2979 C 27.798 30.0891 27.9216 29.6274 27.7122 29.2665 C 27.5031 28.9056 27.0399 28.7823 26.6781 28.9911 L 15.0553 35.6994 Z" fill="currentColor"/>
<path d="M 26.982 23.5976 C 26.6199 23.806 26.157 23.6823 25.9479 23.3213 L 19.8728 12.8298 C 19.6637 12.4688 19.7878 12.0071 20.1499 11.7987 C 20.5119 11.5903 20.9749 11.714 21.184 12.075 L 27.2589 22.5665 C 27.468 22.9275 27.3441 23.3891 26.982 23.5976 Z" fill="currentColor"/>
<path fill-rule="evenodd" clip-rule="evenodd" d="M 38.6565 21.675 C 39.0294 21.675 39.3315 21.9772 39.3315 22.35 V 26.4138 L 41.1273 28.2096 C 41.391 28.473 41.391 28.9005 41.1273 29.1642 C 40.8636 29.4276 40.4364 29.4276 40.1727 29.1642 L 38.1792 27.1707 C 38.0526 27.0441 37.9815 26.8725 37.9815 26.6934 V 22.35 C 37.9815 21.9772 38.2839 21.675 38.6565 21.675 Z" fill="currentColor"/>
</g>
</svg>
