<svg xmlns="http://www.w3.org/2000/svg" id="icon" width="48" height="48" fill="none"><path fill="currentColor" d="M12 4C9.792 4 8 5.792 8 8v31.337A3.5 3.5 0 0 1 9.5 39H14v-6a1 1 0 1 1 2 0v6h22c1.108 0 2-.892 2-2V13a1 1 0 1 1 2 0v24c0 2.212-1.788 4-4 4H9.5a1.5 1.5 0 0 0 0 3v1l.001-1H36c.43 0 .696-.073.828-.16a.3.3 0 0 0 .107-.116c.026-.053.065-.164.065-.374a1 1 0 1 1 2 0c0 .96-.383 1.71-1.078 2.165-.617.403-1.352.485-1.922.485H9.5a3.5 3.5 0 0 1-3.344-2.463A1 1 0 0 1 6 43V8c0-3.312 2.688-6 6-6h27c1.652 0 3 1.348 3 3v2.66a1 1 0 1 1-2 0V5c0-.548-.452-1-1-1H16v24a1 1 0 1 1-2 0V4z"/><path fill="currentColor" d="M21 15a1 1 0 0 1 1-1h12a1 1 0 1 1 0 2H22a1 1 0 0 1-1-1m1 4a1 1 0 1 0 0 2h8a1 1 0 1 0 0-2z"/></svg>