<svg xmlns="http://www.w3.org/2000/svg" width="48" height="48" viewBox="0 0 48 48"><path id="icon" fill="currentColor" d="M 35.6055 36.2451 L 35.6559 36.2912 L 43.9296 44.5707 A 0.7888 0.7888 90 0 1 43.9296 45.6858 A 0.7875 0.7875 90 0 1 42.8654 45.7319 L 42.8152 45.6858 L 34.5416 37.4063 A 0.7888 0.7888 90 0 1 34.5416 36.2912 A 0.7875 0.7875 90 0 1 35.6058 36.2451 Z M 4.823 39.7335 C 5.1705 39.8825 5.5417 39.9717 5.925 39.9961 L 6.0694 40.0022 A 0.788 0.788 90 0 1 6.8405 40.8068 A 0.7875 0.7875 90 0 1 6.0366 41.5787 A 4.8999 4.8999 90 0 1 4.2018 41.1828 A 0.7888 0.7888 90 0 1 4.823 39.7335 Z M 10.0935 38.1081 A 0.7888 0.7888 90 0 1 10.3622 39.1905 A 4.9518 4.9518 90 0 1 9.108 40.5848 A 0.7888 0.7888 90 0 1 8.1574 39.3268 A 3.3675 3.3675 90 0 0 9.012 38.3768 A 0.788 0.788 90 0 1 10.0935 38.1081 Z M 2.8102 37.0059 A 3.3236 3.3236 90 0 0 3.1832 38.2251 A 0.7888 0.7888 90 0 1 2.8586 39.2918 A 0.7875 0.7875 90 0 1 1.7927 38.9672 A 4.9057 4.9057 90 0 1 1.2428 37.1704 A 0.7883 0.7883 90 1 1 2.8102 37.0059 Z M 26.6278 19.5015 C 31.5234 19.5015 35.4931 23.473 35.4931 28.3719 C 35.4931 33.2707 31.5231 37.243 26.6278 37.243 C 21.7324 37.243 17.7634 33.2707 17.7634 28.3719 C 17.7634 23.473 21.7324 19.5015 26.6278 19.5015 Z M 10.4368 34.2409 A 4.9049 4.9049 90 0 1 11.0259 36.0251 A 0.7888 0.7888 90 0 1 10.3438 36.9068 A 0.7885 0.7885 90 0 1 9.4721 36.2821 L 9.4625 36.2242 A 3.3206 3.3206 90 0 0 9.0626 35.0136 A 0.7888 0.7888 90 0 1 9.3638 33.9401 A 0.7875 0.7875 90 0 1 10.4365 34.2409 Z M 26.6278 21.0785 C 22.6026 21.0785 19.3394 24.3439 19.3394 28.3719 S 22.6028 35.666 26.6278 35.666 C 30.6527 35.666 33.9169 32.3996 33.9169 28.3719 S 30.653 21.0785 26.6278 21.0785 Z M 4.3605 32.8318 A 0.7888 0.7888 90 0 1 4.1831 33.9327 A 3.3675 3.3675 90 0 0 3.3079 34.8639 A 0.7878 0.7878 90 0 1 2.2208 35.1086 A 0.7888 0.7888 90 0 1 1.9761 34.0207 A 4.951 4.951 90 0 1 3.2603 32.6543 A 0.7878 0.7878 90 0 1 4.3605 32.8318 Z M 6.1407 31.7235 C 6.7792 31.7235 7.4022 31.8457 7.9828 32.0803 A 0.7885 0.7885 90 0 1 7.3929 33.5426 A 3.3324 3.3324 90 0 0 6.1407 33.3005 A 0.7883 0.7883 90 0 1 6.1407 31.7235 Z M 41.8581 27.0678 L 45.5071 28.6168 L 45.558 28.6407 C 45.9247 28.832 46.0837 29.2632 45.9254 29.6356 C 45.7581 30.03 45.2995 30.2115 44.9023 30.0426 L 41.2528 28.4936 L 41.2022 28.4699 C 40.8355 28.2784 40.6765 27.8474 40.8345 27.4747 C 41.0021 27.0804 41.4605 26.8992 41.8581 27.0678 Z M 24.7022 23.7658 A 0.7888 0.7888 90 0 1 24.5336 24.8681 C 23.5355 25.6019 22.8853 27.0035 22.8853 28.5694 A 0.7883 0.7883 90 1 1 21.3093 28.5692 C 21.3093 26.5199 22.1812 24.6405 23.6007 23.5972 A 0.7872 0.7872 90 0 1 24.7022 23.7658 Z M 10.2778 23.5133 A 0.7883 0.7883 90 0 1 11.0655 24.3021 V 25.8788 C 11.0655 26.3143 10.7127 26.6676 10.2775 26.6676 A 0.7885 0.7885 90 0 1 9.4895 25.8788 V 24.3018 C 9.4895 23.8664 9.8423 23.5133 10.2775 23.5133 Z M 45.3027 22.2009 C 45.7178 22.0819 46.151 22.3178 46.2689 22.7296 C 46.3805 23.1187 46.1701 23.5272 45.7828 23.6726 L 45.7299 23.69 L 41.9189 24.7826 C 41.5038 24.9016 41.0706 24.6657 40.9527 24.2539 C 40.8411 23.8648 41.0515 23.4563 41.4388 23.3112 L 41.4917 23.2936 Z M 10.2773 18.7823 C 10.7125 18.7823 11.0653 19.1351 11.0653 19.5708 V 21.1478 C 11.0653 21.5832 10.7125 21.9365 10.2773 21.9365 A 0.7885 0.7885 90 0 1 9.4892 21.1478 V 19.5708 C 9.4892 19.1353 9.842 18.7823 10.2773 18.7823 Z M 42.1258 17.0888 C 42.409 16.7632 42.9007 16.7249 43.224 17.0062 C 43.5297 17.2718 43.5758 17.7289 43.3298 18.0615 L 43.2948 18.1051 L 40.6939 21.0971 C 40.4107 21.423 39.919 21.461 39.5957 21.1803 C 39.2903 20.9144 39.2441 20.457 39.4898 20.1244 L 39.5251 20.0811 Z M 31.1587 14.6595 A 0.7883 0.7883 90 0 1 31.9467 15.4483 V 17.0251 A 0.7883 0.7883 90 1 1 30.3707 17.0248 V 15.4483 C 30.3707 15.0126 30.7235 14.6595 31.1587 14.6595 Z M 10.2773 14.0512 C 10.7125 14.0512 11.0653 14.404 11.0653 14.8397 V 16.4167 A 0.7883 0.7883 90 1 1 9.4892 16.4165 V 14.8397 C 9.4892 14.4043 9.842 14.051 10.2773 14.051 Z M 31.1587 9.9285 C 31.5939 9.9285 31.9467 10.2813 31.9467 10.7167 V 12.294 C 31.9467 12.7295 31.5939 13.0828 31.1587 13.0828 A 0.7885 0.7885 90 0 1 30.3707 12.294 V 10.7167 C 30.3707 10.2813 30.7235 9.9282 31.1587 9.9282 Z M 10.2773 9.3202 C 10.7125 9.3202 11.0653 9.673 11.0653 10.1087 V 11.6857 A 0.7883 0.7883 90 1 1 9.4892 11.6854 V 10.1087 C 9.4892 9.6732 9.842 9.3199 10.2773 9.3199 Z M 31.1587 5.1969 A 0.7883 0.7883 90 0 1 31.9467 5.9857 V 7.5625 C 31.9467 7.9979 31.5939 8.3512 31.1587 8.3512 A 0.7885 0.7885 90 0 1 30.3707 7.5625 V 5.9854 C 30.3707 5.55 30.7235 5.1969 31.1587 5.1969 Z M 11.9286 5.4 A 0.7888 0.7888 90 0 1 12.4263 6.8964 L 12.3275 6.9322 A 1.9903 1.9903 90 0 0 11.5002 7.5428 A 0.7883 0.7883 90 0 1 10.2694 6.5582 A 3.5653 3.5653 90 0 1 11.9284 5.4 Z M 16.5687 4.2235 A 0.7888 0.7888 90 0 1 16.953 5.7528 L 15.4244 6.1371 A 0.7888 0.7888 90 0 1 15.0403 4.6078 Z M 21.1543 3.0708 A 0.7888 0.7888 90 0 1 21.5384 4.6002 L 20.0097 4.9845 A 0.7888 0.7888 90 0 1 19.6257 3.4551 Z M 25.7397 1.9182 A 0.7888 0.7888 90 0 1 26.1238 3.4475 L 24.5951 3.8318 A 0.7888 0.7888 90 0 1 24.2111 2.3025 Z M 28.2597 2.0462 A 0.788 0.788 90 0 1 29.2105 1.4646 A 3.5935 3.5935 90 0 1 30.9604 2.4731 A 0.789 0.789 90 0 1 30.9362 3.5879 A 0.7875 0.7875 90 0 1 29.8221 3.5637 L 29.7475 3.4899 A 2.0168 2.0168 90 0 0 28.8408 2.9975 L 28.7841 2.9816 A 0.7885 0.7885 90 0 1 28.2597 2.0462 Z"/></svg>
