<svg xmlns="http://www.w3.org/2000/svg" width="48" height="48" fill="none"><path id="icon" fill="currentColor" fill-rule="evenodd" d="M29.82 11.519a22 22 0 0 1 2.648-1.49 34.4 34.4 0 0 0 7.633 7.691c-.923 1.962-2.11 3.842-3.631 5.376-2.662 2.683-6.164 5.612-9.3 8.1a1 1 0 0 0-.16 1.406c.345.433.975.504 1.408.16q.471-.373.953-.76c-.413 2.197-1.26 4.41-2.135 6.28-.462.986-.924 1.86-1.32 2.564a28.7 28.7 0 0 0-2.177-4.51q.455-.337.96-.714a1 1 0 0 0 .2-1.4 1.003 1.003 0 0 0-1.402-.201l-1.35 1.004-.124.092h-.001c-.362.268-.693.514-.984.732a1.066 1.066 0 0 1-1.397-.121l-5.022-5.063a1.11 1.11 0 0 1-.121-1.424l.004-.005c2.075-2.892 6.91-9.446 11.394-14.248a1 1 0 0 0-.05-1.415 1.003 1.003 0 0 0-1.416.05 103 103 0 0 0-4.309 4.962c-2.79.195-6.006 1.399-8.517 2.535a55 55 0 0 0-4.507 2.306l-.279.162-.074.044-.02.012-.008.005a1 1 0 0 0 .222 1.812c2.09.647 4.07 1.543 5.905 2.65a3.1 3.1 0 0 0-.126 3.34l-.93 1.675v.002c-.596 1.078-.826 2.556.144 3.534l1.723 1.737c.977.985 2.458.75 3.532.147l1.646-.928c1.004.6 2.28.591 3.288-.084a26.8 26.8 0 0 1 2.55 5.874v.008a1.001 1.001 0 0 0 1.817.361l.001-.002.004-.005.012-.02a18 18 0 0 0 .211-.327c.142-.224.342-.549.582-.958a42 42 0 0 0 1.755-3.336c1.168-2.494 2.386-5.776 2.563-8.962 2.213-1.844 4.433-3.802 6.279-5.663 2.658-2.68 4.336-6.204 5.398-9.405 1.066-3.21 1.536-6.168 1.734-7.786.16-1.273-.904-2.412-2.226-2.243-2.632.322-8.991 1.418-14.086 4.78a1 1 0 0 0-.283 1.386c.305.46.927.588 1.388.283M12.431 22.943c1.841-.834 3.92-1.631 5.843-2.06a202 202 0 0 0-4.252 5.602 29 29 0 0 0-4.364-2.183 52 52 0 0 1 2.773-1.36m28.474-7.118a32.4 32.4 0 0 1-6.553-6.612c3.494-1.366 6.912-1.94 8.685-2.156v.006l-.001.005c-.189 1.54-.637 4.36-1.647 7.402q-.224.675-.484 1.355m-27.363 18.27.594-1.072 3.146 3.172-1.079.608c-.346.194-.638.263-.839.265-.194.002-.265-.055-.286-.076l-1.723-1.737c-.032-.033-.24-.387.187-1.16m14.254-13.536c0-1.043.837-1.873 1.849-1.873s1.849.83 1.849 1.873a1.86 1.86 0 0 1-1.85 1.874 1.86 1.86 0 0 1-1.848-1.874m1.849-3.874c-2.137 0-3.853 1.744-3.853 3.874s1.716 3.875 3.853 3.875 3.853-1.744 3.853-3.875c0-2.13-1.716-3.874-3.853-3.874M10.933 40.547a1 1 0 0 0-.007-1.415 1.003 1.003 0 0 0-1.417.007l-4.177 4.21a1 1 0 0 0 .007 1.415 1.003 1.003 0 0 0 1.417-.007zm3.125-.362a1 1 0 0 1 .007 1.414l-2.036 2.053a1.003 1.003 0 0 1-1.417.007 1 1 0 0 1-.007-1.415l2.036-2.053a1.003 1.003 0 0 1 1.417-.007m-4.17-2.796a1 1 0 0 0-.006-1.415 1.003 1.003 0 0 0-1.417.007L7.42 37.033a1 1 0 0 0 .007 1.415 1.003 1.003 0 0 0 1.418-.007z" clip-rule="evenodd"/></svg>