<svg xmlns="http://www.w3.org/2000/svg" viewBox="0 0 48 48" width="48" height="48" fill="none">
    <g id="icon">
        <path d="M 12.5206 3.7242 C 12.6589 2.8516 13.4721 2.2576 14.3469 2.3936 L 36.4513 5.8378 C 37.3261 5.9728 37.9201 6.7871 37.784 7.6597 L 35.5916 21.704 C 35.5225 22.1404 35.8206 22.5475 36.258 22.6166 C 36.6943 22.6836 37.1014 22.3866 37.1706 21.9514 L 39.363 7.907 C 39.6351 6.1628 38.4439 4.5331 36.6964 4.2599 L 14.5932 0.8168 C 12.8457 0.5436 11.2149 1.7348 10.9417 3.479 L 10.7095 4.9727 L 4.8267 5.9652 C 3.0836 6.259 1.9118 7.9038 2.2066 9.6437 L 4.723 24.5347 C 4.7965 24.9689 5.209 25.2616 5.6443 25.1881 C 6.0784 25.1147 6.3733 24.7032 6.2988 24.269 L 3.7824 9.3791 C 3.6355 8.5075 4.2198 7.6867 5.0924 7.5398 L 10.4503 6.6359 L 6.5104 31.8679 C 6.2383 33.6121 7.4295 35.2418 9.1748 35.514 L 22.4707 37.5854 C 22.5744 37.6016 22.678 37.5973 22.7742 37.5746 C 24.3898 40.4129 27.4452 42.3288 30.9476 42.3288 C 36.1359 42.3288 40.3436 38.1254 40.3436 32.9436 C 40.3436 31.6379 40.0747 30.3862 39.5919 29.2511 C 39.4202 28.8504 38.9569 28.6636 38.5551 28.8342 C 38.1523 29.0059 37.9644 29.4692 38.1372 29.871 C 38.5378 30.8117 38.7625 31.855 38.7625 32.9436 C 38.7625 37.2539 35.2622 40.7498 30.9476 40.7498 C 26.6341 40.7498 23.1338 37.2539 23.1338 32.9436 C 23.1338 28.6344 26.6341 25.1384 30.9476 25.1384 C 32.9424 25.1384 34.7535 25.8793 36.1392 27.1073 C 36.4653 27.3967 36.9654 27.3665 37.2559 27.0403 C 37.5453 26.7131 37.5162 26.2141 37.1889 25.9247 C 35.5257 24.4505 33.343 23.5584 30.9476 23.5584 C 25.7604 23.5584 21.5527 27.7618 21.5527 32.9436 C 21.5527 33.9761 21.719 34.9718 22.029 35.9006 L 9.4221 33.9372 C 8.5473 33.8 7.9533 32.9879 8.0894 32.1142 L 12.5206 3.7242 Z" fill="currentColor"/>
        <path d="M 15.7293 9.0713 C 15.7984 8.635 16.2056 8.338 16.643 8.406 L 32.4315 10.8662 C 32.8678 10.9332 33.1659 11.3425 33.0979 11.7767 C 33.0298 12.2119 32.6205 12.5111 32.1853 12.442 L 16.3968 9.9828 C 15.9604 9.9148 15.6624 9.5065 15.7293 9.0713 Z" fill="currentColor"/>
        <path d="M 15.658 14.7143 C 15.2206 14.6462 14.8135 14.9443 14.7444 15.3796 C 14.6774 15.8159 14.9755 16.223 15.4118 16.2922 L 31.2003 18.7513 C 31.6356 18.8194 32.0449 18.5213 32.114 18.086 C 32.181 17.6497 31.8829 17.2426 31.4466 17.1734 L 15.658 14.7143 Z" fill="currentColor"/>
        <path d="M 13.7594 21.6889 C 13.8285 21.2537 14.2378 20.9545 14.6731 21.0236 L 23.4513 22.3909 C 23.8876 22.4579 24.1868 22.8661 24.1177 23.3014 C 24.0496 23.7377 23.6414 24.0358 23.2062 23.9677 L 14.4268 22.5994 C 13.9905 22.5324 13.6924 22.1252 13.7594 21.6889 Z" fill="currentColor"/>
        <path d="M 26.9073 29.2424 C 26.5304 29.0221 26.0455 29.1496 25.8262 29.5265 C 25.0346 30.8797 23.8563 34.2223 26.619 37.4321 C 26.9041 37.7626 27.403 37.8004 27.7335 37.5152 C 28.0662 37.2312 28.104 36.7322 27.8178 36.4018 C 25.6848 33.9232 26.5671 31.3927 27.1914 30.3224 C 27.4117 29.9455 27.2842 29.4606 26.9073 29.2424 Z" fill="currentColor"/>
        <path d="M 38.378 40.3654 C 38.688 40.0576 39.188 40.0576 39.498 40.3654 L 45.6442 46.5052 C 45.952 46.813 45.952 47.3152 45.6442 47.623 C 45.3343 47.9318 44.8342 47.9318 44.5243 47.623 L 38.378 41.4832 C 38.0702 41.1754 38.0702 40.6753 38.378 40.3654 Z" fill="currentColor"/>
    </g>
</svg>