<svg xmlns="http://www.w3.org/2000/svg" width="48" height="48" fill="none"><path id="icon" fill="currentColor" fill-rule="evenodd" d="m19.211 7.528 4.36-1.46c.274-.09.583-.09.857 0l16.762 5.63c.512.172.81.611.81 1.052v22.5c0 .441-.298.88-.81 1.052l-16.185 5.436V36.12a1 1 0 0 0-2 0v5.62L6.81 36.293C6.298 36.12 6 35.681 6 35.24V13.112q.082.045.172.076l6.342 2.09c.82.244 1.312-.047 1.489-.495.189-.481.016-1.137-.503-1.283l-6.102-2.01 6.493-2.182a1 1 0 1 0-.637-1.896L6.17 9.792C4.903 10.22 4 11.381 4 12.74v22.5c0 1.359.904 2.52 2.172 2.948l16.767 5.64a3.38 3.38 0 0 0 2.122 0l16.768-5.63C43.097 37.77 44 36.609 44 35.25v-22.5c0-1.359-.903-2.52-2.171-2.948l-16.765-5.63h-.003a3.37 3.37 0 0 0-2.122 0l-4.363 1.46a1 1 0 1 0 .635 1.896m10.337 8.823.005.002c2.273.893 3.684 3.123 3.246 5.614C34.732 22.78 36 24.713 36 26.845 36 29.685 33.667 32 30.917 32H17.083C14.264 32 12 29.681 12 26.845c0-2.578 1.767-4.763 4.234-5.18.353-1.675 1.449-3.013 2.99-3.634 1.416-.594 3.019-.527 4.32.222 1.34-2.121 3.818-2.718 6.003-1.902m1.948 7.263h-.002a.95.95 0 0 1-.637-.499 1.18 1.18 0 0 1-.123-.772l.007-.036.013-.034c.356-.912.319-1.769-.006-2.473-.327-.707-.96-1.295-1.857-1.633l-.003-.002c-.866-.337-1.71-.33-2.416-.03-.701.299-1.297.899-1.654 1.809a.944.944 0 0 1-1.516.44l-.006-.006-.007-.006c-.94-.845-2.22-1.077-3.315-.603l-.007.002a3.16 3.16 0 0 0-1.976 2.794.983.983 0 0 1-.973.988c-1.74 0-3.138 1.427-3.138 3.29 0 1.793 1.459 3.292 3.203 3.292h13.834c1.744 0 3.203-1.499 3.203-3.291 0-1.614-1.102-2.93-2.624-3.23" clip-rule="evenodd"/></svg>