<svg xmlns="http://www.w3.org/2000/svg" width="48" height="48" fill="none"><path id="icon" fill="currentColor" fill-rule="evenodd" d="M19.01 6.65A6.01 6.01 0 0 1 24.007 4c3.331 0 6.02 2.685 6.02 6v5c0 3.315-2.689 6-6.02 6s-6.02-2.685-6.02-6v-5c0-1.245.38-2.4 1.022-3.35M24.007 2a8.01 8.01 0 0 0-6.655 3.53A7.96 7.96 0 0 0 15.987 10v5c0 4.425 3.59 8 8.02 8 4.432 0 8.021-3.575 8.021-8v-5c0-4.425-3.59-8-8.02-8m-.01 23.25c-7.918 0-14.544 5.388-16.462 12.676a1 1 0 0 0 .232.931C11.797 43.232 17.566 46 24.007 46c1.765 0 3.467-.21 5.105-.597a1 1 0 1 0-.46-1.946 20 20 0 0 1-4.645.543c-5.654 0-10.738-2.344-14.387-6.095 1.867-6.162 7.586-10.655 14.377-10.655 6.793 0 12.52 4.494 14.388 10.656a20 20 0 0 1-3.153 2.645 1 1 0 1 0 1.119 1.658 22 22 0 0 0 3.888-3.352 1 1 0 0 0 .23-.931c-1.917-7.289-8.554-12.676-16.472-12.676" clip-rule="evenodd"/></svg>