<svg xmlns="http://www.w3.org/2000/svg" width="48" height="48" fill="none"><path id="icon" fill="currentColor" d="M16.46 19.814a.54.54 0 0 0 .075.492c.104.142.27.226.448.226h9.63c.67 0 1.191.522 1.191 1.141s-.522 1.14-1.19 1.14H16.247a.55.55 0 0 0-.55.49 16.7 16.7 0 0 0 .282 5.228.55.55 0 0 0 .54.431h10.093c.67 0 1.191.522 1.191 1.14 0 .62-.522 1.141-1.19 1.141h-8.945a.55.55 0 0 0-.466.253.54.54 0 0 0-.033.525 15.6 15.6 0 0 0 5.173 6.12 14.56 14.56 0 0 0 15.835.541c.565-.339 1.303-.166 1.646.37.34.53.175 1.229-.383 1.564a17 17 0 0 1-8.762 2.429c-3.608 0-6.958-1.13-9.733-3.056a17.96 17.96 0 0 1-6.527-8.392.55.55 0 0 0-.516-.354H9.19c-.67 0-1.191-.521-1.191-1.14 0-.62.522-1.14 1.19-1.14h3.782a.56.56 0 0 0 .423-.196.54.54 0 0 0 .12-.445 18.7 18.7 0 0 1-.216-4.916.54.54 0 0 0-.143-.416.56.56 0 0 0-.407-.176H9.191c-.67 0-1.191-.522-1.191-1.141s.522-1.14 1.19-1.14h4.166a.55.55 0 0 0 .532-.403c2.067-7.512 8.743-13.085 16.79-13.085 3.197 0 6.191.887 8.763 2.43.558.334.722 1.033.383 1.562-.343.537-1.081.71-1.646.37a14.5 14.5 0 0 0-7.5-2.081c-6.506 0-12.143 4.343-14.219 10.488"/></svg>