<svg xmlns="http://www.w3.org/2000/svg" width="48" height="48" fill="none"><path id="icon" fill="currentColor" fill-rule="evenodd" d="M5.694 4.29a.97.97 0 0 0-1.418.037 1.09 1.09 0 0 0 .035 1.488L21.797 23.29a1.007 1.007 0 0 1 0 1.443l-.001.002L4.415 42.187a1.09 1.09 0 0 0-.032 1.488.97.97 0 0 0 1.418.033l17.379-17.45v-.002c.387-.386.652-.85.797-1.341.148.49.416.951.805 1.335v.001L42.31 43.618a.97.97 0 0 0 1.418-.043 1.09 1.09 0 0 0-.041-1.488L26.156 24.72l-.001-.002a1.01 1.01 0 0 1-.006-1.45L43.67 5.82a1.09 1.09 0 0 0 .035-1.488.97.97 0 0 0-1.417-.037L24.768 21.743c-.387.386-.652.85-.797 1.342a3.15 3.15 0 0 0-.791-1.321z" clip-rule="evenodd"/></svg>