<svg xmlns="http://www.w3.org/2000/svg" width="48" height="48" fill="none"><path id="icon" fill="currentColor" fill-rule="evenodd" d="m18.742 15.948 4.33-10.328 2.692 2.04 3.474 8.287.001.003a3 3 0 0 0 2.506 1.828h.004l2.053.18a1 1 0 0 0 .176-1.992l-2.06-.181h-.006a1 1 0 0 1-.83-.613l-2.14-5.101 10.121 7.673a1 1 0 0 0 .88.74l.108.009 3.029 2.296-8.088 7.07-.003.003a3.02 3.02 0 0 0-.953 2.953v.001l2.52 10.92c.207.897-.755 1.554-1.487 1.109l-9.52-5.79-.005-.003a3.01 3.01 0 0 0-3.098 0l-.005.004-9.52 5.79c-.735.445-1.693-.206-1.486-1.111l2.519-10.919v-.001a3.02 3.02 0 0 0-.958-2.958l-.002-.002-8.396-7.34c-.682-.594-.304-1.704.568-1.78l11.066-.957h.002a3 3 0 0 0 2.507-1.828zm24.339 4.84-.001.001 1.627 1.234-8.395 7.339-.002.001c-.29.257-.41.64-.326.997v.003l2.52 10.923c.594 2.572-2.185 4.66-4.473 3.268l-9.515-5.785-.002-.002a1.01 1.01 0 0 0-1.038 0l-.002.002-9.514 5.785c-2.286 1.39-5.067-.682-4.475-3.266l2.52-10.924.001-.004a1.01 1.01 0 0 0-.32-.992l-.004-.003-8.4-7.342c-1.997-1.745-.935-5.052 1.712-5.28l11.07-.958h.005c.358-.03.68-.261.83-.613l4.329-10.326c1.03-2.454 4.5-2.47 5.525.002l.001.003 2.189 5.22-3.18-2.41-.855-2.041-.002-.005a.99.99 0 0 0-1.834.005l2.691 2.04 3.18 2.411 10.12 7.672v.001l.988.749h.002zm0 0 .312-.273c.676-.59.298-1.705-.569-1.78l-2.771-.242-.99-.75a1 1 0 0 1 1.054-1.252l2.879.252c2.653.228 3.695 3.549 1.712 5.28zM6.706 5.277A1 1 0 1 0 5.293 6.69l5 5.001a1 1 0 1 0 1.414-1.414zm36 1.414a1 1 0 0 0-1.414-1.414l-5 5a1 1 0 0 0 1.414 1.415zm-1 25.59a1 1 0 1 0-1.414 1.415l4 4a1 1 0 1 0 1.414-1.414zm-34 2.415a1 1 0 0 0-1.414-1.415l-4 4.001a1 1 0 0 0 1.414 1.415z" clip-rule="evenodd"/></svg>