<svg width="48" height="48" viewBox="0 0 48 48" fill="none" xmlns="http://www.w3.org/2000/svg">
<path id="icon" fill-rule="evenodd" clip-rule="evenodd" d="M 26.3568 10.945 C 27.045 10.945 27.6529 11.364 27.8665 11.9787 L 27.8841 12.0319 L 35.5612 37.1968 C 35.5796 37.2565 35.5883 37.3166 35.5883 37.3758 H 48.8114 C 49.1917 37.3758 49.5 37.6641 49.5 38.0203 C 49.5 38.3636 49.2135 38.6444 48.852 38.664 L 48.8114 38.665 H 30.4532 C 30.073 38.665 29.7646 38.3765 29.7646 38.0203 C 29.7646 37.677 30.0515 37.3964 30.4128 37.3768 L 30.4532 37.3758 H 34.1978 L 30.7583 26.102 L 14.6863 33.0903 L 13.3615 37.3758 H 14.8465 C 15.2237 37.3758 15.5294 37.6641 15.5294 38.0203 C 15.5294 38.3636 15.245 38.6444 14.8865 38.664 L 14.8465 38.665 H 6.83 C 6.4528 38.665 6.147 38.3765 6.147 38.0203 C 6.147 37.677 6.4315 37.3964 6.79 37.3768 L 6.83 37.3758 H 11.9706 C 11.9706 37.3281 11.976 37.2798 11.988 37.2313 L 11.998 37.1946 L 19.7773 12.0271 C 19.9698 11.404 21 11 21.243 10.946 L 21.3031 10.945 H 26 Z M 1.9195 37.3758 C 2.289 37.3758 2.5882 37.6641 2.5882 38.0203 C 2.5882 38.3636 2.31 38.6444 1.959 38.664 L 1.9195 38.665 H 0.6687 C 0.2993 38.665 0 38.3765 0 38.0203 C 0 37.677 0.2782 37.3964 0.6293 37.3768 L 0.6687 37.3758 H 1.9195 Z M 29.5121 22.0175 L 16.3903 27.5773 L 15.2037 31.4162 L 30.3678 24.8227 L 29.5121 22.0175 Z M 28.1126 17.4302 L 18.0953 22.0611 L 16.8863 25.9721 L 29.1353 20.7824 L 28.1126 17.4302 Z M 26.3568 12.2343 H 21.3031 C 21.2112 12.2343 21.1297 12.2862 21.0945 12.3646 L 21.085 12.3886 L 18.6213 20.3588 L 27.7225 16.1515 L 26.5751 12.3896 C 26.5491 12.3058 26.4734 12.2459 26.3843 12.236 L 26.3568 12.2343 Z" fill="currentColor"/>
</svg>
