<svg xmlns="http://www.w3.org/2000/svg" width="48" height="48"><path id="icon" fill="currentColor" fill-rule="evenodd" d="M6.003 19.379c0-7.386 5.99-13.376 13.376-13.376 3.412 0 6.515 1.27 8.886 3.372a1.001 1.001 0 1 0 1.329-1.498A15.33 15.33 0 0 0 19.379 4C10.887 4 4 10.887 4 19.379c0 8.491 6.887 15.378 15.379 15.378 8.491 0 15.378-6.887 15.378-15.378 0-2.14-.439-4.194-1.23-6.051a1.001 1.001 0 1 0-1.842.785 13.4 13.4 0 0 1 1.07 5.266c0 7.385-5.991 13.376-13.376 13.376-7.386 0-13.376-5.991-13.376-13.376M33.437 32.02a1.001 1.001 0 0 0-1.416 1.416l10.27 10.27a1.001 1.001 0 1 0 1.416-1.416z" clip-rule="evenodd"/></svg>