<svg width="375" height="154" viewBox="0 0 375 154" xmlns="http://www.w3.org/2000/svg">
  <g id="icon">
    <path d="M12.1338 121C13.4042 121 14.4464 121.984 14.5468 123.234L14.5544 123.433L14.5544 128.752H19.8703C21.2122 128.752 22.3 129.838 22.3 131.176C22.3 132.446 21.3187 133.489 20.0696 133.59L19.8703 133.599L14.5544 133.598V139.886C14.5544 141.231 13.4712 142.32 12.1353 142.32C10.8634 142.32 9.82276 141.336 9.72235 140.087L9.71322 139.888V133.598H3.42972C2.08782 133.598 1 132.513 1 131.176C1 129.905 1.98132 128.862 3.23041 128.761L3.42972 128.754L9.71322 128.752L9.71322 123.433C9.71322 122.09 10.798 121 12.1338 121Z" fill="currentColor" />
    <path d="M41 108.949C41 106.216 43.2137 104 45.9446 104C48.6756 104 50.8893 106.216 50.8893 108.949C50.8893 111.682 48.6756 113.898 45.9446 113.898C43.2137 113.898 41 111.682 41 108.949Z" fill="currentColor" />
    <path d="M238.099 147.464C237.235 147.464 236.37 147.248 235.578 146.852L186.5 120.949L137.386 146.457C135.693 147.32 133.713 147.284 132.093 146.277C130.472 145.305 129.5 143.579 129.5 141.672V19.8907C129.5 11.9399 135.945 5.50006 143.903 5.50006H229.097C237.055 5.50006 243.5 11.9399 243.5 19.8907V100.479C243.5 102.457 241.88 104.076 239.899 104.076C237.919 104.076 236.298 102.457 236.298 100.479V19.8907C236.298 15.9333 233.058 12.6954 229.097 12.6954H143.903C139.942 12.6954 136.702 15.9333 136.702 19.8907V138.686L186.536 112.819L236.298 139.082V120.518C236.298 118.539 237.919 116.92 239.899 116.92C241.88 116.92 243.5 118.539 243.5 120.518V142.068C243.5 143.974 242.528 145.701 240.871 146.709C240.007 147.212 239.035 147.5 238.099 147.5V147.464Z" fill="currentColor" />
    <path d="M146.459 118.539C144.479 118.539 142.859 116.92 142.859 114.941V30.8638C142.859 28.8851 144.479 27.2661 146.459 27.2661C148.44 27.2661 150.06 28.8851 150.06 30.8638V114.941C150.06 116.92 148.44 118.539 146.459 118.539Z" fill="currentColor" />
    <path d="M320.806 38.6194C320.681 37.0678 319.389 35.8496 317.813 35.8496C316.155 35.8496 314.81 37.2002 314.81 38.8661V45.4656H307.015L306.769 45.4763C305.219 45.6011 304 46.8954 304 48.4715C304 50.1312 305.351 51.4758 307.015 51.4758H314.811V59.2783L314.82 59.5249C314.945 61.0781 316.238 62.2963 317.813 62.2963C319.471 62.2963 320.815 60.9456 320.815 59.2783V51.4758L327.41 51.4773L327.657 51.4667C329.207 51.3418 330.426 50.049 330.426 48.4715C330.426 46.8117 329.075 45.4656 327.41 45.4656H320.816V38.8661L320.806 38.6194Z" fill="currentColor" />
    <path d="M367.276 1.91407C367.185 0.842068 366.242 0 365.093 0C363.883 0 362.902 0.933431 362.902 2.08461V6.64366L357.218 6.64518L357.039 6.65127C355.908 6.73807 355.02 7.63191 355.02 8.72066C355.02 9.86727 356.004 10.7961 357.218 10.7961H362.902L362.904 16.1881L362.911 16.3587C363.003 17.4307 363.944 18.2727 365.093 18.2727C366.302 18.2727 367.282 17.3393 367.282 16.1866V10.7961L372.092 10.7977L372.273 10.7916C373.403 10.7048 374.292 9.81093 374.292 8.72066C374.292 7.57404 373.307 6.64366 372.092 6.64366L367.282 6.64366L367.284 2.08461L367.276 1.91407Z" fill="currentColor" />
    <path d="M355.02 73.2051C355.02 70.4718 357.233 68.2562 359.964 68.2562C362.695 68.2562 364.909 70.4718 364.909 73.2051C364.909 75.9384 362.695 78.154 359.964 78.154C357.233 78.154 355.02 75.9384 355.02 73.2051Z" fill="currentColor" />
  </g>
</svg>