<svg xmlns="http://www.w3.org/2000/svg" width="48" height="48" fill="none"><path id="icon" fill="currentColor" fill-rule="evenodd" d="M44.899 15.701a1.14 1.14 0 0 1-.528-.131L24 4.5 3.63 15.57a1.11 1.11 0 0 1-1.497-.439 1.1 1.1 0 0 1 .44-1.49L24 2l21.427 11.64a1.095 1.095 0 0 1-.528 2.061M24 45.998c-.385 0-.78-.132-1.089-.395-.627-.526-4.4-3.091-17.159-1.436-.693.088-1.375-.11-1.87-.548a2.05 2.05 0 0 1-.715-1.535v-20.08q0-.079.011-.155v-3.342c0-1.063.814-1.984 1.86-2.082 6.676-.647 15.321-.79 18.643 2.214.121.11.231.219.341.34.11-.121.22-.23.341-.34 3.322-3.003 11.968-2.861 18.644-2.214 1.045.098 1.859 1.02 1.859 2.082v23.15a2.05 2.05 0 0 1-.715 1.535 2.4 2.4 0 0 1-1.864.561l-.028-.002a1.09 1.09 0 0 1-.946-1.228 1.093 1.093 0 0 1 1.232-.943c.044 0 .077 0 .1-.01V18.594c-8.613-.822-14.74-.22-16.819 1.666-.484.439-.715.932-.715 1.535H25.1v21.251c1.878-.904 5.493-1.894 12.132-1.543a1.11 1.11 0 0 1 1.045 1.15 1.117 1.117 0 0 1-1.155 1.042c-8.524-.45-11.351 1.348-12.022 1.918a1.8 1.8 0 0 1-1.1.384m-1.092-24.33c-.031-.544-.263-.99-.712-1.407-2.079-1.885-8.205-2.488-16.818-1.666v4.406q0 .079-.01.155v18.84a.24.24 0 0 0 .098.012c10.088-1.32 15.079-.111 17.434 1.032V21.796q0-.065.008-.128m-3.803 2.33c.088.023.165.034.253.034a1.1 1.1 0 0 0 1.067-.844 1.09 1.09 0 0 0-.814-1.316c-2.475-.592-7.435-.888-10.856-.394a1.096 1.096 0 1 0 .308 2.17c3.124-.45 7.798-.175 10.042.35m9.537.034a1.1 1.1 0 0 1-1.067-.844 1.09 1.09 0 0 1 .814-1.316c2.486-.58 7.435-.877 10.856-.394.605.087 1.023.646.935 1.238a1.09 1.09 0 0 1-1.243.932c-3.124-.45-7.798-.175-10.042.35a1 1 0 0 1-.253.034m-1.067 3.32a1.1 1.1 0 0 0 1.067.845c.079 0 .15-.009.226-.019l.027-.003.076-.018c1.065-.25 2.391-.56 4.378-.431a1.084 1.084 0 0 0 1.166-1.03 1.103 1.103 0 0 0-1.034-1.163c-2.353-.142-3.937.23-5.092.505a1.09 1.09 0 0 0-.814 1.315m-8.217.845c-.088 0-.165-.011-.253-.033-2.244-.526-6.918-.8-10.042-.35a1.096 1.096 0 1 1-.308-2.171c3.42-.493 8.381-.198 10.856.394.594.143.957.735.814 1.316a1.1 1.1 0 0 1-1.067.844M7.82 31.047a1.1 1.1 0 0 0 1.089.942c.044 0 .099-.01.154-.022 1.738-.252 4.18-.295 6.544-.12a1.1 1.1 0 0 0 1.177-1.009 1.094 1.094 0 0 0-1.011-1.172c-2.552-.176-5.104-.132-7.018.142a1.09 1.09 0 0 0-.935 1.239" clip-rule="evenodd"/></svg>