<svg xmlns="http://www.w3.org/2000/svg" width="130" height="100" fill="none"><path id="icon" fill="currentColor" d="M74.41 69.099c0 8.402 6.728 15.21 15.03 15.21 8.303 0 15.031-6.808 15.031-15.21s-6.728-15.21-15.03-15.21c-2.592 0-5.031.667-7.163 1.84a1.41 1.41 0 0 1-1.924-.576 1.444 1.444 0 0 1 .569-1.947 17.6 17.6 0 0 1 8.518-2.187c2.103 0 4.121.367 5.995 1.042V33.233H87.62a1.44 1.44 0 0 1-1.436-1.448c0-.8.643-1.447 1.436-1.447h7.816v-2.374c0-4.599-3.362-8.08-7.191-8.08h-55.17c-3.846 0-7.192 3.479-7.192 8.08v2.374H77.41c.793 0 1.436.648 1.436 1.447 0 .8-.643 1.448-1.436 1.448H25.883v33.254c0 4.601 3.346 8.08 7.191 8.08h31.433c.881 0 1.596.72 1.596 1.609 0 .888-.715 1.608-1.596 1.608H33.074c-5.874 0-10.382-5.2-10.382-11.297V27.964c0-6.096 4.508-11.297 10.382-11.297h55.171c5.853 0 10.382 5.198 10.382 11.297v24.691c0 .293-.078.568-.214.805a18.11 18.11 0 0 1 8.895 15.639c0 9.987-7.998 18.08-17.867 18.08S71.574 79.086 71.574 69.1c0-3.07.757-5.975 2.103-8.51a1.41 1.41 0 0 1 1.921-.585c.69.375.95 1.245.579 1.944a15.2 15.2 0 0 0-1.766 7.151m-.173-8.206a.8.8 0 0 1 .15-.199.8.8 0 0 0-.124.172 17.46 17.46 0 0 0-2.027 8.206c0 9.632 7.713 17.438 17.231 17.438 4.753 0 9.057-1.947 12.174-5.095-3.12 3.164-7.434 5.122-12.2 5.122-9.519 0-17.232-7.806-17.232-17.438 0-2.963.73-5.762 2.028-8.206m6.675-6.047a.8.8 0 0 1 .147-.952.8.8 0 0 0-.12.925.78.78 0 0 0 1.062.318 15.44 15.44 0 0 1 7.466-1.917c8.654 0 15.665 7.096 15.665 15.852 0 4.385-1.757 8.353-4.599 11.222a15.9 15.9 0 0 0 4.573-11.195c0-8.757-7.012-15.852-15.665-15.852-2.701 0-5.244.694-7.466 1.917a.78.78 0 0 1-1.063-.318m1.722 21.139a1.65 1.65 0 0 1 .003-2.315l4.515-4.561-4.49-4.554a1.65 1.65 0 0 1 .003-2.315 1.604 1.604 0 0 1 2.288.002l4.483 4.548 4.49-4.574a1.604 1.604 0 0 1 2.288-.007 1.65 1.65 0 0 1 .008 2.315l-4.492 4.575 4.512 4.536a1.65 1.65 0 0 1 .008 2.315 1.604 1.604 0 0 1-2.287.008l-4.517-4.54-4.524 4.569a1.604 1.604 0 0 1-2.288-.002M32.628 27.496a1.923 1.923 0 1 0 0-3.846 1.923 1.923 0 0 0 0 3.846m8.334-1.923a1.923 1.923 0 1 1-3.847 0 1.923 1.923 0 0 1 3.847 0m4.487 1.923a1.923 1.923 0 1 0 0-3.846 1.923 1.923 0 0 0 0 3.846"/></svg>