<svg xmlns="http://www.w3.org/2000/svg" width="48" height="48" fill="none"><path id="icon" fill="currentColor" fill-rule="evenodd" d="M7.04 8c0-1.101.912-2 2.06-2h18.482c1.148 0 2.06.899 2.06 2v8.59c0 .552.457 1 1.02 1a1.01 1.01 0 0 0 1.02-1V8c0-2.219-1.84-4-4.1-4H9.1C6.84 4 5 5.781 5 8v32c0 2.219 1.84 4 4.1 4h18.482c2.26 0 4.1-1.781 4.1-4v-7.41c0-.552-.456-1-1.02-1a1.01 1.01 0 0 0-1.02 1V40c0 1.101-.912 2-2.06 2H9.1c-1.148 0-2.06-.899-2.06-2zm30.58 9.968a1.044 1.044 0 0 0-1.45-.012.98.98 0 0 0 .012 1.413l3.81 3.816-20.68-.172a.99.99 0 0 0-1.016.99c.005.552.467 1.003 1.034 1.008l20.673.163-3.767 3.538a.98.98 0 0 0 .012 1.412 1.044 1.044 0 0 0 1.45.012l4.713-4.593c.795-.774.784-2.039-.024-2.825z" clip-rule="evenodd"/></svg>