<svg xmlns="http://www.w3.org/2000/svg" width="48" height="48" fill="none"><path id="icon" fill="currentColor" fill-rule="evenodd" d="M8 6c0-1.108.892-2 2-2h28c1.108 0 2 .892 2 2v3.09a1 1 0 1 0 2 0V6c0-2.212-1.788-4-4-4H10C7.788 2 6 3.788 6 6v36c0 2.212 1.788 4 4 4h28c2.212 0 4-1.788 4-4V27.96a1 1 0 1 0-2 0V42c0 1.108-.892 2-2 2H10c-1.108 0-2-.892-2-2zm8.735 21.338-.022.023a1 1 0 0 0-.356.514l-2.316 7.809a1 1 0 0 0 1.247 1.242l7.757-2.338a1 1 0 0 0 .47-.307q.048-.04.093-.085l18.002-18.04c.46-.463.518-1.154.127-1.544l-5.458-5.445c-.39-.39-1.082-.332-1.543.13zm.204 5.606.854-2.88.855.853 2.225 2.237-2.866.864zm6.089-.997-4.042-4.033 16.331-16.367 4.042 4.033z" clip-rule="evenodd"/></svg>