<svg xmlns="http://www.w3.org/2000/svg" width="48" height="48"><path id="icon" fill="currentColor" fill-rule="evenodd" d="M25.837.497a3.66 3.66 0 0 0-3.674 0L22.158.5 1.82 12.391C-1.394 14.266-.078 19.2 3.66 19.2h2.417Q6 19.397 6 19.62V39.6H4.8a3.607 3.607 0 0 0-3.6 3.6v1.2c0 1.983 1.617 3.6 3.6 3.6h38.4c1.983 0 3.6-1.617 3.6-3.6v-1.2c0-1.983-1.617-3.6-3.6-3.6H42V19.2h2.34c3.718 0 5.061-4.93 1.84-6.809L25.843.5zM39.6 39.6V18.42q0-.217.072-.41V18a1.2 1.2 0 0 1 1.2-1.2h3.468c1.274 0 1.73-1.694.631-2.336L24.635 2.574h-.002a1.26 1.26 0 0 0-1.266 0h-.003L3.03 14.465c-1.107.645-.648 2.336.63 2.336H36a1.2 1.2 0 0 1 0 2.4H8.324q.076.197.076.42V40.8A1.2 1.2 0 0 1 7.2 42H4.8c-.657 0-1.2.543-1.2 1.2v1.2c0 .657.543 1.2 1.2 1.2h38.4c.657 0 1.2-.543 1.2-1.2v-1.2c0-.657-.543-1.2-1.2-1.2H12.66a1.2 1.2 0 0 1 0-2.4h1.74V23.22a1.2 1.2 0 0 1 2.4 0V39.6h6V22.02a1.2 1.2 0 0 1 2.4 0V39.6h6V24a1.2 1.2 0 0 1 2.4 0v15.6zM24 11.4a1.8 1.8 0 1 0 0-3.6 1.8 1.8 0 0 0 0 3.6" clip-rule="evenodd"/></svg>