<svg xmlns="http://www.w3.org/2000/svg" width="48" height="48" fill="none"><path id="icon" fill="currentColor" fill-rule="evenodd" d="M9 5a3 3 0 1 0 0 6 3 3 0 0 0 0-6M4 8a5 5 0 0 1 9.901-.995Q13.951 7 14 7h16.5c4.692 0 8.5 3.808 8.5 8.5S35.192 24 30.5 24H20c-3.868 0-7 3.132-7 7s3.132 7 7 7h12.586l-3.293-3.293a1 1 0 0 1 1.414-1.414l4.995 4.995.052.055a1 1 0 0 1 .244.72 1 1 0 0 1-.281.634l-.01.01-5 5a1 1 0 0 1-1.414-1.414L32.586 40H20c-4.972 0-9-4.028-9-9s4.028-9 9-9h10.5c3.588 0 6.5-2.912 6.5-6.5S34.088 9 30.5 9H14q-.05 0-.099-.005A5.002 5.002 0 0 1 4 8m40.707 28.293a1 1 0 0 1 0 1.414L43.414 39l1.293 1.293a1 1 0 0 1-1.414 1.414L42 40.414l-1.293 1.293a1 1 0 0 1-1.414-1.414L40.586 39l-1.293-1.293a1 1 0 0 1 1.414-1.414L42 37.586l1.293-1.293a1 1 0 0 1 1.414 0" clip-rule="evenodd"/></svg>