<svg width="48" height="48" viewBox="0 0 48 48" fill="none" xmlns="http://www.w3.org/2000/svg">
<g id="icon" fill="currentColor">
<path d="M6.26654 28.992C6.26654 28.5583 5.93071 28.2067 5.51655 28.2067C5.10239 28.2067 4.76657 28.5583 4.76657 28.992V32.1331H1.76663V22.7097C1.76797 21.4607 2.2424 20.2631 3.08617 19.3797C3.92995 18.4963 5.07368 17.9995 6.26654 17.9981H14.5164C15.6534 17.9984 16.7479 18.4517 17.5776 19.2657C17.7246 19.2096 17.8742 19.1588 18.0252 19.1118C17.8002 18.5387 17.6489 17.9367 17.5752 17.3215C16.6521 16.7381 15.5945 16.4289 14.5163 16.4275H14.0583C15.0601 15.4039 15.6296 14.0037 15.641 12.5383C15.6524 11.0726 15.1039 9.66328 14.1182 8.62276C13.1325 7.58225 11.791 6.99719 10.3911 6.99719C8.99158 6.99719 7.65001 7.58229 6.66432 8.62276C5.67828 9.66328 5.13024 11.0726 5.14155 12.5383C5.15293 14.0037 5.72245 15.4039 6.72389 16.4275H6.26654C4.6758 16.4293 3.15072 17.0919 2.02608 18.2698C0.901106 19.4473 0.268291 21.0442 0.266663 22.7098V32.1331C0.266663 32.5496 0.424699 32.9492 0.705939 33.2437C0.987179 33.5382 1.36887 33.7037 1.76663 33.7037H12.6418V32.1331H6.26697L6.26654 28.992ZM6.64153 12.5011C6.64153 11.4599 7.03661 10.4612 7.73968 9.72455C8.44312 8.98835 9.39701 8.57472 10.3914 8.57472C11.3859 8.57472 12.3397 8.9884 13.0432 9.72455C13.7463 10.4611 14.1414 11.4599 14.1414 12.5011C14.1414 13.5424 13.7463 14.541 13.0432 15.2777C12.3398 16.0139 11.3859 16.4275 10.3914 16.4275C9.39736 16.4265 8.44415 16.0124 7.74105 15.2762C7.03795 14.5401 6.64256 13.542 6.64153 12.5011Z" />
<path d="M20.1403 36.0632V33.0441C20.1403 32.6104 19.8045 32.2588 19.3903 32.2588C18.9762 32.2588 18.6404 32.6104 18.6404 33.0441V36.0632H15.6404V26.6399C15.6418 25.3908 16.1162 24.1932 16.96 23.3099C17.8037 22.4265 18.9475 21.9297 20.1403 21.9282H28.3901C29.5831 21.9296 30.7268 22.4264 31.5705 23.3099C32.4142 24.1933 32.8887 25.3909 32.8901 26.6399V28.2305C33.398 28.2585 33.9012 28.3469 34.39 28.4941V26.6399C34.3883 24.9743 33.7556 23.3775 32.6306 22.1999C31.506 21.022 29.9809 20.3594 28.3901 20.3577H27.9321C28.9339 19.3341 29.5034 17.9338 29.5148 16.4685C29.5262 15.0027 28.9778 13.5935 27.992 12.5529C27.0063 11.5124 25.6648 10.9274 24.2649 10.9274C22.8654 10.9274 21.5238 11.5125 20.5381 12.5529C19.5521 13.5935 19.004 15.0027 19.0154 16.4685C19.0267 17.9338 19.5963 19.3341 20.5977 20.3577H20.1403C18.5496 20.3595 17.0245 21.022 15.8999 22.1999C14.7749 23.3775 14.1421 24.9743 14.1405 26.6399V36.0633C14.1405 36.4798 14.2985 36.8794 14.5797 37.1739C14.861 37.4684 15.2427 37.6338 15.6404 37.6338H26.1591C25.9853 37.1262 25.8678 36.5993 25.8095 36.0633L20.1403 36.0632ZM20.5153 16.4313C20.5153 15.39 20.9104 14.3913 21.6135 13.6547C22.3169 12.9185 23.2708 12.5049 24.2652 12.5049C25.2597 12.5049 26.2135 12.9186 26.917 13.6547C27.6201 14.3913 28.0152 15.39 28.0152 16.4313C28.0152 17.4725 27.6201 18.4712 26.917 19.2078C26.2136 19.944 25.2597 20.3577 24.2652 20.3577C23.2711 20.3566 22.3179 19.9426 21.6148 19.2064C20.9117 18.4702 20.5163 17.4721 20.5153 16.4313Z" />
<path d="M32.5166 29.773C31.1241 29.773 29.7889 30.3521 28.8045 31.3831C27.8198 32.4138 27.2667 33.8118 27.2667 35.2699C27.2667 36.728 27.8198 38.126 28.8045 39.1568C29.7888 40.1878 31.124 40.7669 32.5166 40.7669C33.9092 40.7669 35.2443 40.1878 36.2287 39.1568C37.2134 38.1261 37.7665 36.728 37.7665 35.2699C37.7648 33.8126 37.2114 32.4152 36.227 31.3849C35.243 30.3543 33.9084 29.7748 32.5166 29.773V29.773ZM32.5166 39.1963C31.5222 39.1963 30.5684 38.7827 29.8648 38.0465C29.1617 37.31 28.7667 36.3112 28.7667 35.2699C28.7667 34.2287 29.1618 33.23 29.8648 32.4934C30.5683 31.7572 31.5222 31.3436 32.5166 31.3436C33.511 31.3436 34.4648 31.7572 35.1684 32.4934C35.8715 33.2299 36.2665 34.2287 36.2665 35.2699C36.2655 36.3108 35.8701 37.3089 35.167 38.0451C34.4639 38.7813 33.5107 39.1953 32.5166 39.1963Z" />
<path d="M34.0165 34.4904H33.2665V33.7052C33.2665 33.2715 32.9307 32.9199 32.5165 32.9199C32.1023 32.9199 31.7665 33.2715 31.7665 33.7052V34.4904H31.0165C30.6024 34.4904 30.2666 34.8421 30.2666 35.2757C30.2666 35.7094 30.6024 36.061 31.0165 36.061H31.7665V36.8463C31.7665 37.2799 32.1023 37.6315 32.5165 37.6315C32.9307 37.6315 33.2665 37.2799 33.2665 36.8463V36.061H34.0165C34.4306 36.061 34.7665 35.7094 34.7665 35.2757C34.7665 34.8421 34.4306 34.4904 34.0165 34.4904Z" />
<path d="M42.2667 16.4275H41.8087C42.8105 15.4039 43.3799 14.0037 43.3913 12.5383C43.4027 11.0726 42.8543 9.66328 41.8686 8.62276C40.8828 7.58225 39.5413 6.99719 38.1415 6.99719C36.7419 6.99719 35.4004 7.58229 34.4147 8.62276C33.4286 9.66328 32.8806 11.0726 32.8919 12.5383C32.9033 14.0037 33.4728 15.4039 34.4742 16.4275H34.0169C32.9381 16.4286 31.8804 16.7378 30.957 17.3215C30.8834 17.9367 30.732 18.5386 30.507 19.1118C30.657 19.1588 30.807 19.2096 30.9547 19.2657C31.7847 18.4514 32.8795 17.9981 34.017 17.9981H42.2668C43.4597 17.9995 44.6035 18.4962 45.4471 19.3797C46.2908 20.2632 46.7653 21.4607 46.7667 22.7097V32.1331H43.7667V28.5993C43.7667 28.1657 43.4309 27.814 43.0168 27.814C42.6026 27.814 42.2668 28.1657 42.2668 28.5993V32.1331H38.5544C38.7931 32.6323 38.9739 33.1596 39.0928 33.7036H46.7667C47.1645 33.7036 47.5462 33.5382 47.8274 33.2437C48.1086 32.9492 48.2667 32.5496 48.2667 32.1331V22.7097C48.265 21.0441 47.6322 19.4473 46.5072 18.2697C45.3826 17.0918 43.8575 16.4292 42.2668 16.4275L42.2667 16.4275ZM38.1418 16.4275C37.1473 16.4275 36.1935 16.0139 35.49 15.2777C34.7869 14.5412 34.3919 13.5424 34.3919 12.5011C34.3919 11.4599 34.7869 10.4612 35.49 9.72458C36.1934 8.98838 37.1473 8.57475 38.1418 8.57475C39.1362 8.57475 40.09 8.98843 40.7936 9.72458C41.4967 10.4611 41.8917 11.4599 41.8917 12.5011C41.8907 13.542 41.4953 14.5401 40.7922 15.2763C40.0891 16.0125 39.1359 16.4265 38.1418 16.4275Z" />
</g>
</svg>
