<svg width="16" height="16" viewBox="0 0 16 16" fill="none" xmlns="http://www.w3.org/2000/svg">
<path fill-rule="evenodd" clip-rule="evenodd" d="M8 15C11.866 15 15 11.866 15 8C15 4.13401 11.866 1 8 1C4.13401 1 1 4.13401 1 8C1 11.866 4.13401 15 8 15ZM11.5021 6.34688C11.7201 6.11652 11.7217 5.74132 11.5058 5.50883C11.2898 5.27635 10.938 5.27462 10.7201 5.50498L7.04047 9.39395L5.27982 7.53398C5.06182 7.30368 4.71007 7.30549 4.49416 7.53802C4.27825 7.77056 4.27995 8.14577 4.49795 8.37607L6.40114 10.3866C6.7546 10.76 7.32641 10.76 7.67987 10.3866L7.67997 10.3865L11.5021 6.34688Z" fill="inherit" />
</svg>
