<svg width="20" height="20" viewBox="0 0 20 20" xmlns="http://www.w3.org/2000/svg">
<path id="icon" fill-rule="evenodd" clip-rule="evenodd" d="M14.2372 5.7072L16.7829 3.46009C16.9428 3.62521 16.9383 3.88844 16.7729 4.04803L14.7534 5.99568C15.375 6.36202 15.9434 6.76563 16.4467 7.1648C17.2579 7.80819 17.9134 8.45074 18.3663 8.93255C18.5931 9.17371 18.7696 9.37525 18.8902 9.51739C18.9505 9.58848 18.9969 9.64476 19.0286 9.68376C19.0444 9.70327 19.0566 9.71846 19.065 9.72903L19.0747 9.74138L19.0775 9.74488L19.0786 9.74632L18.75 10.0019L19.0786 10.2575L19.0783 10.2579L19.0775 10.2589L19.0747 10.2624L19.065 10.2748L19.0433 10.3019L19.0286 10.32C18.9969 10.3591 18.9505 10.4153 18.8902 10.4864C18.7696 10.6286 18.5931 10.8301 18.3663 11.0713C17.9134 11.5531 17.2579 12.1956 16.4467 12.839C14.8351 14.1172 12.5559 15.4409 9.99997 15.4409C8.53218 15.4409 7.17543 15.0315 5.98586 14.4476L3.80616 16.5498C3.6407 16.7094 3.37692 16.7049 3.217 16.5397C3.05707 16.3746 3.06157 16.1114 3.22704 15.9518L5.21593 14.0336C4.5774 13.6604 3.99809 13.2468 3.48861 12.8373C2.6869 12.193 2.04637 11.5494 1.60594 11.0667C1.3855 10.8251 1.21457 10.6231 1.09803 10.4806C1.03974 10.4093 0.995013 10.3528 0.964453 10.3137C0.949172 10.2941 0.93743 10.2788 0.929301 10.2681L0.919827 10.2556L0.91714 10.2521L0.916027 10.2506L1.24996 10.0019C0.915829 10.2503 0.915921 10.2504 0.916027 10.2506C0.804055 10.1006 0.806216 9.89393 0.921313 9.74632C0.921208 9.74645 0.921118 9.74657 1.24997 10.0019L0.921313 9.74632L0.922436 9.74488L0.925189 9.74138L0.934966 9.72903C0.943371 9.71846 0.955536 9.70327 0.97137 9.68376C1.00304 9.64476 1.04939 9.58848 1.1097 9.51739C1.2303 9.37525 1.40688 9.17371 1.63359 8.93255C2.08653 8.45074 2.74202 7.80819 3.55321 7.1648C5.16483 5.88658 7.44407 4.56292 9.99997 4.56292C11.44 4.56292 12.7922 4.98311 13.9867 5.57862L16.1937 3.45007C16.3592 3.29048 16.623 3.29497 16.7829 3.46009L14.2372 5.70719C14.2372 5.70719 14.2372 5.70719 14.2372 5.7072ZM13.5668 6.29896C13.5668 6.29896 13.5667 6.29896 13.5667 6.29896L10.8011 8.74019L10.8006 8.74065L13.5668 6.29896ZM7.6566 12.8376C8.29932 13.3338 9.1143 13.6326 9.99995 13.6326C12.0582 13.6326 13.7499 12.0211 13.7499 10.002C13.7499 9.77233 13.5634 9.58617 13.3333 9.58617C13.1032 9.58617 12.9166 9.77233 12.9166 10.002C12.9166 11.5353 11.625 12.801 9.99995 12.801C9.34906 12.801 8.74926 12.5958 8.26423 12.2522L9.43055 11.1285C9.87329 11.3743 10.4447 11.3427 10.8583 11.0066C11.33 10.6233 11.4375 9.97821 11.1395 9.48113L14.1303 6.59669C14.7846 6.96583 15.3889 7.38809 15.9282 7.81581C16.7004 8.42823 17.3261 9.04147 17.7586 9.50151C17.9474 9.70234 18.0989 9.87346 18.2091 10.0019C18.0989 10.1303 17.9474 10.3015 17.7586 10.5023C17.3261 10.9623 16.7004 11.5756 15.9282 12.188C14.3732 13.4214 12.2774 14.6093 9.99997 14.6093C8.79247 14.6093 7.65457 14.2985 6.62624 13.8303L7.6566 12.8376ZM7.36212 11.9654C7.16865 11.7226 7.00966 11.4531 6.89276 11.1637L5.04318 12.9457C5.29842 13.1149 5.5643 13.2782 5.83993 13.432L7.36212 11.9654ZM12.0387 7.45741L13.3482 6.19442C13.0482 6.05506 12.7397 5.92921 12.4242 5.82076C12.4093 5.84189 12.3922 5.86192 12.3729 5.88054L11.2071 7.00489C11.5078 7.11764 11.7874 7.271 12.0387 7.45741ZM19.0786 10.2575C19.0787 10.2574 19.0788 10.2572 18.75 10.0019C19.0788 9.74657 19.0787 9.74645 19.0786 9.74632C19.1957 9.89649 19.1957 10.1073 19.0786 10.2575ZM2.78952 9.4972L2.00035 10.2583C2.06681 10.3345 2.14083 10.4178 2.22212 10.5068C2.39087 10.6918 2.59052 10.9016 2.81853 11.1261L5.54373 8.4978L8.61393 5.53673C7.56733 5.74843 6.57934 6.17809 5.68931 6.7005L2.78952 9.4972ZM9.94023 5.39478C9.92195 5.425 9.89949 5.45337 9.87286 5.47906L5.70619 9.49761L3.42714 11.6956C3.61024 11.8583 3.80523 12.024 4.01132 12.1897C4.12323 12.2796 4.23817 12.3693 4.35601 12.4584C4.36863 12.4419 4.38264 12.4262 4.39805 12.4113L6.67416 10.2184C6.66916 10.1468 6.66663 10.0747 6.66663 10.002C6.66663 8.22576 8.15829 6.78712 9.99996 6.78712C10.076 6.78712 10.1514 6.78959 10.2261 6.79444L11.5044 5.56165C11.0148 5.45455 10.512 5.39451 9.99997 5.39451L9.94023 5.39478Z"/>
</svg>
