<svg width="33" height="33" viewBox="0 0 33 33"><path d="M16.45 23.529c.247 0 .446.209.446.466v4.216c0 .257-.2.466-.445.466a.456.456 0 01-.446-.466v-4.216c0-.257.2-.466.446-.466zm3.122.819l.865 2.725a.47.47 0 01-.294.591.46.46 0 01-.577-.301l-.865-2.725a.47.47 0 01.294-.59c.24-.08.499.054.577.3zm-6.066.985a.451.451 0 01.298.571l-.259.777a.463.463 0 01-.585.291.451.451 0 01-.298-.571l.259-.777a.466.466 0 01.585-.29zm-1.65-2.704c.205.152.25.445.101.655l-2.15 3.022a.456.456 0 01-.642.103.475.475 0 01-.101-.655l2.15-3.022a.452.452 0 01.642-.103zm8.347-1.978l3.337 4.618a.464.464 0 01-.372.735.459.459 0 01-.372-.19l-3.337-4.62a.463.463 0 01.102-.646.458.458 0 01.642.103zm-5.116.03a.456.456 0 01.3.579l-1.04 3.14a.47.47 0 01-.592.294.456.456 0 01-.3-.579l1.04-3.14a.472.472 0 01.592-.294zM7.203 23.02a.43.43 0 01-.105.622l-.144.099a.493.493 0 01-.66-.099.43.43 0 01.105-.622l.144-.099a.491.491 0 01.66.099zm11.286-2.141l.661 2.044a.463.463 0 01-.438.606.462.462 0 01-.439-.32l-.661-2.044a.463.463 0 01.296-.583.459.459 0 01.58.297zm6.377.955l1.242.874c.21.148.255.431.104.634a.475.475 0 01-.654.1l-1.242-.874a.445.445 0 01-.104-.634.477.477 0 01.654-.1zm-12.712-2.37a.464.464 0 01-.103.649l-3.624 2.634a.464.464 0 11-.546-.752l3.624-2.634a.465.465 0 01.65.103zm4.297 1.095a.45.45 0 01.445.454v1.27c0 .25-.2.454-.445.454a.45.45 0 01-.446-.454v-1.27c0-.25.2-.454.446-.454zm-3.116-.009a.473.473 0 01.105.66l-.54.738a.468.468 0 01-.66.105.473.473 0 01-.105-.66l.54-.738a.473.473 0 01.66-.105zm8.07-1.288l2.128 1.539a.467.467 0 01-.277.847.471.471 0 01-.276-.09l-2.128-1.538a.467.467 0 01-.104-.654.471.471 0 01.657-.104zm-12.551-.46a.467.467 0 01-.3.589l-2.925.947a.468.468 0 01-.59-.3.467.467 0 01.3-.588l2.925-.947c.246-.08.51.055.59.3zm14.793-.696l2.727.867a.456.456 0 01-.145.893.486.486 0 01-.145-.022l-2.727-.867a.456.456 0 01-.3-.577.472.472 0 01.59-.294zm-11.525-.393a.47.47 0 01-.293.588l-1.661.552a.459.459 0 01-.576-.299.47.47 0 01.293-.588l1.661-.552c.24-.08.498.054.576.3zm9.25-.3l.941.291c.247.077.382.33.302.565a.469.469 0 01-.447.31.498.498 0 01-.146-.022l-.94-.291a.445.445 0 01-.302-.565.476.476 0 01.593-.288zM7.129 15.906c.255 0 .462.2.462.446s-.207.445-.462.445h-2.54a.455.455 0 01-.463-.445c0-.247.207-.446.462-.446h2.54zm4.557 0c.253 0 .459.2.459.446s-.206.445-.46.445H8.743a.453.453 0 01-.459-.445c0-.247.206-.446.46-.446h2.942zm14.252-.099c.256 0 .463.2.463.446s-.207.445-.463.445H21.22a.455.455 0 01-.463-.445c0-.247.207-.446.463-.446h4.717zm2.575 0c.255 0 .462.2.462.446s-.207.445-.462.445h-.858a.454.454 0 01-.462-.445c0-.247.207-.446.462-.446h.858zm-17.633-1.76l.94.291c.247.077.382.33.302.565a.469.469 0 01-.447.31.498.498 0 01-.146-.022l-.94-.291a.445.445 0 01-.302-.565.476.476 0 01.593-.288zm12.43.003a.47.47 0 01-.293.588l-1.661.552a.459.459 0 01-.576-.299.47.47 0 01.293-.588l1.661-.552c.24-.08.498.054.576.3zM6.817 12.76l2.727.867a.456.456 0 01-.145.893.486.486 0 01-.145-.022l-2.727-.867a.456.456 0 01-.3-.577.471.471 0 01.59-.294zm21.045-.193a.47.47 0 01-.295.59l-2.843.944a.46.46 0 01-.578-.301.47.47 0 01.295-.59l2.843-.944c.24-.08.5.055.578.301zM10.02 11.045l2.128 1.539a.467.467 0 01-.277.847.471.471 0 01-.276-.09l-2.128-1.538a.467.467 0 01-.104-.654.471.471 0 01.657-.104zM25.123 9.96a.464.464 0 01-.103.649l-3.624 2.634a.464.464 0 11-.546-.752l3.624-2.634a.465.465 0 01.65.103zm-4.659.886c.21.15.257.437.104.642l-.346.466a.474.474 0 01-.657.102.453.453 0 01-.104-.642l.346-.466a.477.477 0 01.657-.102zM9.921 6.594l3.52 4.812a.465.465 0 01-.378.738.465.465 0 01-.379-.192L9.164 7.14a.465.465 0 01.104-.65.47.47 0 01.653.104zm4.813 2.805l.654 2.031a.47.47 0 01-.442.615.466.466 0 01-.442-.324L13.85 9.69a.47.47 0 01.298-.592.464.464 0 01.586.301zm1.717-2.898c.246 0 .445.208.445.464v4.517c0 .256-.2.464-.445.464a.455.455 0 01-.446-.464V6.965c0-.256.2-.464.446-.464zm2.794 1.409a.456.456 0 01.3.579l-1.04 3.14a.47.47 0 01-.592.294.456.456 0 01-.3-.579l1.04-3.14a.472.472 0 01.592-.294zM7.35 9.164l1.332.952a.46.46 0 01.105.649.476.476 0 01-.66.102l-1.332-.952a.459.459 0 01-.105-.648.477.477 0 01.66-.103zm16.48-2.971c.21.149.257.436.104.641l-2.625 3.537a.474.474 0 01-.655.101.452.452 0 01-.104-.641l2.625-3.537a.476.476 0 01.655-.101zM13.54 5.93l.661 2.044a.463.463 0 01-.438.606.462.462 0 01-.439-.32l-.661-2.044a.463.463 0 01.296-.583.459.459 0 01.58.297zm6.402-.298a.451.451 0 01.298.571l-.259.777a.463.463 0 01-.585.291.451.451 0 01-.298-.571l.259-.777a.466.466 0 01.585-.29zm-3.49-1.309c.246 0 .445.212.445.474v.537c0 .262-.2.474-.445.474-.247 0-.446-.212-.446-.474v-.537c0-.262.2-.474.446-.474z" fill="#626262" fill-rule="nonzero"/></svg>