<svg viewBox="0 0 88 88">
<path d="M34.8333 7.33317C33.8292 7.33317 33 8.16236 33 9.1665V14.6665H55V9.1665C55 8.16236 54.1708 7.33317 53.1667 7.33317H34.8333ZM29.3333 9.1665C29.3333 6.13732 31.8041 3.6665 34.8333 3.6665H53.1667C56.1959 3.6665 58.6667 6.13732 58.6667 9.1665V14.8498H75.1667C76.1792 14.8498 77 15.6706 77 16.6831C77 17.6956 76.1792 18.5165 75.1667 18.5165H12.8333C11.8208 18.5165 11 17.6956 11 16.6831C11 15.6706 11.8208 14.8498 12.8333 14.8498H29.3333V9.1665ZM20.1629 25.5485C20.0977 24.538 19.2257 23.7718 18.2153 23.837C17.2049 23.9023 16.4386 24.7743 16.5039 25.7847L19.8405 77.4652C20.0854 81.3255 23.2864 84.3332 27.1517 84.3332H60.8484C64.7133 84.3332 67.9141 81.3261 68.1596 77.4664L68.1597 77.464L71.4963 25.7847C71.5615 24.7743 70.7953 23.9023 69.7849 23.837C68.7744 23.7718 67.9024 24.538 67.8372 25.5485L64.5005 77.2301L64.5004 77.2324C64.3781 79.1649 62.776 80.6666 60.8484 80.6666H27.1517C25.2241 80.6666 23.622 79.1649 23.4997 77.2324L20.1629 25.5485ZM45.8333 32.0648C45.8333 31.0523 45.0125 30.2315 44 30.2315C42.9875 30.2315 42.1667 31.0523 42.1667 32.0648V70.6015C42.1667 71.614 42.9875 72.4348 44 72.4348C45.0125 72.4348 45.8333 71.614 45.8333 70.6015V32.0648ZM31.0796 30.2336C32.091 30.1855 32.9499 30.9664 32.998 31.9777L34.8313 70.5144C34.8794 71.5258 34.0985 72.3847 33.0872 72.4328C32.0758 72.4809 31.2169 71.7 31.1688 70.6886L29.3354 32.152C29.2873 31.1406 30.0682 30.2817 31.0796 30.2336ZM58.6646 32.152C58.7127 31.1406 57.9319 30.2817 56.9205 30.2336C55.9091 30.1855 55.0502 30.9664 55.0021 31.9777L53.1688 70.5144C53.1207 71.5258 53.9015 72.3847 54.9129 72.4328C55.9243 72.4809 56.7832 71.7 56.8313 70.6886L58.6646 32.152Z" />
</svg>
