<?xml version="1.0" encoding="UTF-8"?>
<svg width="322px" height="141px" viewBox="0 0 322 141" version="1.1" xmlns="http://www.w3.org/2000/svg" xmlns:xlink="http://www.w3.org/1999/xlink">
    <!-- Generator: sketchtool 49.2 (51160) - http://www.bohemiancoding.com/sketch -->
    <title>0EFA2079-D6EE-47FE-BB30-A5C6724A8B2D</title>
    <desc>Created with sketchtool.</desc>
    <defs></defs>
    <g id="Écrans" stroke="none" stroke-width="1" fill="none" fill-rule="evenodd">
        <g id="PassCulture-v0rc-HP-tuto3" transform="translate(-27.000000, -256.000000)">
            <g id="card-tuto3" transform="translate(24.000000, 248.000000)">
                <text id="Et-voilà-!-Glissez-l" font-family="Barlow-MediumItalic, Barlow" font-size="20" font-style="italic" font-weight="500" line-spacing="28.28" fill="#FFFFFF">
                    <tspan x="126.82" y="20">Et voilà !</tspan>
                    <tspan x="2.04" y="54.28">Glissez l'image vers le bas pour revenir </tspan>
                    <tspan x="79.61" y="82.56">à l'écran précédent, </tspan>
                    <tspan x="62.79" y="110.84">ou utilisez le bouton       . </tspan>
                    <tspan x="80.65" y="145.12">Bonne découverte !</tspan>
                </text>
                <g id="ICONS/ico-close-w-circled" transform="translate(230.000000, 86.000000)" stroke-linecap="round" stroke-linejoin="round" stroke-width="2">
                    <path d="M34,22 C34,28.6269217 28.6277565,34 22,34 C15.3730783,34 10,28.6269217 10,22 C10,15.3722435 15.3730783,10 22,10 C28.6277565,10 34,15.3722435 34,22 Z" id="Stroke-4" stroke="#000000" fill="#000000" fill-rule="evenodd"></path>
                    <path d="M15,15.5 L19.5674561,20.0674561 C20.6701129,21.1701129 20.6701129,22.9578728 19.5674561,24.0605296 L15.065315,28.5626707" id="Stroke-3" stroke="#FFFFFF"></path>
                    <path d="M29.3291337,28.5626707 L24.8269926,24.0605296 C23.7243358,22.9578728 23.7243358,21.1701129 24.8269926,20.0674561 L29.3944487,15.5" id="Stroke-3-Copy" stroke="#FFFFFF"></path>
                </g>
            </g>
        </g>
    </g>
</svg>