<svg xmlns="http://www.w3.org/2000/svg" width="105.532" height="36" fill="#870087"><path d="M34.103 13.427q1.015-.626 1.571-1.76c.556-1.134.557-1.632.557-2.627q0-1.51-.565-2.672-.566-1.161-1.598-1.797-1.033-.637-2.379-.637-.969 0-1.75.397-.78.396-1.3 1.153V4.027h-2.766V17.52h2.765v-5.013q.538.756 1.319 1.152t1.786.396q1.346 0 2.36-.627zm-4.792-2.487q-.672-.755-.672-1.99 0-1.2.672-1.964.675-.765 1.733-.765t1.723.765q.664.766.664 1.963 0 1.217-.664 1.982-.663.765-1.723.764-1.059 0-1.733-.755m34.313.857q-.332.194-.888.194-.808 0-1.715-.324a5.6 5.6 0 0 1-1.642-.91l-.898 1.915a5.8 5.8 0 0 0 1.903 1.023q1.095.36 2.28.36 1.722 0 2.827-.82t1.104-2.295q-.001-.975-.485-1.577a3.16 3.16 0 0 0-1.15-.902 14 14 0 0 0-1.687-.618q-.933-.276-1.346-.497-.413-.222-.413-.627.001-.369.305-.553.306-.183.808-.184.61 0 1.382.249a8 8 0 0 1 1.562.71l.952-1.935a6.5 6.5 0 0 0-1.796-.822 7 7 0 0 0-1.973-.285q-1.652 0-2.73.81-1.076.811-1.076 2.287 0 .959.467 1.557.466.6 1.121.894.656.295 1.643.59.933.277 1.355.516.421.24.422.663a.63.63 0 0 1-.332.581m-37.75 20.111h2.765V18.231h-2.765zm-5.09-5.014q0 1.106-.575 1.807-.573.701-1.561.718-.843 0-1.329-.534-.484-.535-.485-1.474v-5.42H14.07v6.23q0 1.752.943 2.775.942 1.023 2.54 1.023 2.244 0 3.23-1.862v1.751h2.748V21.99h-2.747v4.903zM9.501 29.041q-.871.414-1.714.415a3.6 3.6 0 0 1-1.94-.544 3.86 3.86 0 0 1-1.382-1.475 4.25 4.25 0 0 1-.502-2.055q0-1.125.502-2.045a3.8 3.8 0 0 1 1.383-1.457 3.66 3.66 0 0 1 1.939-.535q.878 0 1.75.452.87.453 1.516 1.244l1.651-2.083a6.8 6.8 0 0 0-2.261-1.576 6.7 6.7 0 0 0-2.693-.58q-1.867 0-3.4.866a6.35 6.35 0 0 0-2.415 2.378q-.88 1.511-.88 3.373 0 1.88.862 3.41a6.3 6.3 0 0 0 2.37 2.405q1.506.876 3.356.876 1.363 0 2.72-.627a7.6 7.6 0 0 0 2.36-1.696l-1.67-1.861a5.4 5.4 0 0 1-1.552 1.115m25.873.599q-.88 0-.88-1.143v-4.092h2.62v-1.972h-2.62v-2.728h-2.746v2.728h-1.347v1.954h1.347v4.59q0 1.474.843 2.267.845.793 2.19.792.664 0 1.32-.175a4.5 4.5 0 0 0 1.193-.507l-.574-2.083q-.736.369-1.346.369m17.78-5.862V21.99h-2.763v9.917h2.764v-4.774q0-1.18.745-1.889t2.019-.71q.288 0 .43.019V21.88q-1.076.018-1.884.497-.807.48-1.31 1.4zm8.681-1.88q-1.453 0-2.584.636a4.47 4.47 0 0 0-1.759 1.788q-.628 1.152-.628 2.664 0 1.492.62 2.635a4.3 4.3 0 0 0 1.759 1.77q1.139.626 2.665.627 1.293 0 2.342-.452 1.05-.45 1.786-1.3l-1.454-1.511a3.45 3.45 0 0 1-1.13.783q-.63.268-1.311.268-.933 0-1.597-.525t-.897-1.466h6.928q.018-.24.018-.682 0-2.47-1.211-3.853-1.212-1.382-3.547-1.382m-2.243 4.24q.163-.995.764-1.576.6-.58 1.498-.58.951 0 1.526.589.574.59.61 1.567zm-14.202.755q0 1.106-.575 1.807-.574.701-1.562.718-.842 0-1.328-.534-.484-.535-.485-1.474v-5.42h-2.764v6.23q0 1.752.943 2.775.941 1.023 2.54 1.023 2.243 0 3.23-1.862v1.751h2.747V21.99h-2.745zm8.511-15.097q-.33.194-.889.194-.808 0-1.713-.324a5.6 5.6 0 0 1-1.643-.91l-.897 1.915a5.8 5.8 0 0 0 1.902 1.023q1.095.36 2.28.36 1.722 0 2.827-.82t1.104-2.295q0-.975-.485-1.577a3.15 3.15 0 0 0-1.149-.902 14 14 0 0 0-1.686-.618q-.935-.276-1.347-.497-.413-.222-.413-.627 0-.369.305-.553.305-.183.808-.184.61 0 1.382.249a7.8 7.8 0 0 1 1.562.71l.95-1.935a6.5 6.5 0 0 0-1.794-.822 7 7 0 0 0-1.975-.285q-1.65 0-2.728.81-1.078.811-1.077 2.287 0 .958.467 1.557.466.6 1.122.894.654.295 1.642.59.933.277 1.355.516.422.24.422.663a.63.63 0 0 1-.332.581M41.527 7.99q-1.76.018-2.72.802-.96.783-.96 2.184 0 1.383.897 2.24.898.856 2.424.857 1.005 0 1.777-.332.771-.331 1.256-.959v1.161h2.71l-.017-6.47q-.018-1.677-1.087-2.617-1.066-.94-3.006-.94-1.203 0-2.208.277-1.005.276-2.154.867l.862 1.953q1.525-.866 2.872-.867.987.001 1.498.434.512.433.512 1.225v.185zm2.656 2.562q-.126.646-.754 1.069-.627.424-1.49.424-.7 0-1.103-.342-.404-.34-.404-.911 0-.59.386-.857.385-.268 1.193-.268h2.172zM83.257 9.44a.325.325 0 1 0 .568-.314l-2.272-4.143a.323.323 0 0 0-.44-.128.325.325 0 0 0-.128.441zM80.329 4.1a.325.325 0 1 0 .569-.313l-.93-1.694a.324.324 0 1 0-.567.314zm6.066 7.826a.326.326 0 0 0 .395.235.325.325 0 0 0 .233-.396L84.407 1.553a.325.325 0 0 0-.628.161zm-2.254-1.546a.327.327 0 0 0-.128.442l.648 1.18a.325.325 0 0 0 .44.129.325.325 0 0 0 .128-.441l-.647-1.182a.324.324 0 0 0-.44-.128zm-1.18 2.323a.323.323 0 0 0 .458.014.327.327 0 0 0 .015-.46l-5.911-6.31a.325.325 0 0 0-.473.446l5.91 6.31zm6.755-.54a.325.325 0 0 0 .394-.235l2.458-9.595a.325.325 0 1 0-.628-.162l-2.458 9.596c-.044.174.06.35.234.396m-8.844 9.52q.07 0 .138-.032l1.367-.645a.325.325 0 0 0-.276-.588l-1.367.645a.324.324 0 0 0 .138.619zm1.367-5.44a.326.326 0 0 0 .1-.636l-6.353-2.068a.324.324 0 1 0-.2.618l6.353 2.07q.05.015.1.015zm-2.817 5.439-3.52 1.66a.326.326 0 0 0-.156.433.327.327 0 0 0 .432.156l3.52-1.661a.324.324 0 1 0-.276-.588m3.135-2.717a.325.325 0 0 0-.379-.259l-9.755 1.866a.324.324 0 0 0-.258.38.324.324 0 0 0 .378.258l9.757-1.865a.325.325 0 0 0 .257-.38m-4.622-1.415 4.284.27.02.001c.17 0 .313-.132.323-.304a.323.323 0 0 0-.303-.345l-4.284-.27a.324.324 0 0 0-.343.304.323.323 0 0 0 .303.344m16.016-3.298a.32.32 0 0 0 .447.101l8.228-5.236a.326.326 0 0 0-.347-.55l-8.228 5.237a.325.325 0 0 0-.1.448m6.54-.362a.326.326 0 0 0-.409-.21l-5.917 1.928a.326.326 0 0 0 .1.634.3.3 0 0 0 .1-.016l5.917-1.927a.325.325 0 0 0 .208-.41zm-6.246 3.282a.325.325 0 0 0 .02.649h.02l3.547-.224a.323.323 0 0 0 .303-.345.324.324 0 0 0-.343-.304zm-.118 3.834 6.2 2.924a.326.326 0 0 0 .431-.155.326.326 0 0 0-.156-.433l-6.198-2.924a.325.325 0 0 0-.277.588m-2.725-8.874a.323.323 0 0 0 .44-.128l1.923-3.507a.324.324 0 1 0-.567-.313l-1.924 3.507a.324.324 0 0 0 .128.441m-8.949 1.67-1.408-.896a.324.324 0 0 0-.447.1.326.326 0 0 0 .1.449l1.408.896a.324.324 0 0 0 .447-.1.326.326 0 0 0-.1-.449m19.148-.274a.33.33 0 0 0 .308.225.3.3 0 0 0 .1-.017l2.27-.739a.325.325 0 0 0-.201-.618l-2.269.74a.325.325 0 0 0-.208.409m-7.033-2.394a.326.326 0 0 0 .459-.015l3.021-3.226a.324.324 0 1 0-.472-.445l-3.022 3.226a.326.326 0 0 0 .014.46m-.557.594a.323.323 0 0 0-.458.015l-.483.514a.324.324 0 1 0 .472.445l.484-.514a.326.326 0 0 0-.015-.46m.16-4.646a.323.323 0 0 0 .441-.128l2.32-4.23a.326.326 0 0 0-.128-.442.323.323 0 0 0-.44.128l-2.32 4.23a.325.325 0 0 0 .127.442m-1.858 16.395a.324.324 0 0 0-.072.453l1.729 2.387a.324.324 0 1 0 .524-.382l-1.729-2.387a.32.32 0 0 0-.452-.071m6.578-16.634a.32.32 0 0 0 .236-.102l1.721-1.837a.325.325 0 0 0-.473-.446l-1.72 1.838a.326.326 0 0 0 .013.46.33.33 0 0 0 .223.087M74.287 9.375l5.208 3.313a.325.325 0 0 0 .348-.549l-5.208-3.313a.325.325 0 1 0-.348.549m20.057 23.038a.324.324 0 1 0-.603.24l.626 1.584a.325.325 0 1 0 .603-.239zm-2.985-7.558-.424-1.072a.323.323 0 0 0-.42-.183.327.327 0 0 0-.183.422l.424 1.072a.324.324 0 1 0 .603-.239m-1.592 5.035a.324.324 0 0 0 .281-.363l-.714-5.665a.324.324 0 1 0-.642.082l.713 5.664a.324.324 0 0 0 .362.282m.114.902a.32.32 0 0 0-.28.363l.416 3.31c.021.165.16.285.321.285q.021 0 .042-.003a.324.324 0 0 0 .28-.363l-.416-3.31a.326.326 0 0 0-.363-.282m4.23-8.48a.324.324 0 1 0-.413.501l6.931 5.747a.323.323 0 0 0 .457-.044.324.324 0 0 0-.044-.457l-6.93-5.747zm11.55-5.86-6.456.406a.326.326 0 0 0 .02.65h.021l6.455-.408a.324.324 0 0 0 .303-.345.324.324 0 0 0-.344-.304zm-1.091 4.212-10.242-1.959a.325.325 0 0 0-.122.639l10.242 1.958a.325.325 0 0 0 .122-.638M88.253.08a.324.324 0 0 0-.324.325v2.458a.324.324 0 1 0 .648 0V.405a.324.324 0 0 0-.324-.325m7.403 27.455a.325.325 0 0 0-.525.382l2.42 3.338a.32.32 0 0 0 .452.072.325.325 0 0 0 .072-.454l-2.42-3.338zm8.662-2.442-2.269-1.07a.323.323 0 0 0-.431.155.324.324 0 0 0 .155.433l2.269 1.07a.3.3 0 0 0 .138.032.325.325 0 0 0 .138-.62m-12.36 1.279a.324.324 0 1 0-.603.239l1.736 4.397a.326.326 0 0 0 .422.182.325.325 0 0 0 .181-.422zm-9.105-4.018a.323.323 0 0 0-.457-.043l-6.715 5.568a.325.325 0 1 0 .413.501l6.716-5.569a.325.325 0 0 0 .043-.457m-8.277 1.613-2.23 1.052a.325.325 0 0 0 .276.588l2.23-1.052a.325.325 0 0 0-.276-.588m1.926-6.508a.325.325 0 0 0 .02-.65l-5.676-.358a.325.325 0 0 0-.041.649l5.676.358h.021zm-4.924-4.674 2.732.89a.325.325 0 0 0 .201-.619l-2.732-.889a.325.325 0 0 0-.201.619zm7.721 16.891-1.552 2.141a.326.326 0 0 0 .262.516c.1 0 .2-.047.263-.134l1.552-2.14a.324.324 0 1 0-.525-.383m4.894-6.2a.324.324 0 0 0-.453.072l-3.502 4.832a.326.326 0 0 0 .262.516c.1 0 .2-.046.263-.134l3.502-4.832a.326.326 0 0 0-.072-.454m1.798.124a.323.323 0 0 0-.42.183l-1.385 3.507a.325.325 0 0 0 .602.24l1.386-3.508a.327.327 0 0 0-.183-.422m1.543-.02a.325.325 0 0 0-.362.282L85.73 35.304a.324.324 0 0 0 .28.363l.042.003c.161 0 .3-.12.32-.285l1.443-11.441a.325.325 0 0 0-.28-.364zm.72-18.765a.324.324 0 0 0-.325.325v6.707a.325.325 0 1 0 .648 0V5.14a.324.324 0 0 0-.324-.325zm-4.28 23.893a.323.323 0 0 0-.42.183l-2.018 5.107a.326.326 0 0 0 .302.445c.129 0 .25-.078.301-.206l2.018-5.107a.326.326 0 0 0-.183-.422"/></svg>