<?xml version="1.0" encoding="UTF-8" standalone="no"?>
<svg
   viewBox="0 0 6500 5670"
   version="1.1"
   id="svg96"
   width="6500"
   height="5670"
   xmlns="http://www.w3.org/2000/svg"
   xmlns:svg="http://www.w3.org/2000/svg">
  <defs
     id="defs100" />
  <!-- fond -->
  <path
     fill="#ffffff"
     d="M -1000,-1000 H 7500 V 6670 H -1000 Z"
     id="path82" />
  <!-- Marianne -->
  <g
     id="g90"
     transform="translate(-1000,-1000)">
    <path
       d="m 2145,1884 c 11,-11 22,-22 32,-34 20,-23 40,-44 63,-64 7,-6 14,-12 21,-16 2,-2 2,-6 4,-8 -9,4 -15,11 -25,15 -2,0 -4,-2 -2,-4 7,-5 14,-10 20,-15 h -1 c -2,0 -2,-2 -2,-4 -25,-4 -43,13 -60,28 -4,2 -8,-2 -9,-2 -28,9 -49,34 -77,45 v -4 c -11,4 -22,11 -34,13 -17,4 -32,2 -47,2 -23,2 -46,7 -69,12 -1,0 -1,0 -2,1 -12,3 -24,8 -35,14 l -4,4 c -4,4 -8,9 -13,11 -12,6 -21,16 -31,25 -1,1 -2,1 -3,1 -10,10 -20,20 -30,29 -1,1 -4,1 -6,1 0,-1 1,-1 1,-2 2,-3 3,-5 5,-8 l 6,-9 c 3,-4 5,-8 8,-11 1,-1 1,-2 0,-2 -1,-1 -2,-1 -3,-1 9,-9 21,-17 32,-24 -1,0 -3,-1 -2,-2 1,-2 2,-3 3,-5 0,-1 0,-1 1,-2 0,-1 -1,-1 -1,-2 l -9,6 c -5,4 -8,12 -15,12 h -3 c -1,0 -2,0 -2,-1 v -1 c 0,-1 1,-1 1,-2 0,-1 1,-1 1,-2 0,0 0,-1 1,-1 0,-1 1,-2 1,-2 0,-1 1,-1 1,-2 1,-1 2,-3 2,-4 0,-1 1,-1 1,-2 1,-1 1,-2 2,-3 1,-2 0,-3 -1,-3 3,-5 8,-8 13,-11 h -1 c 7,-4 15,-8 22,-12 l 3,-3 c -11,4 -20,9 -30,15 0,0 -2,1 -3,2 0,0 -2,1 -5,-2 v -1 c 2,-4 8,-6 11,-9 2,0 4,0 4,2 61,-47 144,-36 214,-60 6,-4 11,-8 17,-11 9,-4 17,-13 28,-19 15,-11 26,-25 32,-43 0,-2 -2,-4 -2,-4 -25,26 -53,47 -83,62 -40,21 -83,17 -125,23 2,-4 6,-4 9,-4 0,-6 4,-8 8,-11 h 6 c 2,0 2,-4 4,-4 4,0 10,-2 8,-2 -6,-8 -17,6 -26,0 4,-4 2,-9 6,-11 h 8 c 0,-4 4,-8 4,-8 28,-17 55,-30 81,-45 -6,0 -9,6 -15,2 4,0 0,-6 4,-6 21,-6 38,-17 59,-25 -8,0 -13,6 -21,0 4,-2 6,-6 11,-6 v -6 c 0,-2 2,-2 4,-2 -2,0 -4,-2 -4,-2 2,-4 8,-2 11,-6 -2,0 -6,0 -6,-2 6,-8 15,-9 25,-11 -2,-4 -8,0 -8,-4 0,-2 2,-2 4,-2 h -4 c -4,-2 -2,-6 -2,-8 11,-13 11,-30 17,-45 -2,0 -4,0 -4,-2 -19,21 -49,28 -77,36 h -13 c -9,4 -23,4 -32,-2 -8,-4 -11,-9 -19,-15 -15,-9 -30,-17 -47,-23 -47,-15 -96,-23 -145,-21 21,-11 44,-12 66,-19 32,-9 62,-21 96,-19 -6,-2 -13,0 -19,0 -26,-2 -53,6 -81,11 -19,4 -36,11 -55,15 -11,4 -17,15 -30,13 v -6 c 19,-23 42,-45 72,-47 34,-6 66,0 100,4 25,2 47,8 72,13 9,0 11,15 19,17 11,4 23,0 34,8 0,-4 -2,-8 0,-11 8,-8 17,2 25,-2 15,-9 -13,-26 -21,-40 0,-2 2,-4 2,-4 15,13 26,28 45,38 9,4 32,9 28,-2 -9,-21 -28,-38 -44,-57 v -8 c -4,0 -4,-2 -6,-4 v -8 c -8,-4 -6,-11 -9,-17 -6,-9 -2,-23 -6,-34 -4,-11 -6,-21 -8,-32 -6,-32 -13,-60 -17,-91 -4,-36 21,-64 38,-96 13,-23 28,-45 53,-60 6,-23 21,-42 36,-60 15,-18 40,-30 58,-38 26,-12 50,-19 50,-19 H 1000 v 1000 h 927 c 36,-26 72,-38 122,-63 24,-10 78,-35 96,-53 m -290,-136 c -4,0 -11,2 -9,-2 2,-9 15,-9 23,-13 4,-2 9,-6 13,-4 4,6 9,4 13,8 -12,11 -27,6 -40,11 m -290,-41 c 0,0 -2,-2 -2,-4 25,-32 43,-62 61,-96 25,-13 45,-32 64,-53 32,-34 66,-64 106,-83 15,-6 34,-4 49,2 -6,8 -15,6 -23,11 -2,0 -4,0 -6,-2 2,-2 2,-4 2,-6 -19,21 -45,30 -60,55 -11,19 -19,43 -43,49 -8,2 2,-6 -2,-4 -59,36 -100,80 -146,131 m 157,-125 c -2,4 -4,4 -6,8 -2,4 -4,6 -8,8 -2,0 -4,0 -4,-2 2,-8 8,-15 15,-17 3,-1 3,1 3,3 m 88,283 c -1,2 -3,4 -5,6 2,0 4,2 2,3 -4,4 -9,8 -14,10 h -3 c -2,2 -5,4 -7,7 -2,2 -13,1 -10,-2 5,-4 9,-9 14,-13 3,-2 6,-5 8,-8 1,-2 2,-3 4,-4 3,-2 13,-3 11,1 m -34,-15 c -8,5 -15,10 -22,15 -8,5 -17,8 -25,12 -1,-1 -2,-1 -3,-1 -7,4 -13,9 -19,15 l -3,3 -3,3 -4,4 c -1,1 -1,2 -3,3 -1,1 -4,1 -4,-1 -1,1 -2,1 -3,2 -1,1 -2,1 -3,2 h -2 c -2,2 -5,4 -7,6 -4,4 -8,7 -11,12 v 1 l -1,1 c 0,0 0,1 -1,1 0,1 -1,1 -1,2 0,0 -1,1 -2,1 l -1,-1 c 0,0 0,-1 -1,-1 -1,-1 -1,-2 -2,-3 v -1 c 2,-2 4,-4 6,-7 1,-1 1,-2 2,-2 1,-1 2,-3 3,-4 0,-1 1,-1 1,-2 2,-3 4,-5 6,-8 l 1,-1 c 1,-1 2,-3 3,-4 1,-1 1,-2 2,-4 v -1 c 1,-2 1,-3 2,-4 v -1 c 0,-1 0,-1 1,-2 0,-1 0,-2 1,-3 v -1 c 2,-4 5,-7 8,-10 h -1 c -3,2 -5,4 -7,6 -2,2 -6,-1 -3,-3 2,-1 3,-3 4,-4 3,-3 6,-7 10,-10 2,-2 4,-3 6,-4 l 1,-1 c 1,-2 3,-3 4,-5 18,-17 49,-17 72,-28 9,-4 21,2 30,0 6,0 11,0 17,4 -17,3 -32,14 -48,24 m 39,-132 c -2,-2 6,0 8,-4 h -15 c -2,0 -2,-2 -2,-4 -9,2 -21,6 -30,8 -13,4 -25,13 -40,17 -21,8 -38,25 -60,32 -2,0 -2,-2 -2,-4 2,-6 9,-8 13,-13 0,-2 0,-4 -2,-4 15,-21 36,-32 55,-49 v -6 c 6,-8 15,-11 19,-21 2,-6 10,-13 19,-17 -2,-2 -6,-2 -6,-6 -8,0 -15,4 -23,-2 4,-3 8,-5 12,-7 -2,0 -3,-1 -4,-3 -2,-4 4,-8 9,-9 8,-2 17,-2 23,-8 -13,-2 -28,4 -42,-4 9,-25 25,-45 47,-57 2,0 6,0 6,2 0,9 -6,17 -15,19 15,4 30,4 45,11 -2,4 -6,2 -8,2 9,6 21,2 30,9 -6,6 -11,0 -17,0 59,17 121,30 170,68 -42,21 -85,30 -130,40 -6,0 -9,0 -15,-2 0,2 0,6 -2,6 -8,0 -13,0 -19,4 -7,6 -18,8 -24,2"
       fill="#000091"
       id="path84" />
    <path
       d="M 3755,1000 H 2681 c 0,0 2,0 10,5 9,5 20,11 27,14 14,7 27,16 36,30 4,6 9,17 6,25 -4,9 -6,25 -15,28 -11,6 -26,6 -40,4 -8,0 -15,-2 -23,-4 28,11 55,25 74,51 2,4 9,6 17,6 2,0 2,4 2,6 -4,4 -8,6 -6,11 h 6 c 9,-4 8,-23 21,-17 9,6 13,19 8,28 -8,8 -15,13 -23,19 -2,4 -2,9 0,13 6,8 8,15 9,23 6,13 8,28 13,42 8,28 15,57 13,85 0,15 -8,28 -2,43 4,15 13,26 21,40 8,11 15,19 21,30 11,19 32,38 23,60 -6,13 -26,11 -40,19 -11,9 -2,25 4,34 9,17 -11,28 -25,33 4,6 11,4 13,8 2,9 11,15 6,25 -8,11 -30,17 -19,34 8,13 3,28 -2,42 -6,15 -19,25 -34,28 -11,4 -25,4 -36,2 -4,-2 -8,-4 -11,-4 -32,-4 -64,-13 -96,-13 -9,2 -19,4 -26,7 -8,6 -16,13 -23,20 -1,2 -3,3 -4,5 -1,1 -2,2 -2,3 l -2,2 c -6,7 -10,14 -15,22 0,1 -1,1 -1,1 0,1 -1,2 -2,3 -6,11 -11,23 -14,35 -13,43 -7,80 2,89 2,2 62,21 104,40 20,9 33,15 45,23 H 3756 V 1000 Z"
       fill="#e1000f"
       id="path86" />
    <path
       d="m 2745,1366 c 8,2 19,2 19,6 -4,15 -26,19 -38,34 h -6 c -6,4 -4,13 -9,13 -6,-2 -11,0 -17,2 8,8 17,13 28,11 2,0 6,4 6,8 0,0 2,0 4,-2 2,0 4,0 4,2 v 8 c -6,8 -15,4 -23,6 15,4 30,4 44,0 11,-4 0,-23 8,-32 -4,0 0,-6 -4,-6 4,-4 8,-9 11,-11 4,0 9,-2 11,-6 0,-4 -8,-6 -6,-9 11,-8 21,-19 17,-30 -2,-6 -17,-6 -26,-10 -9,-4 -21,0 -32,2 -9,0 -19,6 -28,8 -13,4 -25,11 -36,19 13,-6 26,-8 41,-11 11,-2 20,-4 32,-2"
       fill="#808080"
       id="path88" />
  </g>
  <!-- RF -->
  <path
     d="m 0,2250 v -750 h 228 q 124,0 194,60 71,60 72,164 0,67 -31,116 -31,50 -88,78 l 234,332 H 428 L 229,1947 h -77 v 303 z m 152,-432 h 85 q 48,0 74,-25 27,-25 27,-71 0,-43 -27,-68 -27,-25 -74,-24 h -85 z m 563,432 v -750 h 435 v 130 H 866 v 173 h 241 v 130 H 866 v 187 h 284 v 130 z m 147,-814 120,-145 h 156 l -138,145 z m 473,814 v -750 h 247 q 123,0 193,60 71,60 71,164 0,104 -71,163 -71,60 -193,60 h -95 v 303 z m 152,-432 h 101 q 49,0 76,-26 27,-25 27,-70 0,-43 -28,-68 -27,-25 -75,-24 h -101 z m 481,139 v -457 h 152 v 469 q 0,75 40,118 40,42 111,42 70,0 110,-42 40,-42 40,-118 v -469 h 152 v 457 q 0,148 -81,231 -81,83 -222,83 -140,0 -221,-83 -81,-84 -81,-231 z m 803,293 v -750 h 212 q 117,0 183,54 67,54 67,150 0,93 -79,148 59,27 91,72 32,46 32,105 0,103 -75,162 -74,59 -203,59 z m 151,-130 h 86 q 53,0 83,-26 30,-27 30,-73 0,-46 -30,-72 -30,-25 -83,-25 h -86 z m 0,-326 h 64 q 43,0 67,-22 24,-21 24,-61 0,-38 -24,-59 -23,-22 -67,-22 h -64 z m 520,456 v -750 h 151 v 612 h 284 v 138 z m 579,0 v -750 h 151 v 750 z m 336,-222 q -29,-73 -29,-153 0,-80 29,-152 29,-73 80,-127 52,-54 126,-86 75,-32 161,-32 86,0 161,32 75,32 126,86 51,54 80,127 29,72 29,152 0,94 -39,176 -39,82 -108,137 l 45,43 q 79,72 156,71 32,0 54,-8 v 129 q -35,14 -79,13 -121,0 -233,-98 l -89,-80 q -49,13 -103,13 -86,0 -161,-32 -74,-32 -126,-85 -51,-54 -80,-126 z m 195,-334 q -68,73 -69,181 0,108 69,181 68,73 173,73 69,0 123,-33 55,-33 86,-92 31,-58 31,-129 0,-108 -69,-181 -68,-73 -172,-73 -105,0 -173,73 z m 710,263 v -457 h 152 v 469 q 0,75 40,118 40,42 111,42 70,0 110,-42 40,-42 40,-118 v -469 h 152 v 457 q 0,148 -81,231 -81,84 -222,83 -140,0 -221,-83 -81,-84 -81,-231 z m 803,293 v -750 h 435 v 130 h -284 v 173 h 241 v 130 h -241 v 187 h 284 v 130 z M 0,3335 v -750 h 435 v 130 H 152 v 173 h 241 v 130 H 152 v 317 z m 579,0 v -750 h 228 q 123,0 195,60 71,60 71,164 0,67 -31,117 -31,50 -88,77 l 234,332 H 1007 L 808,3032 h -77 v 303 z m 152,-432 h 85 q 48,0 75,-25 27,-25 26,-71 0,-43 -26,-68 -26,-25 -75,-24 h -85 z m 500,432 283,-750 h 198 l 283,750 h -161 l -72,-195 h -299 l -71,195 z m 279,-325 h 206 l -103,-281 z m 611,325 v -750 h 194 l 334,537 v -537 h 151 v 750 h -194 l -334,-539 v 539 z m 836,-375 q 0,-80 29,-152 29,-73 80,-127 52,-54 126,-85 75,-32 162,-32 99,0 180,40 82,41 134,112 l -119,93 q -33,-47 -83,-75 -50,-28 -112,-28 -105,0 -173,73 -68,73 -69,181 0,108 69,182 68,73 173,72 62,0 112,-27 50,-28 83,-76 l 119,92 q -44,61 -110,100 -66,39 -146,49 l -93,156 h -134 l 94,-158 q -95,-17 -169,-73 -74,-56 -114,-139 -40,-83 -39,-178 z m 755,375 283,-750 h 198 l 283,750 h -161 l -71,-195 h -299 l -72,195 z m 280,-325 h 205 l -103,-281 z m 610,325 v -750 h 152 v 750 z m 304,-104 110,-101 q 34,44 76,68 43,24 89,24 45,0 70,-23 26,-23 26,-64 0,-24 -14,-44 -15,-20 -39,-33 -24,-14 -55,-28 -31,-15 -63,-29 -32,-14 -62,-34 -31,-20 -55,-44 -24,-24 -39,-61 -15,-37 -15,-81 0,-91 68,-154 68,-63 172,-63 156,0 261,126 l -111,100 q -72,-94 -149,-94 -38,0 -63,23 -25,23 -24,56 0,21 12,39 12,17 31,31 20,13 46,26 l 53,25 q 29,13 57,26 29,14 54,34 26,19 46,44 20,24 31,57 12,34 12,75 -2,102 -73,163 -70,61 -175,61 -92,0 -159,-31 -67,-32 -118,-94 z m 694,104 v -750 h 435 v 130 h -283 v 173 h 241 v 130 h -241 v 187 h 283 v 130 z"
     id="path92" />
  <!-- devise -->
  <path
     d="m 2484,5391 c 22,0 41,17 31,56 l -101,27 c 16,-48 46,-83 70,-83 m 56,164 h -20 c -25,30 -53,54 -80,54 -28,0 -42,-17 -42,-54 0,-15 2,-31 5,-45 l 164,-54 c 32,-76 -7,-109 -52,-109 -78,0 -166,136 -166,243 0,51 24,79 62,79 45,0 91,-43 129,-114 m -26,-244 93,-85 v -12 h -62 l -55,98 h 24 z m -349,82 h 54 l -86,236 c -8,20 3,40 24,40 61,0 134,-52 162,-126 h -15 c -22,31 -70,65 -106,72 l 79,-222 h 81 l 10,-34 h -79 l 30,-85 h -31 l -56,85 -67,9 z m -56,-12 c 7,-22 -8,-34 -19,-34 -47,0 -104,43 -126,102 h 15 c 15,-22 41,-46 66,-50 l -91,236 c -8,22 8,34 20,34 45,0 98,-43 120,-102 h -15 c -15,22 -41,46 -66,50 z m 9,-94 c 20,0 37,-17 37,-37 0,-20 -17,-37 -37,-37 -10,0 -19,4 -26,11 -7,7 -11,16 -11,26 0,21 16,37 37,37 m -439,126 c 14,0 22,22 0,71 l -64,142 c -12,27 1,44 27,44 16,0 23,-4 30,-21 l 63,-166 c 29,-36 83,-74 107,-74 17,0 15,14 4,36 l -97,185 c -9,18 3,40 24,40 47,0 104,-43 126,-102 h -17 c -15,22 -41,46 -66,50 l 83,-168 c 11,-21 16,-41 16,-57 0,-27 -15,-45 -44,-45 -41,0 -76,46 -126,103 v -44 c 0,-31 -10,-59 -38,-59 -33,0 -63,52 -87,102 h 15 c 17,-24 32,-37 44,-37 m -65,6 c 11,-39 5,-72 -24,-72 -37,0 -49,25 -85,103 v -44 c 0,-31 -10,-59 -38,-59 -33,0 -63,52 -87,102 h 15 c 16,-23 31,-37 43,-37 14,0 22,22 0,71 l -64,142 c -12,27 1,44 27,44 16,0 23,-4 30,-21 l 61,-166 c 18,-22 34,-41 54,-62 h 68 z m -349,-28 c 22,0 41,17 31,56 l -101,27 c 17,-48 46,-83 70,-83 m 56,164 h -20 c -25,30 -53,54 -80,54 -28,0 -42,-17 -42,-54 0,-15 2,-31 5,-45 l 164,-54 c 32,-76 -6,-109 -52,-109 -78,0 -166,136 -166,243 0,51 24,79 62,79 45,0 91,-43 129,-114 M 946,5393 h 54 l -86,236 c -8,20 3,40 24,40 61,0 135,-52 162,-126 h -15 c -22,31 -70,65 -106,72 l 79,-222 h 81 l 10,-34 h -79 l 30,-85 h -31 l -56,85 -67,9 z m -287,184 c 0,-73 81,-172 127,-172 10,0 20,1 28,4 l -47,126 c -27,33 -69,73 -89,73 -12,0 -19,-9 -19,-31 m 249,-244 -25,-2 -28,28 h -5 c -119,0 -247,148 -247,265 0,27 15,45 44,45 35,0 69,-50 108,-103 l -2,19 c -5,54 12,84 40,84 33,0 63,-52 86,-102 h -15 c -16,23 -31,37 -43,37 -12,0 -21,-23 0,-71 z m -255,86 c 11,-39 5,-72 -24,-72 -37,0 -49,25 -85,103 v -44 c 0,-31 -10,-59 -39,-59 -33,0 -63,52 -86,102 h 15 c 16,-23 31,-37 43,-37 14,0 22,22 0,71 l -65,143 c -12,27 1,44 27,44 16,0 23,-4 30,-21 l 63,-167 c 18,-22 34,-41 54,-62 h 67 z m -419,239 6,-18 c -79,-15 -89,-15 -57,-101 l 30,-81 h 63 c 39,0 40,17 34,60 h 23 l 52,-143 h -23 c -20,34 -35,60 -78,60 h -63 l 43,-117 c 15,-42 22,-50 76,-50 h 14 c 55,0 62,15 62,73 h 22 l 18,-97 H 151 l -6,18 c 63,13 69,19 40,101 l -65,177 c -30,81 -42,88 -115,101 l -5,18 h 234 z m 1513,-956 c 22,0 41,17 31,56 l -101,27 c 16,-48 46,-83 70,-83 m 56,164 h -20 c -25,30 -53,54 -80,54 -28,0 -42,-17 -42,-54 0,-15 2,-31 5,-45 l 164,-54 c 32,-76 -7,-109 -52,-109 -78,0 -166,136 -166,243 0,51 24,79 62,79 45,1 91,-43 129,-114 m -26,-244 93,-85 v -12 h -62 l -55,98 h 24 z m -349,82 h 54 l -86,236 c -8,20 3,40 24,40 61,0 134,-52 162,-126 h -15 c -22,31 -70,65 -106,72 l 79,-222 h 81 l 10,-34 h -79 l 30,-85 h -31 l -56,85 -67,10 z m -56,-11 c 7,-22 -8,-34 -20,-34 -47,0 -104,43 -126,102 h 15 c 15,-22 41,-46 66,-50 l -91,236 c -8,22 8,34 20,34 45,0 98,-43 120,-102 h -15 c -15,22 -41,46 -66,50 z m 9,-94 c 20,0 37,-17 37,-37 0,-20 -17,-37 -37,-37 -13,0 -25,7 -32,18 -7,11 -7,26 0,38 7,11 19,19 32,18 m -290,330 150,-398 -5,-7 -104,12 v 12 l 20,15 c 18,14 12,27 -4,72 l -114,304 c -10,18 3,40 24,40 47,0 98,-43 120,-102 h -15 c -16,23 -48,47 -72,52 m -306,-41 c 0,-73 81,-172 127,-172 10,0 19,1 28,4 l -48,126 c -27,33 -69,73 -89,73 -11,1 -18,-9 -18,-31 m 249,-243 -25,-2 -28,28 h -5 c -119,0 -247,148 -247,265 0,27 15,45 44,45 35,0 69,-50 108,-103 l -2,19 c -5,54 12,84 40,84 33,0 63,-52 86,-102 h -15 c -16,23 -31,37 -43,37 -12,0 -21,-23 0,-70 z m -579,393 c 0,-31 30,-51 73,-68 14,7 36,15 64,24 45,15 62,21 62,34 0,29 -41,51 -116,51 -56,1 -83,-11 -83,-41 m 123,-191 c -20,0 -27,-17 -27,-36 0,-59 28,-130 73,-130 20,0 27,17 27,36 0,58 -29,130 -73,130 m 128,162 c 0,-38 -34,-52 -89,-68 -47,-14 -69,-18 -69,-34 0,-12 10,-27 30,-38 78,-4 127,-74 127,-136 0,-11 -2,-21 -5,-30 h 53 l 10,-34 h -90 c -12,-8 -27,-12 -44,-12 -82,0 -135,72 -135,136 0,41 24,69 62,74 -38,18 -60,37 -60,61 0,14 5,24 17,33 -88,26 -124,59 -124,97 0,41 54,58 118,58 108,1 199,-58 199,-107 M 298,4769 c 39,0 40,17 34,60 h 23 l 52,-143 h -23 c -20,34 -35,60 -78,60 h -87 l 43,-117 c 15,-42 23,-50 76,-50 h 38 c 55,0 62,15 62,73 h 22 l 18,-97 H 151 l -6,18 c 63,13 69,19 40,101 l -65,177 c -30,81 -42,88 -115,101 l -5,18 h 364 l 65,-103 h -25 c -42,42 -85,79 -166,79 -97,0 -88,-5 -56,-95 l 30,-81 h 86 z m 47,-244 93,-68 v -12 h -62 l -55,80 z m 1390,-511 c 22,0 41,17 31,56 l -101,27 c 16,-49 46,-83 70,-83 m 56,164 h -20 c -25,30 -53,54 -80,54 -28,0 -42,-17 -42,-54 0,-15 2,-31 5,-45 l 164,-54 c 32,-76 -7,-109 -52,-109 -78,0 -166,136 -166,243 0,51 24,79 62,79 45,0 91,-43 129,-114 m -26,-244 93,-85 v -12 h -62 l -55,98 h 24 z m -349,81 h 55 l -86,236 c -8,20 3,40 24,40 61,0 135,-52 162,-126 h -15 c -22,31 -70,65 -106,72 l 79,-222 h 81 l 10,-34 h -79 l 30,-85 h -31 l -56,85 -67,9 v 25 z m -28,27 c 11,-39 5,-72 -24,-72 -37,0 -49,25 -85,103 v -44 c 0,-31 -10,-59 -38,-59 -33,0 -63,52 -87,102 h 15 c 16,-23 31,-37 43,-37 14,0 22,22 0,71 l -64,142 c -12,27 1,44 27,44 16,0 23,-4 30,-21 l 63,-166 c 18,-22 34,-41 54,-62 h 66 z m -349,-28 c 22,0 41,17 31,56 l -101,27 c 16,-49 46,-83 70,-83 m 56,164 h -20 c -25,30 -53,54 -80,54 -28,0 -42,-17 -42,-54 0,-15 2,-31 5,-45 l 164,-54 c 32,-76 -6,-109 -52,-109 -78,0 -166,136 -166,243 0,51 24,79 62,79 45,0 91,-43 129,-114 m -382,66 c -16,0 -39,-15 -39,-28 0,-4 7,-23 16,-46 l 26,-70 c 28,-34 72,-71 97,-71 15,0 26,10 26,31 -1,66 -61,184 -126,184 m 182,-209 c 0,-48 -12,-66 -46,-66 -42,0 -81,45 -121,99 l 84,-226 -5,-7 -104,12 v 12 l 20,15 c 18,14 12,28 -4,72 l -91,239 c -8,20 -17,44 -17,50 0,28 38,55 73,55 79,2 211,-143 211,-255 m -307,-31 c 6,-22 -8,-34 -20,-34 -47,0 -104,43 -126,102 h 15 c 15,-22 41,-46 66,-50 l -91,236 c -8,22 8,34 20,34 45,0 98,-43 120,-102 h -15 c -15,22 -41,46 -66,50 z m 10,-94 c 20,0 37,-17 37,-37 0,-20 -17,-37 -37,-37 -13,0 -25,7 -32,18 -7,11 -7,26 0,38 7,11 19,19 32,18 M 367,3865 H 151 l -6,18 c 63,13 69,19 40,101 l -65,177 c -30,81 -42,88 -115,101 l -5,18 h 328 l 71,-127 h -25 c -41,45 -88,102 -161,102 -55,0 -63,-10 -32,-95 l 65,-177 c 30,-81 42,-88 115,-101 z"
     id="path94" />
</svg>
