<?xml version="1.0" encoding="utf-8"?>
<!-- Generator: Adobe Illustrator 25.4.8, SVG Export Plug-In . SVG Version: 6.00 Build 0)  -->
<svg version="1.1" id="Calque_1" xmlns="http://www.w3.org/2000/svg" xmlns:xlink="http://www.w3.org/1999/xlink" x="0px" y="0px"
	 viewBox="0 0 841.89 283.46" style="enable-background:new 0 0 841.89 283.46;" xml:space="preserve">
<style type="text/css">
	.st0{fill:#282727;}
	.st1{fill:url(#SVGID_1_);}
	.st2{fill:url(#SVGID_00000119809889912762959700000000416101597735909810_);}
	.st3{fill:url(#SVGID_00000054951835049217106310000001591555631164050314_);}
	.st4{fill:url(#SVGID_00000048472477346515822400000007723987849186565274_);}
</style>
<g>
	<path class="st0" d="M9.98,167.16V85.27h18.01v6.99h0.29c1.92-2.98,4.7-5.34,8.35-7.09c3.65-1.75,7.85-2.63,12.6-2.63
		c5.67,0,10.71,1.32,15.13,3.96c3.26,2.02,6.24,4.97,8.93,8.86c1.97-2.64,3.77-4.63,5.4-5.98c2.5-2.06,5.5-3.72,9-4.97
		c3.5-1.25,7.54-1.87,12.1-1.87c4.8,0,9.01,0.69,12.64,2.09c3.62,1.39,6.79,3.23,9.51,5.51c2.71,2.28,4.81,4.61,6.3,6.99
		c1.49,2.38,2.63,5.19,3.42,8.43c0.79,3.24,1.19,7.84,1.19,13.79v47.82h-19.66v-45.45c0-7.58-1.39-13.02-4.18-16.31
		c-2.79-3.29-6.46-4.93-11.02-4.93c-3.46,0-6.59,0.98-9.4,2.95c-2.81,1.97-4.74,4.44-5.8,7.42c-1.06,2.98-1.58,8.14-1.58,15.49
		v40.84H61.62v-45.45c0-7.11-1.53-12.42-4.57-15.95c-3.05-3.53-6.81-5.29-11.27-5.29c-2.98,0-5.47,0.5-7.49,1.51
		c-2.02,1.01-3.66,2.5-4.93,4.47c-1.27,1.97-2.22,4.42-2.85,7.34c-0.62,2.93-0.94,7.11-0.94,12.53v40.84H9.98z"/>
	<path class="st0" d="M187.95,169.83c-5.76,0-11.31-1.1-16.64-3.31c-5.33-2.21-9.92-5.24-13.76-9.11s-6.84-8.05-9-12.57
		c-2.83-5.86-4.25-12.08-4.25-18.65c0-7.59,1.93-14.82,5.8-21.71c3.86-6.89,9.25-12.27,16.17-16.13s14.14-5.8,21.68-5.8
		c7.59,0,14.81,1.92,21.68,5.76c6.87,3.84,12.2,9.16,15.99,15.95c3.79,6.8,5.69,14.15,5.69,22.08c0,5.62-0.92,10.89-2.77,15.81
		c-1.85,4.92-4.37,9.21-7.56,12.86c-3.19,3.65-6.51,6.48-9.94,8.5c-3.43,2.02-7.14,3.58-11.13,4.68S191.93,169.83,187.95,169.83z
		 M187.95,151.82c6.87,0,12.54-2.52,17.03-7.56c4.49-5.04,6.73-11,6.73-17.86c0-4.61-1.1-8.97-3.31-13.07
		c-2.21-4.11-5.2-7.28-8.97-9.51c-3.77-2.23-7.57-3.35-11.42-3.35c-3.79,0-7.65,1.1-11.56,3.31c-3.91,2.21-6.99,5.31-9.22,9.29
		c-2.23,3.99-3.35,8.4-3.35,13.25c0,4.75,1.1,9.12,3.31,13.11s5.2,7.05,8.97,9.18C179.94,150.75,183.86,151.82,187.95,151.82z"/>
	<path class="st0" d="M243.04,167.16V85.27h18.15v7.13c3.55-3.46,7.09-5.96,10.62-7.53c3.53-1.56,7.5-2.34,11.92-2.34
		c5.62,0,10.83,1.32,15.63,3.96c4.8,2.64,8.55,5.88,11.24,9.72c2.06,2.98,3.5,6.67,4.32,11.09c0.58,3.17,0.86,8.38,0.86,15.63v44.22
		h-19.66v-40.4c0-7.44-0.5-12.84-1.51-16.21c-1.06-3.36-2.81-5.88-5.26-7.56c-2.45-1.68-5.43-2.52-8.93-2.52
		c-3.79,0-7.14,1-10.05,2.99c-2.91,1.99-4.91,4.62-6.01,7.89c-1.15,3.31-1.73,8.93-1.73,16.85v38.96H243.04z"/>
	<path class="st0" d="M331.56,167.16V85.27h18.15v7.13c3.55-3.46,7.09-5.96,10.62-7.53c3.53-1.56,7.5-2.34,11.92-2.34
		c5.62,0,10.83,1.32,15.63,3.96c4.8,2.64,8.55,5.88,11.24,9.72c2.06,2.98,3.5,6.67,4.32,11.09c0.58,3.17,0.86,8.38,0.86,15.63v44.22
		h-19.66v-40.4c0-7.44-0.5-12.84-1.51-16.21c-1.06-3.36-2.81-5.88-5.26-7.56c-2.45-1.68-5.43-2.52-8.93-2.52
		c-3.79,0-7.14,1-10.05,2.99c-2.91,1.99-4.91,4.62-6.01,7.89c-1.15,3.31-1.73,8.93-1.73,16.85v38.96H331.56z"/>
	<path class="st0" d="M502.47,85.27v81.89h-18.01v-10.15c-3.7,4.03-7.84,7.18-12.42,9.44c-4.59,2.26-9.95,3.38-16.1,3.38
		c-7.35,0-13.97-1.76-19.88-5.29c-5.91-3.53-10.72-8.65-14.44-15.38c-3.72-6.72-5.58-14.38-5.58-22.98c0-8.31,1.81-15.82,5.44-22.54
		c3.62-6.72,8.64-11.92,15.05-15.59c6.41-3.67,13.1-5.51,20.06-5.51c4.75,0,8.98,0.74,12.68,2.23c3.7,1.49,6.85,3.28,9.47,5.37
		c2.62,2.09,4.43,3.92,5.44,5.51h0.29V85.27H502.47z M483.89,126.04c0-7.63-2.29-13.8-6.88-18.51c-4.59-4.7-10.31-7.06-17.18-7.06
		c-4.42,0-8.49,1.12-12.21,3.35c-3.72,2.23-6.65,5.45-8.79,9.65c-2.14,4.2-3.21,8.58-3.21,13.14c0,7.15,2.36,13.14,7.09,17.97
		c4.73,4.82,10.48,7.24,17.25,7.24c7.15,0,12.93-2.5,17.32-7.49C481.69,139.34,483.89,133.24,483.89,126.04z"/>
	<path class="st0" d="M781.9,236.78h10.3c0.19,3.51,0.69,6.24,1.51,8.21c1.1,2.74,2.77,4.81,5.01,6.23
		c2.23,1.42,4.96,2.12,8.17,2.12c4.61,0,8.23-1.3,10.88-3.89c2.64-2.59,3.96-6.03,3.96-10.3c0-3.65-1.04-6.72-3.13-9.22
		c-2.09-2.5-6.49-4.9-13.22-7.2c-5.33-1.87-9.1-3.5-11.31-4.9c-3.22-2.11-5.65-4.59-7.31-7.42c-1.66-2.83-2.48-6.15-2.48-9.94
		c0-6.48,2.15-11.86,6.45-16.13c4.3-4.27,9.69-6.41,16.17-6.41c4.42,0,8.4,1.06,11.96,3.17c3.55,2.11,6.29,5.04,8.21,8.79
		c1.25,2.45,1.97,5.79,2.16,10.01h-10.3c-0.43-4.18-1.75-7.33-3.96-9.47c-2.21-2.14-4.95-3.21-8.21-3.21
		c-3.46,0-6.35,1.17-8.68,3.49c-2.33,2.33-3.49,5.17-3.49,8.53c0,2.21,0.56,4.18,1.69,5.91c1.13,1.73,2.75,3.17,4.86,4.32
		c1.63,0.91,4.11,1.95,7.42,3.1c5.86,2.02,10.08,3.84,12.68,5.47c3.55,2.26,6.24,5.01,8.07,8.25c1.82,3.24,2.74,7.29,2.74,12.14
		c0,4.51-1.01,8.67-3.03,12.46c-2.02,3.79-4.95,6.7-8.79,8.72c-3.84,2.02-8.14,3.03-12.89,3.03c-4.56,0-8.52-0.85-11.88-2.56
		c-3.36-1.7-6.04-3.74-8.03-6.12c-1.99-2.38-3.41-4.9-4.25-7.56C782.32,243.73,781.9,240.52,781.9,236.78z"/>
	<path class="st0" d="M191.42,236.78h10.3c0.19,3.51,0.69,6.24,1.51,8.21c1.1,2.74,2.77,4.81,5.01,6.23
		c2.23,1.42,4.96,2.12,8.17,2.12c4.61,0,8.23-1.3,10.88-3.89c2.64-2.59,3.96-6.03,3.96-10.3c0-3.65-1.04-6.72-3.13-9.22
		c-2.09-2.5-6.49-4.9-13.22-7.2c-5.33-1.87-9.1-3.5-11.31-4.9c-3.22-2.11-5.65-4.59-7.31-7.42c-1.66-2.83-2.48-6.15-2.48-9.94
		c0-6.48,2.15-11.86,6.45-16.13c4.3-4.27,9.69-6.41,16.17-6.41c4.42,0,8.4,1.06,11.96,3.17c3.55,2.11,6.29,5.04,8.21,8.79
		c1.25,2.45,1.97,5.79,2.16,10.01h-10.3c-0.43-4.18-1.75-7.33-3.96-9.47c-2.21-2.14-4.95-3.21-8.21-3.21
		c-3.46,0-6.35,1.17-8.68,3.49c-2.33,2.33-3.49,5.17-3.49,8.53c0,2.21,0.56,4.18,1.69,5.91c1.13,1.73,2.75,3.17,4.86,4.32
		c1.63,0.91,4.11,1.95,7.42,3.1c5.86,2.02,10.08,3.84,12.68,5.47c3.55,2.26,6.24,5.01,8.07,8.25c1.82,3.24,2.74,7.29,2.74,12.14
		c0,4.51-1.01,8.67-3.03,12.46c-2.02,3.79-4.95,6.7-8.79,8.72c-3.84,2.02-8.14,3.03-12.89,3.03c-4.56,0-8.52-0.85-11.88-2.56
		c-3.36-1.7-6.04-3.74-8.03-6.12c-1.99-2.38-3.41-4.9-4.25-7.56C191.84,243.73,191.42,240.52,191.42,236.78z"/>
	<path class="st0" d="M345.88,224.1h-73.46c0.34,4.37,1.31,8.24,2.92,11.6s3.82,6.34,6.63,8.93c2.81,2.59,6.06,4.69,9.76,6.3
		c3.7,1.61,7.71,2.41,12.03,2.41c6.48,0,12.33-1.72,17.54-5.15c5.21-3.43,8.99-8.08,11.34-13.94h10.95
		c-1.83,4.94-4.03,9.03-6.63,12.24c-4.13,5.14-9.08,9.11-14.84,11.92c-5.76,2.81-12,4.21-18.73,4.21c-11.52,0-21.33-4.03-29.42-12.1
		c-8.09-8.07-12.14-17.91-12.14-29.53c0-7.73,1.87-14.94,5.62-21.64c3.75-6.7,8.98-11.94,15.7-15.74
		c6.72-3.79,13.66-5.69,20.81-5.69c7.11,0,14,1.9,20.67,5.69c6.67,3.79,11.9,9.07,15.66,15.84c3.77,6.77,5.65,13.83,5.65,21.17
		C345.95,221.46,345.93,222.61,345.88,224.1z M335.44,214.81c-0.82-4.13-1.96-7.62-3.42-10.48c-1.47-2.86-3.52-5.57-6.16-8.14
		c-2.64-2.57-5.87-4.7-9.69-6.41c-3.82-1.7-7.91-2.56-12.28-2.56c-4.27,0-8.25,0.79-11.92,2.38c-3.67,1.58-6.88,3.61-9.62,6.09
		c-2.74,2.47-4.89,5.27-6.45,8.39c-1.56,3.12-2.73,6.7-3.49,10.73H335.44z"/>
	<path class="st0" d="M372.72,260.69v-80.67h10.3v11.67h0.29c1.39-3.07,3.01-5.53,4.86-7.38c1.85-1.85,4.12-3.29,6.81-4.32
		c2.69-1.03,6.39-1.72,11.09-2.05v10.95c-5.28,0.53-9.66,1.93-13.14,4.21c-3.48,2.28-6,5.35-7.56,9.22
		c-1.56,3.87-2.34,7.6-2.34,11.2v47.17H372.72z"/>
	<path class="st0" d="M457.03,260.69l-34.07-80.67h11.09l28.45,67.84l28.88-67.84h11.09l-34.07,80.67H457.03z"/>
	<path class="st0" d="M647.57,236.85h11.38c-2.74,5.14-5.52,9.24-8.35,12.32c-3.94,4.23-8.51,7.52-13.72,9.87
		c-5.21,2.35-11.08,3.53-17.61,3.53c-8.16,0-15.57-1.85-22.22-5.55c-6.65-3.7-11.91-8.85-15.77-15.45c-3.87-6.6-5.8-13.67-5.8-21.21
		c0-7.35,1.9-14.37,5.69-21.07c3.79-6.7,9.12-11.94,15.99-15.74c6.87-3.79,14.09-5.69,21.68-5.69c6.24,0,12.21,1.24,17.9,3.71
		c5.69,2.47,10.5,5.87,14.44,10.19c2.93,3.22,5.52,7.4,7.78,12.53h-11.38c-1.87-3.26-3.72-5.83-5.55-7.71
		c-2.83-2.83-6.18-5.11-10.05-6.84c-3.87-1.73-8.1-2.59-12.71-2.59c-5.81,0-11.39,1.44-16.75,4.32c-5.35,2.88-9.48,6.85-12.39,11.92
		s-4.36,10.6-4.36,16.6c0,5.95,1.46,11.54,4.39,16.75c2.93,5.21,6.99,9.27,12.17,12.17c5.19,2.91,10.85,4.36,17,4.36
		c6.14,0,11.67-1.42,16.57-4.25C640.8,246.19,644.69,242.13,647.57,236.85z"/>
	<path class="st0" d="M763.06,224.03H689.6c0.34,4.37,1.31,8.24,2.92,11.6c1.61,3.36,3.82,6.34,6.63,8.93
		c2.81,2.59,6.06,4.69,9.76,6.3c3.7,1.61,7.71,2.41,12.03,2.41c6.48,0,12.33-1.72,17.54-5.15c5.21-3.43,8.99-8.08,11.34-13.94h10.95
		c-1.83,4.94-4.03,9.03-6.63,12.24c-4.13,5.14-9.08,9.11-14.84,11.92c-5.76,2.81-12,4.21-18.73,4.21c-11.52,0-21.33-4.03-29.42-12.1
		c-8.09-8.07-12.14-17.91-12.14-29.53c0-7.73,1.87-14.94,5.62-21.64c3.75-6.7,8.98-11.94,15.7-15.74
		c6.72-3.79,13.66-5.69,20.81-5.69c7.11,0,14,1.9,20.67,5.69c6.67,3.79,11.9,9.07,15.66,15.84c3.77,6.77,5.65,13.83,5.65,21.17
		C763.14,221.39,763.11,222.54,763.06,224.03z M752.62,214.74c-0.82-4.13-1.96-7.62-3.42-10.48c-1.47-2.86-3.52-5.57-6.16-8.14
		c-2.64-2.57-5.87-4.7-9.69-6.41c-3.82-1.7-7.91-2.56-12.28-2.56c-4.27,0-8.25,0.79-11.92,2.38c-3.67,1.58-6.88,3.61-9.62,6.09
		c-2.74,2.47-4.89,5.27-6.45,8.39c-1.56,3.12-2.73,6.7-3.49,10.73H752.62z"/>
	<path class="st0" d="M659.67,135.04h-63.52c1.97,5.52,4.91,9.7,8.82,12.53c3.91,2.83,8.65,4.25,14.22,4.25
		c4.37,0,8.02-0.88,10.95-2.63c2.93-1.75,5.4-4.36,7.42-7.81h20.67c-1.34,3.74-2.83,6.87-4.47,9.36c-2.55,3.74-5.61,7.08-9.18,10.01
		c-3.58,2.93-7.47,5.17-11.67,6.73c-4.2,1.56-9.14,2.34-14.8,2.34c-13.68,0-24.66-5.09-32.91-15.27
		c-6.48-8.07-9.72-17.55-9.72-28.45c0-8.07,1.9-15.55,5.69-22.43c3.79-6.89,9.06-12.22,15.81-15.99c6.75-3.77,14.1-5.65,22.08-5.65
		c7.73,0,14.84,1.81,21.32,5.44c6.48,3.63,11.52,8.74,15.13,15.34c3.6,6.6,5.4,13.67,5.4,21.21
		C660.89,127.67,660.48,131.34,659.67,135.04z M640.8,119.19c-1.2-6.19-3.77-10.94-7.71-14.22c-3.94-3.29-8.81-4.93-14.62-4.93
		c-4.32,0-8.1,0.95-11.34,2.84c-3.24,1.9-5.94,4.53-8.1,7.89c-1.39,2.21-2.55,5.02-3.46,8.43H640.8z"/>
	<g>
		<g>
			<linearGradient id="SVGID_1_" gradientUnits="userSpaceOnUse" x1="539.4788" y1="273.2814" x2="539.4788" y2="71.6046">
				<stop  offset="0" style="stop-color:#FFF7B0"/>
				<stop  offset="0.2676" style="stop-color:#FFEB1D"/>
				<stop  offset="0.3326" style="stop-color:#FFE000"/>
				<stop  offset="0.4408" style="stop-color:#FFD300"/>
				<stop  offset="0.5522" style="stop-color:#FECB00"/>
				<stop  offset="0.6709" style="stop-color:#FDC800"/>
				<stop  offset="1" style="stop-color:#FFDE33"/>
			</linearGradient>
			<path class="st1" d="M561.52,71.6h-0.48c-26.34,0-47.78,27.84-47.78,62.06V268.9c0,2.42,1.87,4.38,4.18,4.38h0.48
				c26.34,0,47.78-27.84,47.78-62.06V75.99C565.7,73.57,563.83,71.6,561.52,71.6z"/>
		</g>
		
			<linearGradient id="SVGID_00000159440030911282970310000012104714556204981155_" gradientUnits="userSpaceOnUse" x1="539.4786" y1="75.9854" x2="539.4786" y2="268.9005">
			<stop  offset="0" style="stop-color:#FFF7B0"/>
			<stop  offset="0.2676" style="stop-color:#FFEB1D"/>
			<stop  offset="0.3326" style="stop-color:#FFE000"/>
			<stop  offset="0.4408" style="stop-color:#FFD300"/>
			<stop  offset="0.5522" style="stop-color:#FECB00"/>
			<stop  offset="0.6709" style="stop-color:#FDC800"/>
			<stop  offset="1" style="stop-color:#FFDE33"/>
		</linearGradient>
		<path style="fill:url(#SVGID_00000159440030911282970310000012104714556204981155_);" d="M517.93,268.9h-0.48V133.66
			c0-31.8,19.55-57.68,43.59-57.68h0.48v135.24C561.52,243.03,541.96,268.9,517.93,268.9z"/>
		
			<linearGradient id="SVGID_00000154389803290757630470000003149084241787843724_" gradientUnits="userSpaceOnUse" x1="539.4123" y1="9.5743" x2="539.4123" y2="61.8846">
			<stop  offset="0" style="stop-color:#FFF7B0"/>
			<stop  offset="0.2676" style="stop-color:#FFEB1D"/>
			<stop  offset="0.3326" style="stop-color:#FFE000"/>
			<stop  offset="0.4408" style="stop-color:#FFD300"/>
			<stop  offset="0.5522" style="stop-color:#FECB00"/>
			<stop  offset="0.6709" style="stop-color:#FDC800"/>
			<stop  offset="1" style="stop-color:#FFDE33"/>
		</linearGradient>
		<path style="fill:url(#SVGID_00000154389803290757630470000003149084241787843724_);" d="M539.41,9.57
			c-14.42,0-26.16,11.73-26.16,26.16c0,14.42,11.73,26.15,26.16,26.15s26.16-11.73,26.16-26.15
			C565.57,21.31,553.83,9.57,539.41,9.57z"/>
		
			<linearGradient id="SVGID_00000114045821643599752060000010878815311328870555_" gradientUnits="userSpaceOnUse" x1="539.4122" y1="57.7007" x2="539.4122" y2="13.7584">
			<stop  offset="0" style="stop-color:#FFF7B0"/>
			<stop  offset="0.2676" style="stop-color:#FFEB1D"/>
			<stop  offset="0.3326" style="stop-color:#FFE000"/>
			<stop  offset="0.4408" style="stop-color:#FFD300"/>
			<stop  offset="0.5522" style="stop-color:#FECB00"/>
			<stop  offset="0.6709" style="stop-color:#FDC800"/>
			<stop  offset="1" style="stop-color:#FFDE33"/>
		</linearGradient>
		<circle style="fill:url(#SVGID_00000114045821643599752060000010878815311328870555_);" cx="539.41" cy="35.73" r="21.97"/>
	</g>
</g>
</svg>
