<svg xmlns="http://www.w3.org/2000/svg" width="826" height="181" fill="none"><g clip-path="url(#clip0_8002_187500)"><rect width="826" height="181" fill="url(#paint0_linear_8002_187500)" rx="8"/><path fill="#F1F1F4" fill-rule="evenodd" d="M543.703 137.382a2.425 2.425 0 0 1-3.219-.669l-.11-.167-2.743-4.557-4.554 2.741a2.427 2.427 0 0 1-3.332-.824 2.425 2.425 0 0 1 .666-3.218l.166-.11 4.556-2.74-3.244-5.388a2.43 2.43 0 0 1 .818-3.333 2.425 2.425 0 0 1 3.219.668l.11.167 3.244 5.389 5.384-3.24a2.425 2.425 0 0 1 3.33.821 2.425 2.425 0 0 1-.665 3.219l-.167.11-5.383 3.241 2.743 4.557a2.427 2.427 0 0 1-.819 3.333" clip-rule="evenodd" opacity=".7"/><path fill="#F1F1F4" d="M639.77 38.407A3.007 3.007 0 0 0 637 41.4a3.01 3.01 0 0 0 3.017 3.003h6.599v7.794l.011.247a3.01 3.01 0 0 0 2.995 2.769 3.01 3.01 0 0 0 3.004-3.016v-7.795h7.803l.246-.01a3.01 3.01 0 0 0 2.772-2.992 3.01 3.01 0 0 0-3.018-3.002h-7.803l.002-6.595-.011-.247a3.01 3.01 0 0 0-2.995-2.769 3.01 3.01 0 0 0-3.006 3.016v6.594h-6.599z" opacity=".2"/><path fill="#F1F1F4" fill-rule="evenodd" d="M229.729 165.722a2.426 2.426 0 0 1 1.611 2.866l-.054.193-1.632 5.062 5.059 1.631a2.43 2.43 0 0 1 1.569 3.053 2.426 2.426 0 0 1-2.864 1.613l-.192-.053-5.059-1.633-1.93 5.986a2.426 2.426 0 0 1-3.049 1.573 2.425 2.425 0 0 1-1.612-2.865l.053-.193 1.93-5.987-5.98-1.928a2.425 2.425 0 0 1-1.569-3.05 2.425 2.425 0 0 1 2.864-1.614l.192.054 5.98 1.927 1.633-5.062a2.427 2.427 0 0 1 3.05-1.573" clip-rule="evenodd"/><path fill="#F1F1F4" fill-opacity=".7" d="M269.028 154.56a4.947 4.947 0 0 1 6.225-3.193 4.947 4.947 0 0 1 3.187 6.228 4.947 4.947 0 0 1-6.225 3.192 4.946 4.946 0 0 1-3.187-6.227"/></g><defs><linearGradient id="paint0_linear_8002_187500" x1="732.79" x2="196.832" y1="24.772" y2="530.63" gradientUnits="userSpaceOnUse"><stop stop-color="#6123DF"/><stop offset="1" stop-color="#280078"/></linearGradient><clipPath id="clip0_8002_187500"><rect width="826" height="181" fill="#fff" rx="8"/></clipPath></defs></svg>