<svg width="178" height="100" viewBox="0 0 178 100" fill="none" xmlns="http://www.w3.org/2000/svg">
<path fill-rule="evenodd" clip-rule="evenodd" d="M94.7779 0C97.2535 0 99.4389 1.51131 100.207 3.72946L100.27 3.9213L127.877 94.7032C127.943 94.9184 127.974 95.1354 127.974 95.3487L175.524 95.3488C176.892 95.3488 178 96.39 178 97.6744C178 98.9129 176.969 99.9253 175.67 99.9961L175.524 100H109.508C108.141 100 107.033 98.9588 107.033 97.6744C107.033 96.4359 108.063 95.4235 109.363 95.3528L109.508 95.3488L122.974 95.3485L110.605 54.6786L52.8112 79.8893L48.0481 95.3485L53.3875 95.3488C54.7437 95.3488 55.8431 96.39 55.8431 97.6744C55.8431 98.9129 54.8208 99.9253 53.5318 99.9961L53.3875 100H24.5602C23.204 100 22.1046 98.9588 22.1046 97.6744C22.1046 96.4359 23.1269 95.4235 24.4159 95.3528L24.5602 95.3488L43.0457 95.3488C43.0458 95.1765 43.0662 95.0018 43.1085 94.8277L43.1449 94.6954L71.1186 3.90305C71.811 1.65586 73.9396 0.0914353 76.3882 0.0038738L76.605 0H94.7779ZM6.90295 95.3488C8.23078 95.3488 9.30719 96.39 9.30719 97.6744C9.30719 98.9129 8.30629 99.9253 7.04422 99.9961L6.90295 100H2.40424C1.07641 100 0 98.9588 0 97.6744C0 96.4359 1.0009 95.4235 2.26297 95.3528L2.40424 95.3488H6.90295ZM106.124 39.9432L58.9386 60.0018L54.6722 73.8502L109.202 50.0639L106.124 39.9432ZM101.092 23.3953L65.0696 40.1019L60.7229 54.2103L104.769 35.488L101.092 23.3953ZM94.7779 4.65113H76.605C76.2753 4.65113 75.9815 4.83883 75.8543 5.12124L75.8212 5.20871L66.9617 33.9609L99.6888 18.7828L95.5624 5.21132C95.4707 4.90971 95.198 4.69352 94.8759 4.6567L94.7779 4.65113Z" fill="url(#paint0_linear_327_2)"/>
<defs>
<linearGradient id="paint0_linear_327_2" x1="0" y1="0" x2="22.8608" y2="113.223" gradientUnits="userSpaceOnUse">
<stop stop-color="#EB0055"/>
<stop offset="1" stop-color="#320096"/>
</linearGradient>
</defs>
</svg>
