<svg aria-hidden="true" width="232" height="87" viewBox="0 0 232 87" fill="none" xmlns="http://www.w3.org/2000/svg">
<g clip-path="url(#clip0_1106_17065)">
<path d="M115 23.5C115 33.7173 106.717 42 96.5 42C86.2827 42 78 33.7173 78 23.5C78 13.2827 86.2827 5 96.5 5C106.717 5 115 13.2827 115 23.5Z" fill="#F8E0E2"/>
<path d="M229 23.5C229 33.7173 220.717 42 210.5 42C200.283 42 192 33.7173 192 23.5C192 13.2827 200.283 5 210.5 5C220.717 5 229 13.2827 229 23.5Z" fill="#E2EDE6"/>
<path fill-rule="evenodd" clip-rule="evenodd" d="M191.93 0C192.83 0 193.56 0.73 193.56 1.64C193.56 2.51 192.89 3.22 192.04 3.27H150.05C149.29 3.27 148.6 4 148.54 4.99V72.04L168.88 46.43C169.52 45.62 170.73 45.61 171.39 46.37L171.47 46.47L187.96 68.51L199.23 57.33C199.85 56.71 200.84 56.7 201.47 57.28L201.56 57.37L211.37 67.68V53.42C211.37 52.52 212.1 51.78 213 51.78C213.87 51.78 214.57 52.45 214.63 53.3V81.78C214.63 84.52 212.62 86.8 210.02 86.9H150.05C147.43 86.9 145.36 84.67 145.27 81.95V5.12C145.27 2.38 147.29 0.1 149.89 0H191.93ZM65.54 18.91C66.44 18.91 67.17 19.64 67.17 20.54C67.17 21.41 66.5 22.12 65.65 22.17H4.67C4 22.17 3.33 22.94 3.27 24.03V72.1L31.41 46.25C32.02 45.69 32.94 45.68 33.56 46.2L33.66 46.29L56.82 68.88L72.98 57.18C73.53 56.78 74.26 56.77 74.82 57.13L74.93 57.21L88.62 67.7V53.19C88.62 52.29 89.35 51.55 90.25 51.55C91.12 51.55 91.82 52.22 91.88 53.07V81.62C91.88 84.41 89.95 86.79 87.38 86.89H4.67C2.08 86.89 0.09 84.57 0 81.79V24.18C0 21.39 1.94 19.01 4.5 18.91H65.54ZM170.11 50.13L148.9 76.84C148.79 76.98 148.67 77.09 148.53 77.18V81.79C148.53 82.8 149.19 83.57 149.94 83.63H209.84C210.6 83.63 211.29 82.9 211.35 81.91V72.35C211.29 72.31 211.23 72.26 211.17 72.21L211.08 72.12L200.33 60.82L188.91 72.15C188.23 72.82 187.14 72.77 186.53 72.06L186.45 71.96L170.11 50.13ZM32.48 49.71L3.27 76.54V81.64C3.27 82.75 3.91 83.57 4.58 83.64H87.21C87.88 83.64 88.55 82.87 88.61 81.78V71.81L73.9 60.54L57.62 72.33C57.01 72.77 56.19 72.74 55.62 72.26L55.52 72.17L32.48 49.71ZM210.45 3.64C213.25 3.64 215.97 4.21 218.49 5.31C219.32 5.67 219.7 6.63 219.34 7.46C218.98 8.29 218.02 8.67 217.19 8.31C215.08 7.39 212.81 6.91 210.45 6.91C201.12 6.91 193.56 14.48 193.56 23.82C193.56 33.16 201.12 40.73 210.45 40.73C219.78 40.73 227.34 33.16 227.34 23.82C227.34 22.92 228.07 22.18 228.97 22.18C229.87 22.18 230.6 22.91 230.6 23.82C230.6 34.97 221.58 44 210.45 44C199.32 44 190.3 34.96 190.3 23.82C190.3 12.68 199.32 3.64 210.45 3.64ZM96.42 3.64C99.22 3.64 101.94 4.21 104.46 5.31C105.29 5.67 105.67 6.63 105.31 7.46C104.95 8.29 103.99 8.67 103.16 8.31C101.06 7.39 98.78 6.91 96.43 6.91C87.1 6.91 79.54 14.48 79.54 23.82C79.54 33.16 87.1 40.73 96.43 40.73C105.76 40.73 113.32 33.16 113.32 23.82C113.32 22.92 114.05 22.18 114.95 22.18C115.85 22.18 116.58 22.91 116.58 23.82C116.58 34.97 107.56 44 96.43 44C85.3 44 76.27 34.96 76.27 23.82C76.27 12.68 85.29 3.64 96.42 3.64ZM102.26 16.39C102.9 15.84 103.87 15.87 104.48 16.48C105.12 17.12 105.12 18.15 104.48 18.79L99.1 24.18L104.48 29.57C105.12 30.21 105.12 31.24 104.48 31.88C103.87 32.49 102.91 32.52 102.26 31.97L96.79 26.49L91.32 31.97C90.68 32.52 89.71 32.49 89.1 31.88C88.46 31.24 88.46 30.21 89.1 29.57L94.48 24.18L89.1 18.79C88.46 18.15 88.46 17.12 89.1 16.48C89.71 15.87 90.67 15.84 91.32 16.39L96.79 21.87L102.26 16.39ZM230.83 9.91C231.45 10.51 231.5 11.47 230.96 12.13L230.87 12.23L212.07 31.87C211.42 32.54 210.36 32.54 209.72 31.88L209.64 31.79L200.12 20.34C199.54 19.65 199.64 18.61 200.33 18.03C200.99 17.48 201.96 17.54 202.55 18.15L202.63 18.24L210.98 28.28L228.52 9.96C229.14 9.31 230.18 9.28 230.83 9.91Z" fill="#C7C7CC"/>
</g>
<defs>
<clipPath id="clip0_1106_17065">
<rect width="231.3" height="86.91" fill="white"/>
</clipPath>
</defs>
</svg>
