<svg width="197" height="124" viewBox="0 0 197 124" xmlns="http://www.w3.org/2000/svg"><path d="M131.287 94.469l.127.117 21 21a2 2 0 01-2.701 2.945l-.127-.117-21-21a2 2 0 012.701-2.945zm-78.132 8.848a8.438 8.438 0 002.797.666l.367.015a2 2 0 01-.084 4 12.452 12.452 0 01-4.656-1.005 2 2 0 111.576-3.676zm13.378-4.122a2 2 0 01.681 2.745 12.56 12.56 0 01-3.183 3.536 2 2 0 11-2.412-3.19 8.56 8.56 0 002.169-2.41 2 2 0 012.745-.681zm-18.486-2.796a8.428 8.428 0 00.947 3.092 2 2 0 11-3.53 1.882 12.428 12.428 0 01-1.395-4.557 2 2 0 113.978-.417zM108.499 52C120.925 52 131 62.074 131 74.499 131 86.924 120.924 97 108.499 97S86 86.925 86 74.499C86 62.073 96.073 52 108.499 52zM67.404 89.385a12.428 12.428 0 011.496 4.526 2 2 0 01-3.944.652l-.024-.147a8.428 8.428 0 00-1.015-3.07 2 2 0 013.487-1.96zM108.499 56C98.283 56 90 64.283 90 74.499 90 84.716 98.283 93 108.499 93S127 84.715 127 74.499C127 64.283 118.716 56 108.499 56zM51.982 85.811a2 2 0 01-.45 2.793 8.563 8.563 0 00-2.222 2.361 2 2 0 11-3.38-2.138 12.563 12.563 0 013.26-3.466 2 2 0 012.792.45zM56.5 83c1.62 0 3.202.31 4.676.905a2 2 0 11-1.498 3.71A8.465 8.465 0 0056.5 87a2 2 0 110-4zm90.655-11.81l9.262 3.932.129.06c.93.486 1.335 1.58.933 2.525a1.976 1.976 0 01-2.597 1.031l-9.262-3.931-.129-.06c-.93-.486-1.334-1.58-.933-2.525.425-1 1.588-1.46 2.597-1.032zm-43.543-8.374a2 2 0 01-.428 2.796C100.65 67.473 99 71.028 99 75a2 2 0 11-4 0c0-5.198 2.213-9.965 5.816-12.612a2 2 0 012.796.428zM67 62.176a2 2 0 012 2v4a2 2 0 11-4 0v-4a2 2 0 012-2zm88.9-3.33a1.976 1.976 0 012.451 1.34c.283.988-.25 2.024-1.234 2.392l-.135.045-9.672 2.773a1.976 1.976 0 01-2.452-1.34c-.283-.987.25-2.024 1.234-2.392l.135-.044zM67 50.176a2 2 0 012 2v4a2 2 0 11-4 0v-4a2 2 0 012-2zm80.837-4.297a1.976 1.976 0 012.786-.212c.775.674.892 1.834.268 2.678l-.09.11-6.6 7.595a1.976 1.976 0 01-2.787.211c-.775-.673-.891-1.833-.268-2.678l.09-.11zM120 39.719a2 2 0 012 2v4a2 2 0 01-4 0v-4a2 2 0 012-2zm-53-1.543a2 2 0 012 2v4a2 2 0 11-4 0v-4a2 2 0 012-2zm53-10.457a2 2 0 012 2v4a2 2 0 01-4 0v-4a2 2 0 012-2zm-53-1.543a2 2 0 012 2v4a2 2 0 11-4 0v-4a2 2 0 012-2zm53-10.458a2 2 0 012 2v4a2 2 0 01-4 0v-4a2 2 0 012-2zm-48.81.515a2 2 0 111.265 3.795l-.251.091a5.046 5.046 0 00-2.1 1.55 2 2 0 01-3.124-2.498 9.046 9.046 0 014.21-2.938zm11.78-2.983a2 2 0 01.974 3.88l-3.88.974a2 2 0 11-.974-3.88zm11.638-2.924a2 2 0 11.975 3.88l-3.88.974a2 2 0 01-.974-3.88zm11.638-2.923a2 2 0 11.975 3.879l-3.88.975a2 2 0 11-.974-3.88zm6.397.324a2 2 0 012.413-1.475 9.121 9.121 0 014.441 2.558 2 2 0 01-2.889 2.767l-.189-.188a5.118 5.118 0 00-2.301-1.249l-.144-.04a2 2 0 01-1.331-2.373z" fill="#FFF" fill-rule="evenodd"/></svg>