<svg width="78" height="78" viewBox="0 0 78 78" xmlns="http://www.w3.org/2000/svg" xmlns:xlink="http://www.w3.org/1999/xlink"><defs><circle id="a" cx="44" cy="44" r="44"/><circle id="c" cx="38" cy="38" r="38"/></defs><g transform="translate(-5 -5)" fill="none" fill-rule="evenodd"><mask id="b" fill="#fff"><use xlink:href="#a"/></mask><g mask="url(#b)"><path d="M0 0h88v88H0z"/><g transform="translate(6 6)"><mask id="d" fill="#fff"><use xlink:href="#c"/></mask><use stroke="#FFF" stroke-width="2" stroke-linecap="round" stroke-linejoin="round" xlink:href="#c"/><path d="M51.855 27.242C51.873 15.747 47.255 10 38 10s-13.877 5.747-13.868 17.242c0 0-2.132.35-2.132 1.823.965 5.896 1.938 8.844 2.92 8.844C24.92 40.07 31.008 52 38.375 52s13.137-11.932 13.137-14.09c.982 0 1.807-2.668 2.474-8 0-1.474.312-2.668-2.132-2.668z" stroke="#FFF" stroke-width="2" stroke-linecap="round" stroke-linejoin="round" mask="url(#d)"/><g mask="url(#d)" stroke="#FFF" stroke-linecap="round" stroke-linejoin="round" stroke-width="2"><path d="M67.735 70.667v-2.664c0-6.691-4.694-9.336-12.113-9.336l-4-.59C47.874 58.077 46 55.385 46 50M10 70.667v-2.664c0-6.691 4.694-9.336 12.113-9.336l4-.59c3.748 0 5.622-2.692 5.622-8.077"/></g></g></g></g></svg>