<svg xmlns="http://www.w3.org/2000/svg" width="71" height="39" viewBox="0 0 71 39"><g fill="none"><path fill="#FFFFFE" d="M19.92 30.576c.398 0 .72.329.72.734v6.644a.727.727 0 01-.72.734.727.727 0 01-.72-.734V31.31c0-.405.322-.734.72-.734zm5.045 1.29l1.399 4.295a.738.738 0 01-.705.967.74.74 0 01-.704-.51l-1.399-4.295a.74.74 0 011.408-.457zM15.16 33.42c.394.122.61.525.482.9l-.418 1.224a.749.749 0 01-.714.493.787.787 0 01-.232-.035c-.394-.122-.61-.525-.482-.9l.418-1.224c.128-.375.552-.58.946-.458zm-2.667-4.262c.332.24.405.703.164 1.033l-3.475 4.761a.743.743 0 01-1.201-.869l3.475-4.761a.745.745 0 011.037-.164zm13.491-3.116l5.393 7.277a.72.72 0 01-.165 1.019.75.75 0 01-1.038-.162l-5.393-7.277a.72.72 0 01.165-1.019.753.753 0 011.038.162zm-8.27.047a.718.718 0 01.488.912l-1.683 4.947a.756.756 0 01-.721.501.79.79 0 01-.235-.036.718.718 0 01-.487-.912l1.683-4.947c.13-.38.558-.589.956-.465zm-12.74 3.685a.666.666 0 01-.17.98l-.233.157a.805.805 0 01-.448.134.785.785 0 01-.618-.29c-.248-.313-.172-.752.169-.98l.233-.156a.807.807 0 011.066.155zM23.213 26.4l1.07 3.221a.726.726 0 01-.479.92.744.744 0 01-.939-.468l-1.07-3.222a.726.726 0 01.479-.92.749.749 0 01.939.47zm10.307 1.505l2.007 1.378a.69.69 0 01.168.998.77.77 0 01-.613.295.783.783 0 01-.444-.137l-2.007-1.378a.69.69 0 01-.168-.998.785.785 0 011.057-.158zM12.977 24.17a.72.72 0 01-.167 1.023l-5.857 4.151a.76.76 0 01-1.05-.162.72.72 0 01.167-1.023l5.857-4.151a.764.764 0 011.05.162zm6.943 1.726c.398 0 .72.32.72.716v2a.718.718 0 01-.72.716.718.718 0 01-.72-.716v-2c0-.395.322-.716.72-.716zm-5.035-.014a.73.73 0 01.169 1.038l-.87 1.165a.77.77 0 01-.62.307.776.776 0 01-.449-.142.73.73 0 01-.169-1.038l.87-1.165a.779.779 0 011.069-.165zm13.043-2.029l3.438 2.424c.34.24.416.701.169 1.03a.767.767 0 01-.616.305.773.773 0 01-.447-.141l-3.438-2.424a.724.724 0 01-.169-1.03.776.776 0 011.063-.164zm-20.285-.725a.731.731 0 01-.486.927L2.43 25.548a.777.777 0 01-.234.036.756.756 0 01-.72-.508.731.731 0 01.486-.927l4.726-1.493a.762.762 0 01.954.472zm23.907-1.097l4.407 1.366c.397.123.615.53.486.909a.754.754 0 01-.72.498.79.79 0 01-.233-.035l-4.407-1.366c-.397-.123-.615-.53-.486-.909.13-.378.556-.585.953-.463zm-18.626-.619a.735.735 0 01-.474.926l-2.684.87a.74.74 0 01-.93-.472.735.735 0 01.474-.926l2.684-.87a.738.738 0 01.93.472zm14.95-.473l1.52.459c.4.12.618.519.489.89a.757.757 0 01-.723.488.812.812 0 01-.235-.035l-1.52-.459c-.399-.12-.617-.519-.488-.89.13-.37.559-.574.958-.453zm-23.02-2.375c.412 0 .746.314.746.702 0 .388-.334.702-.747.702H.747c-.413 0-.747-.314-.747-.702 0-.388.334-.702.747-.702h4.106zm7.364 0c.41 0 .742.314.742.702 0 .388-.332.702-.742.702H7.462c-.41 0-.742-.314-.742-.702 0-.388.332-.702.742-.702h4.756zm23.034-.156c.413 0 .748.314.748.702 0 .388-.335.702-.748.702h-7.624c-.413 0-.748-.314-.748-.702 0-.388.335-.702.748-.702h7.624zm4.162 0c.412 0 .746.314.746.702 0 .388-.334.702-.746.702h-1.388c-.412 0-.746-.314-.746-.702 0-.388.334-.702.746-.702h1.388zm-28.5-2.773l1.52.459c.4.12.618.519.489.89a.757.757 0 01-.723.488.812.812 0 01-.235-.035l-1.52-.459c-.399-.12-.617-.519-.488-.89.13-.37.559-.574.958-.453zm20.09.005a.735.735 0 01-.474.926l-2.684.87a.74.74 0 01-.93-.472.735.735 0 01.474-.926l2.684-.87a.738.738 0 01.93.472zM4.35 13.607l4.407 1.366c.397.123.615.53.486.909a.754.754 0 01-.72.498.79.79 0 01-.233-.035l-4.407-1.366c-.397-.123-.615-.53-.486-.909.13-.378.556-.585.953-.463zm34.013-.304a.738.738 0 01-.476.93l-4.595 1.487a.744.744 0 01-.935-.475.738.738 0 01.476-.93l4.595-1.487a.743.743 0 01.935.475zM9.528 10.905l3.438 2.424c.34.24.416.701.169 1.03a.773.773 0 01-1.063.163L8.634 12.1a.724.724 0 01-.169-1.03.776.776 0 011.063-.164zm24.409-1.711a.72.72 0 01-.167 1.023l-5.857 4.151a.76.76 0 01-1.05-.162.72.72 0 01.167-1.023l5.857-4.151a.763.763 0 011.05.162zm-7.53 1.396c.34.236.414.689.168 1.012l-.56.735a.771.771 0 01-.616.299.782.782 0 01-.446-.138.703.703 0 01-.168-1.012l.56-.735a.784.784 0 011.062-.16zm-17.04-6.7l5.689 7.583a.717.717 0 01-.168 1.023.769.769 0 01-.443.14.763.763 0 01-.612-.302L8.144 4.751a.717.717 0 01.168-1.023.772.772 0 011.055.162zm7.78 4.421l1.056 3.2a.737.737 0 01-.482.933.75.75 0 01-.947-.475l-1.057-3.2a.737.737 0 01.482-.933.754.754 0 01.947.475zm2.773-4.567c.398 0 .72.328.72.732v7.116a.726.726 0 01-.72.732.726.726 0 01-.72-.732V4.476c0-.404.322-.732.72-.732zm4.516 2.22a.718.718 0 01.487.912l-1.683 4.947a.756.756 0 01-.721.501.792.792 0 01-.235-.036.718.718 0 01-.487-.912l1.683-4.947c.13-.38.558-.589.956-.465zM5.212 7.94l2.153 1.5a.713.713 0 01.17 1.022.773.773 0 01-.619.302.782.782 0 01-.448-.14l-2.153-1.5a.713.713 0 01-.17-1.022.785.785 0 011.067-.162zm26.635-4.682a.703.703 0 01.168 1.011l-4.243 5.573a.77.77 0 01-.614.298.78.78 0 01-.445-.138.703.703 0 01-.168-1.011l4.243-5.573a.782.782 0 011.06-.16zm-16.633-.414l1.07 3.221a.726.726 0 01-.48.92.744.744 0 01-.939-.468l-1.068-3.222a.726.726 0 01.478-.92.749.749 0 01.939.47zm10.347-.469c.394.122.61.524.482.9l-.418 1.224a.749.749 0 01-.714.493.785.785 0 01-.232-.035c-.394-.122-.61-.525-.482-.9l.418-1.224c.128-.375.552-.58.946-.458zM19.92.312c.398 0 .72.334.72.747v.846a.734.734 0 01-.72.747.734.734 0 01-.72-.747V1.06c0-.413.322-.747.72-.747z"/><text fill="#FFF" font-family="Montserrat-Bold, Montserrat" font-size="10" font-weight="bold" letter-spacing=".714"><tspan x="45" y="24">PRO</tspan></text></g></svg>