<?xml version="1.0" encoding="UTF-8"?>
<svg width="19px" height="9px" viewBox="0 0 19 9" version="1.1" xmlns="http://www.w3.org/2000/svg" xmlns:xlink="http://www.w3.org/1999/xlink">
    <!-- Generator: sketchtool 51.3 (57544) - http://www.bohemiancoding.com/sketch -->
    <title>71B966B2-FA7D-4D19-BA2C-3222840F0E86</title>
    <desc>Created with sketchtool.</desc>
    <defs></defs>
    <g id="Menu-et-rubriques" stroke="none" stroke-width="1" fill="none" fill-rule="evenodd">
        <g id="PassCulture-search-filter" transform="translate(-256.000000, -293.000000)">
            <g id="FILTER-drawer" transform="translate(12.000000, 76.000000)">
                <g id="Filter-group-Copy" transform="translate(11.068768, 151.000000)">
                    <g id="BLOCKS/filter-dropdown-red" transform="translate(52.438813, 51.000000)">
                        <g id="filter-dropdown">
                            <g id="ICONS/dropdown-disclosure-down" transform="translate(177.824085, 6.000000)">
                                <rect id="Background" x="0" y="0" width="24" height="24"></rect>
                                <rect id="crop" x="0" y="0" width="24" height="24"></rect>
                                <path d="M3.29289322,10.9037687 C2.90236893,10.5132444 2.90236893,9.88007944 3.29289322,9.48955515 C3.68341751,9.09903086 4.31658249,9.09903086 4.70710678,9.48955515 L9.93406479,14.7165132 C11.1056377,15.888086 13.0051326,15.888086 14.1767055,14.7165132 L19.6003254,9.29289322 C19.9908497,8.90236893 20.6240147,8.90236893 21.014539,9.29289322 C21.4050633,9.68341751 21.4050633,10.3165825 21.014539,10.7071068 L15.590919,16.1307267 C13.6382976,18.0833482 10.4724727,18.0833482 8.51985123,16.1307267 L3.29289322,10.9037687 Z" id="Line" fill="#EB0055" fill-rule="nonzero"></path>
                            </g>
                        </g>
                    </g>
                </g>
            </g>
        </g>
    </g>
</svg>