<?xml version="1.0" encoding="UTF-8"?>
<svg width="14px" height="7px" viewBox="0 0 14 7" version="1.1" xmlns="http://www.w3.org/2000/svg" xmlns:xlink="http://www.w3.org/1999/xlink">
    <!-- Generator: sketchtool 51.2 (57519) - http://www.bohemiancoding.com/sketch -->
    <title>2F2968EF-6606-45C0-AE0A-05DDFF4FA21E</title>
    <desc>Created with sketchtool.</desc>
    <defs></defs>
    <g id="Portail-pro" stroke="none" stroke-width="1" fill="none" fill-rule="evenodd">
        <g id="Passculture-Pro-compta" transform="translate(-756.000000, -251.000000)">
            <g id="Group-5" transform="translate(183.000000, 54.000000)">
                <g id="Stacked-Group-[30v]" transform="translate(83.000000, 66.000000)">
                    <g id="Group" transform="translate(0.000000, 122.000000)">
                        <g id="filter-header">
                            <g id="Group-6" transform="translate(306.000000, 0.000000)">
                                <g id="FORMS/dropdown-XS" transform="translate(68.000000, 0.000000)">
                                    <g id="ICONS/dropdown-disclosure-down-s-w">
                                        <g transform="translate(115.000000, 4.000000)">
                                            <rect id="Background" x="0" y="0" width="16" height="16"></rect>
                                            <rect id="crop" x="0" y="0" width="24" height="24"></rect>
                                            <path d="M1.29289322,6.8517664 C0.902368927,6.4612421 0.902368927,5.82807712 1.29289322,5.43755283 C1.68341751,5.04702854 2.31658249,5.04702854 2.70710678,5.43755283 L6.51112699,9.24157305 C7.29217558,10.0226216 8.55850554,10.0226216 9.33955412,9.24157305 L13.2882339,5.29289322 C13.6787582,4.90236893 14.3119232,4.90236893 14.7024475,5.29289322 C15.0929718,5.68341751 15.0929718,6.31658249 14.7024475,6.70710678 L10.7537677,10.6557866 C9.19167052,12.2178838 6.6590106,12.2178838 5.09691343,10.6557866 L1.29289322,6.8517664 Z" id="Line" fill="#626262" fill-rule="nonzero"></path>
                                        </g>
                                    </g>
                                </g>
                            </g>
                        </g>
                    </g>
                </g>
            </g>
        </g>
    </g>
</svg>
