<?xml version="1.0" encoding="UTF-8"?>
<svg width="30px" height="30px" viewBox="0 0 30 30" version="1.1" xmlns="http://www.w3.org/2000/svg" xmlns:xlink="http://www.w3.org/1999/xlink">
    <!-- Generator: sketchtool 54.1 (76490) - https://sketchapp.com -->
    <title>41512652-2D67-4FBF-8129-0E50EB3A3608</title>
    <desc>Created with sketchtool.</desc>
    <g id="Portail-pro" stroke="none" stroke-width="1" fill="none" fill-rule="evenodd">
        <g id="Passculture-Pro-menu" transform="translate(-970.000000, -11.000000)">
            <g id="USER-MENU" transform="translate(955.000000, 0.000000)">
                <g id="Stacked-Group" transform="translate(0.000000, 8.000000)">
                    <g id="Group-2">
                        <g id="ICONS/ico-user-circled" transform="translate(12.000000, 0.000000)">
                            <g id="ICONS/ico-user-w">
                                <rect id="crop" x="0" y="0" width="36" height="35.8085098"></rect>
                                <path d="M10.2428315,28.3942866 C12.413821,29.9853189 15.096524,30.9255316 17.9999999,30.9255316 C20.9137779,30.9255316 23.6052137,29.9786348 25.7802585,28.3773258 C25.5236006,28.3579712 25.2513828,28.348404 24.9633712,28.348404 L24.8440385,28.3397014 L23.2637611,28.1079642 C21.3790559,28.0793482 20.3520318,26.7670262 20.2229848,24.5085283 C19.5000434,24.9538385 18.741721,25.2287233 18.003651,25.2287233 C17.3403397,25.2287233 16.6538627,25.0049616 15.9876858,24.6343915 C15.8280721,26.8157185 14.8045193,28.079884 12.9551022,28.1079642 L11.3748248,28.3397014 L11.2554921,28.348404 C10.8930873,28.348404 10.5556892,28.3635518 10.2428315,28.3942866 Z M8.67663288,27.0448667 C9.40555552,26.8328537 10.2485722,26.7253048 11.1945367,26.7208854 L12.7725234,26.4894841 L12.8918561,26.4807815 C13.8966137,26.4807815 14.3734091,25.7993761 14.3734091,24.0079776 C14.3734091,23.8413012 14.4237831,23.6863278 14.5102138,23.5572983 C13.0751306,22.2610371 11.9374486,20.4780629 11.6646293,19.2130248 C11.093392,18.6963223 10.7731634,17.4409715 10.401945,15.215662 L10.3909091,15.0824454 C10.3909091,14.4558716 10.7599097,14.0215098 11.284215,13.7595412 C11.4484524,9.03826867 13.6828373,6.5106381 17.8475207,6.5106381 C21.978205,6.5106381 24.2083725,8.99721211 24.4004554,13.6434907 C24.6782798,13.7408875 24.9005663,13.9035705 25.0650555,14.1473895 C25.2903086,14.4812777 25.3140871,14.7075352 25.3012323,15.2653396 C25.2993159,15.3499418 25.2987622,15.3827885 25.2987622,15.425773 L25.2922501,15.5282479 C25.0333105,17.5574624 24.7659116,18.7342602 24.2112367,19.2244209 C23.9561306,20.4548766 22.9284089,22.1509586 21.5999191,23.4267076 C21.7514416,23.5744171 21.8454545,23.7802768 21.8454545,24.0079776 C21.8454545,25.7993761 22.3222499,26.4807815 23.3270076,26.4807815 L23.4463403,26.4894841 L25.024327,26.7208854 C25.8967806,26.7249614 26.6816648,26.8167612 27.3702353,26.997332 C29.6723978,24.6505315 31.0909091,21.4421674 31.0909091,17.9042545 C31.0909091,10.7128024 25.2299095,4.88297861 18,4.88297861 C10.7700905,4.88297861 4.90909091,10.7128024 4.90909091,17.9042545 C4.90909091,21.4661139 6.34686966,24.6939484 8.67663288,27.0448667 L8.67663288,27.0448667 Z M18,32.5531908 C9.86635187,32.5531908 3.27272727,25.9946388 3.27272727,17.9042549 C3.27272727,9.81387105 9.86635187,3.25531908 18,3.25531908 C26.1336481,3.25531908 32.7272727,9.81387105 32.7272727,17.9042549 C32.7272727,25.9946388 26.1336481,32.5531908 18,32.5531908 Z M23.5958147,15.1544968 C23.1434234,15.1544968 22.7768951,14.7893222 22.7776339,14.3393378 C22.7846284,10.0795407 21.1941895,8.13829769 17.8475209,8.13829769 C14.5005657,8.13829769 12.9083044,10.0799514 12.9120386,14.3399574 C12.9123889,14.7395261 12.621065,15.0802446 12.2245146,15.1440527 C12.194885,15.1488204 12.1256196,15.1672354 12.0581443,15.195885 C12.2376296,16.232773 12.4158676,17.0119058 12.5879141,17.5230616 C12.6503805,17.7086511 12.7090278,17.8491131 12.7572328,17.9392371 C13.0410487,18.0669592 13.2385176,18.3510878 13.2385176,18.6810924 C13.2385176,18.969257 13.9053268,20.3251095 14.7165122,21.3842858 C15.7835914,22.7775863 16.9544745,23.6010633 18.0036514,23.6010633 C19.0470917,23.6010633 20.187214,22.7839462 21.2164466,21.3946679 C21.998433,20.3391272 22.6360703,18.9834947 22.6360703,18.6810924 C22.6360703,18.3515893 22.8329394,18.0678228 23.1160618,17.9398204 C23.1507485,17.8678002 23.1922312,17.7613174 23.2356065,17.6237392 C23.3868858,17.14391 23.5314215,16.3888008 23.6626466,15.3721104 C23.6630215,15.3329008 23.6638478,15.2910842 23.6652987,15.2280394 C23.6659215,15.2010165 23.6663533,15.1769043 23.666759,15.1556056 C23.6449584,15.1548912 23.6213126,15.1544968 23.5958147,15.1544968 Z" id="Combined-Shape" fill="#EB0055" fill-rule="nonzero"></path>
                            </g>
                        </g>
                    </g>
                </g>
            </g>
        </g>
    </g>
</svg>