<svg xmlns="http://www.w3.org/2000/svg" width="24" height="24" viewBox="0 0 24 24"><g fill="none"><path fill="#B3E7FF" d="M19.333 7.333h4v9.334h-4V7.333zm-18.666 0h4v9.334h-4V7.333zm5.333 0h12v9.334H6V7.333z"/><path fill="#231F20" d="M23.333 7.333V4H.667v3.333h4v9.334h-4V20h22.666v-3.333h-4V7.333h4zM18 16.667H6V7.333h12v9.334z"/><path fill="#F5F8FA" d="M20.667 4.667H22v2h-1.333v-2zm-2.667 0h1.333v2H18v-2zm-2.667 0h1.334v2h-1.334v-2zm-2.666 0H14v2h-1.333v-2zm-2.667 0h1.333v2H10v-2zm-2.667 0h1.334v2H7.333v-2zm-2.666 0H6v2H4.667v-2zM2 4.667h1.333v2H2v-2zm18.667 12.666H22v2h-1.333v-2zm-2.667 0h1.333v2H18v-2zm-2.667 0h1.334v2h-1.334v-2zm-2.666 0H14v2h-1.333v-2zm-2.667 0h1.333v2H10v-2zm-2.667 0h1.334v2H7.333v-2zm-2.666 0H6v2H4.667v-2zm-2.667 0h1.333v2H2v-2z"/><path fill="#06F" d="M19.333 16.667V7.333H20v9.334h-.667zM6 16.667V7.333h.667v9.334H6z"/></g></svg>