<?xml version="1.0" encoding="UTF-8"?>
<svg width="28px" height="28px" viewBox="0 0 28 28" version="1.1" xmlns="http://www.w3.org/2000/svg" xmlns:xlink="http://www.w3.org/1999/xlink">
    <!-- Generator: sketchtool 55.2 (78181) - https://sketchapp.com -->
    <title>535FCFEA-605F-43EE-9917-ABDA5AD25199</title>
    <desc>Created with sketchtool.</desc>
    <g id="Menu-et-rubriques" stroke="none" stroke-width="1" fill="none" fill-rule="evenodd">
        <g id="PassCulture-v0rc3-mespreferes-edit" transform="translate(-272.000000, -76.000000)">
            <g id="Group-2" transform="translate(272.000000, 76.000000)">
                <g id="ICONS/ico-check-w">
                    <g id="ICONS/ico-close-S-w" transform="translate(-0.636364, -1.272727)">
                        <rect id="crop" x="0.636363636" y="1.27272727" width="28" height="28"></rect>
                        <g id="Group" transform="translate(15.222015, 15.408402) rotate(-45.000000) translate(-15.222015, -15.408402) translate(4.722015, 4.908402)" fill="#FFFFFF" fill-rule="nonzero">
                            <path d="M16.1623615,17.339493 C16.4381135,17.5573937 16.4850112,17.9575782 16.2671104,18.2333302 C16.0492097,18.5090821 15.6490251,18.5559798 15.3732732,18.3380791 L5.1936364,10.2940734 C3.70052241,9.11420638 3.70052241,7.12532797 5.1936364,5.94546098 L10.0428933,2.11355117 C10.3186452,1.89565044 10.7188298,1.94254812 10.9367305,2.21830006 C11.1546313,2.494052 11.1077336,2.89423656 10.8319817,3.11213729 L5.98272479,6.9440471 C5.1344627,7.61434853 5.1344627,8.62518582 5.98272479,9.29548725 L16.1623615,17.339493 Z" id="Stroke-3-Copy" transform="translate(10.239004, 10.225815) rotate(-45.000000) translate(-10.239004, -10.225815) "></path>
                        </g>
                    </g>
                </g>
            </g>
        </g>
    </g>
</svg>