<svg xmlns="http://www.w3.org/2000/svg" width="24" height="24" viewBox="0 0 24 24">
    <g fill="none" fill-rule="evenodd">
        <g fill="#151515">
            <g>
                <g>
                    <path d="M17.371 12.125c.19 0 .347.141.372.324l.003.051v5.494c0 .73-.57 1.329-1.291 1.372l-.084.003H7.375c-.731 0-1.33-.571-1.372-1.292L6 17.994V12.5c0-.207.168-.375.375-.375.19 0 .347.141.372.324l.003.051v5.494c0 .323.246.59.561.621l.064.004h8.996c.324 0 .59-.246.622-.562l.003-.063V12.5c0-.207.168-.375.375-.375zM11.94 4.5c.254 0 .463.141.496.324l.004.051v8.54l1.884-2.153c.137-.156.374-.171.53-.035.141.124.167.331.068.485l-.033.044-2.449 2.797v.051c0 .17-.152.315-.36.36l-.018.017-.006.003-.014.014-.031.02.051-.037c-.021.019-.045.035-.069.048-.017.01-.034.017-.051.023l-.02.006c-.014.005-.03.008-.044.01l-.032.005h-.026c-.017 0-.034 0-.05-.002l-.012-.002c-.02-.003-.04-.007-.058-.013l-.016-.006c-.04-.015-.078-.037-.111-.065l-.04-.04-2.79-3.189c-.137-.156-.121-.393.034-.529.142-.124.35-.122.49-.004l.04.04 2.133 2.437V4.875c0-.207.224-.375.5-.375z" transform="translate(-472 -749) translate(464 745) translate(8 4)"/>
                </g>
            </g>
        </g>
    </g>
</svg>
