<?xml version="1.0" encoding="UTF-8"?>
<svg width="28px" height="25px" viewBox="0 0 28 25" version="1.1" xmlns="http://www.w3.org/2000/svg" xmlns:xlink="http://www.w3.org/1999/xlink">
    <!-- Generator: sketchtool 50.2 (55047) - http://www.bohemiancoding.com/sketch -->
    <title>55C6A0C9-3E98-4DBD-A4DA-D16498F62B14</title>
    <desc>Created with sketchtool.</desc>
    <defs></defs>
    <g id="Portail-pro" stroke="none" stroke-width="1" fill="none" fill-rule="evenodd">
        <g id="Passculture-Pro-menu" transform="translate(-959.000000, -119.000000)">
            <g id="USER-MENU" transform="translate(943.000000, 0.000000)">
                <g id="Stacked-Group" transform="translate(0.000000, 8.000000)">
                    <g id="Group-3-Copy" transform="translate(12.000000, 105.000000)">
                        <g id="ICONS/ico-structure">
                            <rect id="Background" x="0" y="0" width="36" height="35.8085106"></rect>
                            <g id="Group">
                                <rect id="crop" x="0" y="0" width="36" height="35.8085106"></rect>
                                <path d="M8.18181818,14.6489362 C8.18181818,14.1994704 8.54813066,13.8351064 9,13.8351064 C9.45186934,13.8351064 9.81818182,14.1994704 9.81818182,14.6489362 L9.81818182,23.6010638 C9.81818182,24.0505296 9.45186934,24.4148936 9,24.4148936 C8.54813066,24.4148936 8.18181818,24.0505296 8.18181818,23.6010638 L8.18181818,14.6489362 Z" id="Stroke-1" fill="#E60039" fill-rule="nonzero"></path>
                                <path d="M11.4545455,14.6489362 C11.4545455,14.1994704 11.8208579,13.8351064 12.2727273,13.8351064 C12.7245966,13.8351064 13.0909091,14.1994704 13.0909091,14.6489362 L13.0909091,23.6010638 C13.0909091,24.0505296 12.7245966,24.4148936 12.2727273,24.4148936 C11.8208579,24.4148936 11.4545455,24.0505296 11.4545455,23.6010638 L11.4545455,14.6489362 Z" id="Stroke-2" fill="#E60039" fill-rule="nonzero"></path>
                                <path d="M15.5454545,14.6489362 C15.5454545,14.1994704 15.911767,13.8351064 16.3636364,13.8351064 C16.8155057,13.8351064 17.1818182,14.1994704 17.1818182,14.6489362 L17.1818182,23.6010638 C17.1818182,24.0505296 16.8155057,24.4148936 16.3636364,24.4148936 C15.911767,24.4148936 15.5454545,24.0505296 15.5454545,23.6010638 L15.5454545,14.6489362 Z" id="Stroke-1" fill="#E60039" fill-rule="nonzero"></path>
                                <path d="M18.8181818,14.6489362 C18.8181818,14.1994704 19.1844943,13.8351064 19.6363636,13.8351064 C20.088233,13.8351064 20.4545455,14.1994704 20.4545455,14.6489362 L20.4545455,23.6010638 C20.4545455,24.0505296 20.088233,24.4148936 19.6363636,24.4148936 C19.1844943,24.4148936 18.8181818,24.0505296 18.8181818,23.6010638 L18.8181818,14.6489362 Z" id="Stroke-2" fill="#E60039" fill-rule="nonzero"></path>
                                <path d="M22.9090909,14.6489362 C22.9090909,14.1994704 23.2754034,13.8351064 23.7272727,13.8351064 C24.1791421,13.8351064 24.5454545,14.1994704 24.5454545,14.6489362 L24.5454545,23.6010638 C24.5454545,24.0505296 24.1791421,24.4148936 23.7272727,24.4148936 C23.2754034,24.4148936 22.9090909,24.0505296 22.9090909,23.6010638 L22.9090909,14.6489362 Z" id="Stroke-7" fill="#E60039" fill-rule="nonzero"></path>
                                <path d="M26.1818182,14.6489362 C26.1818182,14.1994704 26.5481307,13.8351064 27,13.8351064 C27.4518693,13.8351064 27.8181818,14.1994704 27.8181818,14.6489362 L27.8181818,23.6010638 C27.8181818,24.0505296 27.4518693,24.4148936 27,24.4148936 C26.5481307,24.4148936 26.1818182,24.0505296 26.1818182,23.6010638 L26.1818182,14.6489362 Z" id="Stroke-8" fill="#E60039" fill-rule="nonzero"></path>
                                <path d="M7.36363636,27.6702128 C6.91176702,27.6702128 6.54545455,27.3058488 6.54545455,26.856383 L6.54545455,24.4148936 C6.54545455,23.9654278 6.91176702,23.6010638 7.36363636,23.6010638 L28.6363636,23.6010638 C29.088233,23.6010638 29.4545455,23.9654278 29.4545455,24.4148936 L29.4545455,26.856383 C29.4545455,27.3058488 29.088233,27.6702128 28.6363636,27.6702128 L7.36363636,27.6702128 Z M8.18181818,26.0425532 L27.8181818,26.0425532 L27.8181818,25.2287234 L8.18181818,25.2287234 L8.18181818,26.0425532 Z" id="Stroke-10" fill="#E60039" fill-rule="nonzero"></path>
                                <path d="M5.72727273,30.1117021 C5.27540339,30.1117021 4.90909091,29.7473381 4.90909091,29.2978723 L4.90909091,26.856383 C4.90909091,26.4069172 5.27540339,26.0425532 5.72727273,26.0425532 L30.2727273,26.0425532 C30.7245966,26.0425532 31.0909091,26.4069172 31.0909091,26.856383 L31.0909091,29.2978723 C31.0909091,29.7473381 30.7245966,30.1117021 30.2727273,30.1117021 L5.72727273,30.1117021 Z M6.54545455,28.4840426 L29.4545455,28.4840426 L29.4545455,27.6702128 L6.54545455,27.6702128 L6.54545455,28.4840426 Z" id="Stroke-10" fill="#E60039" fill-rule="nonzero"></path>
                                <path d="M27.6249271,13.0212766 L17.999556,8.23435745 L8.37485656,13.0212766 L27.6249271,13.0212766 Z M4.54317866,13.1072 L17.633631,6.59656167 C17.8639701,6.48200075 18.1350928,6.48199698 18.3654351,6.59655152 L31.4568009,13.1071898 C32.2290294,13.4912368 31.9542807,14.6489362 31.0909091,14.6489362 L4.90909091,14.6489362 C4.04573166,14.6489362 3.77097206,13.4912629 4.54317866,13.1072 Z" id="Stroke-12" fill="#E60039" fill-rule="nonzero"></path>
                            </g>
                        </g>
                    </g>
                </g>
            </g>
        </g>
    </g>
</svg>