<?xml version="1.0" encoding="UTF-8"?>
<svg width="135px" height="153px" viewBox="0 0 135 153" version="1.1" xmlns="http://www.w3.org/2000/svg" xmlns:xlink="http://www.w3.org/1999/xlink">
    <!-- Generator: sketchtool 49.2 (51160) - http://www.bohemiancoding.com/sketch -->
    <title>D0B2D171-D720-4968-B264-47BA6798B919</title>
    <desc>Created with sketchtool.</desc>
    <defs></defs>
    <g id="Écrans" stroke="none" stroke-width="1" fill="none" fill-rule="evenodd" stroke-linecap="round" stroke-linejoin="round">
        <g id="PassCulture-v0rc3-HP3-cL" transform="translate(-120.000000, -123.000000)" stroke="#FFFFFF" stroke-width="2">
            <g id="loading-img" transform="translate(121.000000, 123.000000)">
                <polyline id="Rectangle-5-Copy-2" transform="translate(66.500000, 97.500000) scale(-1, 1) translate(-66.500000, -97.500000) " points="91 80.1538462 91 125 42 125 42 70"></polyline>
                <g id="SPARKS" transform="translate(38.000000, 0.000000)">
                    <g id="spark-9" transform="translate(55.656854, 54.656854) rotate(-315.000000) translate(-55.656854, -54.656854) translate(51.656854, 50.656854)">
                        <path d="M7.5,7.5 L0.428932188,0.428932188" id="Line"></path>
                        <path d="M0.5,7.5 L7.57106781,0.428932188" id="Line"></path>
                    </g>
                    <g id="spark-8" transform="translate(39.606602, 65.606602) rotate(-315.000000) translate(-39.606602, -65.606602) translate(32.106602, 58.106602)">
                        <path d="M12.2995638,12.2995638 L2.40039354,2.40039354" id="Line"></path>
                        <path d="M7.34997867,14.3497491 L7.34997867,0.350208248" id="Line"></path>
                        <path d="M0.350208248,7.34997867 L14.3497491,7.34997867" id="Line"></path>
                        <path d="M2.49988521,12.2995638 L12.3990555,2.40039354" id="Line"></path>
                    </g>
                    <g id="spark-7" transform="translate(17.606602, 35.263456) rotate(-315.000000) translate(-17.606602, -35.263456) translate(10.106602, 27.763456)">
                        <path d="M12.2995638,12.2995638 L2.40039354,2.40039354" id="Line"></path>
                        <path d="M7.34997867,14.3497491 L7.34997867,0.350208248" id="Line"></path>
                        <path d="M0.350208248,7.34997867 L14.3497491,7.34997867" id="Line"></path>
                        <path d="M2.49988521,12.2995638 L12.3990555,2.40039354" id="Line"></path>
                    </g>
                    <g id="spark-6" transform="translate(36.000000, 40.000000) rotate(-270.000000) translate(-36.000000, -40.000000) translate(34.000000, 38.000000)">
                        <path d="M4,4 L0,0" id="Line"></path>
                        <path d="M0,4 L4,0" id="Line"></path>
                    </g>
                    <g id="spark-5" transform="translate(46.656854, 24.656854) rotate(-225.000000) translate(-46.656854, -24.656854) translate(42.656854, 20.656854)">
                        <path d="M7.5,7.5 L0.428932188,0.428932188" id="Line"></path>
                        <path d="M0.5,7.5 L7.57106781,0.428932188" id="Line"></path>
                    </g>
                    <g id="spark-4" transform="translate(52.606602, 4.171573) rotate(-225.000000) translate(-52.606602, -4.171573) translate(50.106602, 1.671573)">
                        <path d="M4.62087393,4.62087393 L0.264272209,0.264272209" id="Line"></path>
                        <path d="M0.308058262,4.62087393 L4.66465998,0.264272209" id="Line"></path>
                    </g>
                    <g id="spark-3" transform="translate(4.000000, 72.000000) rotate(-180.000000) translate(-4.000000, -72.000000) translate(0.000000, 68.000000)">
                        <path d="M7.5,7.5 L0.428932188,0.428932188" id="Line"></path>
                        <path d="M0.5,7.5 L7.57106781,0.428932188" id="Line"></path>
                    </g>
                    <g id="spark-2" transform="translate(18.500000, 87.500000) rotate(-135.000000) translate(-18.500000, -87.500000) translate(16.000000, 85.000000)">
                        <path d="M5,5 L0,0" id="Line"></path>
                        <path d="M0,5 L5,0" id="Line"></path>
                    </g>
                    <g id="spark-1" transform="translate(4.500000, 55.207107) rotate(-135.000000) translate(-4.500000, -55.207107) translate(2.500000, 53.207107)">
                        <path d="M4,4 L0,0" id="Line"></path>
                        <path d="M0,4 L4,0" id="Line"></path>
                    </g>
                </g>
                <g id="hand1" transform="translate(85.000000, 92.000000)">
                    <path d="M47.9988853,45.186494 C47.999629,45.2899726 48,45.3944695 48,45.5 C48,45.9876997 47.9581075,46.4627702 47.8776188,46.9252606 C46.9326919,54.3002588 40.6319771,60.0000233 33.000013,60.0000194 L24,60 C16.9135441,60 9.99059731,58.0211736 4.10368323,57.0236687 C2.04702422,56.6745925 0.00148227677,55.0900386 -7.77156117e-14,52.9718651 C0.00148227677,50.8507271 1.4867236,49.2305986 3.57302815,49.2283752 C3.22982385,49.1010684 5.11872982,49.037415 9.23974606,49.037415 C13.2683258,49.037415 16.5341349,45.7716059 16.5341349,41.7430262 L16.5341525,41.7430262 C16.5341525,39.6920559 16.5341525,37.7674366 16.5341525,35.9691683 C16.5341525,35.6699029 16.5478437,35.3805483 16.575226,35.1011044 L16.575226,3.99206766 C16.575226,1.6720771 18.4477982,-0.212941955 20.7677379,-0.228311555 C20.7769351,-0.228372486 20.7861324,-0.228402952 20.7953298,-0.228402952 C23.0955515,-0.228402952 24.9602497,1.63629517 24.9602497,3.93651688 L24.9602497,26.6468565 L24.9602497,25.455135 C24.9602497,23.3693603 27.035543,21.7112219 29.1527615,21.7112219 C31.2731243,21.7112219 33.3452733,23.4249111 33.3452733,25.5106858 L33.2999992,28.3019364 C33.2999992,26.2161618 35.5641602,24.8342162 37.6813787,24.8342162 C39.8017415,24.8342162 41.7302969,26.5479054 41.7302969,28.63368 L41.7302969,33 C42.2023512,31.0316222 43.2922522,30.0316222 45,30 C46.7077478,29.9683778 47.7077478,30.9683778 48,33 L48.0000206,45.0000122 C48.0000206,45.0000172 48.0000206,45.0000221 48.0000206,45.0000271 C48.0000206,45.062272 47.9996414,45.1244284 47.9988853,45.186494 Z" id="Combined-Shape"></path>
                </g>
                <g id="hand1" transform="translate(24.000000, 122.000000) scale(-1, 1) translate(-24.000000, -122.000000) translate(0.000000, 92.000000)">
                    <path d="M47.9988853,45.186494 C47.999629,45.2899726 48,45.3944695 48,45.5 C48,45.9876997 47.9581075,46.4627702 47.8776188,46.9252606 C46.9326919,54.3002588 40.6319771,60.0000233 33.000013,60.0000194 L24,60 C16.9135441,60 9.99059731,58.0211736 4.10368323,57.0236687 C2.04702422,56.6745925 0.00148227677,55.0900386 -7.77156117e-14,52.9718651 C0.00148227677,50.8507271 1.4867236,49.2305986 3.57302815,49.2283752 C3.22982385,49.1010684 5.11872982,49.037415 9.23974606,49.037415 C13.2683258,49.037415 16.5341349,45.7716059 16.5341349,41.7430262 L16.5341525,41.7430262 C16.5341525,39.6920559 16.5341525,37.7674366 16.5341525,35.9691683 C16.5341525,35.6699029 16.5478437,35.3805483 16.575226,35.1011044 L16.575226,3.99206766 C16.575226,1.6720771 18.4477982,-0.212941955 20.7677379,-0.228311555 C20.7769351,-0.228372486 20.7861324,-0.228402952 20.7953298,-0.228402952 C23.0955515,-0.228402952 24.9602497,1.63629517 24.9602497,3.93651688 L24.9602497,26.6468565 L24.9602497,25.455135 C24.9602497,23.3693603 27.035543,21.7112219 29.1527615,21.7112219 C31.2731243,21.7112219 33.3452733,23.4249111 33.3452733,25.5106858 L33.2999992,28.3019364 C33.2999992,26.2161618 35.5641602,24.8342162 37.6813787,24.8342162 C39.8017415,24.8342162 41.7302969,26.5479054 41.7302969,28.63368 L41.7302969,33 C42.2023512,31.0316222 43.2922522,30.0316222 45,30 C46.7077478,29.9683778 47.7077478,30.9683778 48,33 L48.0000206,45.0000122 C48.0000206,45.0000172 48.0000206,45.0000221 48.0000206,45.0000271 C48.0000206,45.062272 47.9996414,45.1244284 47.9988853,45.186494 Z" id="Combined-Shape"></path>
                </g>
            </g>
        </g>
    </g>
</svg>