<svg xmlns="http://www.w3.org/2000/svg" width="24" height="24" viewBox="0 0 24 24"><g fill="none"><path fill="#E1E8ED" d="M20.867 7.333H3.112a2 2 0 000 4c.121 0 .238-.015.353-.035l-.01.035.424 9.336c.066 1.466 1.321 2.664 2.788 2.664h10.666c1.467 0 2.722-1.198 2.788-2.664l.424-9.336-.01-.033c.109.018.218.033.332.033.715 0 1.375-.38 1.732-1a2 2 0 00-1.732-3z"/><path fill="#EB0055" d="M19.112 11.333V22.66c.575-.489.963-1.197.995-1.99l.453-9.336h-1.448zm-4 0h2v12h-2v-12zm-4 12v-12h2v12h-2zm-4-12h2v12h-2v-12zm-3.672 0l.453 9.336c.036.894.518 1.685 1.219 2.169V11.333H3.44z"/><path fill="#99AAB5" d="M3.44 11.333l.065 1.334h16.99l.065-1.334z" opacity=".6"/><path fill="#FFD983" d="M20.62 7.38c.028-.123.047-.249.047-.38 0-.45-.18-.856-.47-1.155a.997.997 0 00-.902-1.772.998.998 0 00-.702-.701.998.998 0 00-1.286-1.302 1.663 1.663 0 10-3.265.626A1.659 1.659 0 0013 3.342a1.659 1.659 0 00-1.333-.675c-.92 0-1.667.746-1.667 1.666v.008a1.628 1.628 0 00-.697-.31 1.664 1.664 0 00-3.273.006A2.327 2.327 0 005.667 4a2.334 2.334 0 00-2.334 2.333c0 .364.09.703.238 1.01a.996.996 0 00.096 1.99h16.666a.996.996 0 00.286-1.953z"/><g fill="#FFAC33" transform="translate(4 2.667)"><circle cx="14.667" cy="2.667" r="1"/><circle cx="12.333" cy="1" r="1"/><circle cx="4" cy="2" r="1"/><path d="M16.667 5.667a.998.998 0 00-1.943-.322c-.02-.002-.037-.012-.057-.012A.667.667 0 0014 6h2.605a.974.974 0 00.062-.333zM2.333 5.333a.98.98 0 01.372.074.997.997 0 111.9.593h2.79c-.04-.107-.06-.22-.062-.333a1 1 0 011-1c.158 0 .306.04.439.105a.996.996 0 01.507-1.364.998.998 0 011.314 1.297c.426.115.74.5.74.962a.998.998 0 01-.061.333h1.979l-.378-.333c.28-.245.46-.6.46-1 0-.737-.597-1.334-1.333-1.334-.243.001-.48.07-.687.196.01-.064.02-.128.02-.196a1.33 1.33 0 00-2.544-.552.99.99 0 00-1.283.326 1.004 1.004 0 00-.1.932.998.998 0 00-.74.961.98.98 0 00.074.372 1 1 0 00-.407.221.996.996 0 00-.666-.26.991.991 0 00-.44.106.984.984 0 00-.334-1.266 1 1 0 00-.932-.1.996.996 0 10-1.888.633.994.994 0 00-.406.22.997.997 0 00-1.667.74c0 .118.024.23.061.334h1.334a.998.998 0 01.938-.667z"/></g><path fill="#FFF" d="M2.667 8.667v.666c0 .369.298.667.666.667h17.334a.666.666 0 00.666-.667v-.666H2.667z"/></g></svg>