<svg xmlns="http://www.w3.org/2000/svg" width="16" height="16" viewBox="0 0 16 16">
    <g fill="none" fill-rule="evenodd">
        <path d="M0 0L16 0 16 16 0 16z"/>
        <path fill="#FFF" d="M11.533 4.2c-.26-.26-.68-.26-.94 0l-3.76 3.76.94.94 3.76-3.767c.254-.253.254-.68 0-.933zm2.827-.007L7.773 10.78l-2.32-2.313c-.26-.26-.68-.26-.94 0-.26.26-.26.68 0 .94L7.3 12.193c.26.26.68.26.94 0L15.3 5.14c.26-.26.26-.68 0-.94h-.007c-.253-.267-.673-.267-.933-.007zM.747 9.413L3.533 12.2c.26.26.68.26.94 0l.467-.467-3.253-3.266c-.26-.26-.68-.26-.94 0-.26.26-.26.686 0 .946z"/>
    </g>
</svg>
