<?xml version="1.0" encoding="UTF-8"?>
<svg width="31px" height="29px" viewBox="0 0 31 29" version="1.1" xmlns="http://www.w3.org/2000/svg" xmlns:xlink="http://www.w3.org/1999/xlink">
    <!-- Generator: sketchtool 50.2 (55047) - http://www.bohemiancoding.com/sketch -->
    <title>76A728F4-E672-45A7-A3F8-062E6C6ACD40</title>
    <desc>Created with sketchtool.</desc>
    <defs>
        <path d="M0,0 L36,0 L36,36 L0,36 L0,0 Z M25.3636364,22.0909091 C31.2379378,22.0909091 36,17.3288469 36,11.4545455 C36,5.58024402 31.2379378,0.818181818 25.3636364,0.818181818 C19.4893349,0.818181818 14.7272727,5.58024402 14.7272727,11.4545455 C14.7272727,17.3288469 19.4893349,22.0909091 25.3636364,22.0909091 Z" id="path-1"></path>
    </defs>
    <g id="Portail-pro" stroke="none" stroke-width="1" fill="none" fill-rule="evenodd">
        <g id="Passculture-Pro-menu" transform="translate(-970.000000, -164.000000)">
            <g id="USER-MENU" transform="translate(955.000000, 0.000000)">
                <g id="Stacked-Group" transform="translate(0.000000, 8.000000)">
                    <g id="Group-3-Copy-3" transform="translate(12.000000, 153.000000)">
                        <g id="ICONS/ico-delegation">
                            <rect id="Background" x="0" y="0" width="36" height="36"></rect>
                            <g id="Group">
                                <mask id="mask-2" fill="white">
                                    <use xlink:href="#path-1"></use>
                                </mask>
                                <g id="Combined-Shape"></g>
                                <g id="Group-2" mask="url(#mask-2)" fill="#E60039" fill-rule="nonzero">
                                    <g transform="translate(3.272727, 9.000000)">
                                        <path d="M3.27272727,22.0909091 C2.82085793,22.0909091 2.45454545,21.7245966 2.45454545,21.2727273 L2.45454545,9 C2.45454545,8.54813066 2.82085793,8.18181818 3.27272727,8.18181818 L24.5454545,8.18181818 C24.9973239,8.18181818 25.3636364,8.54813066 25.3636364,9 L25.3636364,21.2727273 C25.3636364,21.7245966 24.9973239,22.0909091 24.5454545,22.0909091 L3.27272727,22.0909091 Z M4.09090909,20.4545455 L23.7272727,20.4545455 L23.7272727,9.81818182 L4.09090909,9.81818182 L4.09090909,20.4545455 Z" id="Stroke-3"></path>
                                        <path d="M16.3636364,21.6818182 C15.911767,21.6818182 15.5454545,21.3155057 15.5454545,20.8636364 L15.5454545,13.0909091 C15.5454545,12.6390398 15.911767,12.2727273 16.3636364,12.2727273 L21.2727273,12.2727273 C21.7245966,12.2727273 22.0909091,12.6390398 22.0909091,13.0909091 L22.0909091,20.8636364 C22.0909091,21.3155057 21.7245966,21.6818182 21.2727273,21.6818182 L16.3636364,21.6818182 Z M20.4545455,20.4545455 L20.4545455,13.9090909 L17.1818182,13.9090909 L17.1818182,20.4545455 L20.4545455,20.4545455 Z" id="Stroke-9-Copy"></path>
                                        <path d="M6.54545455,18 C6.0935852,18 5.72727273,17.6336875 5.72727273,17.1818182 L5.72727273,13.0909091 C5.72727273,12.6390398 6.0935852,12.2727273 6.54545455,12.2727273 L13.0909091,12.2727273 C13.5427784,12.2727273 13.9090909,12.6390398 13.9090909,13.0909091 L13.9090909,17.1818182 C13.9090909,17.6336875 13.5427784,18 13.0909091,18 L6.54545455,18 Z M12.2727273,16.3636364 L12.2727273,13.9090909 L7.36363636,13.9090909 L7.36363636,16.3636364 L12.2727273,16.3636364 Z" id="Stroke-9-Copy-2"></path>
                                        <path d="M0.818181818,9.81818182 C0.366312477,9.81818182 0,9.45186934 0,9 L0,4.90909091 C0,4.45722157 0.366312477,4.09090909 0.818181818,4.09090909 L27,4.09090909 C27.4518693,4.09090909 27.8181818,4.45722157 27.8181818,4.90909091 L27.8181818,9 C27.8181818,9.45186934 27.4518693,9.81818182 27,9.81818182 L0.818181818,9.81818182 Z M1.63636364,8.18181818 L26.1818182,8.18181818 L26.1818182,5.72727273 L1.63636364,5.72727273 L1.63636364,8.18181818 Z" id="Stroke-11"></path>
                                        <path d="M3.27272727,5.72727273 C2.82085793,5.72727273 2.45454545,5.36096025 2.45454545,4.90909091 L2.45454545,0.818181818 C2.45454545,0.366312477 2.82085793,0 3.27272727,0 L24.5454545,0 C24.9973239,0 25.3636364,0.366312477 25.3636364,0.818181818 L25.3636364,4.90909091 C25.3636364,5.36096025 24.9973239,5.72727273 24.5454545,5.72727273 L3.27272727,5.72727273 Z M4.09090909,4.09090909 L23.7272727,4.09090909 L23.7272727,1.63636364 L4.09090909,1.63636364 L4.09090909,4.09090909 Z" id="Stroke-12"></path>
                                    </g>
                                </g>
                                <g id="user-copy" transform="translate(17.181818, 3.272727)">
                                    <path d="M8.18181818,16.3636364 C3.66312477,16.3636364 0,12.7005116 0,8.18181818 C0,3.66312477 3.66312477,0 8.18181818,0 C12.7005116,0 16.3636364,3.66312477 16.3636364,8.18181818 C16.3636364,12.7005116 12.7005116,16.3636364 8.18181818,16.3636364 Z M8.18181818,14.7272727 C11.7967729,14.7272727 14.7272727,11.7967729 14.7272727,8.18181818 C14.7272727,4.56686346 11.7967729,1.63636364 8.18181818,1.63636364 C4.56686346,1.63636364 1.63636364,4.56686346 1.63636364,8.18181818 C1.63636364,11.7967729 4.56686346,14.7272727 8.18181818,14.7272727 Z" id="Oval-3" fill="#E60039" fill-rule="nonzero"></path>
                                    <path d="M10.8141398,6.2957497 C10.8175475,4.28040142 9.96737968,3.27272727 8.26363636,3.27272727 C6.55989305,3.27272727 5.70893101,4.28040142 5.71075025,6.2957497 C5.71075025,6.2957497 5.31818182,6.35708996 5.31818182,6.6153549 C5.4957536,7.64903802 5.67489566,8.16587957 5.855608,8.16587957 C5.855608,8.54442149 6.97658714,10.6363636 8.33291106,10.6363636 C9.68903869,10.6363636 10.7513289,8.54442149 10.7513289,8.16587957 C10.9320412,8.16587957 11.0838343,7.69834711 11.2067082,6.76328217 C11.2067082,6.50501724 11.2642195,6.2957497 10.8141398,6.2957497 Z" id="Stroke-1" stroke="#E60039" stroke-width="2" stroke-linecap="round" stroke-linejoin="round"></path>
                                    <g id="epaules" transform="translate(2.454545, 10.636364)" stroke="#E60039" stroke-linecap="round" stroke-linejoin="round" stroke-width="2">
                                        <path d="M11.2401518,2.56311165 C10.9142685,1.89144211 10.115184,1.61157025 9.00990334,1.61157025 L8.21993469,1.50191337 C7.47979014,1.50191337 7.10971787,1.00127558 7.10971787,0" id="Stroke-9"></path>
                                        <path d="M4.29249216,2.49068919 C3.94531343,1.87126271 3.1647435,1.61157025 2.10005485,1.61157025 L1.31008619,1.50191337 C0.569941645,1.50191337 0.199869371,1.00127558 0.199869371,0" id="Stroke-9" transform="translate(2.246181, 1.245345) scale(-1, 1) translate(-2.246181, -1.245345) "></path>
                                    </g>
                                </g>
                            </g>
                        </g>
                    </g>
                </g>
            </g>
        </g>
    </g>
</svg>