<svg xmlns="http://www.w3.org/2000/svg" width="48" height="48" viewBox="0 0 48 48"><defs><linearGradient id="a" x1="7.769%" x2="92.231%" y1="0%" y2="100%"><stop offset="0%" stop-color="#EB0055"/><stop offset="100%" stop-color="#320096"/></linearGradient></defs><path fill="url(#a)" fill-rule="evenodd" d="M37.215 35.258a.75.75 0 01.101 1.493l-.101.007H35.47v1.832c0 .38-.281.694-.648.743l-.101.007a.75.75 0 01-.743-.648l-.007-.102v-3.332h3.244zM24.379 21.06a2.311 2.311 0 011.942 3.569l6.327 8.048h1.963a.75.75 0 01.102 1.493l-.102.007h-1.744v1.832a.75.75 0 01-.648.743l-.102.007a.75.75 0 01-.743-.648l-.007-.102v-2.534l-6.226-7.919c-.19.067-.393.109-.603.123l-.159.005a2.313 2.313 0 110-4.624zm0-11.059c7.388 0 13.38 5.99 13.38 13.379 0 2.373-.62 4.658-1.781 6.672a.749.749 0 11-1.3-.748 11.826 11.826 0 001.58-5.924c0-6.56-5.32-11.879-11.879-11.879-6.56 0-11.879 5.319-11.879 11.879s5.318 11.879 11.88 11.879c1.21 0 2.397-.181 3.533-.533a.748.748 0 01.938.494.748.748 0 01-.494.938 13.4 13.4 0 01-3.978.601C16.989 36.759 11 30.769 11 23.38 11 15.99 16.99 10 24.38 10zm7.954 13.025a7.93 7.93 0 01-.61 3.433.75.75 0 11-1.382-.58 6.462 6.462 0 10-12.418-2.212 6.461 6.461 0 007.634 6.069.75.75 0 11.27 1.475 7.962 7.962 0 11-1.803-15.785 7.962 7.962 0 018.31 7.6z"/></svg>