<svg xmlns="http://www.w3.org/2000/svg" width="32" height="32" viewBox="0 0 32 32">
    <g fill="none" fill-rule="evenodd">
        <g fill="#151515">
            <g>
                <path d="M24.5 8.666c.975 0 1.772.762 1.83 1.722l.003.112v12c0 1.012-.82 1.833-1.833 1.833-.276 0-.5-.224-.5-.5 0-.253.188-.462.432-.495l.068-.005c.431 0 .786-.328.83-.748l.003-.085v-12c0-.431-.328-.787-.748-.83l-.085-.004h-16c-.431 0-.786.328-.829.749l-.004.085v12c0 .431.328.786.748.829l.085.004h11.688c.276 0 .5.224.5.5 0 .253-.188.462-.432.496l-.068.004H8.5c-.975 0-1.772-.761-1.83-1.722l-.003-.111v-12c0-.975.76-1.773 1.721-1.83l.112-.004h16zm-.792 2.932c.153.199.133.476-.036.652l-.055.05-5.575 4.301c-.89.686-2.07.723-2.99.106l-.118-.085-5.748-4.319c-.22-.166-.265-.48-.1-.7.151-.2.424-.256.638-.14l.063.04 5.748 4.32c.542.407 1.237.426 1.793.06l.103-.073 5.575-4.302c.219-.17.533-.129.702.09z" transform="translate(-756 -860) translate(756 860)"/>
            </g>
        </g>
    </g>
</svg>
