<svg xmlns="http://www.w3.org/2000/svg" width="44" height="44" viewBox="0 0 44 44"><path fill="#FFF" fill-rule="evenodd" d="M12.519 34.89A15.928 15.928 0 0022 38a15.94 15.94 0 009.51-3.131 13.233 13.233 0 00-1-.036l-.145-.01-1.932-.285c-2.303-.035-3.558-1.648-3.716-4.423-.884.547-1.81.885-2.713.885-.81 0-1.65-.275-2.463-.73-.196 2.68-1.447 4.233-3.707 4.268l-1.931.285-.146.01c-.443 0-.856.019-1.238.057zm-1.914-1.658c.89-.26 1.921-.393 3.077-.398l1.929-.285.146-.01c1.228 0 1.81-.838 1.81-3.039 0-.205.062-.395.168-.554-1.754-1.593-3.145-3.783-3.478-5.338-.698-.635-1.09-2.177-1.544-4.912l-.013-.163c0-.77.451-1.304 1.092-1.626.2-5.801 2.931-8.907 8.022-8.907 5.048 0 7.774 3.055 8.009 8.765.34.12.611.32.812.619.275.41.304.688.289 1.373a7.997 7.997 0 00-.003.198l-.008.125c-.317 2.494-.644 3.94-1.321 4.542-.312 1.512-1.568 3.596-3.192 5.164.185.181.3.434.3.714 0 2.201.583 3.038 1.81 3.038l.147.011 1.928.285c1.067.005 2.026.117 2.868.34A15.948 15.948 0 0038 22c0-8.837-7.163-16-16-16S6 13.163 6 22c0 4.377 1.757 8.343 4.605 11.232zM22 40c-9.941 0-18-8.059-18-18S12.059 4 22 4s18 8.059 18 18-8.059 18-18 18zm6.84-21.379a1 1 0 01-1-1.001c.008-5.235-1.936-7.62-6.026-7.62-4.091 0-6.037 2.386-6.033 7.62a1 1 0 01-.84.988 1.08 1.08 0 00-.203.064c.22 1.274.437 2.232.647 2.86.077.228.148.4.207.511a1 1 0 01.588.912c0 .354.815 2.02 1.807 3.321C19.29 27.988 20.722 29 22.004 29c1.276 0 2.67-1.004 3.927-2.711.956-1.297 1.735-2.963 1.735-3.334a1 1 0 01.587-.911c.042-.089.093-.22.146-.389.185-.59.362-1.517.522-2.766l.003-.177.002-.09h-.087z"/></svg>