<?xml version="1.0" encoding="UTF-8"?>
<svg width="28px" height="28px" viewBox="0 0 28 28" version="1.1" xmlns="http://www.w3.org/2000/svg" xmlns:xlink="http://www.w3.org/1999/xlink">
    <!-- Generator: sketchtool 55.2 (78181) - https://sketchapp.com -->
    <title>2783AED8-9A6B-4A58-9DD6-65E7BD7BCBB4</title>
    <desc>Created with sketchtool.</desc>
    <g id="Menu-et-rubriques" stroke="none" stroke-width="1" fill="none" fill-rule="evenodd">
        <g id="PassCulture-v0rc3-mespreferes" transform="translate(-278.000000, -76.000000)">
            <g id="Group-2" transform="translate(278.000000, 76.000000)">
                <g id="ICONS/ico-edit-w">
                    <rect id="crop" x="0" y="0" width="28" height="28"></rect>
                    <path d="M9.83349331,18.3696888 L9.32379029,21.1616113 L11.4868145,19.3242342 L19.2496249,5.8786515 C19.1357511,5.60322423 18.9132318,5.3689211 18.5595858,5.16474346 C18.2059398,4.96056583 17.8917677,4.88501002 17.5963037,4.92410602 L9.83349331,18.3696888 Z M16.9826409,3.76489907 C17.7046172,3.5269709 18.4557896,3.63519764 19.1959497,4.06252926 C19.9361098,4.48986089 20.4054231,5.08628191 20.5603594,5.83049574 C20.5922242,5.98355363 20.5666307,6.14298565 20.4884608,6.27837975 L12.5339153,20.0560565 C12.4974445,20.1192257 12.4503849,20.1756545 12.3947927,20.2228772 L8.78975228,23.2851721 C8.33403149,23.6722833 7.64436328,23.2741032 7.751751,22.6858818 L8.60125605,18.0326778 C8.614356,17.9609223 8.63969496,17.891953 8.67616573,17.8287838 L16.6307113,4.05110705 C16.7088811,3.91571295 16.8341565,3.81383229 16.9826409,3.76489907 Z" id="Rectangle-10" fill="#FFFFFF" fill-rule="nonzero"></path>
                </g>
            </g>
        </g>
    </g>
</svg>