<svg xmlns="http://www.w3.org/2000/svg" width="48" height="48" viewBox="0 0 48 48"><defs><linearGradient id="a" x1="10.742%" x2="89.258%" y1="0%" y2="100%"><stop offset="0%" stop-color="#EB0055"/><stop offset="100%" stop-color="#320096"/></linearGradient></defs><path fill="url(#a)" fill-rule="evenodd" d="M15.363 9.54l.056.085 1.394 2.412 11.695 1.217c.205.021.39.126.515.287l.057.084 7.73 13.41a2.75 2.75 0 01-1.004 3.754.75.75 0 01-.837-1.241l.085-.057a1.25 1.25 0 00.518-1.585l-.062-.121-7.539-13.08-10.232-1.065 1.55 2.685c.022.037.04.076.055.115a2.5 2.5 0 11.766 4.88 2.5 2.5 0 01-1.959-4.053.705.705 0 01-.104-.107l-.056-.085-1.399-2.42-3.962 8.92 7.539 13.05c.323.556 1.01.77 1.586.516l.122-.061 7.75-4.45a.749.749 0 01.831 1.244l-.085.056-7.748 4.45a2.752 2.752 0 01-3.659-.851l-.095-.154-7.73-13.38a.751.751 0 01-.076-.567l.04-.112 4.56-10.267-1.544-2.674a.75.75 0 011.242-.834zm4.747 8.28a1 1 0 100 2 1 1 0 000-2z"/></svg>