<svg xmlns="http://www.w3.org/2000/svg" width="24" height="24" viewBox="0 0 24 24"><g fill="none"><path fill="#1B0742" d="M10 20.667c0 1.472-.527 2.666-2 2.666H3.333C.667 23.333.667 14 3.333 14H8c1.473 0 2 1.194 2 2.667v4z"/><path fill="#320096" d="M22.667 22H22v-6.667h.667a.666.666 0 100-1.333h-16C4 14 4 23.333 6.667 23.333h16a.666.666 0 100-1.333z"/><path fill="#CCD6DD" d="M22.781 22H7.333C6 22 6 15.333 7.333 15.333h15.448c.736 0 .736 6.667 0 6.667z"/><path fill="#99AAB5" d="M7.667 16.667h15.566c-.09-.784-.24-1.334-.452-1.334H7.333c-1.1 0-1.292 4.539-.575 6.126-.261-1.973.041-4.792.909-4.792z"/><path fill="#083B87" d="M8 5.333A2.667 2.667 0 015.333 8H2.667C0 8 0 .667 2.667.667h2.666A2.666 2.666 0 018 3.333v2z"/><path fill="#06F" d="M20.667 6.667H20V2h.667a.666.666 0 100-1.333h-16C2 .667 2 8 4.667 8h16a.666.666 0 100-1.333z"/><path fill="#CCD6DD" d="M20.781 6.667H5.333C4 6.667 4 2 5.333 2h15.448c.736 0 .736 4.667 0 4.667z"/><path fill="#99AAB5" d="M5.333 3.333h15.95C21.207 2.583 21.041 2 20.781 2H5.333c-.795 0-1.112 1.66-.958 3 .104-.905.42-1.667.958-1.667z"/><path fill="#AA033F" d="M13.333 11.333A2.667 2.667 0 0110.667 14H4c-2.667 0-2.667-6 0-6h6.667a2.667 2.667 0 012.666 2.667v.666z"/><path fill="#EB0055" d="M23.333 12.667h-.666V9.333h.666a.666.666 0 100-1.333H10c-2.667 0-2.667 6 0 6h13.333a.666.666 0 100-1.333z"/><path fill="#CCD6DD" d="M23.448 12.667H10.667c-1.334 0-1.334-3.334 0-3.334h12.781c.736 0 .736 3.334 0 3.334z"/><path fill="#99AAB5" d="M10.667 10.667h13.322c-.043-.708-.222-1.334-.541-1.334H10.667c-.85 0-1.156 1.352-.922 2.334.132-.56.438-1 .922-1z"/></g></svg>