<svg xmlns="http://www.w3.org/2000/svg" width="25" height="24" viewBox="0 0 25 24">
    <path fill="#EB0055" fill-rule="evenodd" d="M12.098 8.25c.3.004.45.155.45.455 0 .299-.15.45-.45.454H7.15v8.182h8.096v-5c0-.303.15-.455.45-.455.3 0 .45.152.45.455v5.454c0 .251-.202.455-.45.455H6.7c-.249 0-.45-.204-.45-.455v-9.09c0-.251.201-.455.45-.455h5.398zM15.2 5.251l.082.002 2.98.343c.212.025.378.192.403.405l.341 2.993c.03.253-.15.48-.402.51-.25.028-.477-.153-.506-.405l-.239-2.088-5.862 5.89c-.178.18-.468.18-.646 0-.179-.179-.179-.47 0-.65l5.827-5.855-2-.23c-.223-.026-.39-.209-.404-.426l.002-.083c.029-.252.256-.433.506-.404z"/>
</svg>
