<?xml version="1.0" encoding="UTF-8"?>
<svg width="34px" height="31px" viewBox="0 0 34 31" version="1.1" xmlns="http://www.w3.org/2000/svg" xmlns:xlink="http://www.w3.org/1999/xlink">
    <!-- Generator: sketchtool 49.1 (51147) - http://www.bohemiancoding.com/sketch -->
    <title>71F59E64-64DD-470E-BA17-0F487E9C3CCB</title>
    <desc>Created with sketchtool.</desc>
    <defs></defs>
    <g id="Écrans" stroke="none" stroke-width="1" fill="none" fill-rule="evenodd">
        <g id="PassCulture-v0rc-HP-c1-detail" transform="translate(-97.000000, -351.000000)">
            <g id="Content" transform="translate(0.000000, 176.000000)">
                <g id="Group-5">
                    <g id="Actions" transform="translate(0.000000, 160.000000)">
                        <g id="Stacked-Group" transform="translate(12.000000, 8.000000)">
                            <g id="ICONS/ico-like-w" transform="translate(80.000000, 0.000000)">
                                <rect id="crop" x="0" y="0" width="44" height="44"></rect>
                                <path d="M33.9310345,24.4710344 C35.1264364,23.3216088 36.0689655,22.1032187 36.7586207,20.815862 C37.5862069,19.2986207 38,17.8733329 38,16.54 C38,14.011264 37.2988502,12.0457467 35.8965517,10.6434482 C34.4942532,9.24114974 32.528736,8.53999996 30,8.53999996 C28.528736,8.53999996 26.9655172,9.11471225 25.3103448,10.2641379 C24.3908049,10.9078157 23.3563222,11.8043674 22.2068966,12.9537931 L22,13.1606896 C20.6206897,11.7813793 19.4252877,10.7468965 18.4137931,10.0572413 C16.8505744,9.04574674 15.3793103,8.53999996 14,8.53999996 C11.471264,8.53999996 9.50574678,9.24114974 8.10344828,10.6434482 C6.70114978,12.0457467 6,14.011264 6,16.54 C6,17.8733329 6.4137931,19.3216088 7.24137931,20.8848275 C7.97701185,22.2181605 8.89655172,23.3905743 10,24.4020689 L21.7931034,36.0572413 C21.9310345,36.1951724 22.0689655,36.1951724 22.2068966,36.0572413 L33.9310345,24.4710344 Z" id="heart" stroke="#FFFFFF" stroke-width="2"></path>
                            </g>
                        </g>
                    </g>
                </g>
            </g>
        </g>
    </g>
</svg>