<svg viewBox="0 0 100 100" xmlns="http://www.w3.org/2000/svg"><path d="M19.224 63.883h8.821V38.091h-8.821v25.792zm45.705-36.225h-8.821v10.671c3.108-.487 5.991-.767 8.821-.839v-9.832zM43.813 63.883h4.727V39.788c1.423-.317 2.777-.595 4.094-.849V24.072h-8.821v39.811zm-12.295 0h8.821V28.262h-8.821v35.621zm21.116-20.541v31.132c11.075 1.953 17.567 1.921 28.142 0V43.342c-10.469-2.552-17.152-2.451-28.142 0zm4.103 3.164c7.7-1.197 12.092-1.119 19.936 0v5.391H56.737v-5.391zm5.289 24.617a81.221 81.221 0 01-5.373-.585v-3.917h5.373v4.502zm0-6.171h-5.373v-4.877h5.373v4.877zm0-6.289h-5.373v-4.877h5.373v4.877zm7.366 12.589c-1.79.082-3.561.084-5.374.002v-4.633h5.374v4.631zm0-6.3h-5.374v-4.877h5.374v4.877zm0-6.289h-5.374v-4.877h5.374v4.877zm7.366 11.857c-1.887.28-3.648.468-5.373.602v-4.501h5.373v3.899zm0-5.568h-5.373v-4.877h5.373v4.877zm0-6.289h-5.373v-4.877h5.373v4.877z" fill="#fff"/></svg>