<svg width="34" height="34" viewBox="0 0 34 34" xmlns="http://www.w3.org/2000/svg"><g fill="none" fill-rule="evenodd"><path d="M-5-7h44v47H-5z"/><path d="M1.87 32.523V31.1c0-3.574 2.641-5.301 6.43-5.301h3.056l1.38-3.246m19.321 9.97V31.1c0-3.574-3.039-5.301-6.748-5.301h-3.014l-1.106-3.246M24.14 10.22c.009-6.139-2.333-9.209-7.026-9.209-4.694 0-7.038 3.07-7.033 9.21 0 0-1.081.186-1.081.973.49 3.149.983 4.723 1.48 4.723 0 1.154 3.088 7.526 6.824 7.526 3.736 0 6.662-6.372 6.662-7.526.498 0 .916-1.424 1.255-4.272 0-.787.158-1.425-1.082-1.425z" stroke="#FFF" stroke-linecap="round" stroke-linejoin="round" stroke-width="2"/></g></svg>