<svg xmlns="http://www.w3.org/2000/svg" width="24" height="24" viewBox="0 0 24 24"><g fill="none"><path fill="#8899A6" d="M16.107 5.777l-.45-1.356a.376.376 0 00-.521-.183c-.612.325-1.963.879-2.456 1.05.946.337 2.333 1.002 3.007.93.256-.026.525-.205.42-.44zm6.807 16.383c-.266.15-4.34 1.128-12.414-5.937C8.055 14.083.8 7.586.894 7.365c0 0-.22.24-.401.49-.132.181-.213.373-.183.566.207 1.311 2.075 2.546 4.641 4.52l.366.282.242.186c.392.301 1.544 1.21 2.886 2.268 1.836 1.448 5.523 4.327 5.63 4.407 1.414 1.05 3.09 1.878 5.112 2.448 2.558.72 3.727-.372 3.727-.372z"/><path fill="#06F" d="M22.914 22.16s.318-.146.647-.612c.328-.466.526-1.283.03-2.165-.497-.882-2.304-3.414-2.897-4.448-.289-.503-.198-.964-.75-1.89 0 0-2.11-3.682-2.576-4.482-.998-1.711-.56-2.601-1.225-3.112-.443-.34-4.87.111-6.218-.926C8.994 3.81 8.98 1.573 8.59.841 8.28.258 7.243.525 6.532.915c-.711.39-2.649 2.526-3.117 3.134-.468.609-1.067 1.273-1.119 1.952l-.053.679s10.574 10.1 13.584 12.137c5.131 3.474 7.087 3.343 7.087 3.343z"/><path fill="#023179" d="M16.493 5.976a1.014 1.014 0 00-.35-.525c-.443-.341-4.87.111-6.218-.926C8.994 3.809 8.98 1.572 8.59.84 8.469.613 8.235.517 7.955.506c.46.933.414 3.716 1.542 4.583 1.358 1.046 5.344.755 6.996.887z"/><path fill="#0C4AA6" d="M8.843 10.915c.337-.981.696-3.276.05-4.641-.606-1.278-2.961-3.97-3.408-4.48-.827.737-1.932 2.025-2.265 2.459-.44.572-.97 1.214-.996 1.867-.01.235.058.34.058.34s6.548 4.494 6.561 4.455z"/><path fill="#CCD6DD" d="M15.405 8.504a.56.56 0 01-.204-1.08l1.215-.477a.56.56 0 01.409 1.042l-1.216.476a.548.548 0 01-.204.039zm.898 2.042a.56.56 0 01-.28-1.044l1.196-.687a.558.558 0 01.557.969l-1.195.687a.545.545 0 01-.278.075zm1.214 1.835a.56.56 0 01-.335-1.008l1.01-.752a.56.56 0 01.667.896l-1.009.752a.55.55 0 01-.333.112zm1.296 1.714a.56.56 0 01-.355-.992l.77-.632a.56.56 0 01.711.864l-.77.632a.557.557 0 01-.356.128zM2.133 6.173s.45.408.95.484c.5.076 1.386.634 1.996 1.102.609.469 2.932 2.195 4.356 3.63 1.423 1.434 3.663 4.386 4.534 5.242.87.854 2.275 2.128 3.476 2.898 1.2.769 2.303 1.42 3.01 1.79.912.478 1.755.763 2.459.841-.245.144-1.542.63-3.793-.137-2.152-.734-3.555-1.529-4.714-2.39-1.16-.862-7.472-5.872-8.506-6.668-1.034-.795-4.126-3.152-4.614-3.858C.594 8.105.627 7.666.762 7.491c.328-.427 1.02-1.588 1.371-1.318z"/><path fill="#0C4AA6" d="M23.59 19.383c-.496-.882-2.303-3.414-2.896-4.448-.116-.202-.171-.399-.231-.62-.061.022-.126.036-.18.072-.769.528-.765 2.124.381 3.792.919 1.337 2.393 2.368 3.221 2.384a2.156 2.156 0 00-.294-1.18z"/></g></svg>