<svg width="31" height="29" viewBox="0 0 31 29" xmlns="http://www.w3.org/2000/svg" xmlns:xlink="http://www.w3.org/1999/xlink"><defs><path d="M0 0h36v36H0V0zm25.364 22.09C31.238 22.09 36 17.33 36 11.456 36 5.58 31.238.818 25.364.818c-5.875 0-10.637 4.762-10.637 10.637 0 5.874 4.762 10.636 10.637 10.636z" id="a"/></defs><g fill="none"><path d="M-3-3h36v36H-3z"/><g transform="translate(-3 -3)"><mask id="b" fill="#fff"><use xlink:href="#a"/></mask><g mask="url(#b)" fill="#E60039"><path d="M6.545 31.09a.818.818 0 01-.818-.817V18c0-.452.367-.818.818-.818h21.273c.452 0 .818.366.818.818v12.273a.818.818 0 01-.818.818H6.545zm.819-1.635H27V18.818H7.364v10.637z"/><path d="M19.636 30.682a.818.818 0 01-.818-.818V22.09c0-.452.366-.818.818-.818h4.91c.451 0 .818.366.818.818v7.773a.818.818 0 01-.819.818h-4.909zm4.091-1.227v-6.546h-3.272v6.546h3.272zM9.818 27A.818.818 0 019 26.182V22.09c0-.452.366-.818.818-.818h6.546c.452 0 .818.366.818.818v4.09a.818.818 0 01-.818.819H9.818zm5.727-1.636v-2.455h-4.909v2.455h4.91zM4.09 18.818A.818.818 0 013.274 18v-4.09c0-.453.366-.82.818-.82h26.182c.452 0 .818.367.818.82V18a.818.818 0 01-.818.818H4.09zm.82-1.636h24.545v-2.455H4.909v2.455z"/><path d="M6.545 14.727a.818.818 0 01-.818-.818V9.82c0-.453.367-.819.818-.819h21.273c.452 0 .818.366.818.818v4.091a.818.818 0 01-.818.818H6.545zm.819-1.636H27v-2.455H7.364v2.455z"/></g><path d="M25.364 19.636a8.182 8.182 0 110-16.363 8.182 8.182 0 010 16.363zm0-1.636a6.545 6.545 0 100-13.09 6.545 6.545 0 000 13.09z" fill="#E60039"/><path d="M27.996 9.568c.003-2.015-.847-3.023-2.55-3.023-1.704 0-2.555 1.008-2.553 3.023 0 0-.393.062-.393.32.178 1.034.357 1.55.537 1.55 0 .38 1.121 2.471 2.478 2.471 1.356 0 2.418-2.092 2.418-2.47.18 0 .333-.468.456-1.403 0-.258.057-.468-.393-.468zm2.881 6.904c-.326-.671-1.125-.951-2.23-.951l-.79-.11c-.74 0-1.11-.5-1.11-1.502M19.836 16.4c.347-.62 1.128-.88 2.193-.88l.79-.109c.74 0 1.11-.5 1.11-1.502" stroke="#E60039" stroke-width="2" stroke-linecap="round" stroke-linejoin="round"/></g></g></svg>