<svg xmlns="http://www.w3.org/2000/svg" width="24" height="24" viewBox="0 0 24 24"><g fill="none"><path fill="#320096" d="M21.343 15.959c-.402-4.412-2.62-6.626-2.62-6.626L14.688 4H9.31L5.278 9.333s-.954.956-1.726 2.85c-1.337.44-2.308 1.676-2.308 3.15.002.927.394 1.81 1.082 2.437a3.284 3.284 0 00-.41 1.563c0 1.306.764 2.424 1.866 2.971C4.645 23.585 5.797 24 6.622 24h10.756c.927 0 2.267-.52 3.144-2.207 1.298-.46 2.234-1.68 2.234-3.126a3.317 3.317 0 00-1.413-2.708zM12 4c.37 0 .711-.105 1.008-.277.298.172.64.277 1.009.277 1.114 0 2.689-1.563 2.689-2.667 0 0 0-1.333-1.345-1.333-.53 0-.672.667-1.344.667C13.344.667 13.344 0 12 0c-1.344 0-1.344.667-2.017.667C9.311.667 9.17 0 8.64 0 7.294 0 7.294 1.333 7.294 1.333 7.294 2.437 8.87 4 9.984 4c.368 0 .71-.105 1.008-.277.297.172.639.277 1.008.277z"/><path fill="#EB0055" d="M16.033 4a.67.67 0 01-.672.667H8.64A.67.67 0 017.968 4c0-.368.3-.667.672-.667h6.722a.67.67 0 01.672.667z"/><path fill="#FFF" d="M12.355 20c.922 0 1.681-.214 2.28-.642.597-.429.96-1.01 1.088-1.746.01-.056.002-.1-.022-.133-.025-.033-.067-.053-.125-.063l-1.692-.293c-.107-.019-.176.028-.206.14-.058.316-.205.57-.44.76-.236.192-.53.287-.883.287-.402 0-.726-.123-.97-.37-.246-.247-.368-.57-.368-.97v-.587c0-.047.024-.07.073-.07h2.162c.098 0 .162-.047.191-.14l.22-.698c.02-.056.015-.103-.014-.14-.03-.037-.073-.056-.132-.056H11.09c-.049 0-.073-.023-.073-.07v-.432c0-.047.024-.07.073-.07h2.662c.098 0 .162-.047.191-.14l.22-.698c.02-.056.015-.103-.014-.14-.03-.037-.073-.056-.132-.056H11.09c-.049 0-.073-.023-.073-.07v-.558c0-.4.122-.727.367-.978s.569-.377.97-.377c.354 0 .646.088.876.265.23.177.375.42.434.727.03.102.088.153.176.153h.03l1.72-.21c.108-.018.162-.07.162-.153v-.028c-.118-.754-.48-1.35-1.088-1.788-.608-.437-1.378-.656-2.31-.656-.685 0-1.286.126-1.8.377a2.758 2.758 0 00-1.192 1.082c-.28.47-.419 1.018-.419 1.642v.502c0 .047-.024.07-.073.07h-.942a.171.171 0 00-.125.05.155.155 0 00-.051.118v.698c0 .047.017.086.051.119a.179.179 0 00.125.049h.942c.049 0 .073.023.073.07v.432c0 .047-.024.07-.073.07h-.942a.175.175 0 00-.125.05.155.155 0 00-.051.118v.698c0 .047.017.086.051.119a.174.174 0 00.125.049h.942c.049 0 .073.023.073.07v.502c0 .624.142 1.171.427 1.642.284.47.683.833 1.198 1.089.515.256 1.11.384 1.787.384z"/></g></svg>