<svg xmlns="http://www.w3.org/2000/svg" width="48" height="48" viewBox="0 0 48 48"><defs><linearGradient id="a" x1="18.271%" x2="81.729%" y1="0%" y2="100%"><stop offset="0%" stop-color="#EB0055"/><stop offset="100%" stop-color="#320096"/></linearGradient></defs><path fill="url(#a)" fill-rule="evenodd" d="M28.262 9.25a2.751 2.751 0 012.745 2.583l.005.167v23.726c0 .83.68 1.537 1.44 1.51 1.108-.038 1.727-.552 1.792-1.354l.006-.144V23.819a.75.75 0 011.493-.102l.007.102v11.919c0 1.425-.879 2.485-2.27 2.857l-.037.008-.064.045a.753.753 0 01-.277.095L33 38.75H15a2.751 2.751 0 01-2.745-2.583L12.25 36V12a2.751 2.751 0 012.583-2.745L15 9.25h13.262zm0 1.5H15a1.25 1.25 0 00-1.244 1.122L13.75 12v24c0 .647.492 1.18 1.122 1.244l.128.006h14.923l-.026-.045a3.035 3.035 0 01-.38-1.303l-.005-.176V12a1.25 1.25 0 00-1.122-1.244l-.128-.006zM25.5 25.067a.75.75 0 01.102 1.494l-.102.006h-8a.75.75 0 01-.102-1.493l.102-.007h8zm0-4.47a.75.75 0 01.102 1.494l-.102.007h-8a.75.75 0 01-.102-1.493l.102-.007h8zm0-4.47a.75.75 0 01.102 1.494l-.102.007h-8a.75.75 0 01-.102-1.493l.102-.007h8z" opacity=".9"/></svg>