<svg width="30" height="30" viewBox="0 0 30 30" xmlns="http://www.w3.org/2000/svg"><g fill="none"><path d="M-3-3h36v35.809H-3z"/><path d="M7.243 25.394A13.079 13.079 0 0015 27.926c2.914 0 5.605-.947 7.78-2.549a11.065 11.065 0 00-.817-.029l-.119-.008-1.58-.232c-1.885-.029-2.912-1.341-3.041-3.6-.723.446-1.481.72-2.22.72-.663 0-1.35-.223-2.015-.594-.16 2.182-1.183 3.446-3.033 3.474l-1.58.232-.12.008c-.362 0-.7.016-1.012.046zm-1.566-1.35c.729-.211 1.572-.319 2.518-.323l1.578-.232.119-.008c1.005 0 1.481-.682 1.481-2.473 0-.167.05-.322.137-.45-1.435-1.297-2.573-3.08-2.845-4.345-.572-.517-.892-1.772-1.263-3.997l-.011-.134c0-.626.369-1.06.893-1.322.164-4.722 2.399-7.25 6.564-7.25 4.13 0 6.36 2.487 6.552 7.133.278.098.5.26.665.504.225.334.25.56.236 1.118a6.473 6.473 0 00-.002.16l-.007.103c-.259 2.03-.526 3.206-1.08 3.696-.256 1.23-1.284 2.927-2.612 4.203a.81.81 0 01.245.581c0 1.791.477 2.473 1.482 2.473l.12.008 1.577.232c.873.004 1.658.096 2.346.276a12.943 12.943 0 003.72-9.093c0-7.191-5.86-13.021-13.09-13.021-7.23 0-13.09 5.83-13.09 13.021a12.94 12.94 0 003.767 9.14zM15 29.555c-8.134 0-14.727-6.56-14.727-14.65S6.866.255 15 .255s14.727 6.559 14.727 14.65c0 8.09-6.593 14.648-14.727 14.648zm5.596-17.4a.816.816 0 01-.818-.815c.007-4.26-1.584-6.2-4.93-6.2-3.347 0-4.94 1.941-4.936 6.201 0 .4-.29.74-.687.804a.849.849 0 00-.167.052c.18 1.037.358 1.816.53 2.327.062.186.121.326.17.416a.814.814 0 01.48.742c0 .288.667 1.644 1.479 2.703 1.067 1.394 2.237 2.217 3.287 2.217 1.043 0 2.183-.817 3.212-2.206.782-1.056 1.42-2.412 1.42-2.714 0-.33.197-.613.48-.741.035-.072.076-.179.12-.316.15-.48.295-1.235.427-2.252 0-.04 0-.08.002-.144l.002-.072a2.17 2.17 0 00-.071-.002z" fill="#EB0055"/></g></svg>