<?xml version="1.0" encoding="UTF-8"?>
<svg width="28px" height="26px" viewBox="0 0 28 26" version="1.1" xmlns="http://www.w3.org/2000/svg" xmlns:xlink="http://www.w3.org/1999/xlink">
    <!-- Generator: sketchtool 50.2 (55047) - http://www.bohemiancoding.com/sketch -->
    <title>51CCE4EE-87FC-4D2A-9634-92FC9D9511A4</title>
    <desc>Created with sketchtool.</desc>
    <defs></defs>
    <g id="Portail-pro" stroke="none" stroke-width="1" fill="none" fill-rule="evenodd">
        <g id="Passculture-Pro-menu" transform="translate(-971.000000, -70.000000)">
            <g id="USER-MENU" transform="translate(955.000000, 0.000000)">
                <g id="Stacked-Group" transform="translate(0.000000, 8.000000)">
                    <g id="Group-3" transform="translate(12.000000, 57.000000)">
                        <g id="ICONS/ico-user">
                            <rect id="Background" x="0" y="0" width="36" height="35.8085106"></rect>
                            <g id="ICONS/ico-user-w">
                                <rect id="crop" x="0" y="0" width="36" height="35.8085106"></rect>
                                <g id="user" transform="translate(4.090909, 4.882979)" fill="#E60039" fill-rule="nonzero">
                                    <path d="M10.0873232,16.8898702 C8.9312389,15.6735522 8.05422344,14.1992014 7.81917473,13.1093022 C7.24793746,12.5925998 6.92770885,11.3372489 6.55649047,9.11193931 L6.54545455,8.97872263 C6.54545455,8.35214883 6.91445511,7.91778697 7.4387605,7.65581836 C7.60299783,2.9345456 9.83738276,0.406914894 14.0020661,0.406914894 C18.1327505,0.406914894 20.3629179,2.89348904 20.5550009,7.53976786 C20.8328253,7.63716466 21.0551118,7.7998477 21.219601,8.04366676 C21.4448541,8.37755489 21.4686326,8.60381241 21.4557778,9.16161687 C21.4538614,9.24621906 21.4533076,9.27906575 21.4533076,9.32205029 L21.4467956,9.42452514 C21.187856,11.4537398 20.9204571,12.6305377 20.3657821,13.1206984 C20.1244219,14.2848539 19.191464,15.8658091 17.9665189,17.1132404 C18.0248993,17.1832384 18.0723868,17.264237 18.1054569,17.3546016 L18.8144551,19.291953 L20.7073317,19.291953 C24.4004931,19.291953 27.0464015,21.0617141 27.0464015,24.1450244 L27.0464015,25.2287234 C27.0464015,25.6781892 26.680089,26.0425532 26.2282197,26.0425532 C25.7763504,26.0425532 25.4100379,25.6781892 25.4100379,25.2287234 L25.4100379,24.1450244 C25.4100379,22.1287561 23.6022894,20.9196126 20.7073317,20.9196126 L18.2415826,20.9196126 C17.8976324,20.9196126 17.5904055,20.7056434 17.4727545,20.3841599 L16.6768912,18.2094477 C15.8658612,18.7683584 14.9988909,19.125 14.1581966,19.125 C13.1739519,19.125 12.1387017,18.6323289 11.1944517,17.8983973 C11.1861201,17.9223293 11.1765965,17.9460895 11.1658545,17.9696078 L10.0363929,20.4424118 C9.90365758,20.733018 9.61238453,20.9196126 9.29148543,20.9196126 L6.79081971,20.9196126 C3.92798505,20.9196126 2.34753788,22.0598334 2.34753788,24.1450244 L2.34753788,25.2287234 C2.34753788,25.6781892 1.9812254,26.0425532 1.52935606,26.0425532 C1.07748672,26.0425532 0.711174242,25.6781892 0.711174242,25.2287234 L0.711174242,24.1450244 C0.711174242,21.0274699 3.11675452,19.291953 6.79081971,19.291953 L8.76454098,19.291953 L9.67603949,17.2963497 C9.76206469,17.1080091 9.91124033,16.9680071 10.0873232,16.8898702 Z M19.7503599,9.05077369 C19.2979686,9.05077369 18.9314403,8.68559908 18.9321791,8.23561474 C18.9391735,3.97581755 17.3487347,2.03457447 14.0020661,2.03457447 C10.655111,2.03457447 9.0628496,3.97622822 9.06658383,8.23623431 C9.06693409,8.63580303 8.77561026,8.97652151 8.37905983,9.04032966 C8.34943022,9.0450973 8.28016482,9.06351236 8.21268955,9.09216194 C8.39217483,10.12905 8.57041286,10.9081828 8.74245937,11.4193386 C8.80492571,11.6049281 8.86357304,11.7453901 8.911778,11.8355141 C9.19559398,11.9632362 9.39306279,12.2473648 9.39306279,12.5773694 C9.39306279,12.865534 10.059872,14.2213865 10.8710575,15.2805629 C11.9381367,16.6738634 13.1090198,17.4973404 14.1581966,17.4973404 C15.2016369,17.4973404 16.3417593,16.6802234 17.3709918,15.2909449 C18.1529782,14.2354043 18.7906155,12.8797718 18.7906155,12.5773694 C18.7906155,12.2478663 18.9874846,11.9640998 19.270607,11.8360974 C19.3052936,11.7640772 19.3467764,11.6575944 19.3901517,11.5200162 C19.541431,11.040187 19.6859666,10.2850778 19.8171918,9.26838735 C19.8175667,9.22917772 19.818393,9.18736111 19.8198439,9.1243163 C19.8204666,9.09729349 19.8208985,9.07318122 19.8213042,9.0518825 C19.7995036,9.05116812 19.7758578,9.05077369 19.7503599,9.05077369 Z" id="Combined-Shape"></path>
                                </g>
                            </g>
                        </g>
                    </g>
                </g>
            </g>
        </g>
    </g>
</svg>