<?xml version="1.0" encoding="UTF-8"?>
<svg width="27px" height="17px" viewBox="0 0 27 17" version="1.1" xmlns="http://www.w3.org/2000/svg" xmlns:xlink="http://www.w3.org/1999/xlink">
    <!-- Generator: sketchtool 51.2 (57519) - http://www.bohemiancoding.com/sketch -->
    <title>B7E29F4D-84D5-4748-8C1C-DD2C812A9CE1</title>
    <desc>Created with sketchtool.</desc>
    <defs></defs>
    <g id="Menu-et-rubriques" stroke="none" stroke-width="1" fill="none" fill-rule="evenodd">
        <g id="PassCulture-search" transform="translate(-328.000000, -91.000000)">
            <g id="ICONS/ico-filter" transform="translate(319.000000, 76.000000)">
                <rect id="Background" x="0" y="0" width="44" height="44"></rect>
                <rect id="crop" x="0" y="0" width="44" height="44"></rect>
                <g id="Group" transform="translate(8.000000, 15.000000)" fill="#EB0055" fill-rule="nonzero">
                    <g id="slider" transform="translate(14.000000, 13.000000) rotate(-90.000000) translate(-14.000000, -13.000000) translate(10.000000, -0.500000)">
                        <path d="M3,1.5 C3,0.94771525 3.44771525,0.5 4,0.5 C4.55228475,0.5 5,0.94771525 5,1.5 L5,13 C5,13.5522847 4.55228475,14 4,14 C3.44771525,14 3,13.5522847 3,13 L3,1.5 Z" id="Stroke-2"></path>
                        <path d="M3,22 C3,21.4477153 3.44771525,21 4,21 C4.55228475,21 5,21.4477153 5,22 L5,25.5 C5,26.0522847 4.55228475,26.5 4,26.5 C3.44771525,26.5 3,26.0522847 3,25.5 L3,22 Z" id="Stroke-2"></path>
                        <path d="M4,23 C1.790861,23 0,21.209139 0,19 C0,16.790861 1.790861,15 4,15 C6.209139,15 8,16.790861 8,19 C8,21.209139 6.209139,23 4,23 Z M4,21 C5.1045695,21 6,20.1045695 6,19 C6,17.8954305 5.1045695,17 4,17 C2.8954305,17 2,17.8954305 2,19 C2,20.1045695 2.8954305,21 4,21 Z" id="Oval"></path>
                    </g>
                    <g id="slider-copy" transform="translate(14.500000, 4.000000) rotate(-90.000000) translate(-14.500000, -4.000000) translate(10.500000, -9.500000)">
                        <path d="M3,1.5 C3,0.94771525 3.44771525,0.5 4,0.5 C4.55228475,0.5 5,0.94771525 5,1.5 L5,6 C5,6.55228475 4.55228475,7 4,7 C3.44771525,7 3,6.55228475 3,6 L3,1.5 Z" id="Stroke-2"></path>
                        <path d="M3,15 C3,14.4477153 3.44771525,14 4,14 C4.55228475,14 5,14.4477153 5,15 L5,25.5 C5,26.0522847 4.55228475,26.5 4,26.5 C3.44771525,26.5 3,26.0522847 3,25.5 L3,15 Z" id="Stroke-2"></path>
                        <path d="M4,16 C1.790861,16 0,14.209139 0,12 C0,9.790861 1.790861,8 4,8 C6.209139,8 8,9.790861 8,12 C8,14.209139 6.209139,16 4,16 Z M4,14 C5.1045695,14 6,13.1045695 6,12 C6,10.8954305 5.1045695,10 4,10 C2.8954305,10 2,10.8954305 2,12 C2,13.1045695 2.8954305,14 4,14 Z" id="Oval"></path>
                    </g>
                </g>
            </g>
        </g>
    </g>
</svg>