<?xml version="1.0" encoding="UTF-8"?>
<svg width="24px" height="24px" viewBox="0 0 24 24" version="1.1" xmlns="http://www.w3.org/2000/svg" xmlns:xlink="http://www.w3.org/1999/xlink">
    <!-- Generator: sketchtool 54.1 (76490) - https://sketchapp.com -->
    <title>1550853A-CC3D-4EBA-84A2-208D41AE3F70</title>
    <desc>Created with sketchtool.</desc>
    <g id="Portail-pro" stroke="none" stroke-width="1" fill="none" fill-rule="evenodd">
        <g id="Passculture-Pro-menu" transform="translate(-973.000000, -215.000000)">
            <g id="USER-MENU" transform="translate(955.000000, 0.000000)">
                <g id="Stacked-Group" transform="translate(0.000000, 8.000000)">
                    <g id="Group-3-Copy-2" transform="translate(12.000000, 201.000000)">
                        <g id="ICONS/ico-compta">
                            <rect id="crop" x="0" y="0" width="36" height="35.8085098"></rect>
                            <path d="M22.9090909,9.76595723 L13.0909091,9.76595723 L13.0909091,10.579787 C13.0909091,11.0292528 12.7245966,11.3936168 12.2727273,11.3936168 C11.8208579,11.3936168 11.4545455,11.0292528 11.4545455,10.579787 L11.4545455,9.76595723 L8.18181818,9.76595723 L8.18181818,27.6702121 L27.8181818,27.6702121 L27.8181818,9.76595723 L24.5454545,9.76595723 L24.5454545,10.579787 C24.5454545,11.0292528 24.1791421,11.3936168 23.7272727,11.3936168 C23.2754034,11.3936168 22.9090909,11.0292528 22.9090909,10.579787 L22.9090909,9.76595723 Z M24.5454545,8.13829769 L28.6363636,8.13829769 C29.088233,8.13829769 29.4545455,8.50266169 29.4545455,8.95212746 L29.4545455,28.4840419 C29.4545455,28.9335077 29.088233,29.2978717 28.6363636,29.2978717 L7.36363636,29.2978717 C6.91176702,29.2978717 6.54545455,28.9335077 6.54545455,28.4840419 L6.54545455,8.95212746 C6.54545455,8.50266169 6.91176702,8.13829769 7.36363636,8.13829769 L11.4545455,8.13829769 L11.4545455,7.32446792 C11.4545455,6.87500215 11.8208579,6.51063815 12.2727273,6.51063815 C12.7245966,6.51063815 13.0909091,6.87500215 13.0909091,7.32446792 L13.0909091,8.13829769 L22.9090909,8.13829769 L22.9090909,7.32446792 C22.9090909,6.87500215 23.2754034,6.51063815 23.7272727,6.51063815 C24.1791421,6.51063815 24.5454545,6.87500215 24.5454545,7.32446792 L24.5454545,8.13829769 Z M13.9090909,19.5319145 C13.4572216,19.5319145 13.0909091,19.1675505 13.0909091,18.7180847 C13.0909091,18.2686189 13.4572216,17.9042549 13.9090909,17.9042549 L14.7272727,17.9042549 C15.1791421,17.9042549 15.5454545,18.2686189 15.5454545,18.7180847 C15.5454545,19.1675505 15.1791421,19.5319145 14.7272727,19.5319145 L13.9090909,19.5319145 Z M13.9090909,22.7872335 C13.4572216,22.7872335 13.0909091,22.4228695 13.0909091,21.9734038 C13.0909091,21.523938 13.4572216,21.159574 13.9090909,21.159574 L14.7272727,21.159574 C15.1791421,21.159574 15.5454545,21.523938 15.5454545,21.9734038 C15.5454545,22.4228695 15.1791421,22.7872335 14.7272727,22.7872335 L13.9090909,22.7872335 Z M13.9090909,26.0425526 C13.4572216,26.0425526 13.0909091,25.6781886 13.0909091,25.2287228 C13.0909091,24.7792571 13.4572216,24.4148931 13.9090909,24.4148931 L14.7272727,24.4148931 C15.1791421,24.4148931 15.5454545,24.7792571 15.5454545,25.2287228 C15.5454545,25.6781886 15.1791421,26.0425526 14.7272727,26.0425526 L13.9090909,26.0425526 Z M10.6363636,19.5319145 C10.1844943,19.5319145 9.81818182,19.1675505 9.81818182,18.7180847 C9.81818182,18.2686189 10.1844943,17.9042549 10.6363636,17.9042549 L11.4545455,17.9042549 C11.9064148,17.9042549 12.2727273,18.2686189 12.2727273,18.7180847 C12.2727273,19.1675505 11.9064148,19.5319145 11.4545455,19.5319145 L10.6363636,19.5319145 Z M10.6363636,22.7872335 C10.1844943,22.7872335 9.81818182,22.4228695 9.81818182,21.9734038 C9.81818182,21.523938 10.1844943,21.159574 10.6363636,21.159574 L11.4545455,21.159574 C11.9064148,21.159574 12.2727273,21.523938 12.2727273,21.9734038 C12.2727273,22.4228695 11.9064148,22.7872335 11.4545455,22.7872335 L10.6363636,22.7872335 Z M10.6363636,26.0425526 C10.1844943,26.0425526 9.81818182,25.6781886 9.81818182,25.2287228 C9.81818182,24.7792571 10.1844943,24.4148931 10.6363636,24.4148931 L11.4545455,24.4148931 C11.9064148,24.4148931 12.2727273,24.7792571 12.2727273,25.2287228 C12.2727273,25.6781886 11.9064148,26.0425526 11.4545455,26.0425526 L10.6363636,26.0425526 Z M17.1818182,16.2765954 C16.7299488,16.2765954 16.3636364,15.9122314 16.3636364,15.4627656 C16.3636364,15.0132998 16.7299488,14.6489358 17.1818182,14.6489358 L18,14.6489358 C18.4518693,14.6489358 18.8181818,15.0132998 18.8181818,15.4627656 C18.8181818,15.9122314 18.4518693,16.2765954 18,16.2765954 L17.1818182,16.2765954 Z M17.1818182,19.5319145 C16.7299488,19.5319145 16.3636364,19.1675505 16.3636364,18.7180847 C16.3636364,18.2686189 16.7299488,17.9042549 17.1818182,17.9042549 L18,17.9042549 C18.4518693,17.9042549 18.8181818,18.2686189 18.8181818,18.7180847 C18.8181818,19.1675505 18.4518693,19.5319145 18,19.5319145 L17.1818182,19.5319145 Z M17.1818182,22.7872335 C16.7299488,22.7872335 16.3636364,22.4228695 16.3636364,21.9734038 C16.3636364,21.523938 16.7299488,21.159574 17.1818182,21.159574 L18,21.159574 C18.4518693,21.159574 18.8181818,21.523938 18.8181818,21.9734038 C18.8181818,22.4228695 18.4518693,22.7872335 18,22.7872335 L17.1818182,22.7872335 Z M20.4545455,16.2765954 C20.0026761,16.2765954 19.6363636,15.9122314 19.6363636,15.4627656 C19.6363636,15.0132998 20.0026761,14.6489358 20.4545455,14.6489358 L21.2727273,14.6489358 C21.7245966,14.6489358 22.0909091,15.0132998 22.0909091,15.4627656 C22.0909091,15.9122314 21.7245966,16.2765954 21.2727273,16.2765954 L20.4545455,16.2765954 Z M23.7272727,16.2765954 C23.2754034,16.2765954 22.9090909,15.9122314 22.9090909,15.4627656 C22.9090909,15.0132998 23.2754034,14.6489358 23.7272727,14.6489358 L24.5454545,14.6489358 C24.9973239,14.6489358 25.3636364,15.0132998 25.3636364,15.4627656 C25.3636364,15.9122314 24.9973239,16.2765954 24.5454545,16.2765954 L23.7272727,16.2765954 Z M20.4545455,19.5319145 C20.0026761,19.5319145 19.6363636,19.1675505 19.6363636,18.7180847 C19.6363636,18.2686189 20.0026761,17.9042549 20.4545455,17.9042549 L21.2727273,17.9042549 C21.7245966,17.9042549 22.0909091,18.2686189 22.0909091,18.7180847 C22.0909091,19.1675505 21.7245966,19.5319145 21.2727273,19.5319145 L20.4545455,19.5319145 Z M20.4545455,22.7872335 C20.0026761,22.7872335 19.6363636,22.4228695 19.6363636,21.9734038 C19.6363636,21.523938 20.0026761,21.159574 20.4545455,21.159574 L21.2727273,21.159574 C21.7245966,21.159574 22.0909091,21.523938 22.0909091,21.9734038 C22.0909091,22.4228695 21.7245966,22.7872335 21.2727273,22.7872335 L20.4545455,22.7872335 Z M23.7272727,19.5319145 C23.2754034,19.5319145 22.9090909,19.1675505 22.9090909,18.7180847 C22.9090909,18.2686189 23.2754034,17.9042549 23.7272727,17.9042549 L24.5454545,17.9042549 C24.9973239,17.9042549 25.3636364,18.2686189 25.3636364,18.7180847 C25.3636364,19.1675505 24.9973239,19.5319145 24.5454545,19.5319145 L23.7272727,19.5319145 Z M23.7272727,22.7872335 C23.2754034,22.7872335 22.9090909,22.4228695 22.9090909,21.9734038 C22.9090909,21.523938 23.2754034,21.159574 23.7272727,21.159574 L24.5454545,21.159574 C24.9973239,21.159574 25.3636364,21.523938 25.3636364,21.9734038 C25.3636364,22.4228695 24.9973239,22.7872335 24.5454545,22.7872335 L23.7272727,22.7872335 Z" id="Combined-Shape" fill="#FFF"></path>
                        </g>
                    </g>
                </g>
            </g>
        </g>
    </g>
</svg>
