<svg xmlns="http://www.w3.org/2000/svg" width="24" height="24" viewBox="0 0 24 24"><g fill="none"><path fill="#757575" d="M19.333 13.82v-1.31c.667-.686 1.943-1.926 2.261-3.515.095.053.037.087.142.087.505 0 .837-.655.837-1.465 0-.796-.437-1.44-.932-1.46.095-.344.141-.804.141-1.395 0-1.97-1.7-4.337-5.502-4.337-3.379 0-5.496 2.366-5.496 4.337 0 .572.034 1.041.095 1.405-.465.07-.832.688-.832 1.45 0 .809.41 1.464.916 1.464.104 0-.046-.034.048-.086.318 1.589 1.656 2.828 2.322 3.516v1.231c-2.666.328-4.666 1.752-4.666 3.177v.54c0 .541.548.541 1.089.541h12.487c.542 0 1.09 0 1.09-.541v-.54c0-1.334-2-2.665-4-3.1z"/><path fill="#06F" d="M11.333 19.153v-1.309c.667-.687 1.943-1.927 2.261-3.515.095.052.037.086.142.086.505 0 .837-.655.837-1.464 0-.796-.437-1.441-.932-1.461.095-.344.141-.804.141-1.395 0-1.97-1.7-4.336-5.502-4.336-3.38 0-5.496 2.366-5.496 4.336 0 .572.034 1.042.095 1.405-.465.07-.832.689-.832 1.45 0 .81.41 1.465.916 1.465.104 0-.046-.034.048-.087.318 1.59 1.656 2.829 2.322 3.516v1.231c-2.666.328-4.666 1.752-4.666 3.177v.54c0 .541.548.541 1.089.541h12.487c.542 0 1.09 0 1.09-.541v-.54c0-1.334-2-2.665-4-3.1z"/></g></svg>