<svg xmlns="http://www.w3.org/2000/svg" width="48" height="48" viewBox="0 0 48 48"><defs><linearGradient id="a" x1="13.556%" x2="86.444%" y1="0%" y2="100%"><stop offset="0%" stop-color="#EB0055"/><stop offset="100%" stop-color="#320096"/></linearGradient></defs><path fill="url(#a)" fill-rule="evenodd" d="M17.075 18.25c.845-.017 1.581.572 1.738 1.349a2.248 2.248 0 002.167 1.646c1.01 0 1.896-.673 2.155-1.595a1.746 1.746 0 011.735-1.4H27A2.75 2.75 0 0129.75 21v15A2.75 2.75 0 0127 38.75h-2.185a1.744 1.744 0 01-1.64-1.328A2.25 2.25 0 0021 35.748c-1.02 0-1.914.687-2.17 1.654a1.755 1.755 0 01-1.67 1.348H15A2.75 2.75 0 0112.25 36V21A2.75 2.75 0 0115 18.25zm7.78 1.5c-.12-.003-.226.082-.262.251l-.06.192a3.749 3.749 0 01-3.553 2.552c-1.684 0-3.16-1.122-3.625-2.795a.255.255 0 00-.265-.2H15c-.69 0-1.25.56-1.25 1.25v15c0 .69.56 1.25 1.25 1.25h2.135c.113-.003.21-.082.24-.212.436-1.645 1.924-2.79 3.625-2.79s3.19 1.145 3.63 2.81c.026.11.122.189.21.192H27c.69 0 1.25-.56 1.25-1.25V21c0-.69-.56-1.25-1.25-1.25zm-3.126-8.467l.207.05 2.133.547c.773.224 1.292.946 1.26 1.696a2.253 2.253 0 001.703 2.109 2.323 2.323 0 002.573-1.02c.35-.63 1.05-.977 1.778-.879l.156.028 2.13.555a2.681 2.681 0 012.028 3.118l-.044.194-3.28 11.78a.75.75 0 01-1.466-.302l.02-.1 3.279-11.773a1.182 1.182 0 00-.757-1.42l-.138-.04-2.123-.554c-.108-.024-.219.026-.287.147a3.828 3.828 0 01-4.246 1.718c-1.618-.411-2.77-1.843-2.824-3.567a.263.263 0 00-.107-.22l-.05-.023-2.132-.546a1.248 1.248 0 00-1.501.715l-.044.127-.77 3.06a.75.75 0 01-1.473-.266l.019-.1.775-3.08a2.748 2.748 0 011.31-1.658 2.741 2.741 0 011.871-.296zM25 25.75a.75.75 0 01.102 1.493L25 27.25h-8a.75.75 0 01-.102-1.493L17 25.75h8z" opacity=".9"/></svg>