<?xml version="1.0" encoding="UTF-8"?>
<svg width="25px" height="24px" viewBox="0 0 25 24" version="1.1" xmlns="http://www.w3.org/2000/svg" xmlns:xlink="http://www.w3.org/1999/xlink">
    <!-- Generator: sketchtool 50.2 (55047) - http://www.bohemiancoding.com/sketch -->
    <title>5534B64D-798B-4908-9115-FAD1B206B50B</title>
    <desc>Created with sketchtool.</desc>
    <defs></defs>
    <g id="Portail-pro" stroke="none" stroke-width="1" fill="none" fill-rule="evenodd">
        <g id="Passculture-Pro-menu" transform="translate(-973.000000, -263.000000)">
            <g id="USER-MENU" transform="translate(955.000000, 0.000000)">
                <g id="Stacked-Group" transform="translate(0.000000, 8.000000)">
                    <g id="Group-3-Copy-4" transform="translate(12.000000, 249.000000)">
                        <g id="ICONS/ico-deconnect">
                            <rect id="Background" x="0" y="0" width="36" height="35.8085106"></rect>
                            <rect id="crop" x="0" y="0" width="36" height="35.8085106"></rect>
                            <g id="Page-1" transform="translate(18.818182, 17.904255) rotate(-90.000000) translate(-18.818182, -17.904255) translate(8.181818, 6.510638)" fill="#E60039" fill-rule="nonzero">
                                <path d="M10.6239669,19.0118029 L6.6665267,22.6453937 C6.33449155,22.9502574 5.81686141,22.9296623 5.51036743,22.5993933 C5.20387345,22.2691243 5.22457865,21.7542475 5.5566138,21.4493839 L10.0690105,17.3062504 C10.3824246,17.0184839 10.8655093,17.0184839 11.1789234,17.3062504 L15.6913201,21.4493839 C16.0233552,21.7542475 16.0440604,22.2691243 15.7375665,22.5993933 C15.4310725,22.9296623 14.9134423,22.9502574 14.5814072,22.6453937 L10.6239669,19.0118029 Z" id="Stroke-1" transform="translate(10.623967, 19.975824) scale(1, -1) translate(-10.623967, -19.975824) "></path>
                                <path d="M9.81818182,5.28989362 C9.81818182,4.84042784 10.1844943,4.47606383 10.6363636,4.47606383 C11.088233,4.47606383 11.4545455,4.84042784 11.4545455,5.28989362 L11.4545455,21.5664894 C11.4545455,22.0159551 11.088233,22.3803191 10.6363636,22.3803191 C10.1844943,22.3803191 9.81818182,22.0159551 9.81818182,21.5664894 L9.81818182,5.28989362 Z" id="Stroke-2"></path>
                                <path d="M0.818181818,13.0212766 L5.72727273,13.0212766 C6.17914207,13.0212766 6.54545455,13.3856406 6.54545455,13.8351064 C6.54545455,14.2845722 6.17914207,14.6489362 5.72727273,14.6489362 L-1.11022302e-16,14.6489362 C-0.451869341,14.6489362 -0.818181818,14.2845722 -0.818181818,13.8351064 L-0.818181818,-1.33226763e-15 C-0.818181818,-0.44946578 -0.451869341,-0.813829787 -1.11022302e-16,-0.813829787 L21.2727273,-0.813829787 C21.7245966,-0.813829787 22.0909091,-0.44946578 22.0909091,-1.33226763e-15 L22.0909091,13.8351064 C22.0909091,14.2845722 21.7245966,14.6489362 21.2727273,14.6489362 L15.5454545,14.6489362 C15.0935852,14.6489362 14.7272727,14.2845722 14.7272727,13.8351064 C14.7272727,13.3856406 15.0935852,13.0212766 15.5454545,13.0212766 L20.4545455,13.0212766 L20.4545455,0.813829787 L0.818181818,0.813829787 L0.818181818,13.0212766 Z" id="Stroke-4"></path>
                            </g>
                        </g>
                    </g>
                </g>
            </g>
        </g>
    </g>
</svg>