<?xml version="1.0" encoding="UTF-8"?>
<svg width="23px" height="15px" viewBox="0 0 23 15" version="1.1" xmlns="http://www.w3.org/2000/svg" xmlns:xlink="http://www.w3.org/1999/xlink">
    <!-- Generator: sketchtool 50.2 (55047) - http://www.bohemiancoding.com/sketch -->
    <title>1E1700B9-263A-409C-A818-712CADEFB99D</title>
    <desc>Created with sketchtool.</desc>
    <defs></defs>
    <g id="Portail-pro" stroke="none" stroke-width="1" fill="none" fill-rule="evenodd">
        <g id="Passculture-Pro-offres" transform="translate(-982.000000, -282.000000)">
            <g id="Stacked-Group" transform="translate(353.000000, 117.000000)">
                <g id="SEARCHBAR" transform="translate(0.000000, 128.000000)">
                    <g id="Group-2">
                        <g id="Stacked-Group" transform="translate(0.000000, 25.000000)">
                            <g id="ICONS/ico-filter" transform="translate(622.000000, 0.000000)">
                                <rect id="Background" x="0" y="0" width="36" height="36"></rect>
                                <rect id="crop" x="0" y="0" width="36" height="36"></rect>
                                <g id="Group" transform="translate(7.363636, 13.090909)" fill="#E60039" fill-rule="nonzero">
                                    <g id="slider" transform="translate(10.636364, 9.818182) rotate(-90.000000) translate(-10.636364, -9.818182) translate(8.181818, -0.409091)">
                                        <path d="M1.63636364,0.409090909 C1.63636364,-0.0427784317 2.00267611,-0.409090909 2.45454545,-0.409090909 C2.9064148,-0.409090909 3.27272727,-0.0427784317 3.27272727,0.409090909 L3.27272727,9.81818182 C3.27272727,10.2700512 2.9064148,10.6363636 2.45454545,10.6363636 C2.00267611,10.6363636 1.63636364,10.2700512 1.63636364,9.81818182 L1.63636364,0.409090909 Z" id="Stroke-2"></path>
                                        <path d="M1.63636364,17.1818182 C1.63636364,16.7299488 2.00267611,16.3636364 2.45454545,16.3636364 C2.9064148,16.3636364 3.27272727,16.7299488 3.27272727,17.1818182 L3.27272727,20.0454545 C3.27272727,20.4973239 2.9064148,20.8636364 2.45454545,20.8636364 C2.00267611,20.8636364 1.63636364,20.4973239 1.63636364,20.0454545 L1.63636364,17.1818182 Z" id="Stroke-2"></path>
                                        <path d="M2.45454545,18 C0.647068092,18 -0.818181818,16.5347501 -0.818181818,14.7272727 C-0.818181818,12.9197954 0.647068092,11.4545455 2.45454545,11.4545455 C4.26202282,11.4545455 5.72727273,12.9197954 5.72727273,14.7272727 C5.72727273,16.5347501 4.26202282,18 2.45454545,18 Z M2.45454545,16.3636364 C3.35828414,16.3636364 4.09090909,15.6310114 4.09090909,14.7272727 C4.09090909,13.823534 3.35828414,13.0909091 2.45454545,13.0909091 C1.55080677,13.0909091 0.818181818,13.823534 0.818181818,14.7272727 C0.818181818,15.6310114 1.55080677,16.3636364 2.45454545,16.3636364 Z" id="Oval"></path>
                                    </g>
                                    <g id="slider-copy" transform="translate(11.045455, 2.454545) rotate(-90.000000) translate(-11.045455, -2.454545) translate(8.590909, -7.772727)">
                                        <path d="M1.63636364,0.409090909 C1.63636364,-0.0427784317 2.00267611,-0.409090909 2.45454545,-0.409090909 C2.9064148,-0.409090909 3.27272727,-0.0427784317 3.27272727,0.409090909 L3.27272727,4.09090909 C3.27272727,4.54277843 2.9064148,4.90909091 2.45454545,4.90909091 C2.00267611,4.90909091 1.63636364,4.54277843 1.63636364,4.09090909 L1.63636364,0.409090909 Z" id="Stroke-2"></path>
                                        <path d="M1.63636364,11.4545455 C1.63636364,11.0026761 2.00267611,10.6363636 2.45454545,10.6363636 C2.9064148,10.6363636 3.27272727,11.0026761 3.27272727,11.4545455 L3.27272727,20.0454545 C3.27272727,20.4973239 2.9064148,20.8636364 2.45454545,20.8636364 C2.00267611,20.8636364 1.63636364,20.4973239 1.63636364,20.0454545 L1.63636364,11.4545455 Z" id="Stroke-2"></path>
                                        <path d="M2.45454545,12.2727273 C0.647068092,12.2727273 -0.818181818,10.8074774 -0.818181818,9 C-0.818181818,7.19252264 0.647068092,5.72727273 2.45454545,5.72727273 C4.26202282,5.72727273 5.72727273,7.19252264 5.72727273,9 C5.72727273,10.8074774 4.26202282,12.2727273 2.45454545,12.2727273 Z M2.45454545,10.6363636 C3.35828414,10.6363636 4.09090909,9.90373868 4.09090909,9 C4.09090909,8.09626132 3.35828414,7.36363636 2.45454545,7.36363636 C1.55080677,7.36363636 0.818181818,8.09626132 0.818181818,9 C0.818181818,9.90373868 1.55080677,10.6363636 2.45454545,10.6363636 Z" id="Oval"></path>
                                    </g>
                                </g>
                            </g>
                        </g>
                    </g>
                </g>
            </g>
        </g>
    </g>
</svg>