<svg width="32" height="35" viewBox="0 0 32 35" xmlns="http://www.w3.org/2000/svg"><g fill="none"><path d="M-6-6h44v47H-6z"/><g stroke="#FFF" stroke-linecap="round" stroke-linejoin="round" stroke-width="2"><path d="M28 14.295c-.13 0-.256.024-.383.041a13.212 13.212 0 00-1.328-3.408c.102-.085.225-.125.317-.224 1.173-1.252 1.173-3.284 0-4.531-1.17-1.253-3.07-1.253-4.242 0-.093.098-.132.23-.21.337a11.487 11.487 0 00-3.192-1.417c.017-.136.04-.271.04-.411 0-1.769-1.345-3.205-3.002-3.205-1.655 0-3 1.436-3 3.205 0 .14.023.275.04.41A11.48 11.48 0 009.847 6.51c-.08-.108-.117-.24-.211-.337-1.171-1.253-3.072-1.253-4.242 0-1.172 1.247-1.172 3.279 0 4.531.092.1.216.139.318.224a13.136 13.136 0 00-1.328 3.408c-.127-.017-.253-.04-.384-.04-1.655-.001-3 1.434-3 3.204 0 1.77 1.345 3.205 3.001 3.205.131 0 .257-.024.384-.041a13.21 13.21 0 001.326 3.408c-.1.085-.224.125-.316.224-1.172 1.253-1.172 3.284 0 4.532 1.17 1.252 3.07 1.252 4.242 0 .094-.099.13-.23.21-.338a11.517 11.517 0 003.192 1.419c-.016.134-.039.27-.039.41 0 1.769 1.345 3.204 3 3.204 1.657 0 3.001-1.435 3.001-3.205 0-.14-.022-.275-.04-.41a11.5 11.5 0 003.192-1.418c.08.108.118.24.211.338 1.172 1.252 3.073 1.252 4.242 0 1.173-1.248 1.173-3.28 0-4.532-.092-.1-.215-.139-.316-.224a13.248 13.248 0 001.327-3.408c.127.017.253.04.383.04 1.658 0 3-1.435 3-3.204 0-1.77-1.342-3.205-3-3.205z"/><path d="M20.5 17.501c0 2.655-2.015 4.806-4.5 4.806s-4.5-2.15-4.5-4.806c0-2.655 2.015-4.808 4.5-4.808s4.5 2.153 4.5 4.808z"/></g></g></svg>