<?xml version="1.0" encoding="UTF-8"?>
<svg width="34px" height="34px" viewBox="0 0 34 34" version="1.1" xmlns="http://www.w3.org/2000/svg" xmlns:xlink="http://www.w3.org/1999/xlink">
    <!-- Generator: sketchtool 49.1 (51147) - http://www.bohemiancoding.com/sketch -->
    <title>C516369F-E525-42E7-ADC5-2CBF7049F283</title>
    <desc>Created with sketchtool.</desc>
    <defs></defs>
    <g id="Écrans" stroke="none" stroke-width="1" fill="none" fill-rule="evenodd">
        <g id="PassCulture-v0rc3-HP2-menu2" transform="translate(-304.000000, -444.000000)">
            <g id="ICONS/ico-user-w" transform="translate(299.000000, 437.000000)">
                <g>
                    <rect id="crop" x="0" y="0" width="44" height="47"></rect>
                    <g id="user" transform="translate(6.000000, 7.477273)" stroke="#FFFFFF" stroke-linecap="round" stroke-linejoin="round" stroke-width="2">
                        <path d="M0.869212963,32.0454545 L0.869212963,30.6230594 C0.869212963,27.0489683 3.51123612,25.3214047 7.29989076,25.3214047 L10.35626,25.3214047 L11.736713,22.0757576" id="Stroke-7"></path>
                        <path d="M31.056713,32.0454545 L31.056713,30.6230594 C31.056713,27.0489683 28.0184525,25.3214047 24.308961,25.3214047 L21.2952677,25.3214047 L20.189213,22.0757576" id="Stroke-9"></path>
                        <path d="M23.1393287,9.74311295 C23.1487156,3.60376492 20.8068182,0.534090909 16.1136364,0.534090909 C11.4204545,0.534090909 9.0763693,3.60376492 9.08138062,9.74311295 C9.08138062,9.74311295 8,9.92997355 8,10.7167251 C8.4891445,13.8656301 8.98261453,15.4400826 9.48041007,15.4400826 C9.48041007,16.5932335 12.5682924,22.9659091 16.3044625,22.9659091 C20.0400919,22.9659091 22.9663078,16.5932335 22.9663078,15.4400826 C23.4641034,15.4400826 23.8822372,14.0158402 24.2207093,11.1673554 C24.2207093,10.3806039 24.3791316,9.74311295 23.1393287,9.74311295 Z" id="Stroke-1"></path>
                    </g>
                </g>
            </g>
        </g>
    </g>
</svg>