<svg xmlns="http://www.w3.org/2000/svg" width="16" height="16" viewBox="0 0 16 16">
    <g fill="none" fill-rule="evenodd">
        <g>
            <g>
                <path d="M0 0L16 0 16 16 0 16z" transform="translate(-858 -1029) translate(858 1029)"/>
                <path fill="#e60039" d="M1.82 14h12.353c.514 0 .834-.553.58-1L8.573 2.333c-.26-.446-.9-.446-1.153 0L1.24 13c-.253.447.067 1 .58 1zm6.847-2H7.333v-1.333h1.334V12zM8 9.333c-.367 0-.667-.3-.667-.666V7.333c0-.366.3-.666.667-.666.367 0 .667.3.667.666v1.334c0 .366-.3.666-.667.666z" transform="translate(-858 -1029) translate(858 1029)"/>
            </g>
        </g>
    </g>
</svg>
