<svg xmlns="http://www.w3.org/2000/svg" width="24" height="24" viewBox="0 0 24 24">
    <path fill="#151515" fill-rule="evenodd" d="M17.727 7.09c2.862 0 5.182 2.32 5.182 5.183 0 2.862-2.32 5.182-5.182 5.182H6.273c-2.862 0-5.182-2.32-5.182-5.182 0-2.862 2.32-5.182 5.182-5.182h11.454zm0 1.092H6.273c-2.26 0-4.091 1.831-4.091 4.09 0 2.26 1.831 4.092 4.09 4.092h11.455c2.26 0 4.091-1.832 4.091-4.091 0-2.26-1.831-4.091-4.09-4.091zm-.673 1.189c.43 0 .808.086 1.133.258.324.171.577.413.757.724.18.31.27.668.27 1.072v1.75c0 .41-.09.772-.27 1.089-.18.316-.433.56-.757.732-.325.172-.702.258-1.133.258-.426 0-.8-.088-1.125-.262-.325-.175-.577-.419-.757-.732-.18-.314-.27-.675-.27-1.085v-1.75c0-.404.09-.761.27-1.072.18-.311.432-.553.757-.724.324-.172.7-.258 1.125-.258zm-6.161.065c.092 0 .139.047.139.14v3.698c0 .289.088.522.266.7.177.176.41.265.7.265.288 0 .522-.089.699-.266.177-.177.266-.41.266-.7V9.576c0-.092.046-.139.139-.139h.875c.093 0 .14.047.14.14v3.69c0 .387-.09.729-.267 1.026-.177.298-.425.528-.744.692-.32.163-.689.245-1.109.245-.42 0-.79-.082-1.108-.245-.32-.164-.568-.394-.745-.692-.177-.297-.266-.64-.266-1.027v-3.69c0-.092.047-.139.14-.139h.875zm-3.887 0c.41 0 .768.073 1.076.217.308.145.547.348.716.61.17.262.254.564.254.908v2.258c0 .344-.085.646-.254.908-.169.262-.408.465-.716.61-.308.144-.667.217-1.076.217H5.002c-.093 0-.14-.047-.14-.14V9.576c0-.092.047-.139.14-.139h2.004zm10.048.925c-.3 0-.542.097-.724.29-.183.194-.275.449-.275.765v1.8c0 .317.092.57.275.761.182.191.424.287.724.287s.542-.096.728-.287c.185-.19.278-.444.278-.76v-1.8c0-.317-.091-.572-.274-.766-.183-.193-.427-.29-.732-.29zm-10.015.065h-.974c-.032 0-.049.017-.049.05v3.649c0 .032.017.049.05.049h.981c.251 0 .454-.085.61-.254.155-.17.236-.395.241-.68v-1.88c0-.285-.078-.51-.233-.68-.155-.17-.364-.254-.626-.254z"/>
</svg>
