<svg xmlns="http://www.w3.org/2000/svg" width="124" height="124" viewBox="0 0 124 124"><path fill="#C7C7CC" d="M61.07 36.813a1.938 1.938 0 01.263 3.857l-.263.017-10.798-.006c-1.896.153-3.346 1.714-3.392 3.688l.008.374-.005 44.978c-.128 1.898 1.202 3.562 2.91 3.881l.324.044 30.844.006c1.897-.153 3.346-1.714 3.393-3.687l-.008-.375V70.318a1.937 1.937 0 013.857-.263l.018.263-.005 19.141c.27 3.986-2.598 7.466-6.645 8.013l-.454.049-31.156-.006c-3.981-.321-7.001-3.67-6.965-7.498l.017-.427.004-44.716c-.27-3.985 2.598-7.466 6.645-8.013l.455-.048H61.07zM39.62 41.11a1.938 1.938 0 01-1.147 2.275l-.25.083-5.294 1.354a3.595 3.595 0 00-2.562 3.966l.068.355 10.204 44.82a1.938 1.938 0 01-3.703 1.114l-.075-.253L26.663 50.03c-.905-3.74 1.18-7.525 4.809-8.805l.442-.141 5.348-1.37a1.937 1.937 0 012.357 1.397zm44.57-11.635a15.5 15.5 0 0115.501 15.5c0 8.56-6.94 15.5-15.5 15.5-8.56 0-15.5-6.94-15.5-15.5 0-8.56 6.94-15.5 15.5-15.5zm-6.044 6.69a1.94 1.94 0 00-2.739 0 1.914 1.914 0 00.001 2.739l6.044 6.07-6.044 6.046a1.908 1.908 0 000 2.739c.356.373.853.58 1.369.568a1.915 1.915 0 001.369-.569l6.045-6.045 6.07 6.045c.357.374.854.58 1.37.569A1.913 1.913 0 0093 53.758a1.936 1.936 0 000-2.738l-6.07-6.045 6.07-6.07a1.938 1.938 0 00-2.738-2.738l-6.071 6.07z"/></svg>