<svg width="135" height="153" viewBox="0 0 135 153" xmlns="http://www.w3.org/2000/svg"><g stroke="#FFF" stroke-width="2" fill="none" fill-rule="evenodd" stroke-linecap="round" stroke-linejoin="round"><path d="M43 80.154V125h49V70m2.657-10.393v-10m-4.95 5.05h10m-21.1 17.737v-14m-4.95 11.95l9.9-9.9m-9.9.001l9.9 9.899m-11.88-4.879h14m-29.07-23.414v-14M51.657 40l9.9-9.898m-9.9 0l9.9 9.899m-11.88-4.879h14M73 42l4-4m-4 0l4 4M80.707 24.657h10m-5.05-4.95v10M88.607 4.172h6.161m-3.111-3.05v6.161M39.5 68.5l7.071 7.071M46.5 68.5l-7.071 7.071M57.5 83.964v7.072m3.536-3.536h-7.072M43.5 52.379v5.657m2.828-2.829h-5.656M133.999 137.186l.001.314c0 .488-.042.963-.122 1.425C132.933 146.3 126.632 152 119 152h-9c-7.086 0-14.01-1.979-19.896-2.976-2.057-.35-4.103-1.934-4.104-4.052.001-2.121 1.487-3.741 3.573-3.744-.343-.127 1.546-.19 5.667-.19a7.294 7.294 0 007.294-7.295h0v-5.774c0-.3.014-.588.041-.868V95.992a4.22 4.22 0 014.22-4.22c2.3 0 4.165 1.864 4.165 4.165v22.71-1.192c0-2.086 2.076-3.744 4.193-3.744 2.12 0 4.192 1.714 4.192 3.8l-.045 2.79c0-2.085 2.264-3.467 4.381-3.467 2.12 0 4.05 1.714 4.05 3.8V125c.471-1.968 1.561-2.968 3.269-3 1.708-.032 2.708.968 3 3v12s0 0 0 0l-.001.186zM1.001 137.186L1 137.5c0 .488.042.963.122 1.425C2.067 146.3 8.368 152 16 152h9c7.086 0 14.01-1.979 19.896-2.976 2.057-.35 4.103-1.934 4.104-4.052-.001-2.121-1.487-3.741-3.573-3.744.343-.127-1.546-.19-5.667-.19a7.294 7.294 0 01-7.294-7.295h0v-5.774c0-.3-.014-.588-.041-.868V95.992a4.22 4.22 0 00-4.22-4.22 4.165 4.165 0 00-4.165 4.165v22.71-1.192c0-2.086-2.076-3.744-4.193-3.744-2.12 0-4.192 1.714-4.192 3.8l.045 2.79c0-2.085-2.264-3.467-4.381-3.467-2.12 0-4.05 1.714-4.05 3.8V125c-.471-1.968-1.561-2.968-3.269-3-1.708-.032-2.708.968-3 3v12s0 0 0 0l.001.186z"/></g></svg>