<?xml version="1.0" encoding="UTF-8"?>
<svg width="28px" height="15px" viewBox="0 0 28 15" version="1.1" xmlns="http://www.w3.org/2000/svg" xmlns:xlink="http://www.w3.org/1999/xlink">
    <!-- Generator: sketchtool 50.2 (55047) - http://www.bohemiancoding.com/sketch -->
    <title>5FC69885-9E1D-4087-A858-C6F809381985</title>
    <desc>Created with sketchtool.</desc>
    <defs>
        <path d="M18.1416084,12.6818182 C12.7127547,12.6818182 7.96745532,15.1108259 5.31818182,18.7419713 C7.96745532,22.3727421 12.7127547,24.8021245 18.1416084,24.8021245 C23.5704621,24.8021245 28.3157615,22.3727421 30.965035,18.7419713 C28.3157615,15.1108259 23.5704621,12.6818182 18.1416084,12.6818182 Z" id="path-1"></path>
    </defs>
    <g id="Portail-pro" stroke="none" stroke-width="1" fill="none" fill-rule="evenodd">
        <g id="Passculture-Pro-A-signup" transform="translate(-1011.000000, -509.000000)">
            <g id="Group-5" transform="translate(737.000000, 100.000000)">
                <g id="Stacked-Group">
                    <g id="Group-3-Copy-2" transform="translate(0.000000, 362.000000)">
                        <g id="ICONS/ico-eye" transform="translate(270.000000, 36.000000)">
                            <rect id="Background" x="0" y="0" width="36" height="36"></rect>
                            <rect id="crop" x="0" y="0" width="36" height="36"></rect>
                            <mask id="mask-2" fill="white">
                                <use xlink:href="#path-1"></use>
                            </mask>
                            <use id="Stroke-1" stroke="#E60039" stroke-width="2" stroke-linecap="round" stroke-linejoin="round" xlink:href="#path-1"></use>
                            <path d="M18,23.7272727 C14.8369146,23.7272727 12.2727273,21.1630854 12.2727273,18 C12.2727273,14.8369146 14.8369146,12.2727273 18,12.2727273 C21.1630854,12.2727273 23.7272727,14.8369146 23.7272727,18 C23.7272727,21.1630854 21.1630854,23.7272727 18,23.7272727 Z M17.9514203,22.0423294 C20.210767,22.0423294 22.0423294,20.210767 22.0423294,17.9514203 C22.0423294,15.6920736 20.210767,13.8605112 17.9514203,13.8605112 C15.6920736,13.8605112 13.8605112,15.6920736 13.8605112,17.9514203 C13.8605112,20.210767 15.6920736,22.0423294 17.9514203,22.0423294 Z M17.9514203,21.2241476 C16.143943,21.2241476 14.678693,19.7588977 14.678693,17.9514203 C14.678693,16.143943 16.143943,14.678693 17.9514203,14.678693 C19.7588977,14.678693 21.2241476,16.143943 21.2241476,17.9514203 C21.2241476,19.7588977 19.7588977,21.2241476 17.9514203,21.2241476 Z" id="Combined-Shape" stroke="#E60039" stroke-width="2" stroke-linecap="round" stroke-linejoin="round" mask="url(#mask-2)"></path>
                        </g>
                    </g>
                </g>
            </g>
        </g>
    </g>
</svg>