<svg width="25" height="18" viewBox="0 0 25 18" xmlns="http://www.w3.org/2000/svg"><g fill="none"><path d="M-5-9h36v36H-5z"/><path d="M-5-9h36v36H-5z"/><g fill="#FFF"><path d="M2.364 5.846a2.865 2.865 0 010 5.49v4.21h20.454v-4.21a2.865 2.865 0 010-5.49v-4.21H2.364v4.21zM.727 0h23.728v7.364h-.819a1.227 1.227 0 000 2.454h.819v7.364H.727V9.818h.818a1.227 1.227 0 000-2.454H.727V0z"/><path d="M15.455.818h1.636v1.637h-1.636V.818zm0 3.273h1.636v1.636h-1.636V4.091zm0 3.273h1.636V9h-1.636V7.364zm0 3.272h1.636v1.637h-1.636v-1.637zm0 3.273h1.636v1.636h-1.636V13.91z"/></g></g></svg>