<svg xmlns="http://www.w3.org/2000/svg" width="40" height="40" viewBox="0 0 40 40"><path d="M21.414 9.583c3.847 0 7.319 2.347 8.904 5.983a.809.809 0 01-.38 1.051.761.761 0 01-1.026-.396c-1.338-3.068-4.261-5.045-7.498-5.045-3.782 0-6.97 2.669-7.936 6.306h11.314a.834.834 0 01.099 1.661l-.099.006-11.59.001a9.357 9.357 0 00.034 1.666h11.556a.833.833 0 01.099 1.661l-.099.006H13.588c1.081 3.44 4.178 5.924 7.826 5.924 3.17 0 6.043-1.895 7.418-4.868a.761.761 0 011.035-.372c.381.192.54.666.357 1.059-1.63 3.523-5.042 5.774-8.81 5.774-4.51 0-8.303-3.186-9.434-7.517H9.792a.834.834 0 01-.834-.834c0-.418.31-.77.735-.827l.099-.006h1.893a10.836 10.836 0 01-.029-1.666H9.791a.835.835 0 01-.834-.834c0-.418.31-.77.735-.827l.099-.006h2.096c1.002-4.525 4.885-7.9 9.526-7.9z" fill="#FFF" fill-rule="evenodd"/></svg>