<svg width="20" height="23" viewBox="0 0 20 23" xmlns="http://www.w3.org/2000/svg"><g fill="none"><path d="M-8-7h36v35.809H-8z"/><path d="M-8-7h36v35.809H-8z"/><g fill="#E60039"><path d="M1.818 1.952V20.67h16.364V1.952H1.818zM1 .324h18c.452 0 .818.365.818.814v20.346c0 .45-.366.814-.818.814H1a.816.816 0 01-.818-.814V1.138c0-.45.366-.814.818-.814z"/><path d="M14.5 17.822l.41-.407h-.82l.41.407zm-.41-2.849h.82l-.41-.407-.41.407zm0-1.627h.82c.451 0 .817.364.817.814v4.069c0 .45-.366.814-.818.814h-.818a.816.816 0 01-.818-.814v-4.07c0-.449.366-.813.818-.813zm-9.572-1.221a.816.816 0 01-.818-.814c0-.45.366-.814.818-.814h1.637c.451 0 .818.365.818.814 0 .45-.367.814-.818.814H4.518zm4.909 0a.816.816 0 01-.818-.814c0-.45.366-.814.818-.814h1.637c.452 0 .818.365.818.814 0 .45-.366.814-.818.814H9.427zm4.091 0a.816.816 0 01-.818-.814c0-.45.366-.814.818-.814h1.637c.451 0 .818.365.818.814 0 .45-.367.814-.818.814h-1.637zm-9 3.255a.816.816 0 01-.818-.814c0-.449.366-.813.818-.813h1.637c.451 0 .818.364.818.813 0 .45-.367.814-.818.814H4.518zm4.909 0a.816.816 0 01-.818-.814c0-.449.366-.813.818-.813h1.637c.452 0 .818.364.818.813 0 .45-.366.814-.818.814H9.427zm-4.909 3.256a.816.816 0 01-.818-.814c0-.45.366-.814.818-.814h1.637c.451 0 .818.364.818.814 0 .45-.367.814-.818.814H4.518zm4.909 0a.816.816 0 01-.818-.814c0-.45.366-.814.818-.814h1.637c.452 0 .818.364.818.814 0 .45-.366.814-.818.814H9.427zM5.09 5.207V7.65h9.82V5.207H5.09zM4.274 3.58h11.454c.452 0 .818.364.818.814v4.069c0 .45-.366.814-.818.814H4.273a.816.816 0 01-.818-.814v-4.07c0-.449.366-.813.818-.813z"/></g></g></svg>