<svg xmlns="http://www.w3.org/2000/svg" width="16" height="16" viewBox="0 0 16 16">
    <g fill="none" fill-rule="evenodd">
        <g>
            <g>
                <path d="M0 0h16v16H0V0zm0 0h16v16H0V0zm0 0h16v16H0V0zm0 0h16v16H0V0z" transform="translate(-858 -1261) translate(858 1261)"/>
                <path fill="#FFF" d="M8 4.333c1.84 0 3.333 1.494 3.333 3.334 0 .34-.066.666-.16.973l2.04 2.04c.927-.82 1.66-1.847 2.12-3.02-1.153-2.92-4-4.993-7.333-4.993-.847 0-1.66.133-2.427.38L7.02 4.493c.313-.093.64-.16.98-.16zM1.807 2.107c-.26.26-.26.68 0 .94L3.12 4.36C2.04 5.22 1.18 6.353.667 7.667c1.153 2.926 4 5 7.333 5 1.013 0 1.98-.2 2.873-.547l1.814 1.813c.26.26.68.26.94 0 .26-.26.26-.68 0-.94L2.753 2.107c-.26-.26-.686-.26-.946 0zM8 11c-1.84 0-3.333-1.493-3.333-3.333 0-.514.12-1 .326-1.427L6.04 7.287c-.02.12-.04.246-.04.38 0 1.106.893 2 2 2 .133 0 .253-.02.38-.047l1.047 1.047C8.993 10.88 8.513 11 8 11zm1.98-3.553c-.1-.934-.833-1.66-1.76-1.76l1.76 1.76z" transform="translate(-858 -1261) translate(858 1261)"/>
            </g>
        </g>
    </g>
</svg>
