<?xml version="1.0" encoding="UTF-8"?>
<svg width="27px" height="30px" viewBox="0 0 27 30" version="1.1" xmlns="http://www.w3.org/2000/svg" xmlns:xlink="http://www.w3.org/1999/xlink">
    <!-- Generator: sketchtool 49.1 (51147) - http://www.bohemiancoding.com/sketch -->
    <title>77677117-C7BB-4A69-9D57-2397A35ED961</title>
    <desc>Created with sketchtool.</desc>
    <defs></defs>
    <g id="Écrans" stroke="none" stroke-width="1" fill="none" fill-rule="evenodd">
        <g id="PassCulture-v0rc3-HP2-menu2" transform="translate(-175.000000, -445.000000)">
            <g id="ICONS/ico-calendar-w" transform="translate(167.000000, 437.000000)">
                <rect id="crop" x="0" y="0" width="44" height="47"></rect>
                <g id="Group-Copy" stroke-width="1" fill-rule="evenodd" transform="translate(9.000000, 9.613636)" stroke="#FFFFFF" stroke-linecap="round" stroke-linejoin="round">
                    <rect id="Rectangle-5" stroke-width="2" x="0" y="2.13636364" width="25" height="24.5681818"></rect>
                    <path d="M8,13.8863636 L9,13.8863636" id="Line-Copy" stroke-width="2"></path>
                    <path d="M8,18.1590909 L9,18.1590909" id="Line-Copy-5" stroke-width="2"></path>
                    <path d="M8,22.4318182 L9,22.4318182" id="Line-Copy-21" stroke-width="2"></path>
                    <path d="M4,13.8863636 L5,13.8863636" id="Line-Copy-4" stroke-width="2"></path>
                    <path d="M4,18.1590909 L5,18.1590909" id="Line-Copy-6" stroke-width="2"></path>
                    <path d="M4,22.4318182 L5,22.4318182" id="Line-Copy-22" stroke-width="2"></path>
                    <path d="M12,9.61363636 L13,9.61363636" id="Line" stroke-width="2"></path>
                    <path d="M12,13.8863636 L13,13.8863636" id="Line-Copy-2" stroke-width="2"></path>
                    <path d="M12,18.1590909 L13,18.1590909" id="Line-Copy-7" stroke-width="2"></path>
                    <path d="M16,9.61363636 L17,9.61363636" id="Line" stroke-width="2"></path>
                    <path d="M20,9.61363636 L21,9.61363636" id="Line-Copy-11" stroke-width="2"></path>
                    <path d="M16,13.8863636 L17,13.8863636" id="Line-Copy-3" stroke-width="2"></path>
                    <path d="M16,18.1590909 L17,18.1590909" id="Line-Copy-8" stroke-width="2"></path>
                    <path d="M20,13.8863636 L21,13.8863636" id="Line-Copy-13" stroke-width="2"></path>
                    <path d="M20,18.1590909 L21,18.1590909" id="Line-Copy-15" stroke-width="2"></path>
                    <path d="M6,0 L6,4.27272727" id="line" stroke-width="2" transform="translate(6.000000, 2.136364) scale(1, -1) translate(-6.000000, -2.136364) "></path>
                    <path d="M19,0 L19,4.27272727" id="line" stroke-width="2" transform="translate(19.000000, 2.136364) scale(1, -1) translate(-19.000000, -2.136364) "></path>
                </g>
            </g>
        </g>
    </g>
</svg>