<svg xmlns="http://www.w3.org/2000/svg" width="16" height="16" viewBox="0 0 16 16">
    <g fill="none" fill-rule="evenodd">
        <path d="M0 0L16 0 16 16 0 16z" opacity=".87"/>
        <path fill="#FFF" d="M8 1.333c-3.687 0-6.667 2.98-6.667 6.667S4.313 14.667 8 14.667s6.667-2.98 6.667-6.667S11.687 1.333 8 1.333zm0 12c-2.94 0-5.333-2.393-5.333-5.333C2.667 5.06 5.06 2.667 8 2.667c2.94 0 5.333 2.393 5.333 5.333 0 2.94-2.393 5.333-5.333 5.333zm2.393-8.666L8 7.06 5.607 4.667l-.94.94L7.06 8l-2.393 2.393.94.94L8 8.94l2.393 2.393.94-.94L8.94 8l2.393-2.393-.94-.94z"/>
    </g>
</svg>
