<?xml version="1.0" encoding="UTF-8"?>
<svg width="28px" height="23px" viewBox="0 0 28 23" version="1.1" xmlns="http://www.w3.org/2000/svg" xmlns:xlink="http://www.w3.org/1999/xlink">
    <!-- Generator: sketchtool 50.2 (55047) - http://www.bohemiancoding.com/sketch -->
    <title>D7804E1A-01A0-4914-B57A-4413315FED7F</title>
    <desc>Created with sketchtool.</desc>
    <defs></defs>
    <g id="Portail-pro" stroke="none" stroke-width="1" fill="none" fill-rule="evenodd">
        <g id="Passculture-Pro-menu" transform="translate(-971.000000, -120.000000)">
            <g id="USER-MENU" transform="translate(955.000000, 0.000000)">
                <g id="Stacked-Group" transform="translate(0.000000, 8.000000)">
                    <g id="Group-3-Copy" transform="translate(12.000000, 105.000000)">
                        <g id="ICONS/ico-venue">
                            <rect id="Background" x="0" y="0" width="36" height="35.8085106"></rect>
                            <g id="Group">
                                <rect id="crop" x="0" y="0" width="36" height="35.8085106"></rect>
                                <path d="M7.36363636,29.2978723 C6.91176702,29.2978723 6.54545455,28.9335083 6.54545455,28.4840426 L6.54545455,16.2765957 C6.54545455,15.82713 6.91176702,15.462766 7.36363636,15.462766 L28.6363636,15.462766 C29.088233,15.462766 29.4545455,15.82713 29.4545455,16.2765957 L29.4545455,28.4840426 C29.4545455,28.9335083 29.088233,29.2978723 28.6363636,29.2978723 L7.36363636,29.2978723 Z M8.18181818,27.6702128 L27.8181818,27.6702128 L27.8181818,17.0904255 L8.18181818,17.0904255 L8.18181818,27.6702128 Z" id="Stroke-3" fill="black" fill-rule="nonzero"></path>
                                <path d="M20.4545455,28.8909574 C20.0026761,28.8909574 19.6363636,28.5265934 19.6363636,28.0771277 L19.6363636,20.3457447 C19.6363636,19.8962789 20.0026761,19.5319149 20.4545455,19.5319149 L25.3636364,19.5319149 C25.8155057,19.5319149 26.1818182,19.8962789 26.1818182,20.3457447 L26.1818182,28.0771277 C26.1818182,28.5265934 25.8155057,28.8909574 25.3636364,28.8909574 L20.4545455,28.8909574 Z M24.5454545,27.6702128 L24.5454545,21.1595745 L21.2727273,21.1595745 L21.2727273,27.6702128 L24.5454545,27.6702128 Z" id="Stroke-9-Copy" fill="black" fill-rule="nonzero"></path>
                                <path d="M10.6363636,25.2287234 C10.1844943,25.2287234 9.81818182,24.8643594 9.81818182,24.4148936 L9.81818182,20.3457447 C9.81818182,19.8962789 10.1844943,19.5319149 10.6363636,19.5319149 L17.1818182,19.5319149 C17.6336875,19.5319149 18,19.8962789 18,20.3457447 L18,24.4148936 C18,24.8643594 17.6336875,25.2287234 17.1818182,25.2287234 L10.6363636,25.2287234 Z M16.3636364,23.6010638 L16.3636364,21.1595745 L11.4545455,21.1595745 L11.4545455,23.6010638 L16.3636364,23.6010638 Z" id="Stroke-9-Copy-2" fill="black" fill-rule="nonzero"></path>
                                <path d="M4.90909091,17.0904255 C4.45722157,17.0904255 4.09090909,16.7260615 4.09090909,16.2765957 L4.09090909,12.2074468 C4.09090909,11.757981 4.45722157,11.393617 4.90909091,11.393617 L31.0909091,11.393617 C31.5427784,11.393617 31.9090909,11.757981 31.9090909,12.2074468 L31.9090909,16.2765957 C31.9090909,16.7260615 31.5427784,17.0904255 31.0909091,17.0904255 L4.90909091,17.0904255 Z M5.72727273,15.462766 L30.2727273,15.462766 L30.2727273,13.0212766 L5.72727273,13.0212766 L5.72727273,15.462766 Z" id="Stroke-11" fill="black" fill-rule="nonzero"></path>
                                <path d="M7.36363636,13.0212766 C6.91176702,13.0212766 6.54545455,12.6569126 6.54545455,12.2074468 L6.54545455,8.13829787 C6.54545455,7.68883209 6.91176702,7.32446809 7.36363636,7.32446809 L28.6363636,7.32446809 C29.088233,7.32446809 29.4545455,7.68883209 29.4545455,8.13829787 L29.4545455,12.2074468 C29.4545455,12.6569126 29.088233,13.0212766 28.6363636,13.0212766 L7.36363636,13.0212766 Z M8.18181818,11.393617 L27.8181818,11.393617 L27.8181818,8.95212766 L8.18181818,8.95212766 L8.18181818,11.393617 Z" id="Stroke-12" fill="black" fill-rule="nonzero"></path>
                            </g>
                        </g>
                    </g>
                </g>
            </g>
        </g>
    </g>
</svg>
