<svg xmlns="http://www.w3.org/2000/svg" width="24" height="24" viewBox="0 0 24 24"><g fill="none"><path fill="#EB0055" d="M14.667 3.058c0 4.05-2.445 12.222-7.334 12.222C2.445 15.28 0 7.109 0 3.058 0-1.729 5.5.613 7.333.613c1.808 0 7.334-2.367 7.334 2.445z"/><path fill="#FFAFCC" d="M3.667 7.947C6.722 9.78 8.555 9.78 11 7.947c1.833-1.222-1.222 4.278-3.667 4.278-2.444 0-5.5-5.5-3.666-4.278zM2.444 5.503a.612.612 0 01-.546-.885c.424-.848 1.289-1.433 2.202-1.49.56-.031 1.639.103 2.52 1.425a.611.611 0 01-1.017.678c-.407-.61-.904-.916-1.427-.883-.487.03-.952.35-1.185.817a.613.613 0 01-.547.338zm9.779 0a.61.61 0 01-.547-.338c-.233-.466-.698-.787-1.185-.818-.517-.028-1.019.273-1.426.883a.608.608 0 01-.548.27.611.611 0 01-.469-.948c.88-1.322 1.954-1.457 2.52-1.425.913.057 1.777.642 2.201 1.49a.611.611 0 01-.546.886z"/><path fill="#06F" d="M24 11.778C24 15.828 21.555 24 16.667 24c-4.889 0-7.334-8.173-7.334-12.222 0-4.787 5.5-2.445 7.334-2.445 1.808 0 7.333-2.368 7.333 2.445z"/><path fill="#9CC3FF" d="M19.667 20.1c-2.334-1.433-3.667-1.433-6 0-1.834 1.223.555-2.944 3-2.944 2.444 0 4.833 4.167 3 2.945zm-8.334-5.489a.612.612 0 01-.546-.884c.466-.933 1.602-1.66 2.7-1.728.993-.066 1.877.39 2.466 1.274a.613.613 0 01-1.017.678c-.348-.521-.81-.765-1.373-.732-.747.046-1.442.572-1.684 1.055a.608.608 0 01-.546.337zm10.668 0a.612.612 0 01-.548-.338c-.24-.482-.935-1.008-1.682-1.055-.562-.031-1.026.21-1.374.733a.61.61 0 11-1.016-.679c.589-.884 1.458-1.34 2.466-1.274 1.098.069 2.234.796 2.7 1.729a.61.61 0 01-.546.885z"/></g></svg>