<svg width="28" height="15" viewBox="0 0 28 15" xmlns="http://www.w3.org/2000/svg" xmlns:xlink="http://www.w3.org/1999/xlink"><defs><path d="M18.142 12.682c-5.43 0-10.175 2.429-12.824 6.06 2.65 3.63 7.395 6.06 12.824 6.06 5.428 0 10.174-2.43 12.823-6.06-2.65-3.631-7.395-6.06-12.823-6.06z" id="a"/></defs><g transform="translate(-4 -11)" fill="none" fill-rule="evenodd"><path d="M0 0h36v36H0z"/><path d="M0 0h36v36H0z"/><mask id="b" fill="#fff"><use xlink:href="#a"/></mask><use stroke="#E60039" stroke-width="2" stroke-linecap="round" stroke-linejoin="round" xlink:href="#a"/><path d="M18 23.727a5.727 5.727 0 110-11.454 5.727 5.727 0 010 11.454zm-.049-1.685a4.09 4.09 0 100-8.181 4.09 4.09 0 000 8.181zm0-.818a3.273 3.273 0 110-6.545 3.273 3.273 0 010 6.545z" stroke="#E60039" stroke-width="2" stroke-linecap="round" stroke-linejoin="round" mask="url(#b)"/></g></svg>