<svg xmlns="http://www.w3.org/2000/svg" width="24" height="24" viewBox="0 0 24 24"><g fill="none"><path fill="#292F33" d="M4 10h16v1.333H4V10zm10 10c0 1.472-.528 2.667-2 2.667-1.473 0-2-1.195-2-2.667 0-1.472.527-1.333 2-1.333 1.472 0 2-.139 2 1.333z"/><path fill="#66757F" d="M12 20.667c-4.418 0-6.667.895-6.667 2V24h13.334v-1.333c0-1.105-2.249-2-6.667-2z"/><path fill="#99AAB5" d="M12 0a6 6 0 00-6 6v4.667h12V6a6 6 0 00-6-6z"/><g fill="#292F33" transform="translate(6 .667)"><circle cx="4.333" cy="1" r="1"/><circle cx="7.667" cy="1" r="1"/><circle cx="5.667" cy="3.667" r="1"/><circle cx="9" cy="3.667" r="1"/><circle cx="2.333" cy="3.667" r="1"/><circle cx="4.333" cy="6.333" r="1"/><circle cx="1" cy="6.333" r="1"/><circle cx="7.667" cy="6.333" r="1"/><circle cx="11" cy="6.333" r="1"/><circle cx="5.667" cy="9" r="1"/><circle cx="9" cy="9" r="1"/><circle cx="2.333" cy="9" r="1"/></g><path fill="#66757F" d="M6 10.041v1.292a6 6 0 1012 0v-1.292H6z"/><path fill="#66757F" d="M20 9.333a.667.667 0 00-.667.667v1.333a7.334 7.334 0 11-14.666 0V10a.667.667 0 00-1.334 0v1.333C3.333 16.12 7.213 20 12 20s8.667-3.88 8.667-8.667V10A.667.667 0 0020 9.333z"/></g></svg>