<svg xmlns="http://www.w3.org/2000/svg" width="16" height="16" viewBox="0 0 16 16">
    <g fill="none" fill-rule="evenodd">
        <path d="M0 0L16 0 16 16 0 16z"/>
        <path fill="#FFF" d="M7.993 1.333c-3.68 0-6.66 2.987-6.66 6.667 0 3.68 2.98 6.667 6.66 6.667 3.687 0 6.674-2.987 6.674-6.667 0-3.68-2.987-6.667-6.674-6.667zm.007 12c-2.947 0-5.333-2.386-5.333-5.333S5.053 2.667 8 2.667 13.333 5.053 13.333 8 10.947 13.333 8 13.333zm.333-8.666h-1v4l3.5 2.1.5-.82-3-1.78v-3.5z"/>
    </g>
</svg>
