<svg xmlns="http://www.w3.org/2000/svg" width="124" height="124" viewBox="0 0 124 124">
    <path fill="#C7C7CC" fill-rule="evenodd" d="M61.07 36.813c1.07 0 1.938.867 1.938 1.937 0 .98-.73 1.792-1.675 1.92l-.263.017-10.798-.006c-1.896.153-3.346 1.714-3.392 3.688l.008.374-.005 44.978c-.128 1.898 1.202 3.562 2.91 3.881l.324.044 30.844.006c1.897-.153 3.346-1.714 3.393-3.687l-.008-.375V70.318c0-1.07.867-1.937 1.937-1.937.981 0 1.792.729 1.92 1.674l.018.263-.005 19.141c.27 3.986-2.598 7.466-6.645 8.013l-.454.049-31.156-.006c-3.981-.321-7.001-3.67-6.965-7.498l.017-.427.004-44.716c-.27-3.985 2.598-7.466 6.645-8.013l.455-.048H61.07zM39.62 41.11c.243.95-.262 1.916-1.147 2.275l-.25.083-5.294 1.354c-1.734.498-2.811 2.194-2.562 3.966l.068.355 10.204 44.82c.238 1.044-.416 2.083-1.459 2.32-.956.218-1.909-.313-2.244-1.206l-.075-.253L26.663 50.03c-.905-3.74 1.18-7.525 4.809-8.805l.442-.141 5.348-1.37c1.037-.265 2.092.36 2.357 1.397zm44.57-11.635c4.112 0 8.054 1.633 10.961 4.54 2.907 2.906 4.54 6.849 4.54 10.96 0 8.56-6.94 15.5-15.5 15.5-8.56 0-15.5-6.94-15.5-15.5 0-8.56 6.94-15.5 15.5-15.5zm-6.044 6.69c-.757-.755-1.982-.755-2.739 0-.369.36-.577.854-.577 1.37 0 .515.208 1.01.578 1.369l6.044 6.07-6.044 6.046c-.37.36-.578.853-.578 1.369s.208 1.01.578 1.37c.356.373.853.58 1.369.568.514.002 1.007-.203 1.369-.569l6.045-6.045 6.07 6.045c.357.374.854.58 1.37.569.514.002 1.008-.203 1.369-.569.756-.756.756-1.982 0-2.738l-6.07-6.045L93 38.905c.711-.763.69-1.953-.047-2.69-.738-.739-1.928-.76-2.691-.048l-6.071 6.07z"/>
</svg>
