<svg xmlns="http://www.w3.org/2000/svg" width="16" height="16" viewBox="0 0 16 16">
    <g fill="none" fill-rule="evenodd">
        <g>
            <g>
                <path d="M0 0L16 0 16 16 0 16z" transform="translate(-1105 -564) translate(1105 564)"/>
                <path fill="#EB0055" d="M2 11.64v2.027c0 .186.147.333.333.333H4.36c.087 0 .173-.033.233-.1l7.28-7.273-2.5-2.5L2.1 11.4c-.067.067-.1.147-.1.24zm11.807-6.947c.26-.26.26-.68 0-.94l-1.56-1.56c-.26-.26-.68-.26-.94 0l-1.22 1.22 2.5 2.5 1.22-1.22z" transform="translate(-1105 -564) translate(1105 564)"/>
            </g>
        </g>
    </g>
</svg>
