<svg xmlns="http://www.w3.org/2000/svg" width="48" height="48" viewBox="0 0 48 48"><defs><linearGradient id="a" x1="0%" x2="100%" y1="3.461%" y2="96.539%"><stop offset="0%" stop-color="#EB0055"/><stop offset="100%" stop-color="#320096"/></linearGradient></defs><path fill="url(#a)" fill-rule="evenodd" d="M33.548 11.353a2.75 2.75 0 013.368 1.945l.518 1.932a2.75 2.75 0 01-1.945 3.368L18.124 23.25l17.549.001c1.536-.096 2.869 1.021 3.06 2.575l.017.174-.002 10.05c-.104 1.536-1.386 2.712-2.863 2.706l-.165-.006H31.5a.75.75 0 01-.102-1.493l.102-.007 4.267.001c.724.046 1.354-.467 1.468-1.126L37.25 36l.002-9.95c-.05-.723-.64-1.28-1.39-1.302l-.142.002-21.487-.001c-.724-.046-1.354.467-1.468 1.126L12.75 26l-.002 9.95c.05.723.64 1.28 1.39 1.302l.142-.002H27.5a.75.75 0 01.102 1.493l-.102.007-13.173-.001c-1.536.096-2.869-1.021-3.06-2.575L11.25 36l.002-10.05a2.914 2.914 0 01.906-1.922 2.736 2.736 0 01-1.297-1.678l-.518-1.932a2.75 2.75 0 011.945-3.368zm-14.732 5.5l-6.14 1.646a1.25 1.25 0 00-.884 1.53l.518 1.933a1.25 1.25 0 001.53.883l1.551-.416 3.425-5.576zm6.339-1.698l-4.402 1.179-3.425 5.576 3.878-1.04 3.949-5.715zm5.669-1.52L27 14.663a.614.614 0 01-.061.244l-.049.083-3.696 5.349 3.807-1.02a.638.638 0 01.06-.224l.05-.083 3.713-5.375zm4.643.051a1.25 1.25 0 00-1.53-.884l-1.127.302-3.951 5.716 6.242-1.671a1.25 1.25 0 00.91-1.406l-.026-.125z" opacity=".9"/></svg>