<svg xmlns="http://www.w3.org/2000/svg" width="24" height="24" viewBox="0 0 24 24"><g fill="none"><path fill="#66757F" d="M12 0C6.477 0 2 4.477 2 10v6h2v-6c0-4.667 3.513-8.125 8-8.125S20 5.333 20 10v6.667L22 16v-6c0-5.523-4.477-10-10-10z"/><path fill="#31373D" d="M4 18c0 .736-.597 1.333-1.333 1.333H1.333A1.333 1.333 0 010 18v-6c0-.736.597-1.333 1.333-1.333h1.334A1.332 1.332 0 014 12v6zm20 0c0 .736-.597 1.333-1.333 1.333h-1.334A1.333 1.333 0 0120 18v-6c0-.736.597-1.333 1.333-1.333h1.334c.736 0 1.333.597 1.333 1.333v6z"/><path fill="#EB0055" d="M12.788 6.677l-4.243.876A.713.713 0 008 8.222v10.79a4.148 4.148 0 00-1.391-.24c-1.857 0-3.362 1.17-3.362 2.615 0 1.443 1.506 2.551 3.362 2.551 1.824-.001 3.339-1.271 3.391-2.605V10.927l2.803-.582c.299-.062.53-.363.53-.669V7.121a.436.436 0 00-.545-.444zm5.333 2.101l-2.864.577c-.3.062-.59.362-.59.668v7.604c0-.102-.586-.16-.934-.16-1.349 0-2.422.85-2.422 1.901 0 1.05 1.106 1.9 2.456 1.9 1.35 0 2.451-.85 2.451-1.9l-.01-7.524 1.913-.399a.714.714 0 00.546-.668V9.223a.438.438 0 00-.546-.445z"/></g></svg>