<?xml version="1.0" ?><!DOCTYPE svg  PUBLIC '-//W3C//DTD SVG 1.1//EN'  'http://www.w3.org/Graphics/SVG/1.1/DTD/svg11.dtd'><svg enable-background="new 0 0 500 500" height="500px" id="Layer_1" version="1.1" viewBox="0 0 500 500" width="500px" xml:space="preserve" xmlns="http://www.w3.org/2000/svg" xmlns:xlink="http://www.w3.org/1999/xlink"><path fill="#e60039" d="M470.367,63.572l-32.484-33.081c-8.249-8.362-18.652-12.841-28.176-13.011c-7.087-0.113-13.691,2.154-18.567,6.945  l-37.502,36.878c-0.596,0.624-273.202,268.411-273.202,268.411L18.84,481.736l145.614-65.424l283.35-277.481l27.921-28.488  C487.148,99.118,484.768,78.198,470.367,63.572z M77.517,439.67l-18.17-18.793l26.503-64.998l54.056,55.898L77.517,439.67z   M460.475,94.838l-40.45,42.15l-54.821-56.749l41.187-40.28c0.482-0.481,1.588-0.737,2.948-0.708  c3.26,0.057,8.419,1.814,13.039,6.492l32.485,33.08c3.515,3.571,5.811,7.908,6.236,11.849  C461.354,92.882,460.957,94.355,460.475,94.838z"/></svg>