<svg xmlns="http://www.w3.org/2000/svg" width="24" height="24" viewBox="0 0 24 24"><g fill="none"><path fill="#F18F26" d="M0 12h24v6H0z"/><ellipse cx="12" cy="17.333" fill="#F18F26" rx="12" ry="6"/><ellipse cx="12" cy="18" fill="#EB0055" rx="12" ry="6"/><path fill="#06F" d="M0 6.667v10.666h.078c.664 3 5.746 5.334 11.922 5.334s11.258-2.334 11.922-5.334H24V6.667H0z"/><ellipse cx="12" cy="7.333" fill="#F18F26" rx="12" ry="6"/><ellipse cx="12" cy="8" fill="#EB0055" rx="12" ry="6"/><path fill="#F18F26" d="M0 6.667h.667V8H0V6.667zm23.333 0H24V8h-.667V6.667z"/><ellipse cx="12" cy="6.667" fill="#FF72A5" rx="12" ry="6"/><ellipse cx="12" cy="6.667" fill="#F5F8FA" rx="11.333" ry="5.333"/><path fill="#EB0055" d="M12 2c6.02 0 10.93 2.21 11.297 5 .015-.11.036-.22.036-.333 0-2.946-5.074-5.334-11.333-5.334C5.74 1.333.667 3.721.667 6.667c0 .112.021.222.036.333C1.07 4.21 5.98 2 12 2z"/><path fill="#320096" d="M19.067 1.733a.669.669 0 00.134-.934l-.4-.533a.67.67 0 00-.934-.133L9.438 6.829c-.516-.112-1.19.055-1.782.499-.884.663-1.242 1.677-.8 2.267.442.589 1.517.529 2.4-.134.557-.417.903-.974.975-1.476l8.836-6.252zm3.912 1.946l-.339-.574a.669.669 0 00-.913-.235L12.45 8.704c-.479-.094-1.084.015-1.648.35-.95.561-1.418 1.53-1.043 2.165.375.634 1.45.692 2.4.13.67-.396 1.092-.993 1.157-1.534l9.428-5.223a.668.668 0 00.234-.913zM1.333 18.667A.669.669 0 01.667 18v-6c0-.367.3-.667.666-.667.367 0 .667.3.667.667v6c0 .367-.3.667-.667.667zm6 2.666a.668.668 0 01-.666-.666v-6c0-.367.3-.667.666-.667.367 0 .667.3.667.667v6c0 .366-.3.666-.667.666zm8 0a.668.668 0 01-.666-.666v-6c0-.367.3-.667.666-.667.367 0 .667.3.667.667v6c0 .366-.3.666-.667.666zm7.334-2.666A.669.669 0 0122 18v-6c0-.367.3-.667.667-.667.366 0 .666.3.666.667v6c0 .367-.3.667-.666.667z"/></g></svg>