<svg xmlns="http://www.w3.org/2000/svg" width="40" height="40" viewBox="0 0 40 40"><defs><linearGradient id="a" x1=".001%" x2="99.999%" y1="0%" y2="100%"><stop offset="0%" stop-color="#EB0055"/><stop offset="100%" stop-color="#320096"/></linearGradient></defs><path fill="url(#a)" fill-rule="evenodd" d="M27.902 10.588a.625.625 0 01-.803.957A11.042 11.042 0 1031.042 20a.625.625 0 011.25 0 12.292 12.292 0 11-4.39-9.412zm-1.84 4.006a8.126 8.126 0 01-10.125 12.447.625.625 0 01.626-1.082 6.876 6.876 0 10-2.865-3.209.625.625 0 01-1.146.5 8.126 8.126 0 0113.51-8.656zM20 16.042a.625.625 0 010 1.25A2.707 2.707 0 1022.708 20a.625.625 0 011.25 0A3.958 3.958 0 1120 16.042zm0 3.125a.833.833 0 110 1.666.833.833 0 010-1.666z"/></svg>