<svg width="30" height="25" viewBox="0 0 30 25" xmlns="http://www.w3.org/2000/svg"><g fill="none"><path d="M-3-5h36v35.809H-3z"/><path d="M6.818 8.021v11.394h1.637V8.02H6.818zm-1.636 0H1.09C.228 8.021-.047 6.78.725 6.41L14.634.131a.85.85 0 01.731 0l13.91 6.278c.772.37.497 1.612-.366 1.612h-4.09v11.394h2.454c.452 0 .818.351.818.785v3.235c0 .433-.366.785-.818.785H2.727c-.452 0-.818-.352-.818-.785V20.2c0-.434.366-.785.818-.785h2.455V8.02zm18 0h-1.637v11.394h1.637V8.02zm-3.273 0h-2.454v11.394h2.454V8.02zm-4.09 0h-1.637v11.394h1.636V8.02zm-3.274 0h-2.454v11.394h2.454V8.02zm-9 14.65h22.91v-1.628H3.545v1.627zM25.443 6.393L15 1.836 4.557 6.394h20.886z" fill="#EB0055"/></g></svg>