<svg xmlns="http://www.w3.org/2000/svg" width="24" height="24" viewBox="0 0 24 24"><g fill="none"><ellipse cx="12" cy="20.36" fill="#06F" rx="12" ry="3.573"/><path fill="#88C9F9" d="M22.542 19.025c0 1.078-1.667 1.725-9.655 1.725-7.283 0-9.074-.647-9.074-1.725 0-1.077 3.788-1.95 9.074-1.95s9.655.873 9.655 1.95z"/><path fill="#FF8000" d="M4.667 18.833c0-.666.666-3.333 7.333-3.333 8 0 10 2.667 10 3.333 0 .667 0 1.334-9.333 1.334-8 0-8-.667-8-1.334z"/><path fill="#757575" d="M13.747 18.445a.856.856 0 01-1.673-.364L15.461.758a.855.855 0 111.672.363l-3.387 17.324z"/><path fill="#EB0055" d="M16.239 1.218C11.157.115 6.334 2.467 5.465 6.47c0 0-.242 1.115.316 1.236s1.915-.752 1.915-.752l13.939 3.025s.872 1.358 1.43 1.479c.558.121.8-.994.8-.994.869-4.004-2.546-8.143-7.626-9.246z"/><path fill="#B3E7FF" d="M16.239 1.218c-3.85-.835-7.674 1.733-8.543 5.735 0 0-.242 1.116.873 1.358 1.116.242 3.03-.51 3.03-.51l6.133 1.331s1.43 1.478 2.546 1.72c1.115.242 1.357-.873 1.357-.873.868-4.003-1.548-7.926-5.396-8.761z"/><path fill="#EB0055" d="M16.239 1.218c-2.002-.434-3.772 2.58-4.64 6.583 0 0 1.43 1.478 2.545 1.72l.558.122c1.115.241 3.03-.511 3.03-.511.869-4.003.509-7.48-1.493-7.914z"/><path fill="#FFAC33" d="M10.563 18.632c.312-.285 1.166-.217 1.666-.401.5-.184.813-.418 1.23-.251.416.167.541.418.937.452.396.034.687.268.52.452-.166.184-1.479.25-2.353.25-.875 0-2.386-.15-2-.502z"/></g></svg>