<?xml version="1.0" encoding="UTF-8"?>
<svg width="20px" height="20px" viewBox="0 0 21 32" xmlns="http://www.w3.org/2000/svg" xmlns:xlink="http://www.w3.org/1999/xlink">
    <g transform="translate(-331.000000, -109.000000)">
        <g transform="translate(-12.000000, 82.000000)">
            <g transform="translate(24.000000, 0.000000)">
                <g transform="translate(307.000000, 22.000000)">
                    <path d="M15.4526323,28.866653 L14.6516704,33.2539597 L18.0507085,30.366653 L30.2494108,9.23788085 C30.0704662,8.80506658 29.720793,8.43687597 29.1650635,8.1160254 C28.609334,7.79517484 28.115635,7.67644429 27.6513346,7.73788085 L15.4526323,28.866653 Z M26.6870069,5.91627 C27.821541,5.54238288 29.0019548,5.71245347 30.1650635,6.3839746 C31.3281722,7.05549573 32.0656646,7.99272878 32.3091359,9.16220766 C32.3592091,9.40272721 32.3189907,9.65326324 32.1961524,9.8660254 L19.6961524,31.5166605 C19.6388412,31.6159264 19.5648904,31.7046003 19.4775312,31.7788073 L13.8124677,36.5909851 C13.0963351,37.1993027 12.0125707,36.5735911 12.1813229,35.6492432 L13.5162594,28.3370654 C13.536845,28.2243067 13.5766634,28.1159264 13.6339746,28.0166605 L26.1339746,6.3660254 C26.2568129,6.15326324 26.4536743,5.99316507 26.6870069,5.91627 Z" fill="#FFFFFF"></path>
                </g>
            </g>
        </g>
    </g>
</svg>
