<svg width="23" height="15" viewBox="0 0 23 15" xmlns="http://www.w3.org/2000/svg"><g fill="none"><path d="M-7-12h36v36H-7z"/><path d="M-7-12h36v36H-7z"/><g fill="#E60039"><path d="M1.182 11.727a.818.818 0 110-1.636h9.409a.818.818 0 110 1.636H1.18zm16.773 0a.818.818 0 110-1.636h2.863a.818.818 0 110 1.636h-2.863z"/><path d="M18.773 10.91a3.273 3.273 0 11-6.546 0 3.273 3.273 0 016.546 0zm-1.637 0a1.636 1.636 0 10-3.272 0 1.636 1.636 0 003.272 0zM1.59 4.364a.818.818 0 110-1.637h3.683a.818.818 0 110 1.637H1.59zm11.046 0a.818.818 0 110-1.637h8.591a.818.818 0 110 1.637h-8.59z"/><path d="M13.455 3.545a3.273 3.273 0 11-6.546 0 3.273 3.273 0 016.546 0zm-1.637 0a1.636 1.636 0 10-3.273 0 1.636 1.636 0 003.273 0z"/></g></g></svg>