<svg xmlns="http://www.w3.org/2000/svg" width="308" height="194" viewBox="0 0 308 194">
    <path fill="#FFF" fill-rule="evenodd" d="M205.26 147.798l.2.183 32.832 32.855c1.221 1.222 1.221 3.203 0 4.425-1.157 1.158-2.994 1.219-4.223.183l-.199-.183-32.832-32.855c-1.221-1.222-1.221-3.203 0-4.425 1.157-1.158 2.994-1.219 4.223-.183zM83.107 161.641c1.379.591 2.852.945 4.373 1.042l.573.024c1.726.036 3.097 1.466 3.06 3.193-.035 1.728-1.464 3.1-3.19 3.063-2.532-.052-4.995-.59-7.281-1.571-1.587-.681-2.322-2.52-1.641-4.109.68-1.588 2.519-2.324 4.106-1.642zm20.915-6.45c1.48.892 1.957 2.815 1.066 4.295-1.29 2.144-2.983 4.024-4.977 5.533-1.378 1.042-3.339.77-4.38-.609-1.042-1.378-.77-3.34.608-4.383 1.36-1.028 2.513-2.31 3.391-3.77.891-1.48 2.813-1.957 4.292-1.066zm-28.902-4.374c.179 1.707.683 3.343 1.48 4.838.813 1.525.236 3.42-1.288 4.233-1.523.814-3.417.237-4.23-1.288-1.174-2.203-1.918-4.617-2.182-7.13-.18-1.719 1.066-3.258 2.784-3.438 1.717-.18 3.256 1.066 3.436 2.785zm94.514-69.462c19.427 0 35.18 15.76 35.18 35.2 0 19.44-15.754 35.203-35.18 35.203-19.426 0-35.176-15.763-35.176-35.203 0-19.44 15.75-35.2 35.176-35.2zm-64.25 58.49c1.222 2.178 2.02 4.575 2.338 7.08.218 1.714-.994 3.28-2.707 3.499-1.635.208-3.136-.888-3.459-2.479l-.038-.23c-.216-1.7-.756-3.326-1.587-4.804-.846-1.507-.31-3.414 1.195-4.26 1.505-.847 3.411-.312 4.257 1.194zm64.25-52.232c-15.973 0-28.922 12.958-28.922 28.942s12.95 28.945 28.922 28.945c15.972 0 28.925-12.962 28.925-28.945s-12.952-28.942-28.925-28.942zm-88.362 46.64c1.011 1.401.696 3.357-.704 4.369-1.382.998-2.563 2.254-3.473 3.695-.923 1.46-2.855 1.895-4.314.971-1.46-.924-1.894-2.856-.971-4.317 1.337-2.115 3.069-3.957 5.096-5.422 1.4-1.012 3.355-.697 4.366.704zm7.064-4.398c2.534 0 5.006.485 7.31 1.416 1.602.647 2.376 2.47 1.729 4.073-.647 1.602-2.469 2.377-4.07 1.73-1.564-.632-3.241-.961-4.969-.961-1.727 0-3.127-1.401-3.127-3.13 0-1.727 1.4-3.128 3.127-3.128zm141.736-18.475l14.48 6.147.202.095c1.455.759 2.086 2.47 1.458 3.948-.664 1.565-2.484 2.285-4.06 1.615l-14.482-6.147-.201-.094c-1.455-.76-2.086-2.47-1.459-3.949.665-1.565 2.484-2.284 4.062-1.615zm-68.079-13.103c1.023 1.392.723 3.35-.669 4.374-3.961 2.912-6.541 8.474-6.541 14.688 0 1.728-1.4 3.129-3.127 3.129-1.727 0-3.127-1.401-3.127-3.13 0-8.132 3.46-15.59 9.093-19.73 1.392-1.024 3.349-.724 4.371.669zm-57.24-1.002c1.726 0 3.126 1.401 3.126 3.13v6.257c0 1.728-1.4 3.13-3.127 3.13-1.727 0-3.127-1.402-3.127-3.13v-6.258c0-1.728 1.4-3.129 3.127-3.129zm138.988-5.208c1.647-.472 3.366.464 3.834 2.098.443 1.544-.392 3.165-1.929 3.742l-.21.069-15.123 4.336c-1.647.472-3.366-.464-3.834-2.098-.443-1.544.392-3.165 1.929-3.741l.21-.07zM104.751 78.501c1.727 0 3.127 1.4 3.127 3.129v6.258c0 1.728-1.4 3.13-3.127 3.13-1.727 0-3.127-1.402-3.127-3.13V81.63c0-1.728 1.4-3.129 3.127-3.129zm126.383-6.72c1.124-1.292 3.075-1.444 4.358-.328 1.213 1.054 1.396 2.868.42 4.188l-.139.173-10.321 11.873c-1.124 1.293-3.075 1.444-4.358.33-1.212-1.055-1.395-2.87-.42-4.19l.14-.172zm-43.52-9.64c1.727 0 3.127 1.401 3.127 3.13v6.257c0 1.728-1.4 3.129-3.127 3.129-1.727 0-3.127-1.401-3.127-3.13v-6.256c0-1.729 1.4-3.13 3.127-3.13zm-82.863-2.414c1.727 0 3.127 1.4 3.127 3.129v6.258c0 1.728-1.4 3.129-3.127 3.129-1.727 0-3.127-1.401-3.127-3.13v-6.257c0-1.728 1.4-3.13 3.127-3.13zm82.863-16.36c1.727 0 3.127 1.4 3.127 3.128v6.259c0 1.728-1.4 3.13-3.127 3.13-1.727 0-3.127-1.402-3.127-3.13v-6.259c0-1.728 1.4-3.129 3.127-3.129zm-82.863-2.414c1.727 0 3.127 1.4 3.127 3.129v6.258c0 1.728-1.4 3.129-3.127 3.129-1.727 0-3.127-1.401-3.127-3.13v-6.257c0-1.728 1.4-3.13 3.127-3.13zm82.863-16.362c1.727 0 3.127 1.401 3.127 3.13v6.257c0 1.728-1.4 3.13-3.127 3.13-1.727 0-3.127-1.402-3.127-3.13V27.72c0-1.728 1.4-3.129 3.127-3.129zm-76.31.806c1.638-.546 3.408.34 3.954 1.98.546 1.64-.34 3.412-1.979 3.958l-.392.142c-1.293.508-2.42 1.344-3.283 2.423-1.078 1.35-3.045 1.57-4.394.49-1.35-1.078-1.569-3.047-.49-4.397 1.697-2.125 3.975-3.726 6.583-4.596zm18.413-4.669c1.675-.421 3.374.596 3.795 2.272.42 1.676-.596 3.376-2.27 3.797l-6.066 1.525c-1.675.421-3.374-.596-3.795-2.272-.42-1.676.596-3.376 2.271-3.797zm18.197-4.574c1.674-.421 3.373.596 3.794 2.272.42 1.676-.596 3.376-2.27 3.797l-6.066 1.525c-1.675.421-3.374-.596-3.795-2.272-.42-1.676.596-3.376 2.271-3.797zm18.196-4.574c1.675-.421 3.373.596 3.794 2.272.42 1.676-.596 3.376-2.27 3.797l-6.066 1.525c-1.675.421-3.374-.596-3.795-2.272-.42-1.676.596-3.376 2.271-3.797zm10 .508c.405-1.68 2.094-2.713 3.773-2.308 2.649.64 5.063 2.036 6.944 4.002 1.194 1.249 1.151 3.23-.096 4.424-1.248 1.196-3.227 1.152-4.421-.096l-.296-.293c-1.009-.95-2.252-1.629-3.598-1.954l-.225-.063c-1.545-.496-2.468-2.109-2.081-3.712z"/>
</svg>
