<?xml version="1.0" encoding="UTF-8"?>
<svg width="25px" height="18px" viewBox="0 0 25 18" version="1.1" xmlns="http://www.w3.org/2000/svg" xmlns:xlink="http://www.w3.org/1999/xlink">
    <!-- Generator: sketchtool 50.2 (55047) - http://www.bohemiancoding.com/sketch -->
    <title>B86A1B2A-9DD3-47CF-8A2E-497F22338887</title>
    <desc>Created with sketchtool.</desc>
    <defs></defs>
    <g id="Portail-pro" stroke="none" stroke-width="1" fill="none" fill-rule="evenodd">
        <g id="Passculture-Pro-structure-creerFournisseur1" transform="translate(-722.000000, -17.000000)">
            <g id="BLOCKS/header-pro">
                <g id="Group-4" transform="translate(717.000000, 8.000000)">
                    <g id="ICONS/ico-guichet-w">
                        <rect id="Background" x="0" y="0" width="36" height="36"></rect>
                        <rect id="crop" x="0" y="0" width="36" height="36"></rect>
                        <g id="Group" transform="translate(17.590909, 17.590909) rotate(-270.000000) translate(-17.590909, -17.590909) translate(9.000000, 5.727273)" fill="#FFFFFF" fill-rule="nonzero">
                            <path d="M5.84585946,22.0909091 C6.19790231,20.9080272 7.29367338,20.0454545 8.59090909,20.0454545 C9.88814481,20.0454545 10.9839159,20.9080272 11.3359587,22.0909091 L15.5454545,22.0909091 L15.5454545,1.63636364 L11.3359587,1.63636364 C10.9839159,2.81924548 9.88814481,3.68181818 8.59090909,3.68181818 C7.29367338,3.68181818 6.19790231,2.81924548 5.84585946,1.63636364 L1.63636364,1.63636364 L1.63636364,22.0909091 L5.84585946,22.0909091 Z M0,23.7272727 L0,0 L7.36363636,1.81672859e-16 L7.36363636,0.818181818 C7.36363636,1.49598583 7.91310508,2.04545455 8.59090909,2.04545455 C9.2687131,2.04545455 9.81818182,1.49598583 9.81818182,0.818181818 L9.81818182,0 L17.1818182,0 L17.1818182,23.7272727 L9.81818182,23.7272727 L9.81818182,22.9090909 C9.81818182,22.2312869 9.2687131,21.6818182 8.59090909,21.6818182 C7.91310508,21.6818182 7.36363636,22.2312869 7.36363636,22.9090909 L7.36363636,23.7272727 L0,23.7272727 Z" id="Combined-Shape"></path>
                            <path d="M0.818181818,9 L0.818181818,7.36363636 L2.45454545,7.36363636 L2.45454545,9 L0.818181818,9 Z M4.09090909,9 L4.09090909,7.36363636 L5.72727273,7.36363636 L5.72727273,9 L4.09090909,9 Z M7.36363636,9 L7.36363636,7.36363636 L9,7.36363636 L9,9 L7.36363636,9 Z M10.6363636,9 L10.6363636,7.36363636 L12.2727273,7.36363636 L12.2727273,9 L10.6363636,9 Z M13.9090909,9 L13.9090909,7.36363636 L15.5454545,7.36363636 L15.5454545,9 L13.9090909,9 Z" id="Line"></path>
                        </g>
                    </g>
                </g>
            </g>
        </g>
    </g>
</svg>