<svg xmlns="http://www.w3.org/2000/svg" width="40" height="40" viewBox="0 0 40 40"><path fill="#FFF" fill-rule="evenodd" d="M11.667 28.506v-.024l.003-.04.004-.029a8.935 8.935 0 01.998-2.934 8.985 8.985 0 013.808-3.684l.23-.112c.077-.036.155-.072.233-.106l.237-.1a8.953 8.953 0 0112.178 6.936.577.577 0 01.008.1l-.008-.1c.007.045.01.089.007.132a.453.453 0 01-.009.074l-.005.026a.56.56 0 01-.019.067l-.012.033a.602.602 0 01-.024.052l-.02.034a.519.519 0 01-.058.081l-.003.004a11.6 11.6 0 01-2.079 1.9.625.625 0 01-.724-1.019 10.36 10.36 0 001.615-1.425l.046-.052-.032-.158a7.451 7.451 0 00-.182-.691l-.031-.097a7.75 7.75 0 00-.694-1.523l-.062-.102.062.102a8.413 8.413 0 00-.41-.62l-.073-.098.072.098a6.683 6.683 0 00-.143-.189l.07.091c-.044-.058-.09-.116-.136-.174l.066.083a10.616 10.616 0 00-.16-.198l.094.115a6.672 6.672 0 00-.133-.161l.038.046a7.603 7.603 0 00-.568-.609l.09.088a10.54 10.54 0 00-.186-.179l.097.091a7.82 7.82 0 00-.164-.153l.067.062c-.062-.057-.124-.114-.188-.17l.12.108a4.918 4.918 0 00-.17-.15l.05.043a7.135 7.135 0 00-.188-.158l.138.114a10.313 10.313 0 00-.194-.16l.056.046c-.06-.05-.123-.1-.186-.147l.13.101a7.39 7.39 0 00-.197-.153l.067.052a5.618 5.618 0 00-.174-.13l.107.078a8.475 8.475 0 00-.216-.156l.11.078-.195-.136.085.058a7.99 7.99 0 00-.214-.144l.13.086c-.059-.039-.117-.078-.177-.115l.047.03a5.984 5.984 0 00-.209-.131l.162.1a9.503 9.503 0 00-.224-.137l.062.037a7.033 7.033 0 00-.187-.11l.125.073a7.166 7.166 0 00-.258-.146l.133.073-.19-.104.057.031a5.877 5.877 0 00-.223-.116l.166.085c-.073-.038-.146-.076-.22-.112l.054.027a8.974 8.974 0 00-.433-.2l-.078-.032.078.033a7.559 7.559 0 00-1.189-.392l-.07-.017.07.017a8.19 8.19 0 00-.476-.1l-.103-.017a8.214 8.214 0 00-.475-.061l-.044-.004.044.004a7.556 7.556 0 00-.524-.033l-.228-.003c-.094 0-.187 0-.28.004-.14.006-.28.014-.42.027-.055.005-.111.01-.167.017a7.693 7.693 0 00-1.337.273l-.03.009.03-.01a7.703 7.703 0 00-1.553.659l-.03.016.03-.016a7.5 7.5 0 00-1.077.73c-.158.127-.31.26-.456.4a7.655 7.655 0 00-.39.395l-.109.122.11-.122a7.434 7.434 0 00-.686.867l-.067.099.067-.099c-.092.135-.18.274-.264.416l-.024.04.024-.04a7.119 7.119 0 00-.392.756l-.052.118.052-.119a7.649 7.649 0 00-.184.448l-.04.11.04-.11a7.57 7.57 0 00-.228.707l-.035.137-.046.195c-.015.069-.03.138-.043.207l.018.02-.018-.02c.149.165.302.323.46.477l.227.213.07.064c.546.488 1.138.915 1.768 1.274l.055.031-.055-.031c.097.055.195.109.294.16l-.24-.129c.094.053.189.104.284.153l-.044-.023c.087.046.175.09.263.134l-.22-.11c.11.057.222.112.334.165l-.114-.055c.089.043.178.085.268.126l-.154-.07c.096.045.192.088.289.13l-.135-.06c.097.044.195.087.294.128l-.16-.067c.1.043.2.085.3.125l-.14-.058c.1.042.2.081.3.12l-.16-.062c.093.037.186.072.279.106l-.12-.044c.115.043.23.085.346.124l-.226-.08c.097.036.195.07.294.103l-.068-.023c.088.03.176.058.265.086l-.197-.063c.113.037.227.073.342.106l-.145-.043c.1.03.2.06.302.088l-.157-.045c.1.03.2.057.3.083l-.143-.038c.098.026.196.052.296.076l-.154-.038c.107.028.214.053.322.078l-.168-.04c.12.03.242.056.364.081l-.196-.041c.098.022.197.042.296.062l-.1-.02c.116.023.233.045.351.065l-.251-.045c.107.02.214.04.321.056l-.07-.011c.12.02.242.038.364.054l-.294-.043c.108.018.215.033.323.047l-.029-.004c.338.044.68.071 1.025.081l.3.005c1.146 0 2.264-.19 3.323-.555a.625.625 0 11.408 1.181c-1.185.41-2.434.622-3.713.624h-.017c-.455 0-.905-.027-1.35-.08l-.076-.009a10.482 10.482 0 01-.59-.089l-.115-.021a11.382 11.382 0 01-2.089-.607c-.072-.028-.144-.058-.216-.088a11.506 11.506 0 01-4.263-3.118.624.624 0 01-.054-.074l.054.074a.624.624 0 01-.081-.121l-.021-.045-.002-.005-.013-.033-.014-.048-.003-.012-.003-.012-.004-.02-.006-.045-.003-.046v-.023zm8.85-20.172a4.672 4.672 0 014.672 4.672v2.242a4.673 4.673 0 01-9.346 0v-2.242a4.673 4.673 0 014.673-4.672zm0 1.25a3.422 3.422 0 00-3.424 3.422v2.242a3.424 3.424 0 006.846 0v-2.242a3.423 3.423 0 00-3.423-3.422z"/></svg>