<svg xmlns="http://www.w3.org/2000/svg" width="24" height="24" viewBox="0 0 24 24"><g fill="none" fill-rule="evenodd"><path fill="#555454" d="M1.42 9.904l-.003-.001S.05 18.18.05 19.374c0 1.216.895 2.201 2 2.201.453 0 .867-.172 1.202-.452l6.777-5.958L1.42 9.904zm21.127 0l.002-.001s1.368 8.278 1.368 9.471c0 1.216-.896 2.201-2 2.201-.454 0-.867-.172-1.202-.452l-6.778-5.958 8.61-5.261z"/><path fill="#151515" d="M17.317 4.7a5.667 5.667 0 015.666 5.667 5.671 5.671 0 01-4.419 5.53 3.333 3.333 0 01-6.582.298 3.333 3.333 0 01-6.579-.298 5.67 5.67 0 01-4.42-5.53A5.666 5.666 0 016.65 4.701z"/><circle cx="15.25" cy="15.534" r="2" fill="#757575" fill-rule="nonzero"/><circle cx="8.717" cy="15.534" r="2" fill="#757575" fill-rule="nonzero"/><circle cx="17.157" cy="7.422" r="1.069" fill="#FF8000" fill-rule="nonzero"/><circle cx="17.157" cy="11.738" r="1.069" fill="#15884F"/><circle cx="14.999" cy="9.58" r="1.069" fill="#06F"/><circle cx="19.315" cy="9.58" r="1.069" fill="#EB0055"/><path fill="#757575" fill-rule="nonzero" d="M7.432 8.343V6.897a.336.336 0 00-.337-.336H6.057a.336.336 0 00-.337.336v1.446l.856.856.856-.856zm-1.712 2.42v1.445c0 .186.15.337.336.337h1.039a.336.336 0 00.336-.337v-1.445l-.856-.857-.856.857zm3.512-2.067H7.787l-.857.857.857.856h1.445c.186 0 .336-.15.337-.336v-1.04a.337.337 0 00-.337-.337zm-3.866 0H3.92a.337.337 0 00-.337.337v1.038c0 .186.151.337.337.337h1.445l.857-.857-.856-.855z"/></g></svg>