<?xml version="1.0" encoding="UTF-8"?>
<svg width="30px" height="25px" viewBox="0 0 30 25" version="1.1" xmlns="http://www.w3.org/2000/svg" xmlns:xlink="http://www.w3.org/1999/xlink">
    <!-- Generator: sketchtool 54.1 (76490) - https://sketchapp.com -->
    <title>C6D12A14-7D51-482E-B571-A639BFA6360F</title>
    <desc>Created with sketchtool.</desc>
    <g id="Portail-pro" stroke="none" stroke-width="1" fill="none" fill-rule="evenodd">
        <g id="Passculture-Pro-menu" transform="translate(-970.000000, -118.000000)">
            <g id="USER-MENU" transform="translate(955.000000, 0.000000)">
                <g id="Stacked-Group" transform="translate(0.000000, 8.000000)">
                    <g id="Group-3-Copy" transform="translate(12.000000, 105.000000)">
                        <g id="ICONS/ico-structure">
                            <g id="Group">
                                <rect id="crop" x="0" y="0" width="36" height="35.8085098"></rect>
                                <path d="M9.81818201,13.0212763 L9.81818201,24.4148938 L11.4545453,24.4148938 L11.4545453,13.0212763 L9.81818201,13.0212763 Z M8.18181838,13.0212763 L4.09090912,13.0212763 C3.22754988,13.0212763 2.95279029,11.7795133 3.72499688,11.4091669 L17.6336309,5.13105166 C17.8639699,5.0205822 18.1350927,5.02057857 18.3654349,5.13104186 L32.2749824,11.4091571 C33.0472108,11.7794882 32.7724622,13.0212763 31.9090906,13.0212763 L27.8181816,13.0212763 L27.8181816,24.4148938 L30.2727273,24.4148938 C30.7245966,24.4148938 31.0909091,24.7662448 31.0909091,25.1996583 L31.0909091,28.4350233 C31.0909091,28.8684367 30.7245966,29.2197877 30.2727273,29.2197877 L5.72727273,29.2197877 C5.27540339,29.2197877 4.90909091,28.8684367 4.90909091,28.4350233 L4.90909091,25.1996583 C4.90909091,24.7662448 5.27540339,24.4148938 5.72727273,24.4148938 L8.18181838,24.4148938 L8.18181838,13.0212763 Z M26.181818,13.0212763 L24.5454544,13.0212763 L24.5454544,24.4148938 L26.181818,24.4148938 L26.181818,13.0212763 Z M22.9090907,13.0212763 L20.4545453,13.0212763 L20.4545453,24.4148938 L22.9090907,24.4148938 L22.9090907,13.0212763 Z M18.8181816,13.0212763 L17.181818,13.0212763 L17.181818,24.4148938 L18.8181816,24.4148938 L18.8181816,13.0212763 Z M15.5454544,13.0212763 L13.0909089,13.0212763 L13.0909089,24.4148938 L15.5454544,24.4148938 L15.5454544,13.0212763 Z M6.54545474,27.6702129 L29.4545456,27.6702129 L29.4545456,26.0425534 L6.54545474,26.0425534 L6.54545474,27.6702129 Z M28.4431094,11.3936168 L17.9995563,6.83617014 L7.55667485,11.3936168 L28.4431094,11.3936168 Z" id="Combined-Shape" fill="#EB0055" fill-rule="nonzero"></path>
                            </g>
                        </g>
                    </g>
                </g>
            </g>
        </g>
    </g>
</svg>