<svg xmlns="http://www.w3.org/2000/svg" width="24" height="24" viewBox="0 0 24 24"><g fill="none"><path fill="#EB0055" d="M19.227 11.759c-.658.696-1.089 2.044-.959 2.995l.595 4.294c.131.951-.468 1.391-1.331.98l-3.9-1.865c-.864-.413-2.273-.407-3.134.012L6.614 20.07c-.86.42-1.462-.017-1.338-.968l.562-4.3c.124-.95-.317-2.295-.98-2.987L1.862 8.69c-.664-.691-.437-1.401.503-1.577l4.247-.792c.94-.175 2.077-1.012 2.529-1.859L11.175.637c.45-.847 1.192-.849 1.648-.006l2.064 3.809c.457.843 1.6 1.671 2.542 1.839l4.252.76c.942.168 1.174.876.516 1.573l-2.97 3.147z"/><path fill="#FF8EB7" d="M6.522 1.454c.682.942 1.63 3.278 1.145 3.631C7.18 5.44 5.262 3.812 4.58 2.87c-.681-.942-.623-1.779-.087-2.17.536-.39 1.346-.187 2.029.754zM19.421 2.87c-.682.942-2.601 2.57-3.088 2.215-.486-.354.464-2.689 1.146-3.63C18.161.512 18.971.309 19.508.7c.535.39.593 1.227-.087 2.169zm-8.338 19.324c0-1.164.599-3.614 1.201-3.614.598 0 1.199 2.45 1.198 3.613 0 1.165-.536 1.808-1.2 1.807-.663.001-1.199-.641-1.199-1.806zm10.786-6.175c-1.103-.359-3.238-1.688-3.052-2.263.184-.572 2.691-.387 3.793-.027 1.103.36 1.547 1.07 1.342 1.704-.205.633-.98.946-2.083.586zM1.39 13.73c1.103-.36 3.609-.544 3.796.03.184.571-1.952 1.902-3.054 2.261-1.103.36-1.879.047-2.082-.587-.206-.633.236-1.343 1.34-1.704z"/></g></svg>