<svg xmlns="http://www.w3.org/2000/svg" width="40" height="40" viewBox="0 0 40 40"><path fill="#151515" fill-rule="evenodd" d="M25.292 19.375a6.042 6.042 0 11-.001 12.083 6.042 6.042 0 01.001-12.083zm0 1.25a4.791 4.791 0 10-.001 9.583 4.791 4.791 0 00.001-9.583zm-2.596 1.55c.18 0 .352.072.48.2l2.116 2.117 2.116-2.117a.678.678 0 01.959.958l-2.117 2.084 2.117 2.083a.674.674 0 010 .958.663.663 0 01-.475.2.686.686 0 01-.484-.2l-2.116-2.083-2.117 2.117a.667.667 0 01-.475.2.684.684 0 01-.483-.2.693.693 0 010-.959l2.116-2.116-2.116-2.084a.692.692 0 010-.958.673.673 0 01.479-.2zm-3.398-2.7a.625.625 0 11-.68 1.049 5.901 5.901 0 00-3.08-.948.509.509 0 01-.13.016 5.908 5.908 0 00-5.78 4.711l.155.164a7.892 7.892 0 007.436 2.168l.252-.064a.625.625 0 11.324 1.208 9.11 9.11 0 01-2.18.31.598.598 0 01-.208.036 9.08 9.08 0 01-6.927-3.23l-.023-.03c-.012-.016-.022-.032-.032-.048l.055.077a.709.709 0 01-.071-.104c-.01-.02-.02-.04-.028-.06l-.01-.026a.462.462 0 01-.019-.06l-.003-.015-.006-.03-.007-.046-.002-.043v-.044c0-.017.002-.032.004-.048l.003-.022.015-.093.03-.17a7.152 7.152 0 014.093-5.18 7.152 7.152 0 016.82.524zm-3.89-10.933c2.1 0 3.8 1.701 3.8 3.8V14.1a3.8 3.8 0 01-7.6 0v-1.758a3.8 3.8 0 013.8-3.8zm0 1.25a2.55 2.55 0 00-2.55 2.55V14.1a2.55 2.55 0 005.1 0v-1.758a2.55 2.55 0 00-2.55-2.55z"/></svg>