<?xml version="1.0" encoding="UTF-8"?>
<svg width="20px" height="23px" viewBox="0 0 20 23" version="1.1" xmlns="http://www.w3.org/2000/svg" xmlns:xlink="http://www.w3.org/1999/xlink">
    <!-- Generator: sketchtool 50.2 (55047) - http://www.bohemiancoding.com/sketch -->
    <title>C274813A-7ECE-44A4-A81E-C10DC9A5A9D8</title>
    <desc>Created with sketchtool.</desc>
    <defs></defs>
    <g id="Portail-pro" stroke="none" stroke-width="1" fill="none" fill-rule="evenodd">
        <g id="Passculture-Pro-menu" transform="translate(-975.000000, -216.000000)">
            <g id="USER-MENU" transform="translate(955.000000, 0.000000)">
                <g id="Stacked-Group" transform="translate(0.000000, 8.000000)">
                    <g id="Group-3-Copy-2" transform="translate(12.000000, 201.000000)">
                        <g id="ICONS/ico-compta">
                            <rect id="Background" x="0" y="0" width="36" height="35.8085106"></rect>
                            <rect id="crop" x="0" y="0" width="36" height="35.8085106"></rect>
                            <g id="Group" transform="translate(9.000000, 8.138298)" fill="#E60039" fill-rule="nonzero">
                                <path d="M0.818181818,0.813829787 L0.818181818,19.5319149 L17.1818182,19.5319149 L17.1818182,0.813829787 L0.818181818,0.813829787 Z M1.11022302e-16,-0.813829787 L18,-0.813829787 C18.4518693,-0.813829787 18.8181818,-0.44946578 18.8181818,-1.11022302e-16 L18.8181818,20.3457447 C18.8181818,20.7952105 18.4518693,21.1595745 18,21.1595745 L1.11022302e-16,21.1595745 C-0.451869341,21.1595745 -0.818181818,20.7952105 -0.818181818,20.3457447 L-0.818181818,-1.11022302e-16 C-0.818181818,-0.44946578 -0.451869341,-0.813829787 1.11022302e-16,-0.813829787 Z" id="Rectangle-11"></path>
                                <path d="M13.5,16.6835106 L13.9090909,16.2765957 L13.0909091,16.2765957 L13.5,16.6835106 Z M13.0909091,13.8351064 L13.9090909,13.8351064 L13.5,13.4281915 L13.0909091,13.8351064 Z M13.0909091,12.2074468 L13.9090909,12.2074468 C14.3609602,12.2074468 14.7272727,12.5718108 14.7272727,13.0212766 L14.7272727,17.0904255 C14.7272727,17.5398913 14.3609602,17.9042553 13.9090909,17.9042553 L13.0909091,17.9042553 C12.6390398,17.9042553 12.2727273,17.5398913 12.2727273,17.0904255 L12.2727273,13.0212766 C12.2727273,12.5718108 12.6390398,12.2074468 13.0909091,12.2074468 Z" id="Rectangle-11-Copy"></path>
                                <path d="M3.51818197,10.9867021 C3.06631263,10.9867021 2.70000016,10.6223381 2.70000016,10.1728723 C2.70000016,9.72340656 3.06631263,9.35904255 3.51818197,9.35904255 L5.15454561,9.35904255 C5.60641495,9.35904255 5.97272743,9.72340656 5.97272743,10.1728723 C5.97272743,10.6223381 5.60641495,10.9867021 5.15454561,10.9867021 L3.51818197,10.9867021 Z" id="Line"></path>
                                <path d="M8.42727288,10.9867021 C7.97540354,10.9867021 7.60909107,10.6223381 7.60909107,10.1728723 C7.60909107,9.72340656 7.97540354,9.35904255 8.42727288,9.35904255 L10.0636357,9.35904255 C10.5155051,9.35904255 10.8818176,9.72340656 10.8818176,10.1728723 C10.8818176,10.6223381 10.5155051,10.9867021 10.0636357,10.9867021 L8.42727288,10.9867021 Z" id="Line-Copy-3"></path>
                                <path d="M12.518182,10.9867021 C12.0663126,10.9867021 11.7000002,10.6223381 11.7000002,10.1728723 C11.7000002,9.72340656 12.0663126,9.35904255 12.518182,9.35904255 L14.1545448,9.35904255 C14.6064142,9.35904255 14.9727266,9.72340656 14.9727266,10.1728723 C14.9727266,10.6223381 14.6064142,10.9867021 14.1545448,10.9867021 L12.518182,10.9867021 Z" id="Line-Copy-6"></path>
                                <path d="M3.51818197,14.2420213 C3.06631263,14.2420213 2.70000016,13.8776573 2.70000016,13.4281915 C2.70000016,12.9787257 3.06631263,12.6143617 3.51818197,12.6143617 L5.15454561,12.6143617 C5.60641495,12.6143617 5.97272743,12.9787257 5.97272743,13.4281915 C5.97272743,13.8776573 5.60641495,14.2420213 5.15454561,14.2420213 L3.51818197,14.2420213 Z" id="Line-Copy"></path>
                                <path d="M8.42727288,14.2420213 C7.97540354,14.2420213 7.60909107,13.8776573 7.60909107,13.4281915 C7.60909107,12.9787257 7.97540354,12.6143617 8.42727288,12.6143617 L10.0636357,12.6143617 C10.5155051,12.6143617 10.8818176,12.9787257 10.8818176,13.4281915 C10.8818176,13.8776573 10.5155051,14.2420213 10.0636357,14.2420213 L8.42727288,14.2420213 Z" id="Line-Copy-4"></path>
                                <path d="M3.51818197,17.4973404 C3.06631263,17.4973404 2.70000016,17.1329764 2.70000016,16.6835106 C2.70000016,16.2340449 3.06631263,15.8696809 3.51818197,15.8696809 L5.15454561,15.8696809 C5.60641495,15.8696809 5.97272743,16.2340449 5.97272743,16.6835106 C5.97272743,17.1329764 5.60641495,17.4973404 5.15454561,17.4973404 L3.51818197,17.4973404 Z" id="Line-Copy-2"></path>
                                <path d="M8.42727288,17.4973404 C7.97540354,17.4973404 7.60909107,17.1329764 7.60909107,16.6835106 C7.60909107,16.2340449 7.97540354,15.8696809 8.42727288,15.8696809 L10.0636357,15.8696809 C10.5155051,15.8696809 10.8818176,16.2340449 10.8818176,16.6835106 C10.8818176,17.1329764 10.5155051,17.4973404 10.0636357,17.4973404 L8.42727288,17.4973404 Z" id="Line-Copy-5"></path>
                                <path d="M4.09090909,4.06914894 L4.09090909,6.5106383 L13.9090909,6.5106383 L13.9090909,4.06914894 L4.09090909,4.06914894 Z M3.27272727,2.44148936 L14.7272727,2.44148936 C15.1791421,2.44148936 15.5454545,2.80585337 15.5454545,3.25531915 L15.5454545,7.32446809 C15.5454545,7.77393387 15.1791421,8.13829787 14.7272727,8.13829787 L3.27272727,8.13829787 C2.82085793,8.13829787 2.45454545,7.77393387 2.45454545,7.32446809 L2.45454545,3.25531915 C2.45454545,2.80585337 2.82085793,2.44148936 3.27272727,2.44148936 Z" id="Rectangle-11-Copy"></path>
                            </g>
                        </g>
                    </g>
                </g>
            </g>
        </g>
    </g>
</svg>