<?xml version="1.0" encoding="UTF-8"?>
<svg width="44px" height="44px" viewBox="0 0 44 44" version="1.1" xmlns="http://www.w3.org/2000/svg" xmlns:xlink="http://www.w3.org/1999/xlink">
    <!-- Generator: sketchtool 55.2 (78181) - https://sketchapp.com -->
    <title>3AFDCBF5-42FC-4992-93B5-2C72B4F099EC</title>
    <desc>Created with sketchtool.</desc>
    <g id="Menu-et-rubriques" stroke="none" stroke-width="1" fill="none" fill-rule="evenodd">
        <g id="PassCulture-v0rc3-mesreservations" transform="translate(-319.000000, -951.000000)" fill="#EB0055">
            <g id="Group" transform="translate(0.000000, 64.000000)">
                <g id="Stacked-Group-2" transform="translate(0.000000, 728.000000)">
                    <g id="BLOCKS/list-item-1l-img-Copy-3" transform="translate(12.000000, 66.000000)">
                        <g id="Group" transform="translate(307.000000, 93.000000)">
                            <g id="ICONS/ico-barcode-ICONS/ico-qr">
                                <path d="M13,34 L10,34 L10,31 L10,28 L13,28 L13,31 L16,31 L16,34 L13,34 Z M22,28 L19,28 L19,25 L22,25 L22,22 L25,22 L25,19 L28,19 L28,22 L31,22 L31,25 L31,28 L28,28 L28,25 L25,25 L25,28 L22,28 Z M34,31 L34,34 L31,34 L28,34 L28,31 L31,31 L31,28 L34,28 L34,31 Z M31,13 L28,13 L28,10 L31,10 L34,10 L34,13 L34,16 L31,16 L31,13 Z M22,19 L22,22 L19,22 L19,19 L19,16 L22,16 L22,13 L25,13 L25,16 L25,19 L22,19 Z M22,34 L19,34 L19,31 L22,31 L25,31 L25,34 L22,34 Z M16,19 L16,22 L13,22 L13,19 L13,16 L16,16 L16,19 Z M13,10 L16,10 L16,13 L13,13 L13,16 L10,16 L10,10 L13,10 Z M16,13 L19,13 L19,16 L16,16 L16,13 Z M10,22 L13,22 L13,25 L10,25 L10,22 Z M16,22 L19,22 L19,25 L16,25 L16,22 Z M25,28 L28,28 L28,31 L25,31 L25,28 Z M19,10 L22,10 L22,13 L19,13 L19,10 Z M28,16 L31,16 L31,19 L28,19 L28,16 Z M31,19 L34,19 L34,22 L31,22 L31,19 Z M16,28 L19,28 L19,31 L16,31 L16,28 Z M13,25 L16,25 L16,28 L13,28 L13,25 Z" id="Combined-Shape"></path>
                            </g>
                        </g>
                    </g>
                </g>
            </g>
        </g>
    </g>
</svg>