<svg xmlns="http://www.w3.org/2000/svg" width="24" height="24" viewBox="0 0 24 24"><g fill="none" fill-rule="evenodd"><path fill="#FFCC4D" fill-rule="nonzero" d="M24 12c0 6.627-5.373 12-12 12S0 18.627 0 12 5.373 0 12 0s12 5.373 12 12"/><path fill="#664500" fill-rule="nonzero" d="M12 14c-2.415 0-4.018-.281-6-.667-.453-.087-1.333 0-1.333 1.334 0 2.666 3.063 6 7.333 6s7.333-3.334 7.333-6c0-1.334-.88-1.422-1.333-1.334-1.982.386-3.585.667-6 .667z"/><path fill="#FFF" fill-rule="nonzero" d="M6 14.667s2 .666 6 .666 6-.666 6-.666-1.333 2.666-6 2.666-6-2.666-6-2.666z"/><path fill="#EB0055" d="M10.455 2.942l-3.028.534L5.867.641a.834.834 0 00-1.555.273l-.496 3.199-3.028.534a.833.833 0 00-.212 1.574l2.713 1.288-.498 3.208a.834.834 0 001.417.713l2.341-2.374 3.012 1.43a.834.834 0 001.088-1.154L9.083 6.487l2.11-2.139a.836.836 0 00-.738-1.406zm3.09 0l3.028.534 1.56-2.835a.834.834 0 011.554.274l.496 3.198 3.028.534a.833.833 0 01.212 1.573L20.71 7.508l.499 3.208a.838.838 0 01-.824.961.833.833 0 01-.594-.248L17.45 9.055l-3.012 1.43a.832.832 0 01-1.087-1.154l1.565-2.844-2.11-2.139a.836.836 0 01-.145-.973.84.84 0 01.884-.433z"/></g></svg>