<?xml version="1.0" encoding="UTF-8"?>
<svg width="36px" height="31px" viewBox="0 0 36 31" version="1.1" xmlns="http://www.w3.org/2000/svg" xmlns:xlink="http://www.w3.org/1999/xlink">
    <!-- Generator: sketchtool 50.2 (55047) - http://www.bohemiancoding.com/sketch -->
    <title>89E4EE04-BF36-4ED4-B446-4C2E5238AC30</title>
    <desc>Created with sketchtool.</desc>
    <defs></defs>
    <g id="Menu-et-rubriques" stroke="none" stroke-width="1" fill="none" fill-rule="evenodd">
        <g id="PassCulture-v0rc3-HP2-menu2" transform="translate(-180.000000, -501.000000)">
            <g id="ICONS/ico-like-w-on" transform="translate(175.000000, 494.000000)">
                <rect id="Background" x="0" y="0" width="44" height="44"></rect>
                <path d="M30.2343148,7 C33.244724,7 35.6353433,7.87434721 37.4061727,9.62304062 C39.1770022,11.371734 40.0624164,13.7734214 40.0624164,16.8281016 C40.0624164,18.7317432 39.4426266,20.6796549 38.2030458,22.6718376 C37.4504438,23.8671473 36.5650286,24.9517798 35.5468022,25.9257361 L24.2577666,37.1483656 C23.7707889,37.5910732 23.1952691,37.8124265 22.5312082,37.8124265 C21.8671473,37.8124265 21.2916275,37.5910732 20.8046498,37.1483656 L9.51561423,25.9257361 C8.67447007,25.128863 7.87759697,24.1770427 7.12499493,23.0702742 C5.70833198,20.9452793 5,18.8645554 5,16.8281016 C5,13.7734214 5.88541422,11.371734 7.65624367,9.62304062 C9.42707312,7.87434721 11.8176924,7 14.8281016,7 C17.307262,7 19.8749645,8.21744468 22.5312082,10.652335 C25.1874519,8.21744468 27.7551544,7 30.2343148,7 Z" id="heart" fill="#FFFFFF"></path>
            </g>
        </g>
    </g>
</svg>