<svg width="28" height="27" viewBox="0 0 28 27" xmlns="http://www.w3.org/2000/svg" xmlns:xlink="http://www.w3.org/1999/xlink"><defs><path d="M21.484 12.997l-6.639 11.499c-4.021-.76-7.43-2.88-9.527-5.754 2.65-3.631 7.395-6.06 12.824-6.06 1.149 0 2.268.109 3.342.315zm3.226.958c2.586 1.062 4.756 2.732 6.255 4.787-2.6 3.562-7.216 5.968-12.516 6.058l6.261-10.845z" id="a"/></defs><g transform="translate(-4 -5)" fill="none" fill-rule="evenodd"><path d="M0 0h36v36H0z"/><path d="M0 0h36v36H0z"/><mask id="b" fill="#fff"><use xlink:href="#a"/></mask><use stroke="#E60039" stroke-width="2" stroke-linecap="round" stroke-linejoin="round" xlink:href="#a"/><path d="M18 23.727a5.727 5.727 0 110-11.454 5.727 5.727 0 010 11.454zm-.049-1.685a4.09 4.09 0 100-8.181 4.09 4.09 0 000 8.181zm0-.818a3.273 3.273 0 110-6.545 3.273 3.273 0 010 6.545z" stroke="#E60039" stroke-width="2" stroke-linecap="round" stroke-linejoin="round" mask="url(#b)"/><path d="M25.655 5.99L11.286 30.876" stroke="#E60039" stroke-width="2" stroke-linecap="round" stroke-linejoin="round"/></g></svg>