<svg xmlns="http://www.w3.org/2000/svg" width="40" height="40" viewBox="0 0 40 40"><path fill="#151515" fill-rule="evenodd" d="M20.625 8.334c6.79 0 12.292 5.502 12.292 12.291 0 2.744-.902 5.352-2.54 7.483a.625.625 0 11-.991-.762 10.993 10.993 0 002.281-6.72c0-6.1-4.943-11.042-11.042-11.042S9.584 14.526 9.584 20.625s4.943 11.042 11.041 11.042c1.496 0 2.95-.298 4.298-.868a.625.625 0 11.487 1.152 12.27 12.27 0 01-4.785.966c-6.789 0-12.291-5.503-12.291-12.292S13.836 8.334 20.625 8.334zm0 5.467c1.975 0 3.64 1.666 3.64 3.641a3.64 3.64 0 01-2.131 3.315c-.501.228-.83.676-.878 1.18l-.006.128v1.337a.625.625 0 01-1.245.085L20 23.402v-1.337c0-1.001.571-1.9 1.464-2.371l.151-.075a2.39 2.39 0 001.4-2.177c0-1.285-1.105-2.39-2.39-2.39a2.39 2.39 0 00-2.39 2.39.625.625 0 01-1.251 0 3.64 3.64 0 013.64-3.64zm.833 12.19a.833.833 0 10-.833.833c.46 0 .833-.373.833-.834"/></svg>