<svg width="32" height="28" viewBox="0 0 32 28" xmlns="http://www.w3.org/2000/svg"><defs><radialGradient cx="83.017%" cy="8.711%" fx="83.017%" fy="8.711%" r="113.735%" gradientTransform="matrix(-.67962 .733 -.74712 -.69166 1.46 -.461)" id="a"><stop stop-color="#e60039" offset="0%"/><stop stop-color="#e60039" stop-opacity=".873" offset="31.181%"/><stop stop-color="#e60039" stop-opacity="0" offset="100%"/></radialGradient></defs><g fill="none" fill-rule="evenodd"><path d="M-2-6h44v44H-2z"/><g fill-rule="nonzero"><path d="M17.425 0a.933.933 0 110 1.867c-8.593 0-15.558 6.971-15.558 15.572a.933.933 0 11-1.867 0C0 7.808 7.801 0 17.425 0z" fill="url(#a)" transform="rotate(-1 16 14)"/><path d="M21.542 15.967a.933.933 0 01-1.866.032 3.191 3.191 0 00-3.245-3.137 5.254 5.254 0 00-5.158 5.347c.077 4.422 3.72 7.944 8.138 7.867 5.935-.104 10.662-5.003 10.558-10.944-.13-7.46-6.277-13.401-13.73-13.271a.933.933 0 11-.033-1.867C24.69-.154 31.687 6.61 31.836 15.1c.121 6.971-5.427 12.721-12.393 12.843-5.448.095-9.941-4.248-10.037-9.7a7.12 7.12 0 016.993-7.246 5.058 5.058 0 015.143 4.97z" fill="#e60039"/></g></g></svg>