<?xml version="1.0" encoding="UTF-8"?>
<svg width="24px" height="19px" viewBox="0 0 24 19" version="1.1" xmlns="http://www.w3.org/2000/svg" xmlns:xlink="http://www.w3.org/1999/xlink">
    <!-- Generator: sketchtool 50.2 (55047) - http://www.bohemiancoding.com/sketch -->
    <title>E9B08E87-1392-482C-91AA-874A83F25558</title>
    <desc>Created with sketchtool.</desc>
    <defs></defs>
    <g id="Portail-pro" stroke="none" stroke-width="1" fill="none" fill-rule="evenodd">
        <g id="Passculture-Pro-offres" transform="translate(-983.000000, -337.000000)">
            <g id="Stacked-Group" transform="translate(348.000000, 120.000000)">
                <g id="LIST" transform="translate(0.000000, 213.000000)">
                    <g id="List-header">
                        <g id="ICONS/ico-sort-descending-Copy-1" transform="translate(636.000000, 4.000000)">
                            <rect id="Background" x="0" y="0" width="23" height="19"></rect>
                            <g id="ICONS/ico-sort-descending" transform="translate(11.500000, 9.500000) rotate(-90.000000) translate(-11.500000, -9.500000) translate(2.000000, -2.000000)" stroke-linecap="round" stroke-linejoin="round" stroke-width="2">
                                <path d="M-1.60463855,3.62909213 L0.358207241,5.59193791 C1.52978012,6.76351079 3.42927505,6.76351079 4.60084793,5.59193791 L6.66340341,3.52938243" id="Line" stroke="#E60039" transform="translate(2.529382, 5.000000) rotate(-270.000000) translate(-2.529382, -5.000000) "></path>
                                <path d="M18,5 L2,5" id="Stroke-3" stroke="#E60039"></path>
                                <g id="Group-6" transform="translate(0.500000, 12.799988)" stroke="#757575">
                                    <path d="M16.5,1.5 L16.5,9.01469318" id="Line-2"></path>
                                    <path d="M11.5,1.5 L11.5,6.02268051" id="Line-2-Copy"></path>
                                    <path d="M6.5,1.5 L6.5,4.04950976" id="Line-2-Copy-2"></path>
                                    <path d="M1.5,1.5 L1.5,2.04950976" id="Line-2-Copy-3"></path>
                                </g>
                            </g>
                        </g>
                    </g>
                </g>
            </g>
        </g>
    </g>
</svg>