<svg xmlns="http://www.w3.org/2000/svg" width="16" height="16" viewBox="0 0 16 16"><g fill="none"><path d="M0 0h16v16H0V0zm0 0h16v16H0V0zm0 0h16v16H0V0zm0 0h16v16H0V0z"/><path fill="#FFF" d="M8 4.333a3.335 3.335 0 013.333 3.334c0 .34-.066.666-.16.973l2.04 2.04a7.867 7.867 0 002.12-3.02 7.888 7.888 0 00-9.76-4.613L7.02 4.493c.313-.093.64-.16.98-.16zM1.807 2.107c-.26.26-.26.68 0 .94L3.12 4.36A7.921 7.921 0 00.667 7.667c1.153 2.926 4 5 7.333 5 1.013 0 1.98-.2 2.873-.547l1.814 1.813a.664.664 0 10.94-.94L2.753 2.107a.671.671 0 00-.946 0zM8 11a3.334 3.334 0 01-3.333-3.333c0-.514.12-1 .326-1.427L6.04 7.287c-.02.12-.04.246-.04.38 0 1.106.893 2 2 2 .133 0 .253-.02.38-.047l1.047 1.047A3.217 3.217 0 018 11zm1.98-3.553a1.978 1.978 0 00-1.76-1.76l1.76 1.76z"/></g></svg>