<?xml version="1.0" encoding="UTF-8"?>
<svg width="24px" height="19px" viewBox="0 0 24 19" version="1.1" xmlns="http://www.w3.org/2000/svg" xmlns:xlink="http://www.w3.org/1999/xlink">
    <!-- Generator: sketchtool 50.2 (55047) - http://www.bohemiancoding.com/sketch -->
    <title>24EC43CE-5274-4DBF-A0D4-2036FD711E79</title>
    <desc>Created with sketchtool.</desc>
    <defs></defs>
    <g id="Portail-pro" stroke="none" stroke-width="1" fill="none" fill-rule="evenodd">
        <g id="Passculture-Pro-offres" transform="translate(-983.000000, -337.000000)">
            <g id="ICONS/ico-sort-ascending" transform="translate(984.000000, 337.000000)">
                <rect id="Background" x="0" y="0" width="23" height="19"></rect>
                <path d="M0.865979023,15.0997097 L2.82882481,17.0625555 C4.00039768,18.2341284 5.89989262,18.2341284 7.0714655,17.0625555 L9.13402098,15" id="Line" stroke="#E60039" stroke-width="2" stroke-linecap="round" stroke-linejoin="round" transform="translate(5.000000, 16.470618) rotate(-360.000000) translate(-5.000000, -16.470618) "></path>
                <path d="M13.5,8.5 L-2.5,8.5" id="Stroke-3" stroke="#E60039" stroke-width="2" stroke-linecap="round" stroke-linejoin="round" transform="translate(5.500000, 9.000000) rotate(-90.000000) translate(-5.500000, -9.000000) "></path>
                <g id="Group-6" transform="translate(17.799988, 9.500000) scale(1, -1) rotate(-90.000000) translate(-17.799988, -9.500000) translate(8.799988, 4.500000)" stroke="#757575" stroke-linecap="round" stroke-linejoin="round" stroke-width="2">
                    <path d="M16.5,1.5 L16.5,9.01469318" id="Line-2"></path>
                    <path d="M11.5,1.5 L11.5,6.02268051" id="Line-2-Copy"></path>
                    <path d="M6.5,1.5 L6.5,4.04950976" id="Line-2-Copy-2"></path>
                    <path d="M1.5,1.5 L1.5,2.04950976" id="Line-2-Copy-3"></path>
                </g>
            </g>
        </g>
    </g>
</svg>