<svg xmlns="http://www.w3.org/2000/svg" width="24" height="24" viewBox="0 0 24 24"><g fill="none" transform="translate(2)"><path fill="#C20046" d="M.667 7.333v.092c0-.028.007-.056.01-.084l-.01-.008zm8.666 7.425a1.267 1.267 0 01-.274-.164l-8.016-6.43c-.251-.204-.376-.471-.376-.74v8.16c0 1.36.728 1.655.728 1.655l7.716 6.066c.137.108.252.173.352.212a.731.731 0 01-.13-.402v-8.357zM3.485 15c-.663 0-1.356-.671-1.546-1.5-.192-.828.191-1.5.853-1.5.663 0 1.355.672 1.546 1.5.191.829-.19 1.5-.853 1.5zm3.722 5c-.663 0-1.356-.672-1.546-1.5-.192-.829.191-1.5.854-1.5.662 0 1.355.671 1.546 1.5.19.828-.192 1.5-.854 1.5z"/><path fill="#EB0055" d="M18.957 8.107l-8.07 6.487a1.21 1.21 0 01-.22.141v8.38a.737.737 0 01-.134.409c.104-.039.224-.107.366-.219l7.725-6.066s.71-.294.71-1.656V7.37c0 .268-.126.535-.377.738zm-4.972 11.154c-.161.758-.746 1.372-1.305 1.372-.559 0-.881-.614-.72-1.372.161-.758.745-1.372 1.305-1.372.559 0 .881.614.72 1.372zm2.359-3.514c-.17.782-.785 1.414-1.375 1.414-.588 0-.928-.632-.758-1.414.17-.781.786-1.414 1.374-1.414.59 0 .929.633.759 1.414zm2.042-3.403c-.167.743-.775 1.345-1.357 1.345-.581 0-.916-.602-.748-1.345.167-.742.774-1.344 1.356-1.344.582 0 .917.602.749 1.344z"/><path fill="#FF4588" d="M18.957 6.63L10.859.333c-.502-.406-1.325-.406-1.828 0L1.043 6.686a.96.96 0 00-.367.655c-.002.028-.01.056-.01.084 0 .268.126.535.377.738l8.016 6.431c.083.067.176.119.274.164v8.357c0 .152.054.286.13.402.12.187.31.316.537.316a.64.64 0 00.533-.309.735.735 0 00.134-.41v-8.379a1.21 1.21 0 00.22-.141l8.07-6.487a.949.949 0 00.376-.738c0-.011-.003-.022-.004-.033a.952.952 0 00-.372-.706z"/><path fill="#EA596E" d="M10.333 5.778c1.074 0 1.944.696 1.944 1.555 0 .86-.87 1.556-1.944 1.556-1.074 0-1.944-.696-1.944-1.556 0-.859.87-1.555 1.944-1.555z"/><ellipse cx="10.333" cy="7.333" fill="#FFF" rx="1.944" ry="1.555"/><path fill="#FFF" d="M17.637 11c-.582 0-1.189.602-1.356 1.344-.168.743.167 1.345.748 1.345.582 0 1.19-.602 1.357-1.345.168-.742-.167-1.344-.75-1.344zm-2.052 3.333c-.588 0-1.204.633-1.374 1.414-.169.782.17 1.414.759 1.414.59 0 1.205-.632 1.375-1.414.169-.781-.17-1.414-.76-1.414zm-2.321 3.556c-.56 0-1.143.614-1.305 1.372-.161.758.162 1.372.72 1.372.56 0 1.144-.614 1.306-1.372.161-.758-.162-1.372-.721-1.372z"/><path fill="#E1E8ED" d="M2.792 12c-.663 0-1.045.672-.853 1.5.191.829.883 1.5 1.546 1.5.662 0 1.044-.671.853-1.5-.19-.828-.883-1.5-1.546-1.5zm3.722 5c-.663 0-1.045.671-.854 1.5.191.828.884 1.5 1.547 1.5.662 0 1.044-.672.854-1.5-.192-.829-.884-1.5-1.547-1.5z"/></g></svg>