<?xml version="1.0" encoding="UTF-8"?>
<svg width="21px" height="30px" viewBox="0 0 21 30" version="1.1" xmlns="http://www.w3.org/2000/svg" xmlns:xlink="http://www.w3.org/1999/xlink">
    <!-- Generator: sketchtool 49.2 (51160) - http://www.bohemiancoding.com/sketch -->
    <title>3B53001F-1F3F-4676-8493-3A61D4659475</title>
    <desc>Created with sketchtool.</desc>
    <defs></defs>
    <g id="Écrans" stroke="none" stroke-width="1" fill="none" fill-rule="evenodd">
        <g id="PassCulture-v0rc-HP-c1-detail" transform="translate(-331.000000, -783.000000)">
            <g id="Content" transform="translate(0.000000, 176.000000)">
                <g id="Group-4-Copy" transform="translate(12.000000, 560.000000)">
                    <g id="coord" transform="translate(0.000000, 35.000000)">
                        <g id="ICONS/ico-geoloc-solid2" transform="translate(307.000000, 5.000000)">
                            <rect id="crop" x="0" y="0" width="44" height="44"></rect>
                            <path d="M32.8695652,17.3606957 C32.8695652,23.2683478 22.4347826,37 22.4347826,37 C22.4347826,37 12,23.1869565 12,17.3606957 C12,11.6361739 16.6711304,7 22.4347826,7 C28.2005217,7 32.8695652,11.6361739 32.8695652,17.3606957 Z M22.5430681,19.8859721 C24.4839933,19.8859721 26.0574241,18.3125413 26.0574241,16.3716161 C26.0574241,14.4306908 24.4839933,12.85726 22.5430681,12.85726 C20.6021428,12.85726 19.0287121,14.4306908 19.0287121,16.3716161 C19.0287121,18.3125413 20.6021428,19.8859721 22.5430681,19.8859721 Z" id="Combined-Shape" fill="#E60039" fill-rule="evenodd"></path>
                        </g>
                    </g>
                </g>
            </g>
        </g>
    </g>
</svg>