<svg xmlns="http://www.w3.org/2000/svg" width="48" height="48" viewBox="0 0 48 48"><defs><linearGradient id="a" x1="18.263%" x2="81.737%" y1="0%" y2="100%"><stop offset="0%" stop-color="#EB0055"/><stop offset="100%" stop-color="#320096"/></linearGradient></defs><path fill="url(#a)" fill-rule="evenodd" d="M23.525 9.42a.75.75 0 01.853-.068l.097.067 4 3.27a.752.752 0 01-.859 1.226l-.09-.064L24 10.968l-8.9 7.282h17.798l-2.373-1.94a.75.75 0 01-.17-.964l.064-.09a.75.75 0 01.965-.17l.09.063 4 3.27c.52.424.26 1.244-.371 1.325L35 19.75H13c-.67 0-.988-.798-.55-1.26l.075-.07 11-9zM33 20.25a.75.75 0 01.743.648l.007.102v12a.75.75 0 01-.078.334A2.75 2.75 0 0133 38.75H15a2.75 2.75 0 01-.671-5.418.687.687 0 01-.072-.23L14.25 33V21a.75.75 0 011.493-.102l.007.102v12a.743.743 0 01-.043.251h4.586a.67.67 0 01-.036-.15L20.25 33V21a.75.75 0 011.493-.102l.007.102v12a.743.743 0 01-.043.251h4.586a.67.67 0 01-.036-.15L26.25 33V21a.75.75 0 011.493-.102l.007.102v12a.743.743 0 01-.043.251h4.586a.67.67 0 01-.036-.15L32.25 33V21a.75.75 0 01.75-.75zm0 14.5H15a1.25 1.25 0 000 2.5h18a1.25 1.25 0 000-2.5zM24 14a1 1 0 110 2 1 1 0 010-2z" opacity=".9"/></svg>