<svg xmlns="http://www.w3.org/2000/svg" width="316" height="199" viewBox="0 0 316 199"><path d="M207.162 27.317l.214.407 6.984 13.707c2.047 4.017 1.024 8.774-2.255 11.974l-.304.286c-6.244 5.692-8 14.905-4.124 22.511 3.802 7.463 12.042 11.449 20.163 9.986l.469-.09c4.522-.94 9.041.879 11.231 4.77l.193.36 6.986 13.712c4.258 8.356 1.037 18.554-7.175 23.011l-.408.215-15.262 7.776a2.808 2.808 0 01-2.751-4.892l.201-.112 15.262-7.777c5.64-2.873 7.955-9.67 5.3-15.327l-.169-.345-6.986-13.712c-.905-1.775-2.995-2.655-5.283-2.18-10.732 2.213-21.74-2.968-26.774-12.846-4.949-9.713-2.828-21.432 4.947-28.842l.4-.373c1.646-1.496 2.192-3.58 1.451-5.311l-.114-.245-6.984-13.707c-2.859-5.61-9.662-7.901-15.349-5.231l-.346.17L81.018 79.048c-5.64 2.874-7.955 9.67-5.3 15.328l.169.345 7.084 13.904c.854 1.675 2.82 2.505 4.945 2.042 10.799-2.342 21.94 2.833 27.014 12.792 4.99 9.795 2.788 21.619-5.13 29.009l-.401.366c-1.545 1.377-2.058 3.328-1.366 4.957l.113.242 7.084 13.904c2.859 5.61 9.662 7.9 15.349 5.23l.347-.169 71.614-36.49a2.809 2.809 0 012.751 4.893l-.2.112-71.615 36.49c-8.376 4.267-18.585 1.082-23.034-7.11l-.214-.407-7.084-13.904c-2-3.925-1.002-8.577 2.218-11.664l.298-.276c6.355-5.674 8.175-14.966 4.268-22.634-3.835-7.527-12.178-11.509-20.355-9.947l-.463.094c-4.391.956-8.813-.827-10.953-4.63l-.188-.352-7.084-13.903c-4.258-8.356-1.037-18.554 7.175-23.012l.408-.214 105.66-53.837c8.376-4.267 18.585-1.082 23.034 7.11zM57.616 156.071a2.807 2.807 0 012.798 2.578l.01.23-.001 6.69h6.688a2.809 2.809 0 01.23 5.608l-.23.01-6.688-.001v6.691a2.808 2.808 0 01-5.605.23l-.009-.23v-6.691h-6.687a2.808 2.808 0 01-.23-5.608l.23-.008h6.687v-6.691a2.808 2.808 0 012.807-2.808zm207.054-9.63a7.622 7.622 0 017.62 7.624c0 4.21-3.412 7.623-7.62 7.623s-7.62-3.413-7.62-7.623a7.622 7.622 0 017.62-7.623zm0 5.617a2.006 2.006 0 000 4.013 2.006 2.006 0 000-4.013zm-97.3-88.014l.12.211 26.216 51.478a2.809 2.809 0 01-1.227 3.777 2.806 2.806 0 01-3.656-1.016l-.12-.211-26.216-51.478a2.808 2.808 0 014.884-2.761zM24.06 90.272a7.621 7.621 0 017.62 7.623 7.621 7.621 0 01-7.62 7.623 7.62 7.62 0 01-7.618-7.623 7.62 7.62 0 017.619-7.623zm0 5.617a2.005 2.005 0 100 4.01 2.005 2.005 0 00.001-4.01zm256.52-37.714a2.81 2.81 0 012.799 2.579l.009.23v6.69h6.687a2.808 2.808 0 01.23 5.609l-.23.008h-6.687v6.691a2.808 2.808 0 01-5.605.23l-.01-.23v-6.691h-6.687a2.808 2.808 0 01-.23-5.608l.23-.009h6.688v-6.69a2.808 2.808 0 012.807-2.809zM67.24 25.19a2.807 2.807 0 012.798 2.578l.01.23v6.69h6.687a2.809 2.809 0 01.23 5.608l-.23.01h-6.687v6.69a2.808 2.808 0 01-5.605.231l-.01-.23v-6.691h-6.687a2.808 2.808 0 01-.23-5.608l.23-.01h6.687v-6.69a2.808 2.808 0 012.808-2.808z" fill="#C7C7CC" fill-rule="evenodd"/></svg>