<svg xmlns="http://www.w3.org/2000/svg" width="197" height="124" viewBox="0 0 197 124"><path fill="#FFF" d="M137 102.25c7.376 0 13.608 5.356 14.729 12.533a1.746 1.746 0 01-.406 1.415 18.95 18.95 0 01-3.423 3.102 1.75 1.75 0 01-2.017-2.86 15.568 15.568 0 002.153-1.835l.078-.084-.01-.05c-1.17-4.95-5.585-8.584-10.808-8.717l-.297-.004c-5.253 0-9.741 3.542-11.033 8.442l-.082.331.24.244a15.374 15.374 0 0010.475 4.478l.4.005c1.727 0 3.411-.282 5.008-.83a1.75 1.75 0 011.134 3.312 18.93 18.93 0 01-6.142 1.018 18.884 18.884 0 01-14.323-6.552 1.755 1.755 0 01-.405-1.415c1.121-7.177 7.351-12.533 14.728-12.533zm-38 0c7.376 0 13.608 5.356 14.729 12.533a1.746 1.746 0 01-.406 1.415 18.95 18.95 0 01-3.423 3.102 1.75 1.75 0 01-2.017-2.86 15.568 15.568 0 002.153-1.835l.078-.084-.01-.05c-1.17-4.95-5.585-8.584-10.808-8.717l-.297-.004c-5.253 0-9.741 3.542-11.033 8.442l-.082.331.24.244a15.374 15.374 0 0010.475 4.478l.4.005c1.727 0 3.411-.282 5.008-.83a1.75 1.75 0 011.134 3.312 18.93 18.93 0 01-6.142 1.018 18.884 18.884 0 01-14.323-6.552 1.755 1.755 0 01-.405-1.415c1.121-7.177 7.351-12.533 14.728-12.533zm-38-1c7.376 0 13.608 5.356 14.729 12.533a1.746 1.746 0 01-.406 1.415A18.95 18.95 0 0171.9 118.3a1.75 1.75 0 01-2.017-2.86 15.568 15.568 0 002.153-1.835l.078-.084-.01-.05c-1.17-4.95-5.585-8.584-10.808-8.717l-.297-.004c-5.253 0-9.741 3.542-11.033 8.442l-.082.331.24.244a15.374 15.374 0 0010.475 4.478l.4.005c1.727 0 3.411-.282 5.008-.83a1.75 1.75 0 011.134 3.312 18.93 18.93 0 01-6.142 1.018 18.884 18.884 0 01-14.323-6.552 1.755 1.755 0 01-.405-1.415c1.121-7.177 7.351-12.533 14.728-12.533zm38-20c4.298 0 7.75 3.604 7.75 8.015v3.47c0 4.41-3.452 8.015-7.75 8.015-4.297 0-7.75-3.605-7.75-8.016v-3.47c0-4.41 3.453-8.014 7.75-8.014zm38 0c4.298 0 7.75 3.604 7.75 8.015v3.47c0 4.41-3.452 8.015-7.75 8.015-4.297 0-7.75-3.605-7.75-8.016v-3.47c0-4.41 3.453-8.014 7.75-8.014zm-76-1c4.298 0 7.75 3.604 7.75 8.015v3.47c0 4.41-3.452 8.015-7.75 8.015-4.297 0-7.75-3.605-7.75-8.016v-3.47c0-4.41 3.453-8.014 7.75-8.014zm76 4.5c-2.33 0-4.25 2.004-4.25 4.515v3.47c0 2.51 1.92 4.515 4.25 4.515s4.25-2.005 4.25-4.516v-3.47c0-2.51-1.92-4.514-4.25-4.514zm-38 0c-2.33 0-4.25 2.004-4.25 4.515v3.47c0 2.51 1.92 4.515 4.25 4.515s4.25-2.005 4.25-4.516v-3.47c0-2.51-1.92-4.514-4.25-4.514zm-38-1c-2.33 0-4.25 2.004-4.25 4.515v3.47c0 2.51 1.92 4.515 4.25 4.515s4.25-2.005 4.25-4.516v-3.47c0-2.51-1.92-4.514-4.25-4.514zM3.639 75.032a1.882 1.882 0 012.596.545l4.838 7.32 1.849-2.202a2.495 2.495 0 013.517-.294c.186.156.349.338.483.541l5.554 8.405a1.861 1.861 0 01-.525 2.588 1.88 1.88 0 01-2.596-.544l-4.628-7.002-1.848 2.203a2.456 2.456 0 01-.539.478 2.507 2.507 0 01-3.461-.726L3.113 77.62a1.861 1.861 0 01.525-2.588zm38.363-.782c4.297 0 7.749 3.604 7.749 8.015a1.75 1.75 0 01-3.494.143l-.006-.143c0-2.51-1.92-4.515-4.25-4.515s-4.25 2.004-4.25 4.515a1.75 1.75 0 01-3.5 0c0-4.41 3.453-8.015 7.75-8.015zm38 0c4.297 0 7.749 3.604 7.749 8.015a1.75 1.75 0 01-3.494.143l-.006-.143c0-2.51-1.92-4.515-4.25-4.515s-4.25 2.004-4.25 4.515a1.75 1.75 0 01-3.5 0c0-4.41 3.453-8.015 7.75-8.015zm76 0c4.297 0 7.749 3.604 7.749 8.015a1.75 1.75 0 01-3.494.143l-.006-.143c0-2.51-1.92-4.515-4.25-4.515s-4.25 2.004-4.25 4.515a1.75 1.75 0 01-3.5 0c0-4.41 3.453-8.015 7.75-8.015zm-38 0c4.297 0 7.749 3.604 7.749 8.015a1.75 1.75 0 01-3.494.143l-.006-.143c0-2.51-1.92-4.515-4.25-4.515s-4.25 2.004-4.25 4.515a1.75 1.75 0 01-3.5 0c0-4.41 3.453-8.015 7.75-8.015zm19-9c4.297 0 7.749 3.604 7.749 8.015a1.75 1.75 0 01-3.494.143l-.006-.143c0-2.51-1.92-4.515-4.25-4.515s-4.25 2.004-4.25 4.515a1.75 1.75 0 01-3.5 0c0-4.41 3.453-8.015 7.75-8.015zm-76 0c4.297 0 7.749 3.604 7.749 8.015a1.75 1.75 0 01-3.494.143l-.006-.143c0-2.51-1.92-4.515-4.25-4.515s-4.25 2.004-4.25 4.515a1.75 1.75 0 01-3.5 0c0-4.41 3.453-8.015 7.75-8.015zm38 0c4.297 0 7.749 3.604 7.749 8.015a1.75 1.75 0 01-3.494.143l-.006-.143c0-2.51-1.92-4.515-4.25-4.515s-4.25 2.004-4.25 4.515a1.75 1.75 0 01-3.5 0c0-4.41 3.453-8.015 7.75-8.015zM174 56.75a1.75 1.75 0 01.144 3.494l-.144.006H24a1.75 1.75 0 01-.144-3.494L24 56.75h150zm11.848-29.179a1.86 1.86 0 012.632.21 1.882 1.882 0 01-.227 2.643l-4.148 3.53 1.289.775a2.494 2.494 0 01.84 3.427c-.14.235-.319.445-.527.622l-5.27 4.485a1.86 1.86 0 01-2.632-.21 1.882 1.882 0 01.227-2.643l3.94-3.353-1.289-.775a2.496 2.496 0 01-.616-.525 2.51 2.51 0 01.303-3.524zM175 1.25a1.75 1.75 0 01.144 3.494L175 4.75h-6.902l-10.312 10.5H175a1.75 1.75 0 01.144 3.494l-.144.006h-33.268c.005.035.01.07.012.106l.006.144v8.38a6.74 6.74 0 011.505 9.84l-3.133 3.88a1.75 1.75 0 01-2.46.262l-7.761-6.264a1.75 1.75 0 01-.263-2.46l3.133-3.884a6.727 6.727 0 015.48-2.5L138.25 19c0-.085.006-.168.018-.25h-37.536c.005.035.01.07.012.106l.006.144v7c0 .16-.022.316-.062.464A6.75 6.75 0 01105.75 33v5a1.75 1.75 0 01-1.75 1.75H94A1.75 1.75 0 0192.25 38v-5a6.753 6.753 0 015.063-6.537 1.6 1.6 0 01-.057-.32L97.25 26v-7c0-.085.006-.168.018-.25H62.732c.005.035.01.07.012.106l.006.144v7.363a6.742 6.742 0 016.479 2.39l3.133 3.884a1.749 1.749 0 01-.263 2.46l-7.762 6.265a1.75 1.75 0 01-2.461-.263l-3.133-3.88a6.744 6.744 0 01.506-9.023L59.25 19c0-.085.006-.168.018-.25H22a1.75 1.75 0 01-.144-3.494L22 15.25h18.706L30.272 4.75H22a1.75 1.75 0 01-.144-3.494L22 1.25h153zm-36.566 28.527a3.238 3.238 0 00-2.94 1.175l-2.034 2.521 5.037 4.066 2.034-2.517a3.238 3.238 0 00-.34-4.43l.133.128a1.75 1.75 0 01-1.861-.883zm-71.927 1.176a3.241 3.241 0 00-4.367-.626c-.058.05-.12.097-.184.139a3.241 3.241 0 00-.489 4.555L63.5 37.54l5.039-4.066zm32.495-1.203A3.251 3.251 0 0095.75 33v3.25h6.5V33a3.25 3.25 0 00-3.064-3.245zm41.434-24.044l-9.358 9.544h18.452l-9.094-9.544zm-26.63.588l-10.103 8.956h19.003l-8.9-8.956zm-55.37-.588l-9.358 9.544H67.53l-9.094-9.544zm26.759-.037l-9.41 9.581h19.06l-9.65-9.581zm25.076-.919H89.236l9.923 9.851 11.112-9.851zm-55.8 0H35.205l9.697 9.758L54.47 4.75zm82 0h-19.265l9.697 9.758 9.567-9.758zm-55.28 0H62.36l9.275 9.733 9.557-9.733zm82 0H144.36l9.275 9.733 9.557-9.733z"/></svg>