<svg xmlns="http://www.w3.org/2000/svg" width="156" height="156" viewBox="0 0 156 156"><path fill="#C7C7CC" fill-rule="evenodd" d="M76.83 46.313a2.437 2.437 0 01.331 4.852l-.331.023-13.584-.008c-2.386.192-4.21 2.156-4.268 4.639l.01.471-.006 56.584c-.162 2.389 1.512 4.482 3.66 4.883l.408.055 38.804.008c2.386-.192 4.21-2.156 4.268-4.639l-.01-.471V88.465a2.439 2.439 0 014.853-.331l.022.331-.005 24.08c.339 5.014-3.27 9.393-8.36 10.081l-.572.061-39.196-.007c-5.009-.404-8.808-4.618-8.763-9.433l.021-.537.006-56.256c-.339-5.013 3.27-9.392 8.36-10.08l.572-.062h13.78zM49.844 51.72a2.44 2.44 0 01-1.442 2.863l-.315.103-6.66 1.705a4.52 4.52 0 00-3.223 4.989l.085.446 12.838 56.388a2.437 2.437 0 01-4.659 1.4l-.095-.318-12.83-56.356c-1.137-4.704 1.486-9.467 6.05-11.076l.557-.178 6.728-1.722a2.437 2.437 0 012.966 1.756zm56.074-14.637a19.503 19.503 0 0119.5 19.5c0 10.77-8.73 19.5-19.5 19.5s-19.5-8.73-19.5-19.5 8.73-19.5 19.5-19.5zM98.312 45.5a2.437 2.437 0 00-3.444 0 2.404 2.404 0 000 3.445l7.605 7.638-7.605 7.605a2.4 2.4 0 000 3.444c.447.47 1.073.73 1.722.715a2.396 2.396 0 001.722-.715l7.606-7.605 7.637 7.605c.448.47 1.073.73 1.722.715a2.4 2.4 0 001.723-.715c.95-.951.95-2.493 0-3.445l-7.638-7.604L117 48.945a2.436 2.436 0 00-.06-3.385 2.436 2.436 0 00-3.385-.06l-7.638 7.638z"/></svg>