<svg xmlns="http://www.w3.org/2000/svg" width="25" height="24" viewBox="0 0 25 24">
    <path fill="#EB0055" fill-rule="evenodd" d="M19.14 6.5c.762 0 1.385.57 1.43 1.291l.003.084v9c0 .759-.642 1.375-1.432 1.375-.216 0-.39-.168-.39-.375 0-.19.146-.347.337-.372l.053-.003c.337 0 .614-.246.647-.561l.004-.064v-9c0-.324-.257-.59-.585-.622l-.066-.003H6.64c-.337 0-.615.246-.648.56l-.003.065v9c0 .323.256.59.584.622l.067.003h9.131c.216 0 .39.168.39.375 0 .19-.146.347-.337.371l-.053.004H6.641c-.762 0-1.385-.571-1.43-1.291l-.003-.084v-9c0-.731.595-1.33 1.345-1.373l.088-.002h12.5zm-.618 2.198c.12.15.104.358-.028.49l-.043.036-4.356 3.227c-.694.514-1.616.542-2.335.079l-.093-.063-4.49-3.24c-.173-.124-.208-.36-.078-.525.118-.15.33-.192.498-.104l.049.03 4.49 3.24c.424.305.967.32 1.402.044l.08-.055 4.356-3.226c.17-.127.416-.097.548.067z"/>
</svg>
