<svg xmlns="http://www.w3.org/2000/svg" width="24" height="24" viewBox="0 0 24 24"><g fill="none"><circle cx="12" cy="12" r="12" fill="#88C9F9"/><path fill="#5C913B" d="M17.144 1.17c-.681.38-1.248 1.02-2.019.788-1.25-.375-2.916-1.208-4-.167-1.083 1.042-1.333 2 0 1.959 1.334-.041 2.25-1.625 2.917-.959.667.667.5 1.209-1.083 1.417-1.583.208-3.292.459-4.209.459-.917 0-1.125.541-.5 1.125S7.875 6.417 6.833 7c-1.041.583.25.833 1.126 1.333.875.5 1.541-.125 1.916-.958.376-.834 1.988-1.834 2.66-1.708.674.125.674.458.548 1.041-.125.583.5.417.542-.25.041-.667.792-1.167 1.374-1.208.583-.041 1.084.792.417 1.208-.667.416-1.333.75-.5.959.833.208 1.417 1.292.459 1.75-.958.458-2.625.75-3.375.374-.75-.375-2.459-.916-2.917-.625-.458.291-.708.593-1.25.797-.541.203-2.75 1.203-2.792 2.495C5 13.5 4.96 14.958 5.833 15c.875.041 3-.541 3.667-1.083.667-.542 1.583-.417 1.875.208.291.624.083 1-.208 2-.292 1 .19 1.5.658 2.374.467.875.842 1.375.842 2 0 .626.666 1.25 1.666.208 1-1.042 1.917-3.083 2.334-3.833.416-.75.75-2.417 1.25-2.75.5-.333 1.292-1.125.708-1-.584.125-1.75-.041-2.042-.875-.291-.833-1.541-2.416-.958-2.583.582-.167 1.25.927 1.5 1.443s.583 1.14 1.083 1.307c.5.167 1.583-1.115 1.917-1.307.333-.193.083-.984-.584-.901-.666.083-1.541 0-1.541-.416s.833-.959 1.5-.833c.667.125 1.167.333 1.583.833.417.5 1.25 1.417 1.584 2 .333.583.583.667.75-.375.11-.692.258-1.072.393-1.481a11.994 11.994 0 00-6.666-8.765z"/><path d="M0 0h24v24H0z"/></g></svg>