<?xml version="1.0" encoding="UTF-8"?>
<svg width="32px" height="35px" viewBox="0 0 32 35" version="1.1" xmlns="http://www.w3.org/2000/svg" xmlns:xlink="http://www.w3.org/1999/xlink">
    <!-- Generator: sketchtool 49.1 (51147) - http://www.bohemiancoding.com/sketch -->
    <title>D138C053-9678-4926-990F-365301260531</title>
    <desc>Created with sketchtool.</desc>
    <defs></defs>
    <g id="Écrans" stroke="none" stroke-width="1" fill="none" fill-rule="evenodd">
        <g id="PassCulture-v0rc3-HP2-menu2" transform="translate(-217.000000, -443.000000)">
            <g id="ICONS/ico-settings-w" transform="translate(211.000000, 437.000000)">
                <rect id="crop" x="0" y="0" width="44" height="47"></rect>
                <g id="Page-1" stroke-width="1" fill-rule="evenodd" transform="translate(7.000000, 7.477273)" stroke="#FFFFFF" stroke-linecap="round" stroke-linejoin="round">
                    <path d="M27,12.8181818 C26.8701818,12.8181818 26.7441818,12.8420702 26.6165455,12.8589669 C26.328,11.6435702 25.8769091,10.5010041 25.2889091,9.45107851 C25.3914545,9.36542975 25.5136364,9.32580992 25.6063636,9.22676033 C26.7785455,7.97465702 26.7785455,5.94239256 25.6063636,4.69553306 C24.4369091,3.44226446 22.536,3.44226446 21.3643636,4.69553306 C21.2705455,4.79341736 21.2323636,4.92509504 21.1532727,5.03230165 C20.1709091,4.40421074 19.1007273,3.92352893 17.9618182,3.61530992 C17.9787273,3.48013636 18.0010909,3.34438017 18.0010909,3.20454545 C18.0010909,1.43621901 16.6565455,0 15,0 C13.3445455,0 12,1.43621901 12,3.20454545 C12,3.34438017 12.0234545,3.48013636 12.0392727,3.61530992 C10.9003636,3.92352893 9.82963636,4.40421074 8.84781818,5.03230165 C8.76763636,4.92509504 8.73054545,4.79341736 8.63672727,4.69553306 C7.46563636,3.44226446 5.56527273,3.44226446 4.39472727,4.69553306 C3.22254545,5.94239256 3.22254545,7.97465702 4.39472727,9.22676033 C4.48745455,9.32580992 4.61072727,9.36542975 4.71327273,9.45107851 C4.12309091,10.5010041 3.67309091,11.6435702 3.38454545,12.8589669 C3.258,12.8420702 3.132,12.8181818 3.00109091,12.8181818 C1.34454545,12.8181818 0,14.2532355 0,16.0227273 C0,17.792219 1.34454545,19.2272727 3.00109091,19.2272727 C3.132,19.2272727 3.258,19.2033843 3.38454545,19.1864876 C3.67309091,20.4018843 4.12309091,21.5444504 4.71109091,22.594376 C4.61072727,22.6800248 4.48745455,22.7196446 4.39472727,22.8186942 C3.22254545,24.0713802 3.22254545,26.103062 4.39472727,27.3510868 C5.56527273,28.6031901 7.46563636,28.6031901 8.63672727,27.3510868 C8.73054545,27.2520372 8.76763636,27.1203595 8.84781818,27.0131529 C9.82963636,27.6412438 10.9003636,28.1219256 12.0392727,28.4313099 C12.0234545,28.5653182 12,28.7010744 12,28.8409091 C12,30.6104008 13.3445455,32.0454545 15,32.0454545 C16.6565455,32.0454545 18.0010909,30.6104008 18.0010909,28.8409091 C18.0010909,28.7010744 17.9787273,28.5653182 17.9618182,28.4313099 C19.1007273,28.1219256 20.1709091,27.6412438 21.1532727,27.0131529 C21.2323636,27.1203595 21.2705455,27.2520372 21.3643636,27.3510868 C22.536,28.6031901 24.4369091,28.6031901 25.6063636,27.3510868 C26.7785455,26.103062 26.7785455,24.0713802 25.6063636,22.8186942 C25.5136364,22.7196446 25.3914545,22.6800248 25.29,22.594376 C25.8769091,21.5444504 26.328,20.4018843 26.6165455,19.1864876 C26.7441818,19.2033843 26.8701818,19.2272727 27,19.2272727 C28.6576364,19.2272727 30,17.792219 30,16.0227273 C30,14.2532355 28.6576364,12.8181818 27,12.8181818 Z" id="Stroke-1" stroke-width="2"></path>
                    <path d="M19.5,16.0240381 C19.5,18.6791268 17.4853402,20.8295455 14.9993863,20.8295455 C12.5146598,20.8295455 10.5,18.6791268 10.5,16.0240381 C10.5,13.3689494 12.5146598,11.2159091 14.9993863,11.2159091 C17.4853402,11.2159091 19.5,13.3689494 19.5,16.0240381 Z" id="Stroke-3" stroke-width="2"></path>
                </g>
            </g>
        </g>
    </g>
</svg>