<svg xmlns="http://www.w3.org/2000/svg" width="48" height="48" viewBox="0 0 48 48"><defs><linearGradient id="a" x1=".444%" x2="99.556%" y1="0%" y2="100%"><stop offset="0%" stop-color="#EB0055"/><stop offset="100%" stop-color="#320096"/></linearGradient></defs><path fill="url(#a)" fill-rule="evenodd" d="M24 29.25a.75.75 0 01.75.75c0 2.82-.827 4.887-2.22 6.28-.857.857-1.726 1.292-2.348 1.448a.75.75 0 01-.461-1.424l.201-.064c.09-.032.215-.084.368-.16.4-.2.802-.482 1.18-.86 1.107-1.107 1.78-2.79 1.78-5.22a.75.75 0 01.75-.75zm3.427-18.72c.429-.002.855.06 1.288.188a4.129 4.129 0 012.113 6.254l-.138.188-1.773 2.359 2.701-1.08a4.127 4.127 0 013.586.18l.204.118a4.146 4.146 0 011.942 3.307c.003.426-.053.849-.165 1.249a4.59 4.59 0 01-2.796 3.106l-.206.073.142.165c.102.125.197.255.285.391l.127.207a4.586 4.586 0 01.459 3.484 4.101 4.101 0 01-7.27 1.395.749.749 0 111.208-.888 2.6 2.6 0 004.612-.891 3.09 3.09 0 00-1.993-3.731l-.198-.06c-.929-.25-.604-1.6.283-1.47l.107.022c.721.194 1.485.12 2.152-.203l.197-.105a3.092 3.092 0 001.444-1.89c.076-.274.114-.558.113-.805a2.631 2.631 0 00-3.476-2.337l-.186.07-5.2 2.08c-.674.27-1.28-.47-.932-1.066l.053-.08 3.387-4.51a2.63 2.63 0 00.437-2.378 2.62 2.62 0 00-1.667-1.723 2.91 2.91 0 00-.837-.119 3.1 3.1 0 00-3.095 2.924l-.006.176c-.001.959-1.377.997-1.491.12l-.008-.122-.006-.204a3.092 3.092 0 00-.757-1.837l-.14-.15a3.088 3.088 0 00-2.647-.87 2.639 2.639 0 00-1.703 4.054l.115.161 3.18 4.27c.432.58-.126 1.355-.79 1.175l-.091-.03-4.604-1.847a2.618 2.618 0 00-2.4.183 2.605 2.605 0 00-1.237 2.02c-.001.29.035.58.104.852a3.1 3.1 0 003.616 2.232l.177-.042c.965-.257 1.352 1.19.388 1.45a3.097 3.097 0 00-2.194 3.779c.046.16.102.316.154.44a2.642 2.642 0 004.368.586l.117-.144 2.113-2.685.83-1a.75.75 0 011.219.868l-.065.09-.817.985-2.093 2.66a4.138 4.138 0 01-7.036-.737 5.465 5.465 0 01-.236-.664 4.597 4.597 0 01.84-4.043l.177-.211-.039-.012a4.607 4.607 0 01-2.909-2.963l-.06-.209a4.973 4.973 0 01-.153-1.282 4.12 4.12 0 011.948-3.246 4.114 4.114 0 013.53-.383l.23.09 2.12.849-1.583-2.125a4.14 4.14 0 01-.67-3.772l.078-.225a4.147 4.147 0 013.117-2.601c.236-.038.475-.058.719-.06a4.587 4.587 0 013.72 1.901l.122.178.09-.132a4.59 4.59 0 013.545-1.942l.21-.005z"/></svg>