<svg xmlns="http://www.w3.org/2000/svg" width="32" height="32" viewBox="0 0 32 32"><path fill="#FFF" fill-rule="evenodd" d="M9.679 9.01l4.492 4.41a3.645 3.645 0 010 5.222L9.743 22.99a.996.996 0 01-1.39 0 .952.952 0 010-1.366l4.427-4.347c.7-.688.7-1.803 0-2.49l-4.492-4.411a.954.954 0 010-1.366.997.997 0 011.391 0zm14.033 0a.954.954 0 010 1.366l-4.492 4.41c-.7.688-.7 1.803 0 2.49l4.428 4.348a.954.954 0 010 1.366.997.997 0 01-1.391 0l-4.428-4.348a3.644 3.644 0 010-5.221l4.492-4.41a.994.994 0 011.39 0z"/></svg>