<svg xmlns="http://www.w3.org/2000/svg" width="124" height="125" viewBox="0 0 124 125">
    <path fill="#151515" fill-rule="evenodd" d="M75.782 74.072l.217.187L98.89 97.15c.757.757.757 1.983 0 2.74-.688.688-1.764.75-2.523.188l-.217-.188L73.26 77c-.758-.757-.758-1.984 0-2.74.687-.689 1.763-.751 2.522-.188zM52.1 29.417c13.08 0 23.687 10.604 23.687 23.684 0 13.08-10.607 23.686-23.687 23.686-13.08 0-23.684-10.606-23.684-23.686S39.02 29.417 52.1 29.417zm0 3.875c-10.94 0-19.809 8.869-19.809 19.809 0 10.94 8.87 19.811 19.81 19.811s19.811-8.871 19.811-19.811S63.041 33.29 52.1 33.29zm-4.847 7.536c.536.927.22 2.112-.707 2.648-3.41 1.973-5.556 5.612-5.556 9.625 0 1.07-.867 1.937-1.937 1.937s-1.938-.867-1.938-1.937c0-5.41 2.895-10.32 7.49-12.98.927-.535 2.112-.219 2.648.707z"/>
</svg>
