<svg xmlns="http://www.w3.org/2000/svg" width="24" height="24" viewBox="0 0 24 24">
    <g fill="none" fill-rule="evenodd">
        <g fill="#E60039">
            <g>
                <path d="M12 4.5c4.142 0 7.5 3.358 7.5 7.5 0 4.142-3.358 7.5-7.5 7.5-4.142 0-7.5-3.358-7.5-7.5 0-4.142 3.358-7.5 7.5-7.5zm-.125 10.094c-.277 0-.5.224-.5.5s.223.5.5.5c.276 0 .5-.224.5-.5s-.224-.5-.5-.5zM12 8.216c-.276 0-.5.167-.5.375v4.45l.004.051c.033.183.243.324.496.324.276 0 .5-.168.5-.375v-4.45l-.005-.051c-.033-.183-.242-.324-.495-.324z" transform="translate(-913 -298) translate(913 298)"/>
            </g>
        </g>
    </g>
</svg>
