<?xml version="1.0" encoding="UTF-8"?>
<svg width="28px" height="28px" viewBox="0 0 28 28" version="1.1" xmlns="http://www.w3.org/2000/svg" xmlns:xlink="http://www.w3.org/1999/xlink">
    <!-- Generator: sketchtool 55.2 (78181) - https://sketchapp.com -->
    <title>7314D414-DE0B-49DA-AF76-A0A958772C54</title>
    <desc>Created with sketchtool.</desc>
    <g id="Menu-et-rubriques" stroke="none" stroke-width="1" fill="none" fill-rule="evenodd">
        <g id="PassCulture-v0rc3-mespreferes-edit" transform="translate(-12.000000, -76.000000)" fill="#FFFFFF" fill-rule="nonzero">
            <g id="Group-2-Copy" transform="translate(12.000000, 76.000000)">
                <g id="ICONS/ico-bin-w">
                    <path d="M10.8181818,8.27272727 L9.54545455,8.27272727 C8.84254668,8.27272727 8.27272727,8.84254668 8.27272727,9.54545455 L8.27272727,10.1818182 L18.4545455,10.1818182 L18.4545455,9.54545455 C18.4545455,8.84254668 17.884726,8.27272727 17.1818182,8.27272727 L15.9090909,8.27272727 L15.9090909,7 C15.9090909,6.64854607 15.6241812,6.36363636 15.2727273,6.36363636 L11.4545455,6.36363636 C11.1030915,6.36363636 10.8181818,6.64854607 10.8181818,7 L10.8181818,8.27272727 Z M11.4545455,5.09090909 L15.2727273,5.09090909 C16.3270891,5.09090909 17.1818182,5.9456382 17.1818182,7 C18.5876339,7 19.7272727,8.13963882 19.7272727,9.54545455 L19.7272727,10.1818182 C19.7272727,10.884726 19.1574533,11.4545455 18.4545455,11.4545455 L8.27272727,11.4545455 C7.56981941,11.4545455 7,10.884726 7,10.1818182 L7,9.54545455 C7,8.13963882 8.13963882,7 9.54545455,7 C9.54545455,5.9456382 10.4001837,5.09090909 11.4545455,5.09090909 Z M8.90909091,11.4545455 L8.90909091,20.3636364 C8.90909091,21.0665442 9.47891032,21.6363636 10.1818182,21.6363636 L16.5454545,21.6363636 C17.2483624,21.6363636 17.8181818,21.0665442 17.8181818,20.3636364 L17.8181818,11.4545455 L8.90909091,11.4545455 Z M8.90909091,10.1818182 L17.8181818,10.1818182 C18.5210897,10.1818182 19.0909091,10.7516376 19.0909091,11.4545455 L19.0909091,20.3636364 C19.0909091,21.7694521 17.9512703,22.9090909 16.5454545,22.9090909 L10.1818182,22.9090909 C8.77600245,22.9090909 7.63636364,21.7694521 7.63636364,20.3636364 L7.63636364,11.4545455 C7.63636364,10.7516376 8.20618305,10.1818182 8.90909091,10.1818182 Z M15.9090909,13.3636364 C15.557637,13.3636364 15.2727273,13.6485461 15.2727273,14 L15.2727273,19.0909091 C15.2727273,19.442363 15.557637,19.7272727 15.9090909,19.7272727 C16.2605448,19.7272727 16.5454545,19.442363 16.5454545,19.0909091 L16.5454545,14 C16.5454545,13.6485461 16.2605448,13.3636364 15.9090909,13.3636364 Z M13.3636364,13.3636364 C13.0121824,13.3636364 12.7272727,13.6485461 12.7272727,14 L12.7272727,19.0909091 C12.7272727,19.442363 13.0121824,19.7272727 13.3636364,19.7272727 C13.7150903,19.7272727 14,19.442363 14,19.0909091 L14,14 C14,13.6485461 13.7150903,13.3636364 13.3636364,13.3636364 Z M10.8181818,13.3636364 C10.4667279,13.3636364 10.1818182,13.6485461 10.1818182,14 L10.1818182,19.0909091 C10.1818182,19.442363 10.4667279,19.7272727 10.8181818,19.7272727 C11.1696357,19.7272727 11.4545455,19.442363 11.4545455,19.0909091 L11.4545455,14 C11.4545455,13.6485461 11.1696357,13.3636364 10.8181818,13.3636364 Z M12.0909091,7.63636364 L12.0909091,8.27272727 L14.6363636,8.27272727 L14.6363636,7.63636364 L12.0909091,7.63636364 Z" id="ico-bin"></path>
                </g>
            </g>
        </g>
    </g>
</svg>