<svg xmlns="http://www.w3.org/2000/svg" width="32" height="33" viewBox="0 0 32 33"><path fill="#FFF" fill-rule="evenodd" d="M15.936 25.088a.59.59 0 01.576.603v5.45a.59.59 0 01-.576.603.59.59 0 01-.576-.602V25.69a.59.59 0 01.576-.603zm4.036 1.059l1.119 3.524a.61.61 0 01-.38.763.593.593 0 01-.747-.389l-1.119-3.523c-.1-.319.07-.66.38-.764a.589.589 0 01.747.389zm-7.843 1.274c.315.1.488.43.385.738l-.334 1.004a.6.6 0 01-.757.376.582.582 0 01-.385-.738l.334-1.004a.604.604 0 01.757-.376zm-2.134-3.497a.614.614 0 01.131.847l-2.78 3.907a.588.588 0 01-.83.134.615.615 0 01-.13-.847l2.78-3.907a.586.586 0 01.83-.134zm10.793-2.557l4.314 5.971a.6.6 0 01-.131.836.592.592 0 01-.831-.133l-4.314-5.971a.6.6 0 01.131-.836.592.592 0 01.831.133zm-6.615.038a.593.593 0 01.39.749l-1.347 4.06a.607.607 0 01-.765.38.592.592 0 01-.39-.748l1.347-4.06a.61.61 0 01.765-.38zM3.979 24.43a.555.555 0 01-.135.805l-.186.128a.637.637 0 01-.853-.127.555.555 0 01.135-.805l.186-.128a.635.635 0 01.853.127zm14.592-2.767l.856 2.643a.6.6 0 01-.567.783.595.595 0 01-.567-.414l-.856-2.643a.595.595 0 111.134-.369zm8.246 1.234l1.606 1.131c.27.19.33.557.133.82a.61.61 0 01-.49.241.614.614 0 01-.355-.112l-1.606-1.131a.575.575 0 01-.133-.82.618.618 0 01.845-.129zM10.38 19.832a.602.602 0 01-.133.84l-4.686 3.405a.6.6 0 01-.839-.133.602.602 0 01.133-.84L9.542 19.7a.602.602 0 01.84.133zm5.555 1.416c.318 0 .576.263.576.588v1.64a.582.582 0 01-.576.588.582.582 0 01-.576-.588v-1.64c0-.325.258-.588.576-.588zm-4.028-.011a.609.609 0 01.135.852l-.696.956a.613.613 0 01-.855.134.609.609 0 01-.135-.852l.696-.955a.613.613 0 01.855-.135zm10.434-1.665l2.751 1.988a.604.604 0 01-.358 1.096.606.606 0 01-.357-.116l-2.751-1.988a.604.604 0 01-.135-.846.612.612 0 01.85-.134zm-16.228-.595a.601.601 0 01-.389.76l-3.78 1.225a.605.605 0 01-.763-.387.601.601 0 01.389-.76l3.78-1.225c.318-.103.66.07.763.387zm19.126-.9l3.526 1.12a.59.59 0 01-.187 1.155.61.61 0 01-.187-.03l-3.526-1.12a.588.588 0 01-.388-.745.609.609 0 01.762-.38zm-14.901-.508a.607.607 0 01-.379.76l-2.147.713a.584.584 0 01-.744-.387.607.607 0 01.379-.76l2.147-.713c.31-.103.643.07.744.387zm11.96-.389l1.217.377c.32.099.494.426.39.73a.606.606 0 01-.578.401.65.65 0 01-.188-.029l-1.216-.376a.573.573 0 01-.39-.73.616.616 0 01.766-.373zM3.884 15.232c.33 0 .597.258.597.576a.587.587 0 01-.597.576H.597A.587.587 0 010 15.808c0-.318.268-.576.597-.576h3.286zm5.891 0c.328 0 .594.258.594.576a.585.585 0 01-.594.576H5.97a.585.585 0 01-.594-.576c0-.318.266-.576.594-.576h3.804zm18.428-.128c.33 0 .598.258.598.576a.588.588 0 01-.598.576h-6.1a.588.588 0 01-.598-.576c0-.318.268-.576.598-.576h6.1zm3.329 0c.33 0 .597.258.597.576a.587.587 0 01-.597.576h-1.11a.587.587 0 01-.597-.576c0-.318.267-.576.597-.576h1.11zm-22.8-2.276l1.217.377c.32.099.494.426.39.73a.606.606 0 01-.578.401.646.646 0 01-.188-.029l-1.216-.376a.573.573 0 01-.39-.73.616.616 0 01.766-.373zm16.072.005a.607.607 0 01-.379.76l-2.147.713a.584.584 0 01-.744-.387.607.607 0 01.379-.76l2.147-.713c.31-.103.643.07.744.387zM3.48 11.165l3.526 1.12a.59.59 0 01-.187 1.155.61.61 0 01-.187-.03l-3.526-1.12a.588.588 0 01-.388-.745.609.609 0 01.762-.38zm27.21-.25a.609.609 0 01-.38.764l-3.677 1.22a.596.596 0 01-.748-.391.609.609 0 01.382-.763l3.676-1.22a.593.593 0 01.748.39zM7.623 8.948l2.751 1.988a.604.604 0 01-.358 1.096.606.606 0 01-.357-.116L6.907 9.928a.604.604 0 01-.135-.846.612.612 0 01.85-.134zM27.15 7.544a.602.602 0 01-.133.84l-4.686 3.405a.6.6 0 01-.839-.133.602.602 0 01.133-.84l4.686-3.405a.602.602 0 01.84.133zM21.125 8.69a.585.585 0 01.135.83l-.448.603a.615.615 0 01-.849.131.586.586 0 01-.135-.83l.448-.603a.617.617 0 01.85-.131zM7.494 3.192l4.55 6.222a.599.599 0 01-.488.954.605.605 0 01-.49-.248l-4.55-6.222a.599.599 0 01.133-.84.608.608 0 01.845.134zm6.223 3.628l.845 2.625a.607.607 0 01-.571.795.601.601 0 01-.572-.42l-.845-2.625a.607.607 0 01.386-.765.598.598 0 01.757.39zm2.219-3.748c.318 0 .576.269.576.6v5.84c0 .331-.258.6-.576.6a.589.589 0 01-.576-.6v-5.84c0-.331.258-.6.576-.6zm3.613 1.821a.593.593 0 01.39.749l-1.347 4.06a.607.607 0 01-.765.38.592.592 0 01-.39-.748l1.347-4.06a.61.61 0 01.765-.38zM4.169 6.515l1.723 1.23a.595.595 0 01.135.84.614.614 0 01-.853.132l-1.722-1.23a.595.595 0 01-.135-.84.617.617 0 01.853-.132zm21.309-3.842a.586.586 0 01.134.83l-3.394 4.572a.618.618 0 01-.848.132.586.586 0 01-.134-.83l3.394-4.572a.616.616 0 01.848-.132zm-13.307-.34l.856 2.644a.6.6 0 01-.567.783.595.595 0 01-.567-.414l-.856-2.643a.595.595 0 111.134-.369zm8.278-.384c.315.1.488.43.385.738L20.5 3.69a.6.6 0 01-.757.376.582.582 0 01-.385-.738l.334-1.004a.604.604 0 01.757-.376zM15.936.256c.318 0 .576.274.576.613v.694c0 .339-.258.613-.576.613-.318 0-.576-.274-.576-.613V.87c0-.339.258-.613.576-.613z"/></svg>