<svg xmlns="http://www.w3.org/2000/svg" width="120" height="120" viewBox="0 0 120 120"><path fill="#FFF" fill-rule="evenodd" d="M42.687 45.625c2.112-.042 3.953 1.43 4.344 3.372a5.626 5.626 0 005.419 4.116c2.525 0 4.741-1.683 5.388-3.988.422-2.07 2.263-3.542 4.337-3.5H67.5a6.875 6.875 0 016.875 6.875V90a6.875 6.875 0 01-6.875 6.875l-5.462-.001c-1.975-.066-3.66-1.446-4.1-3.319A5.626 5.626 0 0052.5 89.37c-2.552 0-4.784 1.718-5.425 4.135-.453 1.923-2.138 3.303-4.175 3.37h-5.4A6.875 6.875 0 0130.625 90V52.5a6.875 6.875 0 016.875-6.875zm19.45 3.75c-.302-.006-.565.204-.656.628l-.147.48a9.375 9.375 0 01-8.884 6.38c-4.209 0-7.902-2.805-9.062-6.988-.06-.296-.323-.506-.663-.5H37.5a3.125 3.125 0 00-3.125 3.125V90c0 1.726 1.4 3.125 3.125 3.125l5.338.001c.282-.01.522-.207.6-.531A9.373 9.373 0 0152.5 85.62c4.253 0 7.974 2.863 9.075 7.025.065.274.305.472.525.48h5.4c1.726 0 3.125-1.4 3.125-3.125V52.5c0-1.726-1.4-3.125-3.125-3.125zm-7.814-21.168l.517.127 5.334 1.366c1.93.56 3.23 2.366 3.15 4.239a5.631 5.631 0 004.255 5.273c2.496.66 5.129-.402 6.433-2.549.878-1.577 2.626-2.442 4.445-2.197l.39.07 5.325 1.387a6.699 6.699 0 015.071 7.794l-.112.486-8.2 29.45a1.876 1.876 0 01-3.664-.757l.052-.249 8.195-29.432a2.956 2.956 0 00-.32-2.283 2.96 2.96 0 00-1.57-1.267l-.347-.1-5.307-1.384c-.27-.06-.547.064-.717.367a9.57 9.57 0 01-10.615 4.294c-4.046-1.027-6.926-4.608-7.062-8.917a.64.64 0 00-.266-.548l-.125-.06-5.33-1.366a3.127 3.127 0 00-2.386.272 3.127 3.127 0 00-1.365 1.518l-.11.317-1.926 7.65a1.874 1.874 0 01-3.682-.665l.046-.25 1.938-7.7a6.877 6.877 0 013.275-4.147 6.871 6.871 0 014.678-.74zM62.5 64.375a1.875 1.875 0 01.255 3.733l-.255.017h-20a1.875 1.875 0 01-.255-3.733l.255-.017h20z"/></svg>