<?xml version="1.0" encoding="UTF-8"?>
<svg width="210px" height="154px" viewBox="0 0 210 154" version="1.1" xmlns="http://www.w3.org/2000/svg" xmlns:xlink="http://www.w3.org/1999/xlink">
    <g stroke="none" stroke-width="1" fill="none" fill-rule="evenodd">
        <g transform="translate(-82.000000, -256.000000)">
            <g transform="translate(82.000000, 256.000000)">
                <g>
                    <rect x="0" y="0" width="210" height="154"></rect>
                    <path d="M52.8744,110.7324 C52.9024,110.7324 52.9308,110.7342 52.9592,110.7378 C53.327,110.7842 53.5872,111.12 53.5408,111.4874 L52.7438,117.7972 C52.6972,118.165 52.3608,118.4268 51.994,118.3788 C51.6264,118.3324 51.366,117.9968 51.4126,117.629 L52.2096,111.3194 C52.2524,110.9802 52.5414,110.7324 52.8744,110.7324 Z M40.006,107.751 C40.0882,107.751 40.1718,107.766 40.2528,107.798 C40.5972,107.9348 40.766,108.3246 40.6296,108.669 L39.4494,111.6502 C39.313,111.995 38.9232,112.1642 38.5786,112.0272 C38.2342,111.8906 38.0654,111.5008 38.2016,111.1562 L39.382,108.175 C39.4866,107.9118 39.739,107.751 40.006,107.751 Z M48.1612,102.6182 C48.2162,102.6182 48.2724,102.625 48.3284,102.6394 C48.6874,102.7316 48.9036,103.0972 48.8114,103.456 L46.7282,111.5704 C46.6362,111.9292 46.2714,112.1464 45.9116,112.0534 C45.5526,111.9612 45.3364,111.5954 45.4286,111.2368 L47.5118,103.1224 C47.5894,102.8196 47.8622,102.6182 48.1612,102.6182 Z M37.71,98.2124 C37.8194,98.2124 37.93,98.239 38.0324,98.2956 C38.3572,98.474 38.4756,98.8818 38.2972,99.2064 L31.6772,111.2166 C31.499,111.5416 31.0912,111.6598 30.7662,111.4814 C30.4416,111.303 30.323,110.8952 30.5014,110.5704 L37.1214,98.5604 C37.2436,98.338 37.4732,98.2124 37.71,98.2124 Z M30.2862,98.7722 C30.4228,98.7722 30.561,98.8138 30.68,98.9004 C30.9798,99.1182 31.0462,99.5376 30.8286,99.8374 L28.204,103.4498 C27.9864,103.749 27.5668,103.8164 27.2668,103.5984 C26.967,103.3804 26.9004,102.961 27.1182,102.6614 L29.7428,99.0488 C29.8742,98.8682 30.0788,98.7722 30.2862,98.7722 Z M50.899,91.9552 C50.954,91.9552 51.0102,91.9622 51.0662,91.9766 C51.425,92.0688 51.6414,92.4342 51.5492,92.7932 L49.4706,100.8886 C49.3786,101.2474 49.014,101.4648 48.654,101.3714 C48.295,101.2792 48.0788,100.9138 48.171,100.5548 L50.2496,92.4594 C50.3272,92.1564 50.6,91.9552 50.899,91.9552 Z M38.3788,87.6338 C38.5156,87.6338 38.6536,87.6754 38.7726,87.7622 C39.0724,87.9796 39.139,88.3992 38.9212,88.6988 L32.8402,97.0682 C32.6228,97.3684 32.203,97.4352 31.9034,97.2166 C31.6034,96.9988 31.537,96.5792 31.7548,96.2796 L37.8358,87.9104 C37.967,87.7296 38.1714,87.6338 38.3788,87.6338 Z M50.113,82.224 C50.1952,82.224 50.2788,82.2392 50.3598,82.2712 C50.7042,82.4078 50.873,82.7976 50.7368,83.142 L42.137,104.8624 C42.0006,105.207 41.611,105.3762 41.2662,105.2394 C40.9216,105.103 40.7528,104.713 40.8892,104.3686 L49.489,82.6482 C49.5934,82.3848 49.8458,82.224 50.113,82.224 Z M56.4756,82.2238 C56.5038,82.2238 56.5322,82.2256 56.5606,82.2292 C56.9284,82.2756 57.1886,82.6114 57.1422,82.979 L54.0048,107.8138 C53.9582,108.1814 53.622,108.4428 53.2552,108.3954 C52.8874,108.349 52.6272,108.0134 52.6738,107.6456 L55.811,82.8108 C55.8538,82.4718 56.1426,82.2238 56.4756,82.2238 Z M46.4824,82.2238 C46.5918,82.2238 46.7024,82.2506 46.8048,82.307 C47.1296,82.4856 47.2482,82.8934 47.0696,83.218 L40.2362,95.6794 C40.058,96.0042 39.6496,96.123 39.3252,95.9444 C39.0004,95.7658 38.882,95.358 39.0604,95.0334 L45.894,82.5718 C46.016,82.3496 46.2456,82.2238 46.4824,82.2238 Z M53.3974,82.2238 C53.4526,82.2238 53.5086,82.2306 53.5648,82.2452 C53.9236,82.3374 54.1398,82.7028 54.0476,83.0618 L52.4594,89.2474 C52.3674,89.6064 52.0024,89.824 51.6428,89.7304 C51.284,89.6382 51.0676,89.2726 51.1598,88.9138 L52.7482,82.7282 C52.8258,82.4252 53.0984,82.2238 53.3974,82.2238 Z M42.7448,81.6246 C42.8816,81.6246 43.0196,81.666 43.1386,81.7528 C43.4384,81.9706 43.505,82.39 43.2872,82.6896 L40.4742,86.5616 C40.2566,86.861 39.8368,86.9284 39.537,86.7102 C39.2372,86.4922 39.1706,86.0726 39.3884,85.773 L42.2014,81.9012 C42.3328,81.7206 42.5374,81.6246 42.7448,81.6246 Z M66.0346,7.8478 C66.0066,7.8478 65.9782,7.846 65.9496,7.8424 C65.582,7.7958 65.3216,7.4604 65.3682,7.0926 L66.1654,0.7828 C66.2118,0.4152 66.5482,0.1536 66.915,0.2014 C67.2826,0.2476 67.543,0.5834 67.4964,0.951 L66.6994,7.2608 C66.6566,7.6 66.3676,7.8478 66.0346,7.8478 Z M78.903,10.8292 C78.8208,10.8292 78.7372,10.814 78.6562,10.782 C78.3118,10.6456 78.143,10.2556 78.2792,9.9112 L79.4596,6.9298 C79.5958,6.5854 79.9858,6.4158 80.3304,6.5532 C80.6748,6.6896 80.8436,7.0794 80.7074,7.4238 L79.527,10.405 C79.4226,10.6686 79.1702,10.8292 78.903,10.8292 Z M47.8666,14.847 C47.5676,14.847 47.295,14.6458 47.2172,14.3428 L46.2332,10.5104 C46.141,10.1514 46.3572,9.786 46.7162,9.6938 C47.0764,9.601 47.4408,9.818 47.5328,10.1766 L48.5168,14.0092 C48.609,14.368 48.3928,14.7336 48.0338,14.8258 C47.978,14.8402 47.9218,14.847 47.8666,14.847 Z M44.4,21.3182 C44.133,21.3182 43.8806,21.1574 43.776,20.8942 L37.1486,4.785 C37.0122,4.4404 37.181,4.0506 37.5254,3.914 C37.8696,3.7768 38.2598,3.9462 38.3962,4.291 L45.0238,20.4002 C45.16,20.7446 44.9914,21.1344 44.6468,21.2708 C44.5658,21.303 44.4822,21.3182 44.4,21.3182 Z M34.9216,15.3422 C34.6846,15.3422 34.455,15.2164 34.333,14.9944 L31.4152,9.6872 C31.2368,9.3626 31.3552,8.9544 31.68,8.7762 C32.0046,8.5976 32.4126,8.716 32.591,9.0408 L35.5088,14.348 C35.6872,14.6726 35.5686,15.0806 35.244,15.259 C35.1416,15.3154 35.0308,15.3422 34.9216,15.3422 Z M70.748,15.962 C70.6928,15.962 70.6366,15.955 70.5806,15.9406 C70.2216,15.8484 70.0054,15.483 70.0976,15.124 L72.1808,7.01 C72.2728,6.651 72.6374,6.4336 72.9974,6.527 C73.3564,6.6192 73.5726,6.9846 73.4804,7.3436 L71.3972,15.4578 C71.3196,15.7608 71.0468,15.962 70.748,15.962 Z M81.199,20.3678 C81.0896,20.3678 80.979,20.341 80.8766,20.2846 C80.5518,20.1062 80.4332,19.6982 80.6118,19.3736 L87.2318,7.3634 C87.41,7.0386 87.8178,6.9204 88.1428,7.0988 C88.4674,7.2774 88.586,7.6852 88.4076,8.0098 L81.7874,20.02 C81.6656,20.242 81.4358,20.3678 81.199,20.3678 Z M59.4502,16.625 C59.0798,16.625 58.7794,16.3246 58.7794,15.9542 L58.7794,4.0218 C58.7794,3.6514 59.0798,3.351 59.4502,3.351 C59.8208,3.351 60.121,3.6514 60.121,4.0218 L60.121,15.9542 C60.121,16.3246 59.8208,16.625 59.4502,16.625 Z M88.6228,19.8078 C88.4862,19.8078 88.348,19.7664 88.229,19.6796 C87.9292,19.462 87.8626,19.0424 88.0804,18.7428 L90.705,15.1304 C90.9226,14.8312 91.3422,14.7638 91.642,14.9818 C91.942,15.1998 92.0084,15.6194 91.7908,15.919 L89.1662,19.5312 C89.035,19.712 88.8304,19.8078 88.6228,19.8078 Z M54.5108,20.8592 C54.1778,20.8592 53.8888,20.6114 53.846,20.272 L51.5702,2.2632 C51.5236,1.8958 51.7838,1.5602 52.1516,1.5136 C52.5182,1.4646 52.8546,1.7272 52.9012,2.0952 L55.1772,20.1042 C55.2238,20.4714 54.9634,20.807 54.5956,20.8538 C54.5672,20.8572 54.5388,20.8592 54.5108,20.8592 Z M95.3158,21.768 C95.151,21.768 94.9862,21.7078 94.8568,21.5862 C94.5866,21.3324 94.5734,20.9078 94.8268,20.6378 L99.2724,15.9038 C99.5262,15.6334 99.9504,15.6198 100.2208,15.874 C100.491,16.1278 100.5042,16.5524 100.2506,16.8222 L95.805,21.5562 C95.6728,21.697 95.4946,21.768 95.3158,21.768 Z M32.9108,23.4316 C32.7032,23.4316 32.4986,23.3358 32.3672,23.155 L28.385,17.6738 C28.1672,17.374 28.2338,16.9546 28.5336,16.7368 C28.8336,16.519 29.2532,16.5862 29.4708,16.8852 L33.453,22.3666 C33.6708,22.6662 33.6042,23.0858 33.3044,23.3038 C33.1854,23.3902 33.0474,23.4316 32.9108,23.4316 Z M68.01,26.625 C67.955,26.625 67.8988,26.6182 67.8428,26.6038 C67.4838,26.5116 67.2676,26.1458 67.3598,25.7872 L69.4384,17.6916 C69.5304,17.3326 69.8952,17.1152 70.255,17.2086 C70.614,17.3008 70.8302,17.6662 70.738,18.0252 L68.6594,26.1208 C68.5818,26.4236 68.309,26.625 68.01,26.625 Z M50.934,26.7938 C50.635,26.7938 50.3624,26.5924 50.2846,26.2894 L48.2666,18.43 C48.1744,18.071 48.3906,17.7056 48.7496,17.6134 C49.1098,17.5206 49.4742,17.7376 49.5662,18.0962 L51.5842,25.9558 C51.6764,26.3148 51.4602,26.6802 51.1012,26.7724 C51.0452,26.787 50.989,26.7938 50.934,26.7938 Z M20.4006,27.6564 C20.25,27.6564 20.0986,27.606 19.9734,27.5026 L13.6492,22.2708 C13.3636,22.0346 13.3236,21.6118 13.5598,21.3264 C13.7956,21.0406 14.2186,21.0006 14.5044,21.237 L20.8286,26.4688 C21.1142,26.7048 21.1542,27.1278 20.918,27.4132 C20.7854,27.5736 20.5938,27.6564 20.4006,27.6564 Z M29.821,28.4088 C29.6422,28.4088 29.464,28.3378 29.3318,28.197 L18.65,16.8222 C18.3964,16.5524 18.4096,16.1278 18.6798,15.874 C18.9498,15.6198 19.3744,15.6334 19.6282,15.9038 L30.31,27.2788 C30.5634,27.5486 30.5502,27.9732 30.28,28.227 C30.1506,28.3486 29.9858,28.4088 29.821,28.4088 Z M80.5302,30.9462 C80.3934,30.9462 80.2554,30.9048 80.1364,30.8182 C79.8366,30.6004 79.77,30.1808 79.9878,29.8812 L86.0688,21.512 C86.2862,21.212 86.706,21.145 87.0056,21.3636 C87.3056,21.5814 87.372,22.0008 87.154,22.3006 L81.0732,30.6698 C80.942,30.8504 80.7376,30.9462 80.5302,30.9462 Z M59.4502,31.3472 C59.0798,31.3472 58.7794,31.0468 58.7794,30.6764 L58.7794,19.1372 C58.7794,18.7666 59.0798,18.4662 59.4502,18.4662 C59.8208,18.4662 60.121,18.7666 60.121,19.1372 L60.121,30.6764 C60.121,31.0468 59.8208,31.3472 59.4502,31.3472 Z M38.778,31.5072 C38.5706,31.5072 38.3662,31.4116 38.2346,31.2306 L33.9932,25.3928 C33.7754,25.0932 33.842,24.6736 34.1418,24.4556 C34.441,24.2376 34.8606,24.3042 35.079,24.6042 L39.3204,30.4422 C39.5382,30.7418 39.4716,31.1614 39.1718,31.3792 C39.0528,31.4658 38.9148,31.5072 38.778,31.5072 Z M93.573,31.7326 C93.3798,31.7326 93.1884,31.65 93.0556,31.4894 C92.8194,31.2042 92.8592,30.781 93.145,30.545 L101.7216,23.4496 C102.0072,23.2134 102.4298,23.2532 102.6662,23.539 C102.9024,23.8244 102.8624,24.2474 102.5768,24.4836 L94.0002,31.5788 C93.875,31.6822 93.7236,31.7326 93.573,31.7326 Z M82.7298,35.1708 C82.5652,35.1708 82.4002,35.1106 82.2706,34.989 C82.0004,34.7352 81.9872,34.3108 82.241,34.0406 L92.4286,23.1918 C92.6824,22.9214 93.1066,22.9078 93.377,23.162 C93.6472,23.4156 93.6604,23.8402 93.4068,24.1102 L83.219,34.9592 C83.087,35.0998 82.9086,35.1708 82.7298,35.1708 Z M98.514,35.1708 C98.2918,35.1708 98.0748,35.0608 97.947,34.8594 C97.7484,34.5464 97.841,34.132 98.1538,33.9336 L103.155,30.7598 C103.468,30.5602 103.8826,30.6536 104.081,30.9666 C104.2796,31.2794 104.187,31.694 103.8742,31.8924 L98.873,35.0662 C98.7614,35.1372 98.637,35.1708 98.514,35.1708 Z M21.7588,36.042 C21.636,36.042 21.5116,36.0082 21.4,35.9374 L16.0028,32.512 C15.69,32.3134 15.5974,31.8988 15.796,31.586 C15.9944,31.2734 16.4092,31.1806 16.7218,31.3792 L22.1192,34.8044 C22.432,35.003 22.5246,35.4178 22.326,35.7304 C22.1982,35.9318 21.9808,36.042 21.7588,36.042 Z M56.4674,36.3424 C56.1344,36.3424 55.8456,36.0948 55.8028,35.7554 L54.4718,25.2244 C54.4252,24.857 54.6856,24.5212 55.0534,24.4748 C55.4184,24.4286 55.7568,24.6884 55.803,25.0562 L57.134,35.5874 C57.1804,35.9548 56.9202,36.2904 56.5524,36.3372 C56.524,36.3406 56.4956,36.3424 56.4674,36.3424 Z M46.4734,36.355 C46.2366,36.355 46.007,36.2292 45.8848,36.007 L36.2146,18.4168 C36.036,18.0922 36.1546,17.6844 36.4792,17.5058 C36.804,17.3272 37.212,17.4458 37.3902,17.7706 L47.0606,35.3608 C47.239,35.6856 47.1206,36.0934 46.7958,36.2718 C46.6934,36.3284 46.5828,36.355 46.4734,36.355 Z M68.796,36.356 C68.7138,36.356 68.6302,36.341 68.5492,36.309 C68.2048,36.1724 68.036,35.7824 68.1724,35.438 L76.772,13.7176 C76.9084,13.3732 77.298,13.204 77.6428,13.3408 C77.9872,13.4774 78.1562,13.8672 78.0198,14.2116 L69.42,35.932 C69.3156,36.1956 69.063,36.356 68.796,36.356 Z M59.4502,36.356 C59.0798,36.356 58.7794,36.0558 58.7794,35.6854 L58.7794,33.9326 C58.7794,33.5622 59.0798,33.2618 59.4502,33.2618 C59.8208,33.2618 60.121,33.5622 60.121,33.9326 L60.121,35.6854 C60.121,36.0558 59.8208,36.356 59.4502,36.356 Z M62.4332,36.3562 C62.4052,36.3562 62.3768,36.3544 62.3484,36.3508 C61.9806,36.3044 61.7204,35.969 61.7668,35.6012 L64.9042,10.7662 C64.9506,10.3988 65.287,10.1374 65.6538,10.1848 C66.0214,10.231 66.2818,10.5668 66.2354,10.9344 L63.098,35.7694 C63.0552,36.1082 62.7662,36.3562 62.4332,36.3562 Z M72.4266,36.3562 C72.3172,36.3562 72.2066,36.3294 72.104,36.273 C71.7794,36.0948 71.6608,35.6868 71.8394,35.3622 L78.6728,22.9006 C78.851,22.576 79.2594,22.4572 79.5838,22.636 C79.9084,22.8142 80.027,23.2222 79.8486,23.5468 L73.015,36.0084 C72.893,36.2304 72.6634,36.3562 72.4266,36.3562 Z M65.5116,36.3562 C65.4564,36.3562 65.4002,36.3496 65.3444,36.335 C64.9854,36.2428 64.7692,35.8774 64.8614,35.5184 L66.4494,29.3326 C66.5414,28.9738 66.9066,28.7562 67.2662,28.8498 C67.625,28.942 67.8412,29.3074 67.7492,29.6664 L66.161,35.8522 C66.0832,36.155 65.8106,36.3562 65.5116,36.3562 Z M53.3892,36.3566 C53.0902,36.3566 52.8176,36.1552 52.74,35.8524 L50.982,29.0056 C50.8898,28.6466 51.106,28.2812 51.465,28.189 C51.8248,28.0962 52.1896,28.3132 52.2816,28.6718 L54.0394,35.5188 C54.1316,35.8776 53.9154,36.243 53.5566,36.3354 C53.5004,36.3498 53.4444,36.3566 53.3892,36.3566 Z M50.1048,36.3566 C49.8376,36.3566 49.5852,36.1958 49.4808,35.9324 L45.2032,24.6348 C45.0668,24.2904 45.2358,23.9006 45.58,23.764 C45.9246,23.627 46.3142,23.7964 46.451,24.141 L50.7286,35.4384 C50.8648,35.783 50.696,36.1728 50.3516,36.3094 C50.2706,36.3414 50.187,36.3566 50.1048,36.3566 Z M42.7354,36.9542 C42.528,36.9542 42.3234,36.8586 42.1922,36.6778 L39.947,33.5874 C39.7292,33.2876 39.7958,32.8682 40.0956,32.6502 C40.3956,32.4324 40.8154,32.4996 41.0326,32.7988 L43.2778,35.8892 C43.4956,36.1888 43.4292,36.6084 43.1292,36.8264 C43.0102,36.9128 42.8722,36.9542 42.7354,36.9542 Z M76.1642,36.9556 C76.0274,36.9556 75.8894,36.914 75.7704,36.8274 C75.4706,36.6096 75.404,36.1902 75.6218,35.8904 L78.435,32.0188 C78.6524,31.7194 79.0722,31.652 79.372,31.8702 C79.6718,32.088 79.7384,32.5076 79.5206,32.8072 L76.7076,36.6792 C76.5762,36.8598 76.3716,36.9556 76.1642,36.9556 Z M105.5948,38.2474 C105.343,38.2474 105.1016,38.105 104.9874,37.862 C104.8294,37.5268 104.9736,37.1272 105.3088,36.9696 L112.4476,33.6102 C112.7822,33.4522 113.1826,33.5962 113.3402,33.9316 C113.498,34.2668 113.354,34.6664 113.0188,34.824 L105.8798,38.1834 C105.7876,38.2268 105.6906,38.2474 105.5948,38.2474 Z M79.3434,38.7768 C79.1788,38.7768 79.014,38.7166 78.8844,38.595 C78.6142,38.3412 78.601,37.9166 78.8546,37.6466 L79.6614,36.7876 C79.915,36.5174 80.3392,36.5042 80.6096,36.7578 C80.8798,37.0116 80.893,37.4362 80.6396,37.706 L79.8328,38.565 C79.7006,38.7058 79.5224,38.7768 79.3434,38.7768 Z M39.5574,38.7768 C39.3784,38.7768 39.2,38.7058 39.068,38.565 L31.514,30.521 C31.2604,30.2512 31.2736,29.8266 31.5438,29.5728 C31.8138,29.319 32.2384,29.332 32.4922,29.6028 L40.0462,37.6466 C40.2998,37.9166 40.2866,38.3412 40.0164,38.595 C39.8868,38.7166 39.7216,38.7768 39.5574,38.7768 Z M29.8072,41.1496 C29.6844,41.1496 29.5598,41.1158 29.4484,41.045 L24.4776,37.8902 C24.1648,37.6918 24.0722,37.2772 24.2708,36.9644 C24.4696,36.6518 24.8842,36.5592 25.1968,36.7576 L30.1674,39.9124 C30.4802,40.1108 30.573,40.5254 30.3744,40.8382 C30.2464,41.0394 30.0294,41.1496 29.8072,41.1496 Z M88.7302,41.3798 C88.508,41.3798 88.291,41.2698 88.1632,41.0686 C87.9646,40.7554 88.0572,40.341 88.37,40.1426 L95.7534,35.457 C96.0664,35.2574 96.4806,35.351 96.6792,35.6636 C96.878,35.9768 96.7854,36.3912 96.4726,36.5896 L89.0892,41.2752 C88.9776,41.346 88.8532,41.3798 88.7302,41.3798 Z M37.2168,41.5682 C37.0662,41.5682 36.9148,41.5176 36.7896,41.4142 L23.2052,30.1764 C22.9198,29.94 22.8798,29.5172 23.116,29.2316 C23.3518,28.9458 23.7748,28.906 24.0606,29.1424 L37.6448,40.3802 C37.9304,40.6164 37.9704,41.0394 37.7342,41.3248 C37.6016,41.4854 37.41,41.5682 37.2168,41.5682 Z M81.683,41.569 C81.49,41.569 81.2986,41.4862 81.1658,41.3258 C80.9294,41.0404 80.9694,40.6174 81.255,40.3812 L90.0818,33.0788 C90.3674,32.8424 90.79,32.882 91.0264,33.1682 C91.2626,33.4536 91.2226,33.8764 90.937,34.1126 L82.1102,41.415 C81.9852,41.5186 81.8336,41.569 81.683,41.569 Z M20.7788,41.7638 C20.6832,41.7638 20.5858,41.7432 20.4936,41.6998 L8.2402,35.9338 C7.9048,35.7762 7.761,35.3764 7.9188,35.0412 C8.0762,34.7058 8.4764,34.5614 8.8114,34.72 L21.0648,40.486 C21.4,40.6436 21.544,41.0432 21.3862,41.3786 C21.272,41.6214 21.0306,41.7638 20.7788,41.7638 Z M13.607,45.0656 C13.5382,45.0656 13.4682,45.055 13.3996,45.0326 L3.2376,41.731 C2.8852,41.6164 2.6924,41.2378 2.8068,40.8856 C2.9214,40.533 3.3006,40.34 3.6522,40.4546 L13.814,43.7564 C14.1666,43.871 14.3592,44.2494 14.245,44.6018 C14.1528,44.8854 13.8898,45.0656 13.607,45.0656 Z M35.9788,45.066 C35.8558,45.066 35.7314,45.0322 35.6198,44.9614 L31.7214,42.4876 C31.4086,42.289 31.316,41.8746 31.5146,41.5616 C31.713,41.2486 32.1278,41.1556 32.4406,41.3546 L36.339,43.8288 C36.6518,44.0272 36.7444,44.4416 36.5458,44.7544 C36.418,44.9558 36.2008,45.066 35.9788,45.066 Z M82.8836,45.0902 C82.6616,45.0902 82.4444,44.98 82.3166,44.7788 C82.118,44.4656 82.2106,44.0512 82.5234,43.8528 L85.9212,41.6964 C86.234,41.4972 86.6486,41.5904 86.8472,41.9034 C87.0458,42.2164 86.9532,42.6308 86.6404,42.8292 L83.2426,44.9856 C83.131,45.0564 83.0066,45.0902 82.8836,45.0902 Z M99.969,46.7958 C99.6862,46.7958 99.4234,46.6156 99.331,46.332 C99.2166,45.9796 99.4094,45.6012 99.762,45.4868 L113.489,41.0264 C113.8404,40.912 114.2198,41.1046 114.3344,41.4572 C114.4488,41.8096 114.256,42.188 113.9034,42.3026 L100.1764,46.7628 C100.1078,46.7854 100.0376,46.7958 99.969,46.7958 Z M83.0554,48.8536 C82.8036,48.8536 82.5622,48.7112 82.4482,48.4682 C82.2902,48.133 82.434,47.7332 82.7696,47.5756 L102.6174,38.2358 C102.9522,38.078 103.3524,38.222 103.51,38.5572 C103.6678,38.8924 103.5238,39.2922 103.1886,39.4498 L83.3406,48.7894 C83.2484,48.833 83.1512,48.8536 83.0554,48.8536 Z M35.8454,48.8536 C35.7496,48.8536 35.6524,48.833 35.5602,48.7894 L23.3246,43.032 C22.9894,42.8744 22.8454,42.4746 23.0032,42.1394 C23.1608,41.8042 23.561,41.6602 23.8958,41.8182 L36.1314,47.5756 C36.4666,47.7332 36.6106,48.133 36.4526,48.4682 C36.3386,48.7112 36.097,48.8536 35.8454,48.8536 Z M31.9932,51.0398 C31.9246,51.0398 31.8544,51.0292 31.7858,51.0068 L15.9164,45.8504 C15.5638,45.7358 15.371,45.3574 15.4854,45.005 C15.6,44.6526 15.9792,44.4598 16.3308,44.5742 L32.2002,49.7306 C32.5528,49.8452 32.7456,50.2236 32.6312,50.576 C32.539,50.8596 32.276,51.0398 31.9932,51.0398 Z M104.1424,51.4356 C103.8268,51.4356 103.5454,51.2118 103.484,50.8902 C103.4148,50.5264 103.6534,50.1748 104.0172,50.1054 L110.9832,48.7768 C111.3506,48.7068 111.6986,48.9464 111.768,49.31 C111.8374,49.674 111.5988,50.0254 111.2348,50.0948 L104.2688,51.4234 C104.2262,51.4316 104.1842,51.4356 104.1424,51.4356 Z M35.8458,52.2914 C35.777,52.2914 35.707,52.2808 35.6382,52.2586 L34.7958,51.9848 C34.4432,51.8702 34.2504,51.4918 34.3648,51.1394 C34.4794,50.787 34.8588,50.5938 35.2102,50.7086 L36.0528,50.9822 C36.4052,51.0968 36.598,51.4752 36.4836,51.8276 C36.3914,52.1112 36.1284,52.2914 35.8458,52.2914 Z M83.0548,52.2914 C82.772,52.2914 82.5092,52.1112 82.4168,51.8276 C82.3026,51.4752 82.4954,51.0968 82.8478,50.9822 L96.8748,46.4246 C97.2266,46.3106 97.6056,46.5032 97.7204,46.8556 C97.8346,47.2078 97.6418,47.5864 97.2894,47.701 L83.2622,52.2586 C83.1936,52.2808 83.1236,52.2914 83.0548,52.2914 Z M21.8534,52.789 C21.8116,52.789 21.7694,52.7852 21.7268,52.777 L9.6042,50.4644 C9.2402,50.3952 9.0016,50.0436 9.0708,49.6796 C9.1402,49.3158 9.4904,49.0778 9.8556,49.1464 L21.9784,51.459 C22.3424,51.5284 22.581,51.8798 22.5116,52.2438 C22.4504,52.5652 22.169,52.789 21.8534,52.789 Z M91.2286,53.899 C90.913,53.899 90.6316,53.675 90.5704,53.3538 C90.501,52.9896 90.7396,52.6382 91.1036,52.569 L100.2528,50.8236 C100.6192,50.7552 100.9684,50.9932 101.0376,51.3568 C101.107,51.7208 100.8684,52.072 100.5044,52.1416 L91.3552,53.887 C91.3126,53.895 91.2702,53.899 91.2286,53.899 Z M35.8464,55.4584 C35.8046,55.4584 35.7626,55.4544 35.72,55.4462 L26.4334,53.6748 C26.0696,53.6054 25.831,53.2542 25.9002,52.89 C25.9698,52.5262 26.3198,52.2866 26.685,52.3568 L35.9714,54.1284 C36.3354,54.1976 36.574,54.5492 36.5046,54.913 C36.4434,55.2346 36.162,55.4584 35.8464,55.4584 Z M83.0544,55.4584 C82.7388,55.4584 82.4574,55.2346 82.396,54.913 C82.3268,54.5492 82.5654,54.1976 82.9292,54.1284 L87.6244,53.2328 C87.9922,53.1626 88.3398,53.4024 88.409,53.766 C88.4784,54.1298 88.2398,54.4812 87.8758,54.5508 L83.1808,55.4462 C83.1382,55.4544 83.0958,55.4584 83.0544,55.4584 Z M9.7302,56.8328 C9.716,56.8328 9.7018,56.8324 9.6876,56.8314 L0.6368,56.2622 C0.2672,56.2388 -0.0138,55.9204 0.0094,55.5504 C0.0328,55.1804 0.3578,54.9048 0.7212,54.923 L9.7718,55.4924 C10.1416,55.5156 10.4224,55.8342 10.3992,56.2042 C10.3768,56.5596 10.0816,56.8328 9.7302,56.8328 Z M100.662,57.3682 C100.3108,57.3682 100.0156,57.095 99.9932,56.7394 C99.97,56.3696 100.2508,56.0512 100.6204,56.028 L115.4134,55.097 C115.7762,55.075 116.102,55.3544 116.1252,55.7244 C116.1484,56.0944 115.8674,56.4128 115.4978,56.4362 L100.7048,57.3668 C100.6906,57.3678 100.6762,57.3682 100.662,57.3682 Z M24.8376,57.7834 C24.8234,57.7834 24.809,57.7828 24.7948,57.782 L14.0344,57.105 C13.6648,57.0816 13.3836,56.7632 13.407,56.3934 C13.4302,56.0234 13.7518,55.7482 14.1186,55.766 L24.8792,56.443 C25.2488,56.4662 25.5298,56.7848 25.5066,57.1546 C25.484,57.51 25.1888,57.7834 24.8376,57.7834 Z M87.7494,58.1804 C87.3982,58.1804 87.103,57.907 87.0806,57.5518 C87.0574,57.1818 87.3382,56.8632 87.7078,56.84 L97.0458,56.2526 C97.4114,56.2276 97.734,56.5102 97.7576,56.88 C97.7808,57.2498 97.4998,57.5684 97.1302,57.5916 L87.7922,58.1792 C87.778,58.1798 87.7636,58.1804 87.7494,58.1804 Z M83.0546,58.4758 C82.7034,58.4758 82.4082,58.2026 82.3858,57.8472 C82.3624,57.4774 82.6434,57.1588 83.0132,57.1356 L84.8284,57.0212 C85.1926,56.9978 85.5164,57.279 85.54,57.6488 C85.5632,58.0186 85.2824,58.3372 84.9126,58.3604 L83.0974,58.4746 C83.0828,58.4754 83.0686,58.4758 83.0546,58.4758 Z M35.8462,58.4758 C35.832,58.4758 35.8176,58.4754 35.8034,58.4746 L27.6106,57.9592 C27.241,57.936 26.96,57.6174 26.9832,57.2474 C27.0064,56.8776 27.3256,56.5972 27.6948,56.6202 L35.8876,57.1356 C36.2574,57.1588 36.5382,57.4774 36.515,57.8472 C36.4926,58.2026 36.1974,58.4758 35.8462,58.4758 Z M34.0294,61.5604 C33.6782,61.5604 33.383,61.287 33.3606,60.9316 C33.3374,60.5618 33.6182,60.2432 33.988,60.22 L35.8034,60.1058 C36.174,60.0824 36.4918,60.3636 36.515,60.7332 C36.5382,61.1032 36.2574,61.4214 35.8876,61.445 L34.0722,61.559 C34.058,61.5598 34.0434,61.5604 34.0294,61.5604 Z M91.2486,61.9616 C91.2342,61.9616 91.2202,61.9612 91.2056,61.9604 L83.0132,61.445 C82.6434,61.4214 82.3624,61.1032 82.3858,60.7332 C82.409,60.3634 82.7346,60.0836 83.0974,60.1058 L91.29,60.6212 C91.6596,60.6446 91.9406,60.963 91.9174,61.3328 C91.895,61.6882 91.5996,61.9616 91.2486,61.9616 Z M21.8118,62.329 C21.4606,62.329 21.1654,62.0554 21.143,61.7002 C21.1198,61.3302 21.4006,61.0118 21.7704,60.9884 L31.1086,60.401 C31.4706,60.3774 31.797,60.6586 31.8202,61.0284 C31.8434,61.3982 31.5626,61.7168 31.1928,61.74 L21.8546,62.3276 C21.8404,62.3284 21.826,62.329 21.8118,62.329 Z M104.8246,62.8156 C104.8104,62.8156 104.7962,62.8152 104.782,62.8144 L94.0216,62.1376 C93.652,62.114 93.371,61.7958 93.3942,61.4258 C93.4176,61.0558 93.7444,60.775 94.106,60.7984 L104.8662,61.4754 C105.2358,61.4986 105.5168,61.8172 105.4936,62.1872 C105.4712,62.5424 105.176,62.8156 104.8246,62.8156 Z M3.4442,63.4846 C3.093,63.4846 2.7978,63.2114 2.7754,62.8558 C2.7522,62.486 3.0332,62.1676 3.4028,62.1442 L18.1958,61.2134 C18.5602,61.1872 18.8838,61.4708 18.9074,61.8408 C18.9306,62.2108 18.6498,62.5292 18.28,62.5526 L3.4872,63.4832 C3.4728,63.4842 3.4584,63.4846 3.4442,63.4846 Z M118.2222,63.6584 C118.2078,63.6584 118.1936,63.658 118.1794,63.657 L109.1288,63.0876 C108.759,63.0644 108.4782,62.7458 108.5014,62.376 C108.5248,62.006 108.8478,61.7254 109.213,61.7486 L118.2636,62.3182 C118.6334,62.3414 118.9144,62.6598 118.8912,63.0296 C118.8686,63.3852 118.5734,63.6584 118.2222,63.6584 Z M31.15,65.3598 C30.8344,65.3598 30.553,65.1358 30.4916,64.8144 C30.4224,64.4504 30.661,64.099 31.025,64.0296 L35.7198,63.134 C36.087,63.0646 36.4354,63.3038 36.5044,63.6672 C36.5738,64.0312 36.3352,64.3826 35.9712,64.452 L31.2764,65.3476 C31.2338,65.3556 31.1916,65.3598 31.15,65.3598 Z M92.3422,66.2356 C92.3004,66.2356 92.2582,66.2316 92.2158,66.2234 L82.929,64.452 C82.5652,64.3826 82.3264,64.0312 82.3958,63.6672 C82.4652,63.3034 82.8166,63.0642 83.1806,63.134 L92.4672,64.9054 C92.8312,64.9748 93.0698,65.3264 93.0004,65.6902 C92.9392,66.0118 92.6578,66.2356 92.3422,66.2356 Z M18.5212,67.7688 C18.2056,67.7688 17.9242,67.5448 17.863,67.2234 C17.7936,66.8594 18.0322,66.508 18.3962,66.4386 L27.5456,64.6932 C27.9104,64.6236 28.261,64.8626 28.3304,65.2264 C28.3998,65.5904 28.1612,65.9418 27.7972,66.0112 L18.6478,67.7566 C18.6052,67.7646 18.5628,67.7688 18.5212,67.7688 Z M83.8978,67.9044 C83.829,67.9044 83.759,67.894 83.6904,67.8716 L82.8478,67.5978 C82.4954,67.4832 82.3026,67.1048 82.4168,66.7526 C82.5316,66.4 82.9108,66.2066 83.2622,66.3216 L84.1048,66.5954 C84.4574,66.71 84.65,67.0882 84.5358,67.4406 C84.4436,67.7242 84.1806,67.9044 83.8978,67.9044 Z M109.1716,69.4458 C109.1298,69.4458 109.0876,69.442 109.0452,69.434 L96.9222,67.1212 C96.5582,67.052 96.3196,66.7006 96.389,66.3366 C96.4582,65.9726 96.8086,65.7334 97.1738,65.8034 L109.2966,68.116 C109.6606,68.1854 109.8992,68.5368 109.8298,68.9008 C109.7686,69.222 109.4872,69.4458 109.1716,69.4458 Z M7.791,69.8156 C7.4752,69.8156 7.1938,69.5918 7.1326,69.2704 C7.0632,68.9064 7.3018,68.5548 7.6658,68.4856 L14.632,67.1566 C14.999,67.0878 15.3476,67.3264 15.4166,67.6898 C15.486,68.0538 15.2474,68.4052 14.8834,68.4746 L7.9174,69.8036 C7.8748,69.8118 7.8326,69.8156 7.791,69.8156 Z M21.8184,72.1884 C21.5356,72.1884 21.2726,72.0082 21.1804,71.7246 C21.0662,71.3722 21.2588,70.9938 21.6114,70.8792 L35.6382,66.3216 C35.9898,66.207 36.369,66.4 36.4836,66.7526 C36.598,67.1048 36.4052,67.4832 36.0528,67.5978 L22.0258,72.1554 C21.9572,72.178 21.8872,72.1884 21.8184,72.1884 Z M102.7776,74.0388 C102.7088,74.0388 102.6388,74.0284 102.57,74.006 L86.7004,68.8496 C86.3478,68.735 86.155,68.3564 86.2694,68.0042 C86.384,67.6516 86.7634,67.4588 87.1148,67.5732 L102.9844,72.7296 C103.337,72.8444 103.5298,73.2226 103.4154,73.575 C103.3232,73.8586 103.0602,74.0388 102.7776,74.0388 Z M95.29,76.8264 C95.1944,76.8264 95.097,76.8056 95.0048,76.7624 L82.7696,71.0044 C82.434,70.8468 82.2902,70.4472 82.4482,70.112 C82.6054,69.7764 83.0058,69.6326 83.3406,69.7906 L95.576,75.5482 C95.9116,75.7058 96.0552,76.1056 95.8974,76.4408 C95.7832,76.6838 95.5418,76.8264 95.29,76.8264 Z M32.6204,76.9882 C32.3982,76.9882 32.1812,76.8782 32.0534,76.6768 C31.8546,76.3638 31.9474,75.9494 32.2602,75.751 L35.658,73.5946 C35.9708,73.3956 36.3852,73.4882 36.584,73.8014 C36.7826,74.1144 36.69,74.529 36.3772,74.7274 L32.9792,76.8836 C32.8678,76.9544 32.7432,76.9882 32.6204,76.9882 Z M86.819,77.3302 C86.696,77.3302 86.5714,77.2964 86.46,77.2256 L82.5616,74.7514 C82.2488,74.553 82.1562,74.1382 82.3548,73.8256 C82.5536,73.5128 82.9682,73.4204 83.2808,73.6188 L87.179,76.093 C87.4918,76.2914 87.5846,76.706 87.386,77.0188 C87.258,77.2202 87.0408,77.3302 86.819,77.3302 Z M5.204,77.5868 C4.9214,77.5868 4.6584,77.4064 4.5662,77.1228 C4.4518,76.7706 4.6446,76.3922 4.997,76.2776 L18.7242,71.8174 C19.076,71.7034 19.4548,71.896 19.5694,72.2482 C19.6838,72.6006 19.4912,72.9792 19.1386,73.0938 L5.4116,77.5538 C5.3428,77.5762 5.2728,77.5868 5.204,77.5868 Z M115.4558,78.1584 C115.3872,78.1584 115.3172,78.1478 115.2484,78.1254 L105.0866,74.8236 C104.734,74.7092 104.5412,74.3306 104.6556,73.9784 C104.7704,73.626 105.1496,73.4332 105.501,73.5474 L115.6628,76.8492 C116.0154,76.9636 116.2082,77.3422 116.0938,77.6946 C116.0016,77.9782 115.7386,78.1584 115.4558,78.1584 Z M15.998,80.4084 C15.7462,80.4084 15.5046,80.266 15.3906,80.0228 C15.2328,79.6876 15.3768,79.2878 15.712,79.1302 L35.5602,69.7906 C35.8946,69.633 36.295,69.7766 36.4526,70.112 C36.6106,70.4472 36.4666,70.8468 36.1314,71.0044 L16.2832,80.3444 C16.191,80.3876 16.0936,80.4084 15.998,80.4084 Z M94.0628,81.9276 C93.94,81.9276 93.8156,81.8936 93.704,81.8226 L88.733,78.6682 C88.4204,78.4696 88.3276,78.0552 88.5262,77.7422 C88.7246,77.4294 89.1392,77.3366 89.4522,77.5354 L94.4232,80.69 C94.736,80.8884 94.8286,81.303 94.63,81.616 C94.5022,81.8172 94.285,81.9276 94.0628,81.9276 Z M38.75,82.0042 C38.5854,82.0042 38.4206,81.9442 38.2912,81.8224 C38.021,81.569 38.0078,81.1444 38.2612,80.8742 L39.0678,80.0152 C39.321,79.7448 39.7456,79.7314 40.0162,79.9854 C40.2862,80.2388 40.2996,80.6634 40.0458,80.9338 L39.2394,81.7926 C39.1076,81.9334 38.929,82.0042 38.75,82.0042 Z M22.7884,83.2282 C22.5664,83.2282 22.3492,83.118 22.2214,82.9166 C22.0228,82.6038 22.1154,82.189 22.4282,81.9906 L29.8116,77.3048 C30.1246,77.1058 30.5388,77.199 30.7376,77.5118 C30.9362,77.8244 30.8436,78.239 30.5308,78.4376 L23.1474,83.1234 C23.0358,83.1944 22.9114,83.2282 22.7884,83.2282 Z M110.3744,83.9244 C110.2786,83.9244 110.1814,83.9038 110.0892,83.8604 L97.8358,78.0944 C97.5006,77.9368 97.3566,77.537 97.5144,77.2018 C97.672,76.866 98.072,76.722 98.407,76.8802 L110.6604,82.6462 C110.9956,82.804 111.1396,83.2038 110.9818,83.5388 C110.8676,83.7818 110.626,83.9244 110.3744,83.9244 Z M6.1678,85.0342 C5.916,85.0342 5.6746,84.8918 5.5604,84.6488 C5.4026,84.3136 5.5464,83.9138 5.8818,83.7562 L13.0208,80.3966 C13.3554,80.2386 13.7558,80.383 13.9134,80.7182 C14.0712,81.0534 13.9272,81.4532 13.592,81.6108 L6.453,84.9702 C6.3608,85.0136 6.2634,85.0342 6.1678,85.0342 Z M28.3916,85.6552 C28.1984,85.6552 28.007,85.5724 27.8742,85.4122 C27.638,85.1268 27.678,84.7038 27.9636,84.4674 L36.7906,77.1652 C37.0758,76.9292 37.4986,76.9688 37.735,77.2546 C37.9712,77.54 37.9314,77.9628 37.6458,78.1992 L28.8188,85.5014 C28.6936,85.6046 28.5422,85.6552 28.3916,85.6552 Z M78.4116,86.0578 C78.204,86.0578 77.9996,85.9622 77.8684,85.7812 L75.6232,82.6912 C75.4052,82.3914 75.4716,81.972 75.7714,81.7542 C76.071,81.5362 76.4902,81.6026 76.7086,81.9028 L78.9538,84.9928 C79.1716,85.2924 79.105,85.712 78.8052,85.9298 C78.6862,86.0164 78.5482,86.0578 78.4116,86.0578 Z M102.5376,87.3056 C102.4146,87.3056 102.2902,87.2718 102.1786,87.201 L96.7814,83.7758 C96.4686,83.5774 96.376,83.1628 96.5746,82.8498 C96.773,82.5374 97.1874,82.4438 97.5006,82.6432 L102.8978,86.0682 C103.2106,86.2666 103.3032,86.681 103.1046,86.9942 C102.9768,87.1954 102.7598,87.3056 102.5376,87.3056 Z M15.3866,87.9252 C15.1644,87.9252 14.9474,87.815 14.8196,87.6138 C14.6208,87.3008 14.7136,86.8864 15.0264,86.6878 L20.0276,83.514 C20.3406,83.3148 20.7548,83.408 20.9536,83.7208 C21.1522,84.034 21.0596,84.4484 20.7468,84.6468 L15.7456,87.8206 C15.634,87.8914 15.5094,87.9252 15.3866,87.9252 Z M59.4502,88.2964 C59.0798,88.2964 58.7794,87.996 58.7794,87.6256 L58.7794,82.9086 C58.7794,82.538 59.0798,82.2378 59.4502,82.2378 C59.8208,82.2378 60.121,82.538 60.121,82.9086 L60.121,87.6256 C60.121,87.996 59.8208,88.2964 59.4502,88.2964 Z M86.8976,89.1892 C86.7188,89.1892 86.5406,89.1184 86.4084,88.9778 L78.8544,80.9334 C78.6008,80.6634 78.614,80.2388 78.8842,79.9852 C79.1542,79.7314 79.5788,79.7448 79.8326,80.015 L87.3866,88.0592 C87.6402,88.3292 87.627,88.7538 87.3568,89.0074 C87.2272,89.1292 87.0622,89.1892 86.8976,89.1892 Z M95.2674,89.5916 C95.1168,89.5916 94.9654,89.5412 94.8402,89.4376 L81.256,78.1998 C80.9704,77.9636 80.9304,77.5406 81.1666,77.2552 C81.4024,76.9696 81.8254,76.9294 82.1112,77.166 L95.6954,88.404 C95.981,88.64 96.021,89.063 95.7848,89.3484 C95.6522,89.5088 95.4606,89.5916 95.2674,89.5916 Z M67.2686,90.4126 C66.9696,90.4126 66.697,90.2114 66.6192,89.9084 L64.8612,83.0618 C64.769,82.7028 64.9852,82.3374 65.344,82.2452 C65.7042,82.152 66.0686,82.3694 66.1606,82.728 L67.9188,89.5748 C68.011,89.9336 67.7948,90.2992 67.4358,90.3914 C67.3798,90.4058 67.3236,90.4126 67.2686,90.4126 Z M63.7622,94.1108 C63.4292,94.1108 63.1404,93.8632 63.0976,93.5242 L61.7666,82.9928 C61.7202,82.6252 61.9804,82.2896 62.3482,82.2432 C62.7138,82.1968 63.0514,82.4568 63.0978,82.8246 L64.4286,93.3556 C64.4752,93.7236 64.2148,94.059 63.8472,94.1054 C63.8186,94.109 63.7904,94.1108 63.7622,94.1108 Z M84.3652,94.2526 C84.1576,94.2526 83.953,94.1568 83.8216,93.976 L79.5804,88.138 C79.3626,87.8382 79.429,87.4186 79.729,87.201 C80.029,86.9834 80.4486,87.05 80.6662,87.3494 L84.9074,93.1876 C85.125,93.4874 85.0586,93.9066 84.7586,94.1244 C84.6398,94.211 84.5016,94.2526 84.3652,94.2526 Z M16.752,95.2844 C16.5588,95.2844 16.3674,95.2014 16.2346,95.0412 C15.9984,94.7556 16.0384,94.333 16.324,94.0966 L24.9004,87.0016 C25.1858,86.7654 25.6086,86.805 25.845,87.0908 C26.0812,87.3764 26.0412,87.7992 25.7556,88.0356 L17.1792,95.1302 C17.054,95.2338 16.9026,95.2844 16.752,95.2844 Z M25.9828,95.6 C25.8182,95.6 25.6534,95.5398 25.5238,95.4182 C25.2536,95.1644 25.2404,94.74 25.494,94.47 L35.6818,83.6212 C35.9352,83.351 36.3596,83.3376 36.63,83.5914 C36.9002,83.8452 36.9134,84.2698 36.6598,84.5396 L26.4722,95.3884 C26.34,95.529 26.1618,95.6 25.9828,95.6 Z M104.8234,97.497 C104.6728,97.497 104.5214,97.4464 104.3962,97.343 L98.0722,92.1116 C97.7866,91.8752 97.7466,91.4526 97.9828,91.1672 C98.2188,90.8816 98.6416,90.8414 98.9274,91.078 L105.2514,96.3096 C105.537,96.5458 105.577,96.9686 105.3408,97.254 C105.2082,97.414 105.0166,97.497 104.8234,97.497 Z M75.1014,99.4906 C74.8342,99.4906 74.5818,99.33 74.4772,99.0666 L68.1724,83.1418 C68.036,82.7974 68.2048,82.4076 68.5492,82.2708 C68.8936,82.134 69.2834,82.3036 69.42,82.6478 L75.725,98.5722 C75.8614,98.917 75.6924,99.3068 75.348,99.4434 C75.267,99.4754 75.1834,99.4906 75.1014,99.4906 Z M69.9838,100.9878 C69.6848,100.9878 69.412,100.7868 69.3344,100.4838 L67.3164,92.6242 C67.2242,92.2656 67.4404,91.8998 67.7994,91.8076 C68.1596,91.715 68.524,91.9318 68.616,92.2906 L70.634,100.1502 C70.7262,100.5088 70.51,100.8746 70.151,100.9668 C70.095,100.9812 70.0388,100.9878 69.9838,100.9878 Z M82.0988,101.1572 C81.862,101.1572 81.6324,101.0316 81.5104,100.8096 L71.84,83.2194 C71.6616,82.8948 71.78,82.4868 72.1046,82.3084 C72.4294,82.1296 72.8372,82.2486 73.0158,82.573 L82.686,100.1632 C82.8646,100.4876 82.746,100.8958 82.4212,101.0742 C82.3188,101.1304 82.2082,101.1572 82.0988,101.1572 Z M89.9734,101.9716 C89.766,101.9716 89.5616,101.876 89.43,101.6952 L85.4478,96.2138 C85.2298,95.9138 85.2962,95.4948 85.5962,95.277 C85.8962,95.0592 86.3158,95.1254 86.533,95.4252 L90.5158,100.9066 C90.7334,101.2064 90.667,101.6258 90.3672,101.8436 C90.2482,101.9298 90.11,101.9716 89.9734,101.9716 Z M99.7618,102.8878 C99.5828,102.8878 99.4046,102.8168 99.2724,102.6764 L88.5906,91.3014 C88.337,91.0314 88.3502,90.6068 88.6204,90.3532 C88.8904,90.099 89.315,90.1128 89.5688,90.383 L100.2506,101.7578 C100.5042,102.028 100.491,102.4524 100.2208,102.7062 C100.0912,102.8278 99.9264,102.8878 99.7618,102.8878 Z M19.1388,102.8878 C18.9742,102.8878 18.8092,102.8278 18.6798,102.7062 C18.4096,102.4524 18.3964,102.028 18.65,101.7578 L23.0958,97.0238 C23.3496,96.7538 23.7736,96.7396 24.044,96.994 C24.3144,97.2476 24.3274,97.6722 24.074,97.9422 L19.6282,102.6764 C19.4958,102.8168 19.3176,102.8878 19.1388,102.8878 Z M59.4502,105.0752 C59.0798,105.0752 58.7794,104.775 58.7794,104.4042 L58.7794,90.9234 C58.7794,90.553 59.0798,90.2526 59.4502,90.2526 C59.8208,90.2526 60.121,90.553 60.121,90.9234 L60.121,104.4042 C60.121,104.775 59.8208,105.0752 59.4502,105.0752 Z M72.0172,108.9074 C71.7182,108.9074 71.4454,108.7064 71.3678,108.4036 L70.384,104.5712 C70.2918,104.2124 70.508,103.8468 70.8668,103.7546 C71.2272,103.662 71.5914,103.8788 71.6834,104.2374 L72.6674,108.07 C72.7596,108.4286 72.5434,108.7944 72.1844,108.8866 C72.1284,108.901 72.0722,108.9074 72.0172,108.9074 Z M86.8982,109.887 C86.6614,109.887 86.4316,109.7616 86.3096,109.5392 L83.3918,104.2322 C83.2134,103.9078 83.3318,103.5 83.6566,103.3212 C83.9812,103.1436 84.389,103.2612 84.5676,103.586 L87.4854,108.893 C87.6638,109.2174 87.5454,109.6254 87.2206,109.804 C87.118,109.8602 87.0074,109.887 86.8982,109.887 Z M81.1284,114.7136 C80.8612,114.7136 80.6088,114.5532 80.5042,114.2896 L76.5516,104.3064 C76.4154,103.962 76.5842,103.5718 76.9286,103.4354 C77.273,103.2984 77.6626,103.4674 77.7994,103.812 L81.752,113.7954 C81.8884,114.1398 81.7196,114.5296 81.375,114.6662 C81.2942,114.6984 81.2104,114.7136 81.1284,114.7136 Z M59.4502,115.7502 C59.0798,115.7502 58.7794,115.45 58.7794,115.0794 L58.7794,107.3924 C58.7794,107.0218 59.0798,106.7214 59.4502,106.7214 C59.8208,106.7214 60.121,107.0218 60.121,107.3924 L60.121,115.0794 C60.121,115.45 59.8208,115.7502 59.4502,115.7502 Z M66.6742,117.1504 C66.3412,117.1504 66.0522,116.9028 66.0094,116.5638 L63.7236,98.4766 C63.677,98.1086 63.9374,97.7732 64.305,97.7268 C64.6716,97.6818 65.0082,97.9404 65.0548,98.308 L67.3406,116.3952 C67.387,116.763 67.1268,117.0986 66.759,117.1452 C66.7306,117.1486 66.7022,117.1504 66.6742,117.1504 Z M204.366,141.2904 C204.312,139.9172 203.872,138.8162 203.044,137.987 C202.214,137.1582 201.114,136.7434 199.74,136.7434 C198.444,136.7434 197.364,137.1512 196.496,137.9672 C195.628,138.7832 195.078,139.891 194.844,141.2904 L204.366,141.2904 Z M207.376,135.2662 C209.126,137.21 210,139.9172 210,143.3888 C210,144.0104 209.986,144.4898 209.962,144.8264 L194.96,144.8264 C195.296,146.1478 195.944,147.1774 196.904,147.9162 C197.862,148.6544 199.014,149.0234 200.362,149.0234 C201.346,149.0234 202.292,148.8362 203.2,148.46 C204.106,148.0846 204.922,147.5344 205.648,146.8084 L208.796,149.9952 C207.732,151.187 206.444,152.1006 204.928,152.735 C203.412,153.3698 201.722,153.688 199.858,153.688 C197.654,153.688 195.732,153.2466 194.086,152.3658 C192.44,151.4854 191.172,150.2416 190.278,148.6348 C189.384,147.0288 188.936,145.1764 188.936,143.0778 C188.936,140.9536 189.39,139.0814 190.298,137.4622 C191.204,135.8432 192.474,134.5868 194.106,133.6924 C195.738,132.7986 197.604,132.3518 199.702,132.3518 C203.07,132.3518 205.628,133.3232 207.376,135.2662 Z M183.38,133.362 C184.546,132.6888 185.906,132.339 187.46,132.3128 L187.46,137.948 C187.254,137.9224 186.942,137.9092 186.528,137.9092 C184.688,137.9092 183.23,138.4084 182.156,139.4052 C181.08,140.403 180.544,141.7308 180.544,143.3888 L180.544,153.4538 L174.558,153.4538 L174.558,132.546 L180.544,132.546 L180.544,136.3156 C181.268,135.0206 182.214,134.0366 183.38,133.362 Z M168.768,132.546 L168.768,153.4538 L162.822,153.4538 L162.822,149.7618 C161.398,152.379 159.066,153.688 155.828,153.688 C153.522,153.688 151.6888,152.9682 150.3288,151.53 C148.9684,150.0926 148.2886,148.1432 148.2886,145.6812 L148.2886,132.546 L154.274,132.546 L154.274,143.9714 C154.274,145.293 154.622,146.3294 155.322,147.0804 C156.022,147.832 156.98,148.2076 158.198,148.2076 C159.622,148.182 160.75,147.6766 161.58,146.6916 C162.408,145.7074 162.822,144.4374 162.822,142.8834 L162.822,132.546 L168.768,132.546 Z M145.2962,152.288 C144.5192,152.754 143.6574,153.111 142.712,153.3564 C141.766,153.602 140.814,153.726 139.8558,153.726 C137.9128,153.726 136.3322,153.169 135.1146,152.0546 C133.8964,150.941 133.2882,149.3478 133.2882,147.275 L133.2882,137.598 L130.3734,137.598 L130.3734,133.4786 L133.2882,133.4786 L133.2882,127.7276 L139.234,127.7276 L139.234,133.4786 L144.9078,133.4786 L144.9078,137.637 L139.234,137.637 L139.234,146.2644 C139.234,147.8708 139.8686,148.6736 141.138,148.6736 C142.0188,148.6736 142.9902,148.4152 144.053,147.8964 L145.2962,152.288 Z M120.3864,153.4538 L126.371,153.4538 L126.371,124.6186 L120.3864,124.6186 L120.3864,153.4538 Z M114.4024,132.546 L114.4024,153.4538 L108.4564,153.4538 L108.4564,149.7618 C107.0314,152.379 104.6998,153.688 101.4614,153.688 C99.1552,153.688 97.3226,152.9682 95.9626,151.53 C94.6022,150.0926 93.9224,148.1432 93.9224,145.6812 L93.9224,132.546 L99.907,132.546 L99.907,143.9714 C99.907,145.293 100.2566,146.3294 100.9562,147.0804 C101.6558,147.832 102.614,148.2076 103.832,148.2076 C105.2566,148.182 106.3834,147.6766 107.213,146.6916 C108.0418,145.7074 108.4564,144.4374 108.4564,142.8834 L108.4564,132.546 L114.4024,132.546 Z M84.11,132.1382 C82.8534,131.5038 81.5902,131.1858 80.3212,131.1858 C78.7924,131.1858 77.393,131.562 76.1242,132.3128 C74.8544,133.065 73.8568,134.088 73.1318,135.383 C72.4062,136.6788 72.0438,138.117 72.0438,139.6966 C72.0438,141.2776 72.4062,142.722 73.1318,144.0296 C73.8568,145.3382 74.8544,146.3748 76.1242,147.1384 C77.393,147.9036 78.7924,148.2854 80.3212,148.2854 C81.5386,148.2854 82.7756,147.994 84.0324,147.4108 C85.2888,146.8282 86.4092,146.0446 87.394,145.0598 L91.0082,148.9846 C89.557,150.4876 87.8536,151.6798 85.8978,152.5602 C83.9414,153.4412 81.9788,153.882 80.0102,153.882 C77.3414,153.882 74.9194,153.2658 72.743,152.0356 C70.567,150.8052 68.857,149.1146 67.6132,146.9638 C66.37,144.8136 65.748,142.4168 65.748,139.7744 C65.748,137.1582 66.3828,134.7874 67.6522,132.6628 C68.9214,130.5386 70.664,128.868 72.879,127.6498 C75.0944,126.4322 77.5486,125.8234 80.2436,125.8234 C82.212,125.8234 84.155,126.2314 86.0728,127.0472 C87.9898,127.8632 89.622,128.9712 90.9692,130.37 L87.394,134.7614 C86.4614,133.6476 85.3666,132.773 84.11,132.1382 Z M201.296,99.317 C200.182,98.967 199.184,98.7924 198.304,98.7924 C197.578,98.7924 196.996,98.9216 196.556,99.1806 C196.114,99.44 195.894,99.829 195.894,100.3464 C195.894,100.9164 196.192,101.3568 196.788,101.668 C197.384,101.9786 198.356,102.3286 199.704,102.7172 C201.18,103.1578 202.398,103.5912 203.356,104.019 C204.314,104.4466 205.144,105.0816 205.844,105.923 C206.542,106.7652 206.892,107.873 206.892,109.2456 C206.892,111.3186 206.096,112.9314 204.502,114.084 C202.91,115.237 200.87,115.8134 198.382,115.8134 C196.672,115.8134 195.026,115.561 193.446,115.0554 C191.866,114.5506 190.492,113.8316 189.328,112.899 L191.27,108.8574 C192.332,109.6868 193.518,110.328 194.826,110.7806 C196.134,111.2346 197.372,111.4608 198.538,111.4608 C199.34,111.4608 199.982,111.325 200.462,111.053 C200.94,110.7806 201.18,110.3726 201.18,109.8288 C201.18,109.2328 200.876,108.7668 200.266,108.4296 C199.658,108.0936 198.68,107.7302 197.332,107.3414 C195.908,106.9278 194.722,106.5126 193.776,106.0978 C192.83,105.684 192.022,105.0554 191.348,104.2134 C190.674,103.3718 190.338,102.2768 190.338,100.9292 C190.338,98.8568 191.114,97.251 192.67,96.1106 C194.224,94.9708 196.192,94.4008 198.576,94.4008 C200,94.4008 201.426,94.6016 202.85,95.0034 C204.276,95.4048 205.572,95.981 206.738,96.7326 L204.678,100.813 C203.538,100.1654 202.41,99.6664 201.296,99.317 Z M181.128,99.317 C180.014,98.967 179.016,98.7924 178.136,98.7924 C177.41,98.7924 176.826,98.9216 176.386,99.1806 C175.946,99.44 175.726,99.829 175.726,100.3464 C175.726,100.9164 176.024,101.3568 176.62,101.668 C177.216,101.9786 178.186,102.3286 179.534,102.7172 C181.012,103.1578 182.228,103.5912 183.188,104.019 C184.146,104.4466 184.974,105.0816 185.674,105.923 C186.374,106.7652 186.724,107.873 186.724,109.2456 C186.724,111.3186 185.928,112.9314 184.334,114.084 C182.74,115.237 180.7,115.8134 178.212,115.8134 C176.502,115.8134 174.858,115.561 173.278,115.0554 C171.698,114.5506 170.324,113.8316 169.158,112.899 L171.102,108.8574 C172.164,109.6868 173.348,110.328 174.658,110.7806 C175.964,111.2346 177.202,111.4608 178.368,111.4608 C179.172,111.4608 179.812,111.325 180.292,111.053 C180.772,110.7806 181.012,110.3726 181.012,109.8288 C181.012,109.2328 180.706,108.7668 180.098,108.4296 C179.488,108.0936 178.51,107.7302 177.164,107.3414 C175.738,106.9278 174.554,106.5126 173.608,106.0978 C172.662,105.684 171.852,105.0554 171.18,104.2134 C170.506,103.3718 170.168,102.2768 170.168,100.9292 C170.168,98.8568 170.946,97.251 172.5,96.1106 C174.054,94.9708 176.024,94.4008 178.408,94.4008 C179.832,94.4008 181.256,94.6016 182.682,95.0034 C184.106,95.4048 185.402,95.981 186.568,96.7326 L184.508,100.813 C183.368,100.1654 182.242,99.6664 181.128,99.317 Z M157.85,110.6838 C158.756,110.0882 159.3,109.3368 159.482,108.4296 L159.482,106.5644 L154.78,106.5644 C153.614,106.5644 152.7524,106.7526 152.1954,107.128 C151.638,107.5038 151.36,108.1064 151.36,108.9352 C151.36,109.7382 151.6514,110.3796 152.2344,110.8584 C152.8174,111.3384 153.614,111.5776 154.624,111.5776 C155.868,111.5776 156.942,111.2796 157.85,110.6838 Z M159.52,115.58 L159.52,113.1322 C158.822,114.0132 157.914,114.6866 156.8,115.1532 C155.686,115.6192 154.404,115.8524 152.9534,115.8524 C150.751,115.8524 149.0022,115.25 147.707,114.0452 C146.4112,112.8404 145.764,111.2664 145.764,109.3234 C145.764,107.3548 146.4568,105.8198 147.8432,104.7184 C149.2286,103.6174 151.1912,103.0538 153.73,103.0278 L159.482,103.0278 L159.482,102.6394 C159.482,101.5258 159.112,100.664 158.374,100.0552 C157.636,99.4464 156.554,99.1418 155.13,99.1418 C153.1864,99.1418 151.1134,99.7512 148.9116,100.9682 L147.0464,96.8488 C148.704,96.02 150.2586,95.4112 151.7098,95.0224 C153.1604,94.6342 154.754,94.4396 156.49,94.4396 C159.288,94.4396 161.458,95.1002 162.998,96.4216 C164.54,97.743 165.324,99.5828 165.35,101.9396 L165.39,115.58 L159.52,115.58 Z M135.3092,109.2266 C136.2674,108.1518 136.7472,106.7588 136.7472,105.0484 C136.7472,103.3648 136.2674,101.9854 135.3092,100.91 C134.3506,99.8352 133.1068,99.2972 131.5786,99.2972 C130.0496,99.2972 128.8,99.8352 127.8286,100.91 C126.8568,101.9854 126.371,103.3648 126.371,105.0484 C126.371,106.785 126.8568,108.1836 127.8286,109.2456 C128.8,110.3082 130.0496,110.8392 131.5786,110.8392 C133.1068,110.8392 134.3506,110.302 135.3092,109.2266 Z M138.127,95.8192 C139.6164,96.7128 140.7692,97.9758 141.5856,99.6084 C142.4014,101.2402 142.8098,103.119 142.8098,105.243 C142.8098,107.3414 142.4076,109.1876 141.605,110.7806 C140.8014,112.3742 139.668,113.6116 138.2044,114.492 C136.7404,115.373 135.0374,115.8134 133.0942,115.8134 C131.643,115.8134 130.3546,115.5356 129.2276,114.9778 C128.1004,114.4212 127.1484,113.6116 126.371,112.549 L126.371,123.1196 L120.3864,123.1196 L120.3864,94.673 L126.371,94.673 L126.371,97.743 C127.1222,96.681 128.0616,95.8714 129.1886,95.3136 C130.3158,94.7572 131.5786,94.4786 132.9778,94.4786 C134.9208,94.4786 136.6366,94.9254 138.127,95.8192 Z" id="Fill-1" fill="#FFFFFE"></path>
                </g>
            </g>
        </g>
    </g>
</svg>
