<?xml version="1.0" encoding="UTF-8"?>
<!DOCTYPE svg PUBLIC "-//W3C//DTD SVG 1.1//EN" "http://www.w3.org/Graphics/SVG/1.1/DTD/svg11.dtd">
<svg version="1.1" id="Layer_1" xmlns="http://www.w3.org/2000/svg" xmlns:xlink="http://www.w3.org/1999/xlink" width="499.098" height="515.098" viewBox="0 0 499.098 515.098" overflow="visible" enable-background="new 0 0 499.098 515.098" xml:space="preserve">
<g>
	<path fill="#EBB300" d="M287.471,208.043c0,10.078,9.727,12.551,20.639,12.551c11.387,0,31.281-4.162,31.281-30.711   c-5.695,3.994-21.555,4.184-31.992,5.705C296.959,197.299,287.471,198.152,287.471,208.043z"/>
	<path fill="#EBB300" d="M144.246,137.674h14.207v13.693h0.625c7.5-11.031,29.25-16.035,41.75-16.035c31.461,0,50,15.846,50,40.188   V236h-29.584v-55.535c0-16.166-16.664-24.465-30.416-24.465c-16.041,0-30.916,8.49-30.916,28.459V236h-29.586v-80.26H84.828V236   H57.244v-80.26H44.977L0,441.436l429.604,73.662l46.104-292.855c-10.248,10.73-26.371,16.42-46.297,16.42   c-36.232,0-60.619-20.92-60.619-50.398c0-30.621,22.297-53.252,61.316-53.252c25.039,0,48.252,9.512,54.76,29.045l14.23-90.395   L69.496,0L47.822,137.674h9.422v-7.607c0-17.307,15.584-37.4,49.584-37.4c22.668,0,50.668,6,50.668,36h-26   C131.496,118,114.828,114,106.828,114c-11.332,0-22,9.6-22,17.777v5.896h45.498H144.246z M367.074,237.332h-28.92V226.49   c-10.676,8.939-27.674,12.172-42.617,12.172c-23.248,0-41.752-9.318-41.752-29.479c0-22.252,20.875-27.578,41.752-29.859   c20.637-2.473,39.854-1.902,39.854-12.934c0-11.6-9.965-13.313-21.826-13.313c-12.809,0-21.111,4.184-22.299,14.834H257.58   c1.898-25.293,28.127-32.9,55.646-32.9c24.434,0,53.848,8.373,53.848,31.957V237.332z"/>
	<path fill="#EBB300" d="M429.875,155.361c-21.135,0-28.104,17.496-28.104,31.951c0,14.072,6.736,31,27.406,31   c15.33,0,24.156-7.988,26.246-19.971h24.045l4.102-26.055h-29.309C452.172,161.256,443.578,155.361,429.875,155.361z"/>
</g>
</svg>
