<?xml version="1.0" standalone="no"?>
<!DOCTYPE svg PUBLIC "-//W3C//DTD SVG 20010904//EN"
 "http://www.w3.org/TR/2001/REC-SVG-20010904/DTD/svg10.dtd">
<svg version="1.0" xmlns="http://www.w3.org/2000/svg"
 width="552.000000pt" height="200.000000pt" viewBox="0 0 552.000000 200.000000"
 preserveAspectRatio="xMidYMid meet">
<metadata>
Created by potrace 1.15, written by Peter Selinger 2001-2017
</metadata>
<g transform="translate(0.000000,200.000000) scale(0.100000,-0.100000)"
fill="#000000" stroke="none">
<path d="M855 1845 c-171 -32 -308 -104 -434 -227 -160 -157 -251 -373 -251
-597 0 -371 229 -688 580 -803 122 -39 300 -50 423 -24 313 64 549 282 643
593 24 77 27 106 28 228 0 117 -3 153 -22 220 -123 429 -538 691 -967 610z
m100 -347 c36 -32 48 -92 35 -176 -32 -203 -125 -393 -255 -526 l-55 -56 15
-30 c28 -54 69 -72 157 -67 63 3 89 10 145 38 45 22 67 39 65 49 -37 168 -22
339 49 533 57 159 144 257 227 257 40 0 87 -40 103 -88 50 -151 -77 -492 -253
-678 -43 -46 -49 -56 -38 -70 40 -47 148 -61 228 -29 33 14 46 15 55 6 35 -35
-71 -84 -168 -77 -66 4 -115 24 -151 63 l-23 25 -31 -22 c-54 -38 -139 -63
-220 -64 -65 -1 -81 3 -122 27 -27 15 -48 31 -48 35 0 4 -9 18 -19 31 l-18 24
-29 -20 c-43 -30 -125 -70 -160 -77 -22 -5 -35 -2 -45 10 -11 14 -11 18 6 30
10 8 25 14 32 14 18 0 87 35 139 71 l41 28 -10 58 c-21 121 25 374 93 519 74
154 183 223 255 162z"/>
<path d="M860 1452 c-99 -49 -200 -327 -200 -551 0 -53 4 -91 10 -91 18 0 131
152 169 229 81 160 122 353 87 406 -20 30 -21 30 -66 7z"/>
<path d="M1300 1452 c-42 -20 -97 -100 -133 -192 -52 -132 -82 -363 -61 -469
l7 -32 29 28 c116 110 258 414 258 554 0 58 -17 106 -40 119 -23 12 -19 13
-60 -8z"/>
<path d="M2184 1157 c-2 -7 -3 -91 -2 -186 3 -153 5 -175 21 -185 12 -8 22 -8
35 0 15 10 17 32 20 175 3 199 2 209 -39 209 -16 0 -32 -6 -35 -13z"/>
<path d="M2897 1164 c-12 -12 -8 -372 4 -379 5 -4 21 -4 35 -1 l24 6 -2 188
-3 187 -25 3 c-14 2 -29 0 -33 -4z"/>
<path d="M3176 1155 c-10 -28 -7 -335 4 -356 13 -23 43 -25 60 -4 11 13 15 13
33 0 12 -8 41 -15 64 -15 79 0 145 90 127 173 -11 51 -32 86 -64 102 -40 21
-114 20 -131 -2 -12 -14 -15 -8 -19 48 -5 63 -5 64 -36 67 -22 2 -33 -2 -38
-13z m189 -175 c41 -45 12 -130 -43 -130 -38 0 -72 37 -72 77 0 64 74 98 115
53z"/>
<path d="M5071 1144 c-11 -15 -21 -39 -21 -54 0 -19 -6 -29 -20 -33 -26 -7
-26 -37 0 -44 18 -5 20 -15 22 -116 3 -100 5 -112 22 -115 29 -6 36 16 36 125
l0 102 38 3 c30 2 38 7 40 26 3 20 -1 22 -38 22 -39 0 -41 1 -38 28 2 22 9 28
38 32 27 4 35 10 35 25 0 17 -8 20 -46 23 -41 3 -50 -1 -68 -24z"/>
<path d="M2366 1049 c-81 -64 -74 -209 13 -254 78 -40 207 2 184 61 -4 12 -14
14 -37 9 -81 -17 -103 -17 -119 0 -10 9 -17 20 -17 25 0 5 42 11 93 12 l92 3
3 29 c5 38 -15 81 -50 111 -39 33 -122 35 -162 4z"/>
<path d="M2645 1045 c-27 -26 -33 -72 -15 -105 6 -11 37 -29 70 -41 36 -13 60
-28 60 -36 0 -15 -8 -15 -113 3 -38 6 -38 6 -35 -22 4 -37 55 -64 119 -64 78
0 125 57 99 121 -11 26 -31 39 -107 69 -60 23 -27 48 37 29 48 -15 72 -6 68
23 -4 30 -42 48 -106 48 -43 0 -58 -5 -77 -25z"/>
<path d="M3041 1056 c-8 -9 -11 -55 -9 -136 3 -104 6 -125 21 -134 12 -8 22
-8 35 0 14 9 17 30 20 134 3 126 -3 150 -38 150 -10 0 -23 -6 -29 -14z"/>
<path d="M3522 1058 c-15 -15 -16 -231 -2 -259 12 -21 40 -25 58 -7 7 7 12 39
12 73 0 75 15 105 63 128 36 17 43 30 31 61 -8 21 -52 20 -76 0 -16 -16 -18
-16 -24 0 -7 19 -45 21 -62 4z"/>
<path d="M3742 1060 c-28 -12 -38 -36 -22 -55 9 -11 25 -13 66 -9 37 5 58 3
69 -6 25 -21 18 -33 -16 -26 -45 9 -104 -10 -128 -41 -49 -61 -2 -143 81 -143
24 0 53 7 65 15 19 13 22 13 27 0 7 -18 37 -20 54 -3 16 16 16 188 0 223 -7
15 -24 33 -39 41 -31 16 -121 18 -157 4z"/>
<path d="M4021 1056 c-8 -9 -11 -55 -9 -136 3 -104 6 -125 21 -134 12 -8 22
-8 35 0 14 9 17 30 20 134 3 126 -3 150 -38 150 -10 0 -23 -6 -29 -14z"/>
<path d="M4162 1058 c-15 -15 -16 -231 -2 -259 12 -21 40 -25 58 -7 7 7 12 39
12 73 0 75 15 105 63 128 36 17 43 30 31 61 -8 21 -52 20 -76 0 -16 -16 -18
-16 -24 0 -7 19 -45 21 -62 4z"/>
<path d="M4395 1048 c-76 -60 -71 -200 9 -249 56 -34 173 -18 189 26 12 30 -4
47 -37 40 -86 -17 -97 -17 -116 0 -11 10 -20 22 -20 26 0 5 42 10 93 11 l92 3
3 38 c4 45 -25 98 -63 115 -43 20 -119 15 -150 -10z"/>
<path d="M4676 1039 c-48 -57 -22 -115 64 -144 31 -10 50 -22 50 -32 0 -12 -8
-14 -42 -9 -95 14 -103 13 -103 -14 0 -33 53 -60 118 -60 40 0 54 5 78 29 56
56 32 118 -56 149 -57 20 -70 49 -20 43 80 -9 90 -7 90 19 0 32 -35 50 -102
50 -45 0 -54 -4 -77 -31z"/>
<path d="M5232 1058 c-13 -13 -18 -232 -6 -262 9 -24 43 -20 48 7 3 12 7 53 9
91 3 60 6 72 31 92 15 13 36 24 47 24 27 0 35 28 15 48 -16 16 -19 16 -55 -4
-37 -20 -39 -20 -50 -2 -13 21 -22 23 -39 6z"/>
</g>
</svg>
