<?xml version="1.0" encoding="UTF-8"?>
<svg width="213px" height="145px" viewBox="0 0 213 145" version="1.1" xmlns="http://www.w3.org/2000/svg" xmlns:xlink="http://www.w3.org/1999/xlink">
    <!-- Generator: sketchtool 49.2 (51160) - http://www.bohemiancoding.com/sketch -->
    <title>9235AD4F-403A-40AD-B5E6-7F0762BA8F5E</title>
    <desc>Created with sketchtool.</desc>
    <defs>
        <linearGradient x1="50%" y1="0%" x2="50%" y2="98.2681539%" id="linearGradient-1">
            <stop stop-color="#000000" stop-opacity="0" offset="0%"></stop>
            <stop stop-color="#000000" stop-opacity="0.7" offset="100%"></stop>
        </linearGradient>
    </defs>
    <g id="Splash-&amp;-account" stroke="none" stroke-width="1" fill="none" fill-rule="evenodd">
        <g id="PassCulture-v0rc3-splash" transform="translate(-81.000000, -260.000000)">
            <g id="logo-group" transform="translate(81.000000, 260.000000)">
                <g id="Group" transform="translate(0.000000, 106.000000)" fill="#FFFFFF">
                    <path d="M97.406,31.344 C95.4279901,31.344 93.8083396,30.813672 92.547,29.753 C91.2856604,28.692328 90.5403345,27.2733422 90.311,25.496 C90.2249996,24.893997 90.182,24.2490034 90.182,23.561 C90.182,22.5576617 90.2679991,21.4110065 90.44,20.121 C90.6980013,18.0283229 91.0849974,16.2510073 91.601,14.789 C92.2890034,13.0403246 93.3854925,11.635672 94.8905,10.575 C96.3955075,9.51432803 98.1369901,8.984 100.115,8.984 C102.09301,8.984 103.73416,9.49999484 105.0385,10.532 C106.34284,11.5640052 107.095332,12.8539923 107.296,14.402 C107.382,14.7746685 107.425,15.1473315 107.425,15.52 C107.425,15.8353349 107.253002,16.0216664 106.909,16.079 L105.705,16.251 L105.619,16.251 C105.389666,16.251 105.246334,16.0933349 105.189,15.778 C105.189,15.5486655 105.174667,15.3766672 105.146,15.262 C105.031333,14.057994 104.501005,13.0475041 103.555,12.2305 C102.608995,11.4134959 101.390674,11.005 99.9,11.005 C98.3519923,11.005 97.0190056,11.4206625 95.901,12.252 C94.7829944,13.0833375 94.0090022,14.1869931 93.579,15.563 C93.2063315,16.5376715 92.8910013,18.0713229 92.633,20.164 C92.4609991,21.5686737 92.375,22.7009957 92.375,23.561 C92.375,23.9336685 92.4036664,24.3206647 92.461,24.722 C92.5470004,26.1266737 93.0486621,27.2446625 93.966,28.076 C94.8833379,28.9073375 96.1016591,29.323 97.621,29.323 C99.1403409,29.323 100.487661,28.9145041 101.663,28.0975 C102.838339,27.2804959 103.597998,26.2556728 103.942,25.023 L104.028,24.851 C104.114,24.5356651 104.328998,24.4066664 104.673,24.464 L105.748,24.593 C106.092002,24.6503336 106.221,24.8509983 106.135,25.195 C106.077666,25.4243345 105.991667,25.6536655 105.877,25.883 C105.303664,27.4883414 104.243008,28.7998282 102.695,29.8175 C101.146992,30.8351718 99.3840099,31.344 97.406,31.344 Z M126.818,9.844 C126.846667,9.70066595 126.911166,9.57883384 127.0115,9.4785 C127.111834,9.37816617 127.233666,9.328 127.377,9.328 L128.538,9.328 C128.853335,9.328 129.011,9.49999828 129.011,9.844 L126.474,30.484 C126.445333,30.6273341 126.380834,30.7491662 126.2805,30.8495 C126.180166,30.9498338 126.058334,31 125.915,31 L124.711,31 C124.567666,31 124.453,30.9498338 124.367,30.8495 C124.281,30.7491662 124.252333,30.6273341 124.281,30.484 L124.539,28.463 C124.539,28.3769996 124.5175,28.3268334 124.4745,28.3125 C124.4315,28.2981666 124.395667,28.3339996 124.367,28.42 C122.904993,30.3406763 120.82668,31.301 118.132,31.301 C116.239991,31.301 114.706339,30.770672 113.531,29.71 C112.355661,28.649328 111.768,27.1873427 111.768,25.324 C111.768,25.0946655 111.796666,24.7220026 111.854,24.206 L113.617,9.844 C113.617,9.70066595 113.674333,9.57883384 113.789,9.4785 C113.903667,9.37816617 114.032666,9.328 114.176,9.328 L115.337,9.328 C115.480334,9.328 115.595,9.37816617 115.681,9.4785 C115.767,9.57883384 115.795667,9.70066595 115.767,9.844 L114.09,23.604 C114.061333,23.8333345 114.047,24.1486647 114.047,24.55 C114.047,26.0120073 114.469829,27.1658291 115.3155,28.0115 C116.161171,28.8571709 117.329326,29.28 118.82,29.28 C120.511342,29.28 121.930328,28.7568386 123.077,27.7105 C124.223672,26.6641614 124.911666,25.2953418 125.141,23.604 L126.818,9.844 Z M134.171,31 C133.855665,31 133.698,30.8280017 133.698,30.484 L137.267,1.416 C137.295667,1.27266595 137.367333,1.15083384 137.482,1.0505 C137.596667,0.950166165 137.725666,0.9 137.869,0.9 L139.073,0.9 C139.216334,0.9 139.331,0.950166165 139.417,1.0505 C139.503,1.15083384 139.531667,1.27266595 139.503,1.416 L135.934,30.484 C135.905333,30.6273341 135.840834,30.7491662 135.7405,30.8495 C135.640166,30.9498338 135.518334,31 135.375,31 L134.171,31 Z M154.381,10.747 C154.352333,10.8903341 154.280667,11.0121662 154.166,11.1125 C154.051333,11.2128338 153.922334,11.263 153.779,11.263 L149.006,11.263 C148.92,11.263 148.848334,11.3203328 148.791,11.435 L147.157,24.98 C147.099666,25.438669 147.071,25.7683323 147.071,25.969 C147.071,27.0583388 147.371997,27.8251644 147.974,28.2695 C148.576003,28.7138356 149.493327,28.936 150.726,28.936 L151.586,28.936 C151.729334,28.936 151.844,28.9861662 151.93,29.0865 C152.016,29.1868338 152.044667,29.308666 152.016,29.452 L151.887,30.441 C151.829666,30.7850017 151.643335,30.957 151.328,30.957 L150.167,31 C148.418325,31 147.092505,30.6918364 146.1895,30.0755 C145.286495,29.4591636 144.835,28.3483414 144.835,26.743 C144.835,26.5423323 144.863666,26.1553362 144.921,25.582 L146.641,11.435 C146.641,11.3203328 146.598,11.263 146.512,11.263 L144.061,11.263 C143.917666,11.263 143.803,11.2128338 143.717,11.1125 C143.631,11.0121662 143.602333,10.8903341 143.631,10.747 L143.76,9.844 C143.788667,9.70066595 143.853166,9.57883384 143.9535,9.4785 C144.053834,9.37816617 144.175666,9.328 144.319,9.328 L146.727,9.328 C146.813,9.328 146.884666,9.27066724 146.942,9.156 L147.501,4.34 C147.529667,4.19666595 147.594166,4.07483384 147.6945,3.9745 C147.794834,3.87416617 147.916666,3.824 148.06,3.824 L149.264,3.824 C149.407334,3.824 149.522,3.87416617 149.608,3.9745 C149.694,4.07483384 149.722667,4.19666595 149.694,4.34 L149.092,9.156 C149.092,9.27066724 149.135,9.328 149.221,9.328 L154.037,9.328 C154.180334,9.328 154.295,9.37816617 154.381,9.4785 C154.467,9.57883384 154.495667,9.70066595 154.467,9.844 L154.381,10.747 Z M173.559,9.844 C173.587667,9.70066595 173.652166,9.57883384 173.7525,9.4785 C173.852834,9.37816617 173.974666,9.328 174.118,9.328 L175.279,9.328 C175.594335,9.328 175.752,9.49999828 175.752,9.844 L173.215,30.484 C173.186333,30.6273341 173.121834,30.7491662 173.0215,30.8495 C172.921166,30.9498338 172.799334,31 172.656,31 L171.452,31 C171.308666,31 171.194,30.9498338 171.108,30.8495 C171.022,30.7491662 170.993333,30.6273341 171.022,30.484 L171.28,28.463 C171.28,28.3769996 171.2585,28.3268334 171.2155,28.3125 C171.1725,28.2981666 171.136667,28.3339996 171.108,28.42 C169.645993,30.3406763 167.56768,31.301 164.873,31.301 C162.980991,31.301 161.447339,30.770672 160.272,29.71 C159.096661,28.649328 158.509,27.1873427 158.509,25.324 C158.509,25.0946655 158.537666,24.7220026 158.595,24.206 L160.358,9.844 C160.358,9.70066595 160.415333,9.57883384 160.53,9.4785 C160.644667,9.37816617 160.773666,9.328 160.917,9.328 L162.078,9.328 C162.221334,9.328 162.336,9.37816617 162.422,9.4785 C162.508,9.57883384 162.536667,9.70066595 162.508,9.844 L160.831,23.604 C160.802333,23.8333345 160.788,24.1486647 160.788,24.55 C160.788,26.0120073 161.210829,27.1658291 162.0565,28.0115 C162.902171,28.8571709 164.070326,29.28 165.561,29.28 C167.252342,29.28 168.671328,28.7568386 169.818,27.7105 C170.964672,26.6641614 171.652666,25.2953418 171.882,23.604 L173.559,9.844 Z M191.017,9.156 C191.877004,9.156 192.650997,9.31366509 193.339,9.629 C193.539668,9.74366724 193.597,9.95866509 193.511,10.274 L192.995,11.521 C192.880333,11.8650017 192.665335,11.9653341 192.35,11.822 C191.776664,11.6213323 191.117337,11.5353332 190.372,11.564 C188.823992,11.5926668 187.469506,12.2018274 186.3085,13.3915 C185.147494,14.5811726 184.452334,16.0359914 184.223,17.756 L182.675,30.484 C182.646333,30.6273341 182.581834,30.7491662 182.4815,30.8495 C182.381166,30.9498338 182.259334,31 182.116,31 L180.912,31 C180.596665,31 180.439,30.8280017 180.439,30.484 L182.976,9.844 C183.004667,9.70066595 183.076333,9.57883384 183.191,9.4785 C183.305667,9.37816617 183.434666,9.328 183.578,9.328 L184.782,9.328 C184.925334,9.328 185.04,9.37816617 185.126,9.4785 C185.212,9.57883384 185.240667,9.70066595 185.212,9.844 L184.868,12.682 C184.839333,12.7680004 184.853666,12.8181666 184.911,12.8325 C184.968334,12.8468334 185.011333,12.8110004 185.04,12.725 C185.75667,11.6069944 186.616662,10.7326698 187.62,10.102 C188.623338,9.47133018 189.75566,9.156 191.017,9.156 Z M203.143,29.366 C204.49034,29.3373332 205.694328,29.0076698 206.755,28.377 C207.815672,27.7463302 208.646997,26.900672 209.249,25.84 C209.449668,25.5533319 209.678999,25.4673328 209.937,25.582 L210.668,25.883 C210.811334,25.9403336 210.9045,26.0334994 210.9475,26.1625 C210.9905,26.2915006 210.969,26.427666 210.883,26.571 C210.108996,28.0330073 209.012507,29.1939957 207.5935,30.054 C206.174493,30.9140043 204.562009,31.344 202.756,31.344 C200.806657,31.344 199.237173,30.8566715 198.0475,29.882 C196.857827,28.9073285 196.105335,27.5743418 195.79,25.883 C195.675333,25.3383306 195.618,24.6646707 195.618,23.862 C195.618,23.0306625 195.718332,21.783675 195.919,20.121 C196.062334,18.7163263 196.198499,17.6556703 196.3275,16.939 C196.456501,16.2223298 196.635666,15.563003 196.865,14.961 C197.553003,13.154991 198.649492,11.7073388 200.1545,10.618 C201.659508,9.52866122 203.40099,8.984 205.379,8.984 C207.615011,8.984 209.342161,9.58599398 210.5605,10.79 C211.778839,11.994006 212.431,13.6423229 212.517,15.735 C212.545667,15.9643345 212.56,16.308331 212.56,16.767 C212.56,17.5410039 212.459668,18.7306586 212.259,20.336 C212.230333,20.7086685 212.044002,20.895 211.7,20.895 L198.155,20.895 C198.040333,20.895 197.968667,20.9523328 197.94,21.067 C197.767999,22.3570065 197.682,23.3603298 197.682,24.077 C197.682,25.6536746 198.169328,26.9293285 199.144,27.904 C200.118672,28.8786715 201.451658,29.366 203.143,29.366 Z M198.929,15.477 C198.728332,15.9930026 198.499001,17.1253246 198.241,18.874 C198.212333,18.9886672 198.255333,19.046 198.37,19.046 L210.023,19.046 C210.137667,19.046 210.195,18.9886672 210.195,18.874 C210.309667,17.9566621 210.367,17.0536711 210.367,16.165 C210.367,14.6456591 209.901171,13.4058381 208.9695,12.4455 C208.037829,11.4851619 206.769341,11.005 205.164,11.005 C203.644659,11.005 202.333172,11.4134959 201.2295,12.2305 C200.125828,13.0475041 199.359002,14.1296599 198.929,15.477 Z" id="culture"></path>
                    <path d="M22.596,15.418 C22.7640008,16.2580042 22.848,17.1259955 22.848,18.022 C22.848,18.4980024 22.7920006,19.239995 22.68,20.248 C22.3999986,22.2640101 21.8960036,24.0279924 21.168,25.54 C20.3279958,27.2760087 19.1450076,28.6829946 17.619,29.761 C16.0929924,30.8390054 14.4620087,31.378 12.726,31.378 C10.6259895,31.378 9.1560042,30.7340064 8.316,29.446 C8.23199958,29.3339994 8.15500035,29.2919999 8.085,29.32 C8.01499965,29.3480001 7.96600014,29.4319993 7.938,29.572 L6.93,37.93 C6.90199986,38.1540011 6.81100077,38.3359993 6.657,38.476 C6.50299923,38.6160007 6.31400112,38.686 6.09,38.686 L0.798,38.686 C0.57399888,38.686 0.40600056,38.6160007 0.294,38.476 C0.18199944,38.3359993 0.13999986,38.1540011 0.168,37.93 L3.612,10.042 C3.64000014,9.81799888 3.7239993,9.6360007 3.864,9.496 C4.0040007,9.3559993 4.18599888,9.286 4.41,9.286 L9.702,9.286 C9.92600112,9.286 10.1009994,9.3559993 10.227,9.496 C10.3530006,9.6360007 10.4020001,9.81799888 10.374,10.042 L10.248,11.05 C10.2199999,11.1900007 10.2339997,11.2739999 10.29,11.302 C10.3460003,11.3300001 10.4299994,11.2880006 10.542,11.176 C11.8020063,9.69199258 13.4399899,8.95 15.456,8.95 C17.2200088,8.95 18.7739933,9.55199398 20.118,10.756 C21.4620067,11.960006 22.2879985,13.5139905 22.596,15.418 Z M14.238,23.776 C14.8540031,22.8799955 15.2459992,21.6620077 15.414,20.122 C15.4700003,19.5059969 15.498,19.0580014 15.498,18.778 C15.498,17.9659959 15.3860011,17.2520031 15.162,16.636 C14.7139978,15.5999948 13.9440055,15.082 12.852,15.082 C11.8159948,15.082 10.9620034,15.6139947 10.29,16.678 C9.70199706,17.5460043 9.32400084,18.6939929 9.156,20.122 C9.09999972,20.7940034 9.072,21.2559987 9.072,21.508 C9.072,22.4040045 9.19799874,23.1739968 9.45,23.818 C9.89800224,24.7700048 10.625995,25.246 11.634,25.246 C12.6980053,25.246 13.5659966,24.7560049 14.238,23.776 Z M39.018,10.042 C39.1020004,9.53799748 39.3819976,9.286 39.858,9.286 L45.15,9.286 C45.3740011,9.286 45.5419994,9.3559993 45.654,9.496 C45.7660006,9.6360007 45.8080001,9.81799888 45.78,10.042 L43.302,30.244 C43.2739999,30.4680011 43.1900007,30.6499993 43.05,30.79 C42.9099993,30.9300007 42.7280011,31 42.504,31 L37.212,31 C36.9879989,31 36.8130006,30.9300007 36.687,30.79 C36.5609994,30.6499993 36.5119999,30.4680011 36.54,30.244 L36.666,29.236 C36.6940001,29.0959993 36.6730003,29.0120001 36.603,28.984 C36.5329996,28.9559999 36.4560004,28.9979994 36.372,29.11 C35.1119937,30.5940074 33.4740101,31.336 31.458,31.336 C29.6939912,31.336 28.1330068,30.734006 26.775,29.53 C25.4169932,28.325994 24.5840015,26.7720095 24.276,24.868 C24.1359993,23.9719955 24.066,23.1740035 24.066,22.474 C24.066,21.9139972 24.1219994,21.1020053 24.234,20.038 C24.4580011,18.1339905 24.9619961,16.3700081 25.746,14.746 C26.5860042,13.0099913 27.7689924,11.6030054 29.295,10.525 C30.8210076,9.44699461 32.4519913,8.908 34.188,8.908 C36.2880105,8.908 37.7579958,9.55199356 38.598,10.84 C38.6540003,10.9520006 38.7239996,10.9940001 38.808,10.966 C38.8920004,10.9379999 38.934,10.8540007 38.934,10.714 L39.018,10.042 Z M36.624,23.608 C37.2120029,22.6559952 37.5899992,21.5080067 37.758,20.164 C37.8140003,19.4919966 37.842,19.0300013 37.842,18.778 C37.842,17.8539954 37.7160013,17.0840031 37.464,16.468 C37.0159978,15.5159952 36.288005,15.04 35.28,15.04 C34.2159947,15.04 33.3480034,15.5299951 32.676,16.51 C32.0879971,17.3780043 31.6820011,18.5959922 31.458,20.164 C31.4019997,20.7240028 31.374,21.1159989 31.374,21.34 C31.374,22.2360045 31.4999987,23.0059968 31.752,23.65 C32.144002,24.6860052 32.8999944,25.204 34.02,25.204 C35.0840053,25.204 35.9519966,24.6720053 36.624,23.608 Z M55.566,31.336 C52.8499864,31.336 50.7150078,30.8040053 49.161,29.74 C47.6069922,28.6759947 46.83,27.2620088 46.83,25.498 C46.83,25.1899985 46.8439999,24.9520008 46.872,24.784 L46.914,24.574 C46.9420001,24.3499989 47.0259993,24.1680007 47.166,24.028 C47.3060007,23.8879993 47.4879989,23.818 47.712,23.818 L52.71,23.818 C53.2420027,23.818 53.4800003,23.9019992 53.424,24.07 L53.382,24.322 C53.3259997,24.8540027 53.5569974,25.2949982 54.075,25.645 C54.5930026,25.9950017 55.2859957,26.17 56.154,26.17 C56.9660041,26.17 57.6169976,26.0230015 58.107,25.729 C58.5970025,25.4349985 58.842,25.0500024 58.842,24.574 C58.842,24.181998 58.6180022,23.888001 58.17,23.692 C57.7219978,23.495999 56.994005,23.300001 55.986,23.104 C54.3339917,22.7679983 53.004005,22.3620024 51.996,21.886 C50.8199941,21.3539973 49.8820035,20.7030038 49.182,19.933 C48.4819965,19.1629961 48.132,18.1480063 48.132,16.888 C48.132,16.5239982 48.1459999,16.244001 48.174,16.048 C48.4540014,13.8639891 49.489991,12.1350064 51.282,10.861 C53.074009,9.58699363 55.3139866,8.95 58.002,8.95 C60.5500127,8.95 62.5729925,9.53099419 64.071,10.693 C65.5690075,11.8550058 66.318,13.4019903 66.318,15.334 C66.318,15.6980018 66.3040001,15.977999 66.276,16.174 C66.2479999,16.3140007 66.1640007,16.4329995 66.024,16.531 C65.8839993,16.6290005 65.7020011,16.678 65.478,16.678 L60.606,16.678 C60.1299976,16.678 59.892,16.5940008 59.892,16.426 L59.934,16.174 C59.9900003,15.6419973 59.8010022,15.2080017 59.367,14.872 C58.9329978,14.5359983 58.2960042,14.368 57.456,14.368 C56.6439959,14.368 55.9790026,14.5149985 55.461,14.809 C54.9429974,15.1030015 54.684,15.5019975 54.684,16.006 C54.684,16.4540022 54.9359975,16.7829989 55.44,16.993 C55.9440025,17.203001 56.7699943,17.4199989 57.918,17.644 C59.2620067,17.8680011 60.3259961,18.1199986 61.11,18.4 C62.5660073,18.9040025 63.692996,19.5689959 64.491,20.395 C65.289004,21.2210041 65.688,22.3059933 65.688,23.65 C65.688,24.0140018 65.6740001,24.293999 65.646,24.49 C65.3659986,26.6740109 64.323009,28.360994 62.517,29.551 C60.710991,30.7410059 58.3940141,31.336 55.566,31.336 Z M76.23,31.336 C73.5139864,31.336 71.3790078,30.8040053 69.825,29.74 C68.2709922,28.6759947 67.494,27.2620088 67.494,25.498 C67.494,25.1899985 67.5079999,24.9520008 67.536,24.784 L67.578,24.574 C67.6060001,24.3499989 67.6899993,24.1680007 67.83,24.028 C67.9700007,23.8879993 68.1519989,23.818 68.376,23.818 L73.374,23.818 C73.9060027,23.818 74.1440003,23.9019992 74.088,24.07 L74.046,24.322 C73.9899997,24.8540027 74.2209974,25.2949982 74.739,25.645 C75.2570026,25.9950017 75.9499957,26.17 76.818,26.17 C77.6300041,26.17 78.2809975,26.0230015 78.771,25.729 C79.2610025,25.4349985 79.506,25.0500024 79.506,24.574 C79.506,24.181998 79.2820022,23.888001 78.834,23.692 C78.3859978,23.495999 77.658005,23.300001 76.65,23.104 C74.9979917,22.7679983 73.668005,22.3620024 72.66,21.886 C71.4839941,21.3539973 70.5460035,20.7030038 69.846,19.933 C69.1459965,19.1629961 68.796,18.1480063 68.796,16.888 C68.796,16.5239982 68.8099999,16.244001 68.838,16.048 C69.1180014,13.8639891 70.153991,12.1350064 71.946,10.861 C73.738009,9.58699363 75.9779866,8.95 78.666,8.95 C81.2140127,8.95 83.2369925,9.53099419 84.735,10.693 C86.2330075,11.8550058 86.982,13.4019903 86.982,15.334 C86.982,15.6980018 86.9680001,15.977999 86.94,16.174 C86.9119999,16.3140007 86.8280007,16.4329995 86.688,16.531 C86.5479993,16.6290005 86.3660011,16.678 86.142,16.678 L81.27,16.678 C80.7939976,16.678 80.556,16.5940008 80.556,16.426 L80.598,16.174 C80.6540003,15.6419973 80.4650022,15.2080017 80.031,14.872 C79.5969978,14.5359983 78.9600042,14.368 78.12,14.368 C77.3079959,14.368 76.6430026,14.5149985 76.125,14.809 C75.6069974,15.1030015 75.348,15.5019975 75.348,16.006 C75.348,16.4540022 75.5999975,16.7829989 76.104,16.993 C76.6080025,17.203001 77.4339943,17.4199989 78.582,17.644 C79.9260067,17.8680011 80.9899961,18.1199986 81.774,18.4 C83.2300073,18.9040025 84.356996,19.5689959 85.155,20.395 C85.953004,21.2210041 86.352,22.3059933 86.352,23.65 C86.352,24.0140018 86.3380001,24.293999 86.31,24.49 C86.0299986,26.6740109 84.987009,28.360994 83.181,29.551 C81.374991,30.7410059 79.0580141,31.336 76.23,31.336 Z" id="pass"></path>
                </g>
                <g id="logo-w" transform="translate(79.000000, 0.000000)">
                    <path d="M28.748892,63.0346449 C30.0666598,63.0435763 31.391437,63.0761494 32.6951859,63.142609 C43.5080663,63.6960891 54.9999826,66.8464863 54.9999826,71.5955925 C54.9999826,75.4095353 48.0107316,78.5746429 39.9157472,82.2393799 C38.330746,82.9575643 36.6467369,83.7225069 34.9898892,84.502948 C33.3689648,85.2673652 32.0503208,85.914887 30.7798665,86.5718655 L28.4527447,87.7074586 L26.066043,86.5411312 C24.8560448,85.914887 23.5374008,85.2673652 21.9164764,84.502948 C20.2596287,83.7225069 18.5756196,82.9575643 16.9897422,82.2393799 C8.89563403,78.5746429 1.90638301,75.4095353 1.90638301,71.5955925 C1.90638301,66.8464863 13.3982993,63.6960891 24.2111797,63.142609 C25.5149287,63.0761494 26.8397058,63.0435763 28.1583498,63.027027 C28.2564814,63.027027 28.3546131,63.0304419 28.4527447,63.0309673 C28.5517525,63.0304419 28.6498842,63.027027 28.748892,63.0346449 Z M28.5512165,68.8992528 C28.5183934,68.8967273 28.4858607,68.8978594 28.4530376,68.8980336 C28.4205049,68.8978594 28.3879723,68.8967273 28.3554396,68.8967273 C27.9182819,68.9022137 27.479091,68.9130123 27.0468714,68.9350451 C23.4621787,69.1185351 19.6523716,70.1629567 19.6523716,71.7373833 C19.6523716,73.001784 24.2628972,74.442728 28.6204557,74.442728 C32.9780143,74.442728 37.2539941,73.001784 37.2539941,71.7373833 C37.2539941,70.1629567 33.444187,69.1185351 29.8594943,68.9350451 C29.4272746,68.9130123 28.9880837,68.9022137 28.5512165,68.8992528 Z" id="Combined-Shape" fill-opacity="0.450000018" fill="url(#linearGradient-1)"></path>
                    <path d="M37.2390239,36.9505276 C41.0514946,35.2820356 44.1259128,31.5815604 45.1996255,26.9571351 C46.2540936,22.4203784 45.1972426,17.685027 42.3746043,14.2922703 C39.5614979,10.914973 34.4297532,8.81605405 28.9822638,8.81605405 C27.735966,8.81605405 26.503966,8.92664865 25.3196255,9.14308108 C18.7795404,10.3287027 9.10345532,18.0893514 9.10345532,30.9777838 C9.10345532,41.3308649 15.2646468,50.8455676 23.0629447,62.8944324 C23.8350298,64.0848108 24.6154553,65.2942162 25.3958809,66.5119459 C26.4062638,68.0840541 27.4190298,69.6787568 28.4353702,71.3150811 L28.4353702,87.6283784 L26.0369021,83.6362703 C24.7286468,81.3244865 23.367966,79.0471892 21.6974979,76.3596216 C19.9889021,73.6161622 18.2529021,70.9262162 16.6193702,68.4003784 C8.27537021,55.5155135 1.06924255,44.3870811 1.06924255,30.9754054 C1.06924255,14.2768108 12.9150298,3.2007027 24.0626043,1.254 C25.607966,0.985243243 27.1807319,0.847297297 28.7392,0.847297297 C36.0668596,0.847297297 42.8166468,3.79172973 47.2561362,8.92189189 C50.744817,12.9556216 52.6743149,16.3216216 52.5499234,23.0256757 C52.4255319,29.7297297 47.8518809,35.0810811 41.7021277,36.8648649 C39.9148936,37.4594595 37.2390239,36.9505276 37.2390239,36.9505276 Z M32.3553702,46.2303243 L31.9574128,46.2267568 C31.8883064,46.2267568 31.8203915,46.2255676 31.7536681,46.222 C30.5395404,46.153027 29.3218383,45.9639459 28.1303489,45.6630811 C22.5577532,44.2431892 17.2294128,38.6123784 17.8227745,30.5865405 C18.3601362,23.3194054 23.1463489,18.0465405 29.2014979,18.0465405 C30.0093277,18.0465405 30.815966,18.1404865 31.5987745,18.326 C32.3851574,18.5115135 33.1632,18.7897838 33.9650723,19.1822162 C36.2443915,20.1038378 37.3643915,22.7462162 36.4636255,25.0746486 C35.7880511,26.818 34.166434,27.9453514 32.3327319,27.9453514 C31.7763064,27.9453514 31.2258383,27.8383243 30.7587745,27.6492432 C30.2523915,27.4042703 29.7436255,27.282973 29.2014979,27.282973 C27.3189447,27.282973 26.0273702,28.8348649 25.8272,31.3321622 L25.8236255,31.4368108 C25.8236255,31.9112973 25.8474553,32.4143243 25.9010723,33.0243784 C26.2620936,35.5573514 27.8432,37.9143243 30.0307745,39.1724865 C32.2576681,40.4568108 35.0207319,41.1631892 37.8100085,41.162 C41.6180085,41.162 45.8251574,39.8550811 49.0457532,36.6799459 C48.2438809,38.0522703 47.2847319,39.3663243 46.150434,40.5638378 C42.5854979,44.3228649 37.9434553,46.2315135 32.3553702,46.2303243 Z" id="Fill-1" fill="#FFFFFF"></path>
                </g>
            </g>
        </g>
    </g>
</svg>