<svg xmlns="http://www.w3.org/2000/svg" width="499.098" height="515.098" viewBox="0 0 499.098 515.098" overflow="visible"><g fill="#EBB300"><path d="M287.471 208.043c0 10.078 9.727 12.551 20.639 12.551 11.387 0 31.281-4.162 31.281-30.711-5.695 3.994-21.555 4.184-31.992 5.705-10.44 1.711-19.928 2.564-19.928 12.455z"/><path d="M144.246 137.674h14.207v13.693h.625c7.5-11.031 29.25-16.035 41.75-16.035 31.461 0 50 15.846 50 40.188V236h-29.584v-55.535c0-16.166-16.664-24.465-30.416-24.465-16.041 0-30.916 8.49-30.916 28.459V236h-29.586v-80.26H84.828V236H57.244v-80.26H44.977L0 441.436l429.604 73.662 46.104-292.855c-10.248 10.73-26.371 16.42-46.297 16.42-36.232 0-60.619-20.92-60.619-50.398 0-30.621 22.297-53.252 61.316-53.252 25.039 0 48.252 9.512 54.76 29.045l14.23-90.395L69.496 0 47.822 137.674h9.422v-7.607c0-17.307 15.584-37.4 49.584-37.4 22.668 0 50.668 6 50.668 36h-26C131.496 118 114.828 114 106.828 114c-11.332 0-22 9.6-22 17.777v5.896h59.418zm222.828 99.658h-28.92V226.49c-10.676 8.939-27.674 12.172-42.617 12.172-23.248 0-41.752-9.318-41.752-29.479 0-22.252 20.875-27.578 41.752-29.859 20.637-2.473 39.854-1.902 39.854-12.934 0-11.6-9.965-13.313-21.826-13.313-12.809 0-21.111 4.184-22.299 14.834H257.58c1.898-25.293 28.127-32.9 55.646-32.9 24.434 0 53.848 8.373 53.848 31.957v70.364z"/><path d="M429.875 155.361c-21.135 0-28.104 17.496-28.104 31.951 0 14.072 6.736 31 27.406 31 15.33 0 24.156-7.988 26.246-19.971h24.045l4.102-26.055h-29.309c-2.089-11.03-10.683-16.925-24.386-16.925z"/></g></svg>