<svg width="213" height="145" viewBox="0 0 213 145" xmlns="http://www.w3.org/2000/svg"><defs><linearGradient x1="50%" y1="0%" x2="50%" y2="98.268%" id="a"><stop stop-opacity="0" offset="0%"/><stop stop-opacity=".7" offset="100%"/></linearGradient></defs><g fill="none"><path d="M97.406 137.344c-1.978 0-3.598-.53-4.859-1.591-1.261-1.06-2.007-2.48-2.236-4.257a13.7 13.7 0 01-.129-1.935c0-1.003.086-2.15.258-3.44.258-2.093.645-3.87 1.161-5.332.688-1.749 1.784-3.153 3.29-4.214 1.505-1.06 3.246-1.591 5.224-1.591 1.978 0 3.62.516 4.924 1.548 1.304 1.032 2.056 2.322 2.257 3.87.086.373.129.745.129 1.118 0 .315-.172.502-.516.559l-1.204.172h-.086c-.23 0-.373-.158-.43-.473 0-.23-.014-.401-.043-.516-.115-1.204-.645-2.214-1.591-3.032-.946-.817-2.164-1.225-3.655-1.225-1.548 0-2.881.416-3.999 1.247-1.118.831-1.892 1.935-2.322 3.311-.373.975-.688 2.508-.946 4.601-.172 1.405-.258 2.537-.258 3.397 0 .373.029.76.086 1.161.086 1.405.588 2.523 1.505 3.354.917.831 2.136 1.247 3.655 1.247 1.52 0 2.867-.408 4.042-1.226 1.175-.817 1.935-1.841 2.279-3.074l.086-.172c.086-.315.301-.444.645-.387l1.075.129c.344.057.473.258.387.602-.057.23-.143.459-.258.688-.573 1.605-1.634 2.917-3.182 3.934-1.548 1.018-3.311 1.527-5.289 1.527zm29.412-21.5a.699.699 0 01.194-.366c.1-.1.222-.15.365-.15h1.161c.315 0 .473.172.473.516l-2.537 20.64a.699.699 0 01-.194.365c-.1.1-.222.151-.365.151h-1.204a.43.43 0 01-.344-.15.41.41 0 01-.086-.366l.258-2.021c0-.086-.022-.136-.064-.15-.043-.015-.08.021-.108.107-1.462 1.92-3.54 2.881-6.235 2.881-1.892 0-3.426-.53-4.601-1.591-1.175-1.06-1.763-2.523-1.763-4.386 0-.23.029-.602.086-1.118l1.763-14.362c0-.143.057-.265.172-.365a.576.576 0 01.387-.151h1.161a.43.43 0 01.344.15.41.41 0 01.086.366l-1.677 13.76c-.029.23-.043.545-.043.946 0 1.462.423 2.616 1.269 3.462.845.845 2.013 1.268 3.504 1.268 1.691 0 3.11-.523 4.257-1.57 1.147-1.046 1.835-2.415 2.064-4.106l1.677-13.76zM134.171 137c-.315 0-.473-.172-.473-.516l3.569-29.068a.643.643 0 01.215-.365.576.576 0 01.387-.151h1.204a.43.43 0 01.344.15.41.41 0 01.086.366l-3.569 29.068a.699.699 0 01-.194.365c-.1.1-.222.151-.365.151h-1.204zm20.21-20.253a.643.643 0 01-.215.366.572.572 0 01-.387.15h-4.773c-.086 0-.158.057-.215.172l-1.634 13.545a9.085 9.085 0 00-.086.989c0 1.09.301 1.856.903 2.3.602.445 1.52.667 2.752.667h.86a.43.43 0 01.344.15.41.41 0 01.086.366l-.129.989c-.057.344-.244.516-.559.516l-1.161.043c-1.749 0-3.074-.308-3.977-.925-.904-.616-1.355-1.727-1.355-3.332 0-.2.029-.588.086-1.161l1.72-14.147c0-.115-.043-.172-.129-.172h-2.451a.43.43 0 01-.344-.15.41.41 0 01-.086-.366l.129-.903a.699.699 0 01.194-.366c.1-.1.222-.15.365-.15h2.408c.086 0 .158-.057.215-.172l.559-4.816a.699.699 0 01.194-.366c.1-.1.222-.15.365-.15h1.204a.43.43 0 01.344.15.41.41 0 01.086.366l-.602 4.816c0 .115.043.172.129.172h4.816a.43.43 0 01.344.15.41.41 0 01.086.366l-.086.903zm19.178-.903a.699.699 0 01.194-.365c.1-.1.222-.151.365-.151h1.161c.315 0 .473.172.473.516l-2.537 20.64a.699.699 0 01-.194.365c-.1.1-.222.151-.365.151h-1.204a.43.43 0 01-.344-.15.41.41 0 01-.086-.366l.258-2.021c0-.086-.022-.136-.065-.15-.042-.015-.078.021-.107.107-1.462 1.92-3.54 2.881-6.235 2.881-1.892 0-3.426-.53-4.601-1.591-1.175-1.06-1.763-2.523-1.763-4.386 0-.23.029-.602.086-1.118l1.763-14.362c0-.143.057-.265.172-.365a.576.576 0 01.387-.151h1.161a.43.43 0 01.344.15.41.41 0 01.086.366l-1.677 13.76c-.029.23-.043.545-.043.946 0 1.462.423 2.616 1.268 3.462.846.845 2.014 1.268 3.505 1.268 1.691 0 3.11-.523 4.257-1.57 1.147-1.046 1.835-2.415 2.064-4.106l1.677-13.76zm17.458-.688c.86 0 1.634.158 2.322.473.2.115.258.33.172.645l-.516 1.247c-.115.344-.33.444-.645.301-.573-.2-1.233-.287-1.978-.258-1.548.029-2.902.638-4.064 1.828-1.16 1.19-1.856 2.644-2.085 4.364l-1.548 12.728a.699.699 0 01-.194.365c-.1.1-.222.151-.365.151h-1.204c-.315 0-.473-.172-.473-.516l2.537-20.64a.643.643 0 01.215-.365.576.576 0 01.387-.151h1.204a.43.43 0 01.344.15.41.41 0 01.086.366l-.344 2.838c-.029.086-.014.136.043.15.057.015.1-.021.129-.107.717-1.118 1.577-1.992 2.58-2.623 1.003-.63 2.136-.946 3.397-.946zm12.126 20.21c1.347-.029 2.551-.358 3.612-.989a6.83 6.83 0 002.494-2.537c.2-.287.43-.373.688-.258l.731.301a.45.45 0 01.28.28c.042.129.021.265-.065.408a8.837 8.837 0 01-3.29 3.483c-1.419.86-3.031 1.29-4.837 1.29-1.95 0-3.519-.487-4.708-1.462-1.19-.975-1.943-2.308-2.258-3.999-.115-.545-.172-1.218-.172-2.021 0-.831.1-2.078.301-3.741.143-1.405.28-2.465.408-3.182a11.05 11.05 0 01.538-1.978c.688-1.806 1.784-3.254 3.29-4.343 1.505-1.09 3.246-1.634 5.224-1.634 2.236 0 3.963.602 5.181 1.806 1.219 1.204 1.871 2.852 1.957 4.945.029.23.043.573.043 1.032 0 .774-.1 1.964-.301 3.569-.029.373-.215.559-.559.559h-13.545c-.115 0-.186.057-.215.172-.172 1.29-.258 2.293-.258 3.01 0 1.577.487 2.852 1.462 3.827.975.975 2.308 1.462 3.999 1.462zm-4.214-13.889c-.2.516-.43 1.648-.688 3.397-.029.115.014.172.129.172h11.653c.115 0 .172-.057.172-.172.115-.917.172-1.82.172-2.709 0-1.52-.466-2.76-1.397-3.72-.932-.96-2.2-1.44-3.806-1.44-1.52 0-2.83.408-3.934 1.225-1.104.818-1.871 1.9-2.301 3.247zm-176.333-.059c.168.84.252 1.708.252 2.604 0 .476-.056 1.218-.168 2.226-.28 2.016-.784 3.78-1.512 5.292-.84 1.736-2.023 3.143-3.549 4.221-1.526 1.078-3.157 1.617-4.893 1.617-2.1 0-3.57-.644-4.41-1.932-.084-.112-.161-.154-.231-.126-.07.028-.119.112-.147.252L6.93 143.93a.854.854 0 01-.273.546.812.812 0 01-.567.21H.798c-.224 0-.392-.07-.504-.21-.112-.14-.154-.322-.126-.546l3.444-27.888a.905.905 0 01.252-.546c.14-.14.322-.21.546-.21h5.292c.224 0 .399.07.525.21.126.14.175.322.147.546l-.126 1.008c-.028.14-.014.224.042.252.056.028.14-.014.252-.126 1.26-1.484 2.898-2.226 4.914-2.226 1.764 0 3.318.602 4.662 1.806 1.344 1.204 2.17 2.758 2.478 4.662zm-8.358 8.358c.616-.896 1.008-2.114 1.176-3.654.056-.616.084-1.064.084-1.344 0-.812-.112-1.526-.336-2.142-.448-1.036-1.218-1.554-2.31-1.554-1.036 0-1.89.532-2.562 1.596-.588.868-.966 2.016-1.134 3.444a19.987 19.987 0 00-.084 1.386c0 .896.126 1.666.378 2.31.448.952 1.176 1.428 2.184 1.428 1.064 0 1.932-.49 2.604-1.47zm24.78-13.734c.084-.504.364-.756.84-.756h5.292c.224 0 .392.07.504.21.112.14.154.322.126.546l-2.478 20.202a.905.905 0 01-.252.546.739.739 0 01-.546.21h-5.292c-.224 0-.399-.07-.525-.21-.126-.14-.175-.322-.147-.546l.126-1.008c.028-.14.007-.224-.063-.252-.07-.028-.147.014-.231.126-1.26 1.484-2.898 2.226-4.914 2.226-1.764 0-3.325-.602-4.683-1.806-1.358-1.204-2.191-2.758-2.499-4.662-.14-.896-.21-1.694-.21-2.394 0-.56.056-1.372.168-2.436.224-1.904.728-3.668 1.512-5.292.84-1.736 2.023-3.143 3.549-4.221 1.526-1.078 3.157-1.617 4.893-1.617 2.1 0 3.57.644 4.41 1.932.056.112.126.154.21.126.084-.028.126-.112.126-.252l.084-.672zm-2.394 13.566c.588-.952.966-2.1 1.134-3.444.056-.672.084-1.134.084-1.386 0-.924-.126-1.694-.378-2.31-.448-.952-1.176-1.428-2.184-1.428-1.064 0-1.932.49-2.604 1.47-.588.868-.994 2.086-1.218 3.654-.056.56-.084.952-.084 1.176 0 .896.126 1.666.378 2.31.392 1.036 1.148 1.554 2.268 1.554 1.064 0 1.932-.532 2.604-1.596zm18.942 7.728c-2.716 0-4.851-.532-6.405-1.596-1.554-1.064-2.331-2.478-2.331-4.242 0-.308.014-.546.042-.714l.042-.21a.905.905 0 01.252-.546c.14-.14.322-.21.546-.21h4.998c.532 0 .77.084.714.252l-.042.252c-.056.532.175.973.693 1.323s1.211.525 2.079.525c.812 0 1.463-.147 1.953-.441.49-.294.735-.679.735-1.155 0-.392-.224-.686-.672-.882-.448-.196-1.176-.392-2.184-.588-1.652-.336-2.982-.742-3.99-1.218-1.176-.532-2.114-1.183-2.814-1.953-.7-.77-1.05-1.785-1.05-3.045 0-.364.014-.644.042-.84.28-2.184 1.316-3.913 3.108-5.187 1.792-1.274 4.032-1.911 6.72-1.911 2.548 0 4.571.581 6.069 1.743 1.498 1.162 2.247 2.709 2.247 4.641 0 .364-.014.644-.042.84a.57.57 0 01-.252.357c-.14.098-.322.147-.546.147h-4.872c-.476 0-.714-.084-.714-.252l.042-.252c.056-.532-.133-.966-.567-1.302-.434-.336-1.071-.504-1.911-.504-.812 0-1.477.147-1.995.441-.518.294-.777.693-.777 1.197 0 .448.252.777.756.987.504.21 1.33.427 2.478.651 1.344.224 2.408.476 3.192.756 1.456.504 2.583 1.169 3.381 1.995.798.826 1.197 1.911 1.197 3.255 0 .364-.014.644-.042.84-.28 2.184-1.323 3.871-3.129 5.061s-4.123 1.785-6.951 1.785zm20.664 0c-2.716 0-4.851-.532-6.405-1.596-1.554-1.064-2.331-2.478-2.331-4.242 0-.308.014-.546.042-.714l.042-.21a.905.905 0 01.252-.546c.14-.14.322-.21.546-.21h4.998c.532 0 .77.084.714.252l-.042.252c-.056.532.175.973.693 1.323s1.211.525 2.079.525c.812 0 1.463-.147 1.953-.441.49-.294.735-.679.735-1.155 0-.392-.224-.686-.672-.882-.448-.196-1.176-.392-2.184-.588-1.652-.336-2.982-.742-3.99-1.218-1.176-.532-2.114-1.183-2.814-1.953-.7-.77-1.05-1.785-1.05-3.045 0-.364.014-.644.042-.84.28-2.184 1.316-3.913 3.108-5.187 1.792-1.274 4.032-1.911 6.72-1.911 2.548 0 4.571.581 6.069 1.743 1.498 1.162 2.247 2.709 2.247 4.641 0 .364-.014.644-.042.84a.57.57 0 01-.252.357c-.14.098-.322.147-.546.147H81.27c-.476 0-.714-.084-.714-.252l.042-.252c.056-.532-.133-.966-.567-1.302-.434-.336-1.071-.504-1.911-.504-.812 0-1.477.147-1.995.441-.518.294-.777.693-.777 1.197 0 .448.252.777.756.987.504.21 1.33.427 2.478.651 1.344.224 2.408.476 3.192.756 1.456.504 2.583 1.169 3.381 1.995.798.826 1.197 1.911 1.197 3.255 0 .364-.014.644-.042.84-.28 2.184-1.323 3.871-3.129 5.061s-4.123 1.785-6.951 1.785z" fill="#FFF"/><path d="M28.749 63.035c1.318.009 2.642.041 3.946.108C43.508 63.696 55 66.846 55 71.596c0 3.814-6.99 6.979-15.084 10.643a368.628 368.628 0 00-4.926 2.264c-1.621.764-2.94 1.412-4.21 2.069l-2.327 1.135-2.387-1.166a124.078 124.078 0 00-4.15-2.038 373.97 373.97 0 00-4.926-2.264c-8.094-3.664-15.084-6.83-15.084-10.643 0-4.75 11.492-7.9 22.305-8.453 1.304-.067 2.629-.1 3.947-.116.098 0 .197.003.295.004.099 0 .197-.004.296.004zm-.198 5.864c-.033-.002-.065-.001-.098-.001l-.098-.001c-.437.005-.876.016-1.308.038-3.585.184-7.395 1.228-7.395 2.802 0 1.265 4.61 2.706 8.968 2.706s8.634-1.441 8.634-2.706c0-1.574-3.81-2.618-7.395-2.802a29.753 29.753 0 00-1.308-.036z" fill-opacity=".45" fill="url(#a)" transform="translate(79)"/><path d="M116.239 36.95c3.812-1.668 6.887-5.368 7.96-9.993 1.055-4.537-.002-9.272-2.824-12.665-2.814-3.377-7.945-5.476-13.393-5.476-1.246 0-2.478.11-3.662.327-6.54 1.186-16.217 8.946-16.217 21.835 0 10.353 6.162 19.868 13.96 31.916.772 1.19 1.552 2.4 2.333 3.618a367.487 367.487 0 013.04 4.803v16.313l-2.4-3.992a201.316 201.316 0 00-4.339-7.276 552.413 552.413 0 00-5.078-7.96c-8.344-12.884-15.55-24.013-15.55-37.425 0-16.698 11.846-27.774 22.994-29.721a27.368 27.368 0 014.676-.407c7.328 0 14.078 2.945 18.517 8.075 3.489 4.034 5.418 7.4 5.294 14.104-.124 6.704-4.698 12.055-10.848 13.839-1.787.594-4.463.086-4.463.086zm-4.884 9.28l-.398-.003c-.069 0-.137-.001-.203-.005a19.303 19.303 0 01-3.624-.559c-5.572-1.42-10.9-7.05-10.307-15.076.537-7.268 5.323-12.54 11.378-12.54.808 0 1.615.093 2.398.279.786.186 1.564.464 2.366.856 2.28.922 3.4 3.564 2.499 5.893-.676 1.743-2.298 2.87-4.131 2.87a4.26 4.26 0 01-1.574-.296 3.505 3.505 0 00-1.558-.366c-1.882 0-3.174 1.552-3.374 4.05l-.003.104c0 .474.023.977.077 1.587.361 2.533 1.942 4.89 4.13 6.148 2.227 1.285 4.99 1.991 7.779 1.99 3.808 0 8.015-1.307 11.236-4.482a21.153 21.153 0 01-2.896 3.884c-3.565 3.759-8.207 5.668-13.795 5.666z" fill="#FFF"/></g></svg>