<svg xmlns="http://www.w3.org/2000/svg" width="197" height="124" viewBox="0 0 197 124"><g fill="none" fill-rule="evenodd"><path stroke="#FFF" stroke-linecap="round" stroke-width="3.5" d="M108 58.456c0-13.254-10.746-24-24-24s-24 10.746-24 24 10.746 24 24 24 24-10.746 24-24z"/><path stroke="#FFF" stroke-linecap="round" stroke-width="3.5" d="M90 58.456c0-3.312-2.688-6-6-6s-6 2.688-6 6 2.688 6 6 6 6-2.688 6-6z"/><path fill="#FFF" d="M43 94.456c0 1.66 1.341 3 3 3s3-1.34 3-3c0-1.659-1.341-3-3-3s-3 1.341-3 3"/><path stroke="#FFF" stroke-linecap="round" stroke-width="3.5" d="M99 58.456c0-8.286-6.714-15-15-15m-15 15c0 8.286 6.714 15 15 15m35-27h0c-1.659 0-3-1.34-3-3v-6c0-1.659 1.341-3 3-3s3 1.341 3 3v6c0 1.66-1.341 3-3 3z"/><path stroke="#FFF" stroke-linecap="round" stroke-linejoin="round" stroke-width="3.5" d="M122 43.456V76.39l-6 5.066M159.45 66.592l-3.358 6.624 3.951.626-4.107 7.38M14.404 20.205l3.872 8.561 3.716-3.345 4.026 9.894"/><path stroke="#FFF" stroke-linecap="round" stroke-width="3.5" d="M137 87.684h7.904a6 6 0 016 6v2.56c0 3.315 2.686 6 6 6h15.635"/><path stroke="#FFF" stroke-linecap="round" stroke-linejoin="round" stroke-width="3.5" d="M180.748 102.245h3-3z"/><path stroke="#FFF" stroke-linecap="round" stroke-width="3.5" d="M111.305 103.456H43a6 6 0 01-6-6v-68a6 6 0 016-6h88a6 6 0 016 6v68a6 6 0 01-6 6h-4.578 0M55 94.956h6"/></g></svg>