<svg version="1.0" xmlns="http://www.w3.org/2000/svg" width="736" height="266.667" viewBox="0 0 552 200"><path d="M85.5 15.5c-17.1 3.2-30.8 10.4-43.4 22.7C26.1 53.9 17 75.5 17 97.9c0 37.1 22.9 68.8 58 80.3 12.2 3.9 30 5 42.3 2.4 31.3-6.4 54.9-28.2 64.3-59.3 2.4-7.7 2.7-10.6 2.8-22.8 0-11.7-.3-15.3-2.2-22-12.3-42.9-53.8-69.1-96.7-61zm10 34.7c3.6 3.2 4.8 9.2 3.5 17.6-3.2 20.3-12.5 39.3-25.5 52.6L68 126l1.5 3c2.8 5.4 6.9 7.2 15.7 6.7 6.3-.3 8.9-1 14.5-3.8 4.5-2.2 6.7-3.9 6.5-4.9-3.7-16.8-2.2-33.9 4.9-53.3 5.7-15.9 14.4-25.7 22.7-25.7 4 0 8.7 4 10.3 8.8 5 15.1-7.7 49.2-25.3 67.8-4.3 4.6-4.9 5.6-3.8 7 4 4.7 14.8 6.1 22.8 2.9 3.3-1.4 4.6-1.5 5.5-.6 3.5 3.5-7.1 8.4-16.8 7.7-6.6-.4-11.5-2.4-15.1-6.3l-2.3-2.5-3.1 2.2c-5.4 3.8-13.9 6.3-22 6.4-6.5.1-8.1-.3-12.2-2.7-2.7-1.5-4.8-3.1-4.8-3.5 0-.4-.9-1.8-1.9-3.1l-1.8-2.4-2.9 2c-4.3 3-12.5 7-16 7.7-2.2.5-3.5.2-4.5-1-1.1-1.4-1.1-1.8.6-3 1-.8 2.5-1.4 3.2-1.4 1.8 0 8.7-3.5 13.9-7.1l4.1-2.8-1-5.8c-2.1-12.1 2.5-37.4 9.3-51.9C77.4 51 88.3 44.1 95.5 50.2z"/><path d="M86 54.8c-9.9 4.9-20 32.7-20 55.1 0 5.3.4 9.1 1 9.1 1.8 0 13.1-15.2 16.9-22.9 8.1-16 12.2-35.3 8.7-40.6-2-3-2.1-3-6.6-.7zm44 0c-4.2 2-9.7 10-13.3 19.2-5.2 13.2-8.2 36.3-6.1 46.9l.7 3.2 2.9-2.8c11.6-11 25.8-41.4 25.8-55.4 0-5.8-1.7-10.6-4-11.9-2.3-1.2-1.9-1.3-6 .8zm88.4 29.5c-.2.7-.3 9.1-.2 18.6.3 15.3.5 17.5 2.1 18.5 1.2.8 2.2.8 3.5 0 1.5-1 1.7-3.2 2-17.5.3-19.9.2-20.9-3.9-20.9-1.6 0-3.2.6-3.5 1.3zm71.3-.7c-1.2 1.2-.8 37.2.4 37.9.5.4 2.1.4 3.5.1l2.4-.6-.2-18.8-.3-18.7-2.5-.3c-1.4-.2-2.9 0-3.3.4zm27.9.9c-1 2.8-.7 33.5.4 35.6 1.3 2.3 4.3 2.5 6 .4 1.1-1.3 1.5-1.3 3.3 0 1.2.8 4.1 1.5 6.4 1.5 7.9 0 14.5-9 12.7-17.3-1.1-5.1-3.2-8.6-6.4-10.2-4-2.1-11.4-2-13.1.2-1.2 1.4-1.5.8-1.9-4.8-.5-6.3-.5-6.4-3.6-6.7-2.2-.2-3.3.2-3.8 1.3zm18.9 17.5c4.1 4.5 1.2 13-4.3 13-3.8 0-7.2-3.7-7.2-7.7 0-6.4 7.4-9.8 11.5-5.3zm170.6-16.4c-1.1 1.5-2.1 3.9-2.1 5.4 0 1.9-.6 2.9-2 3.3-2.6.7-2.6 3.7 0 4.4 1.8.5 2 1.5 2.2 11.6.3 10 .5 11.2 2.2 11.5 2.9.6 3.6-1.6 3.6-12.5V99.1l3.8-.3c3-.2 3.8-.7 4-2.6.3-2-.1-2.2-3.8-2.2-3.9 0-4.1-.1-3.8-2.8.2-2.2.9-2.8 3.8-3.2 2.7-.4 3.5-1 3.5-2.5 0-1.7-.8-2-4.6-2.3-4.1-.3-5 .1-6.8 2.4zm-270.5 9.5c-8.1 6.4-7.4 20.9 1.3 25.4 7.8 4 20.7-.2 18.4-6.1-.4-1.2-1.4-1.4-3.7-.9-8.1 1.7-10.3 1.7-11.9 0-1-.9-1.7-2-1.7-2.5s4.2-1.1 9.3-1.2l9.2-.3.3-2.9c.5-3.8-1.5-8.1-5-11.1-3.9-3.3-12.2-3.5-16.2-.4zm27.9.4c-2.7 2.6-3.3 7.2-1.5 10.5.6 1.1 3.7 2.9 7 4.1 3.6 1.3 6 2.8 6 3.6 0 1.5-.8 1.5-11.3-.3-3.8-.6-3.8-.6-3.5 2.2.4 3.7 5.5 6.4 11.9 6.4 7.8 0 12.5-5.7 9.9-12.1-1.1-2.6-3.1-3.9-10.7-6.9-6-2.3-2.7-4.8 3.7-2.9 4.8 1.5 7.2.6 6.8-2.3-.4-3-4.2-4.8-10.6-4.8-4.3 0-5.8.5-7.7 2.5zm39.6-1.1c-.8.9-1.1 5.5-.9 13.6.3 10.4.6 12.5 2.1 13.4 1.2.8 2.2.8 3.5 0 1.4-.9 1.7-3 2-13.4.3-12.6-.3-15-3.8-15-1 0-2.3.6-2.9 1.4zm48.1-.2c-1.5 1.5-1.6 23.1-.2 25.9 1.2 2.1 4 2.5 5.8.7.7-.7 1.2-3.9 1.2-7.3 0-7.5 1.5-10.5 6.3-12.8 3.6-1.7 4.3-3 3.1-6.1-.8-2.1-5.2-2-7.6 0-1.6 1.6-1.8 1.6-2.4 0-.7-1.9-4.5-2.1-6.2-.4zm22-.2c-2.8 1.2-3.8 3.6-2.2 5.5.9 1.1 2.5 1.3 6.6.9 3.7-.5 5.8-.3 6.9.6 2.5 2.1 1.8 3.3-1.6 2.6-4.5-.9-10.4 1-12.8 4.1-4.9 6.1-.2 14.3 8.1 14.3 2.4 0 5.3-.7 6.5-1.5 1.9-1.3 2.2-1.3 2.7 0 .7 1.8 3.7 2 5.4.3 1.6-1.6 1.6-18.8 0-22.3-.7-1.5-2.4-3.3-3.9-4.1-3.1-1.6-12.1-1.8-15.7-.4zm27.9.4c-.8.9-1.1 5.5-.9 13.6.3 10.4.6 12.5 2.1 13.4 1.2.8 2.2.8 3.5 0 1.4-.9 1.7-3 2-13.4.3-12.6-.3-15-3.8-15-1 0-2.3.6-2.9 1.4zm14.1-.2c-1.5 1.5-1.6 23.1-.2 25.9 1.2 2.1 4 2.5 5.8.7.7-.7 1.2-3.9 1.2-7.3 0-7.5 1.5-10.5 6.3-12.8 3.6-1.7 4.3-3 3.1-6.1-.8-2.1-5.2-2-7.6 0-1.6 1.6-1.8 1.6-2.4 0-.7-1.9-4.5-2.1-6.2-.4zm23.3 1c-7.6 6-7.1 20 .9 24.9 5.6 3.4 17.3 1.8 18.9-2.6 1.2-3-.4-4.7-3.7-4-8.6 1.7-9.7 1.7-11.6 0-1.1-1-2-2.2-2-2.6 0-.5 4.2-1 9.3-1.1l9.2-.3.3-3.8c.4-4.5-2.5-9.8-6.3-11.5-4.3-2-11.9-1.5-15 1zm28.1.9c-4.8 5.7-2.2 11.5 6.4 14.4 3.1 1 5 2.2 5 3.2 0 1.2-.8 1.4-4.2.9-9.5-1.4-10.3-1.3-10.3 1.4 0 3.3 5.3 6 11.8 6 4 0 5.4-.5 7.8-2.9 5.6-5.6 3.2-11.8-5.6-14.9-5.7-2-7-4.9-2-4.3 8 .9 9 .7 9-1.9 0-3.2-3.5-5-10.2-5-4.5 0-5.4.4-7.7 3.1zm55.6-1.9c-1.3 1.3-1.8 23.2-.6 26.2.9 2.4 4.3 2 4.8-.7.3-1.2.7-5.3.9-9.1.3-6 .6-7.2 3.1-9.2 1.5-1.3 3.6-2.4 4.7-2.4 2.7 0 3.5-2.8 1.5-4.8-1.6-1.6-1.9-1.6-5.5.4-3.7 2-3.9 2-5 .2-1.3-2.1-2.2-2.3-3.9-.6z"/></svg>