<?xml version="1.0" encoding="UTF-8"?>
<svg width="454px" height="117px" viewBox="0 0 454 117" version="1.1" xmlns="http://www.w3.org/2000/svg" xmlns:xlink="http://www.w3.org/1999/xlink">
    <!-- Generator: sketchtool 50.2 (55047) - http://www.bohemiancoding.com/sketch -->
    <title>79924558-87ED-4570-873C-D33C4F2DB23F</title>
    <desc>Created with sketchtool.</desc>
    <defs>
        <linearGradient x1="50%" y1="0%" x2="50%" y2="98.2681539%" id="linearGradient-1">
            <stop stop-color="#000000" stop-opacity="0" offset="0%"></stop>
            <stop stop-color="#000000" stop-opacity="0.7" offset="100%"></stop>
        </linearGradient>
    </defs>
    <g id="Portail-pro" stroke="none" stroke-width="1" fill="none" fill-rule="evenodd">
        <g id="Passculture-Pro-A-signin" transform="translate(-143.000000, -326.000000)">
            <g id="Group-5" transform="translate(142.000000, 139.000000)">
                <g id="logo-group-splash" transform="translate(0.000000, 186.000000)">
                    <g id="Group" transform="translate(113.442623, 26.842923)" fill="#FFFFFF">
                        <path d="M130.809935,48.0929575 C128.153596,48.0929575 125.978511,47.3807613 124.284614,45.9563477 C122.590716,44.5319341 121.589792,42.6263283 121.281811,40.2394731 C121.166318,39.4310221 121.108572,38.5648376 121.108572,37.6408937 C121.108572,36.2934754 121.224064,34.7535919 121.45505,33.0211969 C121.801529,30.2108674 122.321239,27.824048 123.014197,25.860667 C123.938141,23.5123095 125.410655,21.6259522 127.431782,20.2015386 C129.45291,18.777125 131.791608,18.0649288 134.447947,18.0649288 C137.104285,18.0649288 139.308244,18.7578764 141.059887,20.1437924 C142.811531,21.5297083 143.82208,23.2620773 144.091563,25.3409512 C144.207056,25.8414208 144.264802,26.3418829 144.264802,26.8423526 C144.264802,27.2658269 144.033819,27.516058 143.571848,27.5930533 L141.954954,27.8240381 L141.839461,27.8240381 C141.53148,27.8240381 141.338994,27.6123042 141.261999,27.1888298 C141.261999,26.8808485 141.242751,26.649866 141.204253,26.4958753 C141.050262,24.8789734 140.338066,23.5219511 139.067643,22.4247676 C137.79722,21.3275842 136.161094,20.7790007 134.159215,20.7790007 C132.080342,20.7790007 130.290227,21.3372084 128.788818,22.4536407 C127.287409,23.570073 126.247988,25.0522109 125.670523,26.9000988 C125.170053,28.2090194 124.746585,30.2686136 124.400106,33.0789432 C124.16912,34.9653287 124.053629,36.4859637 124.053629,37.6408937 C124.053629,38.1413633 124.092126,38.661074 124.169121,39.2000413 C124.284614,41.0864269 124.958313,42.5878133 126.190239,43.7042456 C127.422164,44.8206779 129.05829,45.3788856 131.098666,45.3788856 C133.139043,45.3788856 134.948406,44.8303021 136.52681,43.7331187 C138.105214,42.6359352 139.125387,41.2596644 139.587359,39.6042648 L139.702852,39.3732799 C139.818345,38.9498056 140.107073,38.7765687 140.569045,38.853564 L142.0127,39.0268027 C142.474672,39.103798 142.647909,39.3732776 142.532416,39.8352496 C142.45542,40.1432309 142.339929,40.4512076 142.185939,40.7591889 C141.415985,42.9150582 139.991593,44.6762999 137.912719,46.042967 C135.833845,47.4096342 133.466274,48.0929575 130.809935,48.0929575 Z M170.308342,19.219853 C170.34684,19.0273647 170.433458,18.8637521 170.5682,18.7290102 C170.702942,18.5942684 170.866555,18.5268985 171.059043,18.5268985 L172.618191,18.5268985 C173.041665,18.5268985 173.253399,18.757881 173.253399,19.219853 L169.846373,46.9380333 C169.807875,47.1305216 169.721256,47.2941342 169.586515,47.4288761 C169.451773,47.5636179 169.28816,47.6309878 169.095672,47.6309878 L167.478778,47.6309878 C167.28629,47.6309878 167.132301,47.5636179 167.016808,47.4288761 C166.901315,47.2941342 166.862818,47.1305216 166.901316,46.9380333 L167.247793,44.2239615 C167.247793,44.1084685 167.21892,44.0410986 167.161174,44.0218497 C167.103427,44.0026009 167.055306,44.0507223 167.016808,44.1662153 C165.053427,46.7455588 162.262389,48.0352112 158.643608,48.0352112 C156.102762,48.0352112 154.043168,47.3230151 152.464764,45.8986015 C150.886359,44.4741879 150.097169,42.5108364 150.097169,40.0084882 C150.097169,39.7005069 150.135666,39.2000448 150.212662,38.5070868 L152.580256,19.219853 C152.580256,19.0273647 152.65725,18.8637521 152.811241,18.7290102 C152.965232,18.5942684 153.138468,18.5268985 153.330957,18.5268985 L154.890104,18.5268985 C155.082593,18.5268985 155.236581,18.5942684 155.352074,18.7290102 C155.467567,18.8637521 155.506064,19.0273647 155.467567,19.219853 L153.215464,37.6986399 C153.176967,38.0066212 153.157718,38.4300891 153.157718,38.9690565 C153.157718,40.9324374 153.72555,42.4819451 154.861231,43.6176263 C155.996912,44.7533074 157.565669,45.3211394 159.567547,45.3211394 C161.83891,45.3211394 163.744515,44.6185676 165.284422,43.2134028 C166.824329,41.808238 167.748259,39.9700021 168.05624,37.6986399 L170.308342,19.219853 Z M180.182944,47.6309878 C179.75947,47.6309878 179.547736,47.4000053 179.547736,46.9380333 L184.340671,7.90159609 C184.379169,7.70910776 184.475411,7.54549514 184.629402,7.41075331 C184.783393,7.27601148 184.95663,7.20864158 185.149118,7.20864158 L186.766012,7.20864158 C186.9585,7.20864158 187.112488,7.27601148 187.227981,7.41075331 C187.343474,7.54549514 187.381972,7.70910776 187.343474,7.90159609 L182.550539,46.9380333 C182.512041,47.1305216 182.425422,47.2941342 182.290681,47.4288761 C182.155939,47.5636179 181.992326,47.6309878 181.799838,47.6309878 L180.182944,47.6309878 Z M207.323662,20.4325234 C207.285164,20.6250117 207.188922,20.7886244 207.034931,20.9233662 C206.88094,21.058108 206.707704,21.1254779 206.515215,21.1254779 L200.105386,21.1254779 C199.989893,21.1254779 199.89365,21.2024721 199.816655,21.3564628 L197.622299,39.5465185 C197.545304,40.1624812 197.506807,40.6051977 197.506807,40.8746813 C197.506807,42.3375926 197.911026,43.3673897 198.719477,43.9641035 C199.527928,44.5608173 200.759835,44.8591698 202.415234,44.8591698 L203.570159,44.8591698 C203.762647,44.8591698 203.916635,44.9265397 204.032128,45.0612815 C204.147621,45.1960233 204.186118,45.3596359 204.147621,45.5521243 L203.974382,46.8802871 C203.897387,47.3422591 203.647156,47.5732416 203.223681,47.5732416 L201.664534,47.6309878 C199.316176,47.6309878 197.535686,47.2171441 196.323009,46.3894443 C195.110333,45.5617445 194.504004,44.0699824 194.504004,41.9141131 C194.504004,41.6446295 194.542501,41.1249188 194.619496,40.3549655 L196.929345,21.3564628 C196.929345,21.2024721 196.871599,21.1254779 196.756106,21.1254779 L193.464572,21.1254779 C193.272084,21.1254779 193.118095,21.058108 193.002602,20.9233662 C192.887109,20.7886244 192.848612,20.6250117 192.88711,20.4325234 L193.060349,19.219853 C193.098846,19.0273647 193.185465,18.8637521 193.320206,18.7290102 C193.454948,18.5942684 193.618561,18.5268985 193.811049,18.5268985 L197.044837,18.5268985 C197.16033,18.5268985 197.256573,18.4499043 197.333568,18.2959137 L198.084269,11.8283383 C198.122766,11.63585 198.209385,11.4722373 198.344127,11.3374955 C198.478868,11.2027537 198.642481,11.1353838 198.834969,11.1353838 L200.451863,11.1353838 C200.644352,11.1353838 200.79834,11.2027537 200.913833,11.3374955 C201.029326,11.4722373 201.067823,11.63585 201.029325,11.8283383 L200.220878,18.2959137 C200.220878,18.4499043 200.278624,18.5268985 200.394117,18.5268985 L206.861692,18.5268985 C207.054181,18.5268985 207.208169,18.5942684 207.323662,18.7290102 C207.439155,18.8637521 207.477652,19.0273647 207.439155,19.219853 L207.323662,20.4325234 Z M233.078471,19.219853 C233.116969,19.0273647 233.203587,18.8637521 233.338329,18.7290102 C233.473071,18.5942684 233.636684,18.5268985 233.829172,18.5268985 L235.38832,18.5268985 C235.811794,18.5268985 236.023528,18.757881 236.023528,19.219853 L232.616502,46.9380333 C232.578004,47.1305216 232.491385,47.2941342 232.356644,47.4288761 C232.221902,47.5636179 232.058289,47.6309878 231.865801,47.6309878 L230.248907,47.6309878 C230.056419,47.6309878 229.90243,47.5636179 229.786937,47.4288761 C229.671444,47.2941342 229.632947,47.1305216 229.671445,46.9380333 L230.017922,44.2239615 C230.017922,44.1084685 229.989049,44.0410986 229.931303,44.0218497 C229.873556,44.0026009 229.825435,44.0507223 229.786937,44.1662153 C227.823556,46.7455588 225.032518,48.0352112 221.413737,48.0352112 C218.872891,48.0352112 216.813297,47.3230151 215.234893,45.8986015 C213.656488,44.4741879 212.867298,42.5108364 212.867298,40.0084882 C212.867298,39.7005069 212.905795,39.2000448 212.982791,38.5070868 L215.350385,19.219853 C215.350385,19.0273647 215.427379,18.8637521 215.58137,18.7290102 C215.735361,18.5942684 215.908598,18.5268985 216.101086,18.5268985 L217.660233,18.5268985 C217.852722,18.5268985 218.00671,18.5942684 218.122203,18.7290102 C218.237696,18.8637521 218.276193,19.0273647 218.237696,19.219853 L215.985593,37.6986399 C215.947096,38.0066212 215.927847,38.4300891 215.927847,38.9690565 C215.927847,40.9324374 216.495679,42.4819451 217.63136,43.6176263 C218.767042,44.7533074 220.335798,45.3211394 222.337676,45.3211394 C224.609039,45.3211394 226.514644,44.6185676 228.054551,43.2134028 C229.594458,41.808238 230.518388,39.9700021 230.826369,37.6986399 L233.078471,19.219853 Z M256.523432,18.2959137 C257.678362,18.2959137 258.717783,18.5076477 259.641727,18.931122 C259.911211,19.0851126 259.988205,19.3738408 259.872712,19.7973151 L259.179758,21.4719552 C259.025767,21.9339272 258.737039,22.068667 258.313565,21.8761786 C257.543611,21.606695 256.658178,21.4912037 255.657239,21.5297014 C253.578365,21.568199 251.759378,22.3862622 250.200222,23.9839153 C248.641067,25.5815684 247.707512,27.5352956 247.399531,29.8451555 L245.320668,46.9380333 C245.28217,47.1305216 245.195551,47.2941342 245.06081,47.4288761 C244.926068,47.5636179 244.762455,47.6309878 244.569967,47.6309878 L242.953073,47.6309878 C242.529599,47.6309878 242.317865,47.4000053 242.317865,46.9380333 L245.724891,19.219853 C245.763389,19.0273647 245.859631,18.8637521 246.013622,18.7290102 C246.167613,18.5942684 246.34085,18.5268985 246.533338,18.5268985 L248.150232,18.5268985 C248.34272,18.5268985 248.496708,18.5942684 248.612201,18.7290102 C248.727694,18.8637521 248.766192,19.0273647 248.727694,19.219853 L248.265724,23.0311028 C248.227227,23.1465958 248.246475,23.2139657 248.32347,23.2332145 C248.400466,23.2524634 248.458211,23.204342 248.496709,23.088849 C249.459151,21.5874401 250.614063,20.4132789 251.961482,19.5663303 C253.3089,18.7193816 254.829535,18.2959137 256.523432,18.2959137 Z M272.807863,45.4366318 C274.617253,45.3981342 276.234131,44.9554177 277.658544,44.108469 C279.082958,43.2615204 280.199374,42.1258563 281.007825,40.7014427 C281.277308,40.3164661 281.585285,40.2009748 281.931764,40.3549655 L282.91345,40.7591889 C283.105938,40.8361843 283.231053,40.9612998 283.2888,41.1345393 C283.346546,41.3077788 283.317674,41.4906399 283.202181,41.6831283 C282.162744,43.6465092 280.69023,45.2056412 278.784596,46.3605712 C276.878961,47.5155011 274.7135,48.0929575 272.288147,48.0929575 C269.670306,48.0929575 267.56259,47.438507 265.964937,46.1295864 C264.367284,44.8206657 263.356736,43.0305512 262.933261,40.7591889 C262.779271,40.0277333 262.702276,39.1230517 262.702276,38.0451171 C262.702276,36.9286848 262.837016,35.2540615 263.1065,33.0211969 C263.298988,31.1348114 263.481849,29.7104191 263.655089,28.7479775 C263.828328,27.7855359 264.068935,26.9001028 264.376916,26.0916519 C265.30086,23.666299 266.773374,21.7221961 268.794501,20.2592848 C270.815629,18.7963735 273.154327,18.0649288 275.810666,18.0649288 C278.813484,18.0649288 281.132933,18.8733677 282.769084,20.4902696 C284.405235,22.1071716 285.281043,24.3207541 285.396536,27.1310836 C285.435034,27.439065 285.454283,27.90103 285.454283,28.5169927 C285.454283,29.5564296 285.319543,31.1540587 285.050059,33.309928 C285.011562,33.8103976 284.76133,34.0606287 284.299359,34.0606287 L266.109303,34.0606287 C265.955312,34.0606287 265.859069,34.1376229 265.820572,34.2916135 C265.589586,36.0240085 265.474094,37.3714065 265.474094,38.3338482 C265.474094,40.4512197 266.128545,42.1643401 267.437466,43.4732607 C268.746386,44.7821814 270.536501,45.4366318 272.807863,45.4366318 Z M267.148734,26.7846064 C266.879251,27.4775644 266.571274,28.9981993 266.224795,31.3465569 C266.186297,31.5005475 266.244043,31.5775417 266.398034,31.5775417 L282.047256,31.5775417 C282.201247,31.5775417 282.278241,31.5005475 282.278241,31.3465569 C282.432232,30.1146316 282.509226,28.9019733 282.509226,27.7085457 C282.509226,25.6681695 281.883648,24.0031704 280.632474,22.7134987 C279.3813,21.4238269 277.677804,20.7790007 275.521935,20.7790007 C273.481559,20.7790007 271.720317,21.3275842 270.238157,22.4247676 C268.755997,23.5219511 267.726199,24.9752161 267.148734,26.7846064 Z" id="culture"></path>
                        <text id="pro" font-family="Barlow-Bold, Barlow" font-size="24" font-weight="bold">
                            <tspan x="298" y="24">PRO</tspan>
                        </text>
                        <path d="M30.3449613,26.7053732 C30.5705755,27.8334443 30.6833809,28.9991003 30.6833809,30.2023762 C30.6833809,30.8416165 30.6081773,31.8380644 30.4577678,33.1917497 C30.0817441,35.8991204 29.4049116,38.2680342 28.42725,40.2985622 C27.2991789,42.6299092 25.7105025,44.5193999 23.6611733,45.9670912 C21.6118442,47.4147825 19.4215389,48.1386172 17.090192,48.1386172 C14.2700142,48.1386172 12.2959193,47.2737757 11.1678482,45.5440667 C11.0550411,45.3936572 10.9516361,45.3372545 10.8576302,45.3748568 C10.7636243,45.4124592 10.6978211,45.5252646 10.6602187,45.7132765 L9.30654017,56.937528 C9.2689378,57.2383469 9.14673193,57.4827587 8.93991889,57.6707705 C8.73310586,57.8587824 8.47929366,57.9527869 8.1784747,57.9527869 L1.0716622,57.9527869 C0.770843237,57.9527869 0.545232399,57.8587824 0.394822916,57.6707705 C0.244413434,57.4827587 0.188010725,57.2383469 0.225613095,56.937528 L4.85068154,19.4857542 C4.88828391,19.1849352 5.00108933,18.9405235 5.18910119,18.7525116 C5.37711304,18.5644998 5.62152478,18.4704952 5.92234375,18.4704952 L13.0291562,18.4704952 C13.3299752,18.4704952 13.5649865,18.5644998 13.7341972,18.7525116 C13.9034078,18.9405235 13.969211,19.1849352 13.9316086,19.4857542 L13.7623988,20.8394327 C13.7247964,21.0274446 13.7435973,21.14025 13.8188021,21.1778524 C13.8940068,21.2154548 14.0068122,21.159052 14.1572217,21.0086426 C15.8493284,19.0157169 18.0490341,18.0192691 20.7564047,18.0192691 C23.1253541,18.0192691 25.2122544,18.8277079 27.0171681,20.4446098 C28.8220819,22.0615118 29.9313352,24.148412 30.3449613,26.7053732 Z M19.1207098,37.9296247 C19.947962,36.7263488 20.4743873,35.0906703 20.7000015,33.0225399 C20.7752062,32.1952877 20.812808,31.5936588 20.812808,31.2176351 C20.812808,30.1271664 20.6624008,29.1683203 20.3615818,28.3410682 C19.7599439,26.9497804 18.7258942,26.254147 17.2594018,26.254147 C15.8681141,26.254147 14.721259,26.9685813 13.8188021,28.3974714 C13.0291523,29.5631449 12.5215279,31.104819 12.2959137,33.0225399 C12.2207089,33.9249968 12.1831071,34.5454266 12.1831071,34.8838479 C12.1831071,36.0871238 12.3523153,37.1211734 12.6907366,37.986028 C13.2923745,39.2645086 14.2700215,39.9037393 15.6237068,39.9037393 C17.0525969,39.9037393 18.2182529,39.2457077 19.1207098,37.9296247 Z M52.3986413,19.4857542 C52.5114484,18.8089115 52.8874665,18.4704952 53.5267068,18.4704952 L60.6335193,18.4704952 C60.9343383,18.4704952 61.1599491,18.5644998 61.3103586,18.7525116 C61.4607681,18.9405235 61.5171708,19.1849352 61.4795684,19.4857542 L58.1517753,46.6157289 C58.1141729,46.9165478 58.0013675,47.1609596 57.8133556,47.3489714 C57.6253438,47.5369833 57.380932,47.6309878 57.0801131,47.6309878 L49.9733006,47.6309878 C49.6724816,47.6309878 49.4374703,47.5369833 49.2682596,47.3489714 C49.099049,47.1609596 49.0332458,46.9165478 49.0708482,46.6157289 L49.240058,45.2620503 C49.2776604,45.0740384 49.249459,44.961233 49.1554531,44.9236306 C49.0614472,44.8860283 48.9580422,44.942431 48.8452351,45.0928405 C47.1531284,47.0857661 44.9534227,48.082214 42.2460521,48.082214 C39.8771027,48.082214 37.780802,47.2737751 35.957087,45.6568732 C34.1333721,44.0399713 33.0147183,41.953071 32.6010922,39.3961098 C32.4130804,38.192834 32.3190759,37.1211825 32.3190759,36.1811232 C32.3190759,35.4290758 32.3942795,34.3386234 32.544689,32.9097333 C32.8455079,30.3527721 33.5223404,27.9838583 34.5752068,25.8029208 C35.7032779,23.4715739 37.2919543,21.5820831 39.3412835,20.1343918 C41.3906127,18.6867006 43.5809179,17.9628658 45.9122649,17.9628658 C48.7324426,17.9628658 50.7065375,18.8277073 51.8346086,20.5574164 C51.9098133,20.7078259 52.0038179,20.7642286 52.116625,20.7266262 C52.2294321,20.6890238 52.2858348,20.5762184 52.2858348,20.3882066 L52.3986413,19.4857542 Z M49.1836547,37.7040116 C49.9733045,36.425531 50.4809289,34.8838569 50.7065431,33.0789432 C50.7817479,32.1764863 50.8193497,31.5560565 50.8193497,31.2176351 C50.8193497,29.9767569 50.6501415,28.9427072 50.3117202,28.1154551 C49.7100823,26.8369745 48.7324353,26.1977438 47.37875,26.1977438 C45.9498599,26.1977438 44.7842039,26.8557754 43.881747,28.1718583 C43.0920972,29.3375318 42.546871,30.9732104 42.2460521,33.0789432 C42.1708473,33.8309906 42.1332455,34.3574159 42.1332455,34.6582348 C42.1332455,35.8615107 42.3024536,36.8955604 42.640875,37.7604149 C43.1673082,39.1517026 44.1825569,39.847336 45.6866518,39.847336 C47.1155418,39.847336 48.2811978,39.1329017 49.1836547,37.7040116 Z M74.6215312,48.082214 C70.9741013,48.082214 68.1069635,47.3677797 66.020032,45.9388896 C63.9331004,44.5099995 62.8896503,42.6111083 62.8896503,40.2421589 C62.8896503,39.8285328 62.9084512,39.5089175 62.9460535,39.2833033 L63.0024568,39.0012869 C63.0400592,38.7004679 63.1528646,38.4560562 63.3408764,38.2680443 C63.5288883,38.0800325 63.7733,37.986028 64.074119,37.986028 L70.7861086,37.986028 C71.5005536,37.986028 71.820169,38.0988334 71.7449642,38.3244476 L71.688561,38.6628673 C71.6133562,39.3773123 71.9235711,39.9695407 72.619215,40.4395704 C73.3148588,40.9096 74.2455035,41.1446113 75.411177,41.1446113 C76.5016458,41.1446113 77.3758878,40.9472018 78.0339293,40.5523769 C78.6919707,40.157552 79.0209866,39.6405272 79.0209866,39.0012869 C79.0209866,38.4748537 78.7201721,38.0800347 78.1185342,37.8168181 C77.5168962,37.5536016 76.5392493,37.2903889 75.1855639,37.0271723 C72.9670241,36.5759439 71.1809383,36.0307177 69.8272529,35.3914774 C68.2479534,34.6770323 66.9882929,33.8027903 66.0482336,32.7687251 C65.1081743,31.73466 64.6381517,30.3715945 64.6381517,28.6794878 C64.6381517,28.190657 64.6569526,27.8146389 64.694555,27.5514223 C65.0705787,24.6184374 66.4618456,22.2965259 68.8683973,20.585618 C71.274949,18.8747102 74.2830935,18.0192691 77.8929211,18.0192691 C81.3147368,18.0192691 84.0314673,18.7995065 86.0431941,20.3600049 C88.054921,21.9205033 89.0607693,23.9980031 89.0607693,26.5925667 C89.0607693,27.0813975 89.0419684,27.4574155 89.004366,27.7206321 C88.9667636,27.908644 88.8539582,28.0684517 88.6659464,28.20006 C88.4779345,28.3316683 88.2335228,28.3974714 87.9327038,28.3974714 L81.3899241,28.3974714 C80.7506838,28.3974714 80.4310684,28.284666 80.4310684,28.0590518 L80.4874717,27.7206321 C80.5626764,27.0061871 80.3088642,26.4233591 79.7260275,25.9721307 C79.1431907,25.5209022 78.2877496,25.2952914 77.1596785,25.2952914 C76.0692098,25.2952914 75.1761669,25.4927009 74.480523,25.8875257 C73.7848792,26.2823506 73.4370625,26.8181764 73.4370625,27.495019 C73.4370625,28.096657 73.7754787,28.5384782 74.4523214,28.820496 C75.129164,29.1025138 76.2384173,29.3939278 77.7801145,29.6947467 C79.5850283,29.9955657 81.013897,30.3339819 82.0667633,30.7100057 C84.0220866,31.3868483 85.5355593,32.2798912 86.6072269,33.3891612 C87.6788944,34.4984311 88.2147202,35.9555011 88.2147202,37.7604149 C88.2147202,38.2492457 88.1959193,38.6252638 88.1583169,38.8884803 C87.7822932,41.8214653 86.3816259,44.0869741 83.956273,45.6850748 C81.5309201,47.2831756 78.4193706,48.082214 74.6215312,48.082214 Z M102.371942,48.082214 C98.724512,48.082214 95.8573742,47.3677797 93.7704426,45.9388896 C91.6835111,44.5099995 90.640061,42.6111083 90.640061,40.2421589 C90.640061,39.8285328 90.6588619,39.5089175 90.6964642,39.2833033 L90.7528675,39.0012869 C90.7904699,38.7004679 90.9032753,38.4560562 91.0912871,38.2680443 C91.279299,38.0800325 91.5237107,37.986028 91.8245297,37.986028 L98.5365193,37.986028 C99.2509643,37.986028 99.5705797,38.0988334 99.4953749,38.3244476 L99.4389717,38.6628673 C99.3637669,39.3773123 99.6739818,39.9695407 100.369626,40.4395704 C101.06527,40.9096 101.995914,41.1446113 103.161588,41.1446113 C104.252056,41.1446113 105.126298,40.9472018 105.78434,40.5523769 C106.442381,40.157552 106.771397,39.6405272 106.771397,39.0012869 C106.771397,38.4748537 106.470583,38.0800347 105.868945,37.8168181 C105.267307,37.5536016 104.28966,37.2903889 102.935975,37.0271723 C100.717435,36.5759439 98.931349,36.0307177 97.5776636,35.3914774 C95.9983641,34.6770323 94.7387035,33.8027903 93.7986443,32.7687251 C92.858585,31.73466 92.3885624,30.3715945 92.3885624,28.6794878 C92.3885624,28.190657 92.4073633,27.8146389 92.4449657,27.5514223 C92.8209894,24.6184374 94.2122563,22.2965259 96.618808,20.585618 C99.0253597,18.8747102 102.033504,18.0192691 105.643332,18.0192691 C109.065147,18.0192691 111.781878,18.7995065 113.793605,20.3600049 C115.805332,21.9205033 116.81118,23.9980031 116.81118,26.5925667 C116.81118,27.0813975 116.792379,27.4574155 116.754777,27.7206321 C116.717174,27.908644 116.604369,28.0684517 116.416357,28.20006 C116.228345,28.3316683 115.983933,28.3974714 115.683115,28.3974714 L109.140335,28.3974714 C108.501094,28.3974714 108.181479,28.284666 108.181479,28.0590518 L108.237882,27.7206321 C108.313087,27.0061871 108.059275,26.4233591 107.476438,25.9721307 C106.893601,25.5209022 106.03816,25.2952914 104.910089,25.2952914 C103.81962,25.2952914 102.926578,25.4927009 102.230934,25.8875257 C101.53529,26.2823506 101.187473,26.8181764 101.187473,27.495019 C101.187473,28.096657 101.525889,28.5384782 102.202732,28.820496 C102.879575,29.1025138 103.988828,29.3939278 105.530525,29.6947467 C107.335439,29.9955657 108.764308,30.3339819 109.817174,30.7100057 C111.772497,31.3868483 113.28597,32.2798912 114.357638,33.3891612 C115.429305,34.4984311 115.965131,35.9555011 115.965131,37.7604149 C115.965131,38.2492457 115.94633,38.6252638 115.908728,38.8884803 C115.532704,41.8214653 114.132037,44.0869741 111.706684,45.6850748 C109.281331,47.2831756 106.169781,48.082214 102.371942,48.082214 Z" id="pass"></path>
                    </g>
                    <g id="LOGO/logo-w">
                        <rect id="Background" x="0" y="0" width="75.0591829" height="118.178288"></rect>
                        <path d="M38.5333632,84.6514366 C40.2996235,84.6634308 42.0752787,84.7071743 43.8227489,84.7964253 C58.3157126,85.5397132 73.718817,89.7704921 73.718817,96.1482334 C73.718817,101.270111 64.3508265,105.520645 53.5007745,110.442149 C51.3763299,111.406624 49.1191808,112.433892 46.8984374,113.481974 C44.7258434,114.508537 42.9584088,115.378117 41.2555648,116.260396 L38.1364244,117.785424 L34.9374266,116.219122 C33.3156145,115.378117 31.5481799,114.508537 29.3755859,113.481974 C27.1548425,112.433892 24.8976934,111.406624 22.7720744,110.442149 C11.9231968,105.520645 2.55520626,101.270111 2.55520626,96.1482334 C2.55520626,89.7704921 17.9583107,85.5397132 32.4512744,84.7964253 C34.1987446,84.7071743 35.9743998,84.6634308 37.7418344,84.6412062 C37.8733644,84.6412062 38.0048944,84.6457922 38.1364244,84.6464978 C38.2691288,84.6457922 38.4006589,84.6412062 38.5333632,84.6514366 Z M38.2684104,92.5272242 C38.2244161,92.5238326 38.1808112,92.525353 38.136817,92.5255869 C38.0932121,92.525353 38.0496072,92.5238326 38.0060022,92.5238326 C37.4200612,92.5312005 36.8313949,92.5457024 36.2520726,92.575291 C31.4473564,92.8217062 26.3409098,94.2242966 26.3409098,96.3386493 C26.3409098,98.0366573 32.5205935,99.9717516 38.3612147,99.9717516 C44.2018358,99.9717516 49.9331134,98.0366573 49.9331134,96.3386493 C49.9331134,94.2242966 44.8266669,92.8217062 40.0219507,92.575291 C39.4426283,92.5457024 38.853962,92.5312005 38.2684104,92.5272242 Z" id="Combined-Shape" fill-opacity="0.450000018" fill="url(#linearGradient-1)"></path>
                        <path d="M49.9130483,49.6221601 C55.023065,47.3814837 59.1438385,42.4119857 60.5829814,36.2016827 C61.9963298,30.1091129 60.5797874,23.7498434 56.7964852,19.1935913 C53.025959,14.6581002 46.1476632,11.8393883 38.8461614,11.8393883 C37.1756954,11.8393883 35.5243933,11.9879097 33.9369715,12.2785644 C25.1710171,13.8707773 12.2017485,24.2928247 12.2017485,41.6011528 C12.2017485,55.5046687 20.4598556,68.2822968 30.9122461,84.4631403 C31.9471046,86.0617412 32.9931422,87.6858941 34.0391797,89.3212261 C35.393439,91.4324652 36.7508923,93.5740475 38.1131367,95.7715248 L38.1131367,117.679224 L34.8983678,112.318082 C33.1448575,109.213507 31.3210791,106.155244 29.0820796,102.546015 C26.7919761,98.8617273 24.4651414,95.2493045 22.2756491,91.8572683 C11.0918308,74.5537311 1.43315129,59.6089687 1.43315129,41.5979588 C1.43315129,19.1728302 17.310564,4.29833597 32.2521324,1.6840406 C34.3234464,1.32311772 36.4314916,1.13786527 38.5203726,1.13786527 C48.3419466,1.13786527 57.3889736,5.09204691 63.3394101,11.9815217 C68.0154375,17.3985589 70.6016256,21.9188784 70.4348984,30.9219878 C70.2681712,39.9250973 64.1379121,47.1116148 55.8951362,49.5071206 C53.4996303,50.3056226 49.9130483,49.6221601 49.9130483,49.6221601 Z M43.3672795,62.0843247 L42.8338802,62.0795337 C42.7412539,62.0795337 42.6502247,62.0779367 42.5607925,62.0731457 C40.9334455,61.9805195 39.3013075,61.7265959 37.7043037,61.3225539 C30.2351165,59.4157312 23.0933151,51.8539178 23.888623,41.0757386 C24.6088718,31.3164478 31.0240364,24.2353325 39.1400102,24.2353325 C40.2227788,24.2353325 41.3039504,24.3614958 42.353182,24.6106285 C43.4072045,24.8597611 44.4500481,25.23346 45.5248317,25.7604713 C48.5799002,26.9981493 50.0810838,30.5466919 48.8737489,33.6736255 C47.9682477,36.0148332 45.7947254,37.5287929 43.3369364,37.5287929 C42.5911356,37.5287929 41.8533198,37.3850626 41.2272942,37.131139 C40.5485676,36.8021562 39.8666469,36.6392618 39.1400102,36.6392618 C36.616744,36.6392618 34.8855918,38.7233518 34.6172951,42.07706 L34.6125041,42.2175964 C34.6125041,42.8548009 34.6444442,43.5303335 34.7163094,44.3495965 C35.2002016,47.7512148 37.3194257,50.9164765 40.2515249,52.6061067 C43.2363251,54.3308709 46.9397772,55.2794912 50.6783633,55.2778942 C55.7823877,55.2778942 61.4214084,53.5227869 65.73811,49.2587865 C64.6633263,51.101729 63.3777382,52.8664183 61.8573905,54.4746012 C57.0791549,59.5227305 50.8572277,62.0859218 43.3672795,62.0843247 Z" id="Fill-1" fill="#FFFFFF"></path>
                    </g>
                </g>
            </g>
        </g>
    </g>
</svg>