<?xml version="1.0" encoding="UTF-8"?>
<svg width="26px" height="26px" viewBox="0 0 26 26" version="1.1" xmlns="http://www.w3.org/2000/svg" xmlns:xlink="http://www.w3.org/1999/xlink">
    <!-- Generator: sketchtool 49.2 (51160) - http://www.bohemiancoding.com/sketch -->
    <title>7D7DEA17-4B8E-4575-91D1-13CCEC6E2FEA</title>
    <desc>Created with sketchtool.</desc>
    <defs></defs>
    <g id="Écrans" stroke="none" stroke-width="1" fill="none" fill-rule="evenodd">
        <g id="PassCulture-v0rc3-pictosCatégories" transform="translate(-41.000000, -301.000000)">
            <g id="ICONS/picto-cinema" transform="translate(35.000000, 295.000000)">
                <g>
                    <rect id="crop" x="0" y="0" width="40" height="40"></rect>
                    <polygon id="Stroke-1" stroke="#FFFFFF" stroke-width="2" stroke-linecap="round" stroke-linejoin="round" points="9 31 31 31 31 19 9 19"></polygon>
                    <g id="Group" transform="translate(12.000000, 19.000000)" stroke="#FFFFFF" stroke-linecap="round" stroke-linejoin="round" stroke-width="2">
                        <path d="M3,0 L0,3" id="Stroke-7"></path>
                        <path d="M8.16666667,0 L5.16666667,3" id="Stroke-9"></path>
                        <path d="M13.3333333,0 L10.3333333,3" id="Stroke-10"></path>
                        <path d="M18.5,0 L15.5,3" id="Stroke-11"></path>
                    </g>
                    <g id="Group-2" transform="translate(7.000000, 7.600006)" stroke="#FFFFFF" stroke-linecap="round" stroke-linejoin="round" stroke-width="2">
                        <polygon id="Stroke-1-Copy" transform="translate(12.034880, 4.798596) rotate(-15.000000) translate(-12.034880, -4.798596) " points="1.03488011 6.79859612 23.0348801 6.79859612 23.0348801 2.79859612 1.03488011 2.79859612"></polygon>
                        <g id="Group-Copy" transform="translate(12.204523, 4.997666) scale(-1, 1) rotate(-165.000000) translate(-12.204523, -4.997666) translate(2.704523, 3.497666)">
                            <path d="M3,0 L0,3" id="Stroke-7"></path>
                            <path d="M8.16666667,0 L5.16666667,3" id="Stroke-9"></path>
                            <path d="M13.3333333,0 L10.3333333,3" id="Stroke-10"></path>
                            <path d="M18.5,0 L15.5,3" id="Stroke-11"></path>
                        </g>
                    </g>
                </g>
            </g>
        </g>
    </g>
</svg>