<?xml version="1.0" encoding="UTF-8"?>
<svg width="33px" height="23px" viewBox="0 0 33 23" version="1.1" xmlns="http://www.w3.org/2000/svg" xmlns:xlink="http://www.w3.org/1999/xlink">
    <g stroke="none" stroke-width="1" fill="none" fill-rule="evenodd">
        <g transform="translate(-18.000000, -373.000000)">
            <g transform="translate(15.000000, 364.000000)">
                <rect x="0" y="0" width="40" height="40"></rect>
                <path d="M11.5443447,14.2299315 C11.3293464,14.4213091 11.1975031,14.5602796 11.0800286,14.6960601 C10.7283448,15.0477438 10.2891968,15.5077369 9.78409006,16.0702747 C9.02930172,16.9108831 8.30131284,17.7900151 7.643548,18.6781856 C5.91272012,21.0152978 4.93288534,23.0672023 5.00348606,24.469824 C5.03125007,25.0214104 4.60660809,25.4910668 4.05502164,25.5188308 C3.5034352,25.5465948 3.03377886,25.1219528 3.00601485,24.5703664 C2.90507815,22.565061 4.04658371,20.1745965 6.03631311,17.4878932 C6.73464128,16.5449506 7.50179444,15.6185232 8.29595414,14.7340668 C8.82684176,14.1428168 9.29025979,13.6574017 9.59877483,13.3559474 C10.002189,12.8625842 10.7740663,12.1755088 11.93999,11.5034716 C12.8911795,10.955207 13.96993,10.5104423 15.1781418,10.204539 C16.6540129,9.83086781 18.0768048,9.8167696 19.7634585,10.1547243 C21.4661611,10.0810552 23.2523212,10.2681465 25.0943562,10.7797386 C26.6860144,10.7972663 28.9876618,11.1192212 32.6856608,11.7431672 C32.763689,11.7563325 32.8361583,11.7762852 32.9031031,11.8020807 C33.1798508,11.7802406 33.4340705,11.7687342 33.6618033,11.7682088 C34.9110937,11.7653269 35.6638184,11.9804554 35.6638184,13.0693359 C35.6638184,15.4707907 34.4182848,16.4010595 31.2759786,17.4735414 C31.0657665,17.5451778 30.9600194,17.5812539 30.858123,17.6162912 C30.1447304,17.8615928 29.6982911,18.0338179 29.2838467,18.2349912 C27.3642558,19.1667699 24.9925084,20.624298 23.7581867,21.6269429 C21.7604639,23.2497018 21.1975504,23.8613238 21.2456264,24.1933217 C21.4577565,24.2986485 21.826585,24.2751728 22.7667448,24.1192672 C24.4174372,23.8455348 25.3649147,23.8569089 26.5107738,24.419655 C26.912423,24.6169101 27.2939442,24.8782495 27.6901125,25.239878 C29.3173101,26.8670756 29.4372231,28.3047828 28.4545257,29.2874802 C28.0576571,29.6843488 27.5651431,29.7934705 26.9976021,29.7330855 C26.8261592,29.7148444 26.6506986,29.682214 26.4298654,29.6315971 C26.3182897,29.6060229 25.9286983,29.5106946 25.8914584,29.5018215 C25.2148367,29.3406042 24.7451856,29.2806169 24.230627,29.3215731 C22.6428222,29.4475998 20.9804255,29.8508218 19.8877308,30.3421963 C19.8283726,30.3688611 19.4420324,30.5484467 19.3061211,30.6096171 C19.0153689,30.7404776 18.743358,30.8539257 18.4516135,30.9627387 C16.173951,31.8122471 13.4821218,32.0665399 9.95513762,31.4328511 C9.41155681,31.3351867 9.05007019,30.8153547 9.14773466,30.2717739 C9.24539912,29.7281931 9.76523113,29.3667064 10.3088119,29.4643709 C13.479635,30.0340686 15.8081584,29.8140967 17.7526966,29.088835 C17.9995811,28.9967536 18.2320413,28.899801 18.4852766,28.7858259 C18.6061223,28.7314361 18.993325,28.5514497 19.0678288,28.5179813 C20.3780085,27.9288057 22.2638294,27.4713911 24.0721604,27.3278609 C24.83672,27.2670059 25.4924319,27.3507583 26.3550175,27.5562848 C26.4048826,27.5681661 26.782195,27.6604899 26.8766961,27.6821504 C26.9434854,27.6974591 27.0013936,27.7098297 27.0519214,27.71957 C26.9881764,27.4921329 26.7609183,27.1389003 26.3103936,26.68698 C26.0860028,26.4830219 25.8600816,26.3282675 25.6291327,26.2148455 C24.9673693,25.889845 24.3589791,25.8825415 23.0939342,26.0923225 C21.3143949,26.3874214 20.6539173,26.3749871 19.809905,25.6317721 C19.7416076,25.5716312 19.6818391,25.502449 19.6322546,25.4261415 C19.4384631,25.1279081 19.3142598,24.8113401 19.2662716,24.479948 C19.0585368,23.0453944 19.7061797,22.3417116 22.4971844,20.0745662 C23.860161,18.9674144 26.3607409,17.4307139 28.4104893,16.4357562 C28.9153074,16.190715 29.423728,15.994579 30.2077907,15.7249774 C30.3123521,15.6890238 30.4208064,15.6520241 30.629961,15.5807495 C32.4928328,14.9449438 33.2973925,14.508782 33.5596941,13.7694681 C33.0171309,13.7807729 32.2540494,13.8667969 31.3747595,14.0175326 C29.3623443,14.3625189 27.0988603,14.9771567 25.5423504,15.6247763 C25.1642259,15.7821032 24.8095286,15.936596 24.4774548,16.0879897 C23.3669721,16.6665821 22.2183949,17.3581188 21.0322124,18.1628933 C20.0644777,18.8194602 18.9494093,17.5656679 19.7144448,16.6811842 C19.8927084,16.4750877 20.2529073,16.1664657 20.8523963,15.7709713 C21.5565516,15.3064266 22.4633948,14.810716 23.5987535,14.2906773 C24.1486738,14.00533 24.6914728,13.7450569 25.2271995,13.5098871 C25.7327675,13.2879562 26.2473786,13.08351 26.7828966,12.897202 C26.0953461,12.8258929 25.522507,12.7880039 25.044654,12.7829933 C24.5628252,12.7850342 24.1356823,12.8258924 23.6933225,12.9079883 C22.2567027,13.3277237 21.051384,13.8019037 20.0195121,14.3440736 C19.4275549,14.6801397 18.8162689,15.0711198 18.1858647,15.5175771 C17.1230039,16.2703037 15.9659401,14.7151997 16.9923198,13.9134422 C17.6069251,13.4333427 18.297086,12.9916257 19.0626284,12.5876068 C19.3248845,12.4393332 19.5848838,12.3001185 19.8426385,12.1699953 C18.4534808,12.2905866 17.2595714,12.4901385 16.2604361,12.7641922 C16.1287614,12.8038478 15.997981,12.8452174 15.8681166,12.8882494 C15.383821,13.0487261 14.9562776,13.2197702 14.5910619,13.3893137 C14.3801493,13.4872254 14.2422268,13.5595373 14.1828378,13.5940209 C13.6318768,13.9139308 13.1146649,13.6859366 12.8507934,13.2875465 C12.3359068,13.5915157 11.9010068,13.9124538 11.5443447,14.2299315 Z M27.0564351,27.8576463 C27.05112,27.8626334 27.0457417,27.8678371 27.0403121,27.8732666 C27.0515546,27.8620242 27.0588483,27.8549303 27.063485,27.8493577 L27.0564351,27.8576463 Z M27.196373,27.7428717 C27.200733,27.743385 27.2050088,27.7438645 27.209203,27.7443107 C27.2133207,27.7447488 27.2144375,27.7456311 27.2129571,27.7472679 L27.196373,27.7428717 Z" fill="#FFFFFF"></path>
            </g>
        </g>
    </g>
</svg>
