<svg width="18" height="18" viewBox="0 0 18 18" xmlns="http://www.w3.org/2000/svg"><g fill="none"><path d="M0 0h18v18H0z"/><path d="M9 18A9 9 0 119 0a9 9 0 010 18zm3.241-12a3.01 3.01 0 00-1.62.454c-.488.302-.997.78-1.528 1.435-.062.074-.111.08-.148.019C8.5 7.29 8.05 6.818 7.593 6.49 7.136 6.164 6.587 6 5.945 6c-.556 0-1.06.13-1.51.389A2.8 2.8 0 003.38 7.445 2.94 2.94 0 003 8.926c0 .543.13 1.043.389 1.5.26.457.608.815 1.046 1.074.439.26.923.39 1.454.39.617 0 1.16-.17 1.63-.51.469-.34.932-.812 1.389-1.417.05-.05.092-.05.13 0 .469.63.947 1.108 1.435 1.436.487.327 1.058.49 1.713.49.592 0 1.114-.13 1.565-.389a2.79 2.79 0 001.055-1.055c.253-.445.38-.939.38-1.482 0-.555-.127-1.059-.38-1.51A2.796 2.796 0 0013.76 6.39 2.958 2.958 0 0012.241 6zM5.89 10.834a1.72 1.72 0 01-1.287-.547c-.352-.364-.528-.818-.528-1.36 0-.544.173-.992.519-1.344.345-.351.796-.527 1.352-.527.481 0 .886.142 1.213.426.327.284.707.74 1.139 1.37a.23.23 0 010 .13c-.445.617-.84 1.08-1.186 1.389a1.776 1.776 0 01-1.222.463zm6.297 0c-.519 0-.957-.145-1.315-.436-.358-.29-.753-.75-1.185-1.38-.037-.049-.037-.098 0-.147.432-.618.845-1.075 1.24-1.37.396-.297.84-.445 1.334-.445.543 0 .988.179 1.333.537.346.358.519.815.519 1.37 0 .543-.176.991-.528 1.343-.352.352-.818.528-1.398.528z" fill="#06F"/></g></svg>