<?xml version="1.0" encoding="UTF-8"?>
<svg width="26px" height="30px" viewBox="0 0 26 30" version="1.1" xmlns="http://www.w3.org/2000/svg" xmlns:xlink="http://www.w3.org/1999/xlink">
    <!-- Generator: sketchtool 49.2 (51160) - http://www.bohemiancoding.com/sketch -->
    <title>D0850F1C-48F7-424B-BC4B-94A9D7C06B78</title>
    <desc>Created with sketchtool.</desc>
    <defs></defs>
    <g id="Écrans" stroke="none" stroke-width="1" fill="none" fill-rule="evenodd">
        <g id="PassCulture-v0rc3-pictosCatégories" transform="translate(-41.000000, -509.000000)">
            <g id="ICONS/picto-musique" transform="translate(35.000000, 505.000000)">
                <g>
                    <rect id="crop" x="0" y="0" width="40" height="40"></rect>
                    <g id="Group-4" transform="translate(7.000000, 5.000000)" stroke="#FFFFFF" stroke-linecap="round" stroke-linejoin="round" stroke-width="2">
                        <path d="M5.79310345,25.1034483 C5.79310345,26.7032717 4.49673563,28 2.89655172,28 C1.2973977,28 0,26.7032717 0,25.1034483 C0,23.5036248 1.2973977,22.2068966 2.89655172,22.2068966 C4.49673563,22.2068966 5.79310345,23.5036248 5.79310345,25.1034483 Z" id="Stroke-1"></path>
                        <polyline id="Stroke-3" points="5.79310345 25.1034483 5.79310345 4.35679681 23.1724138 0 23.1724138 20.4561983"></polyline>
                        <path d="M23.1724138,21.2413793 C23.1724138,22.8412028 21.876046,24.137931 20.2758621,24.137931 C18.676708,24.137931 17.3793103,22.8412028 17.3793103,21.2413793 C17.3793103,19.6415559 18.676708,18.3448276 20.2758621,18.3448276 C21.876046,18.3448276 23.1724138,19.6415559 23.1724138,21.2413793 Z" id="Stroke-5"></path>
                        <path d="M5.79000092,8.11999512 L23.1724138,3.86206897" id="Stroke-7"></path>
                    </g>
                </g>
            </g>
        </g>
    </g>
</svg>