<svg xmlns="http://www.w3.org/2000/svg" width="64" height="64" viewBox="0 0 64 64"><path fill="#FFF" fill-rule="evenodd" d="M43.636 8.727c9.537 0 17.455 3.96 17.455 9.455 0 1.548-.628 2.973-1.743 4.223 1.127 1.254 1.743 2.67 1.743 4.167 0 1.585-.679 3.045-1.888 4.327.053.043.103.091.149.144 1.126 1.29 1.739 2.744 1.739 4.276 0 1.6-.655 3.076-1.817 4.37l.078.082c1.126 1.29 1.739 2.747 1.739 4.282 0 5.666-8.183 9.765-18.046 9.765-4.328 0-8.424-.798-11.639-2.235a1.467 1.467 0 01-.185-.099 17.375 17.375 0 01-10.858 3.789c-9.639 0-17.454-7.816-17.454-17.456s7.815-17.453 17.454-17.453c2.54 0 4.954.542 7.132 1.518-.845-1.119-1.313-2.364-1.313-3.7 0-5.496 7.918-9.455 17.454-9.455zM20.363 23.273c-8.032 0-14.545 6.511-14.545 14.544 0 8.034 6.513 14.547 14.545 14.547 8.034 0 14.546-6.513 14.546-14.547 0-8.033-6.512-14.544-14.546-14.544zM57.06 41.556l-.214.14c-3.342 2.116-8.348 3.395-13.882 3.395-2.401 0-4.739-.243-6.907-.71l.448.091a17.459 17.459 0 01-2.998 4.832c2.684 1.028 6.014 1.605 9.538 1.605 8.463 0 15.137-3.343 15.137-6.856 0-.786-.335-1.581-1.022-2.37a1.47 1.47 0 01-.1-.127zm-35.6-13.92c1.693 0 3.093.414 4.198 1.242 1.105.827 1.764 1.954 1.978 3.38v.053c0 .158-.098.255-.294.29l-3.128.396h-.054c-.16 0-.267-.096-.32-.29-.107-.581-.37-1.039-.79-1.373-.418-.335-.948-.502-1.59-.502-.73 0-1.32.238-1.765.713-.445.475-.668 1.092-.668 1.849v1.056c0 .088.044.132.133.132h5.321c.107 0 .187.035.24.106.054.07.063.158.028.264l-.401 1.32c-.054.176-.17.264-.348.264h-4.84c-.089 0-.133.044-.133.132v.819c0 .088.044.132.133.132h4.412c.107 0 .187.035.24.106.054.07.063.158.028.264l-.401 1.32c-.054.176-.17.264-.348.264h-3.93c-.09 0-.134.044-.134.132v1.11c0 .757.223 1.369.668 1.835.446.467 1.034.7 1.765.7.642 0 1.176-.18 1.604-.541.428-.361.695-.841.802-1.44.054-.211.179-.3.375-.264l3.075.555c.106.017.182.057.227.119.044.061.058.145.04.25-.232 1.391-.891 2.492-1.979 3.302-1.087.81-2.469 1.214-4.144 1.214-1.23 0-2.313-.242-3.249-.726a5.259 5.259 0 01-2.179-2.06c-.517-.889-.775-1.923-.775-3.103v-.95c0-.089-.045-.133-.134-.133h-1.711a.311.311 0 01-.228-.092.304.304 0 01-.093-.225v-1.32c0-.088.031-.163.093-.224a.311.311 0 01.228-.093h1.711c.09 0 .134-.044.134-.132v-.819c0-.088-.045-.132-.134-.132h-1.711a.311.311 0 01-.228-.092.304.304 0 01-.093-.225V34.9c0-.088.031-.163.093-.225a.311.311 0 01.228-.092h1.711c.09 0 .134-.044.134-.132v-.95c0-1.18.254-2.215.762-3.104a5.09 5.09 0 012.165-2.047c.936-.475 2.028-.713 3.276-.713zM56.98 32.7l-.032.022c-3.581 2.269-9.145 3.642-15.33 3.642-1.337 0-2.656-.065-3.944-.193l.068.006a17.673 17.673 0 01-.353 5.503c1.76.33 3.643.502 5.575.502 8.508 0 15.218-3.348 15.218-6.863 0-.783-.334-1.575-1.022-2.362a1.46 1.46 0 01-.18-.257zm-13.344-5.064c-4.004 0-7.723-.698-10.69-1.914a17.413 17.413 0 014.305 7.664c.216-.094.46-.135.711-.11 1.192.118 2.415.179 3.656.179 9.243 0 16.564-3.388 16.564-6.883 0-.755-.349-1.529-1.074-2.307l.012.014c-3.219 2.092-8.092 3.357-13.484 3.357zm0-16c-8.136 0-14.545 3.205-14.545 6.546 0 3.34 6.41 6.545 14.545 6.545 8.137 0 14.546-3.204 14.546-6.545 0-3.341-6.41-6.546-14.546-6.546z"/></svg>