<?xml version="1.0" encoding="UTF-8"?>
<svg width="96px" height="96px" viewBox="0 0 96 96" version="1.1" xmlns="http://www.w3.org/2000/svg" xmlns:xlink="http://www.w3.org/1999/xlink">
    <!-- Generator: sketchtool 55.2 (78181) - https://sketchapp.com -->
    <title>86A73F2C-CF58-4BB1-87EA-4FAA6C7D4999</title>
    <desc>Created with sketchtool.</desc>
    <g id="Menu-et-rubriques" stroke="none" stroke-width="1" fill="none" fill-rule="evenodd">
        <g id="PassCulture-search-results" transform="translate(0.000000, -378.000000)" fill="#E0E0E0">
            <g id="Group" transform="translate(0.000000, 186.000000)">
                <g id="items-[0v-c]">
                    <g id="BLOCKS/list-item-L-2li-Copy-2" transform="translate(0.000000, 192.000000)">
                        <g id="PICTOS/picto-placeholder-visueloffre">
                            <path d="M0,0 L96,0 L96,96 L0,96 L0,0 Z M25.506667,39.44 L14.986667,45.52 C14.5066646,45.8133348 14.200001,46.2199974 14.066667,46.74 C13.933333,47.2600026 14,47.7599976 14.266667,48.24 L32.346667,79.56 C32.6400018,80.0400024 33.0466644,80.3533326 33.566667,80.5 C34.0866696,80.6466674 34.5866646,80.586668 35.066667,80.32 L48.186667,72.76 L67.586667,67.56 C67.9600022,67.426666 68.2666658,67.2400012 68.506667,67 L71.986667,67 C72.5466698,67 73.0199984,66.8066686 73.406667,66.42 C73.7933356,66.0333314 73.986667,65.5600028 73.986667,65 L73.986667,21 C73.986667,20.4399972 73.7933356,19.9666686 73.406667,19.58 C73.0199984,19.1933314 72.5466698,19 71.986667,19 L39.986667,19 C39.4266642,19 38.9533356,19.1933314 38.566667,19.58 C38.1799984,19.9666686 37.986667,20.4399972 37.986667,21 L37.986667,28.24 L25.466667,31.6 C24.933331,31.733334 24.533335,32.0399976 24.266667,32.52 C24,33 23.933333,33.506664 24.066667,34.04 L25.506667,39.44 Z M52.666667,67.4 L46.906667,68.96 L38.186667,71.28 L28.426667,34.92 L37.986667,32.36 L37.986667,65.4 C37.986667,65.9600028 38.1799984,66.4333314 38.566667,66.82 C38.9533356,67.2066686 39.426667,67.4 39.986667,67.4 L52.666667,67.4 Z M69.986667,63 L41.986667,63 L41.986667,23 L69.986667,23 L69.986667,63 Z M18.706667,47.96 L26.506667,43.48 L34.786667,74.28 C34.920001,74.7866692 35.186665,75.1599988 35.586667,75.4 L34.826667,75.84 L18.706667,47.96 Z"></path>
                        </g>
                    </g>
                </g>
            </g>
        </g>
    </g>
</svg>