<?xml version="1.0" encoding="UTF-8"?>
<svg width="32px" height="30px" viewBox="0 0 32 30" version="1.1" xmlns="http://www.w3.org/2000/svg" xmlns:xlink="http://www.w3.org/1999/xlink">
    <!-- Generator: sketchtool 49.2 (51160) - http://www.bohemiancoding.com/sketch -->
    <title>7D56A4F4-85E4-4A63-86BA-B226DC1A5D4E</title>
    <desc>Created with sketchtool.</desc>
    <defs></defs>
    <g id="Écrans" stroke="none" stroke-width="1" fill="none" fill-rule="evenodd">
        <g id="PassCulture-v0rc3-pictosCatégories" transform="translate(-39.000000, -20.000000)">
            <g id="ICONS/picto-atelier" transform="translate(35.000000, 15.000000)">
                <rect id="crop" x="0" y="0" width="40" height="40"></rect>
                <path d="M5.5923889,26.9197557 C5.39809253,23.0596777 11.2244418,17.1247324 11.9605602,16.3886139 C11.9605602,16.3886139 12.9998227,14.6365877 14.9816893,10.1511942 C15.4502244,9.09311653 16.4603418,6.9791747 17.708416,7.34404179 C18.4503248,7.55838738 18.1965042,9.62289323 17.7128431,10.4954015 L15.2683442,16.1288905 C15.2683442,16.1288905 20.3060189,10.9702083 21.7566331,9.05991326 C23.1596559,7.21344225 23.9052539,6.17049049 24.8253536,7.09059013 C25.4093623,7.67459884 25.0267868,8.75887023 24.5254173,9.60850515 C23.9137392,10.6466609 18.8424923,17.8252089 18.8424923,17.8252089 C18.4278203,18.6191361 18.7340283,18.9843721 19.9256569,18.101165 C19.9256569,18.101165 27.5281001,11.396686 28.3865893,10.74996 C29.1572742,10.1689026 29.9109885,9.69778506 30.7086049,10.4954015 C31.6290735,11.4158701 30.4315421,12.5757711 29.7678455,13.0793542 L22.058414,20.925288 C22.058414,20.925288 24.8688867,19.9136949 28.2851348,18.0048755 C30.8974947,16.5450382 33.1660162,14.847613 34.070621,16.2915865 C35.0519622,17.854354 32.5823764,19.1522331 30.091024,20.7323401 C26.7087171,22.8802231 19.1955538,28.1547478 19.1955538,28.1547478 C20.6103823,29.4006084 25.5115546,26.5964074 27.9748686,28.8354149 C29.5324712,30.3930174 29.0513926,31.1566927 28.7392818,31.4688035 C28.2024955,32.0055898 26.9278587,31.0711021 25.1433671,31.2131383 C23.3585067,31.3548056 21.6027913,31.8089526 20.4698217,32.3184384 C19.3364833,32.8275553 16.6473869,34.3294501 11.1238377,33.3370411" stroke="#FFFFFF" stroke-width="2" stroke-linecap="round" stroke-linejoin="round"></path>
            </g>
        </g>
    </g>
</svg>