<svg width="34" height="27" viewBox="0 0 34 27" xmlns="http://www.w3.org/2000/svg"><g fill="none"><path d="M-5-9h44v44H-5z"/><path d="M-5-9h44v44H-5z"/><path d="M4 27a1 1 0 01-1-1V11a1 1 0 011-1h26a1 1 0 011 1v15a1 1 0 01-1 1H4zm1-2h24V12H5v13z" fill="#404040"/><path d="M20 26.5a1 1 0 01-1-1V16a1 1 0 011-1h6a1 1 0 011 1v9.5a1 1 0 01-1 1h-6zm5-1.5v-8h-4v8h4zM8 22a1 1 0 01-1-1v-5a1 1 0 011-1h8a1 1 0 011 1v5a1 1 0 01-1 1H8zm7-2v-3H9v3h6zM1 12a1 1 0 01-1-1V6a1 1 0 011-1h32a1 1 0 011 1v5a1 1 0 01-1 1H1zm1-2h30V7H2v3z" fill="#404040"/><path d="M4 7a1 1 0 01-1-1V1a1 1 0 011-1h26a1 1 0 011 1v5a1 1 0 01-1 1H4zm1-2h24V2H5v3z" fill="#404040"/></g></svg>