<?xml version="1.0" encoding="UTF-8"?>
<svg width="28px" height="28px" viewBox="0 0 28 28" version="1.1" xmlns="http://www.w3.org/2000/svg" xmlns:xlink="http://www.w3.org/1999/xlink">
    <g stroke="none" stroke-width="1" fill="none" fill-rule="evenodd">
        <g transform="translate(-21.000000, -230.000000)" fill="#FFFFFF">
            <g transform="translate(15.000000, 224.000000)">
                <path d="M12.9721936,7.97219359 L26.9721936,7.97219359 C29.7336173,7.97219359 31.9721936,10.2107698 31.9721936,12.9721936 L31.9721936,26.9721936 C31.9721936,29.7336173 29.7336173,31.9721936 26.9721936,31.9721936 L12.9721936,31.9721936 C10.2107698,31.9721936 7.97219359,29.7336173 7.97219359,26.9721936 L7.97219359,12.9721936 C7.97219359,10.2107698 10.2107698,7.97219359 12.9721936,7.97219359 Z M12.9721936,9.97219359 C11.3153393,9.97219359 9.97219359,11.3153393 9.97219359,12.9721936 L9.97219359,26.9721936 C9.97219359,28.6290478 11.3153393,29.9721936 12.9721936,29.9721936 L26.9721936,29.9721936 C28.6290478,29.9721936 29.9721936,28.6290478 29.9721936,26.9721936 L29.9721936,12.9721936 C29.9721936,11.3153393 28.6290478,9.97219359 26.9721936,9.97219359 L12.9721936,9.97219359 Z M14.6186402,17.3598211 C12.9617859,17.3598211 11.6186402,16.0166754 11.6186402,14.3598211 C11.6186402,12.7029669 12.9617859,11.3598211 14.6186402,11.3598211 C16.2754944,11.3598211 17.6186402,12.7029669 17.6186402,14.3598211 C17.6186402,16.0166754 16.2754944,17.3598211 14.6186402,17.3598211 Z M14.6186402,28.3598211 C12.9617859,28.3598211 11.6186402,27.0166754 11.6186402,25.3598211 C11.6186402,23.7029669 12.9617859,22.3598211 14.6186402,22.3598211 C16.2754944,22.3598211 17.6186402,23.7029669 17.6186402,25.3598211 C17.6186402,27.0166754 16.2754944,28.3598211 14.6186402,28.3598211 Z M19.6186402,22.3598211 C17.9617859,22.3598211 16.6186402,21.0166754 16.6186402,19.3598211 C16.6186402,17.7029669 17.9617859,16.3598211 19.6186402,16.3598211 C21.2754944,16.3598211 22.6186402,17.7029669 22.6186402,19.3598211 C22.6186402,21.0166754 21.2754944,22.3598211 19.6186402,22.3598211 Z M25.6186402,28.3598211 C23.9617859,28.3598211 22.6186402,27.0166754 22.6186402,25.3598211 C22.6186402,23.7029669 23.9617859,22.3598211 25.6186402,22.3598211 C27.2754944,22.3598211 28.6186402,23.7029669 28.6186402,25.3598211 C28.6186402,27.0166754 27.2754944,28.3598211 25.6186402,28.3598211 Z M25.6186402,17.3598211 C23.9617859,17.3598211 22.6186402,16.0166754 22.6186402,14.3598211 C22.6186402,12.7029669 23.9617859,11.3598211 25.6186402,11.3598211 C27.2754944,11.3598211 28.6186402,12.7029669 28.6186402,14.3598211 C28.6186402,16.0166754 27.2754944,17.3598211 25.6186402,17.3598211 Z M14.6186402,15.3598211 C15.1709249,15.3598211 15.6186402,14.9121059 15.6186402,14.3598211 C15.6186402,13.8075364 15.1709249,13.3598211 14.6186402,13.3598211 C14.0663554,13.3598211 13.6186402,13.8075364 13.6186402,14.3598211 C13.6186402,14.9121059 14.0663554,15.3598211 14.6186402,15.3598211 Z M14.6186402,26.3598211 C15.1709249,26.3598211 15.6186402,25.9121059 15.6186402,25.3598211 C15.6186402,24.8075364 15.1709249,24.3598211 14.6186402,24.3598211 C14.0663554,24.3598211 13.6186402,24.8075364 13.6186402,25.3598211 C13.6186402,25.9121059 14.0663554,26.3598211 14.6186402,26.3598211 Z M19.6186402,20.3598211 C20.1709249,20.3598211 20.6186402,19.9121059 20.6186402,19.3598211 C20.6186402,18.8075364 20.1709249,18.3598211 19.6186402,18.3598211 C19.0663554,18.3598211 18.6186402,18.8075364 18.6186402,19.3598211 C18.6186402,19.9121059 19.0663554,20.3598211 19.6186402,20.3598211 Z M25.6186402,26.3598211 C26.1709249,26.3598211 26.6186402,25.9121059 26.6186402,25.3598211 C26.6186402,24.8075364 26.1709249,24.3598211 25.6186402,24.3598211 C25.0663554,24.3598211 24.6186402,24.8075364 24.6186402,25.3598211 C24.6186402,25.9121059 25.0663554,26.3598211 25.6186402,26.3598211 Z M25.6186402,15.3598211 C26.1709249,15.3598211 26.6186402,14.9121059 26.6186402,14.3598211 C26.6186402,13.8075364 26.1709249,13.3598211 25.6186402,13.3598211 C25.0663554,13.3598211 24.6186402,13.8075364 24.6186402,14.3598211 C24.6186402,14.9121059 25.0663554,15.3598211 25.6186402,15.3598211 Z" transform="translate(19.972194, 19.972194) rotate(-15.000000) translate(-19.972194, -19.972194)"></path>
            </g>
        </g>
    </g>
</svg>
