<?xml version="1.0" encoding="UTF-8"?>
<svg width="22px" height="22px" viewBox="0 0 22 22" version="1.1" xmlns="http://www.w3.org/2000/svg" xmlns:xlink="http://www.w3.org/1999/xlink">
    <!-- Generator: sketchtool 55.2 (78181) - https://sketchapp.com -->
    <title>8AC36C54-3654-490F-BDF8-205F8768DF53</title>
    <desc>Created with sketchtool.</desc>
    <g id="Pro" stroke="none" stroke-width="1" fill="none" fill-rule="evenodd">
        <g id="Passculture-Pro-A-signup" transform="translate(-1085.000000, -341.000000)" fill="#0066FF">
            <g id="Stacked-Group-[30v]" transform="translate(743.000000, 36.000000)">
                <g id="Group-[18v]" transform="translate(0.000000, 150.000000)">
                    <g id="Group-3-Copy-2" transform="translate(0.000000, 123.000000)">
                        <g id="PICTOS/picto-info-stroke" transform="translate(342.000000, 32.000000)">
                            <path d="M11,19 C15.418278,19 19,15.418278 19,11 C19,6.581722 15.418278,3 11,3 C6.581722,3 3,6.581722 3,11 C3,15.418278 6.581722,19 11,19 Z M11,20 C6.02943725,20 2,15.9705627 2,11 C2,6.02943725 6.02943725,2 11,2 C15.9705627,2 20,6.02943725 20,11 C20,15.9705627 15.9705627,20 11,20 Z" id="Combined-Shape"></path>
                            <path d="M10.5,15 C10.5,15.2761424 10.2761424,15.5 10,15.5 C9.72385763,15.5 9.5,15.2761424 9.5,15 L9.5,9.5 C9.5,9.22385763 9.72385763,9 10,9 L11.5,9 C11.7761424,9 12,9.22385763 12,9.5 C12,9.77614237 11.7761424,10 11.5,10 L10.5,10 L10.5,15 Z" id="Stroke-3" fill-rule="nonzero" transform="translate(10.750000, 12.250000) scale(-1, 1) translate(-10.750000, -12.250000) "></path>
                            <path d="M12,7.744995 C12,8.02113737 11.7761424,8.244995 11.5,8.244995 C11.2238576,8.244995 11,8.02113737 11,7.744995 L11,6.75 C11,6.47385762 11.2238576,6.25 11.5,6.25 C11.7761424,6.25 12,6.47385762 12,6.75 L12,7.744995 Z" id="Stroke-3-Copy" fill-rule="nonzero" transform="translate(11.500000, 7.247497) scale(-1, 1) translate(-11.500000, -7.247497) "></path>
                        </g>
                    </g>
                </g>
            </g>
        </g>
    </g>
</svg>