<?xml version="1.0" encoding="UTF-8"?>
<svg width="96px" height="96px" viewBox="0 0 96 96" version="1.1" xmlns="http://www.w3.org/2000/svg" xmlns:xlink="http://www.w3.org/1999/xlink">
    <!-- Generator: sketchtool 55.2 (78181) - https://sketchapp.com -->
    <title>86A73F2C-CF58-4BB1-87EA-4FAA6C7D4999</title>
    <desc>Created with sketchtool.</desc>
    <g id="Menu-et-rubriques" stroke="none" stroke-width="1" fill="none" fill-rule="evenodd">
        <g id="PassCulture-search-results" transform="translate(0.000000, -378.000000)" fill="#E0E0E0">
            <g id="Group" transform="translate(0.000000, 186.000000)">
                <g id="items-[0v-c]">
                    <g id="BLOCKS/list-item-L-2li-Copy-2" transform="translate(0.000000, 192.000000)">
                        <g id="PICTOS/picto-placeholder-visueloffre">
                            <path d="M0,0 L96,0 L96,96 L0,96 L0,0 Z M23.52,40.44 L13,46.52 C12.5199976,46.8133348 12.213334,47.2199974 12.08,47.74 C11.946666,48.2600026 12.0133329,48.7599976 12.28,49.24 L30.36,80.56 C30.6533348,81.0400024 31.0599974,81.3533326 31.58,81.5 C32.1000026,81.6466674 32.5999976,81.586668 33.08,81.32 L46.2,73.76 L65.6,68.56 C65.9733352,68.426666 66.2799988,68.2400012 66.52,68 L74,68 C74.5600028,68 75.0333314,67.8066686 75.42,67.42 C75.8066686,67.0333314 76,66.5600028 76,66 L76,18 C76,17.4399972 75.8066686,16.9666686 75.42,16.58 C75.0333314,16.1933314 74.5600028,16 74,16 L38,16 C37.4399972,16 36.9666686,16.1933314 36.58,16.58 C36.1933314,16.9666686 36,17.4399972 36,18 L36,29.24 L23.48,32.6 C22.946664,32.733334 22.546668,33.0399976 22.28,33.52 C22.0133329,34 21.946666,34.506664 22.08,35.04 L23.52,40.44 Z M50.68,68.4 L44.92,69.96 L36.2,72.28 L26.44,35.92 L36,33.36 L36,66.4 C36,66.9600028 36.1933314,67.4333314 36.58,67.82 C36.9666686,68.2066686 37.44,68.4 38,68.4 L50.68,68.4 Z M72,64 L40,64 L40,20 L72,20 L72,64 Z M16.72,48.96 L24.52,44.48 L32.8,75.28 C32.933334,75.7866692 33.199998,76.1599988 33.6,76.4 L32.84,76.84 L16.72,48.96 Z"></path>
                        </g>
                    </g>
                </g>
            </g>
        </g>
    </g>
</svg>