<?xml version="1.0" encoding="UTF-8"?>
<svg width="34px" height="27px" viewBox="0 0 34 27" version="1.1" xmlns="http://www.w3.org/2000/svg" xmlns:xlink="http://www.w3.org/1999/xlink">
    <!-- Generator: sketchtool 50.2 (55047) - http://www.bohemiancoding.com/sketch -->
    <title>F3194A12-B8E2-4426-81D8-E191A3BAD7F7</title>
    <desc>Created with sketchtool.</desc>
    <defs></defs>
    <g id="Portail-pro" stroke="none" stroke-width="1" fill="none" fill-rule="evenodd">
        <g id="Passculture-Pro-structure" transform="translate(-358.000000, -510.000000)">
            <g id="Stacked-Group" transform="translate(353.000000, 120.000000)">
                <g id="Group-5" transform="translate(0.000000, 122.000000)">
                    <g id="Stacked-Group-2" transform="translate(0.000000, 158.000000)">
                        <g id="Stacked-Group">
                            <g id="BLOCKS/list-lieux" transform="translate(0.000000, 101.000000)">
                                <g id="Stacked-Group">
                                    <g>
                                        <g id="Group-4">
                                            <g id="PICTOS/picto-structure">
                                                <rect id="Background" x="0" y="0" width="44" height="44"></rect>
                                                <g id="Group">
                                                    <rect id="crop" x="0" y="0" width="44" height="44"></rect>
                                                    <path d="M9,36 C8.44771525,36 8,35.5522847 8,35 L8,20 C8,19.4477153 8.44771525,19 9,19 L35,19 C35.5522847,19 36,19.4477153 36,20 L36,35 C36,35.5522847 35.5522847,36 35,36 L9,36 Z M10,34 L34,34 L34,21 L10,21 L10,34 Z" id="Stroke-3" fill="#404040" fill-rule="nonzero"></path>
                                                    <path d="M25,35.5 C24.4477153,35.5 24,35.0522847 24,34.5 L24,25 C24,24.4477153 24.4477153,24 25,24 L31,24 C31.5522847,24 32,24.4477153 32,25 L32,34.5 C32,35.0522847 31.5522847,35.5 31,35.5 L25,35.5 Z M30,34 L30,26 L26,26 L26,34 L30,34 Z" id="Stroke-9-Copy" fill="#404040" fill-rule="nonzero"></path>
                                                    <path d="M13,31 C12.4477153,31 12,30.5522847 12,30 L12,25 C12,24.4477153 12.4477153,24 13,24 L21,24 C21.5522847,24 22,24.4477153 22,25 L22,30 C22,30.5522847 21.5522847,31 21,31 L13,31 Z M20,29 L20,26 L14,26 L14,29 L20,29 Z" id="Stroke-9-Copy-2" fill="#404040" fill-rule="nonzero"></path>
                                                    <path d="M6,21 C5.44771525,21 5,20.5522847 5,20 L5,15 C5,14.4477153 5.44771525,14 6,14 L38,14 C38.5522847,14 39,14.4477153 39,15 L39,20 C39,20.5522847 38.5522847,21 38,21 L6,21 Z M7,19 L37,19 L37,16 L7,16 L7,19 Z" id="Stroke-11" fill="#404040" fill-rule="nonzero"></path>
                                                    <path d="M9,16 C8.44771525,16 8,15.5522847 8,15 L8,10 C8,9.44771525 8.44771525,9 9,9 L35,9 C35.5522847,9 36,9.44771525 36,10 L36,15 C36,15.5522847 35.5522847,16 35,16 L9,16 Z M10,14 L34,14 L34,11 L10,11 L10,14 Z" id="Stroke-12" fill="#404040" fill-rule="nonzero"></path>
                                                </g>
                                            </g>
                                        </g>
                                    </g>
                                </g>
                            </g>
                        </g>
                    </g>
                </g>
            </g>
        </g>
    </g>
</svg>