<svg width="32" height="30" viewBox="0 0 32 30" xmlns="http://www.w3.org/2000/svg"><g fill="none"><path d="M-4-5h40v40H-4z"/><path d="M1.592 21.92c-.194-3.86 5.632-9.795 6.369-10.531 0 0 1.039-1.752 3.02-6.238.47-1.058 1.48-3.172 2.727-2.807.742.214.489 2.279.005 3.151l-2.445 5.634s5.038-5.159 6.489-7.07c1.403-1.846 2.148-2.889 3.068-1.968.584.584.202 1.668-.3 2.518-.611 1.038-5.683 8.216-5.683 8.216-.414.794-.108 1.16 1.084.276 0 0 7.602-6.704 8.46-7.351.771-.581 1.525-1.052 2.323-.255.92.92-.277 2.08-.941 2.584l-7.71 7.846s2.81-1.011 6.227-2.92c2.612-1.46 4.881-3.157 5.786-1.713.981 1.562-1.489 2.86-3.98 4.44-3.382 2.148-10.895 7.423-10.895 7.423 1.414 1.246 6.316-1.559 8.779.68 1.557 1.558 1.076 2.322.764 2.634-.537.537-1.811-.398-3.596-.256-1.784.142-3.54.596-4.673 1.105-1.134.51-3.823 2.011-9.346 1.019" stroke="#FFF" stroke-width="2" stroke-linecap="round" stroke-linejoin="round"/></g></svg>