<?xml version="1.0" encoding="UTF-8"?>
<svg width="21px" height="15px" viewBox="0 0 21 15" version="1.1" xmlns="http://www.w3.org/2000/svg" xmlns:xlink="http://www.w3.org/1999/xlink">
    <!-- Generator: sketchtool 50.2 (55047) - http://www.bohemiancoding.com/sketch -->
    <title>5DACFD1A-866E-4227-9190-D009CE0F7C42</title>
    <desc>Created with sketchtool.</desc>
    <defs></defs>
    <g id="Portail-pro" stroke="none" stroke-width="1" fill="none" fill-rule="evenodd">
        <g id="Passculture-Pro-offres" transform="translate(-748.000000, -405.000000)">
            <g id="Stacked-Group" transform="translate(348.000000, 120.000000)">
                <g id="LIST" transform="translate(0.000000, 213.000000)">
                    <g id="Liste" transform="translate(0.000000, 43.000000)">
                        <g id="BLOCKS/list-item-1l-img-Copy-6">
                            <g id="Group-4" transform="translate(77.000000, 0.000000)">
                                <g id="Stacked-Group" transform="translate(2.000000, 24.000000)">
                                    <g id="Group" transform="translate(319.000000, 0.000000)">
                                        <g id="PICTOS/picto-group">
                                            <rect id="Background" x="0" y="0" width="24" height="24"></rect>
                                            <g id="ICONS/ico-user-w">
                                                <rect id="crop" x="0" y="0" width="24" height="24"></rect>
                                                <g id="user" transform="translate(2.181818, 5.454545)" fill="#404040" fill-rule="nonzero">
                                                    <path d="M5.25381418,8.84384915 C4.65168693,8.2069625 4.19490804,7.43496511 4.07248684,6.86427368 C3.77496743,6.59371869 3.60818169,5.93639369 3.41483879,4.77118034 L3.40909091,4.70142562 C3.40909091,4.37333996 3.6012787,4.14590004 3.87435443,4.00872842 C3.9598947,1.53658248 5.12363685,0.213068182 7.29274277,0.213068182 C9.44414087,0.213068182 10.6056864,1.5150845 10.7057296,3.94796222 C10.8504298,3.998961 10.9662041,4.08414485 11.0518755,4.21181303 C11.1691948,4.38664304 11.1815795,4.50511568 11.1748843,4.79719243 C11.1738861,4.84149171 11.1735977,4.85869085 11.1735977,4.88119835 L11.170206,4.93485608 C11.0353417,5.99739051 10.8960714,6.61358368 10.6071782,6.87024093 C10.4814697,7.47981431 9.99555419,8.30763176 9.35756194,8.9608099 C9.3879684,8.99746217 9.41270147,9.03987455 9.42992547,9.08719114 L9.79919535,10.1016242 L10.7850686,10.1016242 C12.7085902,10.1016242 14.0866675,11.0283039 14.0866675,12.6427824 L14.0866675,13.2102273 C14.0866675,13.4455759 13.8958797,13.6363636 13.6605311,13.6363636 C13.4251825,13.6363636 13.2343947,13.4455759 13.2343947,13.2102273 L13.2343947,12.6427824 C13.2343947,11.5870269 12.292859,10.9538969 10.7850686,10.9538969 L9.50082429,10.9538969 C9.32168356,10.9538969 9.16166952,10.8418587 9.10039298,10.673524 L8.68588082,9.53480439 C8.26346938,9.82746042 7.81192237,10.0142045 7.37406072,10.0142045 C6.86143328,10.0142045 6.32224049,9.75623284 5.8304436,9.37193265 C5.82610423,9.38446385 5.82114402,9.39690513 5.81554919,9.40921976 L5.22728797,10.7040258 C5.15815499,10.8561926 5.00645028,10.9538969 4.83931533,10.9538969 L3.53688527,10.9538969 C2.04582555,10.9538969 1.22267598,11.5509377 1.22267598,12.6427824 L1.22267598,13.2102273 C1.22267598,13.4455759 1.03188823,13.6363636 0.796539615,13.6363636 C0.561191,13.6363636 0.370403251,13.4455759 0.370403251,13.2102273 L0.370403251,12.6427824 C0.370403251,11.0103731 1.62330965,10.1016242 3.53688527,10.1016242 L4.56486509,10.1016242 L5.0396039,9.05668933 C5.08440869,8.95807071 5.16210434,8.88476308 5.25381418,8.84384915 Z M10.2866458,4.73915289 C10.0510253,4.73915289 9.86012514,4.5479407 9.86050996,4.31232055 C9.86415289,2.08181177 9.03579934,1.06534091 7.29274277,1.06534091 C5.54953695,1.06534091 4.72023417,2.08202681 4.72217908,4.31264497 C4.7223615,4.52186656 4.57063035,4.70027307 4.36409366,4.7336842 C4.34866157,4.73618063 4.31258585,4.74582309 4.27744247,4.76082455 C4.37092439,5.30375836 4.4637567,5.71172674 4.55336426,5.97937736 C4.58589881,6.07655547 4.61644429,6.15010401 4.64155104,6.19729458 C4.78937186,6.26417224 4.8922202,6.41294726 4.8922202,6.5857438 C4.8922202,6.7366321 5.23951667,7.44658163 5.66200909,8.00118601 C6.21777951,8.73074398 6.82761446,9.16193182 7.37406072,9.16193182 C7.91751921,9.16193182 8.51133294,8.73407417 9.04739157,8.00662224 C9.45467614,7.45392159 9.7867789,6.74408726 9.7867789,6.5857438 C9.7867789,6.41320985 9.88931489,6.26462446 10.0367745,6.19760004 C10.0548404,6.15988889 10.076446,6.10413254 10.0990373,6.03209406 C10.1778286,5.78084656 10.2531076,5.38545741 10.321454,4.85309944 C10.3216493,4.83256855 10.3220797,4.81067259 10.3228354,4.77766116 C10.3231597,4.76351152 10.3233846,4.75088589 10.3235959,4.73973348 C10.3122414,4.73935942 10.2999259,4.73915289 10.2866458,4.73915289 Z" id="Combined-Shape"></path>
                                                    <g id="Group" transform="translate(14.965909, 7.125000) scale(-1, 1) translate(-14.965909, -7.125000) translate(9.784091, 0.306818)">
                                                        <path d="M9.44395663,0.119318182 C9.67930524,0.119318182 9.87009299,0.31010593 9.87009299,0.545454545 C9.87009299,0.78080316 9.67930524,0.971590909 9.44395663,0.971590909 C7.75789182,0.971590909 6.95712902,1.95328813 6.95901292,4.11392893 C6.95919535,4.32315052 6.80746419,4.50155703 6.6009275,4.53496816 C6.58811724,4.53704046 6.55864072,4.54480754 6.52846263,4.55685219 C6.61861676,5.0789177 6.70810244,5.4714471 6.79439152,5.72918568 C6.82500966,5.82063962 6.85372934,5.89022146 6.87733881,5.935391 C7.0231127,6.00308758 7.12419573,6.15078554 7.12419573,6.32209271 C7.12419573,6.4652933 7.4605679,7.15291119 7.8695005,7.68971564 C8.40731878,8.3957079 8.9967937,8.81250004 9.52295121,8.81250004 C9.75829982,8.81250004 9.94908757,9.00328779 9.94908757,9.2386364 C9.94908757,9.47398502 9.75829982,9.66477277 9.52295121,9.66477277 C8.13540001,9.66477277 6.55197905,7.73347455 6.30502565,6.60062512 C6.01464323,6.33473954 5.85290216,5.69476224 5.66483879,4.5613669 L5.65909091,4.49161218 C5.65909091,4.16982518 5.84603982,3.94622712 6.11187155,3.81081093 C6.19670471,1.40803704 7.33179714,0.119318182 9.44395663,0.119318182 Z" id="Stroke-1"></path>
                                                        <path d="M6.46100208,0.119318182 C6.6963507,0.119318182 6.88713845,0.31010593 6.88713845,0.545454545 C6.88713845,0.78080316 6.6963507,0.971590909 6.46100208,0.971590909 C4.77493727,0.971590909 3.97417448,1.95328813 3.97605838,4.11392893 C3.9762408,4.32315052 3.82450964,4.50155703 3.61797296,4.53496816 C3.60516269,4.53704046 3.57568618,4.54480754 3.54550809,4.55685219 C3.63566222,5.0789177 3.7251479,5.4714471 3.81143698,5.72918568 C3.84205511,5.82063962 3.8707748,5.89022146 3.89438427,5.935391 C4.04015815,6.00308758 4.14124119,6.15078554 4.14124119,6.32209271 C4.14124119,6.4652933 4.47761336,7.15291119 4.88654596,7.68971564 C5.42436424,8.3957079 6.01383915,8.81250004 6.53999666,8.81250004 C6.77534528,8.81250004 6.96613303,9.00328779 6.96613303,9.2386364 C6.96613303,9.47398502 6.77534528,9.66477277 6.53999666,9.66477277 C5.15244546,9.66477277 3.5690245,7.73347455 3.3220711,6.60062512 C3.03168869,6.33473954 2.86994761,5.69476224 2.68188424,4.5613669 L2.67613636,4.49161218 C2.67613636,4.16982518 2.86308528,3.94622712 3.128917,3.81081093 C3.21375017,1.40803704 4.34884259,0.119318182 6.46100208,0.119318182 Z" id="Stroke-1-Copy"></path>
                                                        <path d="M3.95454545,12.8422745 C3.95454545,13.0776231 3.76375771,13.2684109 3.52840909,13.2684109 C3.29306048,13.2684109 3.10227273,13.0776231 3.10227273,12.8422745 C3.10227273,11.0567759 4.52824805,9.92045455 6.46558639,9.92045455 L7.34673958,9.92045455 C7.5820882,9.92045455 7.77287595,10.1112423 7.77287595,10.3465909 C7.77287595,10.5819395 7.5820882,10.7727273 7.34673958,10.7727273 L6.46558639,10.7727273 C4.9618529,10.7727273 3.95454545,11.5754235 3.95454545,12.8422745 Z" id="Stroke-7"></path>
                                                        <path d="M0.971590909,12.8422745 C0.971590909,13.0776231 0.78080316,13.2684109 0.545454545,13.2684109 C0.31010593,13.2684109 0.119318182,13.0776231 0.119318182,12.8422745 C0.119318182,11.0567759 1.5452935,9.92045455 3.48263185,9.92045455 L4.36378504,9.92045455 C4.59913365,9.92045455 4.7899214,10.1112423 4.7899214,10.3465909 C4.7899214,10.5819395 4.59913365,10.7727273 4.36378504,10.7727273 L3.48263185,10.7727273 C1.97889836,10.7727273 0.971590909,11.5754235 0.971590909,12.8422745 Z" id="Stroke-7-Copy"></path>
                                                    </g>
                                                </g>
                                            </g>
                                        </g>
                                    </g>
                                </g>
                            </g>
                        </g>
                    </g>
                </g>
            </g>
        </g>
    </g>
</svg>