<svg width="24" height="28" viewBox="0 0 24 28" xmlns="http://www.w3.org/2000/svg"><g fill="none"><path d="M-10-8h44v44h-44z"/><path d="M2 13h20M18.6 1H4.972L1 6h22z" stroke="#404040" stroke-width="2" stroke-linecap="round" stroke-linejoin="round"/><path d="M23 6v18.609C23 26.253 22.327 27 20.642 27H2.93C1.247 27 1 26.253 1 24.609V6h22z" stroke="#404040" stroke-width="2" stroke-linecap="round" stroke-linejoin="round"/><path d="M4 7h18v18H4z"/><path d="M6 24a1 1 0 11-1.998.002A1 1 0 016 24zm-4-4h20m-9 4h6M6 10a1 1 0 11-1.998.002A1 1 0 016 10zm7 0h6M6 17a1 1 0 11-1.998.002A1 1 0 016 17zm7 0h6" stroke="#404040" stroke-width="2" stroke-linecap="round" stroke-linejoin="round"/></g></svg>