<svg width="39" height="30" viewBox="0 0 39 30" xmlns="http://www.w3.org/2000/svg" xmlns:xlink="http://www.w3.org/1999/xlink"><defs><path d="M0 .113h39.635V29.94H0V.113zm20.054 14.04l-4.092 4.389 10.15 9.466 4.093-4.388-10.151-9.466zm-9.022-1.56L5.51 14.939l5.763 13.576 5.523-2.345-5.763-13.575z" id="a"/></defs><g fill="none"><path d="M.023-7.13h40v40h-40z"/><g transform="matrix(-1 0 0 1 39.505 .756)"><mask id="b" fill="#fff"><use xlink:href="#a"/></mask><path d="M12.983 8.637l6.694 16.08m13.945 0L15.214 7.529" stroke="#FFF" stroke-width="2" stroke-linecap="round" stroke-linejoin="round" mask="url(#b)" transform="matrix(-1 0 0 1 46.605 0)"/><path d="M33.648.209h.874a2.952 2.952 0 012.953 2.952h0a2.952 2.952 0 01-2.953 2.953h-.874V.209z" stroke="#FFF" stroke-width="2" stroke-linecap="round" mask="url(#b)" transform="rotate(-60 35.561 3.161)"/></g><g stroke="#FFF" stroke-linecap="round" stroke-width="2"><path d="M33.422 9.393l-6.806 16.08c0 1.226-3.174 3.088-7.089 3.088-3.915 0-7.088-1.862-7.088-3.087l18.714-17.19" stroke-linejoin="round"/><path d="M32 4.199l.55-.952a2.775 2.775 0 013.79-1.015h0a2.775 2.775 0 011.016 3.79l-.55.952L32 4.2z"/></g></g></svg>