<?xml version="1.0" encoding="UTF-8"?>
<svg width="22px" height="22px" viewBox="0 0 22 22" version="1.1" xmlns="http://www.w3.org/2000/svg" xmlns:xlink="http://www.w3.org/1999/xlink">
    <g id="Portail-pro" stroke="none" stroke-width="1" fill="none" fill-rule="evenodd">
        <g id="Passculture-Pro-A-signup-demandeConfirmation" transform="translate(-739.000000, -467.000000)" fill="#C7C7CC">
            <g id="Group-5" transform="translate(231.000000, 200.000000)">
                <g id="form-[36v]" transform="translate(506.000000, 23.000000)">
                    <g id="Group" transform="translate(2.000000, 242.000000)">
                        <path d="M11,23.3636364 C9.55817461,23.3636364 8.17940052,23.0839422 6.86363636,22.5245455 C5.58726635,21.9887852 4.45864127,21.2304595 3.47772727,20.2495455 C2.49681328,19.2686315 1.73848753,18.1400064 1.20272727,16.8636364 C0.643330536,15.5478722 0.363636364,14.1690981 0.363636364,12.7272727 C0.363636364,11.2854473 0.643330536,9.90667325 1.20272727,8.59090909 C1.73848753,7.31453907 2.49681328,6.185914 3.47772727,5.205 C4.45864127,4.224086 5.58726635,3.46576025 6.86363636,2.93 C8.17940052,2.37060326 9.55817461,2.09090909 11,2.09090909 C12.4418254,2.09090909 13.8205995,2.37060326 15.1363636,2.93 C16.4127337,3.46576025 17.5413587,4.224086 18.5222727,5.205 C19.5031867,6.185914 20.2615125,7.31453907 20.7972727,8.59090909 C21.3566695,9.90667325 21.6363636,11.2854473 21.6363636,12.7272727 C21.6363636,14.1690981 21.3566695,15.5478722 20.7972727,16.8636364 C20.2615125,18.1400064 19.5031867,19.2686315 18.5222727,20.2495455 C17.5413587,21.2304595 16.4127337,21.9887852 15.1363636,22.5245455 C13.8205995,23.0839422 12.4418254,23.3636364 11,23.3636364 Z M11,17.4545455 C11,17.6200008 11.0571206,17.7598479 11.1713636,17.8740909 C11.2856066,17.9883339 11.4254537,18.0454545 11.5909091,18.0454545 C11.7563645,18.0454545 11.8962115,17.9883339 12.0104545,17.8740909 C12.1246975,17.7598479 12.1818182,17.6200008 12.1818182,17.4545455 L12.1818182,10.9545455 C12.1818182,10.7890901 12.1246975,10.649243 12.0104545,10.535 C11.8962115,10.420757 11.7563645,10.3636364 11.5909091,10.3636364 L9.81818182,10.3636364 C9.65272645,10.3636364 9.51287936,10.420757 9.39863636,10.535 C9.28439337,10.649243 9.22727273,10.7890901 9.22727273,10.9545455 C9.22727273,11.1200008 9.28439337,11.2598479 9.39863636,11.3740909 C9.51287936,11.4883339 9.65272645,11.5454545 9.81818182,11.5454545 L11,11.5454545 L11,17.4545455 Z M11,8.72090909 C11,8.88636446 11.0571206,9.02621155 11.1713636,9.14045455 C11.2856066,9.25469754 11.4254537,9.31181818 11.5909091,9.31181818 C11.7563645,9.31181818 11.8962115,9.25469754 12.0104545,9.14045455 C12.1246975,9.02621155 12.1818182,8.88636446 12.1818182,8.72090909 L12.1818182,8 C12.1818182,7.83454463 12.1246975,7.69469754 12.0104545,7.58045455 C11.8962115,7.46621155 11.7563645,7.40909091 11.5909091,7.40909091 C11.4254537,7.40909091 11.2856066,7.46621155 11.1713636,7.58045455 C11.0571206,7.69469754 11,7.83454463 11,8 L11,8.72090909 Z" id="picto-info-grey"></path>
                    </g>
                </g>
            </g>
        </g>
    </g>
</svg>
