<?xml version="1.0" encoding="UTF-8"?>
<svg width="24px" height="28px" viewBox="0 0 24 28" version="1.1" xmlns="http://www.w3.org/2000/svg" xmlns:xlink="http://www.w3.org/1999/xlink">
    <!-- Generator: sketchtool 50.2 (55047) - http://www.bohemiancoding.com/sketch -->
    <title>C1936C43-1AEC-408E-991B-F13B0D4F56E5</title>
    <desc>Created with sketchtool.</desc>
    <defs></defs>
    <g id="Portail-pro" stroke="none" stroke-width="1" fill="none" fill-rule="evenodd">
        <g id="Passculture-Pro-structure" transform="translate(-363.000000, -680.000000)">
            <g id="Stacked-Group" transform="translate(353.000000, 120.000000)">
                <g id="Group-5" transform="translate(0.000000, 122.000000)">
                    <g id="Stacked-Group-2" transform="translate(0.000000, 158.000000)">
                        <g id="Stacked-Group" transform="translate(0.000000, 240.000000)">
                            <g id="BLOCKS/list-sources" transform="translate(0.000000, 32.000000)">
                                <g id="Stacked-Group">
                                    <g id="PICTOS/picto-db-default">
                                        <rect id="Background" x="0" y="0" width="44" height="44"></rect>
                                        <g id="Group" transform="translate(11.000000, 9.000000)">
                                            <path d="M1,12 L21,12" id="Stroke-9" stroke="#404040" stroke-width="2" stroke-linecap="round" stroke-linejoin="round"></path>
                                            <polygon id="Stroke-19" stroke="#404040" stroke-width="2" stroke-linecap="round" stroke-linejoin="round" points="17.5993581 0 3.9733634 0 0 5 22 5"></polygon>
                                            <path d="M22,5 L22,23.6086957 C22,25.2531159 21.3268117,26 19.6417984,26 L1.93092308,26 C0.24672679,26 0,25.2531159 0,23.6086957 L0,5 L22,5 Z" id="Stroke-1" stroke="#404040" stroke-width="2" stroke-linecap="round" stroke-linejoin="round"></path>
                                            <rect id="crop" x="3" y="6" width="18" height="18"></rect>
                                            <path d="M5,23 C5,23.5528 4.5532,24 4,24 C3.4484,24 3,23.5528 3,23 C3,22.4476 3.4484,22 4,22 C4.5532,22 5,22.4476 5,23 Z" id="Stroke-3" stroke="#404040" stroke-width="2" stroke-linecap="round" stroke-linejoin="round"></path>
                                            <path d="M1,19 L21,19" id="Stroke-7" stroke="#404040" stroke-width="2" stroke-linecap="round" stroke-linejoin="round"></path>
                                            <path d="M12,23 L18,23" id="Stroke-11" stroke="#404040" stroke-width="2" stroke-linecap="round" stroke-linejoin="round"></path>
                                            <path d="M5,9 C5,9.5528 4.5532,10 4,10 C3.4484,10 3,9.5528 3,9 C3,8.4476 3.4484,8 4,8 C4.5532,8 5,8.4476 5,9 Z" id="Stroke-15" stroke="#404040" stroke-width="2" stroke-linecap="round" stroke-linejoin="round"></path>
                                            <path d="M12,9 L18,9" id="Stroke-17" stroke="#404040" stroke-width="2" stroke-linecap="round" stroke-linejoin="round"></path>
                                            <path d="M5,16 C5,16.5528 4.5532,17 4,17 C3.4484,17 3,16.5528 3,16 C3,15.4476 3.4484,15 4,15 C4.5532,15 5,15.4476 5,16 Z" id="Stroke-5" stroke="#404040" stroke-width="2" stroke-linecap="round" stroke-linejoin="round"></path>
                                            <path d="M12,16 L18,16" id="Stroke-13" stroke="#404040" stroke-width="2" stroke-linecap="round" stroke-linejoin="round"></path>
                                        </g>
                                    </g>
                                </g>
                            </g>
                        </g>
                    </g>
                </g>
            </g>
        </g>
    </g>
</svg>