<?xml version="1.0" encoding="UTF-8"?>
<svg width="39px" height="30px" viewBox="0 0 39 30" version="1.1" xmlns="http://www.w3.org/2000/svg" xmlns:xlink="http://www.w3.org/1999/xlink">
    <!-- Generator: sketchtool 55.2 (78181) - https://sketchapp.com -->
    <title>407192CE-E5BD-4444-A71A-2C63A1BC8368</title>
    <desc>Created with sketchtool.</desc>
    <g id="Menu-et-rubriques" stroke="none" stroke-width="1" fill="none" fill-rule="evenodd">
        <g id="PassCulture-v0rc3-pictosCatégories" transform="translate(-15.000000, -93.000000)" fill="#FFFFFF">
            <g id="PICTOS/picto-spectacle" transform="translate(14.000000, 87.000000)">
                <path d="M24.817438,30.3164825 L21.9915306,27.6775734 L23.4577383,26.3103127 L25.6492653,28.3568202 L24.817438,30.3164825 Z M13.1115945,27.754283 L11.5510104,29.2095513 L5.95978289,15.77749 C5.74754244,15.2676151 5.98882286,14.6822249 6.49869778,14.4699845 C7.0085727,14.257744 7.59396287,14.4990245 7.80620332,15.0088994 L13.1115945,27.754283 Z M17.5957855,23.5727073 L8.43172559,15.0150592 C8.02807436,14.6381187 8.00642102,14.0053241 8.38336151,13.6016729 C8.76030199,13.1980216 9.3930966,13.1763683 9.79674783,13.5533088 L19.0619932,22.2054465 L17.5957855,23.5727073 Z M8.88599553,8.84084635 L9.82318368,10.4641038 L2.97737717,14.4165321 L2.04018902,12.7932746 C0.948756099,10.9028573 1.59646089,8.48559012 3.48687816,7.39415721 C5.37729543,6.30272429 7.79456261,6.95042908 8.88599553,8.84084635 Z M3.71287169,11.682493 L7.08768916,9.73404126 C6.52173063,8.88328643 5.38416333,8.60816018 4.48687816,9.12620801 C3.58959298,9.64425585 3.25907566,10.7669812 3.71287169,11.682493 Z M35.342219,15.7829289 L28.5986486,31.717736 C28.308536,33.7610866 24.4274689,35.5614367 20.5271517,35.5614367 C16.4723255,35.5614367 12.4383048,33.6156215 12.4383048,31.47385 C12.4383048,31.1938936 12.5556586,30.9267565 12.7618394,30.7373756 L31.4763952,13.5477096 C31.8831388,13.1741081 32.5157335,13.200975 32.889335,13.6077186 C33.2629365,14.0144622 33.2360696,14.6470569 32.829326,15.0206584 L14.5939196,31.7702169 C15.2467458,32.4768071 17.8546247,33.5614367 20.5271517,33.5614367 C23.6147185,33.5614367 26.6159986,32.1137653 26.6159986,31.47385 C26.6159986,31.339955 26.6428877,31.2074235 26.6950712,31.0841159 L33.5003642,15.0034605 C33.7156084,14.4948464 34.3024116,14.2570231 34.8110258,14.4722673 C35.3196399,14.6875115 35.5574632,15.2743147 35.342219,15.7829289 Z M32.6833361,8.7473554 C33.7258274,6.94170749 36.0347004,6.32304683 37.8403483,7.36553813 C39.6459962,8.40802944 40.2646569,10.7169025 39.2221656,12.5225504 L38.1728041,14.3400978 L31.6339746,10.5649028 L32.6833361,8.7473554 Z M37.4407533,11.608047 L37.4901148,11.5225504 C37.9803213,10.6734877 37.689411,9.5877955 36.8403483,9.09758894 C35.9912857,8.60738239 34.9055934,8.89829274 34.4153869,9.7473554 L34.3660254,9.832852 L37.4407533,11.608047 Z" id="Combined-Shape"></path>
            </g>
        </g>
    </g>
</svg>