<?xml version="1.0" encoding="UTF-8"?>
<svg width="60px" height="60px" viewBox="0 0 60 60" version="1.1" xmlns="http://www.w3.org/2000/svg" xmlns:xlink="http://www.w3.org/1999/xlink">
    <g stroke="none" stroke-width="1" fill="none" fill-rule="evenodd">
        <g transform="translate(-157.000000, -190.000000)" fill="#FFFFFF">
            <g transform="translate(-176.000000, -232.000000)">
                <g transform="translate(327.000000, 416.000000)">
                    <path d="M36,65.4545455 C19.7327037,65.4545455 6.54545455,52.2672963 6.54545455,36 C6.54545455,19.7327037 19.7327037,6.54545455 36,6.54545455 C52.2672963,6.54545455 65.4545455,19.7327037 65.4545455,36 C65.4545455,52.2672963 52.2672963,65.4545455 36,65.4545455 Z M35,42.5454545 C35.5522847,42.5454545 36,42.0977393 36,41.5454545 L36,22.2727273 C36,21.7204425 35.5522847,21.2727273 35,21.2727273 L33.7272727,21.2727273 C33.174988,21.2727273 32.7272727,21.7204425 32.7272727,22.2727273 L32.7272727,41.5454545 C32.7272727,42.0977393 33.174988,42.5454545 33.7272727,42.5454545 L35,42.5454545 Z M34.3636364,52.3636364 C36.1711137,52.3636364 37.6363636,50.8983865 37.6363636,49.0909091 C37.6363636,47.2834317 36.1711137,45.8181818 34.3636364,45.8181818 C32.556159,45.8181818 31.0909091,47.2834317 31.0909091,49.0909091 C31.0909091,50.8983865 32.556159,52.3636364 34.3636364,52.3636364 Z"></path>
                </g>
            </g>
        </g>
    </g>
</svg>
