<?xml version="1.0" encoding="UTF-8"?>
<svg width="18px" height="18px" viewBox="0 0 18 18" version="1.1" xmlns="http://www.w3.org/2000/svg" xmlns:xlink="http://www.w3.org/1999/xlink">
    <!-- Generator: sketchtool 50.2 (55047) - http://www.bohemiancoding.com/sketch -->
    <title>EBAFA604-B9F8-4C4F-9F43-A431D0F48CCA</title>
    <desc>Created with sketchtool.</desc>
    <defs></defs>
    <g id="Portail-pro" stroke="none" stroke-width="1" fill="none" fill-rule="evenodd">
        <g id="Passculture-Pro-offres" transform="translate(-752.000000, -520.000000)">
            <g id="Stacked-Group" transform="translate(348.000000, 120.000000)">
                <g id="LIST" transform="translate(0.000000, 213.000000)">
                    <g id="Liste" transform="translate(0.000000, 43.000000)">
                        <g id="BLOCKS/list-item-1l-img-Copy-4" transform="translate(0.000000, 117.000000)">
                            <g id="Group-4" transform="translate(77.000000, 0.000000)">
                                <g id="Stacked-Group" transform="translate(18.000000, 24.000000)">
                                    <g id="Group" transform="translate(306.000000, 0.000000)">
                                        <g id="PICTOS/picto-user">
                                            <rect id="Background" x="0" y="0" width="24" height="24"></rect>
                                            <g id="ICONS/ico-user-w">
                                                <rect id="crop" x="0" y="0" width="24" height="24"></rect>
                                                <g id="user" transform="translate(2.727273, 3.272727)" fill="#404040" fill-rule="nonzero">
                                                    <path d="M6.72488215,11.3201269 C5.95415927,10.504912 5.36948229,9.51675534 5.21278315,8.78627031 C4.83195831,8.43995992 4.61847257,7.59858392 4.37099365,6.10711084 L4.36363636,6.01782479 C4.36363636,5.59787515 4.60963674,5.30675205 4.95917366,5.13117237 C5.06866522,1.96682557 6.55825517,0.272727273 9.33471074,0.272727273 C12.0885003,0.272727273 13.5752786,1.93930816 13.7033339,5.05339165 C13.8885502,5.11867008 14.0367412,5.22770541 14.1464007,5.39112068 C14.2965694,5.6149031 14.3124217,5.76654807 14.3038519,6.14040631 C14.3025742,6.19710939 14.3022051,6.21912428 14.3022051,6.24793388 L14.2978637,6.31661578 C14.1252373,7.67665985 13.9469714,8.46538711 13.5771881,8.79390839 C13.4162813,9.57416231 12.7943094,10.6337686 11.9776793,11.4698367 C12.0165996,11.5167516 12.0482579,11.5710394 12.0703046,11.6316047 L12.54297,12.930079 L13.8048878,12.930079 C16.2669954,12.930079 18.0309343,14.116229 18.0309343,16.1827615 L18.0309343,16.9090909 C18.0309343,17.2103371 17.786726,17.4545455 17.4854798,17.4545455 C17.1842336,17.4545455 16.9400253,17.2103371 16.9400253,16.9090909 L16.9400253,16.1827615 C16.9400253,14.8313944 15.7348596,14.0209881 13.8048878,14.0209881 L12.1610551,14.0209881 C11.931755,14.0209881 11.726937,13.8775792 11.648503,13.6621107 L11.1179274,12.2045496 C10.5772408,12.5791493 9.99926063,12.8181818 9.43879772,12.8181818 C8.7826346,12.8181818 8.09246783,12.487978 7.4629678,11.9960738 C7.45741341,12.0121137 7.45106435,12.0280386 7.44390297,12.0438013 L6.69092861,13.701153 C6.60243839,13.8959265 6.40825635,14.0209881 6.19432362,14.0209881 L4.52721314,14.0209881 C2.6186567,14.0209881 1.56502525,14.7852003 1.56502525,16.1827615 L1.56502525,16.9090909 C1.56502525,17.2103371 1.32081693,17.4545455 1.01957071,17.4545455 C0.71832448,17.4545455 0.474116162,17.2103371 0.474116162,16.9090909 L0.474116162,16.1827615 C0.474116162,14.0932775 2.07783635,12.930079 4.52721314,12.930079 L5.84302732,12.930079 L6.45069299,11.5925623 C6.50804312,11.4663305 6.60749355,11.3724967 6.72488215,11.3201269 Z M13.1669066,6.0661157 C12.8653124,6.0661157 12.6209602,5.82136409 12.6214528,5.51977031 C12.6261157,2.66471907 11.5658232,1.36363636 9.33471074,1.36363636 C7.1034073,1.36363636 6.04189973,2.66499432 6.04438922,5.52018557 C6.04462273,5.7879892 5.85040684,6.01634953 5.58603989,6.05911578 C5.56628681,6.0623112 5.52010988,6.07465356 5.47512637,6.09385542 C5.59478322,6.7888107 5.71360858,7.31101023 5.82830625,7.65360302 C5.86995048,7.777991 5.9090487,7.87213313 5.94118534,7.93253707 C6.13039599,8.01814046 6.26204186,8.2085725 6.26204186,8.42975207 C6.26204186,8.62288908 6.70658134,9.53162448 7.24737164,10.2415181 C7.95875777,11.1753523 8.7393465,11.7272727 9.43879772,11.7272727 C10.1344246,11.7272727 10.8945062,11.1796149 11.5806612,10.2484765 C12.1019855,9.54101964 12.527077,8.6324317 12.527077,8.42975207 C12.527077,8.20890861 12.6583231,8.01871931 12.8470713,7.93292805 C12.8701958,7.88465779 12.8978509,7.81328966 12.9267678,7.7210804 C13.0276207,7.39948359 13.1239778,6.89338548 13.2114612,6.21196728 C13.2117111,6.18568774 13.212262,6.15766092 13.2132293,6.11540629 C13.2136444,6.09729474 13.2139323,6.08113394 13.2142028,6.06685886 C13.199669,6.06638006 13.1839052,6.0661157 13.1669066,6.0661157 Z" id="Combined-Shape"></path>
                                                </g>
                                            </g>
                                        </g>
                                    </g>
                                </g>
                            </g>
                        </g>
                    </g>
                </g>
            </g>
        </g>
    </g>
</svg>