<svg aria-hidden="true" viewBox="0 0 24 24"><path d="M17.371 12.125c.19 0 .347.141.372.324l.003.051v5.494c0 .73-.57 1.329-1.291 1.372l-.084.003H7.375c-.731 0-1.33-.571-1.372-1.292L6 17.994V12.5a.375.375 0 0 1 .747-.051l.003.051v5.494c0 .323.246.59.561.621l.064.004h8.996c.324 0 .59-.246.622-.562l.003-.063V12.5c0-.207.168-.375.375-.375zM11.94 4.5c.254 0 .463.141.496.324l.004.051v8.54l1.884-2.153a.376.376 0 0 1 .598.45l-.033.044-2.449 2.797v.051c0 .17-.152.315-.36.36l-.018.017-.006.003-.014.014-.031.02.051-.037a.356.356 0 0 1-.12.071l-.02.006a.233.233 0 0 1-.044.01l-.032.005h-.026c-.017 0-.034 0-.05-.002l-.012-.002a.35.35 0 0 1-.058-.013l-.016-.006a.377.377 0 0 1-.111-.065l-.04-.04-2.79-3.189a.375.375 0 0 1 .524-.533l.04.04L11.44 13.7V4.875c0-.207.224-.375.5-.375z" fill="#151515"/></svg>