<svg aria-hidden="true" viewBox="0 0 24 24"><path d="M11.614 8.25c.288.004.431.155.431.455 0 .299-.143.45-.431.454h-4.75v8.182h7.772v-5c0-.303.144-.455.432-.455.288 0 .432.152.432.455v5.454a.444.444 0 0 1-.432.455H6.432A.444.444 0 0 1 6 17.795v-9.09c0-.251.193-.455.432-.455h5.182zm2.979-2.999l.08.002 2.86.343a.45.45 0 0 1 .386.405l.328 2.993a.456.456 0 0 1-.386.51.446.446 0 0 1-.486-.405l-.23-2.088-5.627 5.89a.423.423 0 0 1-.62 0 .474.474 0 0 1 0-.65l5.595-5.855-1.92-.23a.452.452 0 0 1-.389-.426l.002-.083a.444.444 0 0 1 .486-.404z" fill="#151515"/></svg>