<svg width="20" height="20" viewBox="0 0 20 20" fill="none" xmlns="http://www.w3.org/2000/svg">
  <g id="icon" fill="currentColor">
    <path d="M9.76948 2.08968C11.835 1.99325 13.7043 2.98901 14.7578 4.55881L16.7939 2.60293C16.9598 2.44357 17.2237 2.44857 17.3834 2.61411C17.5431 2.77965 17.5381 3.04303 17.3722 3.20239L15.1783 5.30994C15.4477 5.89895 15.6119 6.54527 15.6464 7.22853C15.7071 8.42339 15.5364 9.35544 15.2234 10.1229C14.9111 10.8891 14.4663 11.4678 14.0141 11.964C13.8279 12.1683 13.6367 12.3624 13.455 12.5469L13.4522 12.5498C13.4163 12.5862 13.3808 12.6222 13.3458 12.6579C13.1294 12.8784 12.9288 13.0874 12.7481 13.304C12.3907 13.7324 12.1226 14.1778 12.0038 14.7467C11.5556 16.899 10.1644 17.9376 9.05491 17.9163L9.05368 17.9162C8.24538 17.8983 7.55015 17.6597 7.03728 17.3027C6.53358 16.9522 6.16931 16.458 6.11537 15.9197C6.09246 15.6911 6.25964 15.4872 6.48878 15.4643C6.71791 15.4415 6.92223 15.6083 6.94514 15.8369C6.96719 16.0569 7.13689 16.3575 7.51435 16.6203C7.88251 16.8765 8.4154 17.0697 9.07151 17.0843C9.65059 17.095 10.7914 16.4791 11.1874 14.5772C11.3429 13.8324 11.6954 13.2653 12.1072 12.7716C12.3111 12.5272 12.5322 12.2976 12.75 12.0757C12.788 12.037 12.8258 11.9986 12.8635 11.9603C13.045 11.776 13.2228 11.5954 13.3972 11.4041C13.814 10.9469 14.1895 10.4508 14.451 9.80931C14.712 9.1691 14.869 8.36061 14.8136 7.27057C14.7898 6.8012 14.6927 6.35086 14.533 5.9298L13.2673 7.1457C13.3134 7.38508 13.3321 7.63523 13.3251 7.89331C13.296 8.993 12.5732 9.76457 11.9283 10.4529L11.8483 10.5384C11.152 11.2837 10.4999 12.0129 10.3141 13.1131C10.2758 13.3397 10.0607 13.4924 9.83359 13.4542C9.60651 13.416 9.45347 13.2014 9.49175 12.9748C9.72375 11.6016 10.5491 10.7087 11.2384 9.971C11.954 9.20502 12.4621 8.65332 12.4909 7.89151L3.20613 16.8106C3.04023 16.97 2.77628 16.965 2.61657 16.7994C2.45687 16.6339 2.46188 16.3705 2.62778 16.2112L12.5121 6.71604C12.516 6.71214 12.52 6.70831 12.5241 6.70456L14.1449 5.14754C13.2713 3.74718 11.6414 2.83531 9.80845 2.92088C8.60429 2.97703 7.52792 3.45575 6.72483 4.19741C6.55582 4.35348 6.29202 4.34329 6.13561 4.17465C5.97919 4.00601 5.9894 3.74278 6.15841 3.58671C7.10286 2.71451 8.36499 2.15518 9.76948 2.08968Z"/>
    <path d="M11.6464 5.98807C11.5507 5.91113 11.448 5.84065 11.3393 5.77702L9.53766 4.53884C10.507 4.49429 11.4592 4.76908 12.1695 5.34005C12.3489 5.4842 12.3771 5.74611 12.2327 5.92506C12.0882 6.104 11.8257 6.13221 11.6464 5.98807Z" />
    <path d="M6.83673 7.30433C6.93808 6.94413 7.12735 6.63252 7.37015 6.36991C7.92961 5.76481 8.79018 5.4061 9.57594 5.37007C10.2276 5.34012 10.8455 5.48791 11.3393 5.77702L9.53766 4.53884C8.55478 4.58392 7.47994 5.02402 6.75724 5.80568C6.01577 6.60765 5.66207 7.75463 6.13625 9.12115C6.21159 9.33828 6.44907 9.45335 6.66668 9.37817C6.88428 9.30299 6.9996 9.06602 6.92426 8.84889C6.83688 8.59709 6.78549 8.3586 6.76506 8.13348C7.13796 8.16552 7.53134 8.20911 7.87691 8.35091C8.23257 8.49684 8.52161 8.73997 8.657 9.20757C8.72092 9.42833 8.95207 9.55558 9.1733 9.4918C9.39453 9.42802 9.52206 9.19736 9.45814 8.97661C9.23896 8.21959 8.73706 7.80414 8.19406 7.58133C7.72363 7.3883 7.2121 7.33601 6.83673 7.30433Z" />
  </g>
</svg>
