<svg width="24" height="24" viewBox="0 0 24 24" fill="none" xmlns="http://www.w3.org/2000/svg">
<path d="M4.35355 3.64645C4.15829 3.45118 3.84171 3.45118 3.64645 3.64645C3.45118 3.84171 3.45118 4.15829 3.64645 4.35355L10.9393 11.6464C11.1346 11.8417 11.1346 12.1583 10.9393 12.3536L3.64645 19.6464C3.45118 19.8417 3.45118 20.1583 3.64645 20.3536C3.84171 20.5488 4.15829 20.5488 4.35355 20.3536L11.6464 13.0607C11.8099 12.8972 11.9278 12.7054 12 12.501C12.0722 12.7054 12.1901 12.8972 12.3536 13.0607L19.6464 20.3536C19.8417 20.5488 20.1583 20.5488 20.3536 20.3536C20.5488 20.1583 20.5488 19.8417 20.3536 19.6464L13.0607 12.3536C12.8654 12.1583 12.8654 11.8417 13.0607 11.6464L20.3536 4.35355C20.5488 4.15829 20.5488 3.84171 20.3536 3.64645C20.1583 3.45118 19.8417 3.45118 19.6464 3.64645L12.3536 10.9393C12.1901 11.1028 12.0722 11.2946 12 11.499C11.9278 11.2946 11.8099 11.1028 11.6464 10.9393L4.35355 3.64645Z" fill="black"/>
</svg>
