<svg width="88" height="88" viewBox="0 0 88 88" fill="none" xmlns="http://www.w3.org/2000/svg">
<path id="icon" fill-rule="evenodd" clip-rule="evenodd" d="M32.9997 5.5C25.8332 5.5 20.1663 11.5823 20.1663 18.9186V25.3298C20.1663 32.6495 25.835 38.7299 32.9997 38.7299C40.1662 38.7299 45.833 32.6476 45.833 25.3113V18.9186C45.833 11.5823 40.1662 5.5 32.9997 5.5ZM23.833 18.9186C23.833 13.4323 28.0295 9.16797 32.9997 9.16797C37.9698 9.16797 42.1663 13.4323 42.1663 18.9186V25.3113C42.1663 30.7975 37.9698 35.0619 32.9997 35.0619C28.0277 35.0619 23.833 30.7956 23.833 25.3298V18.9186ZM32.9997 46.767C22.1858 46.767 13.1107 54.8216 11.1173 65.5916C16.1858 71.4142 23.3289 75.1968 31.3303 75.6611C31.8828 75.6932 32.4393 75.7094 32.9996 75.7094H32.9997L33.0128 75.7095C34.8207 75.7095 37.4018 75.7039 39.7406 75.2773C40.909 75.0642 41.9281 74.7604 42.7184 74.3537C43.5044 73.9492 43.9597 73.4988 44.1908 73.0329C44.2849 72.8433 44.4074 72.6771 44.5506 72.5369C43.0311 69.7832 42.1663 66.6176 42.1663 63.25C42.1663 52.6185 50.7849 44 61.4163 44C62.4289 44 63.2497 44.8208 63.2497 45.8333C63.2497 46.8459 62.4289 47.6667 61.4163 47.6667C52.8099 47.6667 45.833 54.6436 45.833 63.25C45.833 71.8564 52.8099 78.8333 61.4163 78.8333C70.0228 78.8333 76.9997 71.8564 76.9997 63.25C76.9997 59.5803 75.7335 56.2114 73.6128 53.5491C72.9819 52.7571 73.1125 51.6037 73.9045 50.9728C74.6965 50.342 75.8499 50.4726 76.4808 51.2645C79.0999 54.5526 80.6663 58.7209 80.6663 63.25C80.6663 73.8815 72.0478 82.5 61.4163 82.5C55.5553 82.5 50.306 79.8806 46.7753 75.7486C46.1161 76.5585 45.2745 77.1632 44.3958 77.6154C43.1666 78.248 41.7622 78.637 40.3983 78.8858C37.7024 79.3776 34.818 79.3775 33.0471 79.3775H33.0471H32.9997L32.881 79.3772C32.2874 79.3751 31.6977 79.3568 31.1122 79.3227C21.7445 78.7783 13.4522 74.2078 7.75338 67.3122C7.47803 66.9791 7.33099 66.5617 7.33303 66.135C7.33241 66.0056 7.34542 65.8764 7.37183 65.7496C9.34203 52.9702 20.0023 43.099 32.9997 43.099C35.7864 43.099 38.4752 43.5572 40.9858 44.394C41.9465 44.7141 42.4657 45.7527 42.1457 46.7136C41.8257 47.6746 40.7875 48.194 39.8269 47.8739C37.6808 47.1587 35.383 46.767 32.9997 46.767ZM61.4163 54.0833C62.2451 54.0833 63.2497 54.6623 63.2497 55.7474V65.2526C63.2497 66.3377 62.2451 66.9167 61.4163 66.9167C60.5876 66.9167 59.583 66.3377 59.583 65.2526V55.7474C59.583 54.6623 60.5876 54.0833 61.4163 54.0833ZM61.4163 68.75C62.4289 68.75 63.2497 69.5708 63.2497 70.5833C63.2497 71.5959 62.4289 72.4167 61.4163 72.4167C60.4038 72.4167 59.583 71.5959 59.583 70.5833C59.583 69.5708 60.4038 68.75 61.4163 68.75Z" />
</svg>
