<svg width="40" height="40" viewBox="0 0 40 40" xmlns="http://www.w3.org/2000/svg" xmlns:xlink="http://www.w3.org/1999/xlink"><defs><circle id="a" cx="19" cy="19" r="19"/></defs><g fill="none"><path d="M-2-2h44v44H-2z"/><g transform="translate(1 1)"><mask id="b" fill="#fff"><use xlink:href="#a"/></mask><use stroke="#FFF" stroke-width="2" stroke-linecap="round" stroke-linejoin="round" xlink:href="#a"/><path d="M26.14 13.121c.009-5.747-2.333-8.621-7.026-8.621-4.694 0-7.038 2.874-7.033 8.621 0 0-1.081.175-1.081.912.49 2.948.983 4.422 1.48 4.422 0 1.08 3.088 7.045 6.824 7.045 3.736 0 6.662-5.966 6.662-7.045.498 0 .916-1.334 1.255-4 0-.737.158-1.334-1.082-1.334z" stroke="#FFF" stroke-width="2" stroke-linecap="round" stroke-linejoin="round" mask="url(#b)"/><g mask="url(#b)" stroke="#FFF" stroke-linecap="round" stroke-linejoin="round" stroke-width="2"><path d="M33.867 35.333v-1.331c0-3.346-2.347-4.669-6.056-4.669l-2-.295C23.937 29.038 23 27.692 23 25M5 35.333v-1.331c0-3.346 2.347-4.669 6.057-4.669l2-.295c1.874 0 2.81-1.346 2.81-4.038"/></g></g></g></svg>