<svg xmlns="http://www.w3.org/2000/svg" viewBox="0 0 41 40" aria-hidden="true"><path d="M28.139 14.51c.356 0 .65.28.69.64l.004.084v15.203a2.887 2.887 0 0 1-2.734 2.893l-.143.003H15.044a2.885 2.885 0 0 1-2.874-2.75l-.003-.146V15.234c0-.4.31-.724.694-.724.356 0 .65.28.69.64l.005.084v15.203c0 .758.603 1.391 1.38 1.445l.108.003h10.912c.793 0 1.43-.6 1.485-1.345l.003-.103V15.234c0-.4.311-.724.695-.724zm-5.456-7.843c1.533 0 2.798 1.23 2.873 2.793l.004.148-.001 2.058h5.052c.399 0 .722.374.722.834 0 .427-.278.78-.638.828l-.084.005H10.39c-.399 0-.722-.373-.722-.833 0-.427.278-.78.638-.828l.084-.005 5.05-.001.001-2.058c0-1.583 1.218-2.862 2.734-2.938l.143-.003h4.366zm0 1.47h-4.366c-.792 0-1.43.61-1.484 1.367l-.004.104v2.058h7.34l.002-2.058c0-.77-.603-1.413-1.381-1.467l-.107-.004z" fill="#151515" fill-rule="evenodd"/></svg>