<svg width="82" height="67" viewBox="0 0 82 67" fill="none" xmlns="http://www.w3.org/2000/svg">
<path id="icon" fill-rule="evenodd" clip-rule="evenodd" d="M9.83317 4.27262C6.89664 4.27262 4.33317 6.82939 4.33317 10.231V56.981C4.33317 57.2358 4.34756 57.4859 4.37541 57.7305L26.9823 33.7822L8.82633 19.0808C8.03944 18.4436 7.91806 17.2892 8.55524 16.5023C9.19241 15.7154 10.3469 15.594 11.1337 16.2312L36.3826 36.676C39.0635 38.8588 42.9183 38.8588 45.5992 36.676L45.6036 36.6724L77.6665 10.7312V10.231C77.6665 6.82939 75.103 4.27262 72.1665 4.27262H64.5398C63.5273 4.27262 62.7065 3.45181 62.7065 2.43929C62.7065 1.42677 63.5273 0.605957 64.5398 0.605957H72.1665C77.3333 0.605957 81.3332 5.01585 81.3332 10.231V11.5733C81.3335 11.5944 81.3335 11.6155 81.3332 11.6365V56.981C81.3332 62.1961 77.3333 66.606 72.1665 66.606H9.83317C4.66637 66.606 0.666504 62.1961 0.666504 56.981V10.231C0.666504 5.01585 4.66637 0.605957 9.83317 0.605957H49.7632C50.7757 0.605957 51.5965 1.42677 51.5965 2.43929C51.5965 3.45181 50.7757 4.27262 49.7632 4.27262H9.83317ZM29.8401 36.0963L6.046 61.3023C7.04774 62.3267 8.39576 62.9393 9.83317 62.9393H72.1665C73.6039 62.9393 74.952 62.3267 75.9537 61.3022L66.213 50.9792C65.5182 50.2428 65.5518 49.0825 66.2883 48.3876C67.0247 47.6927 68.185 47.7264 68.8799 48.4628L77.6243 57.73C77.6521 57.4855 77.6665 57.2356 77.6665 56.981V15.4477L55.0115 33.7772L64.04 43.3479C64.7348 44.0845 64.7009 45.2448 63.9644 45.9396C63.2279 46.6343 62.0676 46.6005 61.3728 45.864L52.1528 36.0901L47.9143 39.5194L47.9123 39.521C43.8839 42.7994 38.0978 42.7994 34.0695 39.521L34.0675 39.5194L29.8401 36.0963Z" fill="#696A6F"/>
</svg>
