<svg width="28" height="25" viewBox="0 0 28 25" xmlns="http://www.w3.org/2000/svg"><g fill="none"><path d="M-4-6h36v35.809H-4z"/><path d="M-4-6h36v35.809H-4z"/><path d="M4.182 8.649c0-.45.366-.814.818-.814.452 0 .818.364.818.814V17.6c0 .45-.366.814-.818.814a.816.816 0 01-.818-.814V8.65zm3.273 0c0-.45.366-.814.818-.814.452 0 .818.364.818.814V17.6c0 .45-.366.814-.818.814a.816.816 0 01-.818-.814V8.65zm4.09 0c0-.45.367-.814.819-.814.452 0 .818.364.818.814V17.6c0 .45-.366.814-.818.814a.816.816 0 01-.819-.814V8.65zm3.273 0c0-.45.366-.814.818-.814.452 0 .819.364.819.814V17.6c0 .45-.367.814-.819.814a.816.816 0 01-.818-.814V8.65zm4.092 0c0-.45.365-.814.817-.814.452 0 .818.364.818.814V17.6c0 .45-.366.814-.818.814a.816.816 0 01-.818-.814V8.65zm3.272 0c0-.45.366-.814.818-.814.452 0 .818.364.818.814V17.6c0 .45-.366.814-.818.814a.816.816 0 01-.818-.814V8.65z" fill="#E60039"/><path d="M3.364 21.67a.816.816 0 01-.819-.814v-2.441c0-.45.367-.814.819-.814h21.272c.452 0 .819.364.819.814v2.441c0 .45-.367.814-.819.814H3.364zm.818-1.627h19.636v-.814H4.182v.814z" fill="#E60039"/><path d="M1.727 24.112a.816.816 0 01-.818-.814v-2.442c0-.45.366-.813.818-.813h24.546c.452 0 .818.364.818.813v2.442c0 .45-.366.814-.818.814H1.727zm.818-1.628h22.91v-.814H2.545v.814zm21.08-15.463L14 2.234 4.375 7.021h19.25zM.543 7.107l13.09-6.51a.822.822 0 01.732 0l13.092 6.51c.772.384.497 1.542-.366 1.542H.909c-.863 0-1.138-1.158-.366-1.542z" fill="#E60039"/></g></svg>