<svg width="80" height="80" viewBox="0 0 80 80" fill="none" xmlns="http://www.w3.org/2000/svg">
<g id="icon" clip-path="url(#clip0_2050_122668)">
<rect x="0.5" y="0.5" width="79" height="79" rx="3.5" fill="#F1F1F4" stroke="#F1F1F4"/>
<path fill-rule="evenodd" clip-rule="evenodd" d="M35.8245 24C35.8245 22.8989 36.7198 22 37.8461 22H55.9778C57.1041 22 57.9995 22.8989 57.9995 24V26.59C57.9995 27.1423 58.4473 27.59 58.9997 27.59C59.5522 27.59 60 27.1423 60 26.59V24C60 21.7811 58.1957 20 55.9778 20H37.8461C35.6282 20 33.8239 21.7811 33.8239 24V56C33.8239 58.2189 35.6282 60 37.8461 60H55.9778C58.1957 60 60 58.2189 60 56V33.59C60 33.0377 59.5522 32.59 58.9997 32.59C58.4473 32.59 57.9995 33.0377 57.9995 33.59V56C57.9995 57.1011 57.1041 58 55.9778 58H37.8461C36.7198 58 35.8245 57.1011 35.8245 56V24ZM29.9101 24.4574C30.4445 24.3174 30.7643 23.7709 30.6243 23.2366C30.4844 22.7024 29.9377 22.3827 29.4033 22.5226L22.9872 24.2025C20.8392 24.7626 19.5607 26.9637 20.1391 29.1012L27.8751 57.7407C28.0191 58.2739 28.5682 58.5894 29.1016 58.4454C29.6349 58.3014 29.9505 57.7525 29.8065 57.2193L22.0701 28.5787C21.7826 27.5166 22.4176 26.4178 23.4924 26.1377L29.9101 24.4574Z" fill="#90949D"/>
</g>
<defs>
<clipPath id="clip0_2050_122668">
<rect width="80" height="80" fill="white"/>
</clipPath>
</defs>
</svg>
