<svg width="20" height="20" viewBox="0 0 20 20" fill="none" xmlns="http://www.w3.org/2000/svg">
<g id="icon">
<path fill-rule="evenodd" clip-rule="evenodd" d="M16.7779 4.02055C16.9406 3.86334 16.9406 3.60844 16.7779 3.45122C16.6151 3.29401 16.3513 3.29401 16.1886 3.45122L14.126 5.44405C12.9101 4.70758 11.5057 4.16665 10 4.16665C7.55575 4.16665 5.3783 5.59217 3.841 6.96562C3.06682 7.6573 2.4413 8.348 2.00917 8.8658C1.79287 9.12497 1.62442 9.34155 1.50941 9.49425C1.45188 9.57062 1.40768 9.63107 1.37751 9.67295C1.36242 9.69389 1.35083 9.71019 1.34283 9.72152L1.33353 9.73475L1.33092 9.73849L1.32986 9.74002C1.2234 9.89382 1.22337 10.1061 1.32982 10.2599L1.33077 10.2612L1.33306 10.2645L1.34117 10.2761C1.34814 10.286 1.35821 10.3002 1.37132 10.3184C1.39753 10.3549 1.4359 10.4076 1.48586 10.4744C1.58577 10.6079 1.73217 10.7978 1.9206 11.0272C2.29712 11.4854 3.35403 12.5019 4.03395 13.141L4.201 13.2701C4.55573 13.5443 4.89266 13.8047 5.22186 14.0471L3.22191 15.9794C3.05919 16.1366 3.05919 16.3915 3.22191 16.5487C3.38463 16.7059 3.64845 16.7059 3.81117 16.5487L5.90375 14.5269C5.9109 14.5317 5.91806 14.5364 5.92521 14.5411L7.62593 12.9034C7.61838 12.8972 7.61086 12.891 7.60336 12.8848L9.12237 11.4171C9.13192 11.4231 9.14153 11.4289 9.1512 11.4346L10.4211 10.2117C10.4115 10.2046 10.402 10.1973 10.3927 10.1898L12.9496 7.71938C12.9582 7.73026 12.9668 7.74119 12.9753 7.75218L14.8666 5.93091C14.8539 5.92192 14.8412 5.91295 14.8285 5.90399L16.7779 4.02055ZM10 6.24998C10.8503 6.24998 11.7007 6.5763 12.3761 7.13476L10.0014 9.4292C10.0005 9.41124 10 9.39317 10 9.37498C10 8.96366 10.2384 8.60802 10.5846 8.4387C10.4027 8.37057 10.2057 8.33331 10 8.33331C9.07953 8.33331 8.33333 9.07951 8.33333 9.99999C8.33333 10.3015 8.41338 10.5842 8.55338 10.8282L7.03433 12.2959C6.54262 11.6616 6.25 10.8651 6.25 9.99998C6.25 7.92819 8.125 6.24998 10 6.24998Z"/>
<path d="M16.0423 6.86235L13.6613 9.19756C13.7191 9.45411 13.75 9.72229 13.75 9.99998C13.75 12.1634 12.0718 13.75 10 13.75C9.69845 13.75 9.40523 13.7144 9.12432 13.6473L7.3971 15.3413C8.15696 15.6541 8.98834 15.8333 10 15.8333C12.4443 15.8333 14.4287 14.5145 15.966 13.141C16.7402 12.4493 17.5587 11.652 17.9908 11.1342C18.2071 10.875 18.3756 10.6584 18.4906 10.5057C18.5481 10.4293 18.5923 10.3689 18.6225 10.327C18.6376 10.3061 18.6492 10.2898 18.6572 10.2784L18.6665 10.2652L18.6691 10.2615L18.6699 10.2603L18.6701 10.2599C18.7766 10.1061 18.7766 9.89383 18.6701 9.74002L18.6699 9.73963L18.6691 9.73849L18.6665 9.73475L18.6572 9.72152C18.6492 9.71019 18.6376 9.69389 18.6225 9.67295C18.5923 9.63107 18.5481 9.57062 18.4906 9.49425C18.3756 9.34155 18.2071 9.12497 17.9908 8.8658C17.5587 8.348 16.9332 7.6573 16.159 6.96562C16.1205 6.93122 16.0816 6.89679 16.0423 6.86235Z" />
</g>
</svg>
