<svg width="24" height="26" viewBox="0 0 24 26" fill="none" xmlns="http://www.w3.org/2000/svg">
<circle opacity="0.4" cx="9" cy="17" r="9" fill="#FFA5C0"/>
<path fill-rule="evenodd" clip-rule="evenodd" d="M21.0698 0.346234C20.868 0.15493 20.5103 0.199621 20.2708 0.446054L18.0883 3.3247C17.8489 3.57113 17.8183 3.92599 18.0201 4.11729C18.2218 4.3086 18.5795 4.26391 18.819 4.01748L21.0015 1.13883C21.241 0.892395 21.2715 0.537539 21.0698 0.346234ZM1.92383 13.9722C1.92383 8.91811 6.01877 4.82245 11.072 4.82245C12.6259 4.82245 14.095 5.21007 15.3776 5.89948C15.6475 6.04458 15.7487 6.38106 15.6037 6.65105C15.4586 6.92103 15.1222 7.02228 14.8522 6.87718C13.7287 6.27329 12.4398 5.93239 11.072 5.93239C6.63166 5.93239 3.03358 9.53111 3.03358 13.9722C3.03358 18.4133 6.63166 22.012 11.072 22.012C15.5123 22.012 19.1104 18.4133 19.1104 13.9722C19.1104 12.5858 18.7583 11.281 18.1384 10.1404C17.992 9.87113 18.0916 9.53416 18.3609 9.38777C18.6301 9.24138 18.967 9.34101 19.1134 9.61029C19.8193 10.909 20.2201 12.3955 20.2201 13.9722C20.2201 19.0263 16.1252 23.1219 11.072 23.1219C6.01877 23.1219 1.92383 19.0263 1.92383 13.9722ZM10.4976 10.0925C10.4976 9.77999 10.7617 9.53893 11.072 9.53893C11.3822 9.53893 11.6463 9.77999 11.6463 10.0925V15.2795C11.6463 15.592 11.3822 15.833 11.072 15.833C10.7617 15.833 10.4976 15.592 10.4976 15.2795V10.0925ZM11.0729 17.0423C10.6965 17.0423 10.3914 17.3475 10.3914 17.7239C10.3914 18.1004 10.6965 18.4056 11.0729 18.4056C11.4493 18.4056 11.7545 18.1004 11.7545 17.7239C11.7545 17.3475 11.4493 17.0423 11.0729 17.0423ZM23.0982 5.70119C23.4384 5.56279 23.8002 5.65787 23.9064 5.91357C24.0126 6.16927 23.8229 6.48876 23.4827 6.62716L20.9953 7.59938C20.6552 7.73779 20.2934 7.6427 20.1872 7.387C20.081 7.1313 20.2707 6.81182 20.6109 6.67341L23.0982 5.70119Z" fill="#EB0055"/>
</svg>
