<svg width="25" height="24" viewBox="0 0 25 24" fill="none" xmlns="http://www.w3.org/2000/svg">
  <g fill="none">
<path class="ico-more-circle" fill-rule="evenodd" clip-rule="evenodd" d="M12.5001 21.5455C7.22729 21.5455 2.95461 17.2728 2.95461 12C2.95461 10.3762 3.35929 8.84524 4.07661 7.51048C4.20139 7.2783 4.11432 6.98892 3.88213 6.86414C3.64995 6.73936 3.36057 6.82643 3.23579 7.05861C2.44493 8.53022 2.00006 10.2161 2.00006 12C2.00006 17.8 6.70011 22.5 12.5001 22.5C18.3 22.5 23.0001 17.8 23.0001 12C23.0001 6.20005 18.3 1.5 12.5001 1.5C10.6905 1.5 8.98489 1.96008 7.49461 2.77023C7.26303 2.89612 7.17735 3.18591 7.30324 3.4175C7.42914 3.64908 7.71893 3.73476 7.95051 3.60886C9.30478 2.87265 10.8542 2.45455 12.5001 2.45455C17.7728 2.45455 22.0455 6.72723 22.0455 12C22.0455 17.2728 17.7728 21.5455 12.5001 21.5455ZM12.3646 6.45711C12.6407 6.45738 12.8643 6.68145 12.8641 6.95759L12.8591 11.6082L17.4932 11.614C17.7694 11.6144 17.993 11.8385 17.9927 12.1146C17.9923 12.3908 17.7682 12.6144 17.4921 12.614L12.8615 12.6082L12.8782 17.2551C12.8791 17.5312 12.656 17.7558 12.3798 17.7567C12.1037 17.7576 11.8791 17.5345 11.8782 17.2584L11.8615 12.6122L7.2246 12.6296C6.94846 12.6306 6.72384 12.4075 6.72291 12.1313C6.72197 11.8552 6.94507 11.6306 7.22121 11.6296L11.8591 11.6122L11.8641 6.95662C11.8643 6.68048 12.0884 6.45684 12.3646 6.45711Z" fill="#FFF"/>
  </g>
</svg>
