<svg width="30" height="30" viewBox="0 0 30 30" xmlns="http://www.w3.org/2000/svg">
  <path id="icon" fill-rule="evenodd" clip-rule="evenodd" d="M15.6286 1.875C15.6286 1.52982 15.3486 1.25 15.0032 1.25C14.6578 1.25 14.3778 1.52982 14.3778 1.875V3.77198C14.3778 4.11716 14.6578 4.39698 15.0032 4.39698C15.3486 4.39698 15.6286 4.11716 15.6286 3.77198V1.875ZM15.6286 5.94353C15.6286 5.59835 15.3486 5.31853 15.0032 5.31853C14.6578 5.31853 14.3778 5.59835 14.3778 5.94353V10.0121C14.3778 10.3572 14.6578 10.6371 15.0032 10.6371C15.3486 10.6371 15.6286 10.3572 15.6286 10.0121V5.94353ZM10.2249 2.08113C10.5489 1.96163 10.9085 2.12729 11.0281 2.45112L13.7398 9.79569C13.8593 10.1195 13.6936 10.4789 13.3696 10.5984C13.0455 10.7179 12.6859 10.5522 12.5664 10.2284L9.85467 2.88384C9.7351 2.56001 9.90085 2.20062 10.2249 2.08113ZM6.93252 4.56512C6.70875 4.3022 6.31407 4.27035 6.05099 4.49399C5.78791 4.71764 5.75604 5.11208 5.97982 5.37501L8.14664 7.92096C8.37042 8.18389 8.7651 8.21573 9.02818 7.99209C9.29126 7.76845 9.32313 7.374 9.09935 7.11107L6.93252 4.56512ZM9.8336 8.9366C10.0968 8.71308 10.4914 8.74509 10.7151 9.00812L11.5641 10.0065C11.7878 10.2696 11.7557 10.664 11.4925 10.8875C11.2294 11.111 10.8347 11.079 10.611 10.816L9.76204 9.81759C9.53838 9.55457 9.57042 9.16014 9.8336 8.9366ZM3.76847 7.89625C3.46823 7.72563 3.08645 7.83056 2.91573 8.13062C2.74501 8.43068 2.85 8.81224 3.15024 8.98286L9.65072 12.677C9.95096 12.8476 10.3327 12.7427 10.5035 12.4426C10.6742 12.1426 10.5692 11.761 10.269 11.5904L3.76847 7.89625ZM1.2595 12.6123C1.31915 12.2723 1.64328 12.045 1.98347 12.1046L5.08165 12.6475C5.42185 12.7071 5.64927 13.0311 5.58963 13.3711C5.52998 13.7111 5.20585 13.9384 4.86566 13.8787L1.76747 13.3359C1.42728 13.2762 1.19985 12.9523 1.2595 12.6123ZM6.58304 12.9033C6.24283 12.8438 5.91876 13.0712 5.85919 13.4112C5.79963 13.7512 6.02714 14.0751 6.36735 14.1346L9.82667 14.7399C10.1669 14.7994 10.491 14.572 10.5505 14.232C10.6101 13.892 10.3826 13.5681 10.0424 13.5086L6.58304 12.9033ZM4.07555 16.9002C4.13466 17.2403 3.90673 17.5639 3.56645 17.6229L1.98251 17.8979C1.64222 17.957 1.31845 17.7292 1.25933 17.3891C1.20022 17.0491 1.42815 16.7255 1.76843 16.6664L3.35237 16.3914C3.69266 16.3323 4.01644 16.5601 4.07555 16.9002ZM8.5158 15.4929C8.52327 15.4916 8.53073 15.4904 8.53818 15.4894L9.82876 15.268C10.1692 15.2096 10.4925 15.438 10.5509 15.7782C10.6093 16.1184 10.3808 16.4416 10.0404 16.5L8.72886 16.725C8.72236 16.7261 8.71587 16.7271 8.70939 16.728L5.32159 17.3172C4.98132 17.3763 4.65748 17.1486 4.59827 16.8086C4.53906 16.4685 4.7669 16.1449 5.10717 16.0857L8.5158 15.4929ZM10.2689 18.4115C10.5692 18.2408 10.6742 17.8593 10.5035 17.5592C10.3327 17.2592 9.95094 17.1542 9.65071 17.3248L3.15022 21.019C2.84998 21.1896 2.74499 21.5711 2.91571 21.8712C3.08643 22.1713 3.46822 22.2762 3.76846 22.1056L10.2689 18.4115ZM11.4928 19.1144C11.7559 19.338 11.7878 19.7325 11.5641 19.9954L6.91367 25.4617C6.68995 25.7247 6.29528 25.7566 6.03215 25.533C5.76902 25.3094 5.73708 24.915 5.9608 24.652L10.6112 19.1857C10.835 18.9228 11.2296 18.8908 11.4928 19.1144ZM12.726 22.9584C12.8457 22.6346 12.6801 22.2752 12.3561 22.1555C12.0321 22.0359 11.6725 22.2014 11.5527 22.5252L9.85476 27.1179C9.73506 27.4416 9.90065 27.8011 10.2246 27.9207C10.5486 28.0404 10.9083 27.8749 11.028 27.5511L12.726 22.9584ZM13.3767 19.4101C13.7006 19.53 13.8659 19.8896 13.7459 20.2133L13.4544 20.9995C13.3345 21.3232 12.9747 21.4884 12.6508 21.3685C12.3269 21.2486 12.1616 20.889 12.2816 20.5653L12.573 19.779C12.693 19.4554 13.0528 19.2902 13.3767 19.4101ZM15.6286 19.9963C15.6286 19.6512 15.3486 19.3713 15.0033 19.3713C14.6579 19.3713 14.3779 19.6512 14.3779 19.9963V28.1272C14.3779 28.4723 14.6579 28.7522 15.0033 28.7522C15.3486 28.7522 15.6286 28.4723 15.6286 28.1272V19.9963ZM18.7915 25.2503C19.1156 25.1311 19.475 25.2972 19.5943 25.6211L20.1455 27.1187C20.2647 27.4427 20.0986 27.8019 19.7745 27.9211C19.4503 28.0402 19.0909 27.8742 18.9716 27.5503L18.4204 26.0527C18.3012 25.7287 18.4673 25.3695 18.7915 25.2503ZM17.4335 19.7796C17.3138 19.4558 16.9542 19.2903 16.6302 19.4099C16.3062 19.5295 16.1405 19.8889 16.2602 20.2127L17.616 23.8819C17.7357 24.2057 18.0953 24.3712 18.4193 24.2516C18.7433 24.132 18.909 23.7726 18.7893 23.4488L17.4335 19.7796ZM18.507 19.1147C18.7699 18.8909 19.1646 18.9226 19.3885 19.1854L24.0453 24.6517C24.2692 24.9145 24.2375 25.309 23.9746 25.5328C23.7116 25.7565 23.3169 25.7249 23.093 25.4621L18.4362 19.9957C18.2123 19.7329 18.244 19.3385 18.507 19.1147ZM23.1625 18.9225C22.8623 18.7518 22.4805 18.8567 22.3097 19.1567C22.1389 19.4567 22.2438 19.8383 22.544 20.009L26.2314 22.1056C26.5316 22.2763 26.9134 22.1715 27.0842 21.8715C27.255 21.5715 27.1501 21.1899 26.8499 21.0192L23.1625 18.9225ZM19.4961 17.56C19.6664 17.2597 20.0481 17.1542 20.3485 17.3244L21.3179 17.8736C21.6184 18.0438 21.7239 18.4252 21.5536 18.7255C21.3833 19.0258 21.0016 19.1312 20.7011 18.961L19.7318 18.4119C19.4313 18.2417 19.3258 17.8603 19.4961 17.56ZM20.1788 15.2682C19.8385 15.2091 19.5147 15.4369 19.4556 15.777C19.3965 16.1171 19.6245 16.4407 19.9647 16.4997L28.0175 17.8975C28.3578 17.9566 28.6815 17.7288 28.7406 17.3887C28.7997 17.0486 28.5718 16.725 28.2315 16.666L20.1788 15.2682ZM28.7402 12.6108C28.8007 12.9506 28.5741 13.2751 28.2341 13.3356L27.1443 13.5293C26.8043 13.5898 26.4796 13.3633 26.4191 13.0235C26.3586 12.6836 26.5852 12.3591 26.9252 12.2987L28.015 12.1049C28.355 12.0445 28.6797 12.2709 28.7402 12.6108ZM25.0196 13.8976C25.3598 13.8384 25.5876 13.5147 25.5284 13.1746C25.4691 12.8346 25.1452 12.6069 24.805 12.6661L19.9645 13.5085C19.6242 13.5677 19.3964 13.8914 19.4557 14.2315C19.5149 14.5715 19.8388 14.7992 20.179 14.74L25.0196 13.8976ZM27.0843 8.13061C27.255 8.43067 27.15 8.81223 26.8498 8.98286L24.2584 10.4555C23.9582 10.6261 23.5764 10.5212 23.4057 10.2212C23.235 9.9211 23.34 9.53953 23.6402 9.36891L26.2315 7.89625C26.5317 7.72563 26.9135 7.83055 27.0843 8.13061ZM22.5918 11.4042C22.8922 11.2337 22.9974 10.8522 22.8268 10.5521C22.6562 10.2519 22.2745 10.1468 21.9742 10.3172L19.7313 11.5902C19.431 11.7607 19.3258 12.1422 19.4964 12.4423C19.6669 12.7425 20.0486 12.8476 20.349 12.6772L22.5918 11.4042ZM23.9746 4.46924C24.2375 4.69301 24.2692 5.08747 24.0453 5.35029L19.3885 10.8166C19.1646 11.0794 18.7699 11.1111 18.507 10.8873C18.244 10.6635 18.2123 10.2691 18.4362 10.0063L23.093 4.53995C23.3169 4.27713 23.7116 4.24547 23.9746 4.46924ZM20.1452 2.88384C20.2648 2.56001 20.099 2.20062 19.775 2.08113C19.451 1.96163 19.0914 2.12729 18.9718 2.45112L16.2601 9.79569C16.1405 10.1195 16.3063 10.4789 16.6303 10.5984C16.9543 10.7179 17.3139 10.5522 17.4335 10.2284L20.1452 2.88384Z"/>
</svg>
