<svg width="12" height="14" viewBox="0 0 12 14" fill="#151515" xmlns="http://www.w3.org/2000/svg">
<path fill-rule="evenodd" clip-rule="evenodd" d="M0.999837 0.333328C0.815742 0.333328 0.666504 0.482567 0.666504 0.666662C0.666504 0.850756 0.815742 0.999995 0.999837 0.999995H1.6741C1.78667 3.46623 3.14288 5.71794 5.28866 6.97132L5.33786 6.99999L5.28838 7.02883C3.1426 8.28221 1.78664 10.5338 1.6741 13H0.999837C0.815742 13 0.666504 13.1492 0.666504 13.3333C0.666504 13.5174 0.815742 13.6667 0.999837 13.6667H1.99984H9.99984H10.9998C11.1839 13.6667 11.3332 13.5174 11.3332 13.3333C11.3332 13.1492 11.1839 13 10.9998 13H10.3256C10.213 10.5338 8.85679 8.28204 6.71102 7.02867L6.66181 6.99999L6.71129 6.97116C8.85707 5.71778 10.213 3.46621 10.3256 0.999995H10.9998C11.1839 0.999995 11.3332 0.850756 11.3332 0.666662C11.3332 0.482567 11.1839 0.333328 10.9998 0.333328H9.99984H8.83317C8.64908 0.333328 8.49984 0.482567 8.49984 0.666662C8.49984 0.850756 8.64908 0.999995 8.83317 0.999995H9.65814C9.54614 3.22861 8.31645 5.26142 6.37505 6.3955L5.99984 6.61418L5.62448 6.39541C3.68306 5.26134 2.45352 3.22861 2.34153 0.999995H6.99984C7.18393 0.999995 7.33317 0.850756 7.33317 0.666662C7.33317 0.482567 7.18393 0.333328 6.99984 0.333328H1.99984H0.999837ZM6.37519 7.60458C8.31662 8.73865 9.54616 10.7714 9.65814 13H2.34154C2.45352 10.7714 3.68322 8.73857 5.62463 7.60449L5.99984 7.38581L6.37519 7.60458Z" fill="#161617"/>
</svg>
