<svg xmlns="http://www.w3.org/2000/svg" viewBox="0 0 16 16" aria-hidden="true"><g fill="none"><path d="M0 0h16v16H0z"/><path fill="#FFF" d="M7.993 1.333A6.664 6.664 0 0 0 1.333 8c0 3.68 2.98 6.667 6.66 6.667A6.671 6.671 0 0 0 14.667 8a6.671 6.671 0 0 0-6.674-6.667zm.007 12c-2.947 0-5.333-2.386-5.333-5.333S5.053 2.667 8 2.667 13.333 5.053 13.333 8 10.947 13.333 8 13.333zm-.147-8.666h-.04a.478.478 0 0 0-.48.48v3.146c0 .234.12.454.327.574l2.767 1.66c.226.133.52.066.653-.16a.473.473 0 0 0-.167-.66l-2.58-1.534V5.147a.478.478 0 0 0-.48-.48z"/></g></svg>
