<svg width="20" height="20" viewBox="0 0 20 20" fill="none" xmlns="http://www.w3.org/2000/svg">
<path fill-rule="evenodd" clip-rule="evenodd" d="M2.1577 10.4191C2.00281 10.252 1.87708 10.1093 1.78311 9.99968C1.8944 9.86985 2.05021 9.69364 2.24616 9.48552C2.67888 9.02594 3.30484 8.41345 4.07714 7.80186C5.63333 6.56949 7.72724 5.38548 9.99998 5.38548C12.2727 5.38548 14.3666 6.56949 15.9228 7.80186C16.6951 8.41345 17.3211 9.02594 17.7538 9.48552C17.9498 9.69364 18.1056 9.86985 18.2168 9.99967C18.1056 10.1295 17.9498 10.3057 17.7538 10.5138C17.3211 10.9734 16.6951 11.5859 15.9228 12.1975C14.3666 13.4299 12.2727 14.6139 9.99998 14.6139C8.59685 14.6139 7.25898 14.1618 6.07004 13.5214C5.86921 13.4132 5.61533 13.4823 5.503 13.6757C5.39067 13.8691 5.46241 14.1136 5.66325 14.2218C6.93265 14.9055 8.41144 15.4163 9.99998 15.4163C12.5606 15.4163 14.8417 14.0926 16.4521 12.8173C17.2632 12.175 17.9185 11.5337 18.3712 11.0528C18.5978 10.8122 18.7742 10.6111 18.8947 10.4693C18.955 10.3984 19.0013 10.3422 19.0329 10.3033C19.0487 10.2839 19.0608 10.2688 19.0692 10.2582L19.079 10.246L19.0817 10.2425L19.0825 10.2414L19.0828 10.2411C19.1943 10.0982 19.1943 9.90111 19.0828 9.75828L19.0825 9.75792L19.0817 9.75686L19.079 9.75339L19.0692 9.7411C19.0608 9.73058 19.0487 9.71544 19.0329 9.696C19.0013 9.65712 18.955 9.60099 18.8947 9.53007C18.7742 9.38828 18.5978 9.18717 18.3712 8.94651C17.9185 8.4657 17.2632 7.82433 16.4521 7.18206C14.8417 5.90671 12.5606 4.58301 9.99998 4.58301C7.43938 4.58301 5.1583 5.90671 3.54783 7.18206C2.73679 7.82433 2.0815 8.4657 1.6288 8.94651C1.40221 9.18717 1.22574 9.38828 1.10525 9.53007C1.04499 9.60099 0.998686 9.65712 0.967071 9.696C0.951263 9.71544 0.939123 9.73058 0.930743 9.7411L0.921002 9.75339L0.918267 9.75686L0.917438 9.75792L0.917157 9.75828C0.805628 9.9011 0.805603 10.0982 0.917118 10.241L0.918106 10.2423L0.920509 10.2453L0.929006 10.2561L0.960586 10.2954C0.988047 10.3292 1.02824 10.3782 1.08058 10.4402C1.18525 10.5641 1.33862 10.7405 1.53602 10.9535C1.93046 11.379 2.50256 11.9525 3.21484 12.546C3.38886 12.691 3.652 12.6727 3.80257 12.5051C3.95314 12.3375 3.93414 12.0842 3.76012 11.9392C3.08074 11.3731 2.53409 10.8251 2.1577 10.4191ZM0.917157 9.75828C0.917055 9.75841 0.916967 9.75852 1.24998 9.99967L0.917157 9.75828ZM1.24998 9.99967C0.916944 10.2408 0.917077 10.241 0.917118 10.241L1.24998 9.99967ZM19.0828 9.75828L18.75 9.99967C19.083 9.75852 19.0829 9.75841 19.0828 9.75828ZM18.75 9.99967L19.0828 10.2411C19.0829 10.2409 19.083 10.2408 18.75 9.99967ZM7.08329 9.99966C7.08329 8.4478 8.38841 7.19102 9.99996 7.19102C10.6997 7.19102 11.3413 7.42933 11.8457 7.82354C12.0244 7.96319 12.2868 7.93691 12.4318 7.76485C12.5768 7.59279 12.5495 7.3401 12.3709 7.20046C11.7253 6.69591 10.9002 6.38855 9.99996 6.38855C7.92817 6.38855 6.24996 8.0046 6.24996 9.99966C6.24996 11.9947 7.92817 13.6108 9.99996 13.6108C12.0717 13.6108 13.75 11.9947 13.75 9.99966C13.75 9.77806 13.5634 9.59842 13.3333 9.59842C13.1032 9.59842 12.9166 9.77806 12.9166 9.99966C12.9166 11.5515 11.6115 12.8083 9.99996 12.8083C8.38841 12.8083 7.08329 11.5515 7.08329 9.99966ZM9.99996 11.2034C10.6903 11.2034 11.25 10.6645 11.25 9.99967C11.25 9.8763 11.2307 9.75727 11.1949 9.64521C11.0969 9.85422 10.8786 9.99967 10.625 9.99967C10.2798 9.99967 9.99996 9.73021 9.99996 9.39782C9.99996 9.1536 10.151 8.94336 10.368 8.849C10.2517 8.81452 10.1281 8.79596 9.99996 8.79596C9.3096 8.79596 8.74996 9.33488 8.74996 9.99967C8.74996 10.6645 9.3096 11.2034 9.99996 11.2034Z" fill="#161617"/>
</svg>
