<svg width="16" height="16" viewBox="0 0 16 16" fill="none" xmlns="http://www.w3.org/2000/svg">
<path id="icon" d="M12.02 9.76833C11.3308 9.33345 10.4154 9.54205 9.98073 10.2315L9.65558 10.7512C8.93813 10.3305 8.07932 9.71883 7.19576 8.83848C6.23445 7.8768 5.59123 7.03534 5.17065 6.39187L5.76794 6.0171C6.45711 5.58223 6.66563 4.67005 6.23092 3.97708L5.42158 2.69368C4.98688 2.00071 4.07505 1.79211 3.38587 2.22698C2.00046 3.10027 1.58342 4.92815 2.45637 6.31055L2.51292 6.40248C2.84514 7.02474 3.7499 8.53088 5.6301 10.4083C7.75064 12.5296 9.39051 13.41 9.82876 13.6256C11.193 14.3858 12.9318 13.958 13.7729 12.618C14.2077 11.9286 13.9991 11.0128 13.31 10.578L12.02 9.76833Z" fill="#161617"/>
</svg>
