<svg width="24" height="24" viewBox="0 0 24 24" fill="none" xmlns="http://www.w3.org/2000/svg">
<path id="icon" fill-rule="evenodd" clip-rule="evenodd" d="M2 12C2 6.47715 6.47715 2 12 2C17.5228 2 22 6.47715 22 12C22 17.5228 17.5228 22 12 22C6.47715 22 2 17.5228 2 12ZM11.8505 15.4511C11.2157 15.4511 10.7011 15.9657 10.7011 16.6005C10.7011 17.2354 11.2157 17.75 11.8505 17.75C12.4854 17.75 13 17.2354 13 16.6005C13 15.9657 12.4854 15.4511 11.8505 15.4511ZM10.7 12.8744C10.7 13.4267 11.2149 14 11.85 14C12.4851 14 13 13.4267 13 12.8744L13 6.95729C13 6.40501 12.4851 5.75 11.85 5.75C11.2149 5.75 10.7 6.40501 10.7 6.95729L10.7 12.8744Z"/>
</svg>
