<svg width="48" height="48" viewBox="0 0 48 48" fill="none" xmlns="http://www.w3.org/2000/svg">
<g id="icon" fill="currentColor">
<path fill-rule="evenodd" clip-rule="evenodd" d="M20.218 14.6016H24.3003C24.3003 14.6016 25.1055 17.6016 28.6055 17.5489C32.1055 17.4963 32.9106 14.6016 32.9106 14.6016H36.993C38.4358 14.6016 39.6055 15.7768 39.6055 17.2266L39.6055 39.9766C39.6055 41.4263 38.4358 42.6016 36.993 42.6016H32.9106C32.4964 42.6016 32.1498 42.3028 31.9901 41.9188C31.4369 40.5888 30.1298 39.6542 28.6055 39.6542C27.0811 39.6542 25.7741 40.5888 25.2209 41.9188C25.0612 42.3028 24.7145 42.6016 24.3003 42.6016H20.218C18.7751 42.6016 17.6055 41.4263 17.6055 39.9766V17.2266C17.6055 15.7768 18.7751 14.6016 20.218 14.6016Z" />
<path fill-rule="evenodd" clip-rule="evenodd" d="M15.5379 6.92669L11.5708 7.50066C9.93103 7.73791 8.79405 9.25954 9.0313 10.8993L12.3883 34.1014C12.5666 35.3342 13.4709 36.2828 14.6056 36.5769V17.2266C14.6056 14.1335 17.105 11.6016 20.2181 11.6016H24.3739C25.688 11.6016 26.8383 12.4839 27.1789 13.7531C27.1839 13.7656 27.1916 13.7838 27.2021 13.8064C27.245 13.8989 27.316 14.0235 27.416 14.1399C27.553 14.2994 27.8145 14.5605 28.5605 14.5493C29.3633 14.5372 29.6654 14.2487 29.8127 14.0804C29.9148 13.9636 29.9841 13.8436 30.0238 13.7605C30.0317 13.7441 30.0377 13.7305 30.042 13.7204C30.3714 12.5359 31.4096 11.6965 32.621 11.6091L32.0368 7.57081C31.7995 5.93103 30.2779 4.79406 28.6381 5.0313L24.6709 5.60529C24.2002 5.67339 23.8561 6.06902 23.7297 6.5275C23.333 7.96576 22.1193 9.10609 20.5482 9.3334C18.9771 9.56072 17.49 8.81115 16.7019 7.5443C16.4507 7.14046 16.0086 6.85859 15.5379 6.92669ZM33.1544 15.2955C32.6205 15.6389 32.121 16.0659 31.6539 16.4708C30.9949 17.042 30.0205 17.5277 28.6056 17.549C27.1816 17.5704 26.2037 17.0865 25.5446 16.5049C24.5268 15.6068 23.3568 14.6016 21.9995 14.6016H20.2181C18.7753 14.6016 17.6056 15.7769 17.6056 17.2266V36.3778L19.7539 36.0669C20.2246 35.9988 20.5687 35.6032 20.6952 35.1447C21.0919 33.7065 22.3056 32.5662 23.8766 32.3389C25.4477 32.1116 26.9348 32.8611 27.7229 34.128C27.9741 34.5318 28.4162 34.8136 28.8869 34.7455L32.8542 34.1715C34.494 33.9343 35.631 32.4127 35.3937 30.7729L33.1544 15.2955Z" />
</g>
</svg>
