<svg width="88" height="88" viewBox="0 0 88 88" fill="none" xmlns="http://www.w3.org/2000/svg">
<path fill-rule="evenodd" clip-rule="evenodd" d="M44 79C24.6665 79 9 63.3335 9 44C9 38.0459 10.4838 32.4326 13.114 27.5384C13.5715 26.6871 13.2523 25.626 12.4009 25.1685C11.5496 24.711 10.4885 25.0302 10.031 25.8816C7.13118 31.2775 5.5 37.4591 5.5 44C5.5 65.2665 22.7335 82.5 44 82.5C65.2665 82.5 82.5 65.2665 82.5 44C82.5 22.7335 65.2665 5.5 44 5.5C37.365 5.5 31.111 7.18695 25.6467 10.1575C24.7975 10.6191 24.4834 11.6817 24.945 12.5308C25.4066 13.38 26.4692 13.6941 27.3183 13.2325C32.284 10.5331 37.965 9 44 9C63.3335 9 79 24.6665 79 44C79 63.3335 63.3335 79 44 79ZM62.6862 32.5931C63.4172 33.2938 63.4418 34.4543 62.7411 35.1853L60.3944 37.6336L60.3855 37.6429L40.4287 58.4588L40.4284 58.4591C38.9916 59.9581 36.6237 59.958 35.1871 58.4588L35.1825 58.454L25.2546 48.0188C24.5567 47.2852 24.5856 46.1248 25.3192 45.4269C26.0528 44.729 27.2132 44.7579 27.9111 45.4915L37.808 55.8941L57.7473 35.0964L57.7473 35.0963L57.756 35.0874L60.0941 32.6481C60.7947 31.9171 61.9552 31.8925 62.6862 32.5931Z" fill="#696A6F"/>
</svg>
