<svg width="20" height="20" viewBox="0 0 20 20" fill="none" xmlns="http://www.w3.org/2000/svg">
<path id="icon" fill-rule="evenodd" clip-rule="evenodd" d="M9.99935 18.3333C14.6017 18.3333 18.3327 14.6024 18.3327 10C18.3327 5.39763 14.6017 1.66667 9.99935 1.66667C5.39698 1.66667 1.66602 5.39763 1.66602 10C1.66602 14.6024 5.39698 18.3333 9.99935 18.3333ZM14.377 7.9336C14.6495 7.64566 14.6515 7.17665 14.3815 6.88604C14.1116 6.59544 13.6719 6.59328 13.3995 6.88123L8.79994 11.7424L6.59913 9.41748C6.32662 9.1296 5.88693 9.13186 5.61705 9.42254C5.34716 9.71321 5.34929 10.1822 5.62179 10.4701L8.00077 12.9833C8.4426 13.45 9.15737 13.45 9.59919 12.9833L9.5993 12.9832L14.377 7.9336Z"/>
</svg>
