<svg width="18" height="18" viewBox="0 0 18 18" fill="none" xmlns="http://www.w3.org/2000/svg">
<path fill-rule="evenodd" clip-rule="evenodd" d="M9.18618 0.710493C9.06887 0.651841 8.9308 0.651841 8.8135 0.710493L0.896832 4.66883C0.755672 4.73941 0.666504 4.88368 0.666504 5.0415V16.9165C0.666504 17.1466 0.853052 17.3332 1.08317 17.3332H6.08317H8.99984H11.9165H16.9165C17.1466 17.3332 17.3332 17.1466 17.3332 16.9165V15.1457C17.3332 14.9156 17.1466 14.729 16.9165 14.729C16.6864 14.729 16.4998 14.9156 16.4998 15.1457V16.4998H12.329V11.479C12.329 11.0351 11.9703 10.6665 11.5165 10.6665H8.99984H6.479C6.03508 10.6665 5.6665 11.0252 5.6665 11.479V16.4998H1.49984V5.29902L8.99984 1.54902L16.4998 5.29902V13.0623C16.4998 13.2925 16.6864 13.479 16.9165 13.479C17.1466 13.479 17.3332 13.2925 17.3332 13.0623V5.0415C17.3332 4.88368 17.244 4.73941 17.1028 4.66883L9.18618 0.710493ZM8.58317 11.4998H6.49984V16.4998H8.58317V11.4998ZM9.4165 16.4998V11.4998H11.4957V16.4998H9.4165ZM3.99984 6.08317C3.99984 5.85305 4.18639 5.6665 4.4165 5.6665H13.5832C13.8133 5.6665 13.9998 5.85305 13.9998 6.08317V8.1665C13.9998 8.39662 13.8133 8.58317 13.5832 8.58317H8.58317C8.35305 8.58317 8.1665 8.39662 8.1665 8.1665C8.1665 7.93639 8.35305 7.74984 8.58317 7.74984H13.1665V6.49984H4.83317V7.74984H5.6665C5.89662 7.74984 6.08317 7.93639 6.08317 8.1665C6.08317 8.39662 5.89662 8.58317 5.6665 8.58317H4.4165C4.18639 8.58317 3.99984 8.39662 3.99984 8.1665V6.08317Z"/>
</svg>
