<svg width="20" height="20" viewBox="0 0 20 20" fill="none" xmlns="http://www.w3.org/2000/svg">
<path fill-rule="evenodd" clip-rule="evenodd" d="M4.45825 2.08301C3.14658 2.08301 2.08325 3.14633 2.08325 4.45801V15.5413C2.08325 16.853 3.14658 17.9163 4.45825 17.9163H15.5416C16.8533 17.9163 17.9166 16.853 17.9166 15.5413V4.45801C17.9166 3.14633 16.8533 2.08301 15.5416 2.08301H4.45825ZM9.7923 6.46482C9.7923 6.11599 10.0751 5.83306 10.4241 5.83306H13.1502C13.7113 5.83306 14.1666 6.2885 14.1666 6.84942V9.57555C14.1666 9.92437 13.8838 10.2073 13.5348 10.2073C13.1857 10.2073 12.9029 9.92437 12.9029 9.57555V7.99002L6.91189 13.9812C6.66514 14.228 6.26503 14.228 6.01828 13.9812C5.77158 13.7345 5.77158 13.3346 6.01828 13.0879L12.0094 7.09658H10.4241C10.0751 7.09658 9.7923 6.81365 9.7923 6.46482ZM6.2652 13.3346L12.5031 7.09658H12.5029L6.26513 13.3346C6.15469 13.445 6.15469 13.6241 6.26513 13.7345C6.27592 13.7453 6.28737 13.7551 6.29935 13.7637C6.2874 13.7551 6.27597 13.7453 6.2652 13.7346C6.15477 13.6241 6.15477 13.4451 6.2652 13.3346ZM13.8175 9.57555C13.8175 9.70954 13.7244 9.82177 13.5992 9.85095C13.7243 9.82176 13.8175 9.70953 13.8175 9.57555V7.02947L13.8175 7.02941V9.57555ZM10.4241 6.18203L12.9698 6.18203H10.4241L10.4241 6.18203Z" fill="#EB0055"/>
</svg>
