<svg width="20" height="20" viewBox="0 0 20 20" fill="none" xmlns="http://www.w3.org/2000/svg">
<path id="icon" fill="currentColor" fill-rule="evenodd" clip-rule="evenodd" d="M9.99984 18.3337C14.6022 18.3337 18.3332 14.6027 18.3332 10.0003C18.3332 5.39795 14.6022 1.66699 9.99984 1.66699C5.39746 1.66699 1.6665 5.39795 1.6665 10.0003C1.6665 14.6027 5.39746 18.3337 9.99984 18.3337ZM10.3135 13.5822C10.0448 13.3136 10.0448 12.878 10.3135 12.6094L12.2409 10.682L6.22727 10.682C5.84736 10.682 5.53939 10.374 5.53939 9.99409C5.53939 9.61418 5.84736 9.30621 6.22727 9.30621L12.2284 9.30621L10.3135 7.39129C10.0448 7.12266 10.0448 6.68712 10.3135 6.41849C10.5821 6.14985 11.0176 6.14985 11.2863 6.41849L14.3817 9.51394C14.6504 9.78257 14.6504 10.2181 14.3817 10.4867L11.2863 13.5822C11.0177 13.8508 10.5821 13.8508 10.3135 13.5822Z" />
</svg>
