<svg width="24" height="25" viewBox="0 0 24 25" fill="none" xmlns="http://www.w3.org/2000/svg">
<g clip-path="url(#clip0_964_6551)">
<path opacity="0.4" d="M12.236 7.06079C12.236 6.08954 13.0394 5.30469 14.0337 5.30469C15.028 5.30469 15.8315 6.08954 15.8315 7.06079H17.1798C18.1718 7.06079 18.982 7.84168 18.9999 8.80895L19 8.81773L18.9775 20.1849C19.0015 21.898 17.5875 23.3047 15.8315 23.3047H4.14607C2.41021 23.3047 1 21.9272 1 20.2315V8.81688C1 7.84564 1.80347 7.06079 2.79775 7.06079H4.15488C4.15488 6.08954 4.95835 5.30469 5.95263 5.30469C6.94692 5.30469 7.75038 6.08954 7.75038 7.06079H12.236Z" fill="#FFA5C0"/>
<path fill-rule="evenodd" clip-rule="evenodd" d="M17.4819 2.2803C16.9287 2.2803 16.4831 2.71556 16.4831 3.25591V3.64711C16.4896 3.67833 16.4929 3.71064 16.4929 3.74371C16.4929 3.77679 16.4896 3.80909 16.4831 3.84032V4.23152C16.4831 4.77187 16.9287 5.20713 17.4819 5.20713C17.7577 5.20713 17.9813 5.42552 17.9813 5.69493C17.9813 5.96434 17.7577 6.18274 17.4819 6.18274C16.3771 6.18274 15.4844 5.31068 15.4844 4.23152H10.0011L9.994 4.23147H9.12236C8.84656 4.23147 8.62299 4.01307 8.62299 3.74366C8.62299 3.47426 8.84656 3.25586 9.12236 3.25586H9.50168C9.50165 2.71553 9.05607 2.2803 8.50292 2.2803C7.94976 2.2803 7.50417 2.71556 7.50417 3.25591V4.23152C7.50417 4.77187 7.94976 5.20713 8.50292 5.20713C8.77872 5.20713 9.0023 5.42552 9.0023 5.69493C9.0023 5.96434 8.77872 6.18274 8.50292 6.18274C7.39816 6.18274 6.50542 5.31068 6.50542 4.23152H4.9975C4.44434 4.23152 3.99875 4.66678 3.99875 5.20713V7.15835H19.4893C19.7651 7.15835 19.9887 7.37674 19.9887 7.64615C19.9887 7.91556 19.7651 8.13396 19.4893 8.13396H3.99875V17.8901C3.99875 19.2353 5.11849 20.3291 6.49563 20.3291H19.4794C20.8726 20.3291 21.9972 19.2115 21.9763 17.8486L21.9763 17.8403L22.0012 5.21149C21.9888 4.66877 21.5317 4.23152 20.9775 4.23152H18.98C18.9777 4.23152 18.9753 4.2315 18.973 4.23147H18.1111C17.8353 4.23147 17.6118 4.01307 17.6118 3.74366C17.6118 3.47426 17.8353 3.25586 18.1111 3.25586H18.4806C18.4806 2.71553 18.035 2.2803 17.4819 2.2803ZM17.4819 1.30469C16.3771 1.30469 15.4844 2.17674 15.4844 3.25591H10.5004C10.5004 2.17674 9.60769 1.30469 8.50292 1.30469C7.39816 1.30469 6.50542 2.17674 6.50542 3.25591H4.9975C3.89274 3.25591 3 4.12796 3 5.20713V17.8901C3 19.7741 4.5669 21.3047 6.49563 21.3047H19.4794C21.4306 21.3047 23.0017 19.7417 22.975 17.8383L23 5.20807L22.9999 5.19831C22.98 4.12357 22.0797 3.25591 20.9775 3.25591H19.4794C19.4794 2.17674 18.5867 1.30469 17.4819 1.30469Z" fill="#EB0055"/>
</g>
<defs>
<clipPath id="clip0_964_6551">
<rect width="22" height="22" fill="white" transform="translate(1 1.30469)"/>
</clipPath>
</defs>
</svg>
