<svg width="20" height="20" viewBox="0 0 20 20" fill="none" xmlns="http://www.w3.org/2000/svg">
<path id="icon" fill-rule="evenodd" clip-rule="evenodd" d="M5.6665 14.1667C3.45736 14.1667 1.6665 12.3012 1.6665 10C1.6665 7.69882 3.45736 5.83334 5.6665 5.83334C7.40813 5.83334 8.88978 6.99279 9.4389 8.61112H14.9928L14.9998 8.6111L15.0069 8.61112H16.9443C17.7114 8.61112 18.3332 9.23294 18.3332 10C18.3332 10.7671 17.7114 11.3889 16.9443 11.3889H16.3332V12.8333C16.3332 13.5697 15.7362 14.1667 14.9998 14.1667C14.2634 14.1667 13.6665 13.5697 13.6665 12.8333V11.3889H9.43889C8.88978 13.0072 7.40813 14.1667 5.6665 14.1667ZM5.66648 12.0833C4.56191 12.0833 3.66648 11.1506 3.66648 10C3.66648 8.84941 4.56191 7.91667 5.66648 7.91667C6.77105 7.91667 7.66648 8.84941 7.66648 10C7.66648 11.1506 6.77105 12.0833 5.66648 12.0833Z" fill="#161617"/>
</svg>
