<svg xmlns="http://www.w3.org/2000/svg" width="33" height="32" viewBox="0 0 33 32">
    <g fill="none" fill-rule="evenodd">
        <g fill="#151515">
            <g>
                <path d="M16.872 8.04l.117.035 8.342 2.909.015.005.021.009-.036-.014c.032.01.061.025.089.04l.03.02c.015.01.03.021.043.033l.025.023.034.037.03.04.017.028c.01.016.018.032.025.049.005.01.01.022.013.033.005.013.01.026.013.04l.01.047.002.014.004.038v10.697c0 .195-.113.37-.286.452l-.067.026-8.438 2.58c-.103.08-.236.121-.371.105l.08-.019c-.164.05-.333.013-.458-.086L7.687 22.6c-.187-.057-.32-.217-.348-.406l-.006-.072V11.456c0-.06.01-.116.03-.169-.004-.005-.006-.012-.008-.018-.074-.242.045-.497.269-.6l.063-.025L16.15 8.06c.235-.073.484-.08.722-.02zm-.375.963l-.054.012-8.11 2.477v10.26l8.167 2.495 8.167-2.495v-9.941L16.66 9.02c-.053-.019-.108-.024-.163-.017zm5.813 3.326c.074.242-.045.497-.268.6l-.064.024-5.395 1.648c-.072.022-.148.027-.222.016l-.073-.017-5.1-1.596c-.263-.083-.41-.363-.327-.627.075-.241.317-.385.56-.343l.066.016 4.951 1.549 5.248-1.602c.264-.081.544.068.624.332zm-5.873 3.336c.254 0 .463.188.496.432l.004.068v6.028c0 .276-.223.5-.5.5-.253 0-.462-.189-.495-.433l-.005-.067v-6.028c0-.276.224-.5.5-.5z" transform="translate(-341 -570) translate(342 570)"/>
            </g>
        </g>
    </g>
</svg>
