<svg width="18" height="18" viewBox="0 0 18 18" fill="none" xmlns="http://www.w3.org/2000/svg">
<path fill-rule="evenodd" clip-rule="evenodd" d="M9 17.75C13.8325 17.75 17.75 13.8325 17.75 9C17.75 4.16751 13.8325 0.25 9 0.25C4.16751 0.25 0.25 4.16751 0.25 9C0.25 13.8325 4.16751 17.75 9 17.75ZM9.31364 12.5819C9.045 12.3132 9.045 11.8777 9.31364 11.6091L11.2411 9.68164L5.22743 9.68164C4.84752 9.68164 4.53955 9.37367 4.53955 8.99376C4.53955 8.61386 4.84752 8.30588 5.22743 8.30588L11.2286 8.30588L9.31364 6.39097C9.045 6.12233 9.045 5.68679 9.31364 5.41816C9.58227 5.14953 10.0178 5.14953 10.2864 5.41816L13.3819 8.51361C13.6505 8.78225 13.6505 9.21779 13.3819 9.48642L10.2864 12.5819C10.0178 12.8505 9.58227 12.8505 9.31364 12.5819Z" fill="#161617"/>
</svg>
