<svg width="20" height="20" viewBox="0 0 20 20" xmlns="http://www.w3.org/2000/svg">
<path fill-rule="evenodd" clip-rule="evenodd" d="M4.45837 2.0835C3.1467 2.0835 2.08337 3.14682 2.08337 4.4585V15.5418C2.08337 16.8535 3.1467 17.9168 4.45837 17.9168H15.5417C16.8534 17.9168 17.9167 16.8535 17.9167 15.5418V4.4585C17.9167 3.14682 16.8534 2.0835 15.5417 2.0835H4.45837ZM9.79242 6.46531C9.79242 6.11648 10.0752 5.83355 10.4243 5.83355H13.1503C13.7114 5.83355 14.1667 6.28899 14.1667 6.84991V9.57604C14.1667 9.92486 13.8839 10.2078 13.5349 10.2078C13.1858 10.2078 12.903 9.92486 12.903 9.57604V7.99051L6.91201 13.9817C6.66526 14.2285 6.26516 14.2285 6.0184 13.9817C5.7717 13.735 5.7717 13.3351 6.0184 13.0884L12.0095 7.09707H10.4243C10.0752 7.09707 9.79242 6.81413 9.79242 6.46531ZM6.26532 13.3351L12.5032 7.09707H12.5031L6.26525 13.3351C6.15481 13.4455 6.15481 13.6246 6.26525 13.735C6.27604 13.7458 6.2875 13.7555 6.29947 13.7642C6.28752 13.7556 6.27609 13.7458 6.26532 13.7351C6.15489 13.6246 6.15489 13.4456 6.26532 13.3351ZM13.8177 9.57604C13.8177 9.71003 13.7245 9.82226 13.5994 9.85144C13.7245 9.82225 13.8176 9.71002 13.8176 9.57604V7.02996L13.8177 7.0299V9.57604ZM10.4243 6.18251L12.9699 6.18252H10.4242L10.4243 6.18251Z" />
</svg>
