<svg xmlns="http://www.w3.org/2000/svg" width="56" height="56" viewBox="0 0 56 56"><path d="M27.916 39.928c.418 0 .756.354.756.79v7.155c0 .437-.338.791-.756.791s-.756-.354-.756-.79v-7.155c0-.437.338-.791.756-.791zm5.297 1.39l1.469 4.625a.8.8 0 01-.5 1.002.773.773 0 01-.24.039.782.782 0 01-.74-.55l-1.468-4.624a.8.8 0 01.5-1.003.775.775 0 01.98.51zM22.92 42.99c.414.131.64.565.506.968l-.44 1.319a.784.784 0 01-.749.531.794.794 0 01-.243-.038.765.765 0 01-.506-.968l.44-1.319a.792.792 0 01.992-.493zm-2.8-4.59a.808.808 0 01.172 1.112l-3.648 5.128a.775.775 0 01-1.09.176.808.808 0 01-.172-1.112l3.648-5.128a.77.77 0 011.09-.176zm14.165-3.356l5.663 7.837a.789.789 0 01-.173 1.097.774.774 0 01-1.09-.174l-5.663-7.837c-.253-.351-.176-.842.173-1.097s.837-.177 1.09.174zm-8.682.05a.775.775 0 01.51.983l-1.766 5.328a.796.796 0 01-1.004.501.775.775 0 01-.51-.983l1.766-5.328a.8.8 0 011.004-.5zm-13.38 3.97a.728.728 0 01-.176 1.056l-.245.168a.838.838 0 01-1.12-.168.73.73 0 01.177-1.056l.245-.167a.833.833 0 011.12.167zm19.153-3.633l1.123 3.469a.788.788 0 01-.745 1.028.783.783 0 01-.744-.543l-1.123-3.469a.783.783 0 111.489-.485zm10.822 1.62l2.108 1.484c.354.25.433.732.175 1.076a.809.809 0 01-1.109.17l-2.108-1.484a.756.756 0 01-.175-1.076.81.81 0 011.109-.17zm-21.572-4.022a.79.79 0 01-.174 1.102l-6.15 4.47a.786.786 0 01-1.102-.174.79.79 0 01.174-1.102l6.15-4.47a.79.79 0 011.102.174zm7.291 1.859c.418 0 .756.345.756.771v2.154c0 .426-.338.771-.756.771s-.756-.345-.756-.771v-2.154c0-.426.338-.771.756-.771zm-5.287-.015a.8.8 0 01.178 1.118l-.915 1.255a.8.8 0 01-1.121.177.8.8 0 01-.178-1.118l.915-1.255a.803.803 0 011.121-.177zm13.695-2.185l3.61 2.61a.79.79 0 01.177 1.11.799.799 0 01-1.116.176l-3.61-2.61a.791.791 0 01-.176-1.11.8.8 0 011.115-.176zm-21.3-.78a.79.79 0 01-.51.998l-4.962 1.607a.795.795 0 01-1.001-.509.791.791 0 01.51-.998l4.963-1.607a.794.794 0 011 .509zm25.103-1.182l4.628 1.47a.775.775 0 01.51.98.794.794 0 01-1.001.498l-4.627-1.47a.775.775 0 01-.51-.98.799.799 0 011-.498zM20.57 30.06a.796.796 0 01-.497.998l-2.819.936a.773.773 0 01-.24.039.777.777 0 01-.736-.547.796.796 0 01.497-.998l2.819-.936a.77.77 0 01.976.508zm15.699-.51l1.595.495c.42.13.649.559.513.958a.796.796 0 01-.759.526.846.846 0 01-.247-.037l-1.595-.495c-.42-.13-.649-.559-.513-.958.136-.4.587-.618 1.006-.489zm-24.173-2.557c.433 0 .784.338.784.756s-.351.756-.784.756H7.784c-.433 0-.784-.338-.784-.756s.351-.756.784-.756h4.312zm7.733 0c.43 0 .779.338.779.756s-.349.756-.78.756h-4.993c-.43 0-.779-.338-.779-.756s.349-.756.78-.756h4.993zm24.186-.168c.433 0 .785.339.785.756s-.352.756-.785.756h-8.006c-.434 0-.785-.339-.785-.756s.351-.756.785-.756h8.006zm4.37 0c.432 0 .783.339.783.756s-.35.756-.784.756h-1.457c-.432 0-.783-.339-.783-.756s.35-.756.783-.756h1.457zM18.46 23.837l1.595.495c.42.13.649.559.513.958a.796.796 0 01-.759.526.846.846 0 01-.247-.037l-1.595-.495c-.42-.13-.649-.559-.513-.958.136-.4.587-.618 1.006-.489zm21.093.006a.796.796 0 01-.497.998l-2.819.936a.773.773 0 01-.24.039.777.777 0 01-.736-.547.796.796 0 01.497-.998l2.819-.936a.77.77 0 01.976.508zm-27.986-2.189l4.627 1.47a.775.775 0 01.51.98.794.794 0 01-1 .498l-4.628-1.47a.775.775 0 01-.51-.98.799.799 0 011-.498zm35.714-.328a.8.8 0 01-.5 1.003l-4.826 1.6a.773.773 0 01-.982-.511.8.8 0 01.5-1.003l4.826-1.6a.776.776 0 01.982.511zm-30.278-2.582l3.61 2.61a.79.79 0 01.177 1.11.799.799 0 01-1.116.176l-3.61-2.61a.791.791 0 01-.176-1.11.8.8 0 011.115-.176zm25.63-1.843a.79.79 0 01-.175 1.102l-6.15 4.47a.786.786 0 01-1.102-.174.79.79 0 01.174-1.102l6.15-4.47a.79.79 0 011.102.174zm-7.907 1.504a.769.769 0 01.177 1.09l-.589.791a.803.803 0 01-1.114.172.768.768 0 01-.177-1.089l.589-.791a.81.81 0 011.114-.173zm-17.891-7.216l5.972 8.167a.784.784 0 01-.175 1.101.797.797 0 01-1.109-.174l-5.972-8.167c-.258-.352-.18-.845.175-1.101s.851-.178 1.109.174zm8.168 4.762l1.11 3.446a.8.8 0 01-.751 1.043.79.79 0 01-.75-.55l-1.11-3.447a.798.798 0 01.506-1.004.788.788 0 01.995.512zm2.912-4.919c.418 0 .756.353.756.788v7.664c0 .435-.338.788-.756.788s-.756-.353-.756-.788V11.82c0-.435.338-.788.756-.788zm4.742 2.39a.775.775 0 01.51.983l-1.766 5.328a.796.796 0 01-1.004.501.775.775 0 01-.51-.983l1.766-5.328a.8.8 0 011.004-.5zm-20.185 2.129l2.26 1.615a.78.78 0 01.178 1.101.812.812 0 01-1.12.175l-2.26-1.616c-.359-.256-.438-.749-.178-1.101s.762-.43 1.12-.174zm27.967-5.042a.77.77 0 01.176 1.089l-4.455 6a.805.805 0 01-1.113.173.77.77 0 01-.176-1.089l4.455-6a.808.808 0 011.113-.173zm-17.465-.446l1.122 3.469a.786.786 0 01-.744 1.028.783.783 0 01-.744-.543l-1.122-3.469a.783.783 0 111.488-.485zm10.864-.505c.414.131.64.565.506.968l-.44 1.319a.785.785 0 01-.992.493.765.765 0 01-.506-.968l.44-1.319a.792.792 0 01.992-.493zm-5.923-2.222c.418 0 .756.36.756.804v.912c0 .444-.338.804-.756.804s-.756-.36-.756-.804V8.14c0-.444.338-.804.756-.804z" fill="#EB0055"/></svg>