<svg viewBox="0 0 390 120" xml:space="preserve" xmlns="http://www.w3.org/2000/svg" xmlns:xlink="http://www.w3.org/1999/xlink">
    <path fill="#85B755" d="M14.46 29.22c0 2.58.01 4.92 0 7.26-.01 3.19-.01 6.38-.08 9.58-.02.97.14 1.43 1.28 1.6 4.53.64 9.05 1.43 13.57 2.15 8.66 1.38 17.33 2.73 25.99 4.11 1.63.26 2.16 1.05 1.96 2.67-.05.4-.07.8-.14 1.19-.35 1.85-1.17 2.39-3.06 2.1-7.41-1.18-14.82-2.33-22.23-3.51-5.19-.83-10.38-1.7-15.57-2.56-1.81-.3-1.81-.3-1.83 1.49-.08 7.18-.15 14.36-.26 21.54-.01.91.17 1.29 1.18 1.45 5.57.84 11.12 1.79 16.69 2.67 7.41 1.18 14.83 2.34 22.24 3.51 1.06.17 2.23.39 2.36 1.64.15 1.4.15 2.9-.96 4.03-.51.52-1.22.55-1.92.44-6.78-1.09-13.55-2.18-20.33-3.26-7.71-1.22-15.42-2.43-23.14-3.64-1.64-.26-2.25-.9-2.23-2.54.08-10.77.1-21.54.3-32.31.15-7.98.1-15.96.22-23.93.04-2.59.03-5.19.16-7.77.33-6.32 6.82-12.05 13.06-11.5 4.4.38 8.73 1.28 13.1 1.96 8.8 1.38 17.58 2.83 26.38 4.25 8.74 1.41 17.47 2.81 26.21 4.24 1.8.3 2.31.95 2.29 2.74-.05 5.54-.12 11.09-.17 16.63-.03 2.63-.05 5.27-.07 7.9-.08 10.97-.1 21.94-.26 32.91-.06 4.43-.11 8.85-.15 13.28-.01 1.48-.74 2.21-2.19 2.27-.12.01-.24 0-.36 0-3.13.03-3.48-.33-3.46-3.49.03-4.95.04-9.9.08-14.84.08-10.89.1-21.78.28-32.67.1-5.98.06-11.97.17-17.95.02-.95-.16-1.36-1.23-1.54-11.85-1.91-23.69-3.9-35.54-5.86-7.75-1.28-15.51-2.52-23.26-3.79-4.19-.69-7.42 1.19-8.47 4.96-1.02 3.67 1.58 7.73 5.36 8.36 3.98.67 7.94 1.49 11.93 2.05 8.22 1.15 16.37 2.69 24.57 3.93 4.13.63 8.25 1.32 12.37 2.01 1.97.33 2.45 1.16 2.38 3.14-.13 3.51-.12 7.02-.16 10.53-.1 9.45-.19 18.91-.3 28.36-.01.68-.08 1.35-.15 2.03-.02.19-.09.39-.18.56-.55 1.01-2.27 1.41-4.18.99-1.02-.22-1.62-1.05-1.61-2.35.04-4.63.12-9.25.16-13.88.05-4.63.07-9.26.11-13.88.03-2.95.06-5.9.14-8.85.02-.81-.15-1.15-1.07-1.3-10.49-1.67-20.96-3.41-31.44-5.12-4.59-.75-9.17-1.51-13.77-2.22-1.59-.25-3.02-.92-4.77-1.77z"/><linearGradient id="a" gradientUnits="userSpaceOnUse" x1="127.59" y1="55.72" x2="161.75" y2="55.72"><stop offset="0" style="stop-color:#673a73"/><stop offset="1" style="stop-color:#5b4189"/></linearGradient><path fill="url(#a)" d="M127.62 55.77c0-6.58.07-13.17-.03-19.75-.04-2.73 1.38-4.45 4.46-4.41 8.68.12 17.35.03 26.03.05 2.64 0 4.28 2.15 3.44 4.44-.5 1.37-1.6 2.11-3.27 2.12-3.4.02-6.8.01-10.2.01-4.12 0-8.24.02-12.36-.02-.83-.01-1.08.2-1.07 1.05.04 4.03.05 8.06 0 12.09-.01.85.26 1.05 1.08 1.05 6.64-.03 13.28-.02 19.91-.01 2.35 0 3.92 1.63 3.65 3.75-.22 1.77-1.61 2.87-3.67 2.88-6.52.01-13.04.04-19.55-.03-1.16-.01-1.45.27-1.43 1.43.08 3.79.1 7.58-.01 11.37-.04 1.28.39 1.46 1.53 1.46 7.32-.05 14.64-.02 21.95-.03 1.49 0 2.67.54 3.31 1.92.57 1.22.43 2.41-.41 3.48-.66.84-1.56 1.23-2.61 1.23-9.08 0-18.15.02-27.23-.01-2.2-.01-3.51-1.51-3.52-3.95-.01-6.72 0-13.42 0-20.12z"/><linearGradient id="b" gradientUnits="userSpaceOnUse" x1="234.167" y1="69.718" x2="269.264" y2="69.718"><stop offset="0" style="stop-color:#673a73"/><stop offset="1" style="stop-color:#5b4189"/></linearGradient><path fill="url(#b)" d="M241.19 75.98V89.1c0 1.08.02 2.15-.01 3.23-.05 1.92-1.53 3.39-3.43 3.45-1.89.06-3.4-1.34-3.55-3.31-.02-.32-.03-.64-.03-.96V48.07c0-2.81 1.72-4.39 4.27-3.94 1.67.3 2.62 1.6 2.83 4.03 1.85-1.72 3.89-3 6.23-3.74 7.02-2.24 14.55.46 18.56 6.64 4.74 7.3 4.17 17.48-1.36 23.88-5.82 6.75-16 7.51-22.77 1.68-.17-.15-.35-.31-.74-.64zm10.7-25.63c-4.25-.08-7.48 1.58-10.24 4.33-.38.38-.47.78-.47 1.28.01 4.1.02 8.21 0 12.31 0 .56.16.97.57 1.36 2.21 2.12 4.73 3.66 7.81 4.1 6.03.87 10.99-2.01 12.3-8.06.42-1.93.45-3.85.25-5.81-.61-5.75-4.71-9.51-10.22-9.51z"/><linearGradient id="c" gradientUnits="userSpaceOnUse" x1="313.06" y1="62.106" x2="346.347" y2="62.106"><stop offset="0" style="stop-color:#673a73"/><stop offset="1" style="stop-color:#5b4189"/></linearGradient><path fill="url(#c)" d="M332 64.72c-3.48 0-6.96.05-10.43-.03-1.12-.02-1.36.24-1.07 1.32 1.23 4.69 4.63 7.5 9.67 7.82 3.56.23 7-.23 10.23-1.88 1.77-.9 3.65-.35 4.46 1.19.82 1.56.27 3.16-1.49 4.25-4.43 2.73-9.3 3.42-14.39 3.03-2.08-.16-4.11-.58-6.04-1.4-5.06-2.14-8.03-6.04-9.24-11.29-.92-4.02-.87-8.07.19-12.07 2.42-9.15 10.43-12.6 17.83-11.87 10.2 1 14.76 9.7 14.62 17.53-.04 2.1-1.44 3.38-3.67 3.4-3.55.01-7.11 0-10.67 0zm-2.15-5.89c2.6 0 5.2-.01 7.8 0 2.21.01 1.81.02 1.41-1.8-.99-4.5-4.95-7.36-9.84-7.22-4.44.13-8.08 3.37-8.85 7.83-.17.96.1 1.23 1.08 1.21 2.8-.06 5.6-.02 8.4-.02z"/><linearGradient id="d" gradientUnits="userSpaceOnUse" x1="354.495" y1="62.117" x2="382.024" y2="62.117"><stop offset="0" style="stop-color:#673a73"/><stop offset="1" style="stop-color:#5b4189"/></linearGradient><path fill="url(#d)" d="M368.76 43.68c3.23.07 6.41.56 9.48 1.66 1.98.71 2.88 2.31 2.31 4.09-.53 1.65-2.27 2.44-4.21 1.89-3.57-1.01-7.16-1.62-10.86-.72-.94.23-1.82.6-2.56 1.23-2.03 1.73-1.79 4.09.56 5.35 1.53.82 3.21 1.18 4.87 1.59 2.25.55 4.5 1.05 6.67 1.9 4.93 1.94 7.21 5.17 7 9.96-.19 4.3-3.13 7.85-7.88 9.11-6.3 1.67-12.35.76-18.09-2.25-1.45-.76-1.93-2.54-1.22-4.04.74-1.56 2.46-2.24 4.15-1.47 3.5 1.59 7.15 2.22 10.96 1.89 1.28-.11 2.53-.37 3.62-1.1 1.17-.78 1.66-1.91 1.58-3.28-.07-1.24-1.03-1.74-1.99-2.16-2.61-1.13-5.43-1.56-8.15-2.33-1.77-.51-3.48-1.14-5.13-1.96-7.44-3.71-5.97-13.5-.73-16.87 2.94-1.91 6.19-2.46 9.62-2.49z"/><linearGradient id="e" gradientUnits="userSpaceOnUse" x1="277.655" y1="62.099" x2="305.171" y2="62.099"><stop offset="0" style="stop-color:#673a73"/><stop offset="1" style="stop-color:#5b4189"/></linearGradient><path fill="url(#e)" d="M291.79 43.68c3.37.04 6.62.58 9.77 1.69 1.78.63 2.71 2.31 2.2 3.97-.51 1.65-2.21 2.51-4.04 2.01-3.29-.91-6.61-1.55-10.05-.98-1.27.21-2.48.58-3.52 1.4-2.08 1.65-1.91 4.07.41 5.34 2.17 1.18 4.61 1.52 6.96 2.12 2.17.55 4.32 1.13 6.32 2.16 3.47 1.78 5.33 4.58 5.33 8.52.01 3.96-1.79 6.85-5.24 8.74-2.22 1.22-4.64 1.7-7.13 1.82-4.55.21-8.9-.62-12.99-2.67-1.91-.96-2.62-2.63-1.85-4.3.79-1.72 2.47-2.3 4.44-1.43 3.44 1.52 7.02 2.1 10.75 1.78 1.28-.11 2.53-.38 3.61-1.13 2.23-1.55 2.05-4.24-.39-5.37-2.25-1.04-4.69-1.47-7.07-2.08-3.03-.79-6.04-1.65-8.44-3.75-4.86-4.25-3.55-12.72 2.4-15.93 2.67-1.45 5.56-1.89 8.53-1.91z"/><linearGradient id="f" gradientUnits="userSpaceOnUse" x1="193.736" y1="54.606" x2="200.855" y2="54.606"><stop offset="0" style="stop-color:#673a73"/><stop offset="1" style="stop-color:#5b4189"/></linearGradient><path fill="url(#f)" d="M200.84 54.72c0 7.18.01 14.36 0 21.54 0 2.21-1.22 3.69-3.12 3.85-2.34.2-3.95-1.28-3.98-3.71-.02-2.99-.01-5.98-.01-8.97V33.68c0-.44-.02-.88.03-1.31.26-2 1.77-3.36 3.62-3.28 1.93.08 3.4 1.57 3.44 3.61.05 2.91.01 5.82.01 8.74.01 4.42.01 8.85.01 13.28z"/><linearGradient id="g" gradientUnits="userSpaceOnUse" x1="173.019" y1="54.601" x2="180.052" y2="54.601"><stop offset="0" style="stop-color:#673a73"/><stop offset="1" style="stop-color:#5b4189"/></linearGradient><path fill="url(#g)" d="M180.05 54.7c0 7.26.01 14.52 0 21.78 0 2.31-1.41 3.69-3.64 3.65-1.73-.04-3.12-1.28-3.34-3-.04-.31-.04-.64-.04-.96 0-14.32 0-28.64-.01-42.96 0-1.43.31-2.69 1.58-3.52 1.17-.77 2.41-.81 3.63-.15 1.28.69 1.82 1.81 1.82 3.26-.01 7.3 0 14.6 0 21.9z"/><linearGradient id="h" gradientUnits="userSpaceOnUse" x1="214.25" y1="62.094" x2="221.272" y2="62.094"><stop offset="0" style="stop-color:#673a73"/><stop offset="1" style="stop-color:#5b4189"/></linearGradient><path fill="url(#h)" d="M221.27 62.28c0 4.83.01 9.66-.01 14.48a3.357 3.357 0 0 1-2.75 3.31c-1.81.31-3.35-.49-4.01-2.07-.22-.53-.24-1.09-.24-1.64 0-9.5-.01-18.99 0-28.49 0-2.34 1.41-3.83 3.52-3.81 2.09.02 3.49 1.56 3.49 3.86v14.36z"/><path fill="#85B755" d="M347.41 95.2c-1.66 4.1-3.2 7.89-4.74 11.69-.37.92-.78 1.83-1.13 2.77-.33.88-.94 1.46-1.86 1.42-.88-.04-1.52-.55-1.87-1.44-1.71-4.29-3.47-8.57-5.21-12.85-.17-.43-.37-.85-.62-1.43-.32.55-.21.98-.21 1.39-.01 3.99 0 7.98-.01 11.97 0 1.7-.4 2.37-1.35 2.38-.94.01-1.31-.67-1.31-2.39V94.47c0-1.76.41-2.45 1.57-2.7 1.65-.35 2.61.17 3.26 1.82 1.82 4.59 3.64 9.18 5.45 13.77.07.19.15.36.51.45.6-1.48 1.23-2.97 1.83-4.47 1.33-3.33 2.65-6.66 3.99-9.99.59-1.46 1.91-2.05 3.41-1.5.72.26 1.04.85 1.04 1.59.01 5.46.01 10.93.01 16.39 0 .87-.52 1.27-1.28 1.23-.83-.05-1.23-.59-1.22-1.47.02-4.11.01-8.22.01-12.32-.01-.59.03-1.18-.27-2.07zm26.69 16.05c-6.7.16-11-5.13-9.96-11.64 1.22-7.66 8.88-9.44 14.4-7.01.4.18.79.39 1.17.6.69.37 1.05.92.68 1.67-.39.78-1.11.76-1.76.42-1.34-.69-2.73-1.1-4.24-1.15-2.96-.09-5.51.69-6.88 3.54-1.42 2.95-1.32 5.93.67 8.59 1.7 2.28 4.23 2.71 6.89 2.44a8.97 8.97 0 0 0 3.41-1.05c.68-.37 1.42-.55 1.87.29.47.87-.04 1.4-.8 1.81-1.82 1.01-3.75 1.58-5.45 1.49zm-58.27-8.9c0-2.35-.04-4.7.02-7.05.03-.92-.29-1.16-1.16-1.11-1.39.07-2.79.01-4.19.02-.81.01-1.35-.34-1.35-1.16 0-.81.52-1.2 1.33-1.2 4.43 0 8.86-.01 13.29-.01.8 0 1.31.38 1.34 1.2.03.88-.54 1.17-1.32 1.17-1.44 0-2.88.05-4.31-.02-.84-.04-1.09.24-1.08 1.07.03 4.66.02 9.32.01 13.98 0 .43.09.89-.21 1.27-.38.48-.86.7-1.47.51-.68-.21-.89-.72-.89-1.38 0-2.43 0-4.86-.01-7.29.01 0 0 0 0 0zm-94.04-68.21c-.01 2.45-1.6 4.03-4.05 4.02-2.33-.01-4.06-1.68-4.08-3.94-.02-2.37 1.81-4.17 4.18-4.11 2.37.06 3.95 1.68 3.95 4.03z"/><linearGradient id="i" gradientUnits="userSpaceOnUse" x1="63.601" y1="88.547" x2="71.774" y2="88.547"><stop offset="0" style="stop-color:#673a73"/><stop offset="1" style="stop-color:#5b4189"/></linearGradient><path fill="url(#i)" d="M63.6 88.53c0-2.44 1.55-3.95 4.07-3.96 2.46-.01 4.11 1.58 4.1 3.97-.01 2.38-1.66 3.99-4.1 3.99-2.45 0-4.07-1.59-4.07-4z"/><path fill="#85B755" d="M356.36 101.39c0-2.63.01-5.26 0-7.89 0-.89.06-1.75 1.19-1.87.87-.09 1.4.62 1.4 1.83.01 5.3-.01 10.6.01 15.89 0 .98-.33 1.72-1.37 1.72-1.02 0-1.24-.77-1.23-1.68.02-2.66 0-5.33 0-8zm-74.42 8.87v3c0 .54-.02 1.12-.71 1.17-.72.05-.8-.54-.8-1.08-.01-3.03-.01-6.05 0-9.08 0-.41.05-.81.51-.98.4-.15.73-.01.91.35.23.47.49.23.76.08 1.45-.83 2.85-.68 4.12.35 1.36 1.12 1.54 2.67 1.16 4.25-.36 1.52-1.43 2.43-2.99 2.74-1.03.2-1.87-.25-2.96-.8zm0-3.16c0 1.74.73 2.57 2.29 2.61 1.45.03 2.38-1.01 2.36-2.69-.01-1.7-.81-2.61-2.28-2.59-1.61.03-2.37.88-2.37 2.67zm13.95.82c0 .8.05 1.6-.01 2.39-.06.72-.6 1.1-1.11.54-.48-.52-.72-.39-1.22-.15-.8.38-1.64.54-2.55.3-1.08-.27-1.66-.96-1.75-2-.09-1.06.47-1.81 1.43-2.26.95-.43 1.96-.36 2.95-.31.94.05.87-.39.6-1-.34-.76-1.06-.82-1.73-.79-.67.03-1.33.23-2 .33-.33.05-.66 0-.79-.38-.11-.33-.02-.62.27-.85 1.03-.82 4.16-.7 5.11.23.54.52.81 1.17.81 1.93 0 .66 0 1.34-.01 2.02.01 0 .01 0 0 0zm-3.4-.38s-1.23.06-1.54.69c-.19.38-.13.79.17 1.11.5.51 1.13.52 1.78.38.19-.04.38-.12.56-.21.63-.31 1.25-.67 1.04-1.51-.22-.83-2.01-.46-2.01-.46zm7.16-3.53c.7-.5 1.23-1.01 2.02-.98.49.02.89.17.92.73.03.5-.3.65-.75.75-2.1.43-2.34.74-2.35 2.84 0 .92-.01 1.84 0 2.75 0 .52-.21.87-.77.84-.49-.02-.67-.37-.67-.82 0-2.04 0-4.07-.01-6.11 0-.46.15-.8.62-.88.64-.12.77.41.99.88z"/>
</svg>