<svg width="78" height="78" viewBox="0 0 88 88" fill="none" xmlns="http://www.w3.org/2000/svg">
<path fill-rule="evenodd" clip-rule="evenodd" d="M39.6563 7.7C37.3848 7.7 35.5792 9.51277 35.5792 11.7333V76.2667C35.5792 78.4872 37.3848 80.3 39.6563 80.3H76.2218C78.4933 80.3 80.2988 78.4872 80.2988 76.2667V31.0732C80.2988 29.9594 81.202 29.0565 82.316 29.0565C83.4301 29.0565 84.3332 29.9594 84.3332 31.0732V76.2667C84.3332 80.7414 80.6946 84.3333 76.2218 84.3333H39.6563C35.1835 84.3333 31.5449 80.7414 31.5449 76.2667V11.7333C31.5449 7.25856 35.1835 3.66666 39.6563 3.66666H76.2218C80.6946 3.66666 84.3332 7.25856 84.3332 11.7333V16.9565C84.3332 18.0703 83.4301 18.9732 82.316 18.9732C81.202 18.9732 80.2988 18.0703 80.2988 16.9565V11.7333C80.2988 9.51277 78.4933 7.7 76.2218 7.7H39.6563ZM25.0922 10.1939C25.3745 11.2713 24.7296 12.3735 23.6519 12.6557L10.7095 16.0443C8.5419 16.6091 7.26142 18.8252 7.84128 20.9671L23.4428 78.7256C23.7333 79.8008 23.0968 80.9079 22.0213 81.1982C20.9458 81.4886 19.8384 80.8523 19.548 79.7771L3.94699 22.0208C2.78066 17.7102 5.35893 13.2712 9.69075 12.1417L22.6298 8.75394C23.7075 8.47177 24.81 9.11646 25.0922 10.1939ZM47.0403 39.7523C48.8856 33.7615 54.5306 29.3333 61.3285 29.3333C64.0626 29.3333 66.6258 30.0569 68.8265 31.3151C69.6488 31.7851 69.9249 32.8085 69.3957 33.596C68.8801 34.3634 67.8135 34.5823 67.0084 34.1221C65.3326 33.164 63.395 32.6191 61.3285 32.6191C56.5751 32.6191 52.4197 35.541 50.7186 39.7523H58.034C58.9706 39.7523 59.7823 40.4602 59.7823 41.3952C59.7823 42.3303 58.9706 43.0381 58.034 43.0381H49.9388C49.9124 43.3548 49.8989 43.6756 49.8989 44C49.8989 44.7766 49.9768 45.5336 50.1249 46.2642H58.034C58.9706 46.2642 59.7823 46.9721 59.7823 47.9071C59.7823 48.8421 58.9706 49.55 58.034 49.55H51.348C52.2412 51.1381 53.5043 52.4884 55.0142 53.4873C56.8281 54.6873 58.9975 55.3809 61.3285 55.3809C63.395 55.3809 65.3326 54.836 67.0084 53.8779C67.8135 53.4177 68.8801 53.6365 69.3957 54.404C69.9249 55.1915 69.6488 56.2149 68.8265 56.6849C66.6258 57.9431 64.0626 58.6667 61.3285 58.6667C58.2415 58.6667 55.3747 57.7445 53.0007 56.174C50.556 54.5567 48.633 52.2527 47.5082 49.55H43.9148C42.9782 49.55 42.1665 48.8421 42.1665 47.9071C42.1665 46.9721 42.9782 46.2642 43.9148 46.2642H46.5793C46.4627 45.5255 46.4023 44.7692 46.4023 44C46.4023 43.6771 46.413 43.3563 46.4341 43.0381H43.9148C42.9782 43.0381 42.1665 42.3303 42.1665 41.3952C42.1665 40.4602 42.9782 39.7523 43.9148 39.7523H47.0403Z" fill="#C7C8CB"/>
</svg>
