<svg width="30" height="31" viewBox="0 0 30 31" fill="none" xmlns="http://www.w3.org/2000/svg">
<path fill-rule="evenodd" clip-rule="evenodd" d="M14.5322 3.97632C13.7836 3.97632 13.2164 4.55357 13.2164 5.22632V25.2263C13.2164 25.8991 13.7836 26.4763 14.5322 26.4763H26.1824C26.9311 26.4763 27.4982 25.8991 27.4982 25.2263V11.2201C27.4982 10.8749 27.7784 10.5951 28.1241 10.5951C28.4698 10.5951 28.75 10.8749 28.75 11.2201V25.2263C28.75 26.6286 27.5825 27.7263 26.1824 27.7263H14.5322C13.1321 27.7263 11.9646 26.6286 11.9646 25.2263V5.22632C11.9646 3.82406 13.1321 2.72632 14.5322 2.72632H26.1824C27.5825 2.72632 28.75 3.82406 28.75 5.22632V6.84507C28.75 7.19025 28.4698 7.47007 28.1241 7.47007C27.7784 7.47007 27.4982 7.19025 27.4982 6.84507V5.22632C27.4982 4.55357 26.9311 3.97632 26.1824 3.97632H14.5322ZM10.4521 4.91339C10.5389 5.24752 10.3379 5.58861 10.0033 5.67522L6.59924 6.55637C5.88555 6.74169 5.49266 7.43714 5.67272 8.08412L10.6371 25.9847C10.7294 26.3173 10.5341 26.6617 10.201 26.7538C9.86785 26.8459 9.523 26.6509 9.43074 26.3183L4.46662 8.41882C4.0903 7.06596 4.92713 5.69879 6.28436 5.34657L9.68919 4.46522C10.0238 4.3786 10.3654 4.57925 10.4521 4.91339ZM3.15442 15.0662C3.45636 14.8981 3.56469 14.5175 3.39639 14.216C3.22809 13.9145 2.84689 13.8063 2.54495 13.9743C1.31397 14.6595 0.876424 16.1981 1.60073 17.4038L1.60107 17.4044L6.64883 25.8408C6.82613 26.1371 7.21042 26.2338 7.50716 26.0568C7.80391 25.8797 7.90074 25.496 7.72345 25.1997L2.67504 16.7622L2.67439 16.7611C2.32476 16.1794 2.52156 15.4184 3.15442 15.0662Z" fill="#161617"/>
</svg>
