<svg width="48" height="48" viewBox="0 0 48 48" fill="none" xmlns="http://www.w3.org/2000/svg">
<path id="icon" fill-rule="evenodd" clip-rule="evenodd" d="M23.9807 4.65016C23.6901 4.06926 22.9836 3.83393 22.4027 4.12453C21.8218 4.41513 21.5865 5.12162 21.8771 5.70252C22.4876 6.92284 22.705 7.37245 22.8125 7.80218C22.9159 8.21559 22.9237 8.63493 22.9237 9.85727C22.9237 10.5068 23.4502 11.0333 24.0998 11.0333C24.7493 11.0333 25.2758 10.5068 25.2758 9.85727L25.2759 9.72962C25.2762 8.68126 25.2764 7.95908 25.0943 7.23142C24.9162 6.51913 24.5689 5.82523 24.0439 4.77645L24.0439 4.77641L23.9807 4.65016ZM22.3434 20.3893C23.0576 20.3893 23.6723 19.9632 23.9468 19.3514C24.3445 19.7241 24.7432 20.1098 25.1414 20.5078C26.6611 22.0267 28.0023 23.5536 29.1205 25.0005C28.7488 25.1796 28.3897 25.3801 28.0449 25.6002C27.4974 25.9497 27.3369 26.6769 27.6864 27.2244C28.0359 27.7719 28.763 27.9324 29.3105 27.5829C29.6946 27.3377 30.1004 27.1246 30.5242 26.9477C30.9005 27.5125 31.2346 28.0563 31.523 28.5728C32.1771 29.7441 32.5627 30.7148 32.7047 31.4343C32.7752 31.7915 32.7758 32.0383 32.7507 32.1936C32.7463 32.2206 32.7413 32.2436 32.7363 32.2631L32.2038 32.437C32.0804 32.4306 31.9331 32.4129 31.7598 32.3787C31.0399 32.2368 30.0687 31.8514 28.8969 31.1976C26.5678 29.8984 23.6837 27.6739 20.8276 24.8194C17.9716 21.9648 15.746 19.0822 14.446 16.7544C13.792 15.5831 13.4063 14.6124 13.2643 13.8929C13.2332 13.7353 13.2157 13.5991 13.208 13.4829L13.3946 12.9134C13.4107 12.9096 13.429 12.9059 13.4496 12.9026C13.6049 12.8775 13.8519 12.878 14.2092 12.9485C14.9291 13.0904 15.9003 13.4759 17.0722 14.1296C18.3802 14.8593 19.8633 15.8807 21.4181 17.1417C20.9193 17.4513 20.5871 18.0039 20.5871 18.634C20.5871 19.6034 21.3734 20.3893 22.3434 20.3893ZM32.9516 26.3705C33.1765 26.7304 33.3855 27.083 33.5774 27.4268C34.2897 28.7023 34.8035 29.918 35.013 30.9792C35.2109 31.9821 35.1936 33.1727 34.375 34.0091C34.2941 34.1076 34.1967 34.1937 34.0851 34.2625C33.644 34.5906 33.1303 34.7399 32.6079 34.7794L20.1819 38.8359C20.0691 38.9327 19.936 39.0096 19.7862 39.0592C19.4472 39.1715 19.087 39.2581 18.7098 39.3165L4.73111 43.88L4.72718 43.8813C2.87608 44.4947 1.18623 42.7329 1.7642 40.9305L1.76609 40.9247L1.76611 40.9247L6.34565 26.8983C6.39574 26.525 6.48087 26.1671 6.60512 25.8319C6.82519 25.238 7.47407 24.9277 8.07092 25.1218C8.099 25.1288 8.12703 25.1368 8.15497 25.1459C8.77242 25.3475 9.10954 26.0115 8.90795 26.6289L8.65689 27.3979C8.62002 27.8437 8.65158 28.3872 8.77958 29.0119C8.98147 29.9973 9.40794 31.104 10.0705 32.1962C10.093 32.2257 10.1143 32.2565 10.1343 32.2885C10.5934 33.0248 11.1472 33.7377 11.8059 34.396C14.054 36.643 16.4901 37.2159 18.1843 37.0137L28.4959 33.6474C28.2502 33.5235 28.0013 33.3911 27.7502 33.251C25.1831 31.8189 22.1286 29.4452 19.164 26.4822C16.1994 23.5191 13.8244 20.4662 12.3916 17.9004C12.2538 17.6537 12.1234 17.4091 12.0012 17.1675L10.9449 20.3926C10.7428 21.0099 10.0785 21.3464 9.4612 21.1442C8.84394 20.9421 8.50743 20.2778 8.7096 19.6605L10.8588 13.0987C10.8987 12.4472 11.1057 11.806 11.6135 11.2985C12.4512 10.4612 13.6533 10.442 14.6646 10.6414C15.7264 10.8508 16.9427 11.3643 18.2189 12.0762C20.7859 13.5083 23.8405 15.882 26.8051 18.8451C28.6026 20.6416 30.1834 22.4713 31.4688 24.2053C32.1218 24.0707 32.7977 23.9995 33.4899 23.9995C36.0066 23.9995 38.3282 24.9269 40.0935 26.4657C40.5831 26.8925 40.634 27.6354 40.2072 28.125C39.7804 28.6146 39.0375 28.6656 38.5479 28.2387C37.1987 27.0626 35.4223 26.3517 33.4899 26.3517C33.309 26.3517 33.1295 26.358 32.9516 26.3705ZM10.1431 36.0597C11.2491 37.1651 12.4293 37.9669 13.6075 38.5079L4.00616 41.6423L7.21973 31.7997C7.47457 32.384 7.78084 32.9692 8.13733 33.5431C8.16034 33.5802 8.18508 33.6155 8.21137 33.649C8.74486 34.4869 9.3849 35.3019 10.1431 36.0597ZM45.1748 32.0917C45.8215 32.0917 46.3457 31.5677 46.3457 30.9214C46.3457 30.2751 45.8215 29.7512 45.1748 29.7512C44.5282 29.7512 44.004 30.2751 44.004 30.9214C44.004 31.5677 44.5282 32.0917 45.1748 32.0917ZM32.3502 10.4128C32.4308 9.76831 31.9737 9.18048 31.3292 9.09988C30.6847 9.01927 30.0968 9.47641 30.0162 10.1209C29.7137 12.5402 28.7836 14.8441 27.3547 16.7915C26.9705 17.3152 27.0835 18.0512 27.6072 18.4354C28.1309 18.8197 28.8669 18.7066 29.2512 18.1829C30.9134 15.9175 31.9971 13.2362 32.3502 10.4128ZM38.7353 18.0488C39.7053 18.0488 40.4916 17.263 40.4916 16.2935C40.4916 15.324 39.7053 14.5382 38.7353 14.5382C37.7654 14.5382 36.9791 15.324 36.9791 16.2935C36.9791 17.263 37.7654 18.0488 38.7353 18.0488ZM41.6623 11.0275C41.6623 11.6738 41.1381 12.1977 40.4914 12.1977C39.8448 12.1977 39.3206 11.6738 39.3206 11.0275C39.3206 10.3812 39.8448 9.85723 40.4914 9.85723C41.1381 9.85723 41.6623 10.3812 41.6623 11.0275Z"/>
</svg>
