<svg width="100" height="80" viewBox="0 0 100 80" fill="none" xmlns="http://www.w3.org/2000/svg">
<path fill-rule="evenodd" clip-rule="evenodd" d="M31.5283 75.896C29.1807 77.247 25.8039 76.3309 24.1022 73.392L20.487 67.1486C20.1374 66.5448 20.2269 65.7521 20.7462 65.212L20.754 65.2038C24.0531 61.724 24.585 56.1622 21.9505 51.6123C19.3159 47.0625 14.2192 44.7409 9.54719 45.8497L9.53615 45.8523C8.80267 46.0319 8.07984 45.7216 7.72452 45.1079L4.10928 38.8645C2.40744 35.9254 3.30036 32.5512 5.64803 31.1998L52.7163 4.10434C55.0639 2.75287 58.4411 3.6689 60.1429 6.60798L63.7581 12.8514C64.1078 13.4552 64.0182 14.2479 63.4989 14.788L63.4911 14.7962C60.192 18.276 59.6601 23.8378 62.2947 28.3877C64.9276 32.9348 70.0098 35.2686 74.6998 34.1498L74.709 34.1476C75.4425 33.9681 76.1653 34.2784 76.5206 34.8921L78.886 38.9771C70.3845 40.4276 63.9171 47.7943 63.9171 56.6667C63.9171 66.5811 71.9929 74.6154 81.9585 74.6154C91.9242 74.6154 100 66.5811 100 56.6667C100 53.574 99.2094 50.6576 97.8172 48.1097C97.4393 47.4183 96.5696 47.1625 95.8746 47.5384C95.1796 47.9143 94.9224 48.7795 95.3003 49.471C96.4706 51.6127 97.1352 54.0626 97.1352 56.6667C97.1352 65.007 90.342 71.7653 81.9585 71.7653C73.5751 71.7653 66.7819 65.007 66.7819 56.6667C66.7819 48.3263 73.5751 41.568 81.9585 41.568C84.5419 41.568 86.9747 42.2083 89.0947 43.3417C89.7915 43.7143 90.66 43.4543 91.0344 42.761C91.4089 42.0678 91.1476 41.2038 90.4508 40.8312C88.0721 39.5595 85.3689 38.8114 82.5086 38.7261L81.1299 36.401L79.3223 33.2793C78.2228 31.3804 76.0219 30.5073 73.9431 31.0137C70.7894 31.764 67.0888 30.2157 65.0964 26.7748C63.1056 23.3368 63.6212 19.3577 65.8391 17.0152C67.3207 15.4698 67.6486 13.119 66.5598 11.2386L62.9446 4.99516C60.5055 0.782889 55.2509 -1.07943 51.0987 1.31085L4.03048 28.4063C-0.121744 30.7966 -1.13147 36.265 1.3076 40.4773L4.92284 46.7207C6.02212 48.6192 8.22228 49.4923 10.3007 48.9867C13.4442 48.2428 17.158 49.7872 19.1488 53.2252C21.1394 56.663 20.624 60.6418 18.4064 62.9844C16.9244 64.5298 16.5964 66.8809 17.6853 68.7614L21.3005 75.0049C23.7396 79.2171 28.9942 81.0794 33.1464 78.6892L57.9831 64.3543C58.7564 63.9084 59.0207 62.9218 58.5734 62.1507C58.1261 61.3797 57.1366 61.1162 56.3633 61.5621L31.5283 75.896Z" fill="#CBCDD2"/>
<path d="M57.0126 50.0375C56.239 50.4829 55.2497 50.2186 54.803 49.4472L41.8222 27.0294C41.3755 26.258 41.6406 25.2716 42.4142 24.8263C43.1879 24.3809 44.1772 24.6452 44.6239 25.4166L57.6047 47.8344C58.0514 48.6058 57.7863 49.5921 57.0126 50.0375Z" fill="#CBCDD2"/>
<path d="M77.3978 49.8313C76.7606 49.1961 75.7264 49.1951 75.0879 49.8291C74.4494 50.463 74.4484 51.4919 75.0856 52.1272L79.6447 56.6716L75.1145 61.2091C74.4788 61.8459 74.4823 62.8748 75.1224 63.5072C75.7624 64.1397 76.7966 64.1362 77.4323 63.4994L81.9584 58.966L86.524 63.4787C87.164 64.1112 88.1982 64.1079 88.834 63.4712C89.4698 62.8345 89.4664 61.8056 88.8265 61.1731L84.2626 56.6622L88.8004 52.1581C89.439 51.5242 89.4402 50.4953 88.803 49.86C88.1659 49.2247 87.1317 49.2235 86.493 49.8573L81.9489 54.3678L77.3978 49.8313Z" fill="#CBCDD2"/>
</svg>