<svg width="49" height="48" viewBox="0 0 49 48" xmlns="http://www.w3.org/2000/svg">
<path id="icon" fill="currentColor" fill-rule="evenodd" clip-rule="evenodd" d="M19.5093 6.64972C20.5936 5.04503 22.4242 4 24.507 4C27.8379 4 30.5267 6.68457 30.5267 10V15C30.5267 18.3154 27.8379 21 24.507 21C21.1761 21 18.4873 18.3154 18.4873 15V10C18.4873 8.7548 18.8658 7.59935 19.5086 6.65079L19.5093 6.64972ZM24.507 2C21.736 2 19.2945 3.39474 17.8515 5.52974C16.9902 6.80109 16.4864 8.34543 16.4864 10V15C16.4864 19.4246 20.0756 23 24.507 23C28.9384 23 32.5276 19.4246 32.5276 15V10C32.5276 5.57543 28.9384 2 24.507 2ZM24.4969 25.25C16.5789 25.25 9.95257 30.6381 8.03488 37.9256C7.94811 38.2554 8.03541 38.6066 8.26649 38.8574C12.297 43.2322 18.0653 46 24.507 46C26.2718 46 27.9737 45.7904 29.6113 45.4031C30.149 45.276 30.4818 44.7372 30.3545 44.1998C30.2273 43.6623 29.6883 43.3297 29.1506 43.4569C27.6592 43.8096 26.1118 44 24.507 44C18.853 44 13.7685 41.6563 10.1197 37.9053C11.9866 31.7431 17.7051 27.25 24.4969 27.25C31.2898 27.25 37.0174 31.7441 38.8845 37.9061C37.9297 38.89 36.8741 39.7802 35.7312 40.5511C35.2732 40.86 35.1525 41.4816 35.4615 41.9394C35.7706 42.3972 36.3924 42.5178 36.8505 42.2089C38.2814 41.2437 39.584 40.112 40.7382 38.8566C40.9687 38.6058 41.0557 38.255 40.969 37.9256C39.0511 30.6374 32.4143 25.25 24.4969 25.25Z"/>
</svg>
