<svg width="40" height="40" viewBox="0 0 40 40" fill="none" xmlns="http://www.w3.org/2000/svg">
<g id="icon">
<path d="M18.3333 3.33333C17.8769 3.33333 17.5 3.71024 17.5 4.16667V19.1667H23.3333C25.1769 19.1667 26.6667 20.6564 26.6667 22.5V37.5C26.6667 37.9602 26.2936 38.3333 25.8333 38.3333H18.3333C17.8731 38.3333 17.5 37.9602 17.5 37.5V30.8333C17.5 30.3769 17.1231 30 16.6667 30H15C14.5436 30 14.1667 30.3769 14.1667 30.8333V37.5C14.1667 37.9602 13.7936 38.3333 13.3333 38.3333H3.33333C2.8731 38.3333 2.5 37.9602 2.5 37.5C2.5 37.0398 2.8731 36.6667 3.33333 36.6667H5V22.5C5 20.6564 6.48976 19.1667 8.33333 19.1667H9.16667C9.6269 19.1667 10 19.5398 10 20C10 20.4602 9.6269 20.8333 9.16667 20.8333H8.33333C7.41024 20.8333 6.66667 21.5769 6.66667 22.5V36.6667H12.5V30.8333C12.5 29.4564 13.6231 28.3333 15 28.3333H16.6667C18.0436 28.3333 19.1667 29.4564 19.1667 30.8333V36.6667H25V22.5C25 21.5769 24.2564 20.8333 23.3333 20.8333H13.3333C12.8731 20.8333 12.5 20.4602 12.5 20C12.5 19.5398 12.8731 19.1667 13.3333 19.1667H15.8333V4.16667C15.8333 2.78976 16.9564 1.66667 18.3333 1.66667H33.3333C34.7102 1.66667 35.8333 2.78976 35.8333 4.16667V10C35.8333 10.4602 35.4602 10.8333 35 10.8333C34.5398 10.8333 34.1667 10.4602 34.1667 10V4.16667C34.1667 3.71024 33.7898 3.33333 33.3333 3.33333H18.3333Z" fill="#161617"/>
<path d="M35 13.4166C35.4602 13.4166 35.8333 13.7897 35.8333 14.25V36.6667H36.6667C37.1269 36.6667 37.5 37.0398 37.5 37.5C37.5 37.9602 37.1269 38.3333 36.6667 38.3333L30 38.3333C29.5398 38.3333 29.1667 37.9602 29.1667 37.5C29.1667 37.0397 29.5398 36.6666 30 36.6666H34.1667V14.25C34.1667 13.7897 34.5398 13.4166 35 13.4166Z" fill="#161617"/>
<path d="M30.8333 13.3333C31.2936 13.3333 31.6667 13.7064 31.6667 14.1667V15.8333C31.6667 16.2936 31.2936 16.6667 30.8333 16.6667C30.3731 16.6667 30 16.2936 30 15.8333V14.1667C30 13.7064 30.3731 13.3333 30.8333 13.3333Z" fill="#161617"/>
<path d="M31.6667 20.8333C31.6667 20.3731 31.2936 20 30.8333 20C30.3731 20 30 20.3731 30 20.8333V22.5C30 22.9602 30.3731 23.3333 30.8333 23.3333C31.2936 23.3333 31.6667 22.9602 31.6667 22.5V20.8333Z" fill="#161617"/>
<path d="M30.8333 27.5C31.2936 27.5 31.6667 27.8731 31.6667 28.3333V30C31.6667 30.4602 31.2936 30.8333 30.8333 30.8333C30.3731 30.8333 30 30.4602 30 30V28.3333C30 27.8731 30.3731 27.5 30.8333 27.5Z" fill="#161617"/>
<path d="M31.6667 7.5C31.6667 7.03976 31.2936 6.66667 30.8333 6.66667C30.3731 6.66667 30 7.03976 30 7.5V9.16667C30 9.6269 30.3731 10 30.8333 10C31.2936 10 31.6667 9.6269 31.6667 9.16667V7.5Z" fill="#161617"/>
<path d="M25.8333 13.3333C26.2936 13.3333 26.6667 13.7064 26.6667 14.1667V15.8333C26.6667 16.2936 26.2936 16.6667 25.8333 16.6667C25.3731 16.6667 25 16.2936 25 15.8333V14.1667C25 13.7064 25.3731 13.3333 25.8333 13.3333Z" fill="#161617"/>
<path d="M26.6667 7.5C26.6667 7.03976 26.2936 6.66667 25.8333 6.66667C25.3731 6.66667 25 7.03976 25 7.5V9.16667C25 9.6269 25.3731 10 25.8333 10C26.2936 10 26.6667 9.6269 26.6667 9.16667V7.5Z" fill="#161617"/>
<path d="M20.8333 13.3333C21.2936 13.3333 21.6667 13.7064 21.6667 14.1667V15.8333C21.6667 16.2936 21.2936 16.6667 20.8333 16.6667C20.3731 16.6667 20 16.2936 20 15.8333V14.1667C20 13.7064 20.3731 13.3333 20.8333 13.3333Z" fill="#161617"/>
<path d="M21.6667 7.5C21.6667 7.03976 21.2936 6.66667 20.8333 6.66667C20.3731 6.66667 20 7.03976 20 7.5V9.16667C20 9.6269 20.3731 10 20.8333 10C21.2936 10 21.6667 9.6269 21.6667 9.16667V7.5Z" fill="#161617"/>
</g>
</svg>
