<svg viewBox="0 0 124 124" aria-hidden="true"><path d="M62 23.25c21.402 0 38.75 17.347 38.75 38.75a38.594 38.594 0 0 1-8.005 23.589 1.97 1.97 0 1 1-3.125-2.401A34.65 34.65 0 0 0 96.81 62c0-19.226-15.584-34.81-34.81-34.81-19.227 0-34.81 15.583-34.81 34.81 0 19.224 15.585 34.81 34.81 34.81 4.716 0 9.3-.94 13.547-2.737a1.971 1.971 0 0 1 1.536 3.629A38.62 38.62 0 0 1 62 100.75c-21.402 0-38.75-17.35-38.75-38.75 0-21.404 17.346-38.75 38.75-38.75zm-.001 19.523c.997 0 1.822.74 1.952 1.703l.018.267v23.384a1.97 1.97 0 0 1-3.922.267l-.018-.267V44.743a1.97 1.97 0 0 1 1.97-1.97zm2.627 36.14a2.625 2.625 0 0 0-2.627-2.627 2.627 2.627 0 1 0 2.627 2.627" fill="#626262"/></svg>