<svg xmlns="http://www.w3.org/2000/svg" aria-hidden="true" viewBox="55 8 107.5 105"><path d="M125.542 41.941c1.26 0 2.3.996 2.441 2.279l.017.3v54.163c0 5.552-4.311 10.038-9.678 10.304l-.507.013h-38.63c-5.43 0-9.906-4.317-10.172-9.8L69 98.684V44.52c0-1.424 1.1-2.579 2.458-2.579 1.261 0 2.3.996 2.442 2.279l.017.3v54.163c0 2.699 2.135 4.954 4.888 5.146l.38.013h38.63c2.807 0 5.064-2.139 5.255-4.794l.013-.365V44.52c0-1.424 1.101-2.579 2.459-2.579zm20.681-1.13l9.263 3.932.128.06c.931.486 1.335 1.58.934 2.525a1.977 1.977 0 01-2.597 1.032l-9.263-3.932-.128-.06c-.931-.486-1.335-1.58-.934-2.525.425-1 1.589-1.46 2.597-1.031zM106.226 14c5.43 0 9.906 4.385 10.172 9.953l.013.525L116.41 32h18.023c1.418 0 2.567 1.343 2.567 3 0 1.539-.99 2.807-2.267 2.98l-.3.02H62.567C61.149 38 60 36.657 60 35c0-1.539.99-2.807 2.267-2.98l.3-.02h18.022v-7.522c0-5.639 4.311-10.194 9.679-10.465l.506-.013h15.452zm48.742 14.468a1.977 1.977 0 012.452 1.34c.283.987-.251 2.023-1.235 2.392l-.134.044-9.673 2.774a1.977 1.977 0 01-2.452-1.34c-.283-.988.251-2.024 1.234-2.393l.135-.044zm-48.742-9.229H90.774a5.258 5.258 0 00-5.255 4.868l-.013.37L85.505 32h25.989v-7.522c0-2.74-2.135-5.032-4.889-5.226l-.379-.013zm40.68-3.739a1.975 1.975 0 012.786-.211c.775.673.891 1.833.267 2.678l-.089.11-6.601 7.594a1.976 1.976 0 01-2.787.212c-.774-.674-.891-1.834-.267-2.678l.089-.11z" fill="#626262"/></svg>