<svg aria-hidden="true" width="32" height="32"><path d="M23.3 8.225a.845.845 0 011.12-.025.68.68 0 01.028 1.024l-5.322 5.11c-1.166 1.12-1.166 2.879 0 3.998l5.322 5.11c.302.29.29.749-.027 1.025a.845.845 0 01-1.12-.025l-5.323-5.11c-1.749-1.68-1.749-4.318 0-5.997zm-14.6 0l5.322 5.11c1.749 1.679 1.749 4.318 0 5.997L8.7 24.442a.846.846 0 01-1.12.025.681.681 0 01-.028-1.025l5.322-5.11c1.166-1.12 1.166-2.878 0-3.998l-5.322-5.11c-.302-.29-.29-.748.027-1.024s.819-.265 1.12.025z" fill="#151515" fill-rule="evenodd"/></svg>
