<svg width="32" height="32" viewBox="0 0 32 32">
<path fill="#fff" d="M15.936 25.088c.318 0 .576.27.576.603v5.45c0 .333-.258.603-.576.603-.318 0-.576-.27-.576-.602V25.69c0-.333.258-.603.576-.603zm4.036 1.059l1.119 3.524c.1.318-.07.66-.38.763-.061.02-.123.03-.184.03-.25 0-.482-.163-.563-.419l-1.119-3.523c-.1-.319.07-.66.38-.764.312-.104.646.07.747.389zm-7.843 1.274c.315.1.488.43.385.738l-.334 1.004c-.083.248-.318.405-.571.405-.062 0-.124-.01-.186-.029-.315-.1-.488-.43-.385-.738l.334-1.004c.103-.308.442-.476.757-.376zm-2.134-3.497c.266.197.324.576.131.847l-2.78 3.907c-.115.163-.297.25-.48.25-.121 0-.244-.038-.35-.116-.265-.197-.323-.576-.13-.847l2.78-3.907c.192-.271.564-.331.83-.134zm10.793-2.557l4.314 5.971c.193.267.135.641-.131.836-.106.077-.228.114-.35.114-.183 0-.365-.086-.481-.247l-4.314-5.971c-.193-.267-.135-.641.131-.836.266-.194.638-.135.831.133zm-6.615.038c.318.102.493.437.39.749l-1.347 4.06c-.084.25-.321.41-.577.41-.062 0-.125-.01-.188-.03-.318-.1-.493-.436-.39-.748l1.347-4.06c.104-.311.446-.482.765-.38zM3.979 24.43c.199.258.138.618-.135.805l-.186.128c-.109.074-.234.11-.359.11-.189 0-.375-.082-.494-.237-.199-.258-.138-.618.135-.805l.186-.128c.273-.187.655-.13.853.127zm14.592-2.767l.856 2.643c.101.314-.07.651-.383.754-.061.02-.123.029-.184.029-.252 0-.485-.16-.567-.414l-.856-2.643c-.101-.314.07-.651.383-.754.313-.102.65.07.751.385zm8.246 1.234l1.606 1.131c.27.19.33.557.133.82-.118.157-.302.241-.49.241-.123 0-.247-.036-.355-.112l-1.606-1.131c-.27-.19-.33-.557-.133-.82.196-.261.574-.32.845-.129zM10.38 19.832c.195.268.136.644-.133.84l-4.686 3.405c-.107.078-.23.115-.353.115-.185 0-.369-.086-.486-.248-.195-.268-.136-.644.133-.84L9.542 19.7c.268-.195.644-.136.84.133zm5.555 1.416c.318 0 .576.263.576.588v1.64c0 .325-.258.588-.576.588-.318 0-.576-.263-.576-.588v-1.64c0-.325.258-.588.576-.588zm-4.028-.011c.273.198.334.579.135.852l-.696.956c-.12.164-.307.251-.496.251-.124 0-.25-.038-.359-.117-.273-.198-.334-.579-.135-.852l.696-.955c.199-.273.581-.333.855-.135zm10.434-1.665l2.751 1.988c.272.197.332.576.135.846-.12.163-.305.25-.493.25-.124 0-.25-.038-.357-.116l-2.751-1.988c-.272-.197-.332-.576-.135-.846.198-.27.578-.33.85-.134zm-16.228-.595c.104.317-.07.658-.389.76l-3.78 1.225c-.062.02-.126.03-.188.03-.255 0-.492-.162-.575-.417-.104-.317.07-.658.389-.76l3.78-1.225c.318-.103.66.07.763.387zm19.126-.9l3.526 1.12c.318.102.491.435.388.746-.083.25-.32.409-.575.409-.062 0-.125-.01-.187-.03l-3.526-1.12c-.318-.1-.491-.434-.388-.745.103-.31.444-.48.762-.38zm-14.901-.508c.1.317-.069.657-.379.76l-2.147.713c-.061.02-.122.03-.183.03-.249 0-.48-.162-.561-.417-.1-.317.069-.657.379-.76l2.147-.713c.31-.103.643.07.744.387zm11.96-.389l1.217.377c.32.099.494.426.39.73-.083.245-.322.401-.578.401-.062 0-.125-.01-.188-.029l-1.216-.376c-.32-.099-.494-.426-.39-.73.104-.305.447-.471.766-.373zM3.884 15.232c.33 0 .597.258.597.576 0 .318-.267.576-.597.576H.597c-.33 0-.597-.258-.597-.576 0-.318.268-.576.597-.576h3.286zm5.891 0c.328 0 .594.258.594.576 0 .318-.266.576-.594.576H5.97c-.328 0-.594-.258-.594-.576 0-.318.266-.576.594-.576h3.804zm18.428-.128c.33 0 .598.258.598.576 0 .318-.268.576-.598.576h-6.1c-.33 0-.598-.258-.598-.576 0-.318.268-.576.598-.576h6.1zm3.329 0c.33 0 .597.258.597.576 0 .318-.267.576-.597.576h-1.11c-.33 0-.597-.258-.597-.576 0-.318.267-.576.597-.576h1.11zm-22.8-2.276l1.217.377c.32.099.494.426.39.73-.083.245-.322.401-.578.401-.062 0-.126-.01-.188-.029l-1.216-.376c-.32-.099-.494-.426-.39-.73.104-.305.447-.471.766-.373zm16.072.005c.1.317-.069.657-.379.76l-2.147.713c-.061.02-.122.03-.183.03-.249 0-.48-.162-.561-.417-.1-.317.069-.657.379-.76l2.147-.713c.31-.103.643.07.744.387zM3.48 11.165l3.526 1.12c.318.102.491.435.388.746-.083.25-.32.409-.575.409-.062 0-.125-.01-.187-.03l-3.526-1.12c-.318-.1-.491-.434-.388-.745.103-.31.444-.48.762-.38zm27.21-.25c.102.318-.069.66-.38.764l-3.677 1.22c-.06.02-.122.029-.183.029-.25 0-.483-.163-.565-.42-.101-.317.07-.66.382-.763l3.676-1.22c.311-.103.646.072.748.39zM7.623 8.948l2.751 1.988c.272.197.332.576.135.846-.12.163-.305.25-.493.25-.124 0-.25-.038-.357-.116L6.907 9.928c-.272-.197-.332-.576-.135-.846.198-.27.578-.33.85-.134zM27.15 7.544c.195.268.136.644-.133.84l-4.686 3.405c-.107.078-.23.115-.353.115-.185 0-.369-.086-.486-.248-.195-.268-.136-.644.133-.84l4.686-3.405c.268-.195.644-.136.84.133zM21.125 8.69c.272.192.332.564.135.83l-.448.603c-.12.16-.305.245-.493.245-.123 0-.248-.037-.356-.114-.272-.193-.332-.564-.135-.83l.448-.603c.198-.266.578-.324.85-.131zM7.494 3.192l4.55 6.222c.197.269.137.644-.133.84-.108.077-.232.114-.355.114-.187 0-.372-.086-.49-.248l-4.55-6.222c-.197-.269-.137-.644.133-.84.27-.194.649-.135.845.134zm6.223 3.628l.845 2.625c.103.32-.07.662-.386.765-.061.02-.124.03-.185.03-.254 0-.49-.163-.572-.42l-.845-2.625c-.103-.32.07-.662.386-.765.315-.104.655.07.757.39zm2.219-3.748c.318 0 .576.269.576.6v5.84c0 .331-.258.6-.576.6-.318 0-.576-.269-.576-.6v-5.84c0-.331.258-.6.576-.6zm3.613 1.821c.318.102.493.437.39.749l-1.347 4.06c-.084.25-.321.41-.577.41-.062 0-.125-.01-.188-.03-.318-.1-.493-.436-.39-.748l1.347-4.06c.104-.311.446-.482.765-.38zM4.169 6.515l1.723 1.23c.273.195.334.571.135.84-.12.161-.305.247-.494.247-.125 0-.25-.037-.359-.115l-1.722-1.23c-.273-.195-.334-.571-.135-.84.198-.268.58-.327.853-.132zm21.309-3.842c.271.193.331.565.134.83l-3.394 4.572c-.119.16-.304.245-.492.245-.123 0-.248-.037-.356-.113-.271-.193-.331-.565-.134-.83l3.394-4.572c.197-.266.577-.324.848-.132zm-13.307-.34l.856 2.644c.101.314-.07.651-.383.754-.061.02-.123.029-.184.029-.252 0-.485-.16-.567-.414l-.856-2.643c-.101-.314.07-.651.383-.754.313-.102.65.07.751.385zm8.278-.384c.315.1.488.43.385.738L20.5 3.69c-.083.248-.318.405-.571.405-.062 0-.124-.01-.186-.029-.315-.1-.488-.43-.385-.738l.334-1.004c.103-.308.442-.476.757-.376zM15.936.256c.318 0 .576.274.576.613v.694c0 .339-.258.613-.576.613-.318 0-.576-.274-.576-.613V.87c0-.339.258-.613.576-.613z"/>
</svg>
