<svg aria-hidden="true" width="276" height="128" viewBox="0 0 276 128"><g><circle cx="117" cy="50" r="20" fill="#E60039" opacity=".151"/><circle cx="231" cy="50" r="20" fill="#15884F" opacity=".151"/><path d="M212.992 26a1.636 1.636 0 01.112 3.269l-.112.004h-41.884c-.764 0-1.453.728-1.51 1.718l-.003.13v66.924l20.34-25.609a1.633 1.633 0 012.51-.058l.077.096 16.488 22.042 11.267-11.182a1.633 1.633 0 012.245-.053l.089.086 9.81 10.309V79.42a1.634 1.634 0 013.264-.112l.004.112v28.368c0 2.735-2.015 5.024-4.614 5.118l-.167.003h-59.8c-2.624 0-4.694-2.231-4.779-4.947l-.003-.174V31.12c0-2.735 2.016-5.024 4.615-5.118l.167-.003h41.884zM86.605 44.91a1.635 1.635 0 01.112 3.268l-.112.004H25.732c-.673 0-1.342.768-1.397 1.856l-.003.144v47.914l28.14-25.847a1.633 1.633 0 012.15-.053l.095.086 23.16 22.588 16.16-11.7a1.63 1.63 0 011.84-.05l.11.077 13.686 10.491V79.193a1.634 1.634 0 013.265-.112l.004.112v28.444c0 2.793-1.935 5.171-4.504 5.269l-.165.003H25.732c-2.595 0-4.584-2.32-4.666-5.095l-.003-.178V50.182c0-2.794 1.936-5.172 4.504-5.27l.165-.003h60.873zm104.57 31.222l-21.21 26.705c-.107.136-.233.25-.37.342v4.609c0 1.011.657 1.782 1.414 1.844l.099.004h59.8c.764 0 1.453-.728 1.51-1.718l.003-.13-.001-9.425a1.76 1.76 0 01-.183-.142l-.091-.09-10.752-11.298-11.417 11.332a1.63 1.63 0 01-2.38-.086l-.078-.095-16.344-21.852zm-137.632-.427l-29.212 26.832v5.1c0 1.114.642 1.93 1.313 1.995l.088.004h82.541c.673 0 1.342-.768 1.397-1.856l.004-.144V97.81L94.965 86.535 78.679 98.33a1.633 1.633 0 01-2-.066l-.098-.088-23.038-22.47zm177.97-46.069c2.8 0 5.524.574 8.04 1.67a1.638 1.638 0 01.845 2.154 1.634 1.634 0 01-2.15.847 16.806 16.806 0 00-6.735-1.398c-9.326 0-16.887 7.57-16.887 16.91 0 9.338 7.56 16.908 16.887 16.908 9.327 0 16.887-7.57 16.887-16.909a1.635 1.635 0 113.268 0c0 11.146-9.023 20.182-20.155 20.182-11.131 0-20.155-9.036-20.155-20.182 0-11.146 9.024-20.182 20.155-20.182zm-114.031 0c2.8 0 5.524.574 8.039 1.67a1.638 1.638 0 01.846 2.154 1.635 1.635 0 01-2.151.847 16.802 16.802 0 00-6.734-1.398c-9.327 0-16.887 7.57-16.887 16.91 0 9.338 7.56 16.908 16.887 16.908 9.326 0 16.886-7.57 16.886-16.909a1.635 1.635 0 113.269 0c0 11.146-9.024 20.182-20.155 20.182-11.132 0-20.156-9.036-20.156-20.182 0-11.146 9.024-20.182 20.156-20.182zm5.838 12.756a1.634 1.634 0 012.217.087c.638.64.638 1.675 0 2.314l-5.382 5.389 5.382 5.388c.638.64.638 1.675 0 2.314a1.632 1.632 0 01-2.217.087l-.094-.087-5.382-5.388-5.38 5.388-.094.087c-.642.55-1.61.522-2.218-.087a1.638 1.638 0 010-2.314l5.381-5.388-5.38-5.389a1.636 1.636 0 012.217-2.401l.093.087 5.381 5.388 5.382-5.388zm128.572-6.482c.62.595.67 1.563.133 2.218l-.085.095-18.803 19.637a1.632 1.632 0 01-2.351.008l-.084-.093-9.523-11.446a1.637 1.637 0 01.21-2.305 1.632 1.632 0 012.22.119l.08.09 8.354 10.04 17.538-18.315a1.632 1.632 0 012.31-.048z" fill="#C7C7CC"/></g></svg>
