<svg aria-hidden="true" viewBox="0 0 32 32"><path fill="currentColor" d="M22.111 11.608c.285 0 .52.223.552.511l.004.068V24.35a2.31 2.31 0 0 1-2.188 2.314l-.114.003h-8.73a2.31 2.31 0 0 1-2.299-2.2l-.003-.117V12.187c0-.32.25-.58.556-.58.285 0 .52.224.552.512l.003.068V24.35c0 .606.483 1.112 1.105 1.155l.086.003h8.73c.634 0 1.144-.48 1.188-1.076l.003-.082V12.187c0-.32.248-.58.555-.58zm-4.365-6.275c1.227 0 2.239.985 2.299 2.235l.003.118v1.646l4.04.001c.32 0 .579.299.579.667 0 .342-.223.624-.51.662l-.068.005H7.91c-.319 0-.578-.299-.578-.667 0-.342.223-.624.51-.662l.068-.005h4.041V7.685c0-1.266.975-2.289 2.188-2.35l.114-.003h3.492zm0 1.177h-3.492c-.634 0-1.144.487-1.188 1.093l-.003.083v1.646h5.873V7.686c0-.615-.482-1.13-1.104-1.173z"/></svg>