<svg xmlns="http://www.w3.org/2000/svg" width="381" height="233"><g fill="none"><path d="M0 0h317v232.267H0z"/><path fill="#FFFFFE" d="M79.815 167.01a1.012 1.012 0 0 1 1.006 1.139l-1.203 9.516a1.012 1.012 0 1 1-2.01-.254l1.204-9.516c.064-.511.5-.885 1.003-.885m-19.425-4.497a1.013 1.013 0 0 1 .941 1.385l-1.781 4.496a1.012 1.012 0 1 1-1.884-.745l1.782-4.496c.158-.397.539-.64.942-.64m12.31-7.741a1.014 1.014 0 0 1 .982 1.263l-3.145 12.239a1.012 1.012 0 0 1-1.962-.503l3.145-12.239c.117-.456.53-.76.98-.76m-15.776-6.645a1.01 1.01 0 0 1 .886 1.5l-9.993 18.113a1.013 1.013 0 0 1-1.774-.974l9.993-18.114a1.01 1.01 0 0 1 .888-.525m-11.206.844a1.011 1.011 0 0 1 .819 1.607l-3.962 5.448a1.014 1.014 0 0 1-1.415.224 1.01 1.01 0 0 1-.224-1.413l3.961-5.449c.199-.272.508-.417.82-.417zm31.115-10.281a1.015 1.015 0 0 1 .982 1.263l-3.138 12.21a1.01 1.01 0 0 1-1.233.728 1.01 1.01 0 0 1-.729-1.231l3.138-12.21c.117-.457.529-.76.98-.76m-18.9-6.518a1.01 1.01 0 0 1 .819 1.606l-9.179 12.623a1.01 1.01 0 0 1-1.414.224 1.01 1.01 0 0 1-.224-1.413l9.179-12.623a1.01 1.01 0 0 1 .82-.417zm17.714-8.16a1.013 1.013 0 0 1 .941 1.385l-12.981 32.76a1.012 1.012 0 0 1-1.884-.745l12.982-32.76c.157-.397.538-.64.942-.64m9.604 0a1.012 1.012 0 0 1 1.006 1.139l-4.735 37.457a1.012 1.012 0 0 1-2.01-.254l4.736-37.456c.065-.512.5-.886 1.003-.886m-15.085 0a1.01 1.01 0 0 1 .886 1.5l-10.314 18.794a1.013 1.013 0 0 1-1.775-.974l10.315-18.795c.184-.335.53-.525.888-.525m10.439 0a1.012 1.012 0 0 1 .981 1.264l-2.397 9.33a1.012 1.012 0 1 1-1.962-.503l2.398-9.33c.117-.457.528-.76.98-.76zm-16.08-.903a1.01 1.01 0 0 1 .819 1.606l-4.247 5.84a1.013 1.013 0 0 1-1.64-1.19l4.247-5.84c.198-.272.507-.416.82-.416zM99.68 11.836a1.012 1.012 0 0 1-1.006-1.139l1.203-9.516a1.011 1.011 0 1 1 2.01.253l-1.204 9.517a1.01 1.01 0 0 1-1.003.885m19.425 4.497a1.013 1.013 0 0 1-.942-1.385l1.782-4.496a1.012 1.012 0 1 1 1.884.745l-1.782 4.496c-.158.398-.539.64-.942.64m-46.85 6.06c-.452 0-.863-.304-.98-.76l-1.486-5.78a1.011 1.011 0 1 1 1.962-.504l1.485 5.78a1.012 1.012 0 0 1-.981 1.264m-5.233 9.76c-.403 0-.784-.243-.942-.64L56.077 7.217a1.012 1.012 0 1 1 1.883-.745l10.004 24.296a1.012 1.012 0 0 1-.941 1.385zM52.715 23.14c-.358 0-.704-.19-.889-.525l-4.404-8.004a1.013 1.013 0 0 1 1.775-.975L53.6 21.64a1.012 1.012 0 0 1-.886 1.5zm54.08.934a1.015 1.015 0 0 1-.981-1.264l3.145-12.237a1.01 1.01 0 0 1 1.232-.729c.542.14.869.69.73 1.232l-3.145 12.238c-.117.457-.53.76-.98.76zm15.777 6.645a1.01 1.01 0 0 1-.886-1.5l9.992-18.113a1.013 1.013 0 0 1 1.775.975l-9.993 18.114a1.01 1.01 0 0 1-.888.524m-32.83-5.645c-.56 0-1.013-.453-1.013-1.011V6.066a1.012 1.012 0 0 1 2.025 0v17.997c0 .558-.453 1.011-1.013 1.011zm44.036 4.8a1.01 1.01 0 0 1-.819-1.606l3.962-5.448a1.014 1.014 0 0 1 1.64 1.19l-3.962 5.448a1.01 1.01 0 0 1-.82.417zM82.285 31.46c-.502 0-.939-.373-1.003-.885L77.846 3.413a1.012 1.012 0 1 1 2.01-.253l3.435 27.162a1.012 1.012 0 0 1-1.006 1.138m61.596 1.371a1.012 1.012 0 0 1-.738-1.705l6.711-7.14a1.012 1.012 0 0 1 1.477 1.386l-6.711 7.14c-.2.212-.469.32-.739.32zm-94.201 2.51c-.314 0-.623-.145-.82-.418l-6.012-8.267a1.01 1.01 0 0 1 .224-1.413 1.014 1.014 0 0 1 1.415.224l6.011 8.267a1.012 1.012 0 0 1-.818 1.606zm52.983 4.816a1.014 1.014 0 0 1-.982-1.264l3.138-12.21a1.011 1.011 0 1 1 1.962.503l-3.138 12.21c-.117.457-.529.76-.98.76zm-25.777.254c-.451 0-.863-.304-.98-.76L72.86 27.796a1.011 1.011 0 1 1 1.961-.504l3.047 11.854a1.01 1.01 0 0 1-.982 1.264zm-46.09 1.301a1 1 0 0 1-.646-.232l-9.546-7.89a1.013 1.013 0 0 1 1.29-1.56l9.547 7.891a1.01 1.01 0 0 1-.646 1.791zm14.22 1.135a1 1 0 0 1-.739-.32L28.153 25.373a1.012 1.012 0 0 1 1.477-1.385l16.124 17.156a1.011 1.011 0 0 1-.738 1.704zm76.546 3.827a1.011 1.011 0 0 1-.819-1.606l9.18-12.623a1.011 1.011 0 1 1 1.638 1.19l-9.18 12.622a1.01 1.01 0 0 1-.819.417m-31.82.605c-.56 0-1.013-.453-1.013-1.012V28.863a1.012 1.012 0 0 1 2.025 0v17.404c0 .559-.453 1.012-1.013 1.012zm-31.206.241c-.313 0-.621-.144-.82-.417l-6.402-8.805a1.012 1.012 0 1 1 1.639-1.19l6.402 8.806a1.011 1.011 0 0 1-.819 1.606m82.715.34a1.01 1.01 0 0 1-.646-1.791l12.946-10.702a1.013 1.013 0 0 1 1.291 1.56l-12.946 10.701a1 1 0 0 1-.645.232m-16.368 5.186a1.01 1.01 0 0 1-.738-1.705l15.378-16.362A1.012 1.012 0 0 1 141 36.364l-15.38 16.362c-.2.213-.468.32-.738.32zm23.826 0a1.011 1.011 0 0 1-.544-1.866l7.55-4.787A1.012 1.012 0 1 1 156.8 48.1l-7.55 4.787a1 1 0 0 1-.542.158zM32.845 54.36c-.185 0-.373-.051-.541-.158l-8.147-5.166a1.011 1.011 0 1 1 1.085-1.709l8.147 5.166a1.011 1.011 0 0 1-.544 1.867m52.394.453c-.503 0-.939-.374-1.003-.886l-2.01-15.883a1.012 1.012 0 0 1 2.01-.254l2.01 15.884a1.013 1.013 0 0 1-1.007 1.139m-15.086.019c-.358 0-.704-.19-.889-.525l-14.597-26.53a1.011 1.011 0 1 1 1.774-.975l14.598 26.53a1.01 1.01 0 0 1-.886 1.5m33.696.001a1.013 1.013 0 0 1-.941-1.384l12.981-32.76a1.013 1.013 0 0 1 1.884.745l-12.982 32.76c-.157.397-.539.64-.942.64zm-14.108 0a1.01 1.01 0 0 1-1.012-1.011v-2.644a1.012 1.012 0 0 1 2.025 0v2.644c0 .558-.453 1.011-1.013 1.011m4.503 0a1.012 1.012 0 0 1-1.006-1.139l4.736-37.456a1.012 1.012 0 0 1 2.01.254l-4.736 37.456c-.065.511-.5.885-1.004.885m15.086 0a1.01 1.01 0 0 1-.886-1.5l10.314-18.794a1.013 1.013 0 0 1 1.775.975l-10.315 18.795a1.01 1.01 0 0 1-.888.524m-10.439 0a1.01 1.01 0 0 1-.981-1.264l2.397-9.329a1.012 1.012 0 0 1 1.962.503l-2.397 9.33c-.118.457-.53.76-.98.76zm-18.299.001c-.451 0-.863-.304-.98-.76L76.96 43.747a1.011 1.011 0 1 1 1.961-.503l2.654 10.326a1.012 1.012 0 0 1-.982 1.264zm-4.958 0c-.403 0-.784-.242-.942-.64l-6.457-17.04a1.012 1.012 0 1 1 1.884-.744l6.457 17.04a1.013 1.013 0 0 1-.942 1.384m-11.124.901a1.01 1.01 0 0 1-.82-.416l-3.39-4.662a1.011 1.011 0 1 1 1.64-1.189l3.389 4.661a1.011 1.011 0 0 1-.819 1.606m50.462.003a1.011 1.011 0 0 1-.819-1.607l4.247-5.84a1.013 1.013 0 0 1 1.638 1.19l-4.246 5.84a1.01 1.01 0 0 1-.82.417m44.426 1.948a1.012 1.012 0 0 1-.432-1.927l10.776-5.067a1.013 1.013 0 0 1 .863 1.83l-10.777 5.067c-.14.066-.286.097-.43.097m-39.627.798a1.011 1.011 0 0 1-.738-1.705l1.218-1.295a1.013 1.013 0 0 1 1.476 1.385l-1.217 1.296c-.2.212-.469.32-.74.32zm-60.058 0c-.27 0-.54-.107-.739-.32l-11.403-12.13a1.011 1.011 0 1 1 1.477-1.385L60.45 56.78a1.011 1.011 0 0 1-.738 1.704zm-14.718 3.579c-.186 0-.374-.051-.542-.158l-7.503-4.758a1.011 1.011 0 1 1 1.085-1.708l7.503 4.758a1.011 1.011 0 0 1-.543 1.866m88.945.347a1.012 1.012 0 0 1-.543-1.866l11.145-7.067a1.012 1.012 0 1 1 1.086 1.709l-11.146 7.066a1 1 0 0 1-.542.158m-77.76.284a1 1 0 0 1-.645-.232l-20.506-16.95a1.012 1.012 0 1 1 1.291-1.559l20.506 16.95a1.011 1.011 0 0 1-.646 1.791m67.122.002a1.01 1.01 0 0 1-.646-1.792l13.325-11.014a1.012 1.012 0 1 1 1.29 1.56l-13.324 11.013a1 1 0 0 1-.645.233m-91.936.293a1 1 0 0 1-.43-.096l-18.497-8.697a1.011 1.011 0 1 1 .862-1.83l18.497 8.696a1.011 1.011 0 0 1-.432 1.927M20.54 67.97a1 1 0 0 1-.313-.05l-15.34-4.98a1.012 1.012 0 1 1 .626-1.924l15.34 4.98a1.012 1.012 0 0 1-.313 1.974m33.77 0a1 1 0 0 1-.541-.157l-5.885-3.731a1.011 1.011 0 1 1 1.086-1.709l5.885 3.732a1.01 1.01 0 0 1-.544 1.866zm70.805.037a1.012 1.012 0 0 1-.544-1.866l5.13-3.252a1.012 1.012 0 1 1 1.085 1.708l-5.13 3.253a1 1 0 0 1-.541.157m25.79 2.573a1.011 1.011 0 0 1-.312-1.974l20.721-6.728a1.012 1.012 0 1 1 .626 1.925l-20.721 6.727q-.157.05-.313.05zm-25.53 3.103a1.012 1.012 0 0 1-.432-1.927l29.96-14.087a1.013 1.013 0 0 1 .863 1.831l-29.961 14.087c-.14.065-.286.096-.43.096m-71.266 0q-.218.001-.43-.096l-18.47-8.684a1.011 1.011 0 1 1 .862-1.83l18.47 8.683a1.01 1.01 0 0 1-.432 1.927m-5.815 3.298a1 1 0 0 1-.313-.05l-23.955-7.777a1.012 1.012 0 1 1 .626-1.925l23.955 7.777a1.012 1.012 0 0 1-.313 1.975m108.911.597a1.013 1.013 0 0 1-.189-2.007l10.516-2.003a1.012 1.012 0 1 1 .38 1.988l-10.516 2.003a1 1 0 0 1-.19.019zM54.11 78.867a1 1 0 0 1-.313-.05l-1.272-.412a1.012 1.012 0 1 1 .626-1.925l1.272.413a1.012 1.012 0 0 1-.313 1.974m71.263 0a1.012 1.012 0 0 1-.312-1.975l21.174-6.873a1.012 1.012 0 1 1 .626 1.925l-21.175 6.874q-.156.05-.313.05zm-92.385.75a1 1 0 0 1-.19-.017l-18.3-3.488a1.012 1.012 0 1 1 .38-1.988l18.299 3.488a1.012 1.012 0 0 1-.189 2.006zm104.724 1.675a1.013 1.013 0 0 1-.189-2.006l13.811-2.632a1.012 1.012 0 1 1 .38 1.987l-13.811 2.633a1 1 0 0 1-.191.018M54.11 83.644q-.095 0-.19-.018L39.9 80.954a1.012 1.012 0 1 1 .38-1.988l14.02 2.672a1.012 1.012 0 0 1-.189 2.006zm71.262 0a1.013 1.013 0 0 1-.19-2.006l7.088-1.35a1.012 1.012 0 1 1 .38 1.988l-7.088 1.35a1 1 0 0 1-.19.018M14.688 85.717q-.032 0-.064-.002L.96 84.856a1.01 1.01 0 0 1-.947-1.073 1.024 1.024 0 0 1 1.075-.947l13.662.86a1.012 1.012 0 0 1-.063 2.02zm137.264.807a1.012 1.012 0 0 1-.063-2.02l22.33-1.405a1.02 1.02 0 0 1 1.075.946 1.01 1.01 0 0 1-.947 1.074l-22.33 1.403zm-114.46.627-.064-.003-16.243-1.02a1.01 1.01 0 0 1-.947-1.074 1.02 1.02 0 0 1 1.074-.946l16.244 1.021a1.012 1.012 0 0 1-.063 2.022zm94.968.598a1.012 1.012 0 0 1-.063-2.021l14.096-.886a1.012 1.012 0 1 1 .127 2.02l-14.096.886zm-7.087.446a1.012 1.012 0 0 1-.063-2.021l2.74-.173a1.012 1.012 0 1 1 .127 2.02l-2.74.172zm-71.262 0q-.032 0-.065-.002l-12.367-.777a1.012 1.012 0 1 1 .127-2.02l12.367.778a1.012 1.012 0 0 1-.062 2.02zm-2.743 4.652a1.012 1.012 0 0 1-.062-2.021l2.74-.173a1.012 1.012 0 1 1 .127 2.02l-2.74.172zm86.374.605q-.032 0-.065-.002l-12.367-.777a1.01 1.01 0 0 1-.947-1.073 1.02 1.02 0 0 1 1.075-.947l12.366.778a1.012 1.012 0 0 1-.062 2.021m-104.817.554a1.013 1.013 0 0 1-.062-2.022l14.096-.885a1.02 1.02 0 0 1 1.074.946 1.01 1.01 0 0 1-.947 1.073l-14.096.886zm125.31.734-.064-.001-16.243-1.021a1.013 1.013 0 0 1-.947-1.074 1.02 1.02 0 0 1 1.074-.946l16.243 1.021a1.012 1.012 0 0 1-.063 2.021M5.2 95.75a1.012 1.012 0 0 1-.062-2.022l22.33-1.404a1.012 1.012 0 1 1 .127 2.02l-22.33 1.403-.065.002zm173.26.261q-.033 0-.064-.002l-13.662-.858a1.012 1.012 0 1 1 .127-2.02l13.662.86a1.012 1.012 0 0 1-.063 2.02M47.022 98.578a1.012 1.012 0 0 1-.189-2.006l7.087-1.351a1.012 1.012 0 1 1 .38 1.988l-7.088 1.35a1 1 0 0 1-.19.019m92.37 1.32q-.094 0-.19-.018l-14.019-2.672a1.012 1.012 0 1 1 .38-1.987l14.018 2.671a1.012 1.012 0 0 1-.188 2.006zm-111.434 2.313a1.013 1.013 0 0 1-.188-2.006l13.81-2.633a1.012 1.012 0 1 1 .38 1.988l-13.81 2.632a1 1 0 0 1-.192.019m98.688.204a1 1 0 0 1-.313-.05l-1.272-.412a1.012 1.012 0 1 1 .625-1.925l1.272.413a1.012 1.012 0 0 1-.312 1.974m38.151 2.325q-.095 0-.19-.018l-18.3-3.488a1.011 1.011 0 1 1 .38-1.987l18.299 3.488a1.012 1.012 0 0 1-.189 2.005m-153.036.558a1.013 1.013 0 0 1-.19-2.006l10.516-2.004a1.011 1.011 0 1 1 .38 1.987l-10.515 2.005a1 1 0 0 1-.191.018m21.174 3.579a1.013 1.013 0 0 1-.312-1.975l21.174-6.874a1.012 1.012 0 1 1 .626 1.925l-21.175 6.874a1 1 0 0 1-.313.05m122.21 2.79a1 1 0 0 1-.313-.049l-23.956-7.777a1.012 1.012 0 1 1 .626-1.925l23.955 7.777a1.012 1.012 0 0 1-.312 1.974m-11.302 4.205c-.145 0-.292-.032-.431-.097l-18.47-8.684a1.012 1.012 0 1 1 .862-1.83l18.47 8.683a1.01 1.01 0 0 1-.431 1.928m-94.602.244a1.011 1.011 0 0 1-.543-1.866l5.129-3.252a1.012 1.012 0 1 1 1.085 1.708l-5.13 3.252a1 1 0 0 1-.54.158zm81.814.516a1 1 0 0 1-.542-.158l-5.884-3.732a1.011 1.011 0 1 1 1.085-1.708l5.885 3.732a1.011 1.011 0 0 1-.544 1.866m-123.2.387a1.012 1.012 0 0 1-.312-1.975l20.722-6.727a1.012 1.012 0 1 1 .626 1.925L8.168 116.97q-.157.05-.313.05zm166.428.862q-.156 0-.313-.05l-15.34-4.98a1.012 1.012 0 1 1 .626-1.925l15.34 4.98a1.012 1.012 0 0 1-.313 1.975M24.15 121.274a1.012 1.012 0 0 1-.431-1.928L53.68 105.26a1.013 1.013 0 0 1 .862 1.83L24.58 121.179c-.14.065-.286.096-.43.096zm117.841 2.292c-.185 0-.373-.052-.542-.159l-7.503-4.757a1.012 1.012 0 1 1 1.085-1.709l7.504 4.758a1.011 1.011 0 0 1-.544 1.867m-83.496.115a1.011 1.011 0 0 1-.738-1.704l1.218-1.296a1.013 1.013 0 0 1 1.476 1.386l-1.217 1.295c-.2.212-.469.32-.739.32zM34.4 125.527a1.012 1.012 0 0 1-.544-1.866L45 116.593a1.013 1.013 0 0 1 1.086 1.709l-11.145 7.067a1 1 0 0 1-.542.158zm132.213 1.05a1 1 0 0 1-.43-.096l-18.498-8.697a1.011 1.011 0 1 1 .863-1.831l18.497 8.696a1.011 1.011 0 0 1-.432 1.928M9.31 128.251a1.012 1.012 0 0 1-.431-1.927l10.776-5.068a1.013 1.013 0 0 1 .862 1.832l-10.776 5.067a1 1 0 0 1-.43.096zm33.548.937a1.012 1.012 0 0 1-.646-1.792l13.324-11.013a1.013 1.013 0 0 1 1.291 1.56l-13.324 11.013a1 1 0 0 1-.645.232m75.506.607a1.01 1.01 0 0 1-.82-.417l-3.389-4.66a1.013 1.013 0 0 1 1.638-1.19l3.39 4.66a1.011 1.011 0 0 1-.819 1.607m36.419 1.882a1 1 0 0 1-.542-.158l-8.147-5.166a1.011 1.011 0 1 1 1.085-1.708l8.148 5.166a1.011 1.011 0 0 1-.544 1.866m-131.557.934a1.012 1.012 0 0 1-.543-1.866l7.55-4.787a1.012 1.012 0 1 1 1.085 1.709l-7.55 4.787a1 1 0 0 1-.542.157m66.515.56a1.01 1.01 0 0 1-1.012-1.012v-7.114a1.012 1.012 0 0 1 2.025 0v7.114c0 .56-.453 1.012-1.013 1.012m41.433 1.347a1 1 0 0 1-.738-.32l-11.403-12.132a1.013 1.013 0 0 1 1.477-1.385l11.402 12.132a1.011 1.011 0 0 1-.738 1.705m12.634.607c-.227 0-.455-.076-.644-.233l-20.506-16.949a1.011 1.011 0 1 1 1.29-1.559l20.506 16.95a1.01 1.01 0 0 1-.646 1.79zm-42.264 1.238c-.452 0-.863-.304-.98-.76l-2.654-10.327a1.012 1.012 0 1 1 1.961-.503l2.654 10.326a1.012 1.012 0 0 1-.981 1.264m-5.293 5.578c-.503 0-.94-.374-1.004-.885l-2.009-15.884a1.012 1.012 0 0 1 2.01-.254l2.009 15.884a1.012 1.012 0 0 1-1.006 1.139m31.1.214a1.01 1.01 0 0 1-.82-.418l-6.402-8.805a1.01 1.01 0 0 1 .224-1.413 1.014 1.014 0 0 1 1.415.224l6.402 8.805a1.01 1.01 0 0 1-.819 1.607M25.288 143.71a1.012 1.012 0 0 1-.647-1.792l12.947-10.7a1.013 1.013 0 0 1 1.29 1.559l-12.946 10.7a1 1 0 0 1-.644.233m13.934.476a1.011 1.011 0 0 1-.738-1.704l15.379-16.363a1.013 1.013 0 0 1 1.476 1.385L39.96 143.868a1 1 0 0 1-.738.319zm119.011 2.86a1 1 0 0 1-.644-.231l-9.547-7.89a1.01 1.01 0 1 1 1.291-1.56l9.546 7.89a1.01 1.01 0 0 1-.646 1.792zm-44.866 3.008c-.403 0-.784-.243-.942-.64l-9.517-24.018a1.012 1.012 0 0 1 1.883-.745l9.518 24.017a1.013 1.013 0 0 1-.942 1.386m-7.725 2.258c-.451 0-.863-.303-.98-.76l-3.046-11.854a1.012 1.012 0 1 1 1.961-.504l3.047 11.854a1.012 1.012 0 0 1-.982 1.264m18.288.255c-.357 0-.704-.19-.888-.524l-14.598-26.53a1.011 1.011 0 1 1 1.775-.975l14.597 26.53a1.01 1.01 0 0 1-.886 1.5zm11.887 1.229c-.313 0-.622-.145-.82-.417l-6.012-8.268a1.012 1.012 0 0 1 1.638-1.19l6.013 8.268a1.011 1.011 0 0 1-.819 1.607m14.776 1.381c-.27 0-.54-.107-.739-.318l-16.124-17.157a1.013 1.013 0 0 1 1.477-1.385l16.124 17.156a1.011 1.011 0 0 1-.738 1.704m-121.703 0a1.011 1.011 0 0 1-.738-1.704l6.712-7.14a1.012 1.012 0 0 1 1.476 1.385l-6.71 7.14c-.2.212-.47.32-.74.32zm60.851 3.3a1.01 1.01 0 0 1-1.012-1.013v-20.332a1.012 1.012 0 0 1 2.025 0v20.332c0 .56-.453 1.012-1.013 1.012zm18.97 5.78c-.45 0-.862-.304-.98-.76l-1.485-5.78a1.012 1.012 0 1 1 1.962-.504l1.485 5.78a1.012 1.012 0 0 1-.981 1.263zm22.464 1.477c-.358 0-.704-.19-.889-.525l-4.404-8.004a1.011 1.011 0 1 1 1.775-.975l4.404 8.005a1.01 1.01 0 0 1-.886 1.499m-8.71 7.28c-.403 0-.784-.243-.942-.64l-5.967-15.057a1.013 1.013 0 0 1 1.884-.746l5.967 15.058a1.012 1.012 0 0 1-.942 1.384zm-32.724 1.563a1.01 1.01 0 0 1-1.012-1.012v-11.594a1.012 1.012 0 0 1 2.025 0v11.594c0 .56-.453 1.012-1.013 1.012m10.905 2.112c-.502 0-.939-.374-1.003-.885l-3.45-27.28a1.012 1.012 0 1 1 2.009-.254l3.45 27.28a1.012 1.012 0 0 1-1.006 1.139m207.85 36.408q-.122-3.105-1.996-4.982-1.878-1.875-4.988-1.876-2.932 0-4.897 1.846-1.964 1.846-2.493 5.012zm4.543-9.086q3.962 4.397 3.961 12.251-.002 1.406-.057 2.168h-22.646q.76 2.99 2.934 4.66 2.168 1.67 5.22 1.67 2.229.001 4.284-.85a11.3 11.3 0 0 0 3.696-2.49l4.752 4.806c-1.607 1.798-3.55 3.176-5.84 4.132q-3.432 1.437-7.653 1.438c-3.327 0-6.228-.666-8.713-1.994q-3.724-1.992-5.748-5.628-2.025-3.634-2.026-8.38 0-4.807 2.056-8.47 2.053-3.663 5.749-5.686 3.696-2.022 8.447-2.022 7.626 0 11.584 4.395m-36.223-2.872q2.64-1.522 6.16-1.582v8.5q-.47-.06-1.408-.06-4.166.001-6.6 2.257-2.434 2.258-2.433 6.008v15.18H263.5V199.91h9.036v5.685q1.64-2.929 4.281-4.455zm-22.057-1.23v31.534h-8.975v-5.569q-3.226 5.921-10.558 5.922-5.22 0-8.301-3.255-3.08-3.252-3.08-8.821v-19.81h9.035v17.232q-.001 2.99 1.582 4.689 1.584 1.7 4.342 1.7 3.225-.058 5.105-2.286 1.875-2.228 1.875-5.744V199.91h8.975zm-35.43 29.775a14.8 14.8 0 0 1-3.902 1.612q-2.142.556-4.311.557-4.4 0-7.157-2.52-2.758-2.52-2.757-7.21V207.53h-4.4v-6.213h4.4v-8.674h8.975v8.674h8.565v6.272h-8.565V220.6q0 3.634 2.874 3.634 1.994 0 4.4-1.172l1.877 6.623zm-37.603 1.759h9.034v-43.49h-9.034zm-9.033-31.534v31.534h-8.975v-5.569q-3.227 5.921-10.56 5.922-5.22 0-8.3-3.255-3.08-3.252-3.08-8.821v-19.81h9.034v17.232q0 2.99 1.584 4.689 1.584 1.7 4.34 1.7 3.226-.058 5.105-2.286 1.876-2.228 1.877-5.744V199.91h8.975zm-45.727-.615q-2.846-1.436-5.72-1.437-3.462.001-6.335 1.7a12.24 12.24 0 0 0-4.517 4.63q-1.642 2.933-1.642 6.506 0 3.577 1.642 6.536a12.37 12.37 0 0 0 4.517 4.688q2.874 1.731 6.336 1.73 2.756 0 5.602-1.319a17.6 17.6 0 0 0 5.074-3.546l5.456 5.92q-3.285 3.4-7.714 5.393t-8.888 1.993q-6.041 0-10.97-2.784-4.927-2.784-7.743-7.65-2.816-4.865-2.816-10.843 0-5.92 2.875-10.726 2.873-4.806 7.89-7.56 5.015-2.755 11.117-2.755 4.457 0 8.799 1.845 4.341 1.847 7.391 5.012l-5.397 6.623q-2.111-2.52-4.957-3.956m176.895-49.502q-2.524-.791-4.516-.791-1.644 0-2.639.585-1 .587-1 1.758 0 1.29 1.35 1.994 1.35.702 4.402 1.582 3.343.996 5.513 1.963t3.755 2.872q1.581 1.906 1.582 5.011.001 4.69-3.607 7.298-3.606 2.608-9.239 2.608a24.3 24.3 0 0 1-7.45-1.143q-3.58-1.142-6.217-3.252l2.932-6.096a18.5 18.5 0 0 0 5.367 2.9q2.963 1.027 5.604 1.026 1.817 0 2.904-.615 1.084-.615 1.084-1.846 0-1.348-1.38-2.11-1.376-.761-4.429-1.642-3.225-.936-5.368-1.875-2.14-.936-3.665-2.842-1.525-1.905-1.524-4.954-.002-4.687 3.52-7.267 3.518-2.58 8.915-2.579 3.226 0 6.452.909 3.228.907 5.869 2.608l-3.11 6.154q-2.581-1.466-5.105-2.256m-30.444 0q-2.523-.791-4.516-.791-1.645 0-2.642.585-.996.587-.996 1.758 0 1.29 1.35 1.994 1.347.702 4.398 1.582 3.344.996 5.516 1.963 2.168.968 3.752 2.872 1.585 1.906 1.585 5.011.001 4.69-3.607 7.298-3.61 2.608-9.242 2.608a24.3 24.3 0 0 1-7.448-1.143q-3.578-1.142-6.219-3.252l2.935-6.096a18.4 18.4 0 0 0 5.367 2.9q2.959 1.027 5.6 1.026 1.82 0 2.905-.615 1.087-.615 1.087-1.846-.001-1.348-1.38-2.11t-4.429-1.642q-3.227-.936-5.368-1.875-2.142-.936-3.665-2.842-1.526-1.905-1.527-4.954 0-4.687 3.52-7.267t8.918-2.579q3.224 0 6.452.909 3.226.907 5.866 2.608l-3.11 6.154q-2.58-1.466-5.102-2.256m-35.139 17.144q2.053-1.348 2.464-3.4v-2.813h-7.098q-2.64 0-3.901.85-1.262.85-1.261 2.725 0 1.818 1.32 2.9 1.32 1.087 3.607 1.086 2.815 0 4.87-1.348zm2.521 7.384v-3.692q-1.581 1.994-4.106 3.048-2.521 1.055-5.806 1.055-4.987 0-7.92-2.726-2.934-2.725-2.933-7.121 0-4.454 3.139-6.946 3.137-2.49 8.886-2.55h8.683v-.585q-.001-2.52-1.673-3.898-1.671-1.377-4.897-1.377-4.4 0-9.386 2.754l-2.816-6.213q3.753-1.875 7.04-2.754 3.285-.88 7.215-.88 6.337 0 9.824 2.99 3.493 2.99 3.55 8.322l.061 20.573h-8.86zm-36.547-9.582q2.17-2.432 2.171-6.302 0-3.81-2.17-6.242-2.172-2.431-5.632-2.432-3.461 0-5.66 2.432-2.202 2.433-2.201 6.242 0 3.93 2.2 6.33 2.2 2.404 5.661 2.404t5.631-2.432m4.254-20.222q3.372 2.022 5.22 5.715 1.849 3.692 1.849 8.499 0 4.747-1.819 8.352-1.82 3.606-5.133 5.597-3.314 1.993-7.714 1.993-3.285 0-5.837-1.26t-4.312-3.663v15.943h-9.034v-42.904h9.034v4.63q1.701-2.403 4.253-3.664 2.553-1.26 5.72-1.26 4.399 0 7.773 2.022"/><text fill="#FFF" font-family=".SFNSDisplay, .SF NS Display" font-size="27"><tspan x="329" y="220">PRO</tspan></text></g></svg>