<?xml version="1.0" encoding="UTF-8"?>
<svg width="375px" height="706px" viewBox="0 0 375 706" version="1.1" xmlns="http://www.w3.org/2000/svg" xmlns:xlink="http://www.w3.org/1999/xlink">
    <!-- Generator: sketchtool 49.1 (51147) - http://www.bohemiancoding.com/sketch -->
    <title>D1E21E5C-61B2-4EA9-914F-540B4D9853DE</title>
    <desc>Created with sketchtool.</desc>
    <defs>
        <rect id="path-1" x="0" y="0" width="678" height="1128"></rect>
    </defs>
    <g id="Écrans" stroke="none" stroke-width="1" fill="none" fill-rule="evenodd" opacity="0.05">
        <g id="PassCulture-v0rc-HP-c1-detail" transform="translate(0.000000, -199.000000)">
            <g id="mosaic-k" transform="translate(-152.000000, 199.000000)">
                <g id="mosaic">
                    <mask id="mask-2" fill="white">
                        <use xlink:href="#path-1"></use>
                    </mask>
                    <g id="mask"></g>
                    <polygon id="Stroke-1" stroke="#000000" stroke-width="0.5" stroke-linejoin="round" mask="url(#mask-2)" transform="translate(71.482599, 911.164330) rotate(-270.000000) translate(-71.482599, -911.164330) " points="140.419333 931.828037 2.54586596 863.341773 67.3165731 958.986887"></polygon>
                    <polygon id="Stroke-2" stroke="#000000" stroke-width="0.5" stroke-linejoin="round" mask="url(#mask-2)" transform="translate(55.910323, 421.213068) rotate(-270.000000) translate(-55.910323, -421.213068) " points="113.764212 462.342144 92.7823124 380.083991 -1.94356623 428.304418"></polygon>
                    <polygon id="Stroke-3" stroke="#000000" stroke-width="0.5" stroke-linejoin="round" mask="url(#mask-2)" transform="translate(99.024522, 299.088926) rotate(-270.000000) translate(-99.024522, -299.088926) " points="163.294396 349.295614 69.0048496 248.882237 34.7546491 342.204263"></polygon>
                    <polygon id="Stroke-4" stroke="#000000" stroke-width="0.5" stroke-linejoin="round" mask="url(#mask-2)" transform="translate(104.369785, 199.398342) rotate(-270.000000) translate(-104.369785, -199.398342) " points="174.038798 154.530087 34.7007715 150.929395 139.788597 247.86729"></polygon>
                    <polygon id="Stroke-5" stroke="#000000" stroke-width="0.5" stroke-linejoin="round" mask="url(#mask-2)" transform="translate(101.994998, 926.927693) rotate(-270.000000) translate(-101.994998, -926.927693) " points="186.692818 875.749691 17.2971773 909.611844 155.16685 978.105696"></polygon>
                    <polygon id="Stroke-6" stroke="#000000" stroke-width="0.5" stroke-linejoin="round" mask="url(#mask-2)" transform="translate(398.107654, 579.094646) rotate(-270.000000) translate(-398.107654, -579.094646) " points="439.881744 630.384578 414.170198 527.804715 356.333565 625.593549"></polygon>
                    <polygon id="Stroke-7" stroke="#000000" stroke-width="0.5" stroke-linejoin="round" mask="url(#mask-2)" transform="translate(60.092046, 826.065463) rotate(-270.000000) translate(-60.092046, -826.065463) " points="-20.8438301 885.285782 141.027922 862.497845 76.2534206 766.845144"></polygon>
                    <polygon id="Stroke-9" stroke="#000000" stroke-width="0.5" stroke-linejoin="round" mask="url(#mask-2)" transform="translate(593.858155, 366.598283) rotate(-270.000000) translate(-593.858155, -366.598283) " points="531.523321 311.609011 656.192989 421.587555 641.145211 317.53175"></polygon>
                    <polygon id="Stroke-10" stroke="#000000" stroke-width="0.5" stroke-linejoin="round" mask="url(#mask-2)" transform="translate(300.106865, 579.094646) rotate(-270.000000) translate(-300.106865, -579.094646) " points="341.880955 532.383789 258.332776 527.59276 270.293794 630.596533"></polygon>
                    <polygon id="Stroke-18" stroke="#000000" stroke-width="0.5" stroke-linejoin="round" mask="url(#mask-2)" transform="translate(620.771323, 821.397267) rotate(-270.000000) translate(-620.771323, -821.397267) " points="678.465674 878.262093 685.257283 764.532441 556.285363 837.443101"></polygon>
                    <polygon id="Stroke-19" stroke="#000000" stroke-width="0.5" stroke-linejoin="round" mask="url(#mask-2)" transform="translate(55.909185, 511.904578) rotate(-270.000000) translate(-55.909185, -511.904578) " points="2.09042216 470.775502 23.0723219 553.033655 109.727947 522.353792"></polygon>
                    <polygon id="Stroke-21" stroke="#000000" stroke-width="0.5" stroke-linejoin="round" mask="url(#mask-2)" transform="translate(109.573523, 23.941095) rotate(-270.000000) translate(-109.573523, -23.941095) " points="135.843674 -31.2113272 62.7816106 43.6784987 156.365436 79.0935172"></polygon>
                    <polygon id="Stroke-22" stroke="#000000" stroke-width="0.5" stroke-linejoin="round" mask="url(#mask-2)" transform="translate(109.572765, 89.970477) rotate(-270.000000) translate(-109.572765, -89.970477) " points="90.337572 145.122899 149.32972 46.7052686 69.8158095 34.8180549"></polygon>
                    <polygon id="Stroke-29" stroke="#000000" stroke-width="0.5" stroke-linejoin="round" mask="url(#mask-2)" transform="translate(572.414881, 56.250944) rotate(-270.000000) translate(-572.414881, -56.250944) " points="516.072979 125.09472 654.045095 51.9502237 490.784668 -12.5928317"></polygon>
                    <polygon id="Stroke-32" stroke="#000000" stroke-width="0.5" stroke-linejoin="round" mask="url(#mask-2)" transform="translate(562.950963, 467.013121) rotate(-270.000000) translate(-562.950963, -467.013121) " points="601.030208 392.659472 524.871718 491.101271 600.599021 541.36677"></polygon>
                    <polygon id="Stroke-33" stroke="#000000" stroke-width="0.5" stroke-linejoin="round" mask="url(#mask-2)" transform="translate(590.896406, 459.490749) rotate(-270.000000) translate(-590.896406, -459.490749) " points="545.293272 407.46095 560.34105 511.520549 636.499541 413.078749"></polygon>
                    <polygon id="Stroke-34" stroke="#000000" stroke-width="0.5" stroke-linejoin="round" mask="url(#mask-2)" transform="translate(81.843746, 130.701163) rotate(-270.000000) translate(-81.843746, -130.701163) " points="21.8778675 158.124567 141.809625 201.69539 80.8700153 59.7069361"></polygon>
                    <polygon id="Stroke-35" stroke="#000000" stroke-width="0.5" stroke-linejoin="round" mask="url(#mask-2)" transform="translate(81.845264, 182.270966) rotate(-270.000000) translate(-81.845264, -182.270966) " points="29.3013509 111.276739 90.2447546 253.265193 134.389177 208.207045"></polygon>
                    <polygon id="Stroke-36" stroke="#000000" stroke-width="0.5" stroke-linejoin="round" mask="url(#mask-2)" transform="translate(400.699090, 147.523726) rotate(-270.000000) translate(-400.699090, -147.523726) " points="324.718433 156.191565 476.679747 208.156863 444.397018 86.8905884"></polygon>
                    <polygon id="Stroke-37" stroke="#000000" stroke-width="0.5" stroke-linejoin="round" mask="url(#mask-2)" transform="translate(484.374754, 68.895100) rotate(-270.000000) translate(-484.374754, -68.895100) " points="415.388696 51.1325747 487.023102 161.236327 553.360812 -23.4461272 415.388696 49.6983689"></polygon>
                    <polygon id="Stroke-38" stroke="#000000" stroke-width="0.5" stroke-linejoin="round" mask="url(#mask-2)" transform="translate(484.375134, 131.381223) rotate(-270.000000) translate(-484.375134, -131.381223) " points="544.214426 154.425268 490.877345 39.0399963 424.535841 223.72245"></polygon>
                    <polygon id="Stroke-43" stroke="#000000" stroke-width="0.5" stroke-linejoin="round" mask="url(#mask-2)" transform="translate(212.819647, 322.661502) rotate(-270.000000) translate(-212.819647, -322.661502) " points="219.398782 259.078378 159.226639 386.244626 266.412655 356.75614"></polygon>
                    <polygon id="Stroke-44" stroke="#000000" stroke-width="0.5" stroke-linejoin="round" mask="url(#mask-2)" transform="translate(113.771801, 410.721738) rotate(-270.000000) translate(-113.771801, -410.721738) " points="79.3034338 345.76891 66.4069641 475.674567 161.136637 427.454139"></polygon>
                    <polygon id="Stroke-45" stroke="#000000" stroke-width="0.5" stroke-linejoin="round" mask="url(#mask-2)" transform="translate(113.770662, 322.660364) rotate(-270.000000) translate(-113.770662, -322.660364) " points="154.469098 387.613192 167.361773 257.707535 60.1795515 287.199815"></polygon>
                    <polygon id="Stroke-47" stroke="#000000" stroke-width="0.5" stroke-linejoin="round" mask="url(#mask-2)" transform="translate(311.507663, 757.439614) rotate(-270.000000) translate(-311.507663, -757.439614) " points="245.967254 794.174493 359.445085 819.687701 377.048072 695.191527"></polygon>
                    <polygon id="Stroke-48" stroke="#000000" stroke-width="0.5" stroke-linejoin="round" mask="url(#mask-2)" transform="translate(197.039729, 767.063591) rotate(-270.000000) translate(-197.039729, -767.063591) " points="272.206012 844.798543 235.355072 714.841846 121.873447 689.328638"></polygon>
                    <polygon id="Stroke-49" stroke="#000000" stroke-width="0.5" stroke-linejoin="round" mask="url(#mask-2)" transform="translate(297.712489, 620.592477) rotate(-270.000000) translate(-297.712489, -620.592477) " points="369.019217 643.532182 297.989128 571.488002 226.405761 669.696952"></polygon>
                    <polygon id="Stroke-50" stroke="#000000" stroke-width="0.5" stroke-linejoin="round" mask="url(#mask-2)" transform="translate(347.616162, 668.238084) rotate(-270.000000) translate(-347.616162, -668.238084) " points="371.277283 741.081461 394.98513 595.394707 300.247194 669.037282"></polygon>
                    <polygon id="Stroke-51" stroke="#000000" stroke-width="0.5" stroke-linejoin="round" mask="url(#mask-2)" transform="translate(398.106516, 655.381552) rotate(-270.000000) translate(-398.106516, -655.381552) " points="337.881775 604.091621 363.593321 706.671483 458.331258 633.028908"></polygon>
                    <polygon id="Stroke-52" stroke="#000000" stroke-width="0.5" stroke-linejoin="round" mask="url(#mask-2)" transform="translate(347.616162, 757.439614) rotate(-270.000000) translate(-347.616162, -757.439614) " points="282.075753 830.282992 413.156571 731.300026 305.7836 684.596237"></polygon>
                    <polygon id="Stroke-58" stroke="#000000" stroke-width="0.5" stroke-linejoin="round" mask="url(#mask-2)" transform="translate(430.974112, 769.293917) rotate(-270.000000) translate(-430.974112, -769.293917) " points="444.529394 712.077453 377.287626 779.810387 484.660597 826.510382"></polygon>
                    <polygon id="Stroke-59" stroke="#000000" stroke-width="0.5" stroke-linejoin="round" mask="url(#mask-2)" transform="translate(487.186871, 860.342223) rotate(-270.000000) translate(-487.186871, -860.342223) " points="564.679515 937.056537 505.937784 783.627909 409.694227 859.340035"></polygon>
                    <polygon id="Stroke-60" stroke="#000000" stroke-width="0.5" stroke-linejoin="round" mask="url(#mask-2)" transform="translate(430.972594, 860.342223) rotate(-270.000000) translate(-430.972594, -860.342223) " points="508.465238 880.84226 353.47995 803.125758 393.607359 917.558687"></polygon>
                    <polygon id="Stroke-61" stroke="#000000" stroke-width="0.5" stroke-linejoin="round" mask="url(#mask-2)" transform="translate(546.459930, 818.002601) rotate(-270.000000) translate(-546.459930, -818.002601) " points="511.306529 876.271954 607.550085 800.559827 485.369774 759.733247"></polygon>
                    <polygon id="Stroke-62" stroke="#000000" stroke-width="0.5" stroke-linejoin="round" mask="url(#mask-2)" transform="translate(460.227020, 727.564838) rotate(-270.000000) translate(-460.227020, -727.564838) " points="515.511381 699.601281 404.942658 687.795461 448.269613 767.334215"></polygon>
                    <polygon id="Stroke-63" stroke="#000000" stroke-width="0.5" stroke-linejoin="round" mask="url(#mask-2)" transform="translate(460.228537, 655.381552) rotate(-270.000000) translate(-460.228537, -655.381552) " points="400.003796 666.213642 520.453279 695.150929 477.130118 615.612175"></polygon>
                    <polygon id="Stroke-68" stroke="#000000" stroke-width="0.5" stroke-linejoin="round" mask="url(#mask-2)" transform="translate(611.753280, 235.062120) rotate(-270.000000) translate(-611.753280, -235.062120) " points="542.55233 174.488468 629.594963 295.635772 680.95423 197.964558"></polygon>
                    <polygon id="Stroke-69" stroke="#000000" stroke-width="0.5" stroke-linejoin="round" mask="url(#mask-2)" transform="translate(611.753280, 195.393808) rotate(-270.000000) translate(-611.753280, -195.393808) " points="582.220641 134.820157 554.243285 230.431487 669.263274 255.96746"></polygon>
                    <polygon id="Stroke-70" stroke="#000000" stroke-width="0.5" stroke-linejoin="round" mask="url(#mask-2)" transform="translate(593.855120, 340.918270) rotate(-270.000000) translate(-593.855120, -340.918270) " points="681.871484 395.909439 557.201816 285.927101 505.838756 383.594521"></polygon>
                    <polygon id="Stroke-71" stroke="#000000" stroke-width="0.5" stroke-linejoin="round" mask="url(#mask-2)" transform="translate(519.023725, 195.393429) rotate(-270.000000) translate(-519.023725, -195.393429) " points="514.850812 253.086065 576.533719 163.232973 461.51373 137.700793"></polygon>
                    <polygon id="Stroke-79" stroke="#000000" stroke-width="0.5" stroke-linejoin="round" mask="url(#mask-2)" transform="translate(172.821620, 543.127531) rotate(-270.000000) translate(-172.821620, -543.127531) " points="87.779905 618.91089 257.863335 544.687803 178.977182 467.344172"></polygon>
                    <polygon id="Stroke-80" stroke="#000000" stroke-width="0.5" stroke-linejoin="round" mask="url(#mask-2)" transform="translate(223.016687, 620.592477) rotate(-270.000000) translate(-223.016687, -620.592477) " points="294.323415 568.836379 151.709959 595.00115 230.588523 672.348575"></polygon>
                    <polygon id="Stroke-81" stroke="#000000" stroke-width="0.5" stroke-linejoin="round" mask="url(#mask-2)" transform="translate(108.364833, 543.122978) rotate(-270.000000) translate(-108.364833, -543.122978) " points="193.406548 480.22798 23.3231182 554.451068 130.964437 606.017975"></polygon>
                    <polygon id="Stroke-82" stroke="#000000" stroke-width="0.5" stroke-linejoin="round" mask="url(#mask-2)" transform="translate(521.934912, 553.671080) rotate(-270.000000) translate(-521.934912, -553.671080) " points="563.420643 626.209544 570.941777 481.132615 472.928046 587.004125"></polygon>
                    <polygon id="Stroke-83" stroke="#000000" stroke-width="0.5" stroke-linejoin="round" mask="url(#mask-2)" transform="translate(546.457653, 692.764900) rotate(-270.000000) translate(-546.457653, -692.764900) " points="456.370698 644.751074 636.544608 751.032357 610.607854 634.497444"></polygon>
                    <polygon id="Stroke-84" stroke="#000000" stroke-width="0.5" stroke-linejoin="round" mask="url(#mask-2)" transform="translate(541.330838, 692.764900) rotate(-270.000000) translate(-541.330838, -692.764900) " points="451.243883 639.624259 520.84907 734.092132 631.417793 745.905541"></polygon>
                    <polygon id="Stroke-85" stroke="#000000" stroke-width="0.5" stroke-linejoin="round" mask="url(#mask-2)" transform="translate(562.950963, 553.669941) rotate(-270.000000) translate(-562.950963, -553.669941) " points="514.373388 479.316292 513.942201 628.023591 611.959726 522.144493"></polygon>
                    <polygon id="Stroke-86" stroke="#000000" stroke-width="0.5" stroke-linejoin="round" mask="url(#mask-2)" transform="translate(521.934912, 633.719972) rotate(-270.000000) translate(-521.934912, -633.719972) " points="483.371751 706.258436 560.498073 655.656969 490.892885 561.181507"></polygon>
                    <polygon id="Stroke-87" stroke="#000000" stroke-width="0.5" stroke-linejoin="round" mask="url(#mask-2)" transform="translate(416.514195, 25.190804) rotate(-270.000000) translate(-416.514195, -25.190804) " points="391.232432 -60.4322802 370.161551 110.813889 462.866839 49.6714718"></polygon>
                    <polygon id="Stroke-93" stroke="#000000" stroke-width="0.5" stroke-linejoin="round" mask="url(#mask-2)" transform="translate(306.335754, 497.692263) rotate(-270.000000) translate(-306.335754, -497.692263) " points="254.745683 439.971353 357.925825 555.413173 345.964807 452.420783"></polygon>
                    <polygon id="Stroke-94" stroke="#000000" stroke-width="0.5" stroke-linejoin="round" mask="url(#mask-2)" transform="translate(400.505825, 520.630829) rotate(-270.000000) translate(-400.505825, -520.630829) " points="475.031806 471.740206 325.979843 557.07961 417.198967 569.521452"></polygon>
                    <polygon id="Stroke-95" stroke="#000000" stroke-width="0.5" stroke-linejoin="round" mask="url(#mask-2)" transform="translate(426.329455, 520.630829) rotate(-270.000000) translate(-426.329455, -520.630829) " points="500.855437 497.563837 410.362841 458.358417 351.803474 582.903241"></polygon>
                    <polygon id="Stroke-99" stroke="#000000" stroke-width="0.5" stroke-linejoin="round" mask="url(#mask-2)" transform="translate(147.848606, 13.680593) rotate(-270.000000) translate(-147.848606, -13.680593) " points="137.008071 -44.3326522 111.317575 71.6938385 184.379638 -3.19598734"></polygon>
                    <polygon id="Stroke-104" stroke="#000000" stroke-width="0.5" stroke-linejoin="round" mask="url(#mask-2)" transform="translate(154.823096, 417.169973) rotate(-270.000000) translate(-154.823096, -417.169973) " points="113.906494 393.26844 195.739698 474.95367 178.927618 359.386277"></polygon>
                    <polygon id="Stroke-105" stroke="#000000" stroke-width="0.5" stroke-linejoin="round" mask="url(#mask-2)" transform="translate(227.558578, 385.259653) rotate(-270.000000) translate(-227.558578, -385.259653) " points="283.576077 400.220165 171.541079 336.416977 218.554953 434.102328"></polygon>
                    <polygon id="Stroke-106" stroke="#000000" stroke-width="0.5" stroke-linejoin="round" mask="url(#mask-2)" transform="translate(288.326606, 495.277656) rotate(-270.000000) translate(-288.326606, -495.277656) " points="239.151142 419.547598 234.321928 571.007714 342.331284 534.989418"></polygon>
                    <polygon id="Stroke-107" stroke="#000000" stroke-width="0.5" stroke-linejoin="round" mask="url(#mask-2)" transform="translate(288.335333, 387.672742) rotate(-270.000000) translate(-288.335333, -387.672742) " points="229.903227 399.605304 341.938225 463.400903 346.767439 311.944581"></polygon>
                    <polygon id="Stroke-108" stroke="#000000" stroke-width="0.5" stroke-linejoin="round" mask="url(#mask-2)" transform="translate(172.821620, 495.278415) rotate(-270.000000) translate(-172.821620, -495.278415) " points="135.629021 571.061774 226.826298 419.495056 118.816942 455.49438"></polygon>
                    <polygon id="Stroke-121" stroke="#000000" stroke-width="0.5" stroke-linejoin="round" mask="url(#mask-2)" transform="translate(65.659049, 776.262397) rotate(-270.000000) translate(-65.659049, -776.262397) " points="34.5262385 841.049719 131.623489 722.60908 -0.305392084 711.475075"></polygon>
                    <polygon id="Stroke-122" stroke="#000000" stroke-width="0.5" stroke-linejoin="round" mask="url(#mask-2)" transform="translate(108.359901, 638.012546) rotate(-270.000000) translate(-108.359901, -638.012546) " points="36.0714549 700.911337 180.648347 615.926076 98.5135657 575.113754"></polygon>
                    <polygon id="Stroke-123" stroke="#000000" stroke-width="0.5" stroke-linejoin="round" mask="url(#mask-2)" transform="translate(202.609008, 669.234360) rotate(-270.000000) translate(-202.609008, -669.234360) " points="243.674502 741.396618 225.270818 597.072101 161.543515 700.584297"></polygon>
                    <polygon id="Stroke-124" stroke="#000000" stroke-width="0.5" stroke-linejoin="round" mask="url(#mask-2)" transform="translate(65.659049, 655.427223) rotate(-270.000000) translate(-65.659049, -655.427223) " points="155.361413 720.214545 120.529782 590.639901 -24.0433156 675.625162"></polygon>
                    <polygon id="Stroke-125" stroke="#000000" stroke-width="0.5" stroke-linejoin="round" mask="url(#mask-2)" transform="translate(197.039729, 767.063591) rotate(-270.000000) translate(-197.039729, -767.063591) " points="272.206012 844.798543 121.873447 689.328638 140.27713 833.656949"></polygon>
                    <polygon id="Stroke-129" stroke="#000000" stroke-width="0.5" stroke-linejoin="round" mask="url(#mask-2)" transform="translate(396.872758, 981.415916) rotate(-270.000000) translate(-396.872758, -981.415916) " points="411.616458 1050.04164 440.453428 912.790192 353.292089 967.817634"></polygon>
                    <polygon id="Stroke-129" stroke="#000000" stroke-width="0.5" stroke-linejoin="round" mask="url(#mask-2)" transform="translate(415.530198, 1061.689183) rotate(-270.000000) translate(-415.530198, -1061.689183) " points="350.000631 1148.97235 378.8376 1011.7209 481.059765 974.406019"></polygon>
                    <polygon id="Stroke-131" stroke="#000000" stroke-width="0.5" stroke-linejoin="round" mask="url(#mask-2)" transform="translate(369.355622, 909.568112) rotate(-270.000000) translate(-369.355622, -909.568112) " points="282.764498 905.166845 455.946746 950.685806 397.622377 868.450418"></polygon>
                    <polygon id="Stroke-143" stroke="#000000" stroke-width="0.5" stroke-linejoin="round" mask="url(#mask-2)" transform="translate(426.333250, 426.759843) rotate(-270.000000) translate(-426.333250, -426.759843) " points="504.234965 364.491226 348.431535 445.734492 445.675598 489.028461"></polygon>
                    <polygon id="Stroke-144" stroke="#000000" stroke-width="0.5" stroke-linejoin="round" mask="url(#mask-2)" transform="translate(473.107671, 426.760223) rotate(-270.000000) translate(-473.107671, -426.760223) " points="475.282083 361.003943 395.205956 492.516502 551.009386 411.261853"></polygon>
                    <polygon id="Stroke-145" stroke="#000000" stroke-width="0.5" stroke-linejoin="round" mask="url(#mask-2)" transform="translate(341.880117, 387.672742) rotate(-270.000000) translate(-341.880117, -387.672742) " points="283.448011 453.150088 400.312222 365.489365 303.068159 322.195396"></polygon>
                    <polygon id="Stroke-151" stroke="#000000" stroke-width="0.5" stroke-linejoin="round" mask="url(#mask-2)" transform="translate(194.819605, 199.398342) rotate(-270.000000) translate(-194.819605, -199.398342) " points="264.488618 244.979907 185.205115 153.816778 125.150592 241.379216"></polygon>
                    <polygon id="Stroke-152" stroke="#000000" stroke-width="0.5" stroke-linejoin="round" mask="url(#mask-2)" transform="translate(212.819647, 259.512813) rotate(-270.000000) translate(-212.819647, -259.512813) " points="282.54747 195.929689 143.091824 231.929014 222.375328 323.095937"></polygon>
                    <polygon id="Stroke-153" stroke="#000000" stroke-width="0.5" stroke-linejoin="round" mask="url(#mask-2)" transform="translate(290.237545, 259.512434) rotate(-270.000000) translate(-290.237545, -259.512434) " points="254.228735 209.683268 220.509722 309.3416 359.965368 273.34607"></polygon>
                    <polygon id="Stroke-161" stroke="#000000" stroke-width="0.5" stroke-linejoin="round" mask="url(#mask-2)" transform="translate(288.659259, 983.300230) rotate(-270.000000) translate(-288.659259, -983.300230) " points="301.518644 943.712454 227.761567 1022.88801 349.55695 999.460565"></polygon>
                    <polygon id="Stroke-162" stroke="#000000" stroke-width="0.5" stroke-linejoin="round" mask="url(#mask-2)" transform="translate(311.413427, 863.889977) rotate(-270.000000) translate(-311.413427, -863.889977) " points="270.500437 801.546516 252.901245 926.04269 369.925609 926.233439"></polygon>
                    <polygon id="Stroke-163" stroke="#000000" stroke-width="0.5" stroke-linejoin="round" mask="url(#mask-2)" transform="translate(184.283125, 863.889218) rotate(-270.000000) translate(-184.283125, -863.889218) " points="162.623779 928.867567 242.79341 799.10162 125.77284 798.91087"></polygon>
                    <polygon id="Stroke-164" stroke="#000000" stroke-width="0.5" stroke-linejoin="round" mask="url(#mask-2)" transform="translate(311.413427, 909.568112) rotate(-270.000000) translate(-311.413427, -909.568112) " points="224.822303 847.22465 324.247474 971.911574 398.004551 892.743611"></polygon>
                    <polygon id="Stroke-165" stroke="#000000" stroke-width="0.5" stroke-linejoin="round" mask="url(#mask-2)" transform="translate(184.190027, 926.927693) rotate(-270.000000) translate(-184.190027, -926.927693) " points="268.887847 957.94472 179.669425 862.048514 99.4922063 991.806873"></polygon>
                    <polygon id="Stroke-166" stroke="#000000" stroke-width="0.5" stroke-linejoin="round" mask="url(#mask-2)" transform="translate(212.834824, 983.299092) rotate(-270.000000) translate(-212.834824, -983.299092) " points="241.161246 1042.96092 273.726824 923.637269 151.942824 947.064709"></polygon>
                    <polygon id="Stroke-172" stroke="#000000" stroke-width="0.5" stroke-linejoin="round" mask="url(#mask-2)" transform="translate(473.107671, 353.707307) rotate(-270.000000) translate(-473.107671, -353.707307) " points="548.334998 287.951027 397.880344 380.166067 468.258872 419.463587"></polygon>
                    <polygon id="Stroke-173" stroke="#000000" stroke-width="0.5" stroke-linejoin="round" mask="url(#mask-2)" transform="translate(361.528118, 313.668864) rotate(-270.000000) translate(-361.528118, -313.668864) " points="396.717382 267.840279 326.338854 228.542759 377.097234 398.79497"></polygon>
                    <polygon id="Stroke-174" stroke="#000000" stroke-width="0.5" stroke-linejoin="round" mask="url(#mask-2)" transform="translate(400.697951, 234.849489) rotate(-270.000000) translate(-400.697951, -234.849489) " points="389.352086 295.480729 444.326545 188.898909 357.069358 174.218249"></polygon>
                    <polygon id="Stroke-175" stroke="#000000" stroke-width="0.5" stroke-linejoin="round" mask="url(#mask-2)" transform="translate(498.915787, 340.917891) rotate(-270.000000) translate(-498.915787, -340.917891) " points="410.899423 288.654809 436.473703 393.180973 586.932151 300.969727"></polygon>
                    <polygon id="Stroke-176" stroke="#000000" stroke-width="0.5" stroke-linejoin="round" mask="url(#mask-2)" transform="translate(498.911993, 234.846074) rotate(-270.000000) translate(-498.911993, -234.846074) " points="542.542484 287.109156 516.968204 182.582993 455.281502 272.424702"></polygon>
                    <polygon id="Stroke-177" stroke="#000000" stroke-width="0.5" stroke-linejoin="round" mask="url(#mask-2)" transform="translate(361.526221, 276.371940) rotate(-270.000000) translate(-361.526221, -276.371940) " points="308.657904 297.83145 414.394537 361.494252 363.632363 191.249629"></polygon>
                    <polygon id="Stroke-179" stroke="#000000" stroke-width="0.5" stroke-linejoin="round" mask="url(#mask-2)" transform="translate(498.346119, 926.099421) rotate(-270.000000) translate(-498.346119, -926.099421) " points="510.081565 1013.97298 545.352404 838.225859 451.339834 860.544355"></polygon>
                    <polygon id="Stroke-180" stroke="#000000" stroke-width="0.5" stroke-linejoin="round" mask="url(#mask-2)" transform="translate(498.346119, 981.417433) rotate(-270.000000) translate(-498.346119, -981.417433) " points="454.763553 1069.291 541.928686 1014.26355 490.034392 893.543871"></polygon>
                    <polygon id="Stroke-181" stroke="#000000" stroke-width="0.5" stroke-linejoin="round" mask="url(#mask-2)" transform="translate(620.770944, 926.097144) rotate(-270.000000) translate(-620.770944, -926.097144) " points="667.775331 960.647268 580.558165 869.232318 573.766556 982.96197"></polygon>
                    <polygon id="Stroke-182" stroke="#000000" stroke-width="0.5" stroke-linejoin="round" mask="url(#mask-2)" transform="translate(217.680910, 147.899871) rotate(-270.000000) translate(-217.680910, -147.899871) " points="199.508092 212.74129 259.562615 125.178852 175.799206 83.0584512"></polygon>
                    <polygon id="Stroke-183" stroke="#000000" stroke-width="0.5" stroke-linejoin="round" mask="url(#mask-2)" transform="translate(217.680151, 89.971995) rotate(-270.000000) translate(-217.680151, -89.971995) " points="233.730117 25.1305752 177.921299 142.933789 257.439004 154.813414"></polygon>
                    <polygon id="Stroke-184" stroke="#000000" stroke-width="0.5" stroke-linejoin="round" mask="url(#mask-2)" transform="translate(268.375532, 42.430250) rotate(-270.000000) translate(-268.375532, -42.430250) " points="228.78534 104.943931 331.965725 28.2849704 204.78534 -20.0834306"></polygon>
                    <polygon id="Stroke-185" stroke="#000000" stroke-width="0.5" stroke-linejoin="round" mask="url(#mask-2)" transform="translate(337.275842, 42.429871) rotate(-270.000000) translate(-337.275842, -42.429871) " points="366.38904 -12.3255383 273.683752 48.8092902 400.867931 97.1852797"></polygon>
                    <polygon id="Stroke-186" stroke="#000000" stroke-width="0.5" stroke-linejoin="round" mask="url(#mask-2)" transform="translate(337.275842, 147.523726) rotate(-270.000000) translate(-337.275842, -147.523726) " points="261.295185 92.7683166 295.774077 202.279135 413.256499 144.733615"></polygon>
                    <polygon id="Stroke-187" stroke="#000000" stroke-width="0.5" stroke-linejoin="round" mask="url(#mask-2)" transform="translate(290.237545, 164.764310) rotate(-270.000000) translate(-290.237545, -164.764310) " points="348.976859 114.935144 231.498231 172.480663 315.257846 214.593476"></polygon>
                    <polygon id="Stroke-188" stroke="#000000" stroke-width="0.5" stroke-linejoin="round" mask="url(#mask-2)" transform="translate(223.622999, 54.430250) rotate(-270.000000) translate(-223.622999, -54.430250) " points="172.032807 72.1913979 219.404374 113.328063 275.213192 -4.46756253"></polygon>
                    <g id="Group-3" mask="url(#mask-2)" stroke="#000000" stroke-linejoin="round" stroke-width="0.5">
                        <g transform="translate(50.400002, 974.000000)">
                            <polygon id="Stroke-130" transform="translate(365.693748, 88.140625) rotate(-270.000000) translate(-365.693748, -88.140625) " points="299.959373 175.671875 410.424329 172.263736 431.428123 0.609375"></polygon>
                            <polygon id="Stroke-26" transform="translate(98.256248, 97.375000) rotate(-270.000000) translate(-98.256248, -97.375000) " points="132.568748 155.25 157.631248 39.5 38.8812485 91.3661596"></polygon>
                            <polygon id="Stroke-148" transform="translate(163.380387, 97.376897) rotate(-270.000000) translate(-163.380387, -97.376897) " points="104.00349 156.376897 222.757284 104.510738 136.50349 38.3768971"></polygon>
                            <polygon id="Stroke-16" transform="translate(52.322738, 68.843750) rotate(-270.000000) translate(-52.322738, -68.843750) " points="115.166488 80.7852395 21.478988 16.9013991 -10.521012 120.786101"></polygon>
                            <polygon id="Stroke-149" transform="translate(251.975512, 77.435603) rotate(-270.000000) translate(-251.975512, -77.435603) " points="244.574421 107.030728 307.411115 47.8404776 196.539909 51.2826174"></polygon>
                            <polygon id="Stroke-178" transform="translate(521.584373, 76.937500) rotate(-270.000000) translate(-521.584373, -76.937500) " points="444.646873 62.8376955 598.521873 146.140625 573.271873 7.734375"></polygon>
                        </g>
                    </g>
                    <polygon id="Stroke-21" stroke="#000000" stroke-width="0.5" stroke-linejoin="round" mask="url(#mask-2)" transform="translate(109.573523, 1151.941095) rotate(-270.000000) translate(-109.573523, -1151.941095) " points="135.843674 1096.78867 62.7816106 1171.6785 156.365436 1207.09352"></polygon>
                    <polygon id="Stroke-29" stroke="#000000" stroke-width="0.5" stroke-linejoin="round" mask="url(#mask-2)" transform="translate(572.414881, 1184.250944) rotate(-270.000000) translate(-572.414881, -1184.250944) " points="516.072979 1253.09472 654.045095 1179.95022 490.784668 1115.40717"></polygon>
                    <polygon id="Stroke-185" stroke="#000000" stroke-width="0.5" stroke-linejoin="round" mask="url(#mask-2)" transform="translate(337.275842, 1170.429871) rotate(-270.000000) translate(-337.275842, -1170.429871) " points="366.38904 1115.67446 273.683752 1176.80929 400.867931 1225.18528"></polygon>
                </g>
            </g>
        </g>
    </g>
</svg>