<?xml version="1.0" encoding="UTF-8"?>
<svg width="375px" height="265px" viewBox="0 0 375 265" version="1.1" xmlns="http://www.w3.org/2000/svg" xmlns:xlink="http://www.w3.org/1999/xlink">
    <!-- Generator: sketchtool 49.1 (51147) - http://www.bohemiancoding.com/sketch -->
    <title>55D0CA2A-FC28-4351-9BEE-71EA59D204C7</title>
    <desc>Created with sketchtool.</desc>
    <defs></defs>
    <g id="Symbols" stroke="none" stroke-width="1" fill="none" fill-rule="evenodd" opacity="0.100000001" stroke-linejoin="round">
        <g id="BLOCKS/nav4" stroke="#FFFFFF">
            <g id="Grad-bottom">
                <g id="mosaic-w" transform="translate(200.000000, 132.000000) scale(-1, 1) translate(-200.000000, -132.000000) translate(-139.000000, -432.000000)">
                    <g id="Group">
                        <polygon id="Stroke-1" stroke-width="0.5" transform="translate(71.482599, 937.164330) rotate(-270.000000) translate(-71.482599, -937.164330) " points="140.419333 957.828037 2.54586596 889.341773 67.3165731 984.986887"></polygon>
                        <polygon id="Stroke-2" stroke-width="0.5" transform="translate(55.910323, 447.213068) rotate(-270.000000) translate(-55.910323, -447.213068) " points="113.764212 488.342144 92.7823124 406.083991 -1.94356623 454.304418"></polygon>
                        <polygon id="Stroke-3" stroke-width="0.5" transform="translate(99.024522, 325.088926) rotate(-270.000000) translate(-99.024522, -325.088926) " points="163.294396 375.295614 69.0048496 274.882237 34.7546491 368.204263"></polygon>
                        <polygon id="Stroke-4" stroke-width="0.5" transform="translate(104.369785, 225.398342) rotate(-270.000000) translate(-104.369785, -225.398342) " points="174.038798 180.530087 34.7007715 176.929395 139.788597 273.86729"></polygon>
                        <polygon id="Stroke-5" stroke-width="0.5" transform="translate(101.994998, 952.927693) rotate(-270.000000) translate(-101.994998, -952.927693) " points="186.692818 901.749691 17.2971773 935.611844 155.16685 1004.1057"></polygon>
                        <polygon id="Stroke-6" stroke-width="0.5" transform="translate(398.107654, 605.094646) rotate(-270.000000) translate(-398.107654, -605.094646) " points="439.881744 656.384578 414.170198 553.804715 356.333565 651.593549"></polygon>
                        <polygon id="Stroke-7" stroke-width="0.5" transform="translate(60.092046, 852.065463) rotate(-270.000000) translate(-60.092046, -852.065463) " points="-20.8438301 911.285782 141.027922 888.497845 76.2534206 792.845144"></polygon>
                        <polygon id="Stroke-9" stroke-width="0.5" transform="translate(593.858155, 392.598283) rotate(-270.000000) translate(-593.858155, -392.598283) " points="531.523321 337.609011 656.192989 447.587555 641.145211 343.53175"></polygon>
                        <polygon id="Stroke-10" stroke-width="0.5" transform="translate(300.106865, 605.094646) rotate(-270.000000) translate(-300.106865, -605.094646) " points="341.880955 558.383789 258.332776 553.59276 270.293794 656.596533"></polygon>
                        <polygon id="Stroke-18" stroke-width="0.5" transform="translate(620.771323, 847.397267) rotate(-270.000000) translate(-620.771323, -847.397267) " points="678.465674 904.262093 685.257283 790.532441 556.285363 863.443101"></polygon>
                        <polygon id="Stroke-19" stroke-width="0.5" transform="translate(55.909185, 537.904578) rotate(-270.000000) translate(-55.909185, -537.904578) " points="2.09042216 496.775502 23.0723219 579.033655 109.727947 548.353792"></polygon>
                        <polygon id="Stroke-21" stroke-width="0.5" transform="translate(109.573523, 49.941095) rotate(-270.000000) translate(-109.573523, -49.941095) " points="135.843674 -5.21132718 62.7816106 69.6784987 156.365436 105.093517"></polygon>
                        <polygon id="Stroke-22" stroke-width="0.5" transform="translate(109.572765, 115.970477) rotate(-270.000000) translate(-109.572765, -115.970477) " points="90.337572 171.122899 149.32972 72.7052686 69.8158095 60.8180549"></polygon>
                        <polygon id="Stroke-29" stroke-width="0.5" transform="translate(572.414881, 82.250944) rotate(-270.000000) translate(-572.414881, -82.250944) " points="516.072979 151.09472 654.045095 77.9502237 490.784668 13.4071683"></polygon>
                        <polygon id="Stroke-32" stroke-width="0.5" transform="translate(562.950963, 493.013121) rotate(-270.000000) translate(-562.950963, -493.013121) " points="601.030208 418.659472 524.871718 517.101271 600.599021 567.36677"></polygon>
                        <polygon id="Stroke-33" stroke-width="0.5" transform="translate(590.896406, 485.490749) rotate(-270.000000) translate(-590.896406, -485.490749) " points="545.293272 433.46095 560.34105 537.520549 636.499541 439.078749"></polygon>
                        <polygon id="Stroke-34" stroke-width="0.5" transform="translate(81.843746, 156.701163) rotate(-270.000000) translate(-81.843746, -156.701163) " points="21.8778675 184.124567 141.809625 227.69539 80.8700153 85.7069361"></polygon>
                        <polygon id="Stroke-35" stroke-width="0.5" transform="translate(81.845264, 208.270966) rotate(-270.000000) translate(-81.845264, -208.270966) " points="29.3013509 137.276739 90.2447546 279.265193 134.389177 234.207045"></polygon>
                        <polygon id="Stroke-36" stroke-width="0.5" transform="translate(400.699090, 173.523726) rotate(-270.000000) translate(-400.699090, -173.523726) " points="324.718433 182.191565 476.679747 234.156863 444.397018 112.890588"></polygon>
                        <polygon id="Stroke-37" stroke-width="0.5" transform="translate(484.374754, 94.895100) rotate(-270.000000) translate(-484.374754, -94.895100) " points="415.388696 77.1325747 487.023102 187.236327 553.360812 2.55387282 415.388696 75.6983689"></polygon>
                        <polygon id="Stroke-38" stroke-width="0.5" transform="translate(484.375134, 157.381223) rotate(-270.000000) translate(-484.375134, -157.381223) " points="544.214426 180.425268 490.877345 65.0399963 424.535841 249.72245"></polygon>
                        <polygon id="Stroke-43" stroke-width="0.5" transform="translate(212.819647, 348.661502) rotate(-270.000000) translate(-212.819647, -348.661502) " points="219.398782 285.078378 159.226639 412.244626 266.412655 382.75614"></polygon>
                        <polygon id="Stroke-44" stroke-width="0.5" transform="translate(113.771801, 436.721738) rotate(-270.000000) translate(-113.771801, -436.721738) " points="79.3034338 371.76891 66.4069641 501.674567 161.136637 453.454139"></polygon>
                        <polygon id="Stroke-45" stroke-width="0.5" transform="translate(113.770662, 348.660364) rotate(-270.000000) translate(-113.770662, -348.660364) " points="154.469098 413.613192 167.361773 283.707535 60.1795515 313.199815"></polygon>
                        <polygon id="Stroke-47" stroke-width="0.5" transform="translate(311.507663, 783.439614) rotate(-270.000000) translate(-311.507663, -783.439614) " points="245.967254 820.174493 359.445085 845.687701 377.048072 721.191527"></polygon>
                        <polygon id="Stroke-48" stroke-width="0.5" transform="translate(197.039729, 793.063591) rotate(-270.000000) translate(-197.039729, -793.063591) " points="272.206012 870.798543 235.355072 740.841846 121.873447 715.328638"></polygon>
                        <polygon id="Stroke-49" stroke-width="0.5" transform="translate(297.712489, 646.592477) rotate(-270.000000) translate(-297.712489, -646.592477) " points="369.019217 669.532182 297.989128 597.488002 226.405761 695.696952"></polygon>
                        <polygon id="Stroke-50" stroke-width="0.5" transform="translate(347.616162, 694.238084) rotate(-270.000000) translate(-347.616162, -694.238084) " points="371.277283 767.081461 394.98513 621.394707 300.247194 695.037282"></polygon>
                        <polygon id="Stroke-51" stroke-width="0.5" transform="translate(398.106516, 681.381552) rotate(-270.000000) translate(-398.106516, -681.381552) " points="337.881775 630.091621 363.593321 732.671483 458.331258 659.028908"></polygon>
                        <polygon id="Stroke-52" stroke-width="0.5" transform="translate(347.616162, 783.439614) rotate(-270.000000) translate(-347.616162, -783.439614) " points="282.075753 856.282992 413.156571 757.300026 305.7836 710.596237"></polygon>
                        <polygon id="Stroke-58" stroke-width="0.5" transform="translate(430.974112, 795.293917) rotate(-270.000000) translate(-430.974112, -795.293917) " points="444.529394 738.077453 377.287626 805.810387 484.660597 852.510382"></polygon>
                        <polygon id="Stroke-59" stroke-width="0.5" transform="translate(487.186871, 886.342223) rotate(-270.000000) translate(-487.186871, -886.342223) " points="564.679515 963.056537 505.937784 809.627909 409.694227 885.340035"></polygon>
                        <polygon id="Stroke-60" stroke-width="0.5" transform="translate(430.972594, 886.342223) rotate(-270.000000) translate(-430.972594, -886.342223) " points="508.465238 906.84226 353.47995 829.125758 393.607359 943.558687"></polygon>
                        <polygon id="Stroke-61" stroke-width="0.5" transform="translate(546.459930, 844.002601) rotate(-270.000000) translate(-546.459930, -844.002601) " points="511.306529 902.271954 607.550085 826.559827 485.369774 785.733247"></polygon>
                        <polygon id="Stroke-62" stroke-width="0.5" transform="translate(460.227020, 753.564838) rotate(-270.000000) translate(-460.227020, -753.564838) " points="515.511381 725.601281 404.942658 713.795461 448.269613 793.334215"></polygon>
                        <polygon id="Stroke-63" stroke-width="0.5" transform="translate(460.228537, 681.381552) rotate(-270.000000) translate(-460.228537, -681.381552) " points="400.003796 692.213642 520.453279 721.150929 477.130118 641.612175"></polygon>
                        <polygon id="Stroke-68" stroke-width="0.5" transform="translate(611.753280, 261.062120) rotate(-270.000000) translate(-611.753280, -261.062120) " points="542.55233 200.488468 629.594963 321.635772 680.95423 223.964558"></polygon>
                        <polygon id="Stroke-69" stroke-width="0.5" transform="translate(611.753280, 221.393808) rotate(-270.000000) translate(-611.753280, -221.393808) " points="582.220641 160.820157 554.243285 256.431487 669.263274 281.96746"></polygon>
                        <polygon id="Stroke-70" stroke-width="0.5" transform="translate(593.855120, 366.918270) rotate(-270.000000) translate(-593.855120, -366.918270) " points="681.871484 421.909439 557.201816 311.927101 505.838756 409.594521"></polygon>
                        <polygon id="Stroke-71" stroke-width="0.5" transform="translate(519.023725, 221.393429) rotate(-270.000000) translate(-519.023725, -221.393429) " points="514.850812 279.086065 576.533719 189.232973 461.51373 163.700793"></polygon>
                        <polygon id="Stroke-79" stroke-width="0.5" transform="translate(172.821620, 569.127531) rotate(-270.000000) translate(-172.821620, -569.127531) " points="87.779905 644.91089 257.863335 570.687803 178.977182 493.344172"></polygon>
                        <polygon id="Stroke-80" stroke-width="0.5" transform="translate(223.016687, 646.592477) rotate(-270.000000) translate(-223.016687, -646.592477) " points="294.323415 594.836379 151.709959 621.00115 230.588523 698.348575"></polygon>
                        <polygon id="Stroke-81" stroke-width="0.5" transform="translate(108.364833, 569.122978) rotate(-270.000000) translate(-108.364833, -569.122978) " points="193.406548 506.22798 23.3231182 580.451068 130.964437 632.017975"></polygon>
                        <polygon id="Stroke-82" stroke-width="0.5" transform="translate(521.934912, 579.671080) rotate(-270.000000) translate(-521.934912, -579.671080) " points="563.420643 652.209544 570.941777 507.132615 472.928046 613.004125"></polygon>
                        <polygon id="Stroke-83" stroke-width="0.5" transform="translate(546.457653, 718.764900) rotate(-270.000000) translate(-546.457653, -718.764900) " points="456.370698 670.751074 636.544608 777.032357 610.607854 660.497444"></polygon>
                        <polygon id="Stroke-84" stroke-width="0.5" transform="translate(541.330838, 718.764900) rotate(-270.000000) translate(-541.330838, -718.764900) " points="451.243883 665.624259 520.84907 760.092132 631.417793 771.905541"></polygon>
                        <polygon id="Stroke-85" stroke-width="0.5" transform="translate(562.950963, 579.669941) rotate(-270.000000) translate(-562.950963, -579.669941) " points="514.373388 505.316292 513.942201 654.023591 611.959726 548.144493"></polygon>
                        <polygon id="Stroke-86" stroke-width="0.5" transform="translate(521.934912, 659.719972) rotate(-270.000000) translate(-521.934912, -659.719972) " points="483.371751 732.258436 560.498073 681.656969 490.892885 587.181507"></polygon>
                        <polygon id="Stroke-87" stroke-width="0.5" transform="translate(416.514195, 51.190804) rotate(-270.000000) translate(-416.514195, -51.190804) " points="391.232432 -34.4322802 370.161551 136.813889 462.866839 75.6714718"></polygon>
                        <polygon id="Stroke-93" stroke-width="0.5" transform="translate(306.335754, 523.692263) rotate(-270.000000) translate(-306.335754, -523.692263) " points="254.745683 465.971353 357.925825 581.413173 345.964807 478.420783"></polygon>
                        <polygon id="Stroke-94" stroke-width="0.5" transform="translate(400.505825, 546.630829) rotate(-270.000000) translate(-400.505825, -546.630829) " points="475.031806 497.740206 325.979843 583.07961 417.198967 595.521452"></polygon>
                        <polygon id="Stroke-95" stroke-width="0.5" transform="translate(426.329455, 546.630829) rotate(-270.000000) translate(-426.329455, -546.630829) " points="500.855437 523.563837 410.362841 484.358417 351.803474 608.903241"></polygon>
                        <polygon id="Stroke-99" stroke-width="0.5" transform="translate(147.848606, 39.680593) rotate(-270.000000) translate(-147.848606, -39.680593) " points="137.008071 -18.3326522 111.317575 97.6938385 184.379638 22.8040127"></polygon>
                        <polygon id="Stroke-104" stroke-width="0.5" transform="translate(154.823096, 443.169973) rotate(-270.000000) translate(-154.823096, -443.169973) " points="113.906494 419.26844 195.739698 500.95367 178.927618 385.386277"></polygon>
                        <polygon id="Stroke-105" stroke-width="0.5" transform="translate(227.558578, 411.259653) rotate(-270.000000) translate(-227.558578, -411.259653) " points="283.576077 426.220165 171.541079 362.416977 218.554953 460.102328"></polygon>
                        <polygon id="Stroke-106" stroke-width="0.5" transform="translate(288.326606, 521.277656) rotate(-270.000000) translate(-288.326606, -521.277656) " points="239.151142 445.547598 234.321928 597.007714 342.331284 560.989418"></polygon>
                        <polygon id="Stroke-107" stroke-width="0.5" transform="translate(288.335333, 413.672742) rotate(-270.000000) translate(-288.335333, -413.672742) " points="229.903227 425.605304 341.938225 489.400903 346.767439 337.944581"></polygon>
                        <polygon id="Stroke-108" stroke-width="0.5" transform="translate(172.821620, 521.278415) rotate(-270.000000) translate(-172.821620, -521.278415) " points="135.629021 597.061774 226.826298 445.495056 118.816942 481.49438"></polygon>
                        <polygon id="Stroke-121" stroke-width="0.5" transform="translate(65.659049, 802.262397) rotate(-270.000000) translate(-65.659049, -802.262397) " points="34.5262385 867.049719 131.623489 748.60908 -0.305392084 737.475075"></polygon>
                        <polygon id="Stroke-122" stroke-width="0.5" transform="translate(108.359901, 664.012546) rotate(-270.000000) translate(-108.359901, -664.012546) " points="36.0714549 726.911337 180.648347 641.926076 98.5135657 601.113754"></polygon>
                        <polygon id="Stroke-123" stroke-width="0.5" transform="translate(202.609008, 695.234360) rotate(-270.000000) translate(-202.609008, -695.234360) " points="243.674502 767.396618 225.270818 623.072101 161.543515 726.584297"></polygon>
                        <polygon id="Stroke-124" stroke-width="0.5" transform="translate(65.659049, 681.427223) rotate(-270.000000) translate(-65.659049, -681.427223) " points="155.361413 746.214545 120.529782 616.639901 -24.0433156 701.625162"></polygon>
                        <polygon id="Stroke-125" stroke-width="0.5" transform="translate(197.039729, 793.063591) rotate(-270.000000) translate(-197.039729, -793.063591) " points="272.206012 870.798543 121.873447 715.328638 140.27713 859.656949"></polygon>
                        <polygon id="Stroke-129" stroke-width="0.5" transform="translate(396.872758, 1007.415916) rotate(-270.000000) translate(-396.872758, -1007.415916) " points="411.616458 1076.04164 440.453428 938.790192 353.292089 993.817634"></polygon>
                        <polygon id="Stroke-129" stroke-width="0.5" transform="translate(415.530198, 1087.689183) rotate(-270.000000) translate(-415.530198, -1087.689183) " points="350.000631 1174.97235 378.8376 1037.7209 481.059765 1000.40602"></polygon>
                        <polygon id="Stroke-131" stroke-width="0.5" transform="translate(369.355622, 935.568112) rotate(-270.000000) translate(-369.355622, -935.568112) " points="282.764498 931.166845 455.946746 976.685806 397.622377 894.450418"></polygon>
                        <polygon id="Stroke-143" stroke-width="0.5" transform="translate(426.333250, 452.759843) rotate(-270.000000) translate(-426.333250, -452.759843) " points="504.234965 390.491226 348.431535 471.734492 445.675598 515.028461"></polygon>
                        <polygon id="Stroke-144" stroke-width="0.5" transform="translate(473.107671, 452.760223) rotate(-270.000000) translate(-473.107671, -452.760223) " points="475.282083 387.003943 395.205956 518.516502 551.009386 437.261853"></polygon>
                        <polygon id="Stroke-145" stroke-width="0.5" transform="translate(341.880117, 413.672742) rotate(-270.000000) translate(-341.880117, -413.672742) " points="283.448011 479.150088 400.312222 391.489365 303.068159 348.195396"></polygon>
                        <polygon id="Stroke-151" stroke-width="0.5" transform="translate(194.819605, 225.398342) rotate(-270.000000) translate(-194.819605, -225.398342) " points="264.488618 270.979907 185.205115 179.816778 125.150592 267.379216"></polygon>
                        <polygon id="Stroke-152" stroke-width="0.5" transform="translate(212.819647, 285.512813) rotate(-270.000000) translate(-212.819647, -285.512813) " points="282.54747 221.929689 143.091824 257.929014 222.375328 349.095937"></polygon>
                        <polygon id="Stroke-153" stroke-width="0.5" transform="translate(290.237545, 285.512434) rotate(-270.000000) translate(-290.237545, -285.512434) " points="254.228735 235.683268 220.509722 335.3416 359.965368 299.34607"></polygon>
                        <polygon id="Stroke-161" stroke-width="0.5" transform="translate(288.659259, 1009.300230) rotate(-270.000000) translate(-288.659259, -1009.300230) " points="301.518644 969.712454 227.761567 1048.88801 349.55695 1025.46057"></polygon>
                        <polygon id="Stroke-162" stroke-width="0.5" transform="translate(311.413427, 889.889977) rotate(-270.000000) translate(-311.413427, -889.889977) " points="270.500437 827.546516 252.901245 952.04269 369.925609 952.233439"></polygon>
                        <polygon id="Stroke-163" stroke-width="0.5" transform="translate(184.283125, 889.889218) rotate(-270.000000) translate(-184.283125, -889.889218) " points="162.623779 954.867567 242.79341 825.10162 125.77284 824.91087"></polygon>
                        <polygon id="Stroke-164" stroke-width="0.5" transform="translate(311.413427, 935.568112) rotate(-270.000000) translate(-311.413427, -935.568112) " points="224.822303 873.22465 324.247474 997.911574 398.004551 918.743611"></polygon>
                        <polygon id="Stroke-165" stroke-width="0.5" transform="translate(184.190027, 952.927693) rotate(-270.000000) translate(-184.190027, -952.927693) " points="268.887847 983.94472 179.669425 888.048514 99.4922063 1017.80687"></polygon>
                        <polygon id="Stroke-166" stroke-width="0.5" transform="translate(212.834824, 1009.299092) rotate(-270.000000) translate(-212.834824, -1009.299092) " points="241.161246 1068.96092 273.726824 949.637269 151.942824 973.064709"></polygon>
                        <polygon id="Stroke-172" stroke-width="0.5" transform="translate(473.107671, 379.707307) rotate(-270.000000) translate(-473.107671, -379.707307) " points="548.334998 313.951027 397.880344 406.166067 468.258872 445.463587"></polygon>
                        <polygon id="Stroke-173" stroke-width="0.5" transform="translate(361.528118, 339.668864) rotate(-270.000000) translate(-361.528118, -339.668864) " points="396.717382 293.840279 326.338854 254.542759 377.097234 424.79497"></polygon>
                        <polygon id="Stroke-174" stroke-width="0.5" transform="translate(400.697951, 260.849489) rotate(-270.000000) translate(-400.697951, -260.849489) " points="389.352086 321.480729 444.326545 214.898909 357.069358 200.218249"></polygon>
                        <polygon id="Stroke-175" stroke-width="0.5" transform="translate(498.915787, 366.917891) rotate(-270.000000) translate(-498.915787, -366.917891) " points="410.899423 314.654809 436.473703 419.180973 586.932151 326.969727"></polygon>
                        <polygon id="Stroke-176" stroke-width="0.5" transform="translate(498.911993, 260.846074) rotate(-270.000000) translate(-498.911993, -260.846074) " points="542.542484 313.109156 516.968204 208.582993 455.281502 298.424702"></polygon>
                        <polygon id="Stroke-177" stroke-width="0.5" transform="translate(361.526221, 302.371940) rotate(-270.000000) translate(-361.526221, -302.371940) " points="308.657904 323.83145 414.394537 387.494252 363.632363 217.249629"></polygon>
                        <polygon id="Stroke-179" stroke-width="0.5" transform="translate(498.346119, 952.099421) rotate(-270.000000) translate(-498.346119, -952.099421) " points="510.081565 1039.97298 545.352404 864.225859 451.339834 886.544355"></polygon>
                        <polygon id="Stroke-180" stroke-width="0.5" transform="translate(498.346119, 1007.417433) rotate(-270.000000) translate(-498.346119, -1007.417433) " points="454.763553 1095.291 541.928686 1040.26355 490.034392 919.543871"></polygon>
                        <polygon id="Stroke-181" stroke-width="0.5" transform="translate(620.770944, 952.097144) rotate(-270.000000) translate(-620.770944, -952.097144) " points="667.775331 986.647268 580.558165 895.232318 573.766556 1008.96197"></polygon>
                        <polygon id="Stroke-182" stroke-width="0.5" transform="translate(217.680910, 173.899871) rotate(-270.000000) translate(-217.680910, -173.899871) " points="199.508092 238.74129 259.562615 151.178852 175.799206 109.058451"></polygon>
                        <polygon id="Stroke-183" stroke-width="0.5" transform="translate(217.680151, 115.971995) rotate(-270.000000) translate(-217.680151, -115.971995) " points="233.730117 51.1305752 177.921299 168.933789 257.439004 180.813414"></polygon>
                        <polygon id="Stroke-184" stroke-width="0.5" transform="translate(268.375532, 68.430250) rotate(-270.000000) translate(-268.375532, -68.430250) " points="228.78534 130.943931 331.965725 54.2849704 204.78534 5.91656939"></polygon>
                        <polygon id="Stroke-185" stroke-width="0.5" transform="translate(337.275842, 68.429871) rotate(-270.000000) translate(-337.275842, -68.429871) " points="366.38904 13.6744617 273.683752 74.8092902 400.867931 123.18528"></polygon>
                        <polygon id="Stroke-186" stroke-width="0.5" transform="translate(337.275842, 173.523726) rotate(-270.000000) translate(-337.275842, -173.523726) " points="261.295185 118.768317 295.774077 228.279135 413.256499 170.733615"></polygon>
                        <polygon id="Stroke-187" stroke-width="0.5" transform="translate(290.237545, 190.764310) rotate(-270.000000) translate(-290.237545, -190.764310) " points="348.976859 140.935144 231.498231 198.480663 315.257846 240.593476"></polygon>
                        <polygon id="Stroke-188" stroke-width="0.5" transform="translate(223.622999, 80.430250) rotate(-270.000000) translate(-223.622999, -80.430250) " points="172.032807 98.1913979 219.404374 139.328063 275.213192 21.5324375"></polygon>
                    </g>
                    <g id="Group-3" transform="translate(50.000000, 1000.000000)">
                        <polygon id="Stroke-130" stroke-width="0.5" transform="translate(365.693748, 88.140625) rotate(-270.000000) translate(-365.693748, -88.140625) " points="299.959373 175.671875 410.424329 172.263736 431.428123 0.609375"></polygon>
                        <polygon id="Stroke-26" stroke-width="0.5" transform="translate(98.256248, 97.375000) rotate(-270.000000) translate(-98.256248, -97.375000) " points="132.568748 155.25 157.631248 39.5 38.8812485 91.3661596"></polygon>
                        <polygon id="Stroke-148" stroke-width="0.5" transform="translate(163.380387, 97.376897) rotate(-270.000000) translate(-163.380387, -97.376897) " points="104.00349 156.376897 222.757284 104.510738 136.50349 38.3768971"></polygon>
                        <polygon id="Stroke-16" stroke-width="0.5" transform="translate(52.322738, 68.843750) rotate(-270.000000) translate(-52.322738, -68.843750) " points="115.166488 80.7852395 21.478988 16.9013991 -10.521012 120.786101"></polygon>
                        <polygon id="Stroke-149" stroke-width="0.5" transform="translate(251.975512, 77.435603) rotate(-270.000000) translate(-251.975512, -77.435603) " points="244.574421 107.030728 307.411115 47.8404776 196.539909 51.2826174"></polygon>
                        <polygon id="Stroke-178" stroke-width="0.5" transform="translate(521.584373, 76.937500) rotate(-270.000000) translate(-521.584373, -76.937500) " points="444.646873 62.8376955 598.521873 146.140625 573.271873 7.734375"></polygon>
                    </g>
                </g>
            </g>
        </g>
    </g>
</svg>