<svg width="678" height="1128" viewBox="0 0 678 1128" xmlns="http://www.w3.org/2000/svg" xmlns:xlink="http://www.w3.org/1999/xlink"><defs><path id="a" d="M0 0h678v1128H0z"/></defs><g fill="none" opacity=".1"><mask id="b" fill="#fff"><use xlink:href="#a"/></mask><path stroke="#FFF" stroke-width=".5" stroke-linejoin="round" mask="url(#b)" transform="rotate(90 71.483 911.164)" d="M140.42 931.828L2.545 863.342l64.77 95.645z"/><path stroke="#FFF" stroke-width=".5" stroke-linejoin="round" mask="url(#b)" transform="rotate(90 55.91 421.213)" d="M113.764 462.342l-20.982-82.258-94.726 48.22z"/><path stroke="#FFF" stroke-width=".5" stroke-linejoin="round" mask="url(#b)" transform="rotate(90 99.025 299.089)" d="M163.294 349.296l-94.29-100.414-34.25 93.322z"/><path stroke="#FFF" stroke-width=".5" stroke-linejoin="round" mask="url(#b)" transform="rotate(90 104.37 199.398)" d="M174.039 154.53L34.7 150.93l105.088 96.937z"/><path stroke="#FFF" stroke-width=".5" stroke-linejoin="round" mask="url(#b)" transform="rotate(90 101.995 926.928)" d="M186.693 875.75L17.297 909.612l137.87 68.494z"/><path stroke="#FFF" stroke-width=".5" stroke-linejoin="round" mask="url(#b)" transform="rotate(90 398.108 579.095)" d="M439.882 630.385l-25.712-102.58-57.836 97.789z"/><path stroke="#FFF" stroke-width=".5" stroke-linejoin="round" mask="url(#b)" transform="rotate(90 60.092 826.065)" d="M-20.844 885.286l161.872-22.788-64.775-95.653z"/><path stroke="#FFF" stroke-width=".5" stroke-linejoin="round" mask="url(#b)" transform="rotate(90 593.858 366.598)" d="M531.523 311.609l124.67 109.979-15.048-104.056z"/><path stroke="#FFF" stroke-width=".5" stroke-linejoin="round" mask="url(#b)" transform="rotate(90 300.107 579.095)" d="M341.881 532.384l-83.548-4.791 11.96 103.004z"/><path stroke="#FFF" stroke-width=".5" stroke-linejoin="round" mask="url(#b)" transform="rotate(90 620.771 821.397)" d="M678.466 878.262l6.791-113.73-128.972 72.911z"/><path stroke="#FFF" stroke-width=".5" stroke-linejoin="round" mask="url(#b)" transform="rotate(90 55.91 511.905)" d="M2.09 470.776l20.982 82.258 86.656-30.68z"/><path stroke="#FFF" stroke-width=".5" stroke-linejoin="round" mask="url(#b)" transform="rotate(90 109.574 23.941)" d="M135.844-31.211l-73.062 74.89 93.583 35.415z"/><path stroke="#FFF" stroke-width=".5" stroke-linejoin="round" mask="url(#b)" transform="rotate(90 109.573 89.97)" d="M90.338 145.123l58.992-98.418-79.514-11.887z"/><path stroke="#FFF" stroke-width=".5" stroke-linejoin="round" mask="url(#b)" transform="rotate(90 572.415 56.25)" d="M516.073 125.095L654.045 51.95l-163.26-64.543z"/><path stroke="#FFF" stroke-width=".5" stroke-linejoin="round" mask="url(#b)" transform="rotate(90 562.951 467.013)" d="M601.03 392.66l-76.158 98.44 75.727 50.266z"/><path stroke="#FFF" stroke-width=".5" stroke-linejoin="round" mask="url(#b)" transform="rotate(90 590.896 459.49)" d="M545.293 407.461l15.048 104.06 76.159-98.442z"/><path stroke="#FFF" stroke-width=".5" stroke-linejoin="round" mask="url(#b)" transform="rotate(90 81.844 130.701)" d="M21.878 158.125l119.932 43.57L80.87 59.707z"/><path stroke="#FFF" stroke-width=".5" stroke-linejoin="round" mask="url(#b)" transform="rotate(90 81.845 182.271)" d="M29.301 111.277l60.944 141.988 44.144-45.058z"/><path stroke="#FFF" stroke-width=".5" stroke-linejoin="round" mask="url(#b)" transform="rotate(90 400.7 147.524)" d="M324.718 156.192l151.962 51.965L444.397 86.89z"/><path stroke="#FFF" stroke-width=".5" stroke-linejoin="round" mask="url(#b)" transform="rotate(90 484.375 68.895)" d="M415.389 51.133l71.634 110.103 66.338-184.682-137.972 73.144z"/><path stroke="#FFF" stroke-width=".5" stroke-linejoin="round" mask="url(#b)" transform="rotate(90 484.375 131.381)" d="M544.214 154.425L490.877 39.04l-66.341 184.682z"/><path stroke="#FFF" stroke-width=".5" stroke-linejoin="round" mask="url(#b)" transform="rotate(90 212.82 322.662)" d="M219.399 259.078l-60.172 127.167 107.186-29.489z"/><path stroke="#FFF" stroke-width=".5" stroke-linejoin="round" mask="url(#b)" transform="rotate(90 113.772 410.722)" d="M79.303 345.769L66.407 475.675l94.73-48.22z"/><path stroke="#FFF" stroke-width=".5" stroke-linejoin="round" mask="url(#b)" transform="rotate(90 113.77 322.66)" d="M154.47 387.613l12.892-129.905L60.18 287.2z"/><path stroke="#FFF" stroke-width=".5" stroke-linejoin="round" mask="url(#b)" transform="rotate(90 311.508 757.44)" d="M245.967 794.174l113.478 25.514 17.603-124.496z"/><path stroke="#FFF" stroke-width=".5" stroke-linejoin="round" mask="url(#b)" transform="rotate(90 197.04 767.064)" d="M272.206 844.799l-36.85-129.957-113.483-25.513z"/><path stroke="#FFF" stroke-width=".5" stroke-linejoin="round" mask="url(#b)" transform="rotate(90 297.712 620.592)" d="M369.02 643.532l-71.03-72.044-71.584 98.209z"/><path stroke="#FFF" stroke-width=".5" stroke-linejoin="round" mask="url(#b)" transform="rotate(90 347.616 668.238)" d="M371.277 741.081l23.708-145.686-94.738 73.642z"/><path stroke="#FFF" stroke-width=".5" stroke-linejoin="round" mask="url(#b)" transform="rotate(90 398.107 655.382)" d="M337.882 604.092l25.711 102.58 94.738-73.643z"/><path stroke="#FFF" stroke-width=".5" stroke-linejoin="round" mask="url(#b)" transform="rotate(90 347.616 757.44)" d="M282.076 830.283l131.08-98.983-107.372-46.704z"/><path stroke="#FFF" stroke-width=".5" stroke-linejoin="round" mask="url(#b)" transform="rotate(90 430.974 769.294)" d="M444.53 712.077l-67.242 67.733 107.373 46.7z"/><path stroke="#FFF" stroke-width=".5" stroke-linejoin="round" mask="url(#b)" transform="rotate(90 487.187 860.342)" d="M564.68 937.057l-58.742-153.43-96.244 75.713z"/><path stroke="#FFF" stroke-width=".5" stroke-linejoin="round" mask="url(#b)" transform="rotate(90 430.973 860.342)" d="M508.465 880.842L353.48 803.126l40.127 114.433z"/><path stroke="#FFF" stroke-width=".5" stroke-linejoin="round" mask="url(#b)" transform="rotate(90 546.46 818.003)" d="M511.307 876.272l96.243-75.712-122.18-40.827z"/><path stroke="#FFF" stroke-width=".5" stroke-linejoin="round" mask="url(#b)" transform="rotate(90 460.227 727.565)" d="M515.511 699.601l-110.568-11.806 43.327 79.54z"/><path stroke="#FFF" stroke-width=".5" stroke-linejoin="round" mask="url(#b)" transform="rotate(90 460.229 655.382)" d="M400.004 666.214l120.45 28.937-43.324-79.539z"/><path stroke="#FFF" stroke-width=".5" stroke-linejoin="round" mask="url(#b)" transform="rotate(90 611.753 235.062)" d="M542.552 174.488l87.043 121.148 51.36-97.671z"/><path stroke="#FFF" stroke-width=".5" stroke-linejoin="round" mask="url(#b)" transform="rotate(90 611.753 195.394)" d="M582.22 134.82l-27.977 95.611 115.02 25.536z"/><path stroke="#FFF" stroke-width=".5" stroke-linejoin="round" mask="url(#b)" transform="rotate(90 593.855 340.918)" d="M681.871 395.91l-124.67-109.983-51.362 97.668z"/><path stroke="#FFF" stroke-width=".5" stroke-linejoin="round" mask="url(#b)" transform="rotate(90 519.024 195.393)" d="M514.85 253.086l61.684-89.853-115.02-25.532z"/><path stroke="#FFF" stroke-width=".5" stroke-linejoin="round" mask="url(#b)" transform="rotate(90 172.822 543.128)" d="M87.78 618.91l170.083-74.222-78.886-77.344z"/><path stroke="#FFF" stroke-width=".5" stroke-linejoin="round" mask="url(#b)" transform="rotate(90 223.017 620.592)" d="M294.323 568.836L151.71 595.001l78.879 77.348z"/><path stroke="#FFF" stroke-width=".5" stroke-linejoin="round" mask="url(#b)" transform="rotate(90 108.365 543.123)" d="M193.407 480.228L23.323 554.451l107.641 51.567z"/><path stroke="#FFF" stroke-width=".5" stroke-linejoin="round" mask="url(#b)" transform="rotate(90 521.935 553.671)" d="M563.42 626.21l7.522-145.077-98.014 105.871z"/><path stroke="#FFF" stroke-width=".5" stroke-linejoin="round" mask="url(#b)" transform="rotate(90 546.458 692.765)" d="M456.37 644.751l180.175 106.281-25.937-116.535z"/><path stroke="#FFF" stroke-width=".5" stroke-linejoin="round" mask="url(#b)" transform="rotate(90 541.33 692.765)" d="M451.244 639.624l69.605 94.468 110.569 11.814z"/><path stroke="#FFF" stroke-width=".5" stroke-linejoin="round" mask="url(#b)" transform="rotate(90 562.951 553.67)" d="M514.373 479.316l-.43 148.708 98.017-105.88z"/><path stroke="#FFF" stroke-width=".5" stroke-linejoin="round" mask="url(#b)" transform="rotate(90 521.935 633.72)" d="M483.372 706.258l77.126-50.601-69.605-94.475z"/><path stroke="#FFF" stroke-width=".5" stroke-linejoin="round" mask="url(#b)" transform="rotate(90 416.514 25.19)" d="M391.232-60.432l-21.07 171.246 92.705-61.143z"/><path stroke="#FFF" stroke-width=".5" stroke-linejoin="round" mask="url(#b)" transform="rotate(90 306.336 497.692)" d="M254.746 439.971l103.18 115.442-11.961-102.992z"/><path stroke="#FFF" stroke-width=".5" stroke-linejoin="round" mask="url(#b)" transform="rotate(90 400.506 520.63)" d="M475.032 471.74L325.98 557.08l91.219 12.441z"/><path stroke="#FFF" stroke-width=".5" stroke-linejoin="round" mask="url(#b)" transform="rotate(90 426.33 520.63)" d="M500.855 497.564l-90.492-39.206-58.56 124.545z"/><path stroke="#FFF" stroke-width=".5" stroke-linejoin="round" mask="url(#b)" transform="rotate(90 147.849 13.68)" d="M137.008-44.333l-25.69 116.027 73.062-74.89z"/><path stroke="#FFF" stroke-width=".5" stroke-linejoin="round" mask="url(#b)" transform="rotate(90 154.823 417.17)" d="M113.906 393.268l81.834 81.686-16.812-115.568z"/><path stroke="#FFF" stroke-width=".5" stroke-linejoin="round" mask="url(#b)" transform="rotate(90 227.559 385.26)" d="M283.576 400.22l-112.035-63.803 47.014 97.685z"/><path stroke="#FFF" stroke-width=".5" stroke-linejoin="round" mask="url(#b)" transform="rotate(90 288.327 495.278)" d="M239.151 419.548l-4.83 151.46 108.01-36.019z"/><path stroke="#FFF" stroke-width=".5" stroke-linejoin="round" mask="url(#b)" transform="rotate(90 288.335 387.673)" d="M229.903 399.605l112.035 63.796 4.83-151.456z"/><path stroke="#FFF" stroke-width=".5" stroke-linejoin="round" mask="url(#b)" transform="rotate(90 172.822 495.278)" d="M135.629 571.062l91.197-151.567-108.01 36z"/><path stroke="#FFF" stroke-width=".5" stroke-linejoin="round" mask="url(#b)" transform="rotate(90 65.659 776.262)" d="M34.526 841.05l97.097-118.44L-.305 711.474z"/><path stroke="#FFF" stroke-width=".5" stroke-linejoin="round" mask="url(#b)" transform="rotate(90 108.36 638.013)" d="M36.071 700.911l144.577-84.985-82.134-40.812z"/><path stroke="#FFF" stroke-width=".5" stroke-linejoin="round" mask="url(#b)" transform="rotate(90 202.609 669.234)" d="M243.675 741.397L225.27 597.072l-63.727 103.512z"/><path stroke="#FFF" stroke-width=".5" stroke-linejoin="round" mask="url(#b)" transform="rotate(90 65.659 655.427)" d="M155.361 720.215L120.53 590.64l-144.573 84.985z"/><path stroke="#FFF" stroke-width=".5" stroke-linejoin="round" mask="url(#b)" transform="rotate(90 197.04 767.064)" d="M272.206 844.799l-150.333-155.47 18.404 144.328z"/><path stroke="#FFF" stroke-width=".5" stroke-linejoin="round" mask="url(#b)" transform="rotate(90 396.873 981.416)" d="M411.616 1050.042l28.837-137.252-87.16 55.028z"/><path stroke="#FFF" stroke-width=".5" stroke-linejoin="round" mask="url(#b)" transform="rotate(90 415.53 1061.69)" d="M350 1148.972l28.838-137.251 102.222-37.315z"/><path stroke="#FFF" stroke-width=".5" stroke-linejoin="round" mask="url(#b)" transform="rotate(90 369.356 909.568)" d="M282.764 905.167l173.183 45.519-58.325-82.236z"/><path stroke="#FFF" stroke-width=".5" stroke-linejoin="round" mask="url(#b)" transform="rotate(90 426.333 426.76)" d="M504.235 364.491l-155.803 81.243 97.244 43.294z"/><path stroke="#FFF" stroke-width=".5" stroke-linejoin="round" mask="url(#b)" transform="rotate(90 473.108 426.76)" d="M475.282 361.004l-80.076 131.513 155.803-81.255z"/><path stroke="#FFF" stroke-width=".5" stroke-linejoin="round" mask="url(#b)" transform="rotate(90 341.88 387.673)" d="M283.448 453.15l116.864-87.66-97.244-43.295z"/><path stroke="#FFF" stroke-width=".5" stroke-linejoin="round" mask="url(#b)" transform="rotate(90 194.82 199.398)" d="M264.489 244.98l-79.284-91.163-60.054 87.562z"/><path stroke="#FFF" stroke-width=".5" stroke-linejoin="round" mask="url(#b)" transform="rotate(90 212.82 259.513)" d="M282.547 195.93l-139.455 35.999 79.283 91.167z"/><path stroke="#FFF" stroke-width=".5" stroke-linejoin="round" mask="url(#b)" transform="rotate(90 290.238 259.512)" d="M254.229 209.683l-33.72 99.659 139.456-35.996z"/><path stroke="#FFF" stroke-width=".5" stroke-linejoin="round" mask="url(#b)" transform="rotate(90 288.66 983.3)" d="M301.519 943.712l-73.757 79.176 121.795-23.427z"/><path stroke="#FFF" stroke-width=".5" stroke-linejoin="round" mask="url(#b)" transform="rotate(90 311.413 863.89)" d="M270.5 801.547l-17.599 124.496 117.025.19z"/><path stroke="#FFF" stroke-width=".5" stroke-linejoin="round" mask="url(#b)" transform="rotate(90 184.283 863.89)" d="M162.624 928.868l80.17-129.766-117.021-.191z"/><path stroke="#FFF" stroke-width=".5" stroke-linejoin="round" mask="url(#b)" transform="rotate(90 311.413 909.568)" d="M224.822 847.225l99.425 124.687 73.758-79.168z"/><path stroke="#FFF" stroke-width=".5" stroke-linejoin="round" mask="url(#b)" transform="rotate(90 184.19 926.928)" d="M268.888 957.945l-89.219-95.896-80.177 129.758z"/><path stroke="#FFF" stroke-width=".5" stroke-linejoin="round" mask="url(#b)" transform="rotate(90 212.835 983.3)" d="M241.161 1042.96l32.566-119.323-121.784 23.428z"/><path stroke="#FFF" stroke-width=".5" stroke-linejoin="round" mask="url(#b)" transform="rotate(90 473.108 353.707)" d="M548.335 287.951L397.88 380.166l70.379 39.298z"/><path stroke="#FFF" stroke-width=".5" stroke-linejoin="round" mask="url(#b)" transform="rotate(90 361.528 313.669)" d="M396.717 267.84l-70.378-39.297 50.758 170.252z"/><path stroke="#FFF" stroke-width=".5" stroke-linejoin="round" mask="url(#b)" transform="rotate(90 400.698 234.85)" d="M389.352 295.48l54.975-106.58-87.258-14.68z"/><path stroke="#FFF" stroke-width=".5" stroke-linejoin="round" mask="url(#b)" transform="rotate(90 498.916 340.918)" d="M410.9 288.655l25.574 104.526 150.458-92.211z"/><path stroke="#FFF" stroke-width=".5" stroke-linejoin="round" mask="url(#b)" transform="rotate(90 498.912 234.846)" d="M542.542 287.11l-25.574-104.527-61.686 89.842z"/><path stroke="#FFF" stroke-width=".5" stroke-linejoin="round" mask="url(#b)" transform="rotate(90 361.526 276.372)" d="M308.658 297.831l105.737 63.663-50.763-170.244z"/><path stroke="#FFF" stroke-width=".5" stroke-linejoin="round" mask="url(#b)" transform="rotate(90 498.346 926.1)" d="M510.082 1013.973l35.27-175.747-94.012 22.318z"/><path stroke="#FFF" stroke-width=".5" stroke-linejoin="round" mask="url(#b)" transform="rotate(90 498.346 981.417)" d="M454.764 1069.291l87.165-55.027-51.895-120.72z"/><path stroke="#FFF" stroke-width=".5" stroke-linejoin="round" mask="url(#b)" transform="rotate(90 620.77 926.097)" d="M667.775 960.647l-87.217-91.415-6.791 113.73z"/><path stroke="#FFF" stroke-width=".5" stroke-linejoin="round" mask="url(#b)" transform="rotate(90 217.68 147.9)" d="M199.508 212.741l60.055-87.562-83.764-42.12z"/><path stroke="#FFF" stroke-width=".5" stroke-linejoin="round" mask="url(#b)" transform="rotate(90 217.68 89.972)" d="M233.73 25.13l-55.809 117.804 79.518 11.88z"/><path stroke="#FFF" stroke-width=".5" stroke-linejoin="round" mask="url(#b)" transform="rotate(90 268.376 42.43)" d="M228.785 104.944l103.18-76.659-127.18-48.368z"/><path stroke="#FFF" stroke-width=".5" stroke-linejoin="round" mask="url(#b)" transform="rotate(90 337.276 42.43)" d="M366.389-12.326L273.684 48.81l127.184 48.376z"/><path stroke="#FFF" stroke-width=".5" stroke-linejoin="round" mask="url(#b)" transform="rotate(90 337.276 147.524)" d="M261.295 92.768l34.48 109.511 117.481-57.545z"/><path stroke="#FFF" stroke-width=".5" stroke-linejoin="round" mask="url(#b)" transform="rotate(90 290.238 164.764)" d="M348.977 114.935l-117.479 57.546 83.76 42.112z"/><path stroke="#FFF" stroke-width=".5" stroke-linejoin="round" mask="url(#b)" transform="rotate(90 223.623 54.43)" d="M172.033 72.191l47.371 41.137 55.81-117.796z"/><g mask="url(#b)" stroke="#FFF" stroke-linejoin="round" stroke-width=".5"><path d="M328.563 996.406l3.408 110.465 171.654 21.004zM90.781 1105.688l115.75 25.062L154.665 1012zM154.78 1012l51.867 118.754 66.133-86.254z"/><path d="M90.781 1105.688L154.665 1012 50.78 980zm181.999-61.653l59.19 62.836L328.529 996zM586.084 974l-83.303 153.875 138.406-25.25z"/></g><path stroke="#FFF" stroke-width=".5" stroke-linejoin="round" mask="url(#b)" transform="rotate(90 109.574 1152.441)" d="M135.344 1097.289l-72.062 73.89 92.583 36.415z"/><path stroke="#FFF" stroke-width=".5" stroke-linejoin="round" mask="url(#b)" transform="rotate(90 572.415 1184.25)" d="M516.073 1253.095l137.972-73.145-163.26-64.543z"/><path stroke="#FFF" stroke-width=".5" stroke-linejoin="round" mask="url(#b)" transform="rotate(90 337.276 1170.43)" d="M366.389 1115.674l-92.705 60.135 127.184 49.376z"/><path stroke="#FFF" stroke-width=".5" stroke-linejoin="round" mask="url(#b)" transform="rotate(90 269.014 1170.59)" d="M229.423 1233.604l103.18-76.66-127.18-49.367z"/></g></svg>