<svg width="40" height="40" viewBox="0 0 40 40"><path d="M24.808 8.542a2.292 2.292 0 012.292 2.291v.209h1.867c1.218 0 2.215.951 2.287 2.152l.004.14v15.833a2.291 2.291 0 01-2.152 2.287l-.14.004H10.634a2.291 2.291 0 01-2.287-2.152l-.004-.14V16.769a.566.566 0 01-.009-.101l.009-.104v-3.23c0-1.218.951-2.215 2.152-2.287l.14-.004h1.882v-.209c0-1.213.943-2.205 2.135-2.286l.157-.005a2.292 2.292 0 012.292 2.291v.245a.5.5 0 01.124-.03l.084-.006h2.167a.625.625 0 01.085 1.244l-.085.006h-2.167a.633.633 0 01-.209-.036l.001.244a2.292 2.292 0 11-4.583 0v-.21l-1.884.002c-.539 0-.983.41-1.036.935l-.005.106v2.708h16.033a.625.625 0 01.085 1.245l-.085.006-16.034-.001v11.876c0 .539.41.983.936 1.036l.106.005h18.334c.539 0 .983-.41 1.036-.935l.005-.106V13.333c0-.539-.41-.983-.935-1.036l-.106-.005-1.868-.001.001.209a2.29 2.29 0 01-2.135 2.286l-.157.006a2.292 2.292 0 01-2.291-2.292v-1.667a2.291 2.291 0 012.291-2.291zm-10 1.25a1.04 1.04 0 00-1.041 1.041V12.5a1.042 1.042 0 102.083 0v-1.667c0-.575-.466-1.041-1.042-1.041zm10 0a1.04 1.04 0 00-1.041 1.041V12.5a1.042 1.042 0 102.083 0v-1.667c0-.575-.466-1.041-1.042-1.041z" fill="#FFF" fill-rule="evenodd"/></svg>