<svg viewBox="0 0 41 40"><path d="M19.868 8.076l-7.963 6.634c-.425.307-.697.84-.697 1.407v13.574a2.292 2.292 0 0 0 2.292 2.292h3.722c.59 0 1.07-.479 1.07-1.07v-6.222c0-.574.467-1.041 1.041-1.041h3.334c.574 0 1.041.467 1.041 1.041v6.222c0 .591.48 1.07 1.071 1.07H28.5a2.291 2.291 0 0 0 2.292-2.292V16.117c0-.566-.272-1.1-.73-1.433l-7.897-6.583-.033-.025a1.927 1.927 0 0 0-2.264 0zm1.448.96l.072.045 7.907 6.589c.166.123.247.28.247.447v13.574c0 .254-.09.493-.253.682l-.078.08c-.19.178-.442.28-.711.28h-3.542V24.69a2.291 2.291 0 0 0-2.291-2.291h-3.334l-.14.004a2.292 2.292 0 0 0-2.151 2.287v6.042H13.5a1.043 1.043 0 0 1-1.042-1.042V16.117c0-.167.08-.324.214-.422l7.963-6.633a.664.664 0 0 1 .681-.026z" fill="#FFF" fill-rule="evenodd"/></svg>
