<svg viewBox="0 0 33 32"><title>Se déconnecter</title><path d="M21.667 5.5c.975 0 1.772.761 1.83 1.722l.003.111v5.257a.5.5 0 0 1-.995.068l-.005-.068V7.333a.834.834 0 0 0-.748-.829l-.085-.004h-12a.834.834 0 0 0-.83.748l-.004.085v18c0 .432.328.787.748.83l.086.004h12a.834.834 0 0 0 .829-.748l.004-.086v-4.271a.5.5 0 0 1 .995-.068l.005.068v4.271c0 .975-.761 1.773-1.722 1.83l-.111.004h-12a1.833 1.833 0 0 1-1.83-1.722l-.004-.112v-18c0-.975.761-1.772 1.722-1.83l.112-.003h12zm4.744 6.988l.051.053 2.913 3.47a.5.5 0 0 1 .021.617l-.05.058-2.912 2.932a.5.5 0 0 1-.757-.648l.048-.057 2.064-2.08H17.333a.5.5 0 0 1-.068-.995l.068-.005H27.92l-2.223-2.65a.5.5 0 0 1 .009-.652l.053-.052a.5.5 0 0 1 .653.009z" fill="#FFF" fill-rule="evenodd"/></svg>
