<svg width="193" height="189" viewBox="0 0 193 189" xmlns="http://www.w3.org/2000/svg"><path d="M95.863 149.167a3.603 3.603 0 013.604 3.602v32.59a3.603 3.603 0 01-3.604 3.601 3.603 3.603 0 01-3.605-3.602v-32.59a3.603 3.603 0 013.605-3.601zm24.2 6.201l6.81 20.942a3.601 3.601 0 01-3.43 4.715 3.606 3.606 0 01-3.427-2.49l-6.81-20.94a3.605 3.605 0 016.857-2.226zm-46.812 7.343a3.601 3.601 0 012.314 4.54l-2.01 6.178a3.606 3.606 0 01-4.541 2.312 3.601 3.601 0 01-2.315-4.539l2.01-6.178a3.606 3.606 0 014.542-2.313zm-13.265-20.197a3.6 3.6 0 01.798 5.031L43.918 170.74a3.6 3.6 0 01-2.919 1.485 3.6 3.6 0 01-2.913-5.72l16.865-23.194a3.607 3.607 0 015.035-.797zm64.953-15.804l26.143 35.956a3.6 3.6 0 01-2.913 5.72 3.6 3.6 0 01-2.919-1.486l-26.144-35.955a3.6 3.6 0 01.798-5.032 3.606 3.606 0 015.035.797zm-39.967-.044a3.601 3.601 0 012.314 4.539l-8.002 24.607a3.606 3.606 0 01-4.542 2.313 3.601 3.601 0 01-2.315-4.539l8.002-24.608a3.606 3.606 0 014.543-2.312zm-60.857 18.608a3.6 3.6 0 01-.797 5.03l-1.102.8a3.6 3.6 0 01-5.035-.797 3.6 3.6 0 01.797-5.03l1.102-.8a3.606 3.606 0 015.035.797zm87.181-16.868l5.173 15.909a3.602 3.602 0 01-3.429 4.716 3.606 3.606 0 01-3.427-2.49l-5.174-15.908a3.606 3.606 0 016.857-2.226zm49.542 7.162l9.568 6.946a3.6 3.6 0 01-2.122 6.516 3.592 3.592 0 01-2.116-.688l-9.567-6.946a3.6 3.6 0 01-.798-5.031 3.607 3.607 0 015.035-.797zm-64.975-9.401a3.603 3.603 0 013.604 3.602v10.058a3.603 3.603 0 01-3.604 3.602 3.603 3.603 0 01-3.605-3.602v-10.058a3.603 3.603 0 013.605-3.602zm-33.093-8.97a3.6 3.6 0 01-.797 5.031l-28.115 20.41a3.59 3.59 0 01-2.116.689 3.6 3.6 0 01-2.121-6.516l28.114-20.41a3.607 3.607 0 015.035.796zm9.05 9.042a3.6 3.6 0 01.797 5.031l-4.104 5.645a3.6 3.6 0 01-2.92 1.485 3.6 3.6 0 01-2.913-5.72l4.105-5.644a3.606 3.606 0 015.035-.797zm62.17-10.162l16.295 11.83a3.6 3.6 0 01-2.122 6.516 3.59 3.59 0 01-2.116-.688l-16.294-11.83a3.6 3.6 0 01-.798-5.03 3.607 3.607 0 015.036-.798zm-97.556-3.61a3.601 3.601 0 01-2.314 4.539l-22.512 7.309a3.606 3.606 0 01-4.542-2.313 3.601 3.601 0 012.315-4.539l22.511-7.308a3.606 3.606 0 014.542 2.312zm115.403-5.232l21.012 6.822a3.601 3.601 0 11-2.228 6.852l-21.012-6.822a3.601 3.601 0 112.228-6.852zm-89.493-3.18a3.601 3.601 0 01-2.315 4.539l-13.119 4.26a3.606 3.606 0 01-4.542-2.312 3.601 3.601 0 012.314-4.54l13.12-4.26a3.605 3.605 0 014.542 2.313zm71.58-2.635l7.209 2.34a3.601 3.601 0 11-2.228 6.851l-7.21-2.34a3.601 3.601 0 112.228-6.851zM23.613 89.57a3.603 3.603 0 013.604 3.603 3.603 3.603 0 01-3.604 3.602H3.79a3.603 3.603 0 01-3.605-3.602 3.603 3.603 0 013.605-3.602h19.823zm35.3 0a3.603 3.603 0 013.605 3.603 3.603 3.603 0 01-3.604 3.602H35.82a3.603 3.603 0 01-3.605-3.602 3.603 3.603 0 013.605-3.602h23.095zm110.655-.322a3.604 3.604 0 013.605 3.602 3.604 3.604 0 01-3.605 3.602H132.81a3.603 3.603 0 01-3.605-3.602 3.603 3.603 0 013.605-3.602h36.758zm19.628 0a3.604 3.604 0 013.605 3.602 3.604 3.604 0 01-3.605 3.602h-6.703a3.603 3.603 0 01-3.605-3.602 3.603 3.603 0 013.605-3.602h6.703zM52.82 75.41l7.21 2.34a3.601 3.601 0 11-2.228 6.852l-7.21-2.34a3.601 3.601 0 112.228-6.852zm96.537.07a3.601 3.601 0 01-2.314 4.54l-13.12 4.259a3.604 3.604 0 01-4.542-2.313 3.601 3.601 0 012.315-4.538l13.119-4.26a3.605 3.605 0 014.542 2.313zM21.104 65.115l21.012 6.822a3.601 3.601 0 11-2.228 6.851l-21.012-6.822a3.602 3.602 0 112.228-6.851zm163.358-1.03a3.601 3.601 0 01-2.314 4.54l-22.315 7.244a3.601 3.601 0 01-4.542-2.313 3.601 3.601 0 012.315-4.539l22.314-7.244a3.605 3.605 0 014.542 2.313zM45.678 52.289l16.294 11.83a3.6 3.6 0 01-2.121 6.515 3.592 3.592 0 01-2.116-.688L41.44 58.115a3.6 3.6 0 01-.798-5.03 3.607 3.607 0 015.035-.797zm117.224-8.107a3.6 3.6 0 01-.797 5.03L133.99 69.623a3.601 3.601 0 11-4.238-5.828l28.115-20.41a3.606 3.606 0 015.035.797zM45.491 17.768l27.128 37.31a3.6 3.6 0 01-2.913 5.72 3.6 3.6 0 01-2.92-1.486L39.66 22.002a3.6 3.6 0 01.797-5.03 3.607 3.607 0 015.035.796zm81.31 32.532a3.6 3.6 0 01.797 5.032l-2.658 3.655a3.6 3.6 0 01-2.919 1.485 3.6 3.6 0 01-2.913-5.72l2.658-3.655a3.607 3.607 0 015.035-.797zM82.218 39.556l5.068 15.585a3.602 3.602 0 01-3.429 4.716 3.606 3.606 0 01-3.428-2.49l-5.068-15.585a3.606 3.606 0 016.857-2.226zm34.766-11.659a3.601 3.601 0 012.314 4.54l-8.002 24.607a3.606 3.606 0 01-4.542 2.313 3.602 3.602 0 01-2.315-4.539l8.002-24.608a3.606 3.606 0 014.543-2.313zM95.863 17.31a3.603 3.603 0 013.604 3.602v35.019a3.603 3.603 0 01-3.604 3.602 3.603 3.603 0 01-3.605-3.602V20.912a3.603 3.603 0 013.605-3.602zM24.958 37.246l10.167 7.38a3.6 3.6 0 01-2.122 6.516 3.59 3.59 0 01-2.116-.688l-10.166-7.38a3.6 3.6 0 01-.798-5.032 3.607 3.607 0 015.035-.796zm127.884-22.76a3.6 3.6 0 01.798 5.03l-20.16 27.727a3.6 3.6 0 01-2.92 1.485 3.6 3.6 0 01-2.913-5.72l20.16-27.726a3.607 3.607 0 015.035-.797zm-79.391-1.892l5.173 15.908a3.601 3.601 0 01-3.43 4.716 3.606 3.606 0 01-3.427-2.49L66.594 14.82a3.605 3.605 0 016.857-2.226zm49.26-2.313a3.601 3.601 0 012.315 4.539l-2.01 6.179a3.606 3.606 0 01-4.541 2.312 3.601 3.601 0 01-2.315-4.539l2.01-6.178a3.607 3.607 0 014.542-2.313zM95.864.071a3.603 3.603 0 013.604 3.602V7.76a3.603 3.603 0 01-3.604 3.602 3.603 3.603 0 01-3.605-3.602V3.673A3.603 3.603 0 0195.863.072z" fill="#FFF" fill-rule="evenodd"/></svg>