<svg xmlns="http://www.w3.org/2000/svg" width="24" height="24" viewBox="0 0 24 24"><path fill="#FFF" fill-rule="evenodd" d="M10.91 14.727a2.183 2.183 0 01-1.637 2.113v2.135l-.007.107c-.043.314-.268.554-.539.554-.301 0-.545-.296-.545-.661V16.84a2.182 2.182 0 01-.001-4.226V6.116l.008-.107c.042-.314.267-.554.538-.554.302 0 .546.296.546.661v6.498a2.184 2.184 0 011.636 2.113zm-1.092 0a1.09 1.09 0 10-2.18-.002 1.09 1.09 0 002.18.003zm7.637-4.363c0 1.016-.696 1.87-1.637 2.113v6.498c0 .365-.244.661-.545.661-.271 0-.496-.24-.539-.554l-.007-.107v-6.498a2.184 2.184 0 010-4.226V6.116c0-.365.244-.661.546-.661.27 0 .496.24.538.554l.007.107v2.135a2.183 2.183 0 011.637 2.113zm-1.091 0a1.091 1.091 0 10-2.182 0 1.091 1.091 0 002.182 0z"/></svg>