<svg xmlns="http://www.w3.org/2000/svg" width="32" height="32" viewBox="0 0 32 32"><path fill="#151515" fill-rule="evenodd" d="M9.863 9.431l.056.049 13.135 13.135a.5.5 0 01-.651.755l-.056-.048L9.212 10.187a.5.5 0 01.65-.756zm.24 3.18a.499.499 0 01-.104.699c-1.019.756-1.792 1.688-2.25 2.717a.944.944 0 000 .772c1.215 2.726 4.537 4.614 8.343 4.614.901 0 1.782-.105 2.625-.309a.5.5 0 01.235.972c-.92.223-1.88.337-2.86.337-4.18 0-7.87-2.097-9.257-5.207a1.948 1.948 0 010-1.586c.531-1.191 1.416-2.258 2.569-3.113a.501.501 0 01.7.103zm5.989-2.198c4.181 0 7.871 2.097 9.257 5.207.225.506.225 1.08 0 1.586a7.61 7.61 0 01-1.75 2.427 8.744 8.744 0 01-.812.68.5.5 0 11-.597-.802c.258-.191.5-.393.722-.604a6.643 6.643 0 001.523-2.108.944.944 0 000-.772c-1.214-2.727-4.536-4.614-8.343-4.614-.828 0-1.642.089-2.427.262a.5.5 0 11-.216-.976c.856-.19 1.742-.286 2.643-.286zm-2.534 5.5a.5.5 0 01.5.5c0 1.123.91 2.034 2.034 2.034a.5.5 0 010 1 3.034 3.034 0 01-3.034-3.034.5.5 0 01.5-.5zm2.534-2.534a3.034 3.034 0 013.034 3.034.5.5 0 01-1 0c0-1.124-.91-2.034-2.034-2.034a.5.5 0 010-1z"/></svg>