<svg xmlns="http://www.w3.org/2000/svg" width="40" height="40" viewBox="0 0 40 40"><path fill="#151515" fill-rule="evenodd" d="M28.125 8.334c1.241 0 2.22 1.08 2.288 2.406l.004.148v14.661a.625.625 0 01-1.245.085l-.005-.085V10.888c0-.695-.433-1.237-.945-1.299l-.097-.005h-15c-.52 0-.984.5-1.037 1.175l-.005.129v18.64c0 .696.433 1.238.945 1.3l.097.006h15c.52 0 .984-.502 1.037-1.177l.005-.128a.625.625 0 111.25 0c0 1.342-.934 2.471-2.155 2.55l-.137.005h-15c-1.241 0-2.22-1.082-2.288-2.407l-.004-.148V10.888c0-1.342.934-2.471 2.155-2.55l.137-.004h15zm-2.292 13.364a.625.625 0 01.085 1.245l-.085.005h-10a.625.625 0 01-.085-1.244l.085-.006h10zm0-4.05a.625.625 0 01.085 1.245l-.085.005h-10a.625.625 0 01-.085-1.245l.085-.005h10zm0-4.05a.625.625 0 01.085 1.245l-.085.005h-10a.625.625 0 01-.085-1.245l.085-.005h10z"/></svg>