<svg xmlns="http://www.w3.org/2000/svg" width="48" height="48" viewBox="0 0 48 48"><defs><linearGradient id="a" x1="0%" x2="100%" y1="13.936%" y2="86.064%"><stop offset="0%" stop-color="#EB0055"/><stop offset="100%" stop-color="#320096"/></linearGradient></defs><path fill="url(#a)" fill-rule="evenodd" d="M24 13c.824 0 1.56.5 1.867 1.249l.056.153 1.66 5.102a.522.522 0 00.413.354l.084.006h1a.75.75 0 01.102 1.493l-.102.007h-1a2.019 2.019 0 01-1.867-1.245l-.056-.153-1.662-5.104a.519.519 0 00-.96-.075l-.032.08-1.66 5.098a2.02 2.02 0 01-1.76 1.393l-.163.006h-5.364a.52.52 0 00-.381.878l.07.061 4.383 3.122a2.01 2.01 0 01.78 2.104l-.044.156-1.639 5.06a.52.52 0 00.188.548.554.554 0 00.459.098l.057-.024 4.345-3.153a2.04 2.04 0 012.23-.092l.147.095 4.337 3.148a.52.52 0 00.818-.492l-.021-.093-1.607-5.09a2.009 2.009 0 01.602-2.162l.129-.1 4.342-3.162a.52.52 0 00-.226-.936l-.085-.006h-.89a.75.75 0 01-.102-1.493l.102-.007h.886a2.02 2.02 0 011.324 3.556l-.129.1-4.343 3.163a.51.51 0 00-.205.49l.022.095 1.609 5.097a2.02 2.02 0 01-2.959 2.352l-.146-.096-4.335-3.147a.538.538 0 00-.541-.05l-.082.047-4.402 3.19a2.019 2.019 0 01-2.243-.134 2.023 2.023 0 01-.757-1.998l.037-.166 1.652-5.105a.51.51 0 00-.113-.512l-.07-.06-4.384-3.123a2.02 2.02 0 011.026-3.653l.163-.006h5.36a.522.522 0 00.465-.284l.032-.078 1.658-5.096A2.022 2.022 0 0124 13zm10.097 14.602l.084.073 2.7 2.71a.748.748 0 01-.002 1.06.748.748 0 01-.976.071l-.084-.072-2.7-2.71a.75.75 0 01.978-1.131zm-18.878.07a.751.751 0 01.075.977l-.073.085-2.7 2.71a.75.75 0 01-1.135-.975l.073-.084 2.7-2.71a.749.749 0 011.06-.002zM34.89 13.825a.75.75 0 01.073.976l-.073.085-2.71 2.71a.75.75 0 01-1.133-.977l.073-.084 2.71-2.71a.749.749 0 011.06 0zm-19.664-.493l.084.073 2.71 2.71a.749.749 0 01-.976 1.133l-.084-.072-2.71-2.71a.75.75 0 01.976-1.134z"/></svg>