<svg width="48" height="49" xmlns="http://www.w3.org/2000/svg"><defs><linearGradient x1=".091%" y1="0%" x2="99.909%" y2="100%" id="a"><stop stop-color="#EB0055" offset="0%"/><stop stop-color="#320096" offset="100%"/></linearGradient></defs><path d="M17.767 9.513a.752.752 0 01.549.436l.893 2.042 4.567 5.045a.749.749 0 11-1.112 1.006l-.785-.868-3.007 3.008a.744.744 0 01-.53.22.749.749 0 01-.53-1.28l3.06-3.06-2.327-2.57-5.053 5.051 5.816 5.266 6.42-6.419a.749.749 0 111.06 1.06L14.26 30.98l2.57 2.57 14.812-14.81-2.572-2.572-.448.45a.749.749 0 11-1.06-1.06l3.105-3.107a.765.765 0 01.009-.009l.008-.008 1-.999a3.324 3.324 0 014.693 0 3.322 3.322 0 010 4.693l-7.046 7.044 4.45 4.915a1.347 1.347 0 01-.046 1.864l.774.754a1.484 1.484 0 011.818.216l1.094 1.095a1.48 1.48 0 010 2.092l-3.34 3.339a1.474 1.474 0 01-1.044.432c-.38 0-.758-.144-1.046-.432l-1.095-1.095a1.48 1.48 0 01-.2-1.843l-.775-.774c-.48.51-1.297.532-1.832.046l-1.59-1.45a.748.748 0 01-.104-.086l-.034-.039-1.76-1.604a.75.75 0 111.01-1.11l1.295 1.18 2.573-2.571a.749.749 0 111.06 1.06l-2.524 2.522.982.896c.56-.47 1.462-.43 1.986.096l.749.749 1.693-1.693-.75-.75a1.485 1.485 0 01-.096-1.987l-4.309-4.76-10.912 10.913a.738.738 0 01-.312.186l-5.23 1.598a.75.75 0 01-.935-.936l1.598-5.229a.735.735 0 01.048-.122l.018-.032a.718.718 0 01.12-.158l.004-.005.006-.007 5.572-5.572-6.254-5.662-2.043-.893a.75.75 0 01-.229-1.218l3.874-3.873 3.504-3.504a.75.75 0 01.669-.207zm17.498 22.469l-.147.15a.754.754 0 01-.103.129l-1.355 1.355a.765.765 0 01-.007.008l-1.392 1.39-.018.014-.288.293 1.08 1.05 3.325-3.324-1.095-1.065zm-21.716.408l-.592 1.934.5.536 1.962-.6-1.87-1.87zm17.655-18.358l-1.075 1.075 2.572 2.573 1.076-1.076-2.573-2.572zm-13.822-2.475l-2.728 2.727-3.096 3.097.68.297 5.372-5.373.071-.063-.299-.685zm15.36.938l-.477.476 2.572 2.573.479-.476a1.822 1.822 0 000-2.573 1.822 1.822 0 00-2.573 0z" transform="translate(0 .5)" fill="url(#a)" fill-rule="evenodd"/></svg>