<svg xmlns="http://www.w3.org/2000/svg" width="48" height="48" viewBox="0 0 48 48"><defs><linearGradient id="a" x1="39.159%" x2="60.841%" y1="0%" y2="100%"><stop offset="0%" stop-color="#EB0055"/><stop offset="100%" stop-color="#320096"/></linearGradient></defs><path fill="url(#a)" fill-rule="evenodd" d="M27.315 10.29l.2.046 1.71.46a2.752 2.752 0 011.955 3.306l-.056.197-4.589 14.318c.174.212.333.442.479.694.892 1.698.481 3.776-.921 4.976l-.16.13-3.868 3.498a1.093 1.093 0 01-1.709-.319l-.052-.123-1.929-5.39a4.037 4.037 0 01.975-3.813c.447-.448.978-.8 1.56-1.038l1.837-8.382a.751.751 0 011.481.22l-.015.1-1.848 8.43 2.688.72 4.279-13.347-4.008-1.07-.39 1.833a.75.75 0 01-1.482-.212l.015-.1.639-2.998a2.753 2.753 0 013.209-2.136zm-6.889 19.024a2.53 2.53 0 00-.658 2.153l.038.17 1.704 4.756 3.463-3.127a2.588 2.588 0 00.807-3.065l-.073-.154-4.619-1.237c-.244.14-.468.31-.662.504zm5.718-17.39a1.254 1.254 0 00-.47.52l4.081 1.09a1.232 1.232 0 00-.086-.546l-.061-.132a1.252 1.252 0 00-.635-.566l-.138-.046-1.711-.46a1.253 1.253 0 00-.98.14z" opacity=".9"/></svg>