<svg xmlns="http://www.w3.org/2000/svg" width="48" height="48" viewBox="0 0 48 48"><defs><linearGradient id="a" x1="32.324%" x2="67.676%" y1="0%" y2="100%"><stop offset="0%" stop-color="#EB0055"/><stop offset="100%" stop-color="#320096"/></linearGradient></defs><path fill="url(#a)" fill-rule="evenodd" d="M27 37.25a.75.75 0 01.102 1.493L27 38.75h-6a.75.75 0 01-.102-1.493L21 37.25h6zM23.658 9.28l.286.011.31.006c1.415.056 2.8.437 4.06 1.125l.313.178c3.663 2.366 5.124 7.005 3.46 11.083l-6.298 13.21c-.273.51-.807.835-1.394.835-.636 0-1.21-.381-1.424-.9l-6.927-12.765c-2.475-5.61 1.078-12.227 7.042-12.772.286-.017.572-.017.858 0zm-.25 1.5l-.21.007c-4.888.447-7.855 5.972-5.809 10.615l6.932 12.777a.08.08 0 00.074.049c.032 0 .061-.02.088-.08l6.233-13.071c1.374-3.37.155-7.242-2.88-9.202a7.693 7.693 0 00-3.937-1.085l-.043-.001a5.567 5.567 0 00-.658-.002zM24 14.25a.75.75 0 010 1.5 2.25 2.25 0 102.245 2.404L26.25 18a.75.75 0 011.5 0A3.75 3.75 0 1124 14.25z"/></svg>