<svg xmlns="http://www.w3.org/2000/svg" width="48" height="48" viewBox="0 0 48 48"><defs><linearGradient id="a" x1="6.583%" x2="93.417%" y1="0%" y2="100%"><stop offset="0%" stop-color="#EB0055"/><stop offset="100%" stop-color="#320096"/></linearGradient></defs><path fill="url(#a)" fill-rule="evenodd" d="M19.603 9.016c4.612.452 8.117 4.315 8.149 8.905l-.002 2.6c0 .648.492 1.18 1.122 1.244l.128.007h6a2.75 2.75 0 012.745 2.582l.005.168v11.24a2.751 2.751 0 01-2.582 2.745l-.168.005H13a2.75 2.75 0 01-2.745-2.583l-.005-.167v-13.91a.75.75 0 011.493-.102l.007.102v6.159h24.5v-3.49a1.25 1.25 0 00-1.122-1.243L35 23.272h-6a2.75 2.75 0 01-2.745-2.583l-.005-.167v-2.356c.086-3.936-2.875-7.273-6.764-7.655a7.307 7.307 0 00-7.737 7.392.749.749 0 11-1.499.019 8.814 8.814 0 012.723-6.484 8.818 8.818 0 016.63-2.422zM14.25 29.51h-2.5l.001 6.25c0 .648.492 1.18 1.122 1.244l.128.007h22a1.25 1.25 0 001.244-1.122l.006-.128V29.51h-4.5v5.25a.75.75 0 01-1.493.103l-.007-.102V29.51h-2.5v5.25a.75.75 0 01-1.493.103l-.007-.102V29.51h-2.5v5.25a.75.75 0 01-1.493.103l-.007-.102V29.51h-2.5v5.25a.75.75 0 01-1.493.103l-.007-.102V29.51h-2.5v5.25a.75.75 0 01-1.493.103l-.007-.102V29.51zM25 23.011a.75.75 0 01.102 1.494l-.102.007H14a.75.75 0 01-.102-1.493l.102-.007h11z" opacity=".9"/></svg>