<svg xmlns="http://www.w3.org/2000/svg" width="40" height="40" viewBox="0 0 40 40"><path fill="#151515" fill-rule="evenodd" d="M20.552 8.333a7.29 7.29 0 017.286 7.005l.005.287v1.874l.209.001c1.204 0 2.211.87 2.287 1.999l.005.136v10.313c0 1.193-1.04 2.135-2.292 2.135a.625.625 0 01-.085-1.244l.085-.006c.549 0 .98-.358 1.036-.79l.006-.095V19.635c0-.442-.396-.83-.926-.88l-.116-.005H13.125c-.549 0-.98.358-1.035.791l-.006.094v10.313c0 .443.395.83.926.88l.115.005h10.75a.625.625 0 01.085 1.245l-.085.005h-10.75c-1.204 0-2.211-.87-2.287-1.998l-.004-.137V19.635c0-1.147.96-2.062 2.148-2.13l.143-.005h.135v-1.875a7.292 7.292 0 017.292-7.292zm0 14.167a2.292 2.292 0 11-.002 4.584 2.292 2.292 0 01.002-4.584zm0 1.25a1.043 1.043 0 10.001 2.085 1.043 1.043 0 00-.001-2.085zm0-14.167a6.043 6.043 0 00-6.039 5.842l-.003.2v1.874h12.083v-1.874a6.042 6.042 0 00-6.041-6.042z"/></svg>