<svg xmlns="http://www.w3.org/2000/svg" width="48" height="48" viewBox="0 0 48 48"><defs><linearGradient id="a" x1="20.085%" x2="79.915%" y1="0%" y2="100%"><stop offset="0%" stop-color="#EB0055"/><stop offset="100%" stop-color="#320096"/></linearGradient></defs><path fill="url(#a)" fill-rule="evenodd" d="M16.68 30.91a3.68 3.68 0 11-.001 7.361 3.68 3.68 0 01.001-7.361zm0 1.5a2.18 2.18 0 100 4.36 2.18 2.18 0 000-4.36zM34.236 9.984a2.75 2.75 0 011.067 1.98l.007.196.001 16.32a3.68 3.68 0 11-1.501-2.712V12.161a1.247 1.247 0 00-1.433-1.233l-.144.03-10.988 2.766a1.25 1.25 0 00-.918 1.077l-.007.129V28a.75.75 0 01-1.493.102L18.82 28V14.93c0-1.184.757-2.227 1.876-2.606l.17-.051L31.86 9.505a2.75 2.75 0 012.377.479zM31.64 26.56a2.18 2.18 0 102.18 2.18l-.003.102-.007-.102v-.204a2.18 2.18 0 00-2.17-1.976z" opacity=".9"/></svg>