<svg xmlns="http://www.w3.org/2000/svg" width="48" height="48" viewBox="0 0 48 48"><defs><linearGradient id="a" x1="0%" x2="100%" y1="18.569%" y2="81.431%"><stop offset="0%" stop-color="#EB0055"/><stop offset="100%" stop-color="#320096"/></linearGradient></defs><path fill="url(#a)" fill-rule="evenodd" d="M27.73 12.001l.275.012a5.75 5.75 0 015.183 5.513l.004.233v.34a.46.46 0 00.377.453l.083.007h3.62a.75.75 0 01.101 1.493l-.101.007h-3.62a1.96 1.96 0 01-1.955-1.814l-.005-.146v-.344c.01-2.193-1.65-4.035-3.81-4.248a4.09 4.09 0 00-4.354 3.847l-.006.225-.001 3.93h7.23a6.927 6.927 0 016.77 6.55 6.75 6.75 0 01-13.209 2.129.25.25 0 00-.212-.175l-.068-.004H22.47a.25.25 0 00-.25.174 6.75 6.75 0 11-6.446-8.674.75.75 0 11-.005 1.5 5.25 5.25 0 105.015 6.743 1.746 1.746 0 011.574-1.243l1.793.001c.693.031 1.303.47 1.55 1.111l.048.14a5.25 5.25 0 005.863 3.66c2.595-.42 4.48-2.694 4.41-5.3a5.42 5.42 0 00-5.277-5.11l-.223-.002h-10.75a.75.75 0 110-1.5h2.249v-3.931a5.591 5.591 0 015.708-5.577zm2.542 16.758a1 1 0 110 2 1 1 0 010-2zm-14-3.75a.75.75 0 01.743.648l.007.102-.001 1.25h1.25a.75.75 0 01.102 1.493l-.101.007H17.02v1.25a.75.75 0 01-1.493.102l-.006-.102-.001-1.25h-1.25a.75.75 0 01-.101-1.493l.102-.007h1.249v-1.25a.75.75 0 01.75-.75zm12 1.75a1 1 0 110 2 1 1 0 010-2zm4 0a1 1 0 110 2 1 1 0 010-2zm-2-2a1 1 0 110 2 1 1 0 010-2z" opacity=".9"/></svg>