<svg width="27" height="17" viewBox="0 0 27 17" xmlns="http://www.w3.org/2000/svg"><g fill="none" fill-rule="evenodd"><path d="M-9-15h44v44H-9z"/><path d="M-9-15h44v44H-9z"/><g fill="#EB0055" fill-rule="nonzero"><path d="M1 14a1 1 0 110-2h11.5a1 1 0 010 2H1zm20.5 0a1 1 0 010-2H25a1 1 0 010 2h-3.5z"/><path d="M22.5 13a4 4 0 11-8 0 4 4 0 018 0zm-2 0a2 2 0 10-4 0 2 2 0 004 0zM1.5 5a1 1 0 110-2H6a1 1 0 110 2H1.5zM15 5a1 1 0 010-2h10.5a1 1 0 010 2H15z"/><path d="M16 4a4 4 0 11-8 0 4 4 0 018 0zm-2 0a2 2 0 10-4 0 2 2 0 004 0z"/></g></g></svg>