<svg width="28" height="28" viewBox="0 0 28 28" xmlns="http://www.w3.org/2000/svg"><g fill="none" fill-rule="evenodd"><path d="M0 0h28v28H0z"/><path d="M9.833 18.37l-.51 2.792 2.164-1.838L19.25 5.88c-.114-.276-.337-.51-.69-.714-.354-.204-.668-.28-.964-.24L9.833 18.37zm7.15-14.605c.722-.238 1.473-.13 2.213.298.74.427 1.21 1.023 1.364 1.767a.636.636 0 01-.072.448l-7.954 13.778a.636.636 0 01-.14.167L8.79 23.285a.636.636 0 01-1.038-.6l.85-4.652a.636.636 0 01.074-.204L16.631 4.05a.636.636 0 01.352-.286z" fill="#FFF" fill-rule="nonzero"/></g></svg>