<svg xmlns="http://www.w3.org/2000/svg" width="48" height="48" viewBox="0 0 48 48"><defs><linearGradient id="a" x1="38.129%" x2="61.871%" y1="0%" y2="100%"><stop offset="0%" stop-color="#EB0055"/><stop offset="100%" stop-color="#320096"/></linearGradient></defs><path fill="url(#a)" fill-rule="evenodd" d="M29.013 12.16a.75.75 0 11-1.085 1.034 5.47 5.47 0 00-9.024 1.713l7.93 2.125a.75.75 0 01-.287 1.469l-.1-.02-7.913-2.12a5.468 5.468 0 001.456 4.362l5.717 1.53a5.468 5.468 0 003.67-3.776 5.312 5.312 0 00.053-2.63.75.75 0 011.461-.341 6.82 6.82 0 01-.067 3.37 6.97 6.97 0 01-5.087 4.923l-3.307 9.572a2.52 2.52 0 01-2.789 1.666l-.844 3.277a.752.752 0 01-.913.54.752.752 0 01-.558-.814l.018-.1.9-3.496a2.534 2.534 0 01-.88-2.456l1.868-9.907-.143-.136a6.97 6.97 0 119.924-9.786zm-8.326 10.3l-1.851 9.815c-.106.528.21 1.05.704 1.196l.239.062a1.02 1.02 0 001.233-.651l3.267-9.46-3.592-.962zm1.268 2.462a.75.75 0 01.55.818l-.02.1-.46 1.72a.75.75 0 01-1.468-.287l.02-.1.46-1.72a.748.748 0 01.918-.53z" opacity=".9"/></svg>