<svg xmlns="http://www.w3.org/2000/svg" width="40" height="40" viewBox="0 0 40 40"><path fill="#151515" fill-rule="evenodd" d="M25.5 19.375a6.042 6.042 0 110 12.084 6.042 6.042 0 010-12.084zm0 1.25a4.792 4.792 0 100 9.584 4.792 4.792 0 000-9.584zm2.83 2.183a.625.625 0 01.193.793l-.048.079-3 4.2a.625.625 0 01-.946.083l-.063-.072-1.683-2.25a.625.625 0 01.94-.819l.06.07 1.172 1.566 2.503-3.505c.2-.28.591-.346.872-.145zM10.492 8.542l12.075.003c1.063.115 1.855 1.018 1.847 2.03l-.006.133v5.884a.625.625 0 01-1.244.085l-.006-.085.002-5.93c.03-.406-.241-.767-.575-.854l-.085-.016-11.96-.002c-.415.032-.734.371-.75.814l.002.104-.002 14.904c-.03.416.257.782.617.859l.085.012h6.758a.625.625 0 01.085 1.245l-.085.005-6.807-.002c-1.088-.085-1.914-.998-1.907-2.034l.006-.13.001-14.813c-.079-1.089.7-2.042 1.808-2.197l.14-.015zM20.6 15.967a.625.625 0 01.085 1.244l-.085.006h-8.25a.625.625 0 01-.085-1.245l.085-.005h8.25zm0-3.225a.625.625 0 01.085 1.244l-.085.006h-8.25a.625.625 0 01-.085-1.245l.085-.005h8.25z"/></svg>