<svg xmlns="http://www.w3.org/2000/svg" width="48" height="48" viewBox="0 0 48 48"><defs><linearGradient id="a" x1="0%" x2="100%" y1="13.494%" y2="86.506%"><stop offset="0%" stop-color="#EB0055"/><stop offset="100%" stop-color="#320096"/></linearGradient></defs><path fill="url(#a)" fill-rule="evenodd" d="M31.996 35.75H24l-.008-.001h-7.979L16 35.75l-.013-.001h-3.015c-1.5-.056-2.685-1.271-2.723-2.73l.001-17.843a2.833 2.833 0 012.575-2.914L13 12.25h22.028c1.5.057 2.685 1.272 2.723 2.73L37.75 23a.75.75 0 01-1.493.102L36.25 23v-5.25h-24.5l-.001 12.5h24.5L36.25 27a.75.75 0 011.493-.102l.007.102v4l-.001.01v1.814a2.831 2.831 0 01-2.574 2.914L35 35.75h-3.004zm-16.746-4h-3.501v1.126a1.33 1.33 0 001.12 1.362l.131.012h2.25v-2.5zm8 0h-6.5v2.5h6.5v-2.5zm8 0h-6.5v2.5h6.5v-2.5zm5 0h-3.5v2.5h2.222a1.331 1.331 0 001.276-1.268l.002-.132v-1.1zM21.75 20c.13 0 .258.035.37.1l5.51 3.24a.78.78 0 010 1.32l-5.51 3.24a.739.739 0 01-.37.1.76.76 0 01-.75-.76v-6.48a.76.76 0 01.75-.76zm-6.5-6.251h-2.222a1.333 1.333 0 00-1.276 1.269l-.001 1.232h3.499v-2.501zm8 0h-6.5v2.501h6.5v-2.501zm1.5 0v2.501h6.5v-2.5l-6.5-.001zM35 13.75h-2.25v2.5h3.5v-1.126a1.329 1.329 0 00-1.12-1.362L35 13.75z" opacity=".9"/></svg>