<svg width="34" height="31" viewBox="0 0 34 31" xmlns="http://www.w3.org/2000/svg"><g fill="none" fill-rule="evenodd"><path d="M-5-7h44v44H-5z"/><path d="M28.931 17.471c1.195-1.15 2.138-2.368 2.828-3.655C32.586 12.299 33 10.873 33 9.54c0-2.529-.701-4.494-2.103-5.897C29.494 2.241 27.529 1.54 25 1.54c-1.471 0-3.034.575-4.69 1.724-.92.644-1.954 1.54-3.103 2.69L17 6.16c-1.38-1.38-2.575-2.414-3.586-3.104C11.85 2.046 10.379 1.54 9 1.54c-2.529 0-4.494.701-5.897 2.103C1.701 5.046 1 7.011 1 9.54c0 1.333.414 2.782 1.241 4.345A13.738 13.738 0 005 17.402l11.793 11.655c.138.138.276.138.414 0L28.93 17.471z" stroke="#FFF" stroke-width="2" fill="#fff"/></g></svg>