<svg xmlns="http://www.w3.org/2000/svg" width="18" height="27" viewBox="0 0 18 27"><g fill="#FFF" fill-rule="evenodd"><path d="M7.482.404A.803.803 0 018.616.378l.078.082 6.927 8.248c2.059 2.452 2.11 6.188.154 8.705l-.154.19-6.927 8.25a.807.807 0 01-1.212.055 1.005 1.005 0 01-.12-1.235l.069-.092 6.926-8.248c1.461-1.74 1.507-4.386.137-6.183l-.137-.171L7.431 1.73A1.003 1.003 0 017.48.404z"/><path d="M.515 4.383a.943.943 0 011.223-.005l.083.08 5.215 5.708a4.408 4.408 0 01.146 5.812l-.146.168-5.215 5.708a.944.944 0 01-1.306.075.883.883 0 01-.149-1.182l.072-.089 5.215-5.708a2.646 2.646 0 00.117-3.452l-.117-.136L.438 5.654a.882.882 0 01.077-1.27z" opacity=".6"/></g></svg>