<svg width="31" height="28" viewBox="0 0 31 28" xmlns="http://www.w3.org/2000/svg"><g fill="none" fill-rule="evenodd"><path d="M-9-4h44v44H-9z"/><path d="M-9-4h44v44H-9z"/><g fill="#EB0055" fill-rule="nonzero"><path d="M1 25a1 1 0 110-2h11.5a1 1 0 010 2H1zm20.5 0a1 1 0 010-2H25a1 1 0 010 2h-3.5z"/><path d="M22.5 24a4 4 0 11-8 0 4 4 0 018 0zm-2 0a2 2 0 10-4 0 2 2 0 004 0zM1.5 16a1 1 0 110-2H6a1 1 0 110 2H1.5zM15 16a1 1 0 010-2h10.5a1 1 0 010 2H15z"/><path d="M16 15a4 4 0 11-8 0 4 4 0 018 0zm-2 0a2 2 0 10-4 0 2 2 0 004 0z"/></g><g transform="translate(23)"><path d="M0 0h8v8H0z"/><circle fill="#EB0055" cx="4" cy="4" r="4"/></g></g></svg>