<svg xmlns="http://www.w3.org/2000/svg" width="44" height="44" viewBox="0 0 44 44"><path fill="#EB0055" fill-rule="evenodd" d="M18.341 27.7l2.08 1.981-.73 1.869a5.156 5.156 0 01-1.125 1.698l-3.26 3.283a1.297 1.297 0 01-.957.396c-.374 0-.693-.132-.955-.396a1.282 1.282 0 01-.394-.934c0-.358.131-.689.394-.99l3.26-3.284c.226-.226.394-.472.507-.736l1.18-2.887zm6.354-14.265c-.75 0-1.387-.265-1.912-.793a2.63 2.63 0 01-.787-1.925c0-.755.262-1.396.787-1.924A2.594 2.594 0 0124.695 8c.75 0 1.387.264 1.911.793a2.63 2.63 0 01.788 1.924 2.63 2.63 0 01-.788 1.925 2.594 2.594 0 01-1.911.793zm5.903 9.906c.375.415.488.859.338 1.33-.15.472-.469.793-.956.963-.487.17-.918.047-1.293-.368L27 23.624c-.337-.34-.6-.755-.787-1.245l-.337-1.02c-.225-.754-.385-1.235-.478-1.443a4.668 4.668 0 00-.366-.65l-1.462 5.943 2.98 2.774a5.011 5.011 0 011.462 2.548l1.125 4.811c.075.34.018.67-.17.991-.187.32-.468.528-.843.623a1.263 1.263 0 01-1.04-.17c-.318-.208-.515-.481-.59-.82l-1.068-4.813a2.524 2.524 0 00-.675-1.189l-4.442-4.132a3.233 3.233 0 01-.843-1.444 2.95 2.95 0 010-1.613l1.124-4.472c-.337.113-.974.34-1.911.68l-.563.282a2.24 2.24 0 00-1.293 1.19l-.787 1.697c-.262.529-.637.793-1.124.793-.488 0-.89-.198-1.21-.594-.318-.397-.365-.84-.14-1.33l.844-1.756c.562-1.207 1.461-2.057 2.698-2.547l.619-.227c1.162-.49 1.968-.811 2.418-.962a9.64 9.64 0 012.361-.283c1.274 0 2.418.377 3.43 1.132a6.01 6.01 0 012.136 2.944l.731 2.208a.659.659 0 00.113.17l1.686 1.641z"/></svg>