<svg xmlns="http://www.w3.org/2000/svg" width="48" height="48" viewBox="0 0 48 48"><defs><linearGradient id="a" x1="6.739%" x2="93.261%" y1="0%" y2="100%"><stop offset="0%" stop-color="#EB0055"/><stop offset="100%" stop-color="#320096"/></linearGradient></defs><path fill="url(#a)" fill-rule="evenodd" d="M18.903 14.41a8.145 8.145 0 014.194 1.12c3.234 2.09 4.526 6.184 3.06 9.792l-5.455 11.47a1.46 1.46 0 01-2.734 0l.028.069-6.04-11.135c-2.153-4.81.747-10.465 5.793-11.255l.246-.035.245-.026zm-.594 1.497c-4.226.388-6.796 5.158-5.01 9.155l6.035 11.121 5.451-11.465c1.145-2.82.184-6.044-2.26-7.766l-.212-.144a6.616 6.616 0 00-3.396-.898zm10.595-5.657a7.843 7.843 0 016.6 3.505 7.851 7.851 0 01.766 7.193l-.113.274-5.464 11.475a1.47 1.47 0 01-1.358.907c-.545 0-1.04-.3-1.269-.72l-.055-.116-1.77-3.26a.75.75 0 011.264-.802l.054.086 1.773 3.274 5.46-11.463a6.342 6.342 0 00-.39-5.783l-.149-.236a6.34 6.34 0 00-5.075-2.83l-.818-.006c-.014 0-.029 0-.047-.002-1.23.12-2.391.63-3.313 1.453a.75.75 0 01-1-1.118 7.325 7.325 0 013.918-1.794l.322-.037h.664zm-9.901 8.5a.75.75 0 01.096 1.493l-.102.007a1.88 1.88 0 101.867 2.031l.006-.151a.75.75 0 011.5 0 3.38 3.38 0 11-3.367-3.38z"/></svg>