<svg xmlns="http://www.w3.org/2000/svg" width="40" height="40" viewBox="0 0 40 40"><path fill="#151515" fill-rule="evenodd" d="M25.758 17.75a4.317 4.317 0 014.313 4.134l.004.183v.76a1.513 1.513 0 011.396 1.329l.012.127v5.752a1.51 1.51 0 01-1.457 1.424l-8.329-.001a1.498 1.498 0 01-1.56-1.318l-.012-.14v-5.746a1.505 1.505 0 011.317-1.421v-.766a4.316 4.316 0 014.316-4.317zm-4.122 6.324a.25.25 0 00-.18.065.267.267 0 00-.074.112l-.007.032v5.688a.247.247 0 00.08.173.248.248 0 00.145.062l.067.002 8.297.001a.268.268 0 00.26-.163l.01-.046v-5.682c-.007-.124-.1-.223-.239-.24l-.062-.003h-8.297zm4.122 1.518a1.55 1.55 0 110 3.1 1.55 1.55 0 010-3.1zm-6.251-6.116a.624.624 0 11-.68 1.048 5.908 5.908 0 00-3.082-.948.488.488 0 01-.128.016 5.908 5.908 0 00-5.781 4.711l.155.164a7.893 7.893 0 007.437 2.168l.252-.064a.624.624 0 01.324 1.208 9.124 9.124 0 01-2.18.31.598.598 0 01-.208.036 9.078 9.078 0 01-6.927-3.23l-.024-.03-.032-.048.056.077a.645.645 0 01-.072-.104c-.01-.02-.02-.04-.028-.06l-.01-.026-.018-.06-.004-.015-.006-.03a.34.34 0 01-.006-.046l-.003-.043v-.044l.004-.048.003-.022.016-.093.03-.17a7.15 7.15 0 0110.912-4.656zm6.251 7.366a.3.3 0 100 .6.3.3 0 000-.6zm0-7.842a3.067 3.067 0 00-3.062 2.904l-.004.163v.758h6.133v-.758A3.067 3.067 0 0025.758 19zM15.617 8.542a3.8 3.8 0 013.8 3.8V14.1a3.8 3.8 0 01-7.6 0v-1.758a3.8 3.8 0 013.8-3.8zm0 1.25a2.55 2.55 0 00-2.55 2.55V14.1a2.55 2.55 0 105.1 0v-1.758a2.55 2.55 0 00-2.55-2.55z"/></svg>