<svg xmlns="http://www.w3.org/2000/svg" width="48" height="48" viewBox="0 0 48 48"><defs><linearGradient id="a" x1="28.841%" x2="71.159%" y1="0%" y2="100%"><stop offset="0%" stop-color="#EB0055"/><stop offset="100%" stop-color="#320096"/></linearGradient></defs><path fill="url(#a)" fill-rule="evenodd" d="M24.1 9.25a5.864 5.864 0 013.014.836c2.297 1.371 2.995 4.349 1.923 7.126l-1.29 2.708a9.834 9.834 0 015.693 8.988 9.936 9.936 0 01-1.45 5.192.748.748 0 11-1.28-.78c.098-.162.19-.326.277-.493a.36.36 0 01-.02-.066c-.229-1.04-.86-2.198-1.77-3.382a18.43 18.43 0 00-1.334-1.539l-.312-.314a6.858 6.858 0 00-.283-.268.751.751 0 011.004-1.116l.19.179a19.705 19.705 0 011.923 2.143 13.575 13.575 0 011.382 2.157c.116-.56.174-1.136.173-1.717a8.338 8.338 0 00-4.839-7.63l-1.854 3.892c-.188.477-.649.79-1.162.79-.513 0-.974-.313-1.124-.707l-2.206-4.056a8.332 8.332 0 00-4.477 4.727c1.31.89 2.47 1.99 3.456 3.284.606.91.716 1.69.548 2.593l-.013.061.82-.052c1.603-.09 2.566.171 3.115 1.295.206.422.35.928.504 1.675l.196 1.017c.085.446.15.732.213.935l.047.137.035.017a.771.771 0 01.227.206 7.893 7.893 0 003.556-1.738.75.75 0 01.976 1.14 9.424 9.424 0 01-6.131 2.26c-5.263-.093-9.484-4.342-9.576-9.559l-.001-.275a9.85 9.85 0 01.35-2.684.753.753 0 01.112-.417l.023-.031a9.843 9.843 0 015.301-5.914l-1.32-2.426a5.97 5.97 0 01.382-5.291c.948-1.607 2.592-2.68 4.532-2.903zm-8.234 18.215l-.015.082c-.07.448-.105.906-.101 1.37-.046 4.481 3.49 8.168 7.937 8.329a8.865 8.865 0 01-.137-.574l-.312-1.596c-.129-.626-.246-1.038-.382-1.317-.18-.369-.576-.497-1.482-.465l-1.197.071a6 6 0 01-.267.005c-.602 0-1.056-.203-1.204-.76a1.286 1.286 0 01-.01-.57l.025-.124.057-.251c.14-.624.1-1.042-.264-1.59a13.256 13.256 0 00-2.648-2.61zm7.852-16.72a4.466 4.466 0 00-3.327 2.17c-.71 1.203-.816 2.668-.322 3.886l3.999 7.355 3.592-7.535c.779-2.023.327-4.136-1.153-5.144l-.163-.104a4.372 4.372 0 00-2.245-.623zm.122 1.505a.75.75 0 01.102 1.493l-.102.007a1.25 1.25 0 101.244 1.378L25.09 15a.75.75 0 011.5 0 2.75 2.75 0 11-2.75-2.75z"/></svg>