<svg width="28" height="28" viewBox="0 0 28 28" xmlns="http://www.w3.org/2000/svg"><path d="M10.818 8.273H9.545c-.702 0-1.272.57-1.272 1.272v.637h10.182v-.637c0-.702-.57-1.272-1.273-1.272h-1.273V7a.636.636 0 00-.636-.636h-3.818a.636.636 0 00-.637.636v1.273zm.637-3.182h3.818A1.91 1.91 0 0117.182 7a2.545 2.545 0 012.545 2.545v.637c0 .703-.57 1.273-1.272 1.273H8.273c-.703 0-1.273-.57-1.273-1.273v-.637A2.545 2.545 0 019.545 7a1.91 1.91 0 011.91-1.91zm-2.546 6.364v8.909c0 .703.57 1.272 1.273 1.272h6.363c.703 0 1.273-.57 1.273-1.272v-8.91H8.91zm0-1.273h8.91c.702 0 1.272.57 1.272 1.273v8.909a2.545 2.545 0 01-2.546 2.545h-6.363a2.545 2.545 0 01-2.546-2.545v-8.91c0-.702.57-1.272 1.273-1.272zm7 3.182a.636.636 0 00-.636.636v5.09a.636.636 0 001.272 0V14a.636.636 0 00-.636-.636zm-2.545 0a.636.636 0 00-.637.636v5.09a.636.636 0 001.273 0V14a.636.636 0 00-.636-.636zm-2.546 0a.636.636 0 00-.636.636v5.09a.636.636 0 001.273 0V14a.636.636 0 00-.637-.636zm1.273-5.728v.637h2.545v-.637h-2.545z" fill="#FFF"/></svg>