<svg xmlns="http://www.w3.org/2000/svg" width="40" height="40" viewBox="0 0 40 40"><path fill="#151515" fill-rule="evenodd" d="M24.837 9.995a11.46 11.46 0 017.246 10.66c0 6.328-5.13 11.458-11.458 11.458-6.329 0-11.458-5.13-11.458-11.459 0-4.727 2.888-8.916 7.203-10.642a.626.626 0 01.465 1.161 10.21 10.21 0 00-6.418 9.481c0 5.638 4.57 10.209 10.208 10.209s10.208-4.57 10.208-10.209c0-4.226-2.591-7.968-6.455-9.497a.625.625 0 11.459-1.162zm-4.212-1.662c.316 0 .578.236.62.54l.005.085v8.95a.625.625 0 01-1.245.085L20 17.907v-8.95c0-.345.28-.625.625-.625z"/></svg>