<svg xmlns="http://www.w3.org/2000/svg" width="40" height="40" viewBox="0 0 40 40"><defs><linearGradient id="a" x1="0%" x2="100%" y1="1.972%" y2="98.028%"><stop offset="0%" stop-color="#EB0055"/><stop offset="100%" stop-color="#320096"/></linearGradient></defs><path fill="url(#a)" fill-rule="evenodd" d="M19.94 28.52c.298 0 .54.253.54.565v5.11a.553.553 0 01-.54.565.553.553 0 01-.54-.565v-5.11c0-.312.242-.565.54-.565zm3.784.993l1.049 3.303a.571.571 0 01-.357.716.558.558 0 01-.7-.365l-1.049-3.303a.571.571 0 01.357-.716.553.553 0 01.7.365zm-7.353 1.194a.546.546 0 01.361.692l-.313.942a.563.563 0 01-.71.352.546.546 0 01-.361-.692l.313-.942a.567.567 0 01.71-.352zm-2-3.278c.248.184.303.54.123.794l-2.606 3.663a.555.555 0 01-.451.234.54.54 0 01-.327-.109.576.576 0 01-.124-.794l2.606-3.663a.55.55 0 01.778-.125zm10.118-2.398l4.044 5.598a.564.564 0 01-.123.784.556.556 0 01-.779-.124l-4.044-5.598a.564.564 0 01.123-.784.556.556 0 01.779.124zm-6.202.036c.299.095.462.41.365.702l-1.262 3.806a.568.568 0 01-.717.358.555.555 0 01-.365-.702l1.262-3.806a.571.571 0 01.717-.358zM8.73 27.903a.52.52 0 01-.127.754l-.175.12a.593.593 0 01-.336.103.583.583 0 01-.464-.223.52.52 0 01.127-.754l.175-.12a.595.595 0 01.8.12zm21.41-1.438l1.505 1.06c.254.179.31.523.126.768a.578.578 0 01-.793.122l-1.505-1.06a.539.539 0 01-.126-.768.58.58 0 01.793-.122zm-7.73-1.157l.802 2.477a.562.562 0 01-.532.735.557.557 0 01-.531-.388l-.803-2.477a.562.562 0 01.36-.707.558.558 0 01.704.36zm-7.679-1.716a.564.564 0 01-.124.787l-4.394 3.193a.561.561 0 01-.786-.124.564.564 0 01.124-.787l4.394-3.193a.563.563 0 01.786.124zm5.208 1.328c.298 0 .54.247.54.55v1.54c0 .303-.242.55-.54.55a.546.546 0 01-.54-.55v-1.54c0-.303.242-.55.54-.55zm-3.776-.01a.57.57 0 01.126.798l-.653.896a.573.573 0 01-.927-.672l.653-.896a.574.574 0 01.8-.127zm9.782-1.562l2.579 1.865a.566.566 0 01-.336 1.027.571.571 0 01-.335-.108l-2.579-1.865a.566.566 0 01-.126-.793.572.572 0 01.797-.126zm-15.214-.557a.565.565 0 01-.364.713l-3.545 1.148a.567.567 0 01-.715-.363.565.565 0 01.364-.713l3.545-1.148a.568.568 0 01.715.363zm17.93-.844l3.306 1.05c.298.095.46.408.364.7a.567.567 0 01-.715.356l-3.305-1.05a.554.554 0 01-.364-.7.57.57 0 01.714-.356zm-13.97-.476a.567.567 0 01-.354.712l-2.014.67a.557.557 0 01-.697-.363.569.569 0 01.355-.713l2.014-.67a.552.552 0 01.697.364zm11.214-.364l1.14.353c.3.092.463.399.366.684a.568.568 0 01-.542.376.597.597 0 01-.176-.027l-1.14-.353a.538.538 0 01-.366-.684.577.577 0 01.718-.35zM8.64 19.28c.31 0 .56.242.56.54a.55.55 0 01-.56.54H5.56a.55.55 0 01-.56-.54c0-.298.25-.54.56-.54h3.08zm5.523 0c.308 0 .557.242.557.54a.55.55 0 01-.557.54h-3.566a.549.549 0 01-.557-.54c0-.298.25-.54.557-.54h3.566zm17.276-.12a.55.55 0 01.561.54.55.55 0 01-.56.54h-5.72a.55.55 0 01-.56-.54.55.55 0 01.56-.54h5.72zm3.121 0c.31 0 .56.242.56.54a.55.55 0 01-.56.54h-1.04a.55.55 0 01-.56-.54c0-.298.25-.54.56-.54h1.04zm-21.374-2.133l1.14.353c.3.093.463.399.366.684a.568.568 0 01-.542.376.597.597 0 01-.176-.027l-1.14-.353a.538.538 0 01-.366-.684.577.577 0 01.718-.35zm15.067.004a.568.568 0 01-.355.712l-2.014.67a.557.557 0 01-.697-.363.569.569 0 01.355-.713l2.014-.67a.552.552 0 01.697.364zm-19.99-1.564l3.305 1.05c.298.095.46.408.364.7a.567.567 0 01-.714.356l-3.306-1.05a.554.554 0 01-.364-.7.571.571 0 01.715-.356zm25.51-.234a.57.57 0 01-.358.716l-3.446 1.143a.56.56 0 01-.702-.365.57.57 0 01.358-.716l3.446-1.143a.554.554 0 01.702.365zm-21.627-1.845l2.579 1.865a.566.566 0 01-.336 1.027.571.571 0 01-.335-.108l-2.579-1.865a.566.566 0 01-.126-.793.572.572 0 01.797-.126zm18.306-1.316a.564.564 0 01-.124.787l-4.394 3.193a.561.561 0 01-.786-.124.564.564 0 01.124-.787l4.394-3.193a.563.563 0 01.786.124zm-5.647 1.074a.55.55 0 01.126.779l-.42.565a.574.574 0 01-.796.124.55.55 0 01-.126-.779l.42-.565a.578.578 0 01.796-.124zm-12.78-5.154l4.267 5.834a.56.56 0 01-.126.786.567.567 0 01-.792-.124l-4.266-5.834a.56.56 0 01.126-.786.57.57 0 01.792.124zm5.835 3.401l.792 2.462a.57.57 0 01-.536.745.566.566 0 01-.536-.393l-.792-2.462a.57.57 0 01.362-.717.562.562 0 01.71.365zm2.08-3.513c.298 0 .54.252.54.563v5.474c0 .31-.242.563-.54.563a.552.552 0 01-.54-.563V8.443c0-.31.242-.563.54-.563zm3.387 1.707c.299.095.462.41.365.702l-1.262 3.806a.568.568 0 01-.717.358.555.555 0 01-.365-.702l1.262-3.806a.571.571 0 01.717-.358zm-14.418 1.52l1.615 1.154a.558.558 0 01.127.787.577.577 0 01-.8.124L8.236 12.02a.558.558 0 01-.127-.787.58.58 0 01.8-.124zm19.976-3.6c.255.18.311.528.126.777L25.83 12.57a.572.572 0 01-.794.124.549.549 0 01-.126-.778l3.18-4.286a.576.576 0 01.794-.124zm-12.475-.32l.802 2.478a.56.56 0 01-.531.735.557.557 0 01-.531-.388l-.802-2.478a.56.56 0 01.358-.706.557.557 0 01.704.36zm7.76-.36a.546.546 0 01.362.692l-.313.942a.564.564 0 01-.71.352.546.546 0 01-.361-.692l.313-.942a.567.567 0 01.71-.352zM19.94 5.24c.298 0 .54.257.54.574v.652c0 .317-.242.574-.54.574-.298 0-.54-.257-.54-.574v-.652c0-.317.242-.574.54-.574z"/></svg>