<svg xmlns="http://www.w3.org/2000/svg" width="44" height="44" viewBox="0 0 44 44"><path fill="#EB0055" fill-rule="evenodd" d="M23.32 34.184a111.38 111.38 0 003.574-5.319 74.406 74.406 0 002.076-3.493c1.933-3.486 3.019-6.283 3.019-8.011C31.989 12.19 27.745 8 22.5 8c-5.243 0-9.489 4.19-9.489 9.36 0 1.717 1.105 4.537 3.068 8.064a76.185 76.185 0 002.027 3.412 113.789 113.789 0 004.396 6.48c.257-.351.53-.73.817-1.132zM34 17.36c0 2.17-1.178 5.208-3.27 8.977a76.378 76.378 0 01-2.13 3.588 113.346 113.346 0 01-3.64 5.415 110.72 110.72 0 01-1.66 2.264 1.01 1.01 0 01-1.602-.002 113.34 113.34 0 01-1.659-2.275 115.754 115.754 0 01-3.64-5.434 78.159 78.159 0 01-2.08-3.501C12.197 22.58 11 19.523 11 17.36 11 11.083 16.149 6 22.5 6 28.852 6 34 11.082 34 17.36zm-11.391 3.525c-2.508 0-4.54-2.021-4.54-4.514 0-2.494 2.032-4.515 4.54-4.515 2.507 0 4.54 2.021 4.54 4.515 0 2.493-2.033 4.514-4.54 4.514zm0-2a2.522 2.522 0 002.529-2.514 2.522 2.522 0 00-2.53-2.515 2.522 2.522 0 00-2.528 2.515 2.522 2.522 0 002.529 2.514z"/></svg>