<svg xmlns="http://www.w3.org/2000/svg" width="56" height="56" viewBox="0 0 56 56"><path fill="#320096" fill-rule="evenodd" d="M16.256 21.414a.875.875 0 01-.204 1.132l-.098.068-2.655 1.589a1.623 1.623 0 00-.607 2.056l.076.146 7.968 14.186a.875.875 0 01-1.46.957l-.066-.1-7.96-14.174a3.373 3.373 0 01.952-4.441l.182-.122 2.672-1.599a.875.875 0 011.2.302zM28 14.292l14.07.002c1.798.145 3.162 1.658 3.146 3.386l-.008.193v14.689a.875.875 0 01-1.742.118l-.008-.118.002-14.748c.058-.857-.543-1.608-1.314-1.753l-.146-.02-13.93-.002c-.856.069-1.51.774-1.532 1.665l.004.17-.002 20.312c-.058.857.543 1.608 1.314 1.753l.146.02 13.93.002a1.67 1.67 0 001.534-1.616l-.004-.16a.875.875 0 011.746-.117c.122 1.8-1.173 3.371-3 3.618l-.206.022-14.07-.002c-1.798-.145-3.162-1.658-3.146-3.386l.008-.193.002-20.195c-.122-1.8 1.173-3.371 3-3.618l.206-.022zm-4.74 1.941a.875.875 0 01-.518 1.027l-.113.038-2.391.611a1.624 1.624 0 00-1.157 1.793l.03.16 4.574 20.242a.875.875 0 01-1.673.5l-.034-.114-4.57-20.23a3.373 3.373 0 012.172-3.975l.2-.064 2.415-.619a.875.875 0 011.064.631z"/></svg>