<svg xmlns="http://www.w3.org/2000/svg" width="120" height="120" viewBox="0 0 120 120"><path fill="#FFF" fill-rule="evenodd" d="M86.763 26.803h.016a1.85 1.85 0 01.93.325 1.872 1.872 0 01.409 2.714 1.871 1.871 0 01-.677.533l-.065.029-.24.082-1.947.52 6.116 14.769H95c.986 0 1.795.761 1.87 1.728l.005.147a13.85 13.85 0 01-27.7 0c0-1.036.84-1.875 1.875-1.875h3.594l4.981-13.277-15.25 4.085v54.042H76.15a1.875 1.875 0 01.255 3.733l-.255.017H45.4a1.875 1.875 0 01-.255-3.733l.255-.017h15.225V37.587l-18.134 4.858.77 1.87 1.071 2.618 4.363 10.542h3.655c.986 0 1.795.761 1.87 1.728l.005.147c0 7.65-6.2 13.85-13.85 13.85-7.65 0-13.85-6.2-13.85-13.85 0-1.036.84-1.875 1.875-1.875h3.655L37.19 43.84a1.876 1.876 0 01-.916-3.595l.24-.082 31.851-8.532.201-.069 17.6-4.7.091-.02.058-.013a1.906 1.906 0 01.448-.027zm-.388 63.822a1.875 1.875 0 01.255 3.733l-.255.017h-2.4a1.875 1.875 0 01-.255-3.733l.255-.017h2.4zm-36.078-29.4H30.45l.018.1c.887 4.473 4.727 7.883 9.403 8.113l.504.012c4.902 0 8.988-3.492 9.907-8.124l.016-.101zm42.648-11.7H73.103l.071.356a10.1 10.1 0 004.318 6.218l.483.298a10.1 10.1 0 0014.9-6.516l.07-.356zm-52.795-2.91L36.258 56.95h8.162l-3.555-8.59-.715-1.745zM82.735 34.88l-3.88 10.345h8.165L82.735 34.88z"/></svg>