<svg xmlns="http://www.w3.org/2000/svg" width="120" height="120" viewBox="0 0 120 120"><path fill="#FFF" fill-rule="evenodd" d="M74.425 25.625A6.875 6.875 0 0181.3 32.5v.625h5.6a6.875 6.875 0 016.862 6.456l.013.419v47.5a6.875 6.875 0 01-6.456 6.862l-.419.013h-55a6.875 6.875 0 01-6.862-6.456l-.013-.419V50.306a1.934 1.934 0 010-.616V40a6.875 6.875 0 016.456-6.862l.419-.013h5.65V32.5a6.875 6.875 0 016.639-6.871l.236-.004A6.875 6.875 0 0151.3 32.5v.732a1.85 1.85 0 01.37-.09l.255-.017h6.5a1.875 1.875 0 01.255 3.733l-.255.017h-6.5c-.22 0-.43-.038-.625-.107v.732a6.875 6.875 0 11-13.75 0v-.625H31.9a3.126 3.126 0 00-3.109 2.805l-.016.32v8.125h48.1a1.875 1.875 0 01.255 3.733l-.255.017h-48.1V87.5a3.126 3.126 0 002.805 3.109l.32.016h55a3.126 3.126 0 003.109-2.805l.016-.32V40a3.126 3.126 0 00-2.805-3.109l-.32-.016h-5.6v.625a6.875 6.875 0 01-6.639 6.871l-.236.004A6.875 6.875 0 0167.55 37.5v-5a6.875 6.875 0 016.875-6.875zm-1.65 31.8c1.675 0 2.5.95 2.5 2.875v12.75h.7a5.22 5.22 0 012.05.35c.542.304.84.91.75 1.525a1.6 1.6 0 01-.625 1.4 3.48 3.48 0 01-1.875.425h-1v3.075A2.675 2.675 0 0174.7 81.7a1.9 1.9 0 01-1.5.625 1.972 1.972 0 01-1.5-.625 2.747 2.747 0 01-.525-1.875V76.75h-8.3a3.425 3.425 0 01-2.35-.7 2.5 2.5 0 01-.775-1.925 1.499 1.499 0 01.125-.65 4.03 4.03 0 01.325-.675l.5-.675.6-.825 8.75-11.7c.425-.592.893-1.151 1.4-1.675a1.974 1.974 0 011.325-.5zM49.4 57.5a10.548 10.548 0 014.3.8 6.54 6.54 0 012.05 1.45 6.84 6.84 0 011.35 2.15c.32.794.482 1.644.475 2.5.02 1.31-.327 2.6-1 3.725a11.321 11.321 0 01-2.075 2.5c-.7.625-1.875 1.625-3.525 2.975-1.234.945-2.38 2-3.425 3.15-.244.41-.461.836-.65 1.275h8.5a3.145 3.145 0 011.975.525c.449.344.701.885.675 1.45.01.502-.179.987-.525 1.35a2.178 2.178 0 01-1.625.575H43.75a2.5 2.5 0 01-1.925-.7 2.097 2.097 0 01-.7-1.6c.04-.55.194-1.086.45-1.575a5.943 5.943 0 01.975-1.55c1.45-1.5 2.775-2.8 3.95-3.9a24.59 24.59 0 012.5-2.125 14.965 14.965 0 002.25-1.925 8.09 8.09 0 001.375-1.975 5.004 5.004 0 00.475-2 3.623 3.623 0 00-.5-1.875 3.428 3.428 0 00-1.375-1.3 3.832 3.832 0 00-1.9-.475 3.927 3.927 0 00-3.4 1.9 9.41 9.41 0 00-.55 1.35 5.354 5.354 0 01-.875 1.7 1.724 1.724 0 01-1.425.6 1.85 1.85 0 01-1.375-.55 2.025 2.025 0 01-.55-1.475 6.015 6.015 0 01.525-2.5A7.03 7.03 0 0143.2 59.7a7.49 7.49 0 012.5-1.625 10.128 10.128 0 013.7-.575zm21.775 5.975l-7.1 9.575h7.1v-9.575zm-26.75-34.1A3.125 3.125 0 0041.3 32.5v5a3.125 3.125 0 006.25 0v-5c0-1.726-1.4-3.125-3.125-3.125zm30 0A3.125 3.125 0 0071.3 32.5v5a3.125 3.125 0 006.25 0v-5c0-1.726-1.4-3.125-3.125-3.125z"/></svg>