<svg xmlns="http://www.w3.org/2000/svg" width="280" height="176" viewBox="0 0 280 176"><path fill="#FFF" fill-rule="evenodd" stroke="#FFF" d="M171.5 92c17.95 0 32.5 14.55 32.5 32.5 0 4.926-1.098 9.7-3.184 14.047a1.689 1.689 0 01-3.045-1.461 28.985 28.985 0 002.852-12.586c0-16.084-13.039-29.123-29.123-29.123-16.084 0-29.123 13.039-29.123 29.123 0 16.084 13.039 29.123 29.123 29.123 4.787 0 9.404-1.154 13.544-3.334a1.688 1.688 0 011.573 2.988A32.366 32.366 0 01171.5 157c-17.95 0-32.5-14.55-32.5-32.5S153.55 92 171.5 92zm-14.29-68c3.679 0 6.675 2.91 6.787 6.541l.003.21v49.287c0 .932-.76 1.688-1.698 1.688a1.694 1.694 0 01-1.693-1.562l-.004-.126V30.752a3.385 3.385 0 00-3.226-3.372l-.17-.004H97.791a3.386 3.386 0 00-3.391 3.207l-.005.169V41h52.9c.941 0 1.705.672 1.705 1.5 0 .79-.696 1.439-1.579 1.496l-.127.004H94.395v78h33.91c.936 0 1.695.672 1.695 1.5 0 .79-.692 1.439-1.57 1.496l-.126.004H94.395v11.248a3.385 3.385 0 003.226 3.372l.17.004h29.02c.938 0 1.698.756 1.698 1.688a1.69 1.69 0 01-1.57 1.683l-.127.005H97.79c-3.68 0-6.676-2.91-6.788-6.541l-.003-.21V30.751c0-3.659 2.927-6.638 6.58-6.749l.21-.003h59.42zm13.42 81c.88-.022 1.619.666 1.703 1.56l.008.129.417 17.849h17.571c.881 0 1.603.707 1.666 1.602l.005.13c0 .912-.682 1.66-1.546 1.725l-.125.005h-19.201c-.864 0-1.578-.68-1.663-1.556l-.008-.133-.457-19.538c-.022-.956.708-1.75 1.63-1.772zM128 31a3.001 3.001 0 11-.002 6.002A3.001 3.001 0 01128 31z"/></svg>