<svg width="210" height="154" viewBox="0 0 210 154" xmlns="http://www.w3.org/2000/svg"><g fill="none" fill-rule="evenodd"><path d="M0 0h210v154H0z"/><path d="M52.874 110.732a.67.67 0 01.666.755l-.796 6.31a.67.67 0 11-1.331-.168l.797-6.31a.671.671 0 01.664-.587zm-12.868-2.981a.67.67 0 01.624.918l-1.18 2.981a.67.67 0 11-1.248-.494l1.18-2.981a.672.672 0 01.624-.424zm8.155-5.133a.671.671 0 01.65.838l-2.083 8.114a.67.67 0 11-1.3-.333l2.084-8.115a.671.671 0 01.65-.504zM37.71 98.212a.67.67 0 01.587.994l-6.62 12.01a.67.67 0 11-1.176-.646l6.62-12.01a.67.67 0 01.589-.348zm-7.424.56a.67.67 0 01.542 1.065l-2.624 3.613a.671.671 0 01-1.086-.789l2.625-3.612a.67.67 0 01.543-.277zM50.9 91.955a.672.672 0 01.65.838l-2.078 8.096a.67.67 0 11-1.3-.334l2.079-8.096a.67.67 0 01.649-.504zm-12.52-4.321a.67.67 0 01.542 1.065l-6.08 8.37a.67.67 0 11-1.085-.789l6.08-8.37a.67.67 0 01.543-.276zm11.734-5.41a.67.67 0 01.624.918l-8.6 21.72a.67.67 0 11-1.248-.493l8.6-21.72a.671.671 0 01.624-.425zm6.363 0a.67.67 0 01.667.755l-3.138 24.835a.67.67 0 11-1.331-.168L55.81 82.81a.671.671 0 01.665-.587zm-9.994 0a.67.67 0 01.587.994l-6.833 12.461a.67.67 0 11-1.176-.646l6.834-12.461a.67.67 0 01.588-.348zm6.915 0a.67.67 0 01.65.838l-1.588 6.185a.67.67 0 01-1.3-.334l1.59-6.185a.67.67 0 01.648-.504zm-10.652-.6a.67.67 0 01.542 1.065l-2.813 3.873a.671.671 0 11-1.086-.789l2.813-3.872a.67.67 0 01.544-.276zm23.29-73.776a.67.67 0 01-.666-.755l.796-6.31a.67.67 0 111.331.168l-.797 6.31a.671.671 0 01-.664.587zm12.868 2.981a.67.67 0 01-.624-.918l1.18-2.981a.67.67 0 111.248.494l-1.18 2.981a.671.671 0 01-.624.424zm-31.036 4.018a.671.671 0 01-.65-.504l-.984-3.833a.67.67 0 111.3-.333l.984 3.832a.67.67 0 01-.65.838zM44.4 21.318a.672.672 0 01-.624-.424L37.149 4.785a.671.671 0 011.247-.494l6.628 16.11a.67.67 0 01-.624.917zm-9.478-5.976a.67.67 0 01-.589-.348l-2.918-5.307a.67.67 0 111.176-.646l2.918 5.307a.671.671 0 01-.587.994zm35.826.62a.672.672 0 01-.65-.838L72.18 7.01a.67.67 0 111.3.334l-2.084 8.114a.67.67 0 01-.649.504zm10.451 4.406a.67.67 0 01-.587-.994l6.62-12.01a.67.67 0 111.176.646l-6.62 12.01a.67.67 0 01-.589.348zM59.45 16.625a.67.67 0 01-.67-.67V4.021a.67.67 0 011.341 0v11.932c0 .37-.3.671-.67.671zm29.173 3.183a.67.67 0 01-.542-1.065l2.624-3.613a.671.671 0 011.086.789l-2.625 3.612a.67.67 0 01-.543.277zM54.51 20.859a.671.671 0 01-.665-.587L51.57 2.263a.67.67 0 111.331-.168l2.276 18.01a.671.671 0 01-.666.754zm40.805.909a.671.671 0 01-.489-1.13l4.445-4.734a.67.67 0 11.979.918l-4.446 4.734a.669.669 0 01-.49.212zM32.91 23.432a.67.67 0 01-.544-.277l-3.982-5.481a.67.67 0 111.086-.789l3.982 5.482a.671.671 0 01-.542 1.065zm35.099 3.193a.671.671 0 01-.65-.838l2.078-8.095a.67.67 0 111.3.334l-2.079 8.095a.671.671 0 01-.649.504zm-17.076.169a.671.671 0 01-.65-.505l-2.017-7.859a.67.67 0 111.3-.334l2.017 7.86a.67.67 0 01-.65.838zm-30.533.862a.669.669 0 01-.428-.153L13.65 22.27a.67.67 0 11.855-1.034l6.325 5.232a.67.67 0 01-.428 1.187zm9.42.753a.669.669 0 01-.49-.212L18.65 16.822a.67.67 0 11.978-.918L30.31 27.279a.67.67 0 01-.489 1.13zm50.71 2.537a.67.67 0 01-.542-1.065l6.08-8.369a.67.67 0 111.085.789l-6.08 8.369a.67.67 0 01-.544.276zm-21.08.401a.67.67 0 01-.672-.67v-11.54a.67.67 0 111.342 0v11.54c0 .37-.3.67-.67.67zm-20.673.16a.67.67 0 01-.543-.276l-4.242-5.838a.671.671 0 011.086-.789l4.241 5.838a.67.67 0 01-.542 1.065zm54.795.226a.67.67 0 01-.428-1.188l8.577-7.095a.67.67 0 11.855 1.034L94 31.579a.669.669 0 01-.427.154zM82.73 35.17a.67.67 0 01-.489-1.13l10.188-10.85a.67.67 0 11.978.92L83.219 34.958a.669.669 0 01-.49.212zm15.784 0a.67.67 0 01-.36-1.237l5.001-3.174a.67.67 0 11.72 1.132l-5.002 3.174a.666.666 0 01-.359.105zm-76.755.871a.668.668 0 01-.359-.105l-5.397-3.425a.67.67 0 01.719-1.133l5.397 3.425a.671.671 0 01-.36 1.238zm34.708.3a.67.67 0 01-.664-.587l-1.331-10.53a.67.67 0 111.331-.169l1.331 10.531a.671.671 0 01-.667.755zm-9.994.013a.671.671 0 01-.588-.348l-9.67-17.59a.67.67 0 111.175-.646l9.67 17.59a.67.67 0 01-.587.994zm22.323.001a.67.67 0 01-.624-.918l8.6-21.72a.67.67 0 111.248.494l-8.6 21.72a.671.671 0 01-.624.424zm-9.346 0a.67.67 0 01-.67-.67v-1.753a.67.67 0 011.341 0v1.752c0 .37-.3.671-.67.671zm2.983 0a.67.67 0 01-.666-.755l3.137-24.835a.67.67 0 111.331.168L63.098 35.77a.671.671 0 01-.665.587zm9.994 0a.67.67 0 01-.587-.994L78.673 22.9a.67.67 0 111.176.646l-6.834 12.461a.67.67 0 01-.588.348zm-6.915 0a.67.67 0 01-.65-.838l1.587-6.185a.671.671 0 011.3.334l-1.588 6.185a.671.671 0 01-.65.504zm-12.123 0a.67.67 0 01-.649-.504l-1.758-6.846a.67.67 0 111.3-.334l1.757 6.847a.67.67 0 01-.65.838zm-3.284 0a.671.671 0 01-.624-.424l-4.278-11.297a.671.671 0 011.248-.494l4.278 11.297a.672.672 0 01-.624.919zm-7.37.598a.67.67 0 01-.543-.276l-2.245-3.09a.671.671 0 011.086-.79l2.245 3.091a.67.67 0 01-.543 1.065zm33.43.002a.67.67 0 01-.542-1.065l2.812-3.872a.67.67 0 111.086.788l-2.813 3.872a.67.67 0 01-.544.277zm29.43 1.291a.67.67 0 01-.286-1.277l7.139-3.36a.67.67 0 11.57 1.214l-7.138 3.36a.667.667 0 01-.285.063zm-26.252.53a.67.67 0 01-.489-1.13l.807-.86a.67.67 0 11.979.919l-.807.859a.669.669 0 01-.49.212zm-39.786 0a.669.669 0 01-.489-.212l-7.554-8.044a.67.67 0 11.978-.918l7.554 8.044a.67.67 0 01-.489 1.13zm-9.75 2.373a.667.667 0 01-.359-.105l-4.97-3.155a.67.67 0 11.719-1.132l4.97 3.154a.67.67 0 01-.36 1.238zm58.923.23a.67.67 0 01-.36-1.237l7.383-4.686a.67.67 0 11.72 1.133l-7.384 4.685a.668.668 0 01-.359.105zm-51.513.188a.669.669 0 01-.427-.154L23.205 30.176a.671.671 0 01.856-1.034L37.645 40.38a.67.67 0 01-.428 1.188zm44.466.001a.67.67 0 01-.428-1.188l8.827-7.302a.67.67 0 11.855 1.034l-8.827 7.302a.667.667 0 01-.427.154zm-60.904.195a.669.669 0 01-.285-.064L8.24 35.934a.67.67 0 11.571-1.214l12.254 5.766a.67.67 0 01-.286 1.278zm-7.172 3.302a.668.668 0 01-.207-.033L3.238 41.73a.671.671 0 01.414-1.276l10.162 3.301a.671.671 0 01-.207 1.31zm22.372 0a.668.668 0 01-.36-.105l-3.898-2.473a.67.67 0 01.72-1.133l3.898 2.474a.67.67 0 01-.36 1.237zm46.905.024a.67.67 0 01-.36-1.237l3.397-2.157a.67.67 0 11.72 1.133l-3.398 2.157a.668.668 0 01-.36.104zm17.085 1.706a.671.671 0 01-.207-1.31l13.727-4.46a.671.671 0 01.414 1.277l-13.727 4.46a.663.663 0 01-.207.033zm-16.914 2.058a.67.67 0 01-.285-1.278l19.847-9.34a.67.67 0 01.572 1.214L83.34 48.79a.665.665 0 01-.286.064zm-47.21 0a.665.665 0 01-.285-.065l-12.235-5.757a.67.67 0 11.57-1.214l12.236 5.758a.67.67 0 01-.286 1.278zm-3.852 2.186a.669.669 0 01-.207-.033l-15.87-5.157a.671.671 0 11.415-1.276l15.87 5.157a.671.671 0 01-.208 1.309zm72.15.396a.671.671 0 01-.126-1.33l6.966-1.33a.67.67 0 11.252 1.318l-6.966 1.33a.666.666 0 01-.127.012zm-68.297.855a.676.676 0 01-.208-.032l-.842-.274a.671.671 0 11.414-1.276l.843.273a.671.671 0 01-.207 1.31zm47.209 0a.671.671 0 01-.207-1.309l14.027-4.557a.672.672 0 01.414 1.276l-14.027 4.558a.673.673 0 01-.207.032zm-61.202.498a.668.668 0 01-.126-.012L9.604 50.464a.671.671 0 01.252-1.318l12.122 2.313a.67.67 0 01-.125 1.33zm69.376 1.11a.671.671 0 01-.125-1.33l9.149-1.745a.67.67 0 11.251 1.318l-9.149 1.745a.686.686 0 01-.126.012zm-55.383 1.56a.666.666 0 01-.126-.013l-9.287-1.771a.671.671 0 01.252-1.318l9.286 1.771a.67.67 0 01-.125 1.33zm47.208 0a.671.671 0 01-.125-1.33l4.695-.896a.671.671 0 01.251 1.318l-4.694.895a.67.67 0 01-.127.012zM9.73 56.832c-.014 0-.028 0-.042-.002l-9.051-.569a.671.671 0 01-.628-.712.678.678 0 01.712-.627l9.05.57a.67.67 0 01-.04 1.34zm90.932.535a.67.67 0 01-.042-1.34l14.793-.931a.671.671 0 01.084 1.34l-14.792.93a.612.612 0 01-.043.001zm-75.824.415l-.043-.001-10.76-.677a.67.67 0 01.084-1.339l10.76.677a.67.67 0 01-.041 1.34zm62.911.397a.67.67 0 01-.041-1.34l9.338-.587a.67.67 0 11.084 1.339l-9.338.587-.043.001zm-4.694.296a.67.67 0 01-.042-1.34l1.815-.115a.67.67 0 11.084 1.34l-1.815.114a.78.78 0 01-.042 0zm-47.209 0l-.043-.001-8.192-.516a.671.671 0 01.084-1.339l8.193.516a.67.67 0 01-.042 1.34zM34.03 61.56a.671.671 0 01-.041-1.34l1.815-.114a.67.67 0 11.085 1.339l-1.816.114a.77.77 0 01-.043.001zm57.22.402c-.015 0-.029 0-.043-.002l-8.193-.515a.67.67 0 01.084-1.34l8.193.516a.671.671 0 01-.041 1.34zm-69.437.367a.671.671 0 01-.042-1.34l9.339-.588a.67.67 0 11.084 1.339l-9.338.588a.765.765 0 01-.043.001zm83.013.487c-.015 0-.029 0-.043-.002l-10.76-.676a.671.671 0 01.084-1.34l10.76.677a.671.671 0 01-.041 1.34zm-101.38.669a.67.67 0 01-.042-1.34l14.793-.932a.672.672 0 01.084 1.34l-14.793.93a.622.622 0 01-.043.002zm114.777.173l-.043-.001-9.05-.57a.67.67 0 11.084-1.338l9.05.57a.67.67 0 01-.04 1.34zM31.15 65.36a.672.672 0 01-.125-1.33l4.695-.896a.67.67 0 01.251 1.318l-4.695.896a.685.685 0 01-.126.012zm61.192.876a.665.665 0 01-.126-.013l-9.287-1.771a.671.671 0 01.252-1.318l9.286 1.771a.671.671 0 01-.125 1.33zm-73.82 1.533a.671.671 0 01-.126-1.33l9.15-1.746a.67.67 0 11.251 1.318l-9.15 1.746a.687.687 0 01-.126.012zm65.376.135a.667.667 0 01-.208-.032l-.842-.274a.671.671 0 01.414-1.276l.843.273a.671.671 0 01-.207 1.31zm25.274 1.542a.68.68 0 01-.127-.012l-12.123-2.313a.67.67 0 11.252-1.318l12.123 2.313a.67.67 0 01-.125 1.33zm-101.381.37a.671.671 0 01-.125-1.33l6.966-1.33a.67.67 0 11.251 1.319l-6.966 1.329a.667.667 0 01-.126.012zm14.027 2.372a.671.671 0 01-.207-1.309l14.027-4.557a.671.671 0 01.415 1.276l-14.027 4.557a.662.662 0 01-.208.033zm80.96 1.85a.67.67 0 01-.208-.032L86.7 68.85a.671.671 0 01.415-1.277l15.87 5.157a.671.671 0 01-.207 1.309zm-7.488 2.788a.672.672 0 01-.285-.064L82.77 71.004a.67.67 0 11.57-1.213l12.236 5.757a.67.67 0 01-.286 1.278zm-62.67.162a.67.67 0 01-.36-1.237l3.398-2.156a.67.67 0 11.72 1.132l-3.399 2.157a.667.667 0 01-.359.104zm54.199.342a.668.668 0 01-.359-.104l-3.898-2.475a.67.67 0 11.719-1.132l3.898 2.474a.67.67 0 01-.36 1.237zm-81.615.257a.671.671 0 01-.207-1.31l13.727-4.46a.672.672 0 01.415 1.277l-13.727 4.46a.67.67 0 01-.208.033zm110.252.571a.67.67 0 01-.208-.033l-10.161-3.301a.67.67 0 11.414-1.277l10.162 3.302a.67.67 0 01-.207 1.31zm-99.458 2.25a.67.67 0 01-.286-1.278l19.848-9.34a.67.67 0 01.571 1.214l-19.848 9.34a.672.672 0 01-.285.064zm78.065 1.52a.667.667 0 01-.359-.105l-4.971-3.155a.671.671 0 01.72-1.133l4.97 3.155a.67.67 0 01-.36 1.238zm-55.313.076a.67.67 0 01-.489-1.13l.807-.859a.67.67 0 11.978.919l-.807.859a.668.668 0 01-.489.211zm-15.962 1.224a.67.67 0 01-.36-1.237l7.384-4.686a.67.67 0 11.719 1.133l-7.384 4.685a.667.667 0 01-.359.105zm87.586.696a.668.668 0 01-.285-.064l-12.253-5.766a.67.67 0 11.571-1.214l12.253 5.766a.67.67 0 01-.286 1.278zM6.168 85.034a.67.67 0 01-.286-1.278l7.139-3.36a.67.67 0 01.571 1.215l-7.139 3.36a.669.669 0 01-.285.063zm22.224.621a.67.67 0 01-.428-1.188l8.827-7.302a.67.67 0 11.855 1.034l-8.827 7.302a.67.67 0 01-.427.154zm50.02.403a.669.669 0 01-.544-.277l-2.245-3.09a.67.67 0 111.086-.788l2.245 3.09a.67.67 0 01-.542 1.065zm24.126 1.248a.668.668 0 01-.36-.105l-5.397-3.425a.67.67 0 11.72-1.133l5.397 3.425a.67.67 0 01-.36 1.238zm-87.151.62a.67.67 0 01-.36-1.238l5-3.174a.67.67 0 11.72 1.133l-5.001 3.174a.669.669 0 01-.36.104zm44.063.37a.67.67 0 01-.67-.67v-4.717a.67.67 0 111.341 0v4.717c0 .37-.3.67-.67.67zm27.448.893a.67.67 0 01-.49-.211l-7.554-8.045a.67.67 0 11.979-.918l7.554 8.044a.67.67 0 01-.49 1.13zm8.37.403a.668.668 0 01-.428-.154L81.256 78.2a.67.67 0 11.855-1.034l13.584 11.238a.67.67 0 01-.428 1.188zm-28 .82a.671.671 0 01-.649-.504l-1.758-6.846a.67.67 0 111.3-.334l1.758 6.847a.67.67 0 01-.65.838zm-3.506 3.699a.67.67 0 01-.664-.587l-1.331-10.531a.67.67 0 111.33-.168l1.332 10.53a.67.67 0 01-.667.756zm20.603.142a.67.67 0 01-.543-.277l-4.242-5.838a.67.67 0 111.086-.789l4.241 5.839a.67.67 0 01-.542 1.065zm-67.613 1.031a.67.67 0 01-.428-1.187l8.576-7.095a.67.67 0 11.856 1.034l-8.577 7.094a.668.668 0 01-.427.154zm9.23.316a.67.67 0 01-.489-1.13l10.189-10.849a.67.67 0 11.978.919L26.472 95.388a.67.67 0 01-.49.212zm78.841 1.897a.669.669 0 01-.427-.154l-6.324-5.231a.67.67 0 11.855-1.034l6.324 5.232a.67.67 0 01-.428 1.187zm-29.722 1.994a.672.672 0 01-.624-.424l-6.305-15.925a.671.671 0 011.248-.494l6.305 15.924a.672.672 0 01-.624.919zm-5.117 1.497a.67.67 0 01-.65-.504l-2.018-7.86a.67.67 0 011.3-.333l2.018 7.86a.67.67 0 01-.65.837zm12.115.17a.67.67 0 01-.589-.348l-9.67-17.59a.67.67 0 011.176-.647l9.67 17.59a.67.67 0 01-.587.994zm7.874.814a.67.67 0 01-.543-.277l-3.982-5.481a.67.67 0 111.085-.789l3.983 5.482a.67.67 0 01-.543 1.065zm9.789.916a.67.67 0 01-.49-.212L88.591 91.301a.67.67 0 11.978-.918l10.682 11.375a.67.67 0 01-.49 1.13zm-80.623 0a.67.67 0 01-.489-1.13l4.446-4.734a.67.67 0 11.978.918l-4.446 4.734a.67.67 0 01-.49.212zm40.311 2.187a.67.67 0 01-.67-.67V90.922a.67.67 0 011.341 0v13.481a.67.67 0 01-.67.671zm12.567 3.832a.67.67 0 01-.65-.503l-.983-3.833a.67.67 0 011.3-.334l.983 3.833a.67.67 0 01-.65.837zm14.881.98a.67.67 0 01-.588-.348l-2.918-5.307a.67.67 0 011.176-.646l2.917 5.307a.67.67 0 01-.587.994zm-5.77 4.827a.671.671 0 01-.624-.424l-3.952-9.984a.672.672 0 011.247-.494l3.953 9.983a.671.671 0 01-.624.919zM59.45 115.75a.67.67 0 01-.67-.67v-7.688a.67.67 0 111.341 0v7.687a.67.67 0 01-.67.671zm7.224 1.4a.67.67 0 01-.665-.586l-2.285-18.087a.67.67 0 111.33-.169l2.287 18.087a.671.671 0 01-.667.755zm137.692 24.14c-.054-1.373-.494-2.474-1.322-3.303-.83-.829-1.93-1.244-3.304-1.244-1.296 0-2.376.408-3.244 1.224-.868.816-1.418 1.924-1.652 3.323h9.522zm3.01-6.024c1.75 1.944 2.624 4.651 2.624 8.123 0 .621-.014 1.1-.038 1.437H194.96c.336 1.322.984 2.351 1.944 3.09.958.738 2.11 1.107 3.458 1.107.984 0 1.93-.187 2.838-.563a7.5 7.5 0 002.448-1.652l3.148 3.187a10.592 10.592 0 01-3.868 2.74c-1.516.635-3.206.953-5.07.953-2.204 0-4.126-.441-5.772-1.322-1.646-.88-2.914-2.124-3.808-3.731-.894-1.606-1.342-3.459-1.342-5.557 0-2.124.454-3.997 1.362-5.616a9.523 9.523 0 013.808-3.77c1.632-.893 3.498-1.34 5.596-1.34 3.368 0 5.926.971 7.674 2.914zm-23.996-1.904c1.166-.673 2.526-1.023 4.08-1.05v5.636a8.246 8.246 0 00-.932-.039c-1.84 0-3.298.5-4.372 1.496-1.076.998-1.612 2.326-1.612 3.984v10.065h-5.986v-20.908h5.986v3.77c.724-1.295 1.67-2.28 2.836-2.954zm-14.612-.816v20.908h-5.946v-3.692c-1.424 2.617-3.756 3.926-6.994 3.926-2.306 0-4.14-.72-5.5-2.158-1.36-1.437-2.04-3.387-2.04-5.849v-13.135h5.986v11.425c0 1.322.348 2.358 1.048 3.11.7.751 1.658 1.127 2.876 1.127 1.424-.026 2.552-.531 3.382-1.516.828-.985 1.242-2.255 1.242-3.809v-10.337h5.946zm-23.472 19.742a9.765 9.765 0 01-2.584 1.068c-.946.246-1.898.37-2.856.37-1.943 0-3.524-.557-4.741-1.671-1.219-1.114-1.827-2.707-1.827-4.78v-9.677h-2.915v-4.12h2.915v-5.75h5.946v5.75h5.674v4.159h-5.674v8.627c0 1.607.635 2.41 1.904 2.41.88 0 1.852-.259 2.915-.778l1.243 4.392zm-24.91 1.166h5.985v-28.835h-5.985v28.835zm-5.984-20.908v20.908h-5.946v-3.692c-1.425 2.617-3.756 3.926-6.995 3.926-2.306 0-4.138-.72-5.498-2.158-1.36-1.437-2.04-3.387-2.04-5.849v-13.135h5.984v11.425c0 1.322.35 2.358 1.05 3.11.699.751 1.657 1.127 2.875 1.127 1.425-.026 2.551-.531 3.381-1.516.829-.985 1.243-2.255 1.243-3.809v-10.337h5.946zm-30.292-.408c-1.257-.634-2.52-.952-3.789-.952-1.529 0-2.928.376-4.197 1.127a8.111 8.111 0 00-2.992 3.07c-.726 1.296-1.088 2.734-1.088 4.314s.362 3.025 1.088 4.333a8.2 8.2 0 002.992 3.108c1.269.766 2.668 1.147 4.197 1.147 1.218 0 2.455-.291 3.711-.874a11.65 11.65 0 003.362-2.351l3.614 3.925a16.37 16.37 0 01-5.11 3.575c-1.957.881-3.92 1.322-5.888 1.322-2.669 0-5.09-.616-7.267-1.846a13.488 13.488 0 01-5.13-5.072c-1.243-2.15-1.865-4.547-1.865-7.19 0-2.616.635-4.987 1.904-7.111 1.27-2.124 3.012-3.795 5.227-5.013 2.215-1.218 4.67-1.827 7.365-1.827 1.968 0 3.911.408 5.829 1.224 1.917.816 3.549 1.924 4.896 3.323l-3.575 4.391a10.322 10.322 0 00-3.284-2.623zm117.186-32.821c-1.114-.35-2.112-.525-2.992-.525-.726 0-1.308.13-1.748.389-.442.259-.662.648-.662 1.165 0 .57.298 1.01.894 1.322.596.31 1.568.66 2.916 1.05 1.476.44 2.694.873 3.652 1.301a6.83 6.83 0 012.488 1.904c.698.842 1.048 1.95 1.048 3.323 0 2.073-.796 3.685-2.39 4.838-1.592 1.153-3.632 1.73-6.12 1.73-1.71 0-3.356-.253-4.936-.759-1.58-.504-2.954-1.223-4.118-2.156l1.942-4.042a12.23 12.23 0 003.556 1.924c1.308.454 2.546.68 3.712.68.802 0 1.444-.136 1.924-.408.478-.272.718-.68.718-1.224 0-.596-.304-1.062-.914-1.4-.608-.335-1.586-.699-2.934-1.088-1.424-.413-2.61-.828-3.556-1.243a6.328 6.328 0 01-2.428-1.885c-.674-.841-1.01-1.936-1.01-3.284 0-2.072.776-3.678 2.332-4.818 1.554-1.14 3.522-1.71 5.906-1.71 1.424 0 2.85.2 4.274.602 1.426.402 2.722.978 3.888 1.73l-2.06 4.08a17.42 17.42 0 00-3.382-1.496zm-20.168 0c-1.114-.35-2.112-.525-2.992-.525-.726 0-1.31.13-1.75.389-.44.259-.66.648-.66 1.165 0 .57.298 1.01.894 1.322.596.31 1.566.66 2.914 1.05 1.478.44 2.694.873 3.654 1.301a6.824 6.824 0 012.486 1.904c.7.842 1.05 1.95 1.05 3.323 0 2.073-.796 3.685-2.39 4.838s-3.634 1.73-6.122 1.73c-1.71 0-3.354-.253-4.934-.759-1.58-.504-2.954-1.223-4.12-2.156l1.944-4.042a12.203 12.203 0 003.556 1.924c1.306.454 2.544.68 3.71.68.804 0 1.444-.136 1.924-.408.48-.272.72-.68.72-1.224 0-.596-.306-1.062-.914-1.4-.61-.335-1.588-.699-2.934-1.088-1.426-.413-2.61-.828-3.556-1.243a6.314 6.314 0 01-2.428-1.885c-.674-.841-1.012-1.936-1.012-3.284 0-2.072.778-3.678 2.332-4.818 1.554-1.14 3.524-1.71 5.908-1.71 1.424 0 2.848.2 4.274.602a14.27 14.27 0 013.886 1.73l-2.06 4.08a17.406 17.406 0 00-3.38-1.496zm-23.278 11.367c.906-.596 1.45-1.347 1.632-2.254v-1.866h-4.702c-1.166 0-2.028.189-2.585.564-.557.376-.835.978-.835 1.807 0 .803.291 1.445.874 1.923.583.48 1.38.72 2.39.72 1.244 0 2.318-.298 3.226-.894zm1.67 4.896v-2.448c-.698.881-1.606 1.555-2.72 2.021-1.114.466-2.396.7-3.847.7-2.202 0-3.95-.603-5.246-1.808-1.296-1.205-1.943-2.779-1.943-4.722 0-1.968.693-3.503 2.08-4.605 1.385-1.1 3.347-1.664 5.886-1.69h5.752v-.389c0-1.113-.37-1.975-1.108-2.584-.738-.609-1.82-.913-3.244-.913-1.944 0-4.017.61-6.218 1.826l-1.866-4.12c1.658-.828 3.213-1.437 4.664-1.826 1.45-.388 3.044-.582 4.78-.582 2.798 0 4.968.66 6.508 1.982 1.542 1.321 2.326 3.16 2.352 5.518l.04 13.64h-5.87zm-24.21-6.353c.957-1.075 1.437-2.468 1.437-4.179 0-1.683-.48-3.063-1.438-4.138-.958-1.075-2.202-1.613-3.73-1.613-1.53 0-2.779.538-3.75 1.613-.972 1.075-1.458 2.455-1.458 4.138 0 1.737.486 3.136 1.458 4.198.971 1.062 2.22 1.593 3.75 1.593 1.528 0 2.772-.537 3.73-1.612zm2.817-13.408c1.49.894 2.642 2.157 3.459 3.79.815 1.631 1.224 3.51 1.224 5.634 0 2.098-.402 3.945-1.205 5.538-.804 1.593-1.937 2.83-3.4 3.711-1.465.881-3.168 1.321-5.11 1.321-1.452 0-2.74-.277-3.867-.835-1.128-.557-2.08-1.366-2.857-2.429v10.57h-5.985V94.674h5.985v3.07a7.472 7.472 0 012.818-2.43c1.127-.556 2.39-.834 3.789-.834 1.943 0 3.659.446 5.149 1.34z" fill="#FFF"/></g></svg>