<svg width="39" height="30" viewBox="0 0 39 30" xmlns="http://www.w3.org/2000/svg"><path d="M23.817 24.316l-2.825-2.638 1.466-1.368 2.191 2.047-.832 1.96zm-11.705-2.562L10.55 23.21 4.96 9.777a1 1 0 111.846-.768l5.306 12.745zm4.484-4.181L7.432 9.015a1 1 0 111.365-1.462l9.265 8.652-1.466 1.368zM7.886 2.84l.937 1.623-6.846 3.953-.937-1.624A3.952 3.952 0 017.886 2.84zM2.713 5.682l3.375-1.948a1.953 1.953 0 00-3.375 1.948zm31.63 4.1l-6.744 15.936c-.29 2.043-4.172 3.843-8.072 3.843-4.055 0-8.089-1.945-8.089-4.087a1 1 0 01.324-.737l18.714-17.19a1 1 0 011.353 1.474L13.594 25.77c.653.706 3.26 1.79 5.933 1.79 3.088 0 6.089-1.447 6.089-2.087a1 1 0 01.08-.39L32.5 9.004a1 1 0 011.842.779zm-2.66-7.035a3.775 3.775 0 116.54 3.776l-1.05 1.817-6.539-3.775 1.05-1.818zm4.758 2.861l.05-.085a1.775 1.775 0 00-3.076-1.776l-.049.086 3.075 1.775z" fill="#FFF" fill-rule="evenodd"/></svg>