<svg xmlns="http://www.w3.org/2000/svg" width="24" height="24" viewBox="0 0 24 24"><path fill="#FFF" fill-rule="evenodd" d="M12.273 16.71c.331 0 .6.267.6.596v.595h3c.8 0 .8 1.19 0 1.19h-7.2a.598.598 0 01-.6-.595c0-.329.268-.595.6-.595h3v-.595c0-.329.268-.595.6-.595zM20.673 6c.331 0 .6.266.6.595v8.926a.598.598 0 01-.6.595h-16.8a.598.598 0 01-.6-.595V6.595c0-.329.268-.595.6-.595h16.8zm-.6 1.19h-15.6v7.736h15.6V7.19zm-9.081.97l4.2 2.342a.593.593 0 010 1.037l-4.2 2.343a.6.6 0 01-.894-.518V8.678a.6.6 0 01.894-.519zm.306 1.535v2.651l2.376-1.325-2.376-1.326z"/></svg>