<svg width="28" height="28" viewBox="0 0 28 28" xmlns="http://www.w3.org/2000/svg"><path d="M4.105 4.193L17.628.569a5 5 0 016.124 3.536l3.623 13.523a5 5 0 01-3.535 6.124l-13.523 3.623a5 5 0 01-6.124-3.535L.569 10.317a5 5 0 013.536-6.124zm.518 1.932A3 3 0 002.5 9.799l3.624 13.523a3 3 0 003.674 2.121l13.523-3.623a3 3 0 002.121-3.675L21.82 4.623A3 3 0 0018.145 2.5L4.623 6.125zm3.502 6.71a3 3 0 11-1.553-5.796 3 3 0 011.553 5.795zm2.847 10.625a3 3 0 11-1.553-5.796 3 3 0 011.553 5.796zm3.277-7.09a3 3 0 11-1.553-5.796 3 3 0 011.553 5.796zm7.348 4.243a3 3 0 11-1.553-5.796 3 3 0 011.553 5.796zM18.75 9.987a3 3 0 11-1.553-5.795 3 3 0 011.553 5.795zm-11.143.916A1 1 0 107.09 8.97a1 1 0 00.517 1.932zm2.847 10.625a1 1 0 10-.517-1.932 1 1 0 00.517 1.932zm3.277-7.09a1 1 0 10-.518-1.932 1 1 0 00.518 1.932zm7.348 4.243a1 1 0 10-.517-1.932 1 1 0 00.517 1.932zM18.232 8.056a1 1 0 10-.517-1.932 1 1 0 00.517 1.932z" fill="#FFF" fill-rule="evenodd"/></svg>