<svg xmlns="http://www.w3.org/2000/svg" xmlns:xlink="http://www.w3.org/1999/xlink" width="30" height="32" viewBox="0 0 30 32"><defs><path id="a" d="M0 0h30v32H0z"/></defs><g fill="none" fill-rule="evenodd"><mask id="b" fill="#fff"><use xlink:href="#a"/></mask><path fill="#FFF" d="M21.35 9c.911 0 1.65.751 1.65 1.678V22.06c0 1.058-.75 1.94-1.71 1.94h-7.552c-.96 0-1.71-.882-1.71-1.94V10.94c0-1.058.75-1.94 1.71-1.94zm0 .915h-7.612c-.431 0-.81.445-.81 1.025v11.12c0 .58.379 1.025.81 1.025h7.553c.431 0 .81-.445.81-1.025V10.678a.758.758 0 00-.75-.763zm-10.192.133a.462.462 0 01-.266.538l-.059.019-1.304.34c-.41.107-.681.548-.62 1.01l.014.087 2.166 9.75a.456.456 0 01-.34.546.447.447 0 01-.52-.286l-.018-.06-2.165-9.749c-.206-.93.302-1.872 1.159-2.154l.1-.03 1.305-.34a.45.45 0 01.548.329z" mask="url(#b)"/></g></svg>