<svg width="33" height="23" viewBox="0 0 33 23" xmlns="http://www.w3.org/2000/svg"><g fill="none" fill-rule="evenodd"><path d="M-3-9h40v40H-3z"/><path d="M8.544 5.23a4.75 4.75 0 00-.464.466c-.352.352-.79.812-1.296 1.374-.755.84-1.483 1.72-2.14 2.608-1.731 2.337-2.711 4.39-2.64 5.792a1 1 0 01-1.998.1c-.1-2.005 1.04-4.395 3.03-7.082a38.064 38.064 0 012.26-2.754c.53-.591.994-1.077 1.303-1.378.403-.493 1.175-1.18 2.341-1.853.951-.548 2.03-.993 3.238-1.298 1.476-.374 2.899-.388 4.585-.05a17.087 17.087 0 015.331.625c1.592.017 3.894.34 7.592.963.078.013.15.033.217.06.277-.023.531-.034.759-.035 1.25-.003 2.002.212 2.002 1.301 0 2.402-1.246 3.332-4.388 4.405l-.418.142c-.713.246-1.16.418-1.574.619-1.92.932-4.291 2.39-5.526 3.392-1.998 1.623-2.56 2.234-2.512 2.566.212.106.58.082 1.52-.074 1.651-.273 2.599-.262 3.745.3a5.1 5.1 0 011.18.82c1.626 1.628 1.746 3.066.764 4.048-.397.397-.89.506-1.457.446a4.764 4.764 0 01-.568-.101l-.539-.13c-.676-.161-1.146-.221-1.66-.18-1.588.126-3.25.529-4.343 1.02l-.582.268c-.29.13-.563.244-.854.353-2.278.85-4.97 1.104-8.497.47a1 1 0 11.354-1.969c3.17.57 5.5.35 7.444-.375.247-.092.479-.19.732-.303.121-.055.508-.235.583-.268 1.31-.59 3.196-1.047 5.004-1.19.765-.061 1.42.023 2.283.228l.522.126c.066.015.124.028.175.038-.064-.228-.291-.581-.742-1.033a2.94 2.94 0 00-.68-.472c-.663-.325-1.271-.332-2.536-.123-1.78.295-2.44.283-3.284-.46a1 1 0 01-.178-.206 2.346 2.346 0 01-.366-.946c-.207-1.435.44-2.138 3.231-4.405 1.363-1.108 3.864-2.644 5.913-3.64.505-.244 1.014-.44 1.798-.71l.422-.144c1.863-.636 2.667-1.072 2.93-1.812-.543.012-1.306.098-2.185.249-2.013.345-4.276.96-5.833 1.607-.378.157-.732.312-1.065.463a34.84 34.84 0 00-3.445 2.075c-.968.656-2.083-.597-1.318-1.482.179-.206.539-.515 1.138-.91.705-.465 1.611-.96 2.747-1.48a27.8 27.8 0 011.628-.781 21.41 21.41 0 011.556-.613 19.25 19.25 0 00-1.738-.114 7.379 7.379 0 00-1.352.125c-1.436.42-2.642.894-3.673 1.436-.592.336-1.204.727-1.834 1.174-1.063.752-2.22-.803-1.194-1.605.615-.48 1.305-.921 2.07-1.325.263-.149.523-.288.78-.418-1.389.12-2.582.32-3.582.594-.131.04-.262.081-.392.124-.484.16-.912.332-1.277.501-.21.098-.349.17-.408.205-.551.32-1.068.092-1.332-.306-.515.304-.95.624-1.307.942zm15.512 13.628a.706.706 0 00-.016.015.153.153 0 00.023-.024l-.007.009zm.14-.115l.013.001c.004 0 .005.002.004.003l-.017-.004z" fill="#FFF"/></g></svg>