<svg xmlns="http://www.w3.org/2000/svg" width="24" height="24" viewBox="0 0 24 24"><path fill="#FFF" fill-rule="evenodd" d="M21.916 5.027v5.72h-.663c-.55 0-.995.426-.995.953 0 .527.445.953.995.953h.663v5.72H2.684v-5.72h.663c.55 0 .995-.426.995-.953 0-.527-.445-.953-.995-.953h-.663v-5.72h19.232zm-1.326 1.27h-4.767v.623h-1.326v-.622H4.01v3.27c.96.273 1.658 1.124 1.658 2.132s-.699 1.859-1.658 2.132v3.27h16.58v-3.27c-.96-.273-1.658-1.124-1.658-2.132s.699-1.859 1.658-2.132v-3.27zm-4.767 9.52v1.271h-1.326v-1.27h1.326zm0-2.542v1.271h-1.326v-1.27h1.326zm0-2.542v1.271h-1.326v-1.271h1.326zm0-2.542v1.27h-1.326v-1.27h1.326z"/></svg>