<svg xmlns="http://www.w3.org/2000/svg" width="44" height="44" viewBox="0 0 44 44"><path fill="#FFF" fill-rule="evenodd" d="M35 7a1 1 0 011 1v23a1 1 0 01-1 1h-2.74a.995.995 0 01-.465.275L22.1 34.872l-6.554 3.785a1 1 0 01-1.366-.366L5.134 22.623a1 1 0 01.366-1.366l5.258-3.037-.724-2.702a1 1 0 01.707-1.225L17 12.616V8a1 1 0 011-1h17zM11.266 20.237l-3.9 2.252 8.046 13.936.384-.222a.996.996 0 01-.405-.569l-4.125-15.397zM17 14.687l-4.775 1.28 4.87 18.176 4.362-1.17.003-.001 2.886-.772H18a1 1 0 01-1-1V14.687zM34 9H19v21h15V9z"/></svg>