<svg width="24" height="24" viewBox="0 0 24 24" fill="none" xmlns="http://www.w3.org/2000/svg">
<path fill-rule="evenodd" clip-rule="evenodd" d="M11 2C10.7261 2 10.5 2.22614 10.5 2.5V11.5H14C15.1061 11.5 16 12.3939 16 13.5V22.5C16 22.7761 15.7761 23 15.5 23H11C10.7239 23 10.5 22.7761 10.5 22.5V18.5C10.5 18.2261 10.2739 18 10 18H9C8.72614 18 8.5 18.2261 8.5 18.5V22.5C8.5 22.7761 8.27614 23 8 23H3.5H2C1.72386 23 1.5 22.7761 1.5 22.5C1.5 22.2239 1.72386 22 2 22H3V13.5C3 12.3939 3.89386 11.5 5 11.5H5.5C5.77614 11.5 6 11.7239 6 12C6 12.2761 5.77614 12.5 5.5 12.5H5C4.44614 12.5 4 12.9461 4 13.5V22H7.5V18.5C7.5 17.6739 8.17386 17 9 17H10C10.8261 17 11.5 17.6739 11.5 18.5V22H15V13.5C15 12.9461 14.5539 12.5 14 12.5H10H8C7.72386 12.5 7.5 12.2761 7.5 12C7.5 11.7239 7.72386 11.5 8 11.5H9.5V2.5C9.5 1.67386 10.1739 1 11 1H20C20.8261 1 21.5 1.67386 21.5 2.5V6C21.5 6.27614 21.2761 6.5 21 6.5C20.7239 6.5 20.5 6.27614 20.5 6V2.5C20.5 2.22614 20.2739 2 20 2H11ZM21 8.04999C21.2761 8.04999 21.5 8.27385 21.5 8.54999V22H22C22.2761 22 22.5 22.2239 22.5 22.5C22.5 22.7761 22.2761 23 22 23L21 23H20.9963H18C17.7239 23 17.5 22.7761 17.5 22.5C17.5 22.2238 17.7239 22 18 22H20.5V8.54999C20.5 8.27385 20.7239 8.04999 21 8.04999ZM18.5 8C18.7761 8 19 8.22386 19 8.5V9.5C19 9.77614 18.7761 10 18.5 10C18.2239 10 18 9.77614 18 9.5V8.5C18 8.22386 18.2239 8 18.5 8ZM19 12.5C19 12.2239 18.7761 12 18.5 12C18.2239 12 18 12.2239 18 12.5V13.5C18 13.7761 18.2239 14 18.5 14C18.7761 14 19 13.7761 19 13.5V12.5ZM18.5 16.5C18.7761 16.5 19 16.7239 19 17V18C19 18.2761 18.7761 18.5 18.5 18.5C18.2239 18.5 18 18.2761 18 18V17C18 16.7239 18.2239 16.5 18.5 16.5ZM19 4.5C19 4.22386 18.7761 4 18.5 4C18.2239 4 18 4.22386 18 4.5V5.5C18 5.77614 18.2239 6 18.5 6C18.7761 6 19 5.77614 19 5.5V4.5ZM15.5 8C15.7761 8 16 8.22386 16 8.5V9.5C16 9.77614 15.7761 10 15.5 10C15.2239 10 15 9.77614 15 9.5V8.5C15 8.22386 15.2239 8 15.5 8ZM16 4.5C16 4.22386 15.7761 4 15.5 4C15.2239 4 15 4.22386 15 4.5V5.5C15 5.77614 15.2239 6 15.5 6C15.7761 6 16 5.77614 16 5.5V4.5ZM12.5 8C12.7761 8 13 8.22386 13 8.5V9.5C13 9.77614 12.7761 10 12.5 10C12.2239 10 12 9.77614 12 9.5V8.5C12 8.22386 12.2239 8 12.5 8ZM13 4.5C13 4.22386 12.7761 4 12.5 4C12.2239 4 12 4.22386 12 4.5V5.5C12 5.77614 12.2239 6 12.5 6C12.7761 6 13 5.77614 13 5.5V4.5Z" fill="#CB0659"/>
</svg>
