<svg width="24" height="24" viewBox="0 0 24 24" fill="none" xmlns="http://www.w3.org/2000/svg">
<path fill-rule="evenodd" clip-rule="evenodd" d="M16.4819 2.5C15.9287 2.5 15.4831 2.94614 15.4831 3.5V3.89997C15.4897 3.93229 15.4931 3.96574 15.4931 4C15.4931 4.03426 15.4897 4.06771 15.4831 4.10003V4.5C15.4831 5.05386 15.9287 5.5 16.4819 5.5C16.7577 5.5 16.9813 5.72386 16.9813 6C16.9813 6.27614 16.7577 6.5 16.4819 6.5C15.3771 6.5 14.4844 5.60614 14.4844 4.5H9.00126H9.00125H8.12235C7.84655 4.5 7.62298 4.27614 7.62298 4C7.62298 3.72386 7.84655 3.5 8.12235 3.5H8.50188C8.50188 2.94614 8.0563 2.5 7.50313 2.5C6.94997 2.5 6.50438 2.94614 6.50438 3.5V4.5C6.50438 5.05386 6.94997 5.5 7.50313 5.5C7.77893 5.5 8.00251 5.72386 8.00251 6C8.00251 6.27614 7.77893 6.5 7.50313 6.5C6.39837 6.5 5.50563 5.60614 5.50563 4.5H3.9975C3.44434 4.5 2.99875 4.94614 2.99875 5.5V7.5H18.4894C18.7652 7.5 18.9888 7.72386 18.9888 8C18.9888 8.27614 18.7652 8.5 18.4894 8.5H2.99875V18.5C2.99875 19.8789 4.11849 21 5.49563 21H18.4794C19.8726 21 20.9972 19.8545 20.9763 18.4575L20.9763 18.449L21.0012 5.50447C20.9888 4.94819 20.5317 4.5 19.9775 4.5H17.99H17.98H17.1111C16.8353 4.5 16.6117 4.27614 16.6117 4C16.6117 3.72386 16.8353 3.5 17.1111 3.5H17.4806C17.4806 2.94614 17.0351 2.5 16.4819 2.5ZM9.50063 3.5H14.4844C14.4844 2.39386 15.3771 1.5 16.4819 1.5C17.5867 1.5 18.4794 2.39386 18.4794 3.5H19.9775C21.0797 3.5 21.98 4.38936 21.9999 5.49097L22 5.50097L21.975 18.4469C22.0017 20.398 20.4306 22 18.4794 22H5.49563C3.5669 22 2 20.4311 2 18.5V5.5C2 4.39386 2.89274 3.5 3.9975 3.5H5.50563C5.50563 2.39386 6.39837 1.5 7.50313 1.5C8.60789 1.5 9.50063 2.39386 9.50063 3.5ZM16.1383 10.5218C16.3484 10.5859 16.4919 10.7801 16.4919 11V15.44H17.5506C17.8264 15.44 18.05 15.6638 18.05 15.94C18.05 16.2161 17.8264 16.44 17.5506 16.44H16.4919V18.41C16.4919 18.6861 16.2684 18.91 15.9926 18.91C15.7168 18.91 15.4932 18.6861 15.4932 18.41V16.44H12.6717C12.4872 16.44 12.3176 16.3381 12.2309 16.1749C12.1442 16.0118 12.1544 15.8141 12.2574 15.6608L15.5783 10.7208C15.7009 10.5383 15.9283 10.4576 16.1383 10.5218ZM15.4932 15.44V12.6383L13.6098 15.44H15.4932ZM11.0758 11.4376C10.2957 9.67376 7.78486 9.73715 7.07878 11.5208L6.84803 12.1134C6.74786 12.3707 6.87497 12.6606 7.13193 12.7609C7.38889 12.8612 7.67841 12.7339 7.77858 12.4766L8.00773 11.888C8.39084 10.9231 9.74361 10.8967 10.1622 11.8418C10.328 12.2201 10.2877 12.6498 10.0549 12.9839L10.0541 12.9849L6.40371 18.2499C6.29773 18.4027 6.28529 18.6019 6.37145 18.7668C6.4576 18.9317 6.62808 19.035 6.81393 19.035H11.1485C11.4243 19.035 11.6479 18.8112 11.6479 18.535C11.6479 18.2589 11.4243 18.035 11.1485 18.035H7.76851L10.8739 13.5562L10.8743 13.5556C11.3101 12.9299 11.3797 12.1302 11.0764 11.4389L11.0758 11.4376Z" fill="#EB0055"/>
</svg>
