<svg width="14" height="15" viewBox="0 0 14 15" fill="none" xmlns="http://www.w3.org/2000/svg">
<path fill-rule="evenodd" clip-rule="evenodd" d="M6.99992 14.1668C10.6818 14.1668 13.6666 11.1821 13.6666 7.50016C13.6666 3.81826 10.6818 0.833496 6.99992 0.833496C3.31802 0.833496 0.333252 3.81826 0.333252 7.50016C0.333252 11.1821 3.31802 14.1668 6.99992 14.1668ZM7.79519 4.43313C7.79519 4.85635 7.4521 5.19944 7.02888 5.19944C6.60567 5.19944 6.26258 4.85635 6.26258 4.43313C6.26258 4.00992 6.60567 3.66683 7.02888 3.66683C7.4521 3.66683 7.79519 4.00992 7.79519 4.43313ZM6.33204 6.05088L7.0468 6.05089C7.25814 6.05089 7.4425 6.15188 7.56145 6.30102C7.64257 6.40019 7.69655 6.52453 7.70784 6.66187C7.71017 6.68504 7.71135 6.70846 7.71135 6.73205C7.71135 6.74643 7.71091 6.76075 7.71004 6.77499L7.71004 10.8356C7.71004 11.2185 7.38884 11.5002 7.02888 11.5002C6.66893 11.5002 6.34772 11.2185 6.34772 10.8356L6.34772 7.4132L6.33203 7.4132C5.94917 7.4132 5.66748 7.09199 5.66748 6.73204C5.66748 6.37208 5.94918 6.05088 6.33204 6.05088Z" fill="#161617"/>
</svg>
