<svg width="81" height="81" viewBox="0 0 81 81" fill="none" xmlns="http://www.w3.org/2000/svg">
<path fill-rule="evenodd" clip-rule="evenodd" d="M32.7979 10.5046C20.4889 10.5046 10.5044 20.4891 10.5044 32.7981C10.5044 45.1071 20.4889 55.0916 32.7979 55.0916C45.1068 55.0916 55.0914 45.1071 55.0914 32.7981C55.0914 29.6892 54.4537 26.7108 53.3079 24.0213C52.9467 23.1734 53.3412 22.1932 54.1891 21.8319C55.037 21.4707 56.0172 21.8652 56.3784 22.7131C57.6973 25.8089 58.429 29.2317 58.429 32.7981C58.429 46.9504 46.9501 58.4292 32.7979 58.4292C18.6456 58.4292 7.16675 46.9504 7.16675 32.7981C7.16675 18.6458 18.6456 7.16699 32.7979 7.16699C39.3321 7.16699 45.285 9.60357 49.8231 13.6293C50.5126 14.241 50.5757 15.2957 49.9641 15.9852C49.3524 16.6746 48.2977 16.7377 47.6082 16.1261C43.6569 12.6209 38.4844 10.5046 32.7979 10.5046ZM53.8687 53.8689C54.5204 53.2172 55.577 53.2172 56.2287 53.8689L73.3446 70.9848C73.9963 71.6366 73.9963 72.6932 73.3446 73.3449C72.6929 73.9966 71.6363 73.9966 70.9846 73.3449L53.8687 56.229C53.217 55.5772 53.217 54.5206 53.8687 53.8689ZM20.0033 25.221C20.4678 24.4249 20.1989 23.403 19.4028 22.9386C18.6067 22.4742 17.5849 22.743 17.1205 23.5391C14.9728 27.2204 11.7924 36.2626 19.2749 44.963C19.8758 45.6617 20.9295 45.741 21.6283 45.1401C22.3271 44.5391 22.4063 43.4855 21.8054 42.7867C15.6511 35.6306 18.2054 28.3028 20.0033 25.221Z" fill="#67686B"/>
</svg>