<svg width="20" height="18" viewBox="0 0 20 18" fill="none" xmlns="http://www.w3.org/2000/svg">
<path fill-rule="evenodd" clip-rule="evenodd" d="M9.68831 1.49984C9.1892 1.49984 8.81111 1.88467 8.81111 2.33317V15.6665C8.81111 16.115 9.1892 16.4998 9.68831 16.4998H17.4551C17.9542 16.4998 18.3323 16.115 18.3323 15.6665V6.329C18.3323 6.09889 18.5191 5.91234 18.7496 5.91234C18.98 5.91234 19.1668 6.09889 19.1668 6.329V15.6665C19.1668 16.6013 18.3885 17.3332 17.4551 17.3332H9.68831C8.75488 17.3332 7.97657 16.6013 7.97657 15.6665V2.33317C7.97657 1.39833 8.75488 0.666504 9.68831 0.666504H17.4551C18.3885 0.666504 19.1668 1.39833 19.1668 2.33317V3.41234C19.1668 3.64246 18.98 3.829 18.7496 3.829C18.5191 3.829 18.3323 3.64246 18.3323 3.41234V2.33317C18.3323 1.88467 17.9542 1.49984 17.4551 1.49984H9.68831ZM6.96825 2.12445C7.02608 2.3472 6.89212 2.57459 6.66904 2.63234L4.39966 3.21977C3.92387 3.34331 3.66194 3.80695 3.78198 4.23827L7.0916 16.172C7.1531 16.3937 7.02292 16.6233 6.80083 16.6847C6.57874 16.7461 6.34884 16.6161 6.28733 16.3944L2.97792 4.4614C2.72704 3.55949 3.28492 2.64805 4.18975 2.41323L6.45963 1.82567C6.6827 1.76792 6.91042 1.90169 6.96825 2.12445ZM2.10311 8.89297C2.3044 8.78094 2.37662 8.52717 2.26442 8.32616C2.15223 8.12516 1.89809 8.05304 1.6968 8.16508C0.876146 8.62184 0.584446 9.64758 1.06731 10.4514L1.06754 10.4518L4.43272 16.0761C4.55091 16.2736 4.80711 16.3381 5.00494 16.22C5.20277 16.102 5.26732 15.8462 5.14913 15.6487L1.78352 10.0237L1.78309 10.0229C1.55 9.63515 1.6812 9.1278 2.10311 8.89297Z" />
</svg>
