<svg width="24" height="24" viewBox="0 0 24 24" fill="none" xmlns="http://www.w3.org/2000/svg">
<path fill-rule="evenodd" clip-rule="evenodd" d="M9.91223 4C9.91223 3.44945 10.3599 3 10.9231 3H19.9889C20.5521 3 20.9997 3.44945 20.9997 4V5.295C20.9997 5.57114 21.2237 5.795 21.4999 5.795C21.7761 5.795 22 5.57114 22 5.295V4C22 2.89055 21.0979 2 19.9889 2H10.9231C9.81411 2 8.91197 2.89055 8.91197 4V20C8.91197 21.1094 9.81411 22 10.9231 22H19.9889C21.0979 22 22 21.1094 22 20V8.795C22 8.51886 21.7761 8.295 21.4999 8.295C21.2237 8.295 20.9997 8.51886 20.9997 8.795V20C20.9997 20.5506 20.5521 21 19.9889 21H10.9231C10.3599 21 9.91223 20.5506 9.91223 20V4ZM6.95506 4.22868C7.22226 4.15872 7.38214 3.88546 7.31217 3.61832C7.24219 3.35119 6.96885 3.19135 6.70165 3.26131L3.49361 4.10124C2.41961 4.38129 1.78037 5.48186 2.06954 6.55062L5.93755 20.8703C6.00957 21.1369 6.28412 21.2947 6.55078 21.2227C6.81744 21.1507 6.97524 20.8762 6.90322 20.6096L3.03507 6.28937C2.8913 5.75831 3.20878 5.20888 3.74621 5.06883L6.95506 4.22868Z" fill="#EB0055"/>
</svg>
