<svg xmlns="http://www.w3.org/2000/svg" width="250" height="250" viewBox="0 0 250 250"><path fill="#FFF" fill-rule="evenodd" d="M112.43 230c.065 0 .132.004.198.01.86.092 1.468.75 1.36 1.47l-1.864 12.369c-.109.72-.895 1.234-1.752 1.14-.86-.091-1.468-.749-1.36-1.47l1.864-12.368c.1-.665.775-1.151 1.554-1.151zm23.517-25.823l5.041 36.307c.103.738-.471 1.412-1.282 1.506-.063.006-.126.01-.187.01-.735 0-1.372-.497-1.466-1.178l-5.041-36.307c-.103-.738.471-1.412 1.282-1.505.808-.09 1.55.429 1.653 1.167zM125.5 221c.829 0 1.5.599 1.5 1.338v15.325c0 .739-.671 1.337-1.5 1.337-.828 0-1.5-.598-1.5-1.337v-15.325c0-.74.672-1.338 1.5-1.338zm37.946-6.139l7.465 20.274c.257.7-.061 1.491-.712 1.769a1.19 1.19 0 01-.466.096c-.505 0-.981-.326-1.179-.861l-7.465-20.274c-.257-.699.062-1.491.712-1.768.65-.279 1.386.065 1.645.764zM102.628 214c.112 0 .227.014.341.043.734.185 1.176.92.988 1.64l-4.258 16.303a1.369 1.369 0 01-1.668.97 1.346 1.346 0 01-.988-1.64l4.258-16.303a1.368 1.368 0 011.327-1.013zM85.67 224c.163 0 .329.031.49.098.682.285 1.017 1.096.746 1.813l-2.34 6.205c-.27.718-1.042 1.07-1.725.785-.683-.284-1.017-1.096-.748-1.813l2.34-6.205A1.335 1.335 0 0185.67 224zm-4.017-20c.22 0 .442.054.648.168a1.36 1.36 0 01.532 1.842L69.53 230.296a1.343 1.343 0 01-1.831.536 1.361 1.361 0 01-.532-1.842l13.303-24.286c.246-.45.707-.704 1.183-.704zm94.007 11.68l6.165 10.376c.376.635.126 1.432-.56 1.782-.217.11-.45.162-.681.162-.5 0-.986-.245-1.244-.68l-6.165-10.377c-.376-.634-.126-1.432.56-1.781.686-.348 1.547-.118 1.925.517zm-24.821 1.294l2.115 7.408c.198.693-.266 1.4-1.038 1.578-.12.028-.241.04-.36.04-.642 0-1.229-.388-1.395-.974l-2.115-7.406c-.198-.694.266-1.4 1.038-1.579.774-.179 1.557.24 1.755.933zM119.499 172c.064 0 .127.004.19.01.822.095 1.403.775 1.299 1.519l-7.004 50.282c-.104.744-.855 1.274-1.674 1.178-.821-.094-1.402-.774-1.298-1.518l7.004-50.283c.096-.686.74-1.188 1.484-1.188zm-12.849 0c.166 0 .334.031.497.096a1.374 1.374 0 01.758 1.775l-17.3 44.264a1.342 1.342 0 01-1.751.768 1.373 1.373 0 01-.759-1.774l17.3-44.265c.21-.536.718-.864 1.255-.864zm18.85 16c.829 0 1.5.608 1.5 1.358v27.284c0 .75-.671 1.358-1.5 1.358-.828 0-1.5-.608-1.5-1.358v-27.284c0-.75.672-1.358 1.5-1.358zm-58.852 17a1.354 1.354 0 011.094 2.15l-5.294 7.292a1.353 1.353 0 11-2.19-1.592l5.294-7.292a1.354 1.354 0 011.096-.558zm119.764-16.567l22.21 23.257c.527.552.5 1.42-.062 1.939-.27.248-.612.371-.954.371-.373 0-.743-.145-1.018-.432l-22.21-23.257c-.527-.552-.5-1.42.062-1.939a1.41 1.41 0 011.972.061zM52.598 201.36c.513.5.538 1.34.057 1.872l-8.45 9.35a1.25 1.25 0 01-.93.418c-.313 0-.627-.119-.873-.359a1.362 1.362 0 01-.056-1.873l8.45-9.35a1.24 1.24 0 011.802-.058zm128.681-1.833l7.48 10.444c.41.571.284 1.37-.279 1.785a1.247 1.247 0 01-1.76-.283l-7.479-10.444a1.288 1.288 0 01.279-1.785 1.249 1.249 0 011.76.283zM108.626 192c.113 0 .228.014.342.043a1.35 1.35 0 01.989 1.644l-4.254 16.297a1.37 1.37 0 01-1.671.972 1.347 1.347 0 01-.988-1.644l4.253-16.297a1.37 1.37 0 011.329-1.015zm44.889-19.302l19.319 35.307a1.348 1.348 0 01-1.173 1.995 1.34 1.34 0 01-1.176-.698l-19.319-35.306a1.35 1.35 0 01.529-1.829 1.337 1.337 0 011.82.531zm-9.763 19.343l4.204 16.23a1.385 1.385 0 01-1.355 1.729 1.396 1.396 0 01-1.353-1.04l-4.204-16.23a1.385 1.385 0 011.007-1.686 1.396 1.396 0 011.7.997zm1.788-19.18l12.367 32.277c.268.7-.064 1.49-.74 1.766a1.268 1.268 0 01-.483.096c-.524 0-1.02-.326-1.224-.86l-12.367-32.278c-.268-.699.063-1.489.739-1.766.675-.277 1.44.067 1.708.764zm59.61 17.444l12.374 10.347c.559.467.637 1.303.175 1.867a1.307 1.307 0 01-1.849.176l-12.374-10.346a1.336 1.336 0 01-.175-1.868 1.304 1.304 0 011.849-.176zM82.645 183c.276 0 .555.086.796.264.606.448.74 1.312.3 1.93l-12.289 17.235a1.336 1.336 0 01-1.893.306 1.399 1.399 0 01-.3-1.93l12.289-17.235c.265-.373.678-.57 1.097-.57zm-3.086-8.627c.563.52.59 1.391.062 1.945l-21.206 22.248a1.404 1.404 0 01-1.019.434c-.343 0-.686-.123-.955-.373a1.36 1.36 0 01-.062-1.944l21.207-22.249a1.41 1.41 0 011.973-.06zM98.69 171c.213 0 .43.054.63.169.636.362.868 1.19.518 1.848l-13.373 25.277c-.349.659-1.148.9-1.783.537-.636-.362-.868-1.19-.518-1.847l13.374-25.278c.238-.45.688-.706 1.151-.706zm-42 10.49a1.351 1.351 0 01-.18 1.904l-17.294 14.295a1.352 1.352 0 11-1.725-2.082l17.295-14.296a1.352 1.352 0 011.905.18zm76.31-8.304l2.988 21.287c.104.744-.48 1.422-1.305 1.516a1.762 1.762 0 01-.191.011c-.748 0-1.396-.5-1.492-1.186l-2.988-21.288c-.104-.743.48-1.421 1.306-1.515.82-.094 1.578.432 1.682 1.175zm35.392 9.353l8.356 11.384a1.3 1.3 0 01-.293 1.827c-.234.169-.507.25-.775.25-.41 0-.813-.187-1.071-.54l-8.356-11.383a1.298 1.298 0 01.292-1.827 1.332 1.332 0 011.847.289zm-29.41-9.554l3.97 13.378c.208.701-.28 1.415-1.09 1.596a1.756 1.756 0 01-.378.041c-.675 0-1.29-.393-1.466-.985l-3.97-13.377c-.208-.702.28-1.416 1.09-1.596.813-.182 1.636.243 1.844.943zm32.226-11.666l27.303 23.226c.574.488.654 1.362.18 1.952a1.32 1.32 0 01-1.899.185l-27.303-23.227a1.414 1.414 0 01-.18-1.952 1.323 1.323 0 011.899-.184zM113.625 172c.113 0 .228.014.343.043.735.183 1.177.911.988 1.627l-3.251 12.324c-.189.716-.936 1.15-1.673.963-.734-.184-1.177-.912-.988-1.627l3.252-12.325a1.368 1.368 0 011.33-1.005zm52.722-4.571l15.285 16.284a1.358 1.358 0 01-1.98 1.859l-15.284-16.284a1.36 1.36 0 01.06-1.92 1.36 1.36 0 011.92.06zM47.802 174.69c.376.694.2 1.611-.391 2.05l-9.461 7.028a1.133 1.133 0 01-.68.232c-.42 0-.83-.244-1.072-.69-.376-.693-.2-1.61.391-2.05l9.461-7.028c.592-.44 1.376-.235 1.752.458zM125.5 172c.829 0 1.5.595 1.5 1.329v9.342c0 .734-.671 1.329-1.5 1.329-.828 0-1.5-.595-1.5-1.329v-9.342c0-.734.672-1.329 1.5-1.329zm76.488.22l10.411 7.184c.604.417.782 1.286.4 1.943a1.273 1.273 0 01-1.095.653c-.237 0-.477-.07-.692-.22l-10.411-7.184c-.604-.416-.782-1.286-.4-1.943.383-.655 1.183-.851 1.787-.433zM91.548 171c.296 0 .595.08.853.246.649.418.793 1.222.321 1.797l-6.093 7.426c-.47.574-1.38.704-2.03.285-.649-.418-.793-1.223-.321-1.797l6.093-7.426c.284-.347.727-.531 1.177-.531zm68.159.562l5.007 6.275c.486.609.337 1.46-.331 1.903-.266.176-.573.26-.878.26a1.54 1.54 0 01-1.211-.562l-5.008-6.275c-.486-.608-.338-1.46.33-1.902.669-.443 1.604-.308 2.09.301zM81.682 161.48c.488.56.405 1.392-.184 1.857l-18.23 14.362c-.258.202-.57.302-.882.302-.399 0-.794-.163-1.068-.478a1.277 1.277 0 01.185-1.858l18.229-14.361a1.433 1.433 0 011.95.176zm-47.81 7.341c.316.713.027 1.564-.645 1.899l-14.31 7.145c-.184.092-.38.136-.571.136-.505 0-.989-.303-1.218-.82-.316-.713-.028-1.563.645-1.898l14.31-7.146c.67-.336 1.473-.029 1.789.684zm170.098-7.693l25.236 11.356c.69.31.987 1.098.662 1.758a1.389 1.389 0 01-1.25.759c-.198 0-.398-.04-.588-.126l-25.236-11.356c-.69-.31-.987-1.098-.662-1.758.324-.661 1.148-.945 1.838-.633zm-136.186.494c.41.622.219 1.447-.426 1.842l-15.232 9.328c-.23.142-.487.209-.74.209-.459 0-.907-.22-1.17-.62a1.309 1.309 0 01.426-1.844l15.232-9.328c.646-.396 1.5-.21 1.91.413zm118.175.612l9.45 7.015c.594.441.77 1.363.392 2.06-.243.446-.656.692-1.078.692-.233 0-.47-.076-.682-.233l-9.45-7.015c-.593-.442-.77-1.363-.392-2.06.377-.695 1.165-.901 1.76-.46zm-99.451 5.18a1.5 1.5 0 01.069 2.155L84.7 171.52c-.307.32-.723.481-1.14.481a1.57 1.57 0 01-1.067-.413 1.497 1.497 0 01-.07-2.154l1.877-1.952a1.588 1.588 0 012.208-.067zm-7.638-19.62c.32.691.028 1.514-.652 1.839l-40.277 19.236c-.187.09-.385.132-.579.132-.51 0-1-.293-1.232-.794a1.392 1.392 0 01.652-1.839l40.277-19.235a1.35 1.35 0 011.81.662zm139.886 6.278l20.316 7.11c.705.246 1.09 1.061.862 1.82-.184.611-.71.999-1.275.999-.138 0-.278-.023-.415-.071l-20.316-7.11c-.705-.246-1.09-1.062-.862-1.82.23-.759.988-1.174 1.69-.928zM44.934 151.88c.228.668-.155 1.386-.857 1.603l-27.328 8.455a1.383 1.383 0 01-.414.063c-.562 0-1.086-.342-1.27-.88-.227-.667.157-1.385.858-1.602l27.329-8.456c.7-.216 1.454.15 1.682.817zm129.033 2.34l7.439 5.187c.596.416.774 1.285.395 1.941-.245.422-.66.653-1.082.653-.235 0-.473-.07-.686-.22l-7.439-5.186c-.597-.416-.773-1.286-.394-1.941.379-.656 1.17-.85 1.767-.434zm-94.188.405c.42.626.224 1.455-.436 1.852l-7.169 4.315a1.471 1.471 0 01-.757.209c-.469 0-.927-.22-1.196-.623-.42-.626-.224-1.456.436-1.852l7.169-4.315c.66-.398 1.534-.213 1.953.414zm94.194-7.497l25.232 11.353c.692.31.988 1.099.663 1.76a1.39 1.39 0 01-1.253.76 1.44 1.44 0 01-.588-.126l-25.232-11.354c-.692-.31-.989-1.099-.663-1.76.325-.661 1.15-.945 1.84-.633zm6.813-5.061l32.27 10.315c.718.23 1.11.986.877 1.691a1.363 1.363 0 01-1.297.928c-.14 0-.282-.02-.422-.066l-32.27-10.315a1.336 1.336 0 01-.877-1.69 1.37 1.37 0 011.72-.863zm-101.853-2.122a1.367 1.367 0 01-.868 1.719l-28.293 9.27a1.357 1.357 0 01-1.706-.876 1.368 1.368 0 01.87-1.72l28.292-9.27c.71-.233 1.474.16 1.705.877zm-42.958 2.28c.142.818-.346 1.608-1.09 1.763l-14.255 2.986a1.27 1.27 0 01-.258.027c-.646 0-1.222-.503-1.347-1.225-.142-.818.346-1.607 1.09-1.763l14.255-2.985c.75-.155 1.464.381 1.605 1.197zm165.682-4.197l25.21 5.062c.756.152 1.252.921 1.108 1.718-.127.703-.712 1.193-1.369 1.193-.087 0-.174-.008-.263-.026l-25.21-5.063c-.756-.151-1.252-.92-1.108-1.717.144-.797.873-1.32 1.632-1.167zm-139.681-.79c.139.824-.339 1.621-1.067 1.778l-18.314 3.957c-.085.018-.17.028-.253.028-.632 0-1.195-.508-1.318-1.236-.139-.826.339-1.622 1.067-1.78l18.314-3.957c.73-.157 1.432.384 1.571 1.21zm112.034 2.825l1.928.508c.807.213 1.248.915.987 1.569-.211.526-.813.861-1.46.861-.158 0-.318-.02-.475-.06l-1.928-.51c-.807-.212-1.248-.914-.987-1.568.263-.655 1.13-1.014 1.935-.8zm-.36-8.035l19.221 3.983c.754.156 1.248.946 1.104 1.764-.127.723-.709 1.226-1.362 1.226-.087 0-.174-.009-.262-.027l-19.223-3.983c-.753-.156-1.247-.946-1.103-1.764.143-.818.87-1.356 1.624-1.199zm-94.674 2.191c.138.813-.336 1.599-1.06 1.754l-9.332 2a1.15 1.15 0 01-.251.028c-.628 0-1.187-.5-1.31-1.219-.137-.813.337-1.598 1.061-1.753l9.332-2.001c.73-.155 1.423.38 1.56 1.191zm147.465-3.215l18.288 1.192c.747.049 1.315.715 1.268 1.489-.045.744-.642 1.316-1.352 1.316-.029 0-.057 0-.086-.003l-18.289-1.192c-.747-.048-1.314-.715-1.267-1.49.047-.773.7-1.36 1.438-1.312zm-183.444-.62c.046.815-.51 1.515-1.244 1.567l-29.339 2.047a1.207 1.207 0 01-.085.003c-.696 0-1.282-.601-1.326-1.383-.046-.814.511-1.514 1.244-1.566l29.339-2.047c.723-.058 1.365.566 1.411 1.38zm152.476-1.38l22.228 1.341c.764.046 1.344.678 1.296 1.41-.046.705-.656 1.246-1.382 1.246-.03 0-.058 0-.088-.002l-22.228-1.342c-.764-.046-1.344-.677-1.296-1.41.048-.733.723-1.29 1.47-1.243zm-125.476.3a1.387 1.387 0 01-1.292 1.476l-19.236 1.218-.089.003a1.386 1.386 0 01-1.377-1.304 1.386 1.386 0 011.292-1.475l19.236-1.218a1.393 1.393 0 011.466 1.3zm103.424-2.3l16.326 1.11c.737.05 1.297.736 1.25 1.533-.044.765-.633 1.354-1.332 1.354-.03 0-.057 0-.086-.003l-16.326-1.11c-.737-.05-1.297-.736-1.25-1.533.046-.796.695-1.4 1.418-1.351zm-94.424 1.293c.051.762-.571 1.418-1.391 1.466l-4.025.235-.095.003c-.779 0-1.433-.563-1.483-1.296-.051-.762.571-1.418 1.391-1.466l4.025-.235c.822-.048 1.527.531 1.578 1.293zm-17.576-8.293l16.326 1.11c.737.05 1.297.736 1.25 1.533-.044.765-.633 1.354-1.332 1.354-.029 0-.057 0-.086-.003l-16.326-1.11c-.737-.05-1.297-.736-1.25-1.533.046-.797.682-1.4 1.418-1.351zm117.576 2.293c.051.762-.571 1.418-1.391 1.466l-4.025.236-.095.002c-.779 0-1.433-.563-1.483-1.295-.052-.762.571-1.419 1.391-1.466l4.025-.236c.808-.048 1.526.531 1.578 1.293zm24-1.992a1.386 1.386 0 01-1.292 1.475l-19.236 1.219-.089.002a1.386 1.386 0 01-1.377-1.303 1.387 1.387 0 011.292-1.476l19.236-1.218a1.388 1.388 0 011.466 1.3zm-169.524-2.302l22.228 1.341c.764.046 1.344.678 1.296 1.41-.046.705-.656 1.247-1.382 1.247-.03 0-.059-.001-.088-.003l-22.228-1.342c-.764-.046-1.345-.677-1.296-1.41.048-.733.712-1.279 1.47-1.243zm206.524.381c.046.814-.511 1.515-1.244 1.566l-29.339 2.048a1.207 1.207 0 01-.085.003c-.696 0-1.282-.601-1.326-1.384-.046-.813.51-1.514 1.244-1.565l29.339-2.048c.72-.049 1.365.566 1.411 1.38zM6.441 116.002l18.289 1.192c.747.048 1.314.715 1.267 1.49-.045.744-.641 1.316-1.352 1.316-.028 0-.057 0-.086-.003L6.27 118.805c-.746-.049-1.314-.715-1.267-1.49.047-.774.704-1.351 1.438-1.313zm52.208-3.975l19.222 3.983c.754.156 1.248.946 1.104 1.764-.127.723-.709 1.226-1.362 1.226-.087 0-.174-.009-.262-.027l-19.223-3.983c-.753-.156-1.247-.945-1.103-1.764.144-.818.868-1.356 1.624-1.199zm125.327 2.192c.138.812-.336 1.598-1.06 1.753l-9.332 2a1.1 1.1 0 01-.252.028c-.627 0-1.186-.5-1.308-1.219-.138-.812.336-1.598 1.06-1.753l9.333-2c.73-.158 1.422.378 1.56 1.19zm26-4.983c.139.825-.339 1.621-1.067 1.78l-18.314 3.957c-.085.018-.17.027-.253.027-.632 0-1.195-.508-1.318-1.236-.139-.826.339-1.623 1.067-1.78l18.314-3.957c.733-.156 1.432.384 1.571 1.209zm-185.32-4.21l25.21 5.062c.757.152 1.253.922 1.109 1.718-.127.704-.712 1.194-1.369 1.194-.087 0-.174-.008-.263-.026l-25.209-5.063c-.757-.151-1.253-.921-1.11-1.718.145-.796.873-1.317 1.633-1.167zm178.278-4.083a1.369 1.369 0 01-.87 1.72l-28.293 9.27c-.138.045-.28.067-.418.067-.57 0-1.1-.367-1.287-.943a1.369 1.369 0 01.87-1.72l28.292-9.27c.71-.232 1.474.16 1.706.876zM76.01 108.061l1.929.508c.806.213 1.247.916.986 1.57-.211.526-.813.861-1.46.861-.158 0-.318-.02-.475-.06l-1.928-.51c-.807-.212-1.248-.914-.987-1.569.263-.654 1.131-1.013 1.935-.8zm155.965-2.836c.142.818-.346 1.607-1.09 1.763l-14.255 2.985a1.27 1.27 0 01-.258.027c-.646 0-1.222-.503-1.348-1.225-.141-.817.347-1.607 1.091-1.763l14.255-2.985c.751-.157 1.463.381 1.605 1.198zM38.786 96.066l32.27 10.315c.718.23 1.11.986.877 1.691a1.363 1.363 0 01-1.297.928c-.14 0-.283-.021-.422-.066l-32.27-10.315a1.337 1.337 0 01-.877-1.691 1.371 1.371 0 011.72-.862zM214.87 82.794a1.39 1.39 0 01-.652 1.838l-40.277 19.236a1.33 1.33 0 01-.579.132c-.51 0-1-.293-1.232-.794a1.39 1.39 0 01.652-1.838l40.277-19.236a1.352 1.352 0 011.811.662zM52.973 90.126l25.232 11.354c.692.31.989 1.099.663 1.76-.235.48-.734.76-1.252.76-.198 0-.398-.04-.589-.127L51.795 92.52c-.691-.31-.988-1.1-.663-1.76.325-.661 1.15-.945 1.84-.634zm182.961-.247c.228.668-.156 1.386-.858 1.603l-27.327 8.455a1.381 1.381 0 01-.413.063c-.563 0-1.086-.342-1.27-.88-.228-.667.156-1.385.858-1.602l27.327-8.455c.7-.217 1.455.148 1.683.816zm-55.155.745c.42.626.224 1.455-.436 1.852l-7.169 4.315a1.471 1.471 0 01-.757.209c-.468 0-.927-.22-1.196-.623-.42-.627-.224-1.456.436-1.853l7.169-4.314c.66-.399 1.534-.212 1.953.414zM70.967 89.22l7.439 5.186c.597.416.773 1.285.394 1.94-.243.423-.658.654-1.082.654-.234 0-.472-.07-.685-.22l-7.439-5.185c-.597-.417-.773-1.285-.394-1.941.378-.657 1.17-.852 1.767-.434zm-58.21-2.149l20.316 7.11c.704.247 1.09 1.061.861 1.82-.184.611-.71.999-1.275.999-.138 0-.278-.023-.415-.071l-20.317-7.11c-.704-.246-1.09-1.061-.861-1.82.229-.759.987-1.175 1.69-.928zm41.45-22.751L81.51 87.546c.574.488.654 1.362.18 1.952a1.326 1.326 0 01-1.899.185L52.489 66.456a1.415 1.415 0 01-.18-1.953 1.324 1.324 0 011.9-.184zm135.474 9.16a1.276 1.276 0 01-.185 1.857l-18.226 14.36a1.421 1.421 0 01-.883.303c-.398 0-.793-.163-1.068-.478a1.277 1.277 0 01.185-1.858l18.228-14.36a1.43 1.43 0 011.951.175zM22.97 76.127l25.236 11.356c.69.31.987 1.098.662 1.758a1.386 1.386 0 01-1.25.759c-.198 0-.398-.04-.588-.126L21.794 78.518c-.69-.31-.987-1.098-.662-1.758.324-.661 1.148-.945 1.838-.633zm177.814 2.493c.41.624.219 1.449-.426 1.844l-15.232 9.328c-.23.14-.487.208-.74.208-.459 0-.907-.219-1.17-.62a1.307 1.307 0 01.426-1.843l15.232-9.328c.646-.397 1.5-.21 1.91.411zm-143.825.612l9.449 7.016c.594.442.77 1.364.393 2.06-.243.447-.656.692-1.078.692-.233 0-.47-.075-.682-.233l-9.45-7.016c-.594-.441-.77-1.363-.392-2.059.378-.695 1.166-.9 1.76-.46zM71.347 65.43l15.285 16.283a1.36 1.36 0 01-.989 2.288c-.362 0-.723-.144-.99-.429L69.368 67.288a1.358 1.358 0 111.98-1.859zm97.16 13.984c.63.577.66 1.541.07 2.154L166.7 83.52c-.308.32-.723.481-1.14.481-.382 0-.766-.137-1.067-.413a1.498 1.498 0 01-.07-2.155l1.878-1.951a1.587 1.587 0 012.206-.068zm65.365-5.593c.316.713.027 1.563-.645 1.898l-14.31 7.146a1.277 1.277 0 01-.571.136c-.505 0-.989-.303-1.218-.82-.316-.713-.027-1.563.645-1.898l14.31-7.146c.67-.336 1.473-.03 1.789.684zM166.319 52.17c.636.361.868 1.189.519 1.847l-13.374 25.278a1.31 1.31 0 01-1.152.706c-.214 0-.43-.054-.631-.169-.636-.361-.868-1.189-.518-1.847l13.373-25.278c.35-.659 1.148-.9 1.783-.537zM88.707 71.562l5.007 6.275c.486.609.338 1.46-.331 1.903-.266.176-.573.26-.879.26-.462 0-.918-.194-1.211-.561l-5.007-6.276c-.486-.609-.337-1.46.331-1.903.67-.442 1.605-.306 2.09.302zm77.694-1.316c.649.418.793 1.222.321 1.797l-6.093 7.427c-.284.346-.727.53-1.177.53-.296 0-.595-.08-.853-.246-.649-.418-.793-1.222-.321-1.797l6.093-7.426c.47-.574 1.38-.704 2.03-.285zM80.515 41.698l19.32 35.306c.355.652.119 1.47-.53 1.829a1.34 1.34 0 01-1.82-.531L78.166 42.995a1.349 1.349 0 01.529-1.828 1.336 1.336 0 011.82.531zm19.02 12.175l8.373 23.238c.266.71-.064 1.51-.738 1.792a1.255 1.255 0 01-.483.097c-.523 0-1.017-.33-1.222-.873L97.092 54.89c-.266-.708.064-1.51.738-1.791.675-.282 1.437.066 1.705.775zM39.988 69.22l10.411 7.185c.604.417.782 1.287.4 1.942a1.273 1.273 0 01-1.095.654c-.237 0-.477-.07-.692-.22l-10.411-7.185c-.604-.416-.782-1.286-.4-1.942.383-.656 1.184-.85 1.787-.434zm122.159-37.122a1.374 1.374 0 01.758 1.774l-17.3 44.265a1.35 1.35 0 01-1.255.864c-.166 0-.334-.03-.497-.096a1.374 1.374 0 01-.758-1.775l17.3-44.264a1.343 1.343 0 011.752-.768zM118 56.186l2.988 21.288c.104.743-.48 1.42-1.306 1.515a1.729 1.729 0 01-.19.011c-.748 0-1.396-.5-1.492-1.187l-2.988-21.287c-.104-.743.48-1.421 1.306-1.515.819-.094 1.579.432 1.682 1.175zM125.5 72c.829 0 1.5.68 1.5 1.518v3.965c0 .838-.671 1.517-1.5 1.517-.828 0-1.5-.68-1.5-1.517v-3.965A1.51 1.51 0 01125.5 72zm13.19-45.989c.82.094 1.402.774 1.298 1.518l-7.004 50.283c-.096.686-.74 1.188-1.484 1.188-.063 0-.126-.004-.19-.01-.82-.095-1.402-.774-1.298-1.519l7.004-50.283c.104-.743.855-1.273 1.674-1.177zm2.278 38.032c.734.184 1.177.912.989 1.627l-3.252 12.326a1.37 1.37 0 01-1.33 1.004c-.113 0-.228-.013-.342-.042-.736-.184-1.178-.912-.99-1.627l3.252-12.326c.189-.715.936-1.148 1.673-.962zm-29.985-.058l3.969 13.378c.208.701-.28 1.415-1.09 1.596a1.756 1.756 0 01-.378.041c-.675 0-1.291-.394-1.466-.985l-3.97-13.378c-.208-.701.28-1.415 1.09-1.595.813-.181 1.637.243 1.845.943zm83.576-11.611c.563.52.59 1.39.062 1.944l-21.206 22.248a1.404 1.404 0 01-1.019.434c-.342 0-.686-.123-.955-.373a1.361 1.361 0 01-.062-1.945l21.206-22.247a1.409 1.409 0 011.974-.061zm20.243 15.317c.376.692.2 1.61-.391 2.05l-9.461 7.027a1.127 1.127 0 01-.68.232c-.42 0-.83-.244-1.072-.69-.376-.693-.2-1.61.391-2.05l9.461-7.027c.592-.442 1.377-.235 1.752.458zm-1.112-14.2a1.352 1.352 0 01-.18 1.903L196.214 69.69c-.252.208-.557.31-.861.31a1.35 1.35 0 01-.863-2.393l17.294-14.297a1.354 1.354 0 011.905.18zM76.392 55.54l8.356 11.383a1.3 1.3 0 01-.293 1.827c-.235.17-.507.25-.776.25a1.32 1.32 0 01-1.07-.54l-8.357-11.382a1.301 1.301 0 01.293-1.828 1.331 1.331 0 011.847.29zM125.5 43c.829 0 1.5.606 1.5 1.354v23.292c0 .748-.671 1.354-1.5 1.354-.828 0-1.5-.606-1.5-1.354V44.354c0-.748.672-1.354 1.5-1.354zm55.94 5.265c.607.448.741 1.312.3 1.93L169.453 67.43a1.344 1.344 0 01-1.097.569 1.33 1.33 0 01-.796-.264 1.399 1.399 0 01-.3-1.93l12.289-17.236a1.337 1.337 0 011.893-.305zM44.413 37.433l22.21 23.257c.527.551.5 1.42-.062 1.938-.27.249-.612.372-.955.372-.371 0-.742-.145-1.017-.433l-22.21-23.256c-.527-.552-.5-1.42.062-1.939a1.41 1.41 0 011.972.061zM35.15 48.305L47.524 58.65c.559.467.637 1.304.175 1.868a1.307 1.307 0 01-1.849.177L33.476 50.349a1.335 1.335 0 01-.175-1.867 1.302 1.302 0 011.849-.177zm70.602-6.264l4.204 16.229a1.385 1.385 0 01-1.007 1.686 1.397 1.397 0 01-1.701-.997l-4.204-16.229a1.385 1.385 0 011.007-1.686 1.396 1.396 0 011.7.997zm41.216-1.997c.735.185 1.177.92.988 1.644l-4.253 16.297a1.37 1.37 0 01-1.671.972 1.348 1.348 0 01-.988-1.644l4.253-16.297a1.371 1.371 0 011.671-.972zm-82.688-.517l7.48 10.444c.408.57.283 1.37-.28 1.785a1.237 1.237 0 01-.739.244c-.39 0-.774-.183-1.021-.527l-7.48-10.444a1.29 1.29 0 01.28-1.785 1.25 1.25 0 011.76.283zm144.318-1.167c.513.501.538 1.34.056 1.872l-8.45 9.35c-.25.278-.59.418-.93.418-.312 0-.626-.119-.872-.359a1.363 1.363 0 01-.057-1.873l8.45-9.35a1.242 1.242 0 011.803-.058zM82.6 14.852l13.305 32.307A1.345 1.345 0 0194.653 49a1.349 1.349 0 01-1.253-.85L80.095 15.842a1.345 1.345 0 01.756-1.746 1.346 1.346 0 011.749.756zm30.355-4.668l5.033 36.294c.103.74-.473 1.417-1.286 1.511a1.707 1.707 0 01-.188.011c-.736 0-1.375-.5-1.47-1.183l-5.032-36.294c-.103-.74.472-1.417 1.286-1.511.81-.099 1.554.43 1.657 1.172zm70.346 9.984c.652.361.89 1.186.532 1.842L170.53 46.297a1.347 1.347 0 01-1.831.535 1.362 1.362 0 01-.532-1.842l13.303-24.287a1.343 1.343 0 011.831-.535zm7.14 16.09c.606.44.74 1.287.3 1.892l-5.293 7.292a1.348 1.348 0 01-1.89.299 1.353 1.353 0 01-.3-1.89l5.294-7.293a1.353 1.353 0 011.89-.3zM125.5 12c.829 0 1.5.611 1.5 1.364v24.272c0 .753-.671 1.364-1.5 1.364-.828 0-1.5-.611-1.5-1.364V13.364c0-.753.672-1.364 1.5-1.364zm27.47 6.044c.733.185 1.175.919.987 1.64l-4.258 16.303a1.366 1.366 0 01-1.668.97 1.346 1.346 0 01-.988-1.64l4.258-16.303a1.369 1.369 0 011.668-.97zM71.66 23.68l6.165 10.376c.377.635.126 1.433-.56 1.781a1.5 1.5 0 01-.681.163c-.5 0-.986-.246-1.244-.68l-6.164-10.376c-.377-.635-.127-1.433.559-1.781.686-.35 1.548-.118 1.925.517zm29.18 2.294l2.114 7.407c.198.693-.266 1.4-1.038 1.578-.12.028-.24.041-.36.041-.642 0-1.228-.389-1.395-.974l-2.115-7.406c-.198-.694.266-1.4 1.038-1.579.774-.179 1.557.24 1.755.933zm67.32-7.875c.682.284 1.016 1.096.747 1.813l-2.34 6.205a1.332 1.332 0 01-1.237.883 1.29 1.29 0 01-.49-.098c-.682-.284-1.016-1.096-.747-1.813l2.34-6.206c.27-.717 1.043-1.07 1.726-.784zM140.627 6.011c.86.09 1.468.749 1.36 1.47l-1.864 12.368c-.1.665-.775 1.151-1.554 1.151-.065 0-.131-.004-.198-.01-.86-.092-1.468-.75-1.36-1.47l1.864-12.37c.109-.72.895-1.233 1.752-1.139z" opacity=".1"/></svg>