<svg width="381" height="233" viewBox="0 0 381 233" xmlns="http://www.w3.org/2000/svg"><g fill="none"><path d="M0 0h317v232.267H0z"/><path d="M79.815 167.01a1.012 1.012 0 011.006 1.139l-1.203 9.516a1.012 1.012 0 11-2.01-.254l1.204-9.516c.064-.511.5-.885 1.003-.885zm-19.425-4.497a1.013 1.013 0 01.941 1.385l-1.781 4.496a1.012 1.012 0 11-1.884-.745l1.782-4.496c.158-.397.539-.64.942-.64zm12.31-7.741a1.014 1.014 0 01.982 1.263l-3.145 12.239a1.012 1.012 0 01-1.962-.503l3.145-12.239c.117-.456.53-.76.98-.76zm-15.776-6.645a1.01 1.01 0 01.886 1.5l-9.993 18.113a1.013 1.013 0 01-1.774-.974l9.993-18.114a1.01 1.01 0 01.888-.525zm-11.206.844a1.011 1.011 0 01.819 1.607l-3.962 5.448a1.014 1.014 0 01-1.415.224 1.011 1.011 0 01-.224-1.413l3.961-5.449c.199-.272.508-.417.82-.417zm31.115-10.281a1.015 1.015 0 01.982 1.263l-3.138 12.21a1.01 1.01 0 01-1.233.728 1.011 1.011 0 01-.729-1.231l3.138-12.21c.117-.457.529-.76.98-.76zm-18.9-6.518a1.01 1.01 0 01.819 1.606l-9.179 12.623a1.011 1.011 0 01-1.414.224 1.01 1.01 0 01-.224-1.413l9.179-12.623a1.01 1.01 0 01.82-.417zm17.714-8.16a1.013 1.013 0 01.941 1.385l-12.981 32.76a1.012 1.012 0 01-1.884-.745l12.982-32.76c.157-.397.538-.64.942-.64zm9.604 0a1.012 1.012 0 011.006 1.139l-4.735 37.457a1.012 1.012 0 01-2.01-.254l4.736-37.456c.065-.512.5-.886 1.003-.886zm-15.085 0a1.011 1.011 0 01.886 1.5l-10.314 18.794a1.013 1.013 0 01-1.775-.974l10.315-18.795c.184-.335.53-.525.888-.525zm10.439 0a1.012 1.012 0 01.981 1.264l-2.397 9.33a1.012 1.012 0 11-1.962-.503l2.398-9.33c.117-.457.528-.76.98-.76zm-16.08-.903a1.01 1.01 0 01.819 1.606l-4.247 5.84a1.013 1.013 0 01-1.64-1.19l4.247-5.84c.198-.272.507-.416.82-.416zM99.68 11.836a1.012 1.012 0 01-1.006-1.139l1.203-9.516a1.011 1.011 0 112.01.253l-1.204 9.517a1.01 1.01 0 01-1.003.885zm19.425 4.497a1.013 1.013 0 01-.942-1.385l1.782-4.496a1.012 1.012 0 111.884.745l-1.782 4.496c-.158.398-.539.64-.942.64zm-46.85 6.06c-.452 0-.863-.304-.98-.76l-1.486-5.78a1.011 1.011 0 111.962-.504l1.485 5.78a1.012 1.012 0 01-.981 1.264zm-5.233 9.76c-.403 0-.784-.243-.942-.64L56.077 7.217a1.012 1.012 0 111.883-.745l10.004 24.296a1.012 1.012 0 01-.941 1.385zM52.715 23.14c-.358 0-.704-.19-.889-.525l-4.404-8.004a1.013 1.013 0 011.775-.975L53.6 21.64a1.012 1.012 0 01-.886 1.5zm54.08.934a1.015 1.015 0 01-.981-1.264l3.145-12.237a1.01 1.01 0 011.232-.729c.542.14.869.69.73 1.232l-3.145 12.238c-.117.457-.53.76-.98.76zm15.777 6.645a1.011 1.011 0 01-.886-1.5l9.992-18.113a1.013 1.013 0 011.775.975l-9.993 18.114a1.01 1.01 0 01-.888.524zm-32.83-5.645c-.56 0-1.013-.453-1.013-1.011V6.066a1.012 1.012 0 012.025 0v17.997c0 .558-.453 1.011-1.013 1.011zm44.036 4.8a1.01 1.01 0 01-.819-1.606l3.962-5.448a1.014 1.014 0 011.64 1.19l-3.962 5.448a1.011 1.011 0 01-.82.417zM82.285 31.46c-.502 0-.939-.373-1.003-.885L77.846 3.413a1.012 1.012 0 112.01-.253l3.435 27.162a1.012 1.012 0 01-1.006 1.138zm61.596 1.371a1.012 1.012 0 01-.738-1.705l6.711-7.14a1.012 1.012 0 011.477 1.386l-6.711 7.14c-.2.212-.469.32-.739.32zm-94.201 2.51c-.314 0-.623-.145-.82-.418l-6.012-8.267a1.011 1.011 0 01.224-1.413 1.014 1.014 0 011.415.224l6.011 8.267a1.012 1.012 0 01-.818 1.606zm52.983 4.816a1.014 1.014 0 01-.982-1.264l3.138-12.21a1.011 1.011 0 111.962.503l-3.138 12.21c-.117.457-.529.76-.98.76zm-25.777.254c-.451 0-.863-.304-.98-.76L72.86 27.796a1.011 1.011 0 111.961-.504l3.047 11.854a1.011 1.011 0 01-.982 1.264zm-46.09 1.301a1.01 1.01 0 01-.646-.232l-9.546-7.89a1.013 1.013 0 011.29-1.56l9.547 7.891a1.01 1.01 0 01-.646 1.791zm14.22 1.135a1.01 1.01 0 01-.739-.32L28.153 25.373a1.012 1.012 0 011.477-1.385l16.124 17.156a1.011 1.011 0 01-.738 1.704zm76.546 3.827a1.011 1.011 0 01-.819-1.606l9.18-12.623a1.011 1.011 0 111.638 1.19l-9.18 12.622a1.01 1.01 0 01-.819.417zm-31.82.605c-.56 0-1.013-.453-1.013-1.012V28.863a1.012 1.012 0 012.025 0v17.404c0 .559-.453 1.012-1.013 1.012zm-31.206.241c-.313 0-.621-.144-.82-.417l-6.402-8.805a1.012 1.012 0 111.639-1.19l6.402 8.806a1.011 1.011 0 01-.819 1.606zm82.715.34a1.01 1.01 0 01-.646-1.791l12.946-10.702a1.013 1.013 0 011.291 1.56l-12.946 10.701a1.01 1.01 0 01-.645.232zm-16.368 5.186a1.01 1.01 0 01-.738-1.705l15.378-16.362A1.012 1.012 0 01141 36.364l-15.38 16.362c-.2.213-.468.32-.738.32zm23.826 0a1.011 1.011 0 01-.544-1.866l7.55-4.787A1.012 1.012 0 11156.8 48.1l-7.55 4.787a1.007 1.007 0 01-.542.158zM32.845 54.36c-.185 0-.373-.051-.541-.158l-8.147-5.166a1.011 1.011 0 111.085-1.709l8.147 5.166a1.011 1.011 0 01-.544 1.867zm52.394.453c-.503 0-.939-.374-1.003-.886l-2.01-15.883a1.012 1.012 0 012.01-.254l2.01 15.884a1.013 1.013 0 01-1.007 1.139zm-15.086.019c-.358 0-.704-.19-.889-.525l-14.597-26.53a1.011 1.011 0 111.774-.975l14.598 26.53a1.011 1.011 0 01-.886 1.5zm33.696.001a1.013 1.013 0 01-.941-1.384l12.981-32.76a1.013 1.013 0 011.884.745l-12.982 32.76c-.157.397-.539.64-.942.64zm-14.108 0a1.012 1.012 0 01-1.012-1.011v-2.644a1.012 1.012 0 012.025 0v2.644c0 .558-.453 1.011-1.013 1.011zm4.503 0a1.012 1.012 0 01-1.006-1.139l4.736-37.456a1.012 1.012 0 012.01.254l-4.736 37.456c-.065.511-.5.885-1.004.885zm15.086 0a1.01 1.01 0 01-.886-1.5l10.314-18.794a1.013 1.013 0 011.775.975l-10.315 18.795a1.01 1.01 0 01-.888.524zm-10.439 0a1.011 1.011 0 01-.981-1.264l2.397-9.329a1.012 1.012 0 011.962.503l-2.397 9.33c-.118.457-.53.76-.98.76zm-18.299.001c-.451 0-.863-.304-.98-.76L76.96 43.747a1.011 1.011 0 111.961-.503l2.654 10.326a1.012 1.012 0 01-.982 1.264zm-4.958 0c-.403 0-.784-.242-.942-.64l-6.457-17.04a1.012 1.012 0 111.884-.744l6.457 17.04a1.013 1.013 0 01-.942 1.384zm-11.124.901a1.01 1.01 0 01-.82-.416l-3.39-4.662a1.011 1.011 0 111.64-1.189l3.389 4.661a1.011 1.011 0 01-.819 1.606zm50.462.003a1.011 1.011 0 01-.819-1.607l4.247-5.84a1.013 1.013 0 011.638 1.19l-4.246 5.84a1.012 1.012 0 01-.82.417zm44.426 1.948a1.012 1.012 0 01-.432-1.927l10.776-5.067a1.013 1.013 0 01.863 1.83l-10.777 5.067c-.14.066-.286.097-.43.097zm-39.627.798a1.011 1.011 0 01-.738-1.705l1.218-1.295a1.013 1.013 0 011.476 1.385l-1.217 1.296c-.2.212-.469.32-.74.32zm-60.058 0c-.27 0-.54-.107-.739-.32l-11.403-12.13a1.011 1.011 0 111.477-1.385L60.45 56.78a1.011 1.011 0 01-.738 1.704zm-14.718 3.579c-.186 0-.374-.051-.542-.158l-7.503-4.758a1.011 1.011 0 111.085-1.708l7.503 4.758a1.011 1.011 0 01-.543 1.866zm88.945.347a1.012 1.012 0 01-.543-1.866l11.145-7.067a1.012 1.012 0 111.086 1.709l-11.146 7.066a1.01 1.01 0 01-.542.158zm-77.76.284a1.01 1.01 0 01-.645-.232l-20.506-16.95a1.012 1.012 0 111.291-1.559l20.506 16.95a1.011 1.011 0 01-.646 1.791zm67.122.002a1.01 1.01 0 01-.646-1.792l13.325-11.014a1.012 1.012 0 111.29 1.56l-13.324 11.013a1.008 1.008 0 01-.645.233zm-91.936.293a1.01 1.01 0 01-.43-.096l-18.497-8.697a1.011 1.011 0 11.862-1.83l18.497 8.696a1.011 1.011 0 01-.432 1.927zM20.54 67.97a.999.999 0 01-.313-.05l-15.34-4.98a1.012 1.012 0 11.626-1.924l15.34 4.98a1.012 1.012 0 01-.313 1.974zm33.77 0a1.01 1.01 0 01-.541-.157l-5.885-3.731a1.011 1.011 0 111.086-1.709l5.885 3.732a1.01 1.01 0 01-.544 1.866zm70.805.037a1.012 1.012 0 01-.544-1.866l5.13-3.252a1.012 1.012 0 111.085 1.708l-5.13 3.253a1.01 1.01 0 01-.541.157zm25.79 2.573a1.011 1.011 0 01-.312-1.974l20.721-6.728a1.012 1.012 0 11.626 1.925l-20.721 6.727c-.104.034-.21.05-.313.05zm-25.53 3.103a1.012 1.012 0 01-.432-1.927l29.96-14.087a1.013 1.013 0 01.863 1.831l-29.961 14.087c-.14.065-.286.096-.43.096zm-71.266 0c-.144 0-.29-.03-.43-.096l-18.47-8.684a1.011 1.011 0 11.862-1.83l18.47 8.683a1.01 1.01 0 01-.432 1.927zm-5.815 3.298a1.01 1.01 0 01-.313-.05l-23.955-7.777a1.012 1.012 0 11.626-1.925l23.955 7.777a1.012 1.012 0 01-.313 1.975zm108.911.597a1.013 1.013 0 01-.189-2.007l10.516-2.003a1.012 1.012 0 11.38 1.988l-10.516 2.003a1.007 1.007 0 01-.19.019zM54.11 78.867a1.02 1.02 0 01-.313-.05l-1.272-.412a1.012 1.012 0 11.626-1.925l1.272.413a1.012 1.012 0 01-.313 1.974zm71.263 0a1.012 1.012 0 01-.312-1.975l21.174-6.873a1.012 1.012 0 11.626 1.925l-21.175 6.874c-.103.033-.209.05-.313.05zm-92.385.75a1.01 1.01 0 01-.19-.017l-18.3-3.488a1.012 1.012 0 11.38-1.988l18.299 3.488a1.012 1.012 0 01-.189 2.006zm104.724 1.675a1.013 1.013 0 01-.189-2.006l13.811-2.632a1.012 1.012 0 11.38 1.987l-13.811 2.633a1.037 1.037 0 01-.191.018zM54.11 83.644c-.063 0-.127-.006-.19-.018L39.9 80.954a1.012 1.012 0 11.38-1.988l14.02 2.672a1.012 1.012 0 01-.189 2.006zm71.262 0a1.013 1.013 0 01-.19-2.006l7.088-1.35a1.012 1.012 0 11.38 1.988l-7.088 1.35a1.011 1.011 0 01-.19.018zM14.688 85.717c-.021 0-.043 0-.064-.002L.96 84.856a1.012 1.012 0 01-.947-1.073 1.024 1.024 0 011.075-.947l13.662.86a1.012 1.012 0 01-.063 2.02zm137.264.807a1.012 1.012 0 01-.063-2.02l22.33-1.405a1.02 1.02 0 011.075.946 1.012 1.012 0 01-.947 1.074l-22.33 1.403a.924.924 0 01-.065.002zm-114.46.627l-.064-.003-16.243-1.02a1.012 1.012 0 01-.947-1.074 1.02 1.02 0 011.074-.946l16.244 1.021a1.012 1.012 0 01-.063 2.022zm94.968.598a1.012 1.012 0 01-.063-2.021l14.096-.886a1.012 1.012 0 11.127 2.02l-14.096.886a1.54 1.54 0 01-.064.001zm-7.087.446a1.012 1.012 0 01-.063-2.021l2.74-.173a1.012 1.012 0 11.127 2.02l-2.74.172a1.18 1.18 0 01-.064.002zm-71.262 0c-.022 0-.043 0-.065-.002l-12.367-.777a1.012 1.012 0 11.127-2.02l12.367.778a1.012 1.012 0 01-.062 2.02zm-2.743 4.652a1.012 1.012 0 01-.062-2.021l2.74-.173a1.012 1.012 0 11.127 2.02l-2.74.172a1.165 1.165 0 01-.065.002zm86.374.605c-.022 0-.043 0-.065-.002l-12.367-.777a1.012 1.012 0 01-.947-1.073 1.02 1.02 0 011.075-.947l12.366.778a1.012 1.012 0 01-.062 2.021zm-104.817.554a1.013 1.013 0 01-.062-2.022l14.096-.885a1.019 1.019 0 011.074.946 1.012 1.012 0 01-.947 1.073l-14.096.886a1.155 1.155 0 01-.065.002zm125.31.734l-.064-.001-16.243-1.021a1.013 1.013 0 01-.947-1.074 1.02 1.02 0 011.074-.946l16.243 1.021a1.012 1.012 0 01-.063 2.021zM5.2 95.75a1.012 1.012 0 01-.062-2.022l22.33-1.404a1.012 1.012 0 11.127 2.02l-22.33 1.403a.939.939 0 01-.065.002zm173.26.261c-.022 0-.043 0-.064-.002l-13.662-.858a1.012 1.012 0 11.127-2.02l13.662.86a1.012 1.012 0 01-.063 2.02zM47.022 98.578a1.012 1.012 0 01-.189-2.006l7.087-1.351a1.012 1.012 0 11.38 1.988l-7.088 1.35a1.034 1.034 0 01-.19.019zm92.37 1.32c-.062 0-.126-.006-.19-.018l-14.019-2.672a1.012 1.012 0 11.38-1.987l14.018 2.671a1.012 1.012 0 01-.188 2.006zm-111.434 2.313a1.013 1.013 0 01-.188-2.006l13.81-2.633a1.012 1.012 0 11.38 1.988l-13.81 2.632a1.038 1.038 0 01-.192.019zm98.688.204a.971.971 0 01-.313-.05l-1.272-.412a1.012 1.012 0 11.625-1.925l1.272.413a1.012 1.012 0 01-.312 1.974zm38.151 2.325c-.063 0-.127-.006-.19-.018l-18.3-3.488a1.011 1.011 0 11.38-1.987l18.299 3.488a1.012 1.012 0 01-.189 2.005zm-153.036.558a1.013 1.013 0 01-.19-2.006l10.516-2.004a1.011 1.011 0 11.38 1.987l-10.515 2.005a1.008 1.008 0 01-.191.018zm21.174 3.579a1.013 1.013 0 01-.312-1.975l21.174-6.874a1.012 1.012 0 11.626 1.925l-21.175 6.874a1 1 0 01-.313.05zm122.21 2.79a.998.998 0 01-.313-.049l-23.956-7.777a1.012 1.012 0 11.626-1.925l23.955 7.777a1.012 1.012 0 01-.312 1.974zm-11.302 4.205c-.145 0-.292-.032-.431-.097l-18.47-8.684a1.012 1.012 0 11.862-1.83l18.47 8.683a1.01 1.01 0 01-.431 1.928zm-94.602.244a1.011 1.011 0 01-.543-1.866l5.129-3.252a1.012 1.012 0 111.085 1.708l-5.13 3.252a1.008 1.008 0 01-.54.158zm81.814.516a1.01 1.01 0 01-.542-.158l-5.884-3.732a1.011 1.011 0 111.085-1.708l5.885 3.732a1.011 1.011 0 01-.544 1.866zm-123.2.387a1.012 1.012 0 01-.312-1.975l20.722-6.727a1.012 1.012 0 11.626 1.925L8.168 116.97c-.104.034-.21.05-.313.05zm166.428.862c-.103 0-.209-.016-.313-.05l-15.34-4.98a1.012 1.012 0 11.626-1.925l15.34 4.98a1.012 1.012 0 01-.313 1.975zM24.15 121.274a1.012 1.012 0 01-.431-1.928L53.68 105.26a1.013 1.013 0 01.862 1.83L24.58 121.179c-.14.065-.286.096-.43.096zm117.841 2.292c-.185 0-.373-.052-.542-.159l-7.503-4.757a1.012 1.012 0 111.085-1.709l7.504 4.758a1.011 1.011 0 01-.544 1.867zm-83.496.115a1.011 1.011 0 01-.738-1.704l1.218-1.296a1.013 1.013 0 011.476 1.386l-1.217 1.295c-.2.212-.469.32-.739.32zM34.4 125.527a1.012 1.012 0 01-.544-1.866L45 116.593a1.013 1.013 0 011.086 1.709l-11.145 7.067a1.007 1.007 0 01-.542.158zm132.213 1.05a1.01 1.01 0 01-.43-.096l-18.498-8.697a1.011 1.011 0 11.863-1.831l18.497 8.696a1.011 1.011 0 01-.432 1.928zM9.31 128.251a1.012 1.012 0 01-.431-1.927l10.776-5.068a1.013 1.013 0 01.862 1.832l-10.776 5.067a1.01 1.01 0 01-.43.096zm33.548.937a1.012 1.012 0 01-.646-1.792l13.324-11.013a1.013 1.013 0 011.291 1.56l-13.324 11.013a1.011 1.011 0 01-.645.232zm75.506.607a1.01 1.01 0 01-.82-.417l-3.389-4.66a1.013 1.013 0 011.638-1.19l3.39 4.66a1.011 1.011 0 01-.819 1.607zm36.419 1.882a1.01 1.01 0 01-.542-.158l-8.147-5.166a1.011 1.011 0 111.085-1.708l8.148 5.166a1.011 1.011 0 01-.544 1.866zm-131.557.934a1.012 1.012 0 01-.543-1.866l7.55-4.787a1.012 1.012 0 111.085 1.709l-7.55 4.787a1.01 1.01 0 01-.542.157zm66.515.56a1.012 1.012 0 01-1.012-1.012v-7.114a1.012 1.012 0 012.025 0v7.114c0 .56-.453 1.012-1.013 1.012zm41.433 1.347a1.01 1.01 0 01-.738-.32l-11.403-12.132a1.013 1.013 0 011.477-1.385l11.402 12.132a1.011 1.011 0 01-.738 1.705zm12.634.607c-.227 0-.455-.076-.644-.233l-20.506-16.949a1.011 1.011 0 111.29-1.559l20.506 16.95a1.01 1.01 0 01-.646 1.79zm-42.264 1.238c-.452 0-.863-.304-.98-.76l-2.654-10.327a1.012 1.012 0 111.961-.503l2.654 10.326a1.012 1.012 0 01-.981 1.264zm-5.293 5.578c-.503 0-.94-.374-1.004-.885l-2.009-15.884a1.012 1.012 0 012.01-.254l2.009 15.884a1.012 1.012 0 01-1.006 1.139zm31.1.214a1.01 1.01 0 01-.82-.418l-6.402-8.805a1.01 1.01 0 01.224-1.413 1.014 1.014 0 011.415.224l6.402 8.805a1.01 1.01 0 01-.819 1.607zM25.288 143.71a1.012 1.012 0 01-.647-1.792l12.947-10.7a1.013 1.013 0 011.29 1.559l-12.946 10.7a1.009 1.009 0 01-.644.233zm13.934.476a1.011 1.011 0 01-.738-1.704l15.379-16.363a1.013 1.013 0 011.476 1.385L39.96 143.868a1.01 1.01 0 01-.738.319zm119.011 2.86a1.01 1.01 0 01-.644-.231l-9.547-7.89a1.01 1.01 0 111.291-1.56l9.546 7.89a1.01 1.01 0 01-.646 1.792zm-44.866 3.008c-.403 0-.784-.243-.942-.64l-9.517-24.018a1.012 1.012 0 011.883-.745l9.518 24.017a1.013 1.013 0 01-.942 1.386zm-7.725 2.258c-.451 0-.863-.303-.98-.76l-3.046-11.854a1.012 1.012 0 111.961-.504l3.047 11.854a1.012 1.012 0 01-.982 1.264zm18.288.255c-.357 0-.704-.19-.888-.524l-14.598-26.53a1.011 1.011 0 111.775-.975l14.597 26.53a1.011 1.011 0 01-.886 1.5zm11.887 1.229c-.313 0-.622-.145-.82-.417l-6.012-8.268a1.012 1.012 0 011.638-1.19l6.013 8.268a1.011 1.011 0 01-.819 1.607zm14.776 1.381c-.27 0-.54-.107-.739-.318l-16.124-17.157a1.013 1.013 0 011.477-1.385l16.124 17.156a1.011 1.011 0 01-.738 1.704zm-121.703 0a1.011 1.011 0 01-.738-1.704l6.712-7.14a1.012 1.012 0 011.476 1.385l-6.71 7.14c-.2.212-.47.32-.74.32zm60.851 3.3a1.012 1.012 0 01-1.012-1.013v-20.332a1.012 1.012 0 012.025 0v20.332c0 .56-.453 1.012-1.013 1.012zm18.97 5.78c-.45 0-.862-.304-.98-.76l-1.485-5.78a1.012 1.012 0 111.962-.504l1.485 5.78a1.012 1.012 0 01-.981 1.263zm22.464 1.477c-.358 0-.704-.19-.889-.525l-4.404-8.004a1.011 1.011 0 111.775-.975l4.404 8.005a1.011 1.011 0 01-.886 1.499zm-8.71 7.28c-.403 0-.784-.243-.942-.64l-5.967-15.057a1.013 1.013 0 011.884-.746l5.967 15.058a1.012 1.012 0 01-.942 1.384zm-32.724 1.563a1.012 1.012 0 01-1.012-1.012v-11.594a1.012 1.012 0 012.025 0v11.594c0 .56-.453 1.012-1.013 1.012zm10.905 2.112c-.502 0-.939-.374-1.003-.885l-3.45-27.28a1.012 1.012 0 112.009-.254l3.45 27.28a1.012 1.012 0 01-1.006 1.139zm207.85 36.408c-.082-2.07-.746-3.731-1.996-4.982-1.253-1.25-2.914-1.876-4.988-1.876-1.956 0-3.586.615-4.897 1.846-1.31 1.23-2.14 2.902-2.493 5.012h14.373zm4.543-9.086c2.642 2.932 3.961 7.015 3.961 12.251 0 .938-.021 1.66-.057 2.168h-22.646c.507 1.993 1.485 3.546 2.934 4.66 1.446 1.114 3.185 1.67 5.22 1.67 1.486 0 2.914-.282 4.284-.85a11.323 11.323 0 003.696-2.49l4.752 4.806c-1.607 1.798-3.55 3.176-5.84 4.132-2.288.958-4.839 1.438-7.653 1.438-3.327 0-6.228-.666-8.713-1.994-2.484-1.328-4.398-3.204-5.748-5.628-1.35-2.422-2.026-5.216-2.026-8.38 0-3.205.686-6.028 2.056-8.47 1.368-2.442 3.285-4.337 5.749-5.686 2.463-1.348 5.28-2.022 8.447-2.022 5.084 0 8.945 1.465 11.584 4.395zm-36.223-2.872c1.76-1.015 3.814-1.542 6.16-1.582v8.5c-.312-.04-.783-.06-1.408-.06-2.777 0-4.978.754-6.6 2.257-1.623 1.505-2.433 3.508-2.433 6.008v15.18H263.5V199.91h9.036v5.685c1.093-1.953 2.521-3.437 4.281-4.455zm-22.057-1.23v31.534h-8.975v-5.569c-2.15 3.947-5.67 5.922-10.558 5.922-3.48 0-6.248-1.086-8.301-3.255-2.054-2.168-3.08-5.108-3.08-8.821v-19.81h9.035v17.232c0 1.993.526 3.556 1.582 4.689 1.057 1.134 2.503 1.7 4.342 1.7 2.15-.039 3.852-.8 5.105-2.286 1.25-1.485 1.875-3.4 1.875-5.744V199.91h8.975zm-35.43 29.775a14.748 14.748 0 01-3.902 1.612c-1.428.37-2.865.557-4.311.557-2.933 0-5.32-.84-7.157-2.52-1.84-1.68-2.757-4.083-2.757-7.21V207.53h-4.4v-6.213h4.4v-8.674h8.975v8.674h8.565v6.272h-8.565V220.6c0 2.423.958 3.634 2.874 3.634 1.33 0 2.796-.39 4.4-1.172l1.877 6.623zm-37.603 1.759h9.034v-43.49h-9.034v43.49zm-9.033-31.534v31.534h-8.975v-5.569c-2.152 3.947-5.671 5.922-10.56 5.922-3.48 0-6.247-1.086-8.3-3.255-2.054-2.168-3.08-5.108-3.08-8.821v-19.81h9.034v17.232c0 1.993.528 3.556 1.584 4.689 1.056 1.134 2.502 1.7 4.34 1.7 2.151-.039 3.852-.8 5.105-2.286 1.25-1.485 1.877-3.4 1.877-5.744V199.91h8.975zm-45.727-.615c-1.897-.957-3.804-1.437-5.72-1.437-2.307 0-4.42.568-6.335 1.7a12.239 12.239 0 00-4.517 4.63c-1.095 1.955-1.642 4.124-1.642 6.506 0 2.385.547 4.563 1.642 6.536a12.372 12.372 0 004.517 4.688c1.916 1.155 4.028 1.73 6.336 1.73 1.837 0 3.705-.44 5.602-1.319a17.587 17.587 0 005.074-3.546l5.456 5.92c-2.19 2.267-4.762 4.065-7.714 5.393-2.953 1.328-5.916 1.993-8.888 1.993-4.028 0-7.684-.929-10.97-2.784-3.284-1.856-5.866-4.406-7.743-7.65-1.877-3.243-2.816-6.858-2.816-10.843 0-3.946.958-7.522 2.875-10.726 1.915-3.204 4.546-5.724 7.89-7.56 3.344-1.837 7.048-2.755 11.117-2.755 2.971 0 5.904.615 8.799 1.845 2.894 1.231 5.358 2.902 7.391 5.012l-5.397 6.623c-1.407-1.68-3.06-2.999-4.957-3.956zm176.895-49.502c-1.682-.528-3.188-.791-4.516-.791-1.096 0-1.975.194-2.639.585-.667.391-1 .978-1 1.758 0 .86.45 1.524 1.35 1.994.9.468 2.367.996 4.402 1.582 2.228.665 4.067 1.318 5.513 1.963 1.446.645 2.699 1.603 3.755 2.872 1.054 1.27 1.582 2.941 1.582 5.011 0 3.127-1.201 5.56-3.607 7.298-2.404 1.739-5.483 2.608-9.239 2.608a24.32 24.32 0 01-7.45-1.143c-2.386-.761-4.46-1.846-6.217-3.252l2.932-6.096a18.469 18.469 0 005.367 2.9c1.975.685 3.844 1.026 5.604 1.026 1.21 0 2.18-.204 2.904-.615.722-.41 1.084-1.026 1.084-1.846 0-.899-.459-1.602-1.38-2.11-.917-.507-2.394-1.055-4.429-1.642-2.15-.623-3.94-1.25-5.368-1.875-1.428-.624-2.647-1.572-3.665-2.842-1.017-1.27-1.524-2.921-1.524-4.954 0-3.125 1.171-5.547 3.52-7.267 2.346-1.72 5.316-2.579 8.915-2.579 2.15 0 4.302.303 6.452.909 2.152.605 4.109 1.474 5.869 2.608l-3.11 6.154c-1.72-.977-3.423-1.73-5.105-2.256zm-30.444 0c-1.682-.528-3.188-.791-4.516-.791-1.096 0-1.978.194-2.642.585-.664.391-.996.978-.996 1.758 0 .86.45 1.524 1.35 1.994.899.468 2.363.996 4.398 1.582 2.23.665 4.067 1.318 5.516 1.963 1.446.645 2.696 1.603 3.752 2.872 1.057 1.27 1.585 2.941 1.585 5.011 0 3.127-1.201 5.56-3.607 7.298-2.407 1.739-5.486 2.608-9.242 2.608a24.29 24.29 0 01-7.448-1.143c-2.385-.761-4.459-1.846-6.219-3.252l2.935-6.096a18.43 18.43 0 005.367 2.9c1.972.685 3.84 1.026 5.6 1.026 1.214 0 2.18-.204 2.905-.615.725-.41 1.087-1.026 1.087-1.846 0-.899-.462-1.602-1.38-2.11-.92-.507-2.397-1.055-4.429-1.642-2.152-.623-3.94-1.25-5.368-1.875-1.428-.624-2.65-1.572-3.665-2.842-1.017-1.27-1.527-2.921-1.527-4.954 0-3.125 1.174-5.547 3.52-7.267 2.346-1.72 5.32-2.579 8.918-2.579 2.15 0 4.3.303 6.452.909 2.15.605 4.106 1.474 5.866 2.608l-3.11 6.154c-1.72-.977-3.42-1.73-5.102-2.256zm-35.139 17.144c1.368-.899 2.19-2.032 2.464-3.4v-2.813h-7.098c-1.76 0-3.06.283-3.901.85-.842.566-1.261 1.475-1.261 2.725 0 1.211.44 2.179 1.32 2.9.88.725 2.082 1.086 3.607 1.086 1.877 0 3.499-.45 4.87-1.348zm2.521 7.384v-3.692c-1.053 1.329-2.424 2.345-4.106 3.048-1.681.703-3.616 1.055-5.806 1.055-3.325 0-5.965-.909-7.92-2.726-1.956-1.817-2.933-4.19-2.933-7.121 0-2.97 1.046-5.284 3.139-6.946 2.091-1.66 5.054-2.51 8.886-2.55h8.683v-.585c0-1.68-.559-2.98-1.673-3.898-1.114-.918-2.747-1.377-4.897-1.377-2.933 0-6.063.919-9.386 2.754l-2.816-6.213c2.502-1.25 4.849-2.168 7.04-2.754 2.19-.586 4.595-.88 7.215-.88 4.224 0 7.5.997 9.824 2.99 2.328 1.993 3.512 4.768 3.55 8.322l.061 20.573h-8.86zm-36.547-9.582c1.447-1.621 2.171-3.722 2.171-6.302 0-2.54-.724-4.62-2.17-6.242-1.448-1.62-3.325-2.432-5.632-2.432-2.308 0-4.194.811-5.66 2.432-1.468 1.622-2.201 3.703-2.201 6.242 0 2.62.733 4.729 2.2 6.33 1.467 1.603 3.353 2.404 5.661 2.404 2.307 0 4.184-.81 5.631-2.432zm4.254-20.222c2.248 1.348 3.988 3.253 5.22 5.715 1.232 2.461 1.849 5.295 1.849 8.499 0 3.164-.607 5.949-1.819 8.352-1.213 2.403-2.924 4.27-5.133 5.597-2.21 1.329-4.78 1.993-7.714 1.993-2.19 0-4.136-.419-5.837-1.26-1.701-.84-3.138-2.06-4.312-3.663v15.943h-9.034v-42.904h9.034v4.63c1.134-1.602 2.552-2.823 4.253-3.664 1.702-.84 3.608-1.26 5.72-1.26 2.933 0 5.523.674 7.773 2.022z" fill="#FFFFFE"/><text font-family=".SFNSDisplay, .SF NS Display" font-size="27" fill="#FFF"><tspan x="329" y="220">PRO</tspan></text></g></svg>