<?xml version="1.0" encoding="UTF-8"?>
<svg width="381px" height="233px" viewBox="0 0 381 233" version="1.1" xmlns="http://www.w3.org/2000/svg" xmlns:xlink="http://www.w3.org/1999/xlink">
    <!-- Generator: sketchtool 51.2 (57519) - http://www.bohemiancoding.com/sketch -->
    <title>A4A6A7CC-3D3B-4EA6-A30C-765615B198A5</title>
    <desc>Created with sketchtool.</desc>
    <defs></defs>
    <g id="Portail-pro" stroke="none" stroke-width="1" fill="none" fill-rule="evenodd">
        <g id="Passculture-Pro-A-signup" transform="translate(-231.000000, -200.000000)">
            <g id="logo-group-splash" transform="translate(231.000000, 200.000000)">
                <g id="PASS_CULTURE_LOGOTYPE_BLANC_EXE_RVB">
                    <rect id="Background" x="0" y="0" width="317" height="232.267296"></rect>
                    <path d="M79.8151657,167.009838 C79.8574324,167.009838 79.9003029,167.012553 79.9431733,167.017983 C80.4983762,167.087964 80.8911543,167.594428 80.8211124,168.148551 L79.6180219,177.665176 C79.5476781,178.219902 79.0398743,178.614757 78.486181,178.542362 C77.93128,178.47238 77.5382,177.966218 77.6085438,177.411492 L78.8116343,167.895169 C78.8762419,167.383577 79.3124943,167.009838 79.8151657,167.009838 Z M60.3900095,162.513204 C60.5140924,162.513204 60.6402886,162.535827 60.76256,162.58409 C61.28244,162.790416 61.5372476,163.378324 61.3313486,163.897758 L59.5498086,168.394091 C59.3439095,168.914128 58.7554971,169.169321 58.2353152,168.962693 C57.7154352,168.756669 57.4606276,168.168762 57.6662248,167.649026 L59.4480667,163.152693 C59.6059629,162.755727 59.9869667,162.513204 60.3900095,162.513204 Z M72.7004781,154.771765 C72.7835019,154.771765 72.8683371,154.782021 72.9528705,154.803739 C73.4947895,154.942798 73.8211486,155.494207 73.6819705,156.035359 L70.5373305,168.273734 C70.3984543,168.814887 69.84778,169.142474 69.3046533,169.002209 C68.7627343,168.86315 68.4363752,168.31144 68.5755533,167.770589 L71.7201933,155.532214 C71.8373324,155.075522 72.2491305,154.771765 72.7004781,154.771765 Z M56.9241429,148.126809 C57.0892848,148.126809 57.2562381,148.166928 57.4108133,148.252293 C57.9011067,148.521361 58.0798343,149.136417 57.8105352,149.625989 L47.8174876,167.740123 C47.5484905,168.230297 46.9329067,168.40857 46.4423114,168.139502 C45.95232,167.870434 45.7732905,167.255378 46.0425895,166.765505 L56.0356371,148.651672 C56.220101,148.316242 56.5666876,148.126809 56.9241429,148.126809 Z M45.71774,148.971115 C45.923941,148.971115 46.1325571,149.033858 46.3121905,149.16447 C46.7647457,149.492963 46.8649781,150.125514 46.5365057,150.577681 L42.5746095,156.026008 C42.2461371,156.47727 41.612741,156.578925 41.1598838,156.250131 C40.7073286,155.921337 40.6067943,155.288786 40.9355686,154.83692 L44.8974648,149.388292 C45.0958162,149.115905 45.4046648,148.971115 45.71774,148.971115 Z M76.8332524,138.689517 C76.9162762,138.689517 77.0011114,138.700075 77.0856448,138.721793 C77.6272619,138.860852 77.9539229,139.411959 77.8147448,139.953413 L74.6770486,152.163132 C74.5381724,152.704284 73.9878,153.032173 73.4443714,152.891305 C72.9024524,152.752246 72.5760933,152.201139 72.7152714,151.659685 L75.8529676,139.449966 C75.9701067,138.992973 76.3819048,138.689517 76.8332524,138.689517 Z M57.9337124,132.171855 C58.1402152,132.171855 58.3485295,132.234598 58.5281629,132.365512 C58.9807181,132.693401 59.0812524,133.326254 58.7524781,133.778119 L49.5730638,146.401093 C49.2448933,146.853863 48.6111952,146.954613 48.1589419,146.624914 C47.7060848,146.296422 47.6058524,145.663569 47.9346267,145.211703 L57.114041,132.589032 C57.3120905,132.316344 57.6206371,132.171855 57.9337124,132.171855 Z M75.6467667,124.012637 C75.7708495,124.012637 75.8970457,124.035562 76.0193171,124.083826 C76.5391971,124.28985 76.7940048,124.877757 76.5884076,125.397191 L63.6068048,158.156533 C63.4009057,158.676269 62.8127952,158.931461 62.2923114,158.725135 C61.7721295,158.519413 61.5173219,157.931203 61.723221,157.411769 L74.7048238,124.652428 C74.8624181,124.25516 75.2434219,124.012637 75.6467667,124.012637 Z M85.2512629,124.012335 C85.2938314,124.012335 85.3367019,124.01505 85.3795724,124.02048 C85.9347752,124.090462 86.3275533,124.596925 86.2575114,125.15135 L81.5215314,162.60792 C81.4511876,163.162346 80.9436857,163.556597 80.3899924,163.485107 C79.8347895,163.415125 79.4420114,162.908963 79.5123552,162.354236 L84.2480333,124.897666 C84.312641,124.386376 84.7485914,124.012335 85.2512629,124.012335 Z M70.1662895,124.012335 C70.3314314,124.012335 70.4983848,124.052756 70.65296,124.13782 C71.1432533,124.40719 71.3222829,125.022246 71.0526819,125.511817 L60.7375019,144.306464 C60.4685048,144.796337 59.8520152,144.975515 59.3623257,144.706145 C58.8720324,144.436775 58.6933048,143.821719 58.9626038,143.332148 L69.2780857,124.537199 C69.4622476,124.202071 69.8088343,124.012335 70.1662895,124.012335 Z M80.6046467,124.012335 C80.6879724,124.012335 80.7725057,124.022591 80.857341,124.044612 C81.3989581,124.18367 81.7253171,124.734777 81.586139,125.276232 L79.1887133,134.605534 C79.0498371,135.146988 78.498861,135.475179 77.9560362,135.334009 C77.414419,135.19495 77.0877581,134.643541 77.2269362,134.102389 L79.6246638,124.773086 C79.7418029,124.316093 80.153299,124.012335 80.6046467,124.012335 Z M64.5242933,123.108605 C64.7307962,123.108605 64.9391105,123.171045 65.1187438,123.30196 C65.571299,123.630452 65.6718333,124.263003 65.343059,124.714869 L61.0967686,130.554732 C60.7682962,131.006296 60.1345981,131.107951 59.6820429,130.778855 C59.2294876,130.450061 59.1289533,129.817208 59.4577276,129.365343 L63.7040181,123.525781 C63.9023695,123.253395 64.2112181,123.108605 64.5242933,123.108605 Z M99.680801,11.8362811 C99.6385343,11.8362811 99.5956638,11.8335662 99.5524914,11.8281366 C98.9975905,11.7578531 98.6045105,11.2519931 98.6748543,10.6972664 L99.8782467,1.18064181 C99.9482886,0.626216761 100.456092,0.231664004 101.009786,0.303757359 C101.564687,0.373437548 101.957767,0.879900911 101.887423,1.43432596 L100.684332,10.9509505 C100.619725,11.4625419 100.183472,11.8362811 99.680801,11.8362811 Z M119.105957,16.3329156 C118.981874,16.3329156 118.855678,16.3099905 118.733407,16.2617272 C118.213527,16.0560047 117.958719,15.4677953 118.164316,14.9483612 L119.946158,10.4517267 C120.151755,9.93229252 120.74047,9.67649685 121.260651,9.88372754 C121.780531,10.08945 122.035339,10.6773577 121.829742,11.1967919 L120.0479,15.6931247 C119.890306,16.090694 119.509302,16.3329156 119.105957,16.3329156 Z M72.2557724,22.3926788 C71.8044248,22.3926788 71.3929286,22.0892231 71.2754876,21.6322297 L69.7901162,15.8520921 C69.6509381,15.3106378 69.9772971,14.7595309 70.5192162,14.6204721 C71.0629467,14.4805085 71.6130171,14.8077942 71.7518933,15.3486452 L73.2372648,21.1290844 C73.3764429,21.670237 73.0500838,22.2216456 72.5081648,22.3607044 C72.4239333,22.3824229 72.3390981,22.3926788 72.2557724,22.3926788 Z M67.0228571,32.1527316 C66.6198143,32.1527316 66.2388105,31.9102083 66.0809143,31.5132424 L56.0766962,7.21687668 C55.8707971,6.69714091 56.1256048,6.10923317 56.6454848,5.90320906 C57.1650629,5.69628001 57.754079,5.95177404 57.9599781,6.47181146 L67.9644981,30.7681772 C68.1700952,31.2876113 67.9155895,31.875519 67.3954076,32.0812415 C67.2731362,32.1298065 67.14694,32.1527316 67.0228571,32.1527316 Z M52.7149867,23.1395539 C52.3572295,23.1395539 52.0106429,22.9498187 51.826481,22.6149918 L47.4219924,14.6105178 C47.1526933,14.1209466 47.331421,13.5052875 47.8217143,13.236521 C48.3117057,12.9671513 48.9275914,13.1457256 49.1968905,13.6355985 L53.601379,21.6400724 C53.8706781,22.1296436 53.6916486,22.7450012 53.2016571,23.0140692 C53.0470819,23.0991334 52.8798267,23.1395539 52.7149867,23.1395539 Z M106.79579,24.0743544 C106.712465,24.0743544 106.62763,24.0637968 106.543096,24.0420783 C106.001177,23.9030195 105.674818,23.3519126 105.813996,22.8104583 L108.958636,10.5726866 C109.097512,10.0312324 109.647885,9.70334333 110.191313,9.84421194 C110.733232,9.98327067 111.059591,10.5343776 110.920413,11.0758319 L107.775773,23.3139052 C107.658634,23.7708987 107.246836,24.0743544 106.79579,24.0743544 Z M122.571824,30.7193105 C122.406682,30.7193105 122.239729,30.67889 122.085153,30.5938259 C121.59486,30.3247578 121.41583,29.7094003 121.685431,29.2198291 L131.678479,11.1056948 C131.947476,10.615822 132.56306,10.4375493 133.053655,10.7066174 C133.543647,10.9759871 133.722676,11.591043 133.453377,12.0806142 L123.460028,30.1947484 C123.276168,30.5295753 122.929279,30.7193105 122.571824,30.7193105 Z M89.7414924,25.0743103 C89.1823648,25.0743103 88.7289038,24.6212383 88.7289038,24.0625902 L88.7289038,6.06579617 C88.7289038,5.50714807 89.1823648,5.05407602 89.7414924,5.05407602 C90.3009219,5.05407602 90.754081,5.50714807 90.754081,6.06579617 L90.754081,24.0625902 C90.754081,24.6212383 90.3009219,25.0743103 89.7414924,25.0743103 Z M133.778227,29.8747022 C133.572026,29.8747022 133.36341,29.8122615 133.183776,29.6813472 C132.731221,29.3531565 132.630687,28.7203036 132.959461,28.2684381 L136.921357,22.820111 C137.24983,22.3688488 137.883226,22.2671941 138.335781,22.5959881 C138.788638,22.9247821 138.88887,23.557635 138.560398,24.0095005 L134.598502,29.457526 C134.400452,29.7302138 134.091604,29.8747022 133.778227,29.8747022 Z M82.2853505,31.4604544 C81.782679,31.4604544 81.3464267,31.0867152 81.281819,30.5748222 L77.8464448,3.41342431 C77.776101,2.8593009 78.168879,2.35313919 78.7240819,2.28285571 C79.2774733,2.20895247 79.7852771,2.60501346 79.855621,3.1600418 L83.2912971,30.3217413 C83.361641,30.8755631 82.968561,31.3817248 82.4133581,31.4523099 C82.3704876,31.4574379 82.3276171,31.4604544 82.2853505,31.4604544 Z M143.88147,32.8311331 C143.6327,32.8311331 143.38393,32.7403377 143.188598,32.556937 C142.780725,32.1741484 142.760799,31.5337543 143.143312,31.1265324 L149.854051,23.9865754 C150.237169,23.5787503 150.877509,23.5582383 151.285684,23.9416302 C151.693557,24.3244188 151.713483,24.9648129 151.330668,25.3717331 L144.619929,32.5116901 C144.42037,32.7240488 144.151372,32.8311331 143.88147,32.8311331 Z M49.6796362,35.3402231 C49.366259,35.3402231 49.0574105,35.1957348 48.859059,34.9230469 L42.8478333,26.6561411 C42.519059,26.203974 42.6195933,25.5714227 43.0721486,25.2429303 C43.5250057,24.914438 44.1584019,25.015791 44.4868743,25.4667516 L50.4981,33.7339591 C50.8268743,34.1858245 50.72634,34.8186775 50.2737848,35.1474714 C50.0941514,35.2777825 49.8858371,35.3402231 49.6796362,35.3402231 Z M102.662714,40.1566022 C102.57969,40.1566022 102.494855,40.1463463 102.410322,40.1246278 C101.868403,39.9855691 101.542044,39.4338588 101.681222,38.8930078 L104.818918,26.6829876 C104.957794,26.1415333 105.508469,25.8136443 106.051595,25.9545129 C106.593514,26.0935716 106.919873,26.6446786 106.780695,27.1861328 L103.642999,39.3961531 C103.52586,39.8528449 103.114062,40.1566022 102.662714,40.1566022 Z M76.8860857,40.4111913 C76.4347381,40.4111913 76.0232419,40.107434 75.905801,39.6504405 L72.8595819,27.796664 C72.7204038,27.2552097 73.0467629,26.7041028 73.5886819,26.5650441 C74.1324124,26.4250804 74.6824829,26.7523661 74.821359,27.2932171 L77.8675781,39.1472953 C78.0067562,39.6887495 77.6803971,40.2398565 77.1384781,40.3789152 C77.0539448,40.4009354 76.9691095,40.4111913 76.8860857,40.4111913 Z M30.7951914,41.7121898 C30.5678571,41.7121898 30.3393152,41.6361751 30.1503229,41.4802242 L20.6037924,33.5894707 C20.1726724,33.233227 20.1122914,32.5955477 20.468841,32.165099 C20.8247867,31.7340471 21.4633152,31.673718 21.8947371,32.0302634 L31.4412676,39.9210168 C31.8723876,40.2769589 31.9327686,40.9149399 31.576219,41.3453885 C31.3760562,41.5873085 31.0868314,41.7121898 30.7951914,41.7121898 Z M45.0155095,42.8469815 C44.7456067,42.8469815 44.4766095,42.7398972 44.2770505,42.5275385 L28.152619,25.3717331 C27.7698038,24.9648129 27.7897295,24.3244188 28.1976029,23.9416302 C28.6051743,23.5582383 29.2461181,23.5787503 29.6292352,23.9865754 L45.7536667,41.1426825 C46.13618,41.5496027 46.1162543,42.1899968 45.708381,42.5727854 C45.5130486,42.7561861 45.264279,42.8469815 45.0155095,42.8469815 Z M121.562254,46.6739622 C121.355751,46.6739622 121.147437,46.6115215 120.967804,46.4809089 C120.515249,46.1524166 120.414714,45.5195636 120.743489,45.0676981 L129.922903,32.4450264 C130.251073,31.9925576 130.884771,31.8915063 131.337025,32.2212052 C131.789882,32.5496975 131.890114,33.1822488 131.561038,33.6344159 L122.381926,46.2570877 C122.183876,46.5294739 121.87533,46.6739622 121.562254,46.6739622 Z M89.7414924,47.2787621 C89.1823648,47.2787621 88.7289038,46.8256901 88.7289038,46.267042 L88.7289038,28.8632837 C88.7289038,28.304334 89.1823648,27.8512619 89.7414924,27.8512619 C90.3009219,27.8512619 90.754081,28.304334 90.754081,28.8632837 L90.754081,46.267042 C90.754081,46.8256901 90.3009219,47.2787621 89.7414924,47.2787621 Z M58.5363143,47.5200788 C58.223239,47.5200788 57.9146924,47.3758921 57.716039,47.1029026 L51.3135448,38.2981622 C50.9847705,37.8462968 51.0853048,37.2134438 51.53786,36.8846498 C51.9895095,36.5558559 52.6229057,36.6563039 52.9525857,37.1087727 L59.35508,45.9138147 C59.6838543,46.3656802 59.58332,46.9985331 59.1307648,47.3270255 C58.9511314,47.4576381 58.7428171,47.5200788 58.5363143,47.5200788 Z M141.250671,47.8600337 C140.959031,47.8600337 140.670109,47.7354539 140.469644,47.4932323 C140.113094,47.0630854 140.173173,46.4248028 140.604595,46.0688607 L153.551177,35.3673713 C153.982297,35.0111275 154.620222,35.0711551 154.977073,35.502207 C155.333623,35.9326556 155.273242,36.5706365 154.842122,36.9268802 L141.89554,47.628068 C141.706548,47.7840189 141.478006,47.8600337 141.250671,47.8600337 Z M124.882603,53.0456273 C124.634135,53.0456273 124.385064,52.9548319 124.18943,52.7714312 C123.781556,52.3886426 123.76163,51.7485502 124.144748,51.3410266 L139.523172,34.9785498 C139.90629,34.5707246 140.54663,34.5502127 140.954805,34.9336045 C141.362678,35.3160915 141.382604,35.9564856 140.999789,36.3637075 L125.621062,52.726486 C125.421805,52.938543 125.152506,53.0456273 124.882603,53.0456273 Z M148.709229,53.0456273 C148.373812,53.0456273 148.046246,52.8797221 147.853329,52.5759647 C147.553537,52.103889 147.693319,51.4788788 148.165498,51.1796461 L155.714929,46.3928283 C156.18741,46.0917858 156.813258,46.2326544 157.112748,46.7047301 C157.412539,47.1765042 157.272757,47.801816 156.800578,48.1010487 L149.251148,52.8878665 C149.082685,52.9949508 148.8949,53.0456273 148.709229,53.0456273 Z M32.8454267,54.3595965 C32.6600571,54.3595965 32.4722724,54.3086184 32.3038095,54.2018358 L24.1566076,49.0355475 C23.6844286,48.7360132 23.5446467,48.1107014 23.8444381,47.6389273 C24.1439276,47.1674548 24.7700781,47.0274912 25.2419552,47.3270255 L33.389459,52.4930121 C33.8616381,52.7925464 34.00142,53.4181599 33.7016286,53.8896323 C33.5087114,54.1933897 33.180541,54.3595965 32.8454267,54.3595965 Z M85.2388848,54.8126686 C84.7362133,54.8126686 84.3002629,54.439231 84.2356552,53.9273381 L82.226479,38.0441764 C82.1561352,37.490053 82.5492152,36.9835897 83.1044181,36.9136078 C83.6553943,36.8439276 84.1662171,37.2357656 84.2359571,37.7904923 L86.2451333,53.6739556 C86.3151752,54.228079 85.9223971,54.7342407 85.3671943,54.8048258 C85.3243238,54.8099538 85.2814533,54.8126686 85.2388848,54.8126686 Z M70.1527038,54.8316723 C69.7952486,54.8316723 69.4486619,54.641937 69.2641981,54.3068085 L54.666801,27.7767554 C54.3972,27.2871842 54.5762295,26.6721283 55.066221,26.4027586 C55.5565143,26.1333889 56.1724,26.3122648 56.4413971,26.8021377 L71.0390962,53.3321908 C71.3083952,53.8220637 71.1296676,54.4371195 70.6393743,54.7061876 C70.484799,54.7915534 70.3178457,54.8316723 70.1527038,54.8316723 Z M103.8492,54.8331805 C103.725117,54.8331805 103.598921,54.8105571 103.47665,54.7622937 C102.95677,54.5562696 102.701962,53.9680602 102.907861,53.4486261 L115.889162,20.6892848 C116.095061,20.1698506 116.683171,19.9146583 117.203655,20.120984 C117.723535,20.3270081 117.978645,20.9149159 117.772746,21.43435 L104.791143,54.1936913 C104.633549,54.5912605 104.252243,54.8331805 103.8492,54.8331805 Z M89.7414924,54.8331805 C89.1823648,54.8331805 88.7289038,54.3804101 88.7289038,53.821762 L88.7289038,51.1781379 C88.7289038,50.6194898 89.1823648,50.1664177 89.7414924,50.1664177 C90.3009219,50.1664177 90.754081,50.6194898 90.754081,51.1781379 L90.754081,53.821762 C90.754081,54.3804101 90.3009219,54.8331805 89.7414924,54.8331805 Z M94.2444019,54.8334822 C94.2021352,54.8334822 94.1592648,54.8307673 94.1163943,54.8253377 C93.5611914,54.7553559 93.1684133,54.2494958 93.2384552,53.6947691 L97.9744352,16.2378971 C98.0444771,15.6837737 98.552281,15.2895226 99.1059743,15.3610127 C99.6608752,15.4306929 100.053955,15.9371562 99.9839133,16.4915813 L95.2479333,53.9484533 C95.1833257,54.4594413 94.7470733,54.8334822 94.2444019,54.8334822 Z M109.329677,54.8334822 C109.164535,54.8334822 108.997582,54.7930616 108.842705,54.7079975 C108.352713,54.439231 108.173684,53.8238735 108.443285,53.3343023 L118.758465,34.5393534 C119.027462,34.0497822 119.643951,33.8706046 120.133641,34.140276 C120.623632,34.4090424 120.802662,35.0243999 120.533363,35.5139711 L110.217881,54.30892 C110.033719,54.6437469 109.687132,54.8334822 109.329677,54.8334822 Z M98.89132,54.8334822 C98.8079943,54.8334822 98.723159,54.8235278 98.6389276,54.8015077 C98.0970086,54.662449 97.7706495,54.111342 97.9098276,53.5698877 L100.306951,44.2402836 C100.445828,43.699131 100.997106,43.3709403 101.53993,43.5121105 C102.081548,43.6511693 102.407907,44.2022762 102.26903,44.7437305 L99.8716048,54.0733346 C99.7541638,54.5300264 99.3426676,54.8334822 98.89132,54.8334822 Z M80.5922686,54.8340854 C80.140921,54.8340854 79.7294248,54.5303281 79.6122857,54.0736363 L76.9585429,43.7470927 C76.8193648,43.2056384 77.1457238,42.6545314 77.6876429,42.5154727 C78.2307695,42.375509 78.7814438,42.7027948 78.92032,43.2436458 L81.573761,53.570491 C81.712939,54.1116437 81.38658,54.6627506 80.8449629,54.802111 C80.7601276,54.8238295 80.6755943,54.8340854 80.5922686,54.8340854 Z M75.6343886,54.8340854 C75.2310438,54.8340854 74.85004,54.5915622 74.6924457,54.1942946 L68.2353067,37.1549245 C68.0294076,36.6354904 68.2845171,36.0475826 68.8040952,35.8415585 C69.3242771,35.6349311 69.9123876,35.8904251 70.1188905,36.4101609 L76.5760295,53.4492294 C76.7816267,53.9689652 76.526819,54.5568729 76.006939,54.762897 C75.8846676,54.8111604 75.7584714,54.8340854 75.6343886,54.8340854 Z M64.5101038,55.7354032 C64.1970286,55.7354032 63.88818,55.5912165 63.6901305,55.3185287 L60.3009476,50.6574972 C59.9721733,50.2053301 60.0727076,49.5727787 60.5252629,49.2439848 C60.97812,48.9154925 61.6118181,49.0168455 61.9396867,49.4681076 L65.3288695,54.1291391 C65.6576438,54.5810046 65.5574114,55.2138576 65.1045543,55.5426515 C64.924921,55.6729625 64.7166067,55.7354032 64.5101038,55.7354032 Z M114.971673,55.7375147 C114.76517,55.7375147 114.556856,55.6747724 114.377223,55.5441598 C113.924668,55.2156674 113.824133,54.5831161 114.152908,54.130949 L118.3995,48.2916889 C118.72767,47.840125 119.361369,47.7384704 119.813924,48.067566 C120.266479,48.3960583 120.367013,49.0289113 120.038239,49.4807768 L115.791949,55.3206402 C115.593597,55.5930264 115.284749,55.7375147 114.971673,55.7375147 Z M159.397865,57.6858452 C159.017767,57.6858452 158.653368,57.4710734 158.48098,57.1045737 C158.242475,56.5990152 158.460149,55.9963269 158.966141,55.7586299 L169.74233,50.6918848 C170.247416,50.4535846 170.85183,50.6707696 171.08973,51.1766297 C171.327933,51.6821881 171.110562,52.2848765 170.60457,52.5225734 L159.828079,57.5893185 C159.688901,57.6547757 159.542477,57.6858452 159.397865,57.6858452 Z M119.770751,58.4843017 C119.522284,58.4843017 119.273514,58.3935063 119.07788,58.2101057 C118.670007,57.8273171 118.650081,57.186923 119.032896,56.7797011 L120.25078,55.4841322 C120.633595,55.0766087 121.273935,55.0567001 121.68211,55.439187 C122.089984,55.8219756 122.10991,56.4623697 121.727396,56.8692899 L120.509512,58.1648588 C120.309953,58.3772175 120.040956,58.4843017 119.770751,58.4843017 Z M59.7128371,58.4843017 C59.4426324,58.4843017 59.1733333,58.3772175 58.9740762,58.1648588 L47.5711333,46.0326632 C47.1883181,45.6257429 47.2082438,44.9853488 47.6161171,44.6025603 C48.0236886,44.2197717 48.6646324,44.2393787 49.0477495,44.6478071 L60.4506924,56.7797011 C60.8335076,57.186923 60.8135819,57.8273171 60.4057086,58.2101057 C60.2100743,58.3935063 59.960701,58.4843017 59.7128371,58.4843017 Z M44.9946781,62.063028 C44.8093086,62.063028 44.6212219,62.0120498 44.453061,61.9052672 L36.94952,57.1471057 C36.477341,56.8478731 36.337559,56.2225612 36.6373505,55.7507872 C36.9374438,55.2793147 37.5632924,55.1396527 38.0351695,55.4388854 L45.5384086,60.1970468 C46.0105876,60.4962795 46.1506714,61.1215913 45.85088,61.5933654 C45.657661,61.8968211 45.3300943,62.063028 44.9946781,62.063028 Z M133.94035,62.4102223 C133.604933,62.4102223 133.277367,62.2443171 133.08445,61.9408614 C132.784658,61.468484 132.92444,60.8434738 133.396619,60.5442412 L144.542037,53.4772825 C145.014518,53.1762399 145.639763,53.3174102 145.939554,53.7888826 C146.239648,54.26126 146.099866,54.8862702 145.627687,55.1855029 L134.482269,62.2524616 C134.313806,62.3592442 134.126021,62.4102223 133.94035,62.4102223 Z M56.1796457,62.6943727 C55.9523114,62.6943727 55.7237695,62.6180563 55.5347771,62.4621054 L35.0288019,45.5129274 C34.5979838,45.156382 34.5376029,44.5187027 34.8941524,44.0879525 C35.2500981,43.6569006 35.8886267,43.596873 36.3200486,43.9534184 L56.8257219,60.9025964 C57.2568419,61.2588402 57.3172229,61.8968211 56.9606733,62.3272697 C56.7605105,62.5694913 56.4712857,62.6943727 56.1796457,62.6943727 Z M123.302433,62.6955793 C123.011095,62.6955793 122.722172,62.5706979 122.521708,62.328778 C122.164856,61.8983293 122.225237,61.2603484 122.656357,60.9041047 L135.980622,49.8904118 C136.411742,49.5338664 137.049667,49.5935923 137.406518,50.0252475 C137.763068,50.4556961 137.702687,51.0933754 137.271567,51.4496191 L123.947302,62.463312 C123.758611,62.6195645 123.529768,62.6955793 123.302433,62.6955793 Z M31.3660933,62.9893823 C31.2217829,62.9893823 31.0747552,62.9583128 30.9355771,62.8928557 L12.4387781,54.1964061 C11.9324838,53.9587092 11.7154143,53.3557192 11.9536171,52.8501608 C12.1912162,52.3443007 12.7953276,52.1265124 13.3010181,52.3657176 L31.7978171,61.0621671 C32.3038095,61.299864 32.521181,61.9025524 32.2829781,62.4084125 C32.1105905,62.7746105 31.7461914,62.9893823 31.3660933,62.9893823 Z M20.5400905,67.9692535 C20.4362352,67.9692535 20.3305686,67.9532663 20.2270152,67.9194819 L4.88723429,62.9399124 C4.3552781,62.7670694 4.0642419,62.1960538 4.23693143,61.6648555 C4.40992286,61.1330538 4.98233429,60.8419656 5.51308286,61.0148087 L20.8525619,65.9946798 C21.38482,66.1675229 21.6755543,66.7382368 21.5031667,67.2697368 C21.3639886,67.6974706 20.9669838,67.9692535 20.5400905,67.9692535 Z M54.3108552,67.9698568 C54.1251838,67.9698568 53.937399,67.9188786 53.7689362,67.812096 L47.8842086,64.0810386 C47.4120295,63.7815043 47.2722476,63.1564941 47.572039,62.6844184 C47.8715286,62.2123427 48.497679,62.0720773 48.9698581,62.372215 L54.8545857,66.1038756 C55.3267648,66.4031083 55.4665467,67.0281185 55.1667552,67.4998926 C54.9738381,67.8036499 54.6459695,67.9698568 54.3108552,67.9698568 Z M125.114768,68.0063559 C124.779653,68.0063559 124.451785,67.8401491 124.258868,67.5366934 C123.959076,67.064316 124.098858,66.4393058 124.571037,66.1400731 L129.700097,62.8877277 C130.172276,62.5872884 130.798125,62.7278554 131.097916,63.1999311 C131.397708,63.6720069 131.257926,64.297017 130.785747,64.5962497 L125.656687,67.8485951 C125.488224,67.9553778 125.300439,68.0063559 125.114768,68.0063559 Z M150.905586,70.5787916 C150.478692,70.5787916 150.08199,70.3070087 149.94251,69.8792749 C149.76982,69.347775 150.060856,68.777061 150.593114,68.6045196 L171.314348,61.8772141 C171.844794,61.7046727 172.417508,61.9951577 172.590499,62.5269593 C172.763189,63.0584592 172.472152,63.6291732 171.939894,63.8020162 L151.218661,70.5290201 C151.115108,70.563106 151.009139,70.5787916 150.905586,70.5787916 Z M125.374104,73.6824257 C124.994006,73.6824257 124.629607,73.4676538 124.457521,73.1011541 C124.219016,72.5955957 124.436086,71.9926057 124.942682,71.7549088 L154.903409,57.6683497 C155.408797,57.4303512 156.012909,57.6475362 156.25081,58.1530946 C156.489012,58.658653 156.271641,59.2616431 155.765649,59.49934 L125.80462,73.5855973 C125.665442,73.6513561 125.518716,73.6824257 125.374104,73.6824257 Z M54.1094848,73.6824257 C53.9648724,73.6824257 53.8181467,73.6513561 53.6789686,73.5855973 L35.209039,64.9021186 C34.7030467,64.6644217 34.4856752,64.0614316 34.7238781,63.5558732 C34.961779,63.0503148 35.5658905,62.8331298 36.071279,63.07143 L54.5412086,71.7549088 C55.047201,71.9926057 55.2645724,72.5955957 55.0260676,73.1011541 C54.8539819,73.4676538 54.489281,73.6824257 54.1094848,73.6824257 Z M48.2944971,76.9797163 C48.1909438,76.9797163 48.0849752,76.9637291 47.9814219,76.9299448 L24.0261848,69.1529118 C23.4939267,68.9800687 23.2028905,68.4093548 23.37558,67.8778548 C23.5485714,67.3463548 24.1209829,67.0555682 24.6517314,67.2281097 L48.6069686,75.0051427 C49.1392267,75.1779857 49.4302629,75.7486997 49.2575733,76.2801996 C49.1183952,76.7079334 48.7213905,76.9797163 48.2944971,76.9797163 Z M157.205432,77.5766734 C156.729027,77.5766734 156.304247,77.2391317 156.211562,76.7540852 C156.107103,76.2053915 156.467275,75.6750981 157.01644,75.570427 L167.531783,73.5665937 C168.086382,73.4610176 168.611696,73.8223893 168.716457,74.3707815 C168.821218,74.9197769 168.461046,75.4497686 167.911579,75.5544397 L157.396236,77.558273 C157.33193,77.5706405 157.26853,77.5766734 157.205432,77.5766734 Z M54.1100886,78.867416 C54.0062333,78.867416 53.9005667,78.8514288 53.7967114,78.8179461 L52.5250886,78.4049929 C51.9928305,78.2321498 51.7017943,77.6614359 51.8744838,77.129936 C52.0474752,76.598436 52.6201886,76.3070461 53.1506352,76.4801908 L54.42256,76.8928423 C54.9545162,77.0656854 55.2455524,77.6363993 55.0728629,78.1678993 C54.9336848,78.5956331 54.53668,78.867416 54.1100886,78.867416 Z M125.373198,78.867416 C124.946305,78.867416 124.549602,78.5956331 124.410122,78.1678993 C124.237734,77.6363993 124.52877,77.0656854 125.060727,76.8928423 L146.234817,70.018937 C146.765868,69.8469988 147.337977,70.1374838 147.51127,70.6689837 C147.683658,71.2001821 147.392622,71.7711976 146.860666,71.9440407 L125.686273,78.8179461 C125.58272,78.8514288 125.477053,78.867416 125.373198,78.867416 Z M32.9882276,79.6179108 C32.9251295,79.6179108 32.8614276,79.6121796 32.7971219,79.5998121 L14.4977686,76.1118812 C13.9483019,76.0075118 13.5881295,75.4772184 13.6925886,74.928223 C13.7973495,74.3795292 14.3259848,74.0205706 14.8772629,74.1240352 L33.1769181,77.611966 C33.7263848,77.7166371 34.0865571,78.2466288 33.9817962,78.7956243 C33.8894133,79.2803691 33.4646333,79.6179108 32.9882276,79.6179108 Z M137.711744,81.2920452 C137.235338,81.2920452 136.810558,80.9542019 136.718175,80.4697587 C136.613414,79.9204616 136.973587,79.3904699 137.523053,79.2861004 L151.333989,76.6536372 C151.887078,76.5504743 152.414204,76.9094328 152.518663,77.457825 C152.623424,78.0068204 152.263251,78.5365105 151.713785,78.6414832 L137.90285,81.2739465 C137.838544,81.2860123 137.77454,81.2920452 137.711744,81.2920452 Z M54.1109943,83.6439778 C54.0478962,83.6439778 53.9844962,83.6379449 53.9201905,83.6255774 L39.9018467,80.9539002 C39.3526819,80.8492291 38.9925095,80.319539 39.0969686,79.770242 C39.2020314,79.2215482 39.7303648,78.8601765 40.2816429,78.9660542 L54.2996848,81.638033 C54.8491514,81.7424025 55.2093238,82.2726959 55.1045629,82.8213896 C55.01218,83.3064361 54.5874,83.6439778 54.1109943,83.6439778 Z M125.372594,83.6439778 C124.896189,83.6439778 124.471409,83.3064361 124.378724,82.8213896 C124.274265,82.2726959 124.634437,81.7424025 125.183602,81.638033 L132.271118,80.2872629 C132.826321,80.1813853 133.351031,80.5430586 133.45549,81.0914507 C133.560251,81.6401445 133.200079,82.1701363 132.650612,82.275109 L125.563398,83.6255774 C125.499092,83.6379449 125.435089,83.6439778 125.372594,83.6439778 Z M14.6879686,85.716888 C14.6665333,85.716888 14.6450981,85.7162847 14.6236629,85.7147765 L0.961264762,84.8562925 C0.403344762,84.8209999 -0.0208314286,84.3407797 0.0141895238,83.7827349 C0.049512381,83.2246901 0.540107619,82.8090222 1.08866857,82.8364719 L14.7507648,83.6952576 C15.3089867,83.7302485 15.732861,84.2107704 15.69784,84.7688152 C15.6640267,85.3048398 15.2184152,85.716888 14.6879686,85.716888 Z M151.951686,86.5243939 C151.421541,86.5243939 150.97593,86.1123457 150.942116,85.5760194 C150.907095,85.0182763 151.33097,84.5380561 151.88889,84.5030652 L174.219275,83.0989038 C174.76693,83.0657228 175.258733,83.487122 175.293754,84.0451668 C175.328775,84.6032116 174.904599,85.0834318 174.346679,85.1187243 L152.016293,86.5222824 C151.994858,86.5237907 151.973121,86.5243939 151.951686,86.5243939 Z M37.4929486,87.1506107 C37.4715133,87.1506107 37.4497762,87.1497058 37.428341,87.1484992 L21.185261,86.127428 C20.627341,86.0921355 20.2028629,85.6119153 20.2381857,85.0541721 C20.2732067,84.4961273 20.7586695,84.0810627 21.3123629,84.1079091 L37.5557448,85.1289803 C38.1136648,85.1639712 38.537841,85.644493 38.50282,86.2022362 C38.4687048,86.7382608 38.0230933,87.1506107 37.4929486,87.1506107 Z M132.459809,87.7493777 C131.929664,87.7493777 131.484052,87.3370278 131.450239,86.8013048 C131.415218,86.24326 131.839092,85.7627382 132.397012,85.7277473 L146.492946,84.8418135 C147.044828,84.8041077 147.5318,85.2303333 147.567425,85.7880765 C147.602446,86.3458196 147.17827,86.8263414 146.62035,86.8613323 L132.524416,87.7475678 C132.502981,87.7484728 132.481244,87.7493777 132.459809,87.7493777 Z M125.372896,88.1949086 C124.842751,88.1949086 124.39714,87.7828604 124.363327,87.2468357 C124.328004,86.6890926 124.75218,86.2085708 125.310402,86.1735798 L128.05049,86.0010384 C128.600258,85.9657459 129.089042,86.3898599 129.124667,86.9476031 C129.159688,87.5053462 128.735813,87.985868 128.177591,88.0208589 L125.437504,88.1930987 C125.415465,88.1943053 125.39403,88.1949086 125.372896,88.1949086 Z M54.1106924,88.1949086 C54.0892571,88.1949086 54.06752,88.1943053 54.0460848,88.1930987 L41.6788581,87.4157574 C41.1209381,87.3807665 40.6967619,86.9002447 40.7317829,86.3421999 C40.7668038,85.7844567 41.2486438,85.3615492 41.80596,85.3962385 L54.1731867,86.1735798 C54.7314086,86.2085708 55.1552829,86.6890926 55.1202619,87.2468357 C55.0864486,87.7828604 54.6408371,88.1949086 54.1106924,88.1949086 Z M51.3681895,92.8471924 C50.8380448,92.8471924 50.3924333,92.4348425 50.35862,91.8988178 C50.323599,91.3410747 50.7474733,90.8605529 51.3056952,90.825562 L54.0460848,90.6533222 C54.6055143,90.6180296 55.085241,91.0421437 55.1202619,91.5995852 C55.1552829,92.15763 54.7314086,92.6375485 54.1731867,92.6731427 L51.4327971,92.8450808 C51.4113619,92.8462874 51.3893229,92.8471924 51.3681895,92.8471924 Z M137.741934,93.4522939 C137.720197,93.4522939 137.699064,93.4516906 137.677025,93.450484 L125.310402,92.6731427 C124.75218,92.6375485 124.328004,92.15763 124.363327,91.5995852 C124.398348,91.041842 124.889849,90.6198395 125.437504,90.6533222 L137.804429,91.4306635 C138.362349,91.4659561 138.786525,91.9461762 138.751504,92.5039194 C138.71769,93.0399441 138.271777,93.4522939 137.741934,93.4522939 Z M32.9254314,94.0064173 C32.3952867,94.0064173 31.9496752,93.5937658 31.9158619,93.0580428 C31.880841,92.499998 32.3047152,92.0197778 32.8629371,91.9844853 L46.9591724,91.0985514 C47.50562,91.0629572 47.9983286,91.4870713 48.0333495,92.0448144 C48.0683705,92.6025576 47.6444962,93.0830794 47.0862743,93.1180703 L32.990039,94.0043058 C32.9686038,94.0055124 32.9468667,94.0064173 32.9254314,94.0064173 Z M158.23523,94.7403216 C158.213794,94.7403216 158.192359,94.7397184 158.170924,94.7385118 L141.927844,93.7177423 C141.369924,93.682148 140.945748,93.2022295 140.980769,92.6441847 C141.016091,92.0861399 141.509404,91.6626292 142.055248,91.6979217 L158.298026,92.7189929 C158.855946,92.7539838 159.280122,93.2345056 159.245101,93.7925504 C159.211288,94.3282734 158.765676,94.7403216 158.23523,94.7403216 Z M5.1991019,95.749327 C4.66895714,95.749327 4.22334571,95.3372788 4.18953238,94.8009525 C4.15451143,94.2432093 4.57868762,93.7629891 5.13660762,93.7276966 L27.4669933,92.3238368 C28.0170638,92.2843212 28.5055457,92.712055 28.5411705,93.2700998 C28.5761914,93.8281446 28.1523171,94.3083648 27.5940952,94.3436574 L5.26401143,95.7472155 C5.24227429,95.7487237 5.22053714,95.749327 5.1991019,95.749327 Z M178.459226,96.0114572 C178.437489,96.0114572 178.416053,96.0108539 178.394618,96.0093457 L164.732522,95.15056 C164.1743,95.1155691 163.750426,94.6350472 163.785447,94.0773041 C163.82077,93.5192593 164.308346,93.0960502 164.859624,93.1310411 L178.52172,93.9901284 C179.079942,94.0251194 179.504118,94.5053395 179.469097,95.0630827 C179.434982,95.599409 178.98937,96.0114572 178.459226,96.0114572 Z M47.0216667,98.5775584 C46.545261,98.5775584 46.120481,98.239715 46.0277962,97.7549702 C45.9233371,97.2059747 46.2835095,96.675983 46.8329762,96.5713119 L53.9198886,95.2205418 C54.4741857,95.1158707 55.0001038,95.4766391 55.104261,96.0247296 C55.2090219,96.5737251 54.8488495,97.1037168 54.2993829,97.2083879 L47.2124705,98.559158 C47.1481648,98.5712238 47.0844629,98.5775584 47.0216667,98.5775584 Z M139.39275,99.8984655 C139.329651,99.8984655 139.26595,99.8924326 139.201946,99.8800651 L125.1833,97.2083879 C124.634135,97.1037168 124.273661,96.5737251 124.378422,96.0247296 C124.483183,95.4760358 125.01363,95.1152674 125.563096,95.2205418 L139.58144,97.892219 C140.130907,97.9968901 140.491079,98.5271835 140.386318,99.0758773 C140.293935,99.5609238 139.869155,99.8984655 139.39275,99.8984655 Z M27.9581924,102.210882 C27.4817867,102.210882 27.0570067,101.873039 26.9646238,101.388294 C26.8598629,100.839299 27.2200352,100.309307 27.7695019,100.204636 L41.580739,97.5721728 C42.1314133,97.4672 42.6606524,97.8276668 42.7654133,98.3763606 C42.8701743,98.925356 42.5100019,99.4553477 41.9605352,99.5600189 L28.1492981,102.192482 C28.0849924,102.204548 28.0209886,102.210882 27.9581924,102.210882 Z M126.645727,102.415398 C126.541871,102.415398 126.436205,102.399713 126.332651,102.365928 L125.060727,101.952975 C124.52877,101.780132 124.237734,101.209418 124.410122,100.67822 C124.583415,100.146418 125.155827,99.8547268 125.686273,100.028173 L126.958198,100.441126 C127.490456,100.613969 127.78119,101.184382 127.608803,101.715882 C127.469625,102.143615 127.07262,102.415398 126.645727,102.415398 Z M164.79713,104.740183 C164.734031,104.740183 164.67033,104.734452 164.606326,104.722386 L146.306369,101.234153 C145.756902,101.129784 145.39673,100.599792 145.50149,100.050797 C145.60595,99.5018012 146.134887,99.1410328 146.686165,99.2466088 L164.98582,102.73454 C165.535287,102.839211 165.895459,103.369202 165.790698,103.918198 C165.698315,104.402641 165.273535,104.740183 164.79713,104.740183 Z M11.7607,105.297926 C11.2839924,105.297926 10.8592124,104.960384 10.7668295,104.475639 C10.6620686,103.926644 11.022241,103.396351 11.5717076,103.291981 L22.0873524,101.287545 C22.6413476,101.183778 23.1675676,101.543642 23.2717248,102.091732 C23.3764857,102.640728 23.0163133,103.17072 22.4668467,103.275391 L11.9515038,105.279827 C11.8871981,105.292195 11.8234962,105.297926 11.7607,105.297926 Z M32.9353943,108.876652 C32.508501,108.876652 32.1114962,108.604869 31.9723181,108.177136 C31.7999305,107.645636 32.0906648,107.074922 32.6229229,106.902079 L53.7967114,100.028173 C54.32746,99.8553301 54.8998714,100.146418 55.0728629,100.67822 C55.2455524,101.209418 54.9545162,101.780132 54.42256,101.952975 L33.2484695,108.826881 C33.1449162,108.860967 33.0392495,108.876652 32.9353943,108.876652 Z M155.145234,111.66748 C155.041379,111.66748 154.935712,111.651794 154.831857,111.61801 L130.876318,103.840977 C130.34406,103.668134 130.053024,103.097118 130.225713,102.56592 C130.398705,102.034118 130.971418,101.743331 131.501865,101.915873 L155.457404,109.692906 C155.989662,109.866051 156.280698,110.436463 156.108009,110.967963 C155.96883,111.395697 155.571826,111.66748 155.145234,111.66748 Z M143.842524,115.871819 C143.698213,115.871819 143.551186,115.840448 143.412008,115.775293 L124.942682,107.090909 C124.436086,106.853212 124.219016,106.250524 124.457521,105.744965 C124.694818,105.238803 125.299231,105.02192 125.80462,105.26022 L144.274248,113.944001 C144.780844,114.181698 144.997611,114.784688 144.759409,115.290246 C144.587021,115.656746 144.222622,115.871819 143.842524,115.871819 Z M49.2412705,116.115851 C48.9058543,116.115851 48.5782876,115.949945 48.3853705,115.646188 C48.0852771,115.174112 48.225361,114.549102 48.69754,114.24987 L53.8266,110.997524 C54.298779,110.697386 54.9243257,110.837049 55.224419,111.309426 C55.5242105,111.781502 55.3844286,112.406813 54.9122495,112.706046 L49.7828876,115.95809 C49.6147267,116.064873 49.42664,116.115851 49.2412705,116.115851 Z M131.055348,116.631665 C130.869676,116.631665 130.68159,116.580687 130.513429,116.473904 L124.628701,112.742244 C124.156522,112.443011 124.01674,111.817397 124.316531,111.345925 C124.616625,110.874151 125.242473,110.734791 125.71435,111.034023 L131.598776,114.765684 C132.070955,115.064917 132.211039,115.690228 131.911248,116.162003 C131.718029,116.46576 131.39016,116.631665 131.055348,116.631665 Z M7.8555619,117.018677 C7.42897048,117.018677 7.03196571,116.746592 6.89278762,116.318858 C6.7200981,115.78766 7.01113429,115.216946 7.54309048,115.044103 L28.2646257,108.317099 C28.7956762,108.145161 29.3674838,108.435646 29.5404752,108.966844 C29.7131648,109.498344 29.4224305,110.06936 28.8901724,110.242203 L8.16893905,116.968905 C8.06508381,117.002689 7.95941714,117.018677 7.8555619,117.018677 Z M174.283279,117.88078 C174.179726,117.88078 174.074059,117.864793 173.970204,117.831009 L158.630725,112.851138 C158.098467,112.678596 157.80743,112.107581 157.98012,111.576382 C158.153413,111.044883 158.725825,110.754096 159.256271,110.926336 L174.59575,115.906207 C175.128009,116.078748 175.419045,116.649764 175.246355,117.181264 C175.107177,117.608998 174.710172,117.88078 174.283279,117.88078 Z M24.1493619,121.274296 C23.7692638,121.274296 23.4045629,121.059524 23.2324771,120.692723 C22.9942743,120.187165 23.2116457,119.584175 23.7176381,119.346478 L53.6789686,105.26022 C54.1837533,105.022523 54.7881667,105.239105 55.0260676,105.744965 C55.2645724,106.250524 55.047201,106.853212 54.5412086,107.090909 L24.5798781,121.17777 C24.4407,121.242925 24.2936724,121.274296 24.1493619,121.274296 Z M141.990036,123.565598 C141.804667,123.565598 141.616882,123.514318 141.448419,123.407234 L133.944576,118.649676 C133.472699,118.350141 133.332615,117.725131 133.632407,117.253056 C133.931896,116.781281 134.557745,116.641318 135.030226,116.941154 L142.534069,121.699014 C143.006248,121.998246 143.14603,122.623558 142.846238,123.095634 C142.653321,123.399089 142.325452,123.565598 141.990036,123.565598 Z M58.4940476,123.681128 C58.24558,123.681128 57.9968105,123.590635 57.8014781,123.406932 C57.3936048,123.024747 57.373679,122.384353 57.7561924,121.976829 L58.9737743,120.68126 C59.3559857,120.273435 59.9969295,120.253225 60.4054067,120.636315 C60.8129781,121.018501 60.8332057,121.658895 60.4500886,122.06672 L59.2328086,123.361987 C59.0338533,123.574346 58.7642524,123.681128 58.4940476,123.681128 Z M34.3996324,125.527201 C34.0645181,125.527201 33.7366495,125.360994 33.5437324,125.057237 C33.243941,124.585463 33.3837229,123.959849 33.8559019,123.660616 L45.00132,116.593356 C45.473801,116.293218 46.0990457,116.433785 46.399139,116.905559 C46.6989305,117.377032 46.5591486,118.002344 46.0869695,118.301878 L34.9415514,125.369138 C34.7730886,125.476223 34.5853038,125.527201 34.3996324,125.527201 Z M166.612785,126.57723 C166.468172,126.57723 166.321447,126.54616 166.182269,126.480703 L147.68547,117.784254 C147.179477,117.546557 146.962106,116.943567 147.200309,116.438008 C147.43821,115.931545 148.042019,115.71436 148.54771,115.952962 L167.044509,124.649411 C167.550501,124.88741 167.767872,125.4904 167.52967,125.995657 C167.357282,126.362157 166.992581,126.57723 166.612785,126.57723 Z M9.31044095,128.251063 C8.93034286,128.251063 8.56594381,128.036291 8.39355619,127.669791 C8.15535333,127.164233 8.37242286,126.561243 8.87871714,126.323546 L19.6552076,121.256499 C20.1602943,121.018199 20.7647076,121.235987 21.0026086,121.741546 C21.2408114,122.247104 21.02344,122.850094 20.5174476,123.087791 L9.74095714,128.154536 C9.60177905,128.219993 9.45475143,128.251063 9.31044095,128.251063 Z M42.8577962,129.187673 C42.5661562,129.187673 42.2772333,129.062792 42.0767686,128.821173 C41.720219,128.390725 41.7806,127.752744 42.21172,127.396198 L55.5362867,116.382807 C55.9668029,116.026865 56.6050295,116.086591 56.961881,116.517643 C57.3184305,116.948092 57.2583514,117.585771 56.8272314,117.942316 L43.5026648,128.955707 C43.3136724,129.111357 43.0851305,129.187673 42.8577962,129.187673 Z M118.364177,129.794886 C118.0508,129.794886 117.742253,129.650699 117.544204,129.37771 L114.155021,124.717282 C113.825945,124.265115 113.926177,123.632563 114.378732,123.304071 C114.830986,122.975277 115.463778,123.075423 115.793458,123.528194 L119.182641,128.188622 C119.511415,128.640488 119.410881,129.273341 118.958326,129.601833 C118.778692,129.732445 118.570378,129.794886 118.364177,129.794886 Z M154.782949,131.676855 C154.597277,131.676855 154.409492,131.625876 154.24103,131.519094 L146.093828,126.353107 C145.621649,126.053874 145.481867,125.428563 145.781658,124.956487 C146.081148,124.485316 146.706694,124.344146 147.179477,124.644887 L155.326679,129.810572 C155.798858,130.109804 155.93864,130.734815 155.638849,131.207192 C155.445931,131.510648 155.118365,131.676855 154.782949,131.676855 Z M23.226439,132.611353 C22.8910229,132.611353 22.5634562,132.445147 22.370539,132.141691 C22.0704457,131.669615 22.2105295,131.044605 22.6827086,130.745071 L30.232139,125.958253 C30.70462,125.657814 31.3298648,125.79838 31.6299581,126.270155 C31.9297495,126.742532 31.7899676,127.367542 31.3177886,127.666775 L23.7683581,132.453593 C23.5998952,132.560375 23.4118086,132.611353 23.226439,132.611353 Z M89.7414924,133.171208 C89.1823648,133.171208 88.7289038,132.718136 88.7289038,132.159488 L88.7289038,125.045171 C88.7289038,124.486221 89.1823648,124.033451 89.7414924,124.033451 C90.3009219,124.033451 90.754081,124.486221 90.754081,125.045171 L90.754081,132.159488 C90.754081,132.718136 90.3009219,133.171208 89.7414924,133.171208 Z M131.173996,134.517755 C130.904093,134.517755 130.635096,134.410972 130.435537,134.198915 L119.032594,122.066117 C118.649779,121.658895 118.669705,121.018501 119.077578,120.636014 C119.48515,120.253225 120.126093,120.273435 120.50921,120.680959 L131.912153,132.813456 C132.294969,133.220678 132.275043,133.861072 131.86717,134.243559 C131.671535,134.427261 131.422464,134.517755 131.173996,134.517755 Z M143.808409,135.124666 C143.581074,135.124666 143.352532,135.048652 143.16354,134.892399 L122.657867,117.943221 C122.226747,117.586977 122.166366,116.948997 122.522915,116.518548 C122.878861,116.087798 123.51739,116.027167 123.948811,116.384014 L144.454485,133.333494 C144.885605,133.689436 144.945986,134.327417 144.589436,134.757865 C144.389273,134.999785 144.100049,135.124666 143.808409,135.124666 Z M101.543553,136.362923 C101.092206,136.362923 100.68071,136.059467 100.563269,135.602474 L97.9095257,125.276232 C97.7703476,124.734777 98.0967067,124.18367 98.6383238,124.044612 C99.1820543,123.904045 99.7321248,124.231934 99.871001,124.772785 L102.525046,135.099328 C102.664224,135.640481 102.337865,136.191889 101.795946,136.330948 C101.711412,136.352667 101.626577,136.362923 101.543553,136.362923 Z M96.250559,141.940656 C95.7478876,141.940656 95.3119371,141.567218 95.2473295,141.055929 L93.2381533,125.172164 C93.1681114,124.617739 93.5608895,124.111577 94.1160924,124.041595 C94.6679743,123.971613 95.1775895,124.363753 95.2476314,124.91848 L97.2565057,140.801641 C97.3268495,141.35667 96.9337695,141.86253 96.3788686,141.932511 C96.3356962,141.937941 96.2931276,141.940656 96.250559,141.940656 Z M127.351278,142.154523 C127.037901,142.154523 126.729052,142.010034 126.530701,141.737347 L120.128509,132.932305 C119.799734,132.480137 119.899967,131.847284 120.352824,131.519094 C120.805681,131.190903 121.439077,131.291351 121.76755,131.742915 L128.169742,140.548259 C128.498214,141.000426 128.397982,141.632675 127.945125,141.961168 C127.765793,142.09178 127.557177,142.154523 127.351278,142.154523 Z M25.2875429,143.710714 C24.9959029,143.710714 24.70698,143.585531 24.5065152,143.343912 C24.1499657,142.913162 24.2103467,142.275784 24.6414667,141.919239 L37.5877467,131.218353 C38.0185648,130.862109 38.6567914,130.921835 39.0136429,131.352887 C39.3701924,131.783637 39.3098114,132.421316 38.8786914,132.777862 L25.9324114,143.478145 C25.743419,143.634397 25.5148771,143.710714 25.2875429,143.710714 Z M39.2216552,144.186711 C38.9731876,144.186711 38.7244181,144.095915 38.5287838,143.912515 C38.1209105,143.529726 38.1009848,142.889634 38.4838,142.482412 L53.8625267,126.119935 C54.24504,125.712411 54.8856819,125.692201 55.2938571,126.07499 C55.7017305,126.457778 55.7216562,127.098172 55.338841,127.505093 L39.9604162,143.867569 C39.7608571,144.079627 39.49186,144.186711 39.2216552,144.186711 Z M158.233418,147.047822 C158.006084,147.047822 157.777542,146.971505 157.58855,146.815554 L148.042321,138.925404 C147.611201,138.568859 147.55082,137.931481 147.90737,137.501032 C148.263617,137.070282 148.901844,137.009651 149.333266,137.366498 L158.879494,145.25695 C159.310614,145.613194 159.370995,146.250873 159.014446,146.681322 C158.814283,146.922639 158.525058,147.047822 158.233418,147.047822 Z M113.367351,150.054627 C112.964007,150.054627 112.583003,149.812406 112.425107,149.415138 L102.907861,125.39689 C102.701962,124.877456 102.95677,124.289548 103.47665,124.083222 C103.99653,123.876896 104.584942,124.132692 104.791143,124.651825 L114.30869,148.66947 C114.51459,149.189507 114.25948,149.777415 113.7396,149.983439 C113.617329,150.031702 113.491132,150.054627 113.367351,150.054627 Z M105.642212,152.312748 C105.190865,152.312748 104.779067,152.009594 104.661928,151.552601 L101.615709,139.698522 C101.47653,139.157671 101.80289,138.605961 102.344809,138.466902 C102.888539,138.32724 103.43861,138.654224 103.577486,139.195377 L106.623705,151.049455 C106.762883,151.590306 106.436524,152.142016 105.894605,152.281075 C105.810071,152.302794 105.725236,152.312748 105.642212,152.312748 Z M123.930093,152.568242 C123.572638,152.568242 123.226051,152.378808 123.04189,152.043982 L108.44419,125.513928 C108.174891,125.024357 108.353619,124.409 108.84361,124.139932 C109.333904,123.87026 109.949488,124.04974 110.219089,124.539009 L124.816486,151.069062 C125.086087,151.558332 124.907057,152.173991 124.416764,152.443059 C124.262189,152.527821 124.095235,152.568242 123.930093,152.568242 Z M135.81699,153.796544 C135.503914,153.796544 135.195368,153.652357 134.996714,153.379669 L128.985489,145.112462 C128.656412,144.659993 128.756645,144.028045 129.209502,143.699553 C129.662359,143.37106 130.295755,143.470905 130.623624,143.923072 L136.635755,152.19028 C136.964228,152.642447 136.863995,153.274998 136.41144,153.603491 C136.231807,153.7335 136.02319,153.796544 135.81699,153.796544 Z M150.592812,155.178383 C150.322608,155.178383 150.05361,155.071299 149.854051,154.859544 L133.72962,137.703437 C133.346805,137.296215 133.36673,136.655821 133.774604,136.273334 C134.182175,135.889942 134.823119,135.910756 135.206236,136.318279 L151.330668,153.474084 C151.713483,153.881608 151.693557,154.5217 151.285684,154.904489 C151.09005,155.08789 150.84128,155.178383 150.592812,155.178383 Z M28.8904743,155.178383 C28.6420067,155.178383 28.3929352,155.08789 28.1976029,154.904489 C27.7897295,154.5217 27.7698038,153.881608 28.152619,153.474084 L34.86366,146.334127 C35.2467771,145.926906 35.8868152,145.905489 36.2949905,146.289182 C36.7031657,146.671669 36.7227895,147.312063 36.3402762,147.719285 L29.6292352,154.859544 C29.4293743,155.071299 29.1603771,155.178383 28.8904743,155.178383 Z M89.7414924,158.477484 C89.1823648,158.477484 88.7289038,158.024714 88.7289038,157.465462 L88.7289038,137.133326 C88.7289038,136.574678 89.1823648,136.121606 89.7414924,136.121606 C90.3009219,136.121606 90.754081,136.574678 90.754081,137.133326 L90.754081,157.465462 C90.754081,158.024714 90.3009219,158.477484 89.7414924,158.477484 Z M108.711678,164.25732 C108.26033,164.25732 107.848532,163.954166 107.731393,163.497474 L106.246324,157.717337 C106.107146,157.176184 106.433505,156.624775 106.975122,156.485717 C107.519154,156.346055 108.068923,156.673039 108.207799,157.21389 L109.69317,162.994329 C109.832349,163.53518 109.50599,164.08689 108.96407,164.225949 C108.879537,164.247667 108.794702,164.25732 108.711678,164.25732 Z M131.174902,165.734781 C130.817447,165.734781 130.470558,165.545649 130.286396,165.210219 L125.881908,157.206047 C125.612609,156.716777 125.791336,156.101721 126.28163,155.83205 C126.771621,155.564189 127.387205,155.741556 127.656806,156.231429 L132.061294,164.235601 C132.330593,164.724871 132.151866,165.340228 131.661572,165.609598 C131.506695,165.694361 131.339742,165.734781 131.174902,165.734781 Z M122.465251,173.0144 C122.061907,173.0144 121.680903,172.77248 121.523007,172.374911 L115.556463,157.317957 C115.350866,156.798523 115.605673,156.210012 116.125553,156.00429 C116.645433,155.797662 117.233544,156.052553 117.440047,156.572289 L123.40659,171.629544 C123.61249,172.148978 123.357682,172.736886 122.8375,172.94291 C122.71553,172.991475 122.589032,173.0144 122.465251,173.0144 Z M89.7414924,174.577831 C89.1823648,174.577831 88.7289038,174.12506 88.7289038,173.56611 L88.7289038,161.972353 C88.7289038,161.413403 89.1823648,160.960331 89.7414924,160.960331 C90.3009219,160.960331 90.754081,161.413403 90.754081,161.972353 L90.754081,173.56611 C90.754081,174.12506 90.3009219,174.577831 89.7414924,174.577831 Z M100.646292,176.689653 C100.143621,176.689653 99.7073686,176.316216 99.642761,175.804926 L96.1922914,148.525283 C96.1219476,147.970255 96.5150276,147.464394 97.0699286,147.394413 C97.62332,147.326542 98.1314257,147.71657 98.2017695,148.270995 L101.652239,175.550638 C101.722281,176.105365 101.329503,176.611527 100.7743,176.68181 C100.73143,176.686938 100.688559,176.689653 100.646292,176.689653 Z M308.495343,213.098306 C308.413829,211.027206 307.749638,209.366645 306.499752,208.116022 C305.246848,206.866001 303.586371,206.240388 301.512286,206.240388 C299.555943,206.240388 297.925657,206.855444 296.61539,208.086159 C295.305124,209.316874 294.474886,210.98769 294.121657,213.098306 L308.495343,213.098306 Z M313.03901,204.012432 C315.680676,206.944127 317,211.027206 317,216.263174 C317,217.200689 316.978867,217.923734 316.942638,218.431404 L294.296762,218.431404 C294.803962,220.424378 295.782133,221.977251 297.231276,223.091531 C298.6774,224.204906 300.416371,224.761442 302.45121,224.761442 C303.936581,224.761442 305.36459,224.479102 306.735238,223.911706 C308.102867,223.345517 309.334638,222.515689 310.430552,221.420715 L315.182533,226.227139 C313.5764,228.024647 311.632133,229.402565 309.343695,230.359386 C307.055257,231.31681 304.504162,231.796728 301.69041,231.796728 C298.363419,231.796728 295.462114,231.130996 292.977438,229.802547 C290.492762,228.474702 288.578686,226.598767 287.229171,224.175344 C285.879657,221.753128 285.20339,218.959284 285.20339,215.794115 C285.20339,212.590334 285.888714,209.766628 287.259362,207.324503 C288.62699,204.88268 290.544086,202.987741 293.007629,201.63878 C295.471171,200.290725 298.287943,199.616848 301.454924,199.616848 C306.539,199.616848 310.400362,201.081942 313.03901,204.012432 Z M276.816476,201.140462 C278.576581,200.125122 280.629533,199.597543 282.975333,199.558027 L282.975333,208.057201 C282.664371,208.01859 282.1934,207.998681 281.568457,207.998681 C278.790933,207.998681 276.590048,208.751589 274.968819,210.254992 C273.344571,211.759903 272.535467,213.76253 272.535467,216.263174 L272.535467,231.443501 L263.499457,231.443501 L263.499457,199.909747 L272.535467,199.909747 L272.535467,205.595167 C273.628362,203.64201 275.056371,202.157913 276.816476,201.140462 Z M254.759314,199.909747 L254.759314,231.443501 L245.783686,231.443501 L245.783686,225.875119 C243.634124,229.822456 240.113914,231.796728 235.226076,231.796728 C231.745114,231.796728 228.977855,230.711105 226.924903,228.541969 C224.871347,226.374041 223.845172,223.433899 223.845172,219.720639 L223.845172,199.909747 L232.880276,199.909747 L232.880276,217.141868 C232.880276,219.135144 233.40559,220.698273 234.462257,221.830953 C235.518924,222.964538 236.965048,223.531029 238.803648,223.531029 C240.95321,223.492418 242.655952,222.730159 243.908857,221.244553 C245.158743,219.760154 245.783686,217.844703 245.783686,215.500915 L245.783686,199.909747 L254.759314,199.909747 Z M219.328073,229.685207 C218.155173,230.388042 216.854266,230.92648 215.427162,231.296599 C213.999152,231.66702 212.562086,231.854041 211.11566,231.854041 C208.182655,231.854041 205.796702,231.013957 203.958706,229.333187 C202.119804,227.653622 201.201711,225.250712 201.201711,222.124454 L201.201711,207.52932 L196.801751,207.52932 L196.801751,201.316321 L201.201711,201.316321 L201.201711,192.642495 L210.177038,192.642495 L210.177038,201.316321 L218.741774,201.316321 L218.741774,207.588141 L210.177038,207.588141 L210.177038,220.600238 C210.177038,223.023057 211.134982,224.233864 213.051171,224.233864 C214.38076,224.233864 215.847111,223.844137 217.451433,223.061668 L219.328073,229.685207 Z M181.726137,231.443501 L190.760033,231.443501 L190.760033,187.95341 L181.726137,187.95341 L181.726137,231.443501 Z M172.693147,199.909747 L172.693147,231.443501 L163.717518,231.443501 L163.717518,225.875119 C161.566447,229.822456 158.046841,231.796728 153.158399,231.796728 C149.677135,231.796728 146.910782,230.711105 144.85783,228.541969 C142.804273,226.374041 141.778099,223.433899 141.778099,219.720639 L141.778099,199.909747 L150.811995,199.909747 L150.811995,217.141868 C150.811995,219.135144 151.339725,220.698273 152.395788,221.830953 C153.45185,222.964538 154.898276,223.531029 156.736876,223.531029 C158.887344,223.492418 160.588275,222.730159 161.840576,221.244553 C163.09167,219.760154 163.717518,217.844703 163.717518,215.500915 L163.717518,199.909747 L172.693147,199.909747 Z M126.966048,199.294691 C125.06918,198.33787 123.16235,197.858253 121.246764,197.858253 C118.939004,197.858253 116.826576,198.425649 114.911292,199.558027 C112.994499,200.692517 111.488598,202.235436 110.394193,204.188593 C109.298883,206.142956 108.751831,208.312091 108.751831,210.69449 C108.751831,213.079001 109.298883,215.257487 110.394193,217.229647 C111.488598,219.203316 112.994499,220.766746 114.911292,221.91843 C116.826576,223.072527 118.939004,223.648369 121.246764,223.648369 C123.084458,223.648369 124.951739,223.208871 126.848909,222.329272 C128.745474,221.450577 130.436745,220.268729 131.923324,218.783425 L137.379045,224.702923 C135.188424,226.969791 132.617101,228.767902 129.664774,230.095747 C126.711542,231.424497 123.74895,232.089325 120.777302,232.089325 C116.748685,232.089325 113.092618,231.159954 109.80729,229.30453 C106.522567,227.448805 103.941281,224.898993 102.063735,221.655093 C100.187095,218.412099 99.2481714,214.797175 99.2481714,210.81183 C99.2481714,206.866001 100.206417,203.290291 102.122607,200.085908 C104.038494,196.882127 106.66899,194.36248 110.012586,192.525155 C113.356785,190.688735 117.061458,189.770525 121.129625,189.770525 C124.100971,189.770525 127.033976,190.385882 129.928941,191.616296 C132.822698,192.847011 135.286543,194.518129 137.320173,196.62784 L131.923324,203.251077 C130.515542,201.571212 128.862915,200.252115 126.966048,199.294691 Z M303.861105,149.792799 C302.179495,149.264918 300.67299,149.001582 299.34461,149.001582 C298.248695,149.001582 297.370152,149.196445 296.705962,149.587076 C296.038752,149.978311 295.706657,150.565012 295.706657,151.34537 C295.706657,152.20506 296.156495,152.869285 297.056171,153.338646 C297.955848,153.807101 299.423105,154.334982 301.457943,154.92108 C303.686,155.585605 305.5246,156.239272 306.970724,156.884492 C308.416848,157.529411 309.669752,158.487137 310.726419,159.756161 C311.780067,161.026391 312.3084,162.697208 312.3084,164.767403 C312.3084,167.893962 311.106819,170.326434 308.700638,172.064819 C306.297476,173.803807 303.218048,174.673151 299.462352,174.673151 C296.881067,174.673151 294.39639,174.292474 292.011343,173.529913 C289.626295,172.768559 287.55221,171.684142 285.795124,170.277568 L288.726619,164.181908 C290.329733,165.432834 292.120029,166.39991 294.094486,167.082535 C296.068943,167.767271 297.937733,168.108432 299.697838,168.108432 C300.908476,168.108432 301.87759,167.903615 302.602162,167.493376 C303.323714,167.082535 303.686,166.467177 303.686,165.647002 C303.686,164.748098 303.227105,164.045263 302.306295,163.536688 C301.388505,163.029923 299.91219,162.481833 297.877352,161.895433 C295.72779,161.271629 293.937495,160.645413 292.509486,160.019799 C291.081476,159.395694 289.861781,158.447621 288.844362,157.177692 C287.826943,155.908366 287.319743,154.256855 287.319743,152.224366 C287.319743,149.098712 288.491133,146.676797 290.839952,144.956813 C293.185752,143.237733 296.156495,142.378042 299.7552,142.378042 C301.904762,142.378042 304.057343,142.680895 306.206905,143.286901 C308.359486,143.892304 310.315829,144.761346 312.075933,145.894931 L308.966314,152.04911 C307.245457,151.07238 305.542714,150.319774 303.861105,149.792799 Z M273.417029,149.792799 C271.735419,149.264918 270.228914,149.001582 268.900533,149.001582 C267.804619,149.001582 266.923057,149.196445 266.258867,149.587076 C265.594676,149.978311 265.262581,150.565012 265.262581,151.34537 C265.262581,152.20506 265.712419,152.869285 266.612095,153.338646 C267.511771,153.807101 268.97601,154.334982 271.010848,154.92108 C273.241924,155.585605 275.077505,156.239272 276.526648,156.884492 C277.972771,157.529411 279.222657,158.487137 280.279324,159.756161 C281.33599,161.026391 281.864324,162.697208 281.864324,164.767403 C281.864324,167.893962 280.662743,170.326434 278.256562,172.064819 C275.850381,173.803807 272.770952,174.673151 269.015257,174.673151 C266.433971,174.673151 263.952314,174.292474 261.567267,173.529913 C259.182219,172.768559 257.108133,171.684142 255.348029,170.277568 L258.282543,164.181908 C259.885657,165.432834 261.672933,166.39991 263.65041,167.082535 C265.621848,167.767271 267.490638,168.108432 269.250743,168.108432 C270.4644,168.108432 271.430495,167.903615 272.155067,167.493376 C272.879638,167.082535 273.241924,166.467177 273.241924,165.647002 C273.241924,164.748098 272.78001,164.045263 271.862219,163.536688 C270.94141,163.029923 269.465095,162.481833 267.433276,161.895433 C265.280695,161.271629 263.493419,160.645413 262.06541,160.019799 C260.6374,159.395694 259.414686,158.447621 258.400286,157.177692 C257.382867,155.908366 256.872648,154.256855 256.872648,152.224366 C256.872648,149.098712 258.047057,146.676797 260.392857,144.956813 C262.738657,143.237733 265.712419,142.378042 269.311124,142.378042 C271.460686,142.378042 273.610248,142.680895 275.762829,143.286901 C277.91239,143.892304 279.868733,144.761346 281.628838,145.894931 L278.519219,152.04911 C276.798362,151.07238 275.098638,150.319774 273.417029,149.792799 Z M238.278333,166.936538 C239.645962,166.038237 240.467143,164.904954 240.741876,163.536688 L240.741876,160.723539 L233.644095,160.723539 C231.88399,160.723539 230.583385,161.007388 229.74258,161.573577 C228.901171,162.140369 228.481524,163.049228 228.481524,164.299249 C228.481524,165.510357 228.921399,166.477735 229.801451,167.199875 C230.681504,167.923825 231.88399,168.284594 233.40861,168.284594 C235.286457,168.284594 236.907686,167.835141 238.278333,166.936538 Z M240.799238,174.32113 L240.799238,170.629287 C239.74559,171.958037 238.374943,172.973678 236.693333,173.677418 C235.011724,174.380253 233.076514,174.731972 230.886799,174.731972 C227.562224,174.731972 224.922369,173.823414 222.967233,172.0063 C221.011192,170.189185 220.034229,167.815233 220.034229,164.884743 C220.034229,161.915643 221.080027,159.600511 223.17283,157.939348 C225.264125,156.278787 228.226716,155.42875 232.059095,155.389536 L240.741876,155.389536 L240.741876,154.803739 C240.741876,153.124175 240.183352,151.824383 239.069324,150.906173 C237.955295,149.987964 236.32199,149.528557 234.172429,149.528557 C231.238518,149.528557 228.109275,150.447672 224.785606,152.283187 L221.970042,146.070187 C224.472229,144.820167 226.818934,143.901957 229.009555,143.315558 C231.19927,142.730063 233.604848,142.436562 236.225381,142.436562 C240.449029,142.436562 243.724695,143.432898 246.049362,145.425872 C248.377048,147.418846 249.560514,150.193686 249.599762,153.748281 L249.660143,174.32113 L240.799238,174.32113 Z M204.252459,164.738747 C205.698885,163.117702 206.423154,161.016739 206.423154,158.437063 C206.423154,155.897809 205.698885,153.817357 204.252459,152.195408 C202.80543,150.574363 200.927884,149.762936 198.62103,149.762936 C196.312968,149.762936 194.426667,150.574363 192.960315,152.195408 C191.49336,153.817357 190.760033,155.897809 190.760033,158.437063 C190.760033,161.056254 191.49336,163.165664 192.960315,164.767403 C194.426667,166.370047 196.312968,167.170917 198.62103,167.170917 C200.927884,167.170917 202.80543,166.360696 204.252459,164.738747 Z M208.505995,144.517315 C210.75428,145.865068 212.494459,147.769962 213.726834,150.232297 C214.958304,152.693425 215.574793,155.527086 215.574793,158.730565 C215.574793,161.895433 214.967663,164.679926 213.756119,167.082535 C212.543066,169.486049 210.832171,171.352332 208.622832,172.680177 C206.41289,174.008927 203.84217,174.673151 200.908864,174.673151 C198.718243,174.673151 196.773372,174.254165 195.072139,173.412874 C193.370604,172.573394 191.933537,171.352332 190.760033,169.749687 L190.760033,185.692575 L181.726137,185.692575 L181.726137,142.788582 L190.760033,142.788582 L190.760033,147.418846 C191.893988,145.817107 193.312034,144.596044 195.013268,143.754754 C196.714803,142.915575 198.62103,142.495383 200.733155,142.495383 C203.66616,142.495383 206.256201,143.169259 208.505995,144.517315 Z" id="Fill-1" fill="#FFFFFE"></path>
                </g>
                <text id="pro" font-family=".SFNSDisplay, .SF NS Display" font-size="27" font-weight="normal" fill="#FFFFFF">
                    <tspan x="329" y="220">PRO</tspan>
                </text>
            </g>
        </g>
    </g>
</svg>