<?xml version="1.0" encoding="UTF-8"?>
<svg width="152px" height="40px" viewBox="0 0 152 40" version="1.1" xmlns="http://www.w3.org/2000/svg" xmlns:xlink="http://www.w3.org/1999/xlink">
    <!-- Generator: sketchtool 50.2 (55047) - http://www.bohemiancoding.com/sketch -->
    <title>9DD4C419-4765-40EB-9631-4F73C6B91195</title>
    <desc>Created with sketchtool.</desc>
    <defs>
        <linearGradient x1="50%" y1="0%" x2="50%" y2="98.2681539%" id="linearGradient-1">
            <stop stop-color="#000000" stop-opacity="0" offset="0%"></stop>
            <stop stop-color="#000000" stop-opacity="0.7" offset="100%"></stop>
        </linearGradient>
    </defs>
    <g id="Portail-pro" stroke="none" stroke-width="1" fill="none" fill-rule="evenodd">
        <g id="Passculture-Pro-accueil" transform="translate(-183.000000, -6.000000)">
            <g id="BLOCKS/header-pro" transform="translate(183.000000, 6.000000)">
                <g id="logo-inline-positive-S">
                    <g id="Group" transform="translate(37.814208, 10.280974)" fill="#E60039">
                        <path d="M43.6033118,14.6976525 C42.7178655,14.6976525 41.992837,14.4602538 41.4282046,13.9854492 C40.8635722,13.5106447 40.5299307,12.8754428 40.4272703,12.0798244 C40.3887726,11.8103407 40.3695241,11.5216125 40.3695241,11.2136312 C40.3695241,10.7644918 40.4080212,10.2511973 40.4850165,9.67373231 C40.6005095,8.7369558 40.7737464,7.94134932 41.0047324,7.28688901 C41.3127137,6.50410316 41.8035516,5.87531739 42.4772607,5.40051286 C43.1509699,4.92570832 43.9305359,4.68830962 44.8159822,4.68830962 C45.7014285,4.68830962 46.4360812,4.91929214 47.0199625,5.38126412 C47.6038437,5.8432361 47.9406932,6.42069242 48.0305211,7.11365039 C48.0690188,7.2804736 48.0882673,7.44729432 48.0882673,7.61411753 C48.0882673,7.75527564 48.0112732,7.83868599 47.8572825,7.8643511 L47.3183179,7.94134605 L47.2798204,7.94134605 C47.17716,7.94134605 47.1129982,7.87076805 47.0873331,7.72960995 C47.0873331,7.62694951 47.0809169,7.54995533 47.0680843,7.49862511 C47.0167541,6.9596578 46.7793554,6.50731702 46.3558811,6.14158921 C45.9324068,5.77586139 45.3870314,5.59300022 44.7197385,5.59300022 C44.0267805,5.59300022 43.4300757,5.77906948 42.929606,6.15121357 C42.4291364,6.52335767 42.0826626,7.01740363 41.8901743,7.63336627 C41.723351,8.06967314 41.5821951,8.75620453 41.4667021,9.69298105 C41.3897067,10.3217762 41.3512096,10.8286546 41.3512096,11.2136312 C41.3512096,11.3804544 41.364042,11.5536913 41.3897071,11.7333471 C41.4282048,12.3621423 41.6527711,12.8626044 42.0634129,13.2347485 C42.4740546,13.6068926 43.0194301,13.7929619 43.6995555,13.7929619 C44.3796809,13.7929619 44.9828019,13.6101007 45.5089367,13.2443729 C46.0350714,12.8786451 46.375129,12.4198881 46.5291197,11.8680883 L46.5676172,11.7910933 C46.6061148,11.6499352 46.7023576,11.5921896 46.8563482,11.6178547 L47.3375666,11.6756009 C47.4915573,11.701266 47.5493029,11.7910925 47.5108053,11.9450832 C47.4851401,12.0477436 47.4466431,12.1504025 47.3953128,12.253063 C47.1386617,12.9716861 46.6638643,13.5587666 45.9709064,14.0143223 C45.2779484,14.4698781 44.4887581,14.6976525 43.6033118,14.6976525 Z M56.7694474,5.07328434 C56.78228,5.00912157 56.8111528,4.95458403 56.8560667,4.90967008 C56.9009807,4.86475614 56.9555182,4.84229951 57.019681,4.84229951 L57.5393969,4.84229951 C57.680555,4.84229951 57.751133,4.91929368 57.751133,5.07328434 L56.6154575,14.3126778 C56.602625,14.3768405 56.5737521,14.4313781 56.5288382,14.476292 C56.4839243,14.521206 56.4293867,14.5436626 56.3652239,14.5436626 L55.8262593,14.5436626 C55.7620966,14.5436626 55.7107671,14.521206 55.6722694,14.476292 C55.6337718,14.4313781 55.6209394,14.3768405 55.633772,14.3126778 L55.7492644,13.4079872 C55.7492644,13.3694895 55.7396401,13.3470329 55.7203913,13.3406166 C55.7011424,13.3342003 55.685102,13.3502408 55.6722694,13.3887384 C55.0178091,14.2485196 54.0874628,14.6784037 52.8812027,14.6784037 C52.034254,14.6784037 51.3477227,14.441005 50.8215879,13.9662005 C50.2954531,13.491396 50.0323897,12.8369455 50.0323897,12.0028294 C50.0323897,11.900169 50.0452221,11.7333483 50.0708872,11.5023623 L50.8600854,5.07328434 C50.8600854,5.00912157 50.8857501,4.95458403 50.9370803,4.90967008 C50.9884105,4.86475614 51.0461562,4.84229951 51.1103189,4.84229951 L51.6300348,4.84229951 C51.6941976,4.84229951 51.745527,4.86475614 51.7840247,4.90967008 C51.8225224,4.95458403 51.8353547,5.00912157 51.8225222,5.07328434 L51.0718215,11.23288 C51.0589889,11.3355404 51.0525727,11.4766964 51.0525727,11.6563522 C51.0525727,12.3108125 51.2418501,12.827315 51.6204105,13.2058754 C51.9989708,13.5844358 52.5218896,13.7737131 53.1891825,13.7737131 C53.9463032,13.7737131 54.5815051,13.5395225 55.0948074,13.0711343 C55.6081096,12.602746 55.9160863,11.9900007 56.0187467,11.23288 L56.7694474,5.07328434 Z M60.0609813,14.5436626 C59.9198232,14.5436626 59.8492452,14.4666684 59.8492452,14.3126778 L61.4468903,1.30053203 C61.4597229,1.23636925 61.4918038,1.18183171 61.543134,1.13691777 C61.5944642,1.09200383 61.6522099,1.06954719 61.7163726,1.06954719 L62.2553372,1.06954719 C62.3195,1.06954719 62.3708295,1.09200383 62.4093271,1.13691777 C62.4478248,1.18183171 62.4606572,1.23636925 62.4478246,1.30053203 L60.8501795,14.3126778 C60.8373469,14.3768405 60.8084741,14.4313781 60.7635602,14.476292 C60.7186462,14.521206 60.6641087,14.5436626 60.5999459,14.5436626 L60.0609813,14.5436626 Z M69.1078874,5.4775078 C69.0950548,5.54167058 69.0629739,5.59620812 69.0116437,5.64112206 C68.9603135,5.686036 68.9025678,5.70849264 68.8384051,5.70849264 L66.7017953,5.70849264 C66.6632977,5.70849264 66.6312168,5.73415736 66.6055517,5.78548758 L65.8740997,11.8488395 C65.8484346,12.0541604 65.8356022,12.2017326 65.8356022,12.2915604 C65.8356022,12.7791975 65.970342,13.1224632 66.2398257,13.3213678 C66.5093093,13.5202724 66.9199449,13.6197233 67.4717448,13.6197233 L67.8567195,13.6197233 C67.9208823,13.6197233 67.9722117,13.6421799 68.0107094,13.6870938 C68.0492071,13.7320078 68.0620394,13.7865453 68.0492069,13.8507081 L67.9914607,14.293429 C67.9657956,14.4474197 67.8823852,14.5244139 67.7412271,14.5244139 L67.2215112,14.5436626 C66.4387254,14.5436626 65.8452286,14.4057147 65.4410031,14.1298148 C65.0367776,13.8539148 64.8346679,13.3566608 64.8346679,12.6380377 C64.8346679,12.5482098 64.8475003,12.3749729 64.8731654,12.1183218 L65.6431148,5.78548758 C65.6431148,5.73415736 65.6238663,5.70849264 65.5853686,5.70849264 L64.4881907,5.70849264 C64.4240279,5.70849264 64.3726984,5.686036 64.3342008,5.64112206 C64.2957031,5.59620812 64.2828707,5.54167058 64.2957033,5.4775078 L64.3534495,5.07328434 C64.3662821,5.00912157 64.3951549,4.95458403 64.4400688,4.90967008 C64.4849828,4.86475614 64.5395203,4.84229951 64.6036831,4.84229951 L65.6816123,4.84229951 C65.72011,4.84229951 65.7521909,4.81663478 65.777856,4.76530456 L66.0280896,2.6094461 C66.0409221,2.54528332 66.0697949,2.49074578 66.1147089,2.44583184 C66.1596228,2.4009179 66.2141604,2.37846126 66.2783231,2.37846126 L66.8172877,2.37846126 C66.8814505,2.37846126 66.93278,2.4009179 66.9712776,2.44583184 C67.0097753,2.49074578 67.0226077,2.54528332 67.0097751,2.6094461 L66.7402928,4.76530456 C66.7402928,4.81663478 66.7595413,4.84229951 66.798039,4.84229951 L68.9538975,4.84229951 C69.0180603,4.84229951 69.0693897,4.86475614 69.1078874,4.90967008 C69.146385,4.95458403 69.1592174,5.00912157 69.1463848,5.07328434 L69.1078874,5.4775078 Z M77.6928238,5.07328434 C77.7056563,5.00912157 77.7345291,4.95458403 77.7794431,4.90967008 C77.824357,4.86475614 77.8788945,4.84229951 77.9430573,4.84229951 L78.4627732,4.84229951 C78.6039313,4.84229951 78.6745093,4.91929368 78.6745093,5.07328434 L77.5388339,14.3126778 C77.5260013,14.3768405 77.4971285,14.4313781 77.4522145,14.476292 C77.4073006,14.521206 77.3527631,14.5436626 77.2886003,14.5436626 L76.7496357,14.5436626 C76.6854729,14.5436626 76.6341434,14.521206 76.5956458,14.476292 C76.5571481,14.4313781 76.5443158,14.3768405 76.5571483,14.3126778 L76.6726407,13.4079872 C76.6726407,13.3694895 76.6630165,13.3470329 76.6437676,13.3406166 C76.6245188,13.3342003 76.6084783,13.3502408 76.5956458,13.3887384 C75.9411855,14.2485196 75.0108392,14.6784037 73.804579,14.6784037 C72.9576304,14.6784037 72.271099,14.441005 71.7449642,13.9662005 C71.2188295,13.491396 70.9557661,12.8369455 70.9557661,12.0028294 C70.9557661,11.900169 70.9685984,11.7333483 70.9942635,11.5023623 L71.7834617,5.07328434 C71.7834617,5.00912157 71.8091264,4.95458403 71.8604567,4.90967008 C71.9117869,4.86475614 71.9695325,4.84229951 72.0336953,4.84229951 L72.5534112,4.84229951 C72.6175739,4.84229951 72.6689034,4.86475614 72.7074011,4.90967008 C72.7458987,4.95458403 72.7587311,5.00912157 72.7458985,5.07328434 L71.9951978,11.23288 C71.9823653,11.3355404 71.9759491,11.4766964 71.9759491,11.6563522 C71.9759491,12.3108125 72.1652264,12.827315 72.5437868,13.2058754 C72.9223472,13.5844358 73.4452659,13.7737131 74.1125588,13.7737131 C74.8696795,13.7737131 75.5048815,13.5395225 76.0181837,13.0711343 C76.5314859,12.602746 76.8394626,11.9900007 76.942123,11.23288 L77.6928238,5.07328434 Z M85.5078107,4.76530456 C85.8927873,4.76530456 86.2392611,4.83588255 86.5472424,4.97704066 C86.6370703,5.02837088 86.6627351,5.1246136 86.6242374,5.2657717 L86.3932526,5.82398506 C86.3419223,5.97797572 86.2456796,6.02288899 86.1045215,5.95872621 C85.8478704,5.86889833 85.5527261,5.83040124 85.2190796,5.84323379 C84.5261217,5.85606635 83.9197925,6.12875405 83.4000741,6.66130509 C82.8803556,7.19385612 82.5691708,7.84509852 82.4665104,8.61505182 L81.7735558,14.3126778 C81.7607233,14.3768405 81.7318505,14.4313781 81.6869365,14.476292 C81.6420226,14.521206 81.587485,14.5436626 81.5233223,14.5436626 L80.9843577,14.5436626 C80.8431996,14.5436626 80.7726216,14.4666684 80.7726216,14.3126778 L81.908297,5.07328434 C81.9211296,5.00912157 81.9532105,4.95458403 82.0045407,4.90967008 C82.0558709,4.86475614 82.1136165,4.84229951 82.1777793,4.84229951 L82.7167439,4.84229951 C82.7809067,4.84229951 82.8322361,4.86475614 82.8707338,4.90967008 C82.9092315,4.95458403 82.9220638,5.00912157 82.9092313,5.07328434 L82.7552414,6.34370094 C82.7424088,6.3821986 82.748825,6.40465524 82.7744901,6.41107151 C82.8001552,6.41748779 82.8194038,6.40144734 82.8322363,6.36294967 C83.1530502,5.86248003 83.5380211,5.47109297 83.9871605,5.18877676 C84.4362999,4.90646055 84.9431783,4.76530456 85.5078107,4.76530456 Z M90.9359543,13.8122106 C91.5390844,13.7993781 92.0780436,13.6518059 92.5528482,13.3694897 C93.0276527,13.0871735 93.3997912,12.7086188 93.6692749,12.2338142 C93.7591028,12.1054887 93.8617617,12.0669916 93.9772547,12.1183218 L94.3044832,12.253063 C94.3686459,12.2787281 94.4103511,12.3204333 94.4296,12.3781798 C94.4488488,12.4359263 94.4392245,12.49688 94.4007268,12.5610428 C94.0542479,13.2155031 93.56341,13.7352137 92.9281985,14.1201904 C92.2929871,14.505167 91.5711667,14.6976525 90.7627157,14.6976525 C89.8901019,14.6976525 89.1875301,14.4795023 88.6549791,14.0431955 C88.122428,13.6068886 87.7855785,13.0101837 87.6444204,12.253063 C87.5930902,12.0092444 87.5674255,11.7076839 87.5674255,11.3483724 C87.5674255,10.9762283 87.6123387,10.4180205 87.7021666,9.67373231 C87.7663294,9.04493712 87.8272831,8.5701397 87.8850296,8.24932583 C87.9427761,7.92851195 88.0229784,7.63336762 88.1256388,7.36388396 C88.4336201,6.55543299 88.924458,5.90739869 89.5981671,5.41976159 C90.2718763,4.9321245 91.0514423,4.68830962 91.9368886,4.68830962 C92.9378279,4.68830962 93.7109777,4.95778923 94.2563613,5.49675654 C94.8017449,6.03572385 95.0936812,6.7735847 95.1321788,7.71036121 C95.1450114,7.81302165 95.1514276,7.96701 95.1514276,8.17233088 C95.1514276,8.51880987 95.1065143,9.05135291 95.0166864,9.769976 C95.0038539,9.93679921 94.9204435,10.0202096 94.7664528,10.0202096 L88.7031009,10.0202096 C88.6517707,10.0202096 88.6196898,10.0458743 88.6068572,10.0972045 C88.5298619,10.6746695 88.4913648,11.1238022 88.4913648,11.4446161 C88.4913648,12.1504066 88.709515,12.7214467 89.1458218,13.1577536 C89.5821287,13.5940605 90.1788336,13.8122106 90.9359543,13.8122106 Z M89.0495782,7.5948688 C88.9597503,7.82585479 88.8570914,8.33273311 88.7415984,9.11551896 C88.7287658,9.16684918 88.7480144,9.19251391 88.7993446,9.19251391 L94.0157521,9.19251391 C94.0670823,9.19251391 94.0927471,9.16684918 94.0927471,9.11551896 C94.1440773,8.7048772 94.169742,8.30065778 94.169742,7.90284858 C94.169742,7.22272316 93.9612161,6.66772348 93.5441581,6.23783289 C93.1271,5.80794229 92.559268,5.59300022 91.8406449,5.59300022 C91.1605195,5.59300022 90.5734389,5.77586139 90.0793856,6.14158921 C89.5853322,6.50731702 89.2420665,6.99173871 89.0495782,7.5948688 Z" id="culture"></path>
                        <path d="M102.133333,0.392 C102.485335,0.392 102.794665,0.46399928 103.061333,0.608 C103.328001,0.75200072 103.534666,0.95599868 103.681333,1.22 C103.828001,1.48400132 103.901333,1.78666496 103.901333,2.128 C103.901333,2.46400168 103.825334,2.75999872 103.673333,3.016 C103.521333,3.27200128 103.308001,3.47066596 103.033333,3.612 C102.758665,3.75333404 102.442668,3.824 102.085333,3.824 L100.957333,3.824 C100.925333,3.824 100.909333,3.83999984 100.909333,3.872 L100.909333,5.864 C100.909333,5.95466712 100.864,6 100.773333,6 L99.9173333,6 C99.8266662,6 99.7813333,5.95466712 99.7813333,5.864 L99.7813333,0.528 C99.7813333,0.43733288 99.8266662,0.392 99.9173333,0.392 L102.133333,0.392 Z M101.965333,2.92 C102.210668,2.92 102.407999,2.84933404 102.557333,2.708 C102.706667,2.56666596 102.781333,2.38133448 102.781333,2.152 C102.781333,1.91733216 102.706667,1.72800072 102.557333,1.584 C102.407999,1.43999928 102.210668,1.368 101.965333,1.368 L100.957333,1.368 C100.925333,1.368 100.909333,1.38399984 100.909333,1.416 L100.909333,2.872 C100.909333,2.90400016 100.925333,2.92 100.957333,2.92 L101.965333,2.92 Z M107.701333,6 C107.632,6 107.578667,5.96533368 107.541333,5.896 L106.557333,3.72 C106.546667,3.6933332 106.528,3.68 106.501333,3.68 L105.773333,3.68 C105.741333,3.68 105.725333,3.69599984 105.725333,3.728 L105.725333,5.864 C105.725333,5.95466712 105.68,6 105.589333,6 L104.733333,6 C104.642666,6 104.597333,5.95466712 104.597333,5.864 L104.597333,0.528 C104.597333,0.43733288 104.642666,0.392 104.733333,0.392 L106.981333,0.392 C107.322668,0.392 107.622665,0.46266596 107.881333,0.604 C108.140001,0.74533404 108.339999,0.94399872 108.481333,1.2 C108.622667,1.45600128 108.693333,1.74933168 108.693333,2.08 C108.693333,2.44266848 108.602668,2.75466536 108.421333,3.016 C108.239999,3.27733464 107.989335,3.4613328 107.669333,3.568 C107.653333,3.57333336 107.642667,3.5826666 107.637333,3.596 C107.632,3.6093334 107.634667,3.62133328 107.645333,3.632 L108.701333,5.84 C108.717333,5.86133344 108.725333,5.8853332 108.725333,5.912 C108.725333,5.9386668 108.714667,5.95999992 108.693333,5.976 C108.672,5.99200008 108.642667,6 108.605333,6 L107.701333,6 Z M105.773333,1.368 C105.741333,1.368 105.725333,1.38399984 105.725333,1.416 L105.725333,2.76 C105.725333,2.79200016 105.741333,2.808 105.773333,2.808 L106.813333,2.808 C107.037334,2.808 107.219999,2.74266732 107.361333,2.612 C107.502667,2.48133268 107.573333,2.3093344 107.573333,2.096 C107.573333,1.8826656 107.502667,1.70800068 107.361333,1.572 C107.219999,1.43599932 107.037334,1.368 106.813333,1.368 L105.773333,1.368 Z M111.501333,6.088 C111.085331,6.088 110.718668,6.00266752 110.401333,5.832 C110.083998,5.66133248 109.837334,5.4226682 109.661333,5.116 C109.485332,4.8093318 109.397333,4.456002 109.397333,4.056 L109.397333,2.344 C109.397333,1.94933136 109.485332,1.60000152 109.661333,1.296 C109.837334,0.99199848 110.083998,0.75600084 110.401333,0.588 C110.718668,0.41999916 111.085331,0.336 111.501333,0.336 C111.922669,0.336 112.291998,0.41999916 112.609333,0.588 C112.926668,0.75600084 113.173332,0.99199848 113.349333,1.296 C113.525334,1.60000152 113.613333,1.94933136 113.613333,2.344 L113.613333,4.056 C113.613333,4.456002 113.525334,4.81066512 113.349333,5.12 C113.173332,5.42933488 112.926668,5.66799916 112.609333,5.836 C112.291998,6.00400084 111.922669,6.088 111.501333,6.088 Z M111.501333,5.12 C111.794668,5.12 112.031999,5.0266676 112.213333,4.84 C112.394668,4.6533324 112.485333,4.40533488 112.485333,4.096 L112.485333,2.336 C112.485333,2.02666512 112.396001,1.77733428 112.217333,1.588 C112.038666,1.39866572 111.800001,1.304 111.501333,1.304 C111.207999,1.304 110.972001,1.39866572 110.793333,1.588 C110.614666,1.77733428 110.525333,2.02666512 110.525333,2.336 L110.525333,4.096 C110.525333,4.40533488 110.614666,4.6533324 110.793333,4.84 C110.972001,5.0266676 111.207999,5.12 111.501333,5.12 Z" id="pro"></path>
                        <path d="M10.1149871,7.56845774 C10.1901918,7.94448144 10.2277936,8.33303344 10.2277936,8.7341254 C10.2277936,8.9472055 10.2027258,9.27935479 10.1525893,9.73058323 C10.027248,10.6330401 9.80163721,11.4226781 9.47574999,12.0995207 C9.09972629,12.8766364 8.57016751,13.5064666 7.88705778,13.9890304 C7.20394805,14.4715942 6.47384631,14.7128724 5.69673065,14.7128724 C4.75667139,14.7128724 4.09863977,14.4245919 3.72261607,13.8480222 C3.6850137,13.7978857 3.65054538,13.7790848 3.61921007,13.7916189 C3.58787476,13.8041531 3.56594037,13.8417549 3.55340625,13.9044255 L3.10218006,17.6458427 C3.08964593,17.7461156 3.04891064,17.8275862 2.97997296,17.8902568 C2.91103529,17.9529275 2.82643122,17.9842623 2.72615823,17.9842623 L0.357220734,17.9842623 C0.256947746,17.9842623 0.181744133,17.9529275 0.131607639,17.8902568 C0.0814711448,17.8275862 0.0626702415,17.7461156 0.075204365,17.6458427 L1.61689385,5.16191806 C1.62942797,5.06164507 1.66702978,4.98017449 1.7297004,4.91750387 C1.79237101,4.85483325 1.87384159,4.82349841 1.97411458,4.82349841 L4.34305208,4.82349841 C4.44332507,4.82349841 4.52166217,4.85483325 4.57806572,4.91750387 C4.63446928,4.98017449 4.65640366,5.06164507 4.64386954,5.16191806 L4.58746627,5.61314425 C4.57493214,5.67581487 4.58119911,5.71341667 4.60626736,5.7259508 C4.63133561,5.73848492 4.66893741,5.71968402 4.71907391,5.66954752 C5.28310946,5.00523898 6.01634469,4.67308968 6.91880158,4.67308968 C7.70845136,4.67308968 8.40408478,4.9425693 9.00572271,5.48153661 C9.60736064,6.02050392 9.97711174,6.71613734 10.1149871,7.56845774 Z M6.37356994,11.3098749 C6.64932065,10.9087829 6.82479575,10.3635568 6.90000049,9.67417996 C6.92506874,9.39842924 6.93760267,9.19788627 6.93760267,9.07254504 C6.93760267,8.70905546 6.88746693,8.3894401 6.78719394,8.11368938 C6.58664797,7.64992681 6.24196474,7.41804901 5.75313392,7.41804901 C5.28937136,7.41804901 4.90708632,7.65619378 4.60626736,8.13249048 C4.34305076,8.5210483 4.17384264,9.03493966 4.09863789,9.67417996 C4.07356965,9.97499892 4.06103571,10.1818089 4.06103571,10.294616 C4.06103571,10.6957079 4.11743842,11.0403911 4.23024553,11.328676 C4.43079151,11.7548362 4.75667383,11.9679131 5.20790228,11.9679131 C5.68419897,11.9679131 6.07275097,11.7485692 6.37356994,11.3098749 Z M17.4662138,5.16191806 C17.5038161,4.93630383 17.6291555,4.82349841 17.8422356,4.82349841 L20.2111731,4.82349841 C20.3114461,4.82349841 20.3866497,4.85483325 20.4367862,4.91750387 C20.4869227,4.98017449 20.5057236,5.06164507 20.4931895,5.16191806 L19.3839251,14.205243 C19.371391,14.3055159 19.3337892,14.3869865 19.2711185,14.4496571 C19.2084479,14.5123278 19.1269773,14.5436626 19.0267044,14.5436626 L16.6577669,14.5436626 C16.5574939,14.5436626 16.4791568,14.5123278 16.4227532,14.4496571 C16.3663497,14.3869865 16.3444153,14.3055159 16.3569494,14.205243 L16.4133527,13.7540168 C16.4258868,13.6913461 16.4164863,13.6537443 16.385151,13.6412102 C16.3538157,13.6286761 16.3193474,13.647477 16.281745,13.6976135 C15.7177095,14.361922 14.9844742,14.6940713 14.0820174,14.6940713 C13.2923676,14.6940713 12.5936007,14.4245917 11.9856957,13.8856244 C11.3777907,13.3466571 11.0049061,12.6510237 10.8670307,11.7987033 C10.8043601,11.3976113 10.7730253,11.0403942 10.7730253,10.7270411 C10.7730253,10.4763586 10.7980932,10.1128745 10.8482297,9.63657778 C10.9485026,8.78425738 11.1741135,7.99461944 11.5250689,7.26764028 C11.9010926,6.49052462 12.4306514,5.86069436 13.1137612,5.37813061 C13.7968709,4.89556685 14.5269726,4.65428859 15.3040883,4.65428859 C16.2441475,4.65428859 16.9021792,4.94256911 17.2782029,5.51913879 C17.3032711,5.56927529 17.334606,5.58807619 17.3722083,5.57554207 C17.4098107,5.56300794 17.4286116,5.52540614 17.4286116,5.46273552 L17.4662138,5.16191806 Z M16.3945516,11.2346705 C16.6577682,10.8085103 16.8269763,10.294619 16.902181,9.69298105 C16.9272493,9.39216209 16.9397832,9.18535215 16.9397832,9.07254504 C16.9397832,8.65891896 16.8833805,8.31423574 16.7705734,8.03848502 C16.5700274,7.61232482 16.2441451,7.39924792 15.7929167,7.39924792 C15.31662,7.39924792 14.928068,7.61859179 14.627249,8.05728611 C14.3640324,8.44584394 14.1822903,8.99107013 14.0820174,9.69298105 C14.0569491,9.94366352 14.0444152,10.1191386 14.0444152,10.2194116 C14.0444152,10.6205036 14.1008179,10.9651868 14.213625,11.2534716 C14.3891027,11.7172342 14.727519,11.949112 15.2288839,11.949112 C15.7051806,11.949112 16.0937326,11.7109672 16.3945516,11.2346705 Z M24.8738437,14.6940713 C23.6580338,14.6940713 22.7023212,14.4559266 22.0066773,13.9796299 C21.3110335,13.5033332 20.9632168,12.8703694 20.9632168,12.0807196 C20.9632168,11.9428443 20.9694837,11.8363058 20.9820178,11.7611011 L21.0008189,11.6670956 C21.0133531,11.5668226 21.0509549,11.4853521 21.1136255,11.4226814 C21.1762961,11.3600108 21.2577667,11.328676 21.3580397,11.328676 L23.5953695,11.328676 C23.8335179,11.328676 23.9400563,11.3662778 23.9149881,11.4414825 L23.896187,11.5542891 C23.8711187,11.7924374 23.9745237,11.9898469 24.206405,12.1465235 C24.4382863,12.3032 24.7485012,12.3815371 25.137059,12.3815371 C25.5005486,12.3815371 25.7919626,12.3157339 26.0113098,12.1841256 C26.2306569,12.0525173 26.3403289,11.8801757 26.3403289,11.6670956 C26.3403289,11.4916179 26.2400574,11.3600116 26.0395114,11.2722727 C25.8389654,11.1845339 25.5130831,11.0967963 25.0618546,11.0090574 C24.3223414,10.858648 23.7269794,10.6769059 23.275751,10.4638258 C22.7493178,10.2256774 22.329431,9.93426345 22.0160779,9.58957505 C21.7027248,9.24488665 21.5460506,8.79053149 21.5460506,8.22649593 C21.5460506,8.06355233 21.5523175,7.93821297 21.5648517,7.85047411 C21.6901929,6.87281247 22.1539485,6.09884196 22.9561324,5.52853934 C23.7583163,4.95823672 24.7610312,4.67308968 25.964307,4.67308968 C27.1049123,4.67308968 28.0104891,4.93316885 28.6810647,5.45333497 C29.3516403,5.9735011 29.6869231,6.66600103 29.6869231,7.53085556 C29.6869231,7.69379916 29.6806561,7.81913852 29.668122,7.90687738 C29.6555879,7.969548 29.6179861,8.02281722 29.5553155,8.06668666 C29.4926448,8.11055609 29.4111743,8.13249048 29.3109013,8.13249048 L27.1299747,8.13249048 C26.9168946,8.13249048 26.8103561,8.09488867 26.8103561,8.01968393 L26.8291572,7.90687738 C26.8542255,7.66872903 26.7696214,7.47445303 26.5753425,7.32404355 C26.3810636,7.17363407 26.0959165,7.09843046 25.7198928,7.09843046 C25.3564033,7.09843046 25.0587223,7.16423362 24.826841,7.29584192 C24.5949597,7.42745021 24.4790208,7.60605879 24.4790208,7.83167302 C24.4790208,8.03221899 24.5918262,8.17949273 24.8174405,8.27349866 C25.0430547,8.36750459 25.4128058,8.46464259 25.9267048,8.56491557 C26.5283428,8.66518856 27.0046323,8.77799398 27.3555878,8.90333522 C28.0073622,9.12894944 28.5118531,9.42663041 28.8690756,9.79638705 C29.2262981,10.1661437 29.4049067,10.6518337 29.4049067,11.2534716 C29.4049067,11.4164152 29.3986398,11.5417546 29.3861056,11.6294934 C29.2607644,12.6071551 28.7938753,13.3623247 27.9854243,13.8950249 C27.1769734,14.4277252 26.1397902,14.6940713 24.8738437,14.6940713 Z M34.1239806,14.6940713 C32.9081707,14.6940713 31.9524581,14.4559266 31.2568142,13.9796299 C30.5611704,13.5033332 30.2133537,12.8703694 30.2133537,12.0807196 C30.2133537,11.9428443 30.2196206,11.8363058 30.2321547,11.7611011 L30.2509558,11.6670956 C30.26349,11.5668226 30.3010918,11.4853521 30.3637624,11.4226814 C30.426433,11.3600108 30.5079036,11.328676 30.6081766,11.328676 L32.8455064,11.328676 C33.0836548,11.328676 33.1901932,11.3662778 33.165125,11.4414825 L33.1463239,11.5542891 C33.1212556,11.7924374 33.2246606,11.9898469 33.4565419,12.1465235 C33.6884232,12.3032 33.9986381,12.3815371 34.3871959,12.3815371 C34.7506855,12.3815371 35.0420995,12.3157339 35.2614467,12.1841256 C35.4807938,12.0525173 35.5904658,11.8801757 35.5904658,11.6670956 C35.5904658,11.4916179 35.4901943,11.3600116 35.2896483,11.2722727 C35.0891023,11.1845339 34.76322,11.0967963 34.3119915,11.0090574 C33.5724783,10.858648 32.9771163,10.6769059 32.5258879,10.4638258 C31.9994547,10.2256774 31.5795678,9.93426345 31.2662148,9.58957505 C30.9528617,9.24488665 30.7961875,8.79053149 30.7961875,8.22649593 C30.7961875,8.06355233 30.8024544,7.93821297 30.8149886,7.85047411 C30.9403298,6.87281247 31.4040854,6.09884196 32.2062693,5.52853934 C33.0084532,4.95823672 34.0111681,4.67308968 35.2144439,4.67308968 C36.3550492,4.67308968 37.260626,4.93316885 37.9312016,5.45333497 C38.6017772,5.9735011 38.93706,6.66600103 38.93706,7.53085556 C38.93706,7.69379916 38.930793,7.81913852 38.9182589,7.90687738 C38.9057248,7.969548 38.868123,8.02281722 38.8054524,8.06668666 C38.7427817,8.11055609 38.6613112,8.13249048 38.5610382,8.13249048 L36.3801116,8.13249048 C36.1670315,8.13249048 36.060493,8.09488867 36.060493,8.01968393 L36.0792941,7.90687738 C36.1043624,7.66872903 36.0197583,7.47445303 35.8254794,7.32404355 C35.6312005,7.17363407 35.3460534,7.09843046 34.9700297,7.09843046 C34.6065402,7.09843046 34.3088592,7.16423362 34.0769779,7.29584192 C33.8450966,7.42745021 33.7291577,7.60605879 33.7291577,7.83167302 C33.7291577,8.03221899 33.8419631,8.17949273 34.0675774,8.27349866 C34.2931916,8.36750459 34.6629427,8.46464259 35.1768417,8.56491557 C35.7784797,8.66518856 36.2547692,8.77799398 36.6057247,8.90333522 C37.2574991,9.12894944 37.76199,9.42663041 38.1192125,9.79638705 C38.476435,10.1661437 38.6550436,10.6518337 38.6550436,11.2534716 C38.6550436,11.4164152 38.6487767,11.5417546 38.6362425,11.6294934 C38.5109013,12.6071551 38.0440122,13.3623247 37.2355612,13.8950249 C36.4271103,14.4277252 35.3899271,14.6940713 34.1239806,14.6940713 Z" id="pass"></path>
                    </g>
                    <g id="LOGO/logo">
                        <rect id="Background" x="0" y="0" width="25.0197276" height="39.3927626"></rect>
                        <path d="M12.8444544,28.2171455 C13.4332078,28.2211436 14.0250929,28.2357248 14.607583,28.2654751 C19.4385709,28.5132377 24.572939,29.9234974 24.572939,32.0494111 C24.572939,33.7567037 21.4502755,35.1735484 17.8335915,36.8140497 C17.1254433,37.1355414 16.3730603,37.4779641 15.6328125,37.8273247 C14.9086145,38.1695123 14.3194696,38.4593722 13.7518549,38.7534653 L12.7121415,39.2618079 L11.6458089,38.7397073 C11.1052048,38.4593722 10.51606,38.1695123 9.79186195,37.8273247 C9.05161415,37.4779641 8.29923114,37.1355414 7.59069147,36.8140497 C3.97439894,35.1735484 0.851735421,33.7567037 0.851735421,32.0494111 C0.851735421,29.9234974 5.98610356,28.5132377 10.8170915,28.2654751 C11.3995815,28.2357248 11.9914666,28.2211436 12.5806115,28.2137354 C12.6244548,28.2137354 12.6682981,28.2152641 12.7121415,28.2154993 C12.7563763,28.2152641 12.8002196,28.2137354 12.8444544,28.2171455 Z M12.7561368,30.8424081 C12.741472,30.8412775 12.7269371,30.8417843 12.7122723,30.8418623 C12.6977374,30.8417843 12.6832024,30.8412775 12.6686674,30.8412775 C12.4733537,30.8437335 12.2771316,30.8485675 12.0840242,30.8584303 C10.4824521,30.9405687 8.78030328,31.4080989 8.78030328,32.1128831 C8.78030328,32.6788858 10.8401978,33.3239172 12.7870716,33.3239172 C14.7339453,33.3239172 16.6443711,32.6788858 16.6443711,32.1128831 C16.6443711,31.4080989 14.9422223,30.9405687 13.3406502,30.8584303 C13.1475428,30.8485675 12.9513207,30.8437335 12.7561368,30.8424081 Z" id="Combined-Shape" fill-opacity="0.450000018" fill="url(#linearGradient-1)"></path>
                        <path d="M16.6376828,16.54072 C18.3410217,15.7938279 19.7146128,14.1373286 20.1943271,12.0672276 C20.6654433,10.036371 20.1932625,7.91661445 18.9321617,6.39786375 C17.6753197,4.8860334 15.3825544,3.94646278 12.9487205,3.94646278 C12.3918985,3.94646278 11.8414644,3.9959699 11.3123238,4.0928548 C8.39033904,4.62359243 4.06724951,8.09760823 4.06724951,13.8670509 C4.06724951,18.5015562 6.81995188,22.7607656 10.304082,28.1543801 C10.6490349,28.6872471 10.9977141,29.2286314 11.3463932,29.773742 C11.797813,30.4774884 12.2502974,31.1913492 12.7043789,31.9238416 L12.7043789,39.2264081 L11.6327893,37.4393607 C11.0482858,36.4045022 10.4403597,35.3850814 9.69402655,34.1820051 C8.93065869,32.9539091 8.15504713,31.7497682 7.42521636,30.6190894 C3.69727694,24.8512437 0.477717097,19.8696562 0.477717097,13.8659863 C0.477717097,6.3909434 5.77018799,1.43277866 10.7507108,0.561346868 C11.4411488,0.441039241 12.1438305,0.379288424 12.8401242,0.379288424 C16.1139822,0.379288424 19.1296579,1.69734897 21.1131367,3.99384056 C22.6718125,5.79951963 23.5338752,7.3062928 23.4782995,10.3073293 C23.4227237,13.3083658 21.379304,15.7038716 18.6317121,16.5023735 C17.8332101,16.7685409 16.6376828,16.54072 16.6376828,16.54072 Z M14.4557598,20.6947749 L14.2779601,20.6931779 C14.2470846,20.6931779 14.2167416,20.6926456 14.1869308,20.6910486 C13.6444818,20.6601732 13.1004358,20.575532 12.5681012,20.4408513 C10.0783722,19.8052437 7.69777169,17.2846393 7.96287433,13.6919129 C8.20295725,10.4388159 10.3413455,8.07844418 13.0466701,8.07844418 C13.4075929,8.07844418 13.7679835,8.12049862 14.1177273,8.20354282 C14.4690682,8.28658702 14.8166827,8.41115332 15.1749439,8.58682375 C16.1933001,8.99938309 16.6936946,10.1822306 16.2912496,11.2245418 C15.9894159,12.0049444 15.2649085,12.5095976 14.4456455,12.5095976 C14.1970452,12.5095976 13.9511066,12.4616875 13.7424314,12.3770463 C13.5161892,12.2673854 13.2888823,12.2130873 13.0466701,12.2130873 C12.2055813,12.2130873 11.6285306,12.9077839 11.5390984,14.0256867 L11.5375014,14.0725321 C11.5375014,14.2849336 11.5481481,14.5101112 11.5721031,14.7831988 C11.7334005,15.9170716 12.4398086,16.9721588 13.417175,17.5353689 C14.4121084,18.1102903 15.6465924,18.4264971 16.8927878,18.4259647 C18.5941292,18.4259647 20.4738028,17.840929 21.9127033,16.4195955 C21.5544421,17.0339097 21.1259127,17.6221394 20.6191302,18.1582004 C19.026385,19.8409102 16.9524092,20.6953073 14.4557598,20.6947749 Z" id="Fill-1" fill="#E60039"></path>
                    </g>
                </g>
            </g>
        </g>
    </g>
</svg>