<svg xmlns="http://www.w3.org/2000/svg" width="186" height="108" fill="none"><g id="triangles" clip-path="url(#clip0_2328_483)"><path id="Polygon 1" fill="url(#paint0_linear_2328_483)" d="M142.996-20.73c-.067-1.543 1.566-2.577 2.932-1.856l62.95 33.24c1.359.719 1.434 2.637.136 3.46L149.16 51.992c-1.299.822-3.001-.068-3.068-1.603z" opacity=".2"/><path id="Polygon 2" fill="url(#paint1_linear_2328_483)" d="M114.465 29.8c-1.524-.255-2.195-2.068-1.205-3.254l10.258-12.288c.985-1.18 2.878-.853 3.411.588l5.528 14.937c.534 1.442-.69 2.921-2.206 2.667z" opacity=".2"/><path id="Polygon 3" fill="url(#paint2_linear_2328_483)" d="M180.455 37.862c.678-1.388 2.606-1.516 3.462-.23l12.877 19.361c.851 1.28 0 3.002-1.533 3.103l-23.086 1.53c-1.534.102-2.604-1.492-1.929-2.873z" opacity=".2"/></g><defs><linearGradient id="paint0_linear_2328_483" x1="131.438" x2="177.566" y1="38.548" y2="25.732" gradientUnits="userSpaceOnUse"><stop stop-color="#fff"/><stop offset="1" stop-color="#fff" stop-opacity="0"/></linearGradient><linearGradient id="paint1_linear_2328_483" x1="111.025" x2="129.693" y1="29.223" y2="22.315" gradientUnits="userSpaceOnUse"><stop stop-color="#fff"/><stop offset="1" stop-color="#fff" stop-opacity="0"/></linearGradient><linearGradient id="paint2_linear_2328_483" x1="181.986" x2="190.08" y1="34.728" y2="71.86" gradientUnits="userSpaceOnUse"><stop stop-color="#fff"/><stop offset="1" stop-color="#fff" stop-opacity="0"/></linearGradient><clipPath id="clip0_2328_483"><path fill="#fff" d="M0 0h186v108H0z"/></clipPath></defs></svg>