<svg width="239" height="54" viewBox="0 0 239 54" fill="none" xmlns="http://www.w3.org/2000/svg">
<rect x="47.4375" y="10.1719" width="191.238" height="10.8504" rx="5.10947" fill="#6123DF"/>
<path d="M17.2889 13.3844V6.51798H19.5104V13.3844H17.2889ZM14.8367 11.0042V8.89814H21.9483V11.0042H14.8367ZM31.2726 15.1298C30.561 15.1298 29.9118 14.9663 29.3252 14.6394C28.7482 14.3028 28.2866 13.8364 27.9404 13.2401C27.5942 12.6343 27.4211 11.913 27.4211 11.0763C27.4211 10.2493 27.5942 9.53766 27.9404 8.94142C28.2866 8.33556 28.7482 7.86914 29.3252 7.54217C29.9118 7.2152 30.561 7.05172 31.2726 7.05172C31.9458 7.05172 32.5132 7.19597 32.9748 7.48447C33.446 7.77297 33.8018 8.21535 34.0422 8.81159C34.2827 9.40783 34.4029 10.1627 34.4029 11.0763C34.4029 12.0092 34.2875 12.7737 34.0567 13.37C33.8259 13.9662 33.4797 14.4086 33.018 14.6971C32.5564 14.9856 31.9746 15.1298 31.2726 15.1298ZM31.8496 12.9516C32.1573 12.9516 32.4314 12.8795 32.6718 12.7352C32.9219 12.591 33.119 12.3794 33.2633 12.1005C33.4075 11.812 33.4797 11.4706 33.4797 11.0763C33.4797 10.6821 33.4075 10.3503 33.2633 10.081C33.119 9.80212 32.9219 9.59055 32.6718 9.4463C32.4314 9.30205 32.1573 9.22992 31.8496 9.22992C31.5323 9.22992 31.2486 9.30205 30.9985 9.4463C30.7581 9.59055 30.5658 9.80212 30.4215 10.081C30.2773 10.3503 30.2051 10.6821 30.2051 11.0763C30.2051 11.4706 30.2773 11.812 30.4215 12.1005C30.5658 12.3794 30.7581 12.591 30.9985 12.7352C31.2486 12.8795 31.5323 12.9516 31.8496 12.9516ZM33.5662 15V13.6585L33.5806 11.0763L33.4364 8.49423V4.2965H36.1772V15H33.5662ZM42.0373 15.1298C41.1141 15.1298 40.3063 14.9567 39.6139 14.6105C38.9311 14.2547 38.3973 13.7739 38.0127 13.168C37.6376 12.5525 37.4501 11.8553 37.4501 11.0763C37.4501 10.2974 37.6328 9.60498 37.9982 8.99912C38.3733 8.38364 38.8878 7.90761 39.5417 7.57102C40.1957 7.22482 40.9314 7.05172 41.7488 7.05172C42.5181 7.05172 43.2202 7.21039 43.8549 7.52775C44.4896 7.83548 44.9945 8.29228 45.3695 8.89814C45.7446 9.504 45.9321 10.2397 45.9321 11.1052C45.9321 11.2014 45.9273 11.312 45.9177 11.437C45.9081 11.562 45.8984 11.6774 45.8888 11.7832H39.7004V10.3407H44.4319L43.3933 10.7446C43.4029 10.3887 43.3356 10.081 43.1913 9.82135C43.0567 9.5617 42.8643 9.35975 42.6143 9.21549C42.3739 9.07124 42.0902 8.99912 41.7632 8.99912C41.4362 8.99912 41.1477 9.07124 40.8977 9.21549C40.6573 9.35975 40.4698 9.56651 40.3351 9.83578C40.2005 10.0954 40.1332 10.4032 40.1332 10.759V11.1773C40.1332 11.562 40.2101 11.8938 40.364 12.1727C40.5275 12.4515 40.7583 12.6679 41.0564 12.8218C41.3545 12.966 41.7103 13.0382 42.1238 13.0382C42.5085 13.0382 42.8355 12.9853 43.1048 12.8795C43.3836 12.7641 43.6577 12.591 43.927 12.3602L45.3695 13.8604C44.9945 14.2739 44.5328 14.5913 43.9847 14.8125C43.4365 15.024 42.7874 15.1298 42.0373 15.1298ZM54.3797 15.202C53.6777 15.202 52.9757 15.1154 52.2737 14.9423C51.5813 14.7692 50.9754 14.524 50.4561 14.2066L51.4947 12.0573C51.8986 12.3265 52.3458 12.5333 52.8362 12.6775C53.3363 12.8218 53.822 12.8939 54.2932 12.8939C54.7836 12.8939 55.1731 12.8026 55.4616 12.6198C55.7501 12.4371 55.8944 12.1775 55.8944 11.8409C55.8944 11.5428 55.7742 11.3071 55.5338 11.134C55.2933 10.9513 54.899 10.86 54.3509 10.86H53.1536V9.05682L55.8655 6.1285L56.1396 7.10942H50.9754V4.90236H58.2745V6.69108L55.5626 9.6194L54.1634 8.82601H54.9423C56.2021 8.82601 57.1542 9.10971 57.7985 9.6771C58.4525 10.2349 58.7794 10.9561 58.7794 11.8409C58.7794 12.4179 58.6207 12.9612 58.3034 13.4709C57.9957 13.9806 57.5196 14.3989 56.8753 14.7259C56.231 15.0433 55.3991 15.202 54.3797 15.202ZM64.3698 15.202C63.4273 15.202 62.6051 15.0144 61.903 14.6394C61.2106 14.2643 60.6673 13.7065 60.273 12.966C59.8883 12.2256 59.696 11.312 59.696 10.2253C59.696 9.05201 59.922 8.05667 60.374 7.23924C60.8356 6.4122 61.4655 5.7823 62.2637 5.34954C63.0715 4.91678 64.0043 4.70041 65.0622 4.70041C65.6296 4.70041 66.1729 4.76772 66.6922 4.90236C67.2211 5.02738 67.6683 5.20529 68.0338 5.43609L66.9951 7.48447C66.7066 7.28252 66.4037 7.14788 66.0864 7.08057C65.7786 7.00363 65.4613 6.96516 65.1343 6.96516C64.3553 6.96516 63.7302 7.20077 63.259 7.672C62.7974 8.14322 62.5666 8.83082 62.5666 9.7348C62.5666 9.89829 62.5666 10.0714 62.5666 10.2541C62.5762 10.4272 62.5955 10.6051 62.6243 10.7878L61.903 10.1964C62.0954 9.84059 62.3262 9.54247 62.5955 9.30205C62.8743 9.06163 63.2013 8.87891 63.5764 8.75389C63.961 8.62887 64.389 8.56636 64.8602 8.56636C65.4949 8.56636 66.0719 8.701 66.5912 8.97027C67.1202 9.22992 67.5433 9.60017 67.8607 10.081C68.178 10.5522 68.3367 11.11 68.3367 11.7543C68.3367 12.4564 68.1588 13.067 67.803 13.5863C67.4471 14.096 66.9711 14.4951 66.3749 14.7836C65.7786 15.0625 65.1102 15.202 64.3698 15.202ZM64.1967 13.168C64.4659 13.168 64.7015 13.1151 64.9035 13.0093C65.1151 12.9035 65.2785 12.7545 65.3939 12.5621C65.5093 12.3698 65.567 12.1438 65.567 11.8842C65.567 11.4995 65.4372 11.1917 65.1776 10.9609C64.9275 10.7301 64.5957 10.6147 64.1822 10.6147C63.9033 10.6147 63.6581 10.6676 63.4465 10.7734C63.2446 10.8792 63.0811 11.0283 62.9561 11.2206C62.8407 11.4129 62.783 11.6389 62.783 11.8986C62.783 12.1486 62.8407 12.3698 62.9561 12.5621C63.0715 12.7449 63.235 12.8939 63.4465 13.0093C63.6581 13.1151 63.9081 13.168 64.1967 13.168ZM77.7193 15.202C76.8538 15.202 76.0844 14.9952 75.4112 14.5817C74.7477 14.1681 74.2236 13.5719 73.8389 12.7929C73.4542 12.014 73.2619 11.0667 73.2619 9.95118C73.2619 8.83563 73.4542 7.88838 73.8389 7.10942C74.2236 6.33045 74.7477 5.73421 75.4112 5.32069C76.0844 4.90717 76.8538 4.70041 77.7193 4.70041C78.5752 4.70041 79.3349 4.90717 79.9984 5.32069C80.6716 5.73421 81.2005 6.33045 81.5852 7.10942C81.9699 7.88838 82.1622 8.83563 82.1622 9.95118C82.1622 11.0667 81.9699 12.014 81.5852 12.7929C81.2005 13.5719 80.6716 14.1681 79.9984 14.5817C79.3349 14.9952 78.5752 15.202 77.7193 15.202ZM77.7193 12.8651C78.027 12.8651 78.2963 12.7689 78.5271 12.5766C78.7675 12.3842 78.955 12.0765 79.0897 11.6534C79.2243 11.2206 79.2916 10.6532 79.2916 9.95118C79.2916 9.23954 79.2243 8.67215 79.0897 8.24901C78.955 7.82587 78.7675 7.51813 78.5271 7.32579C78.2963 7.13346 78.027 7.03729 77.7193 7.03729C77.4115 7.03729 77.1374 7.13346 76.897 7.32579C76.6662 7.51813 76.4787 7.82587 76.3344 8.24901C76.1998 8.67215 76.1325 9.23954 76.1325 9.95118C76.1325 10.6532 76.1998 11.2206 76.3344 11.6534C76.4787 12.0765 76.6662 12.3842 76.897 12.5766C77.1374 12.7689 77.4115 12.8651 77.7193 12.8651ZM87.5943 15.202C86.7288 15.202 85.9595 14.9952 85.2863 14.5817C84.6227 14.1681 84.0986 13.5719 83.7139 12.7929C83.3293 12.014 83.1369 11.0667 83.1369 9.95118C83.1369 8.83563 83.3293 7.88838 83.7139 7.10942C84.0986 6.33045 84.6227 5.73421 85.2863 5.32069C85.9595 4.90717 86.7288 4.70041 87.5943 4.70041C88.4502 4.70041 89.21 4.90717 89.8735 5.32069C90.5467 5.73421 91.0756 6.33045 91.4603 7.10942C91.845 7.88838 92.0373 8.83563 92.0373 9.95118C92.0373 11.0667 91.845 12.014 91.4603 12.7929C91.0756 13.5719 90.5467 14.1681 89.8735 14.5817C89.21 14.9952 88.4502 15.202 87.5943 15.202ZM87.5943 12.8651C87.9021 12.8651 88.1713 12.7689 88.4021 12.5766C88.6426 12.3842 88.8301 12.0765 88.9647 11.6534C89.0994 11.2206 89.1667 10.6532 89.1667 9.95118C89.1667 9.23954 89.0994 8.67215 88.9647 8.24901C88.8301 7.82587 88.6426 7.51813 88.4021 7.32579C88.1713 7.13346 87.9021 7.03729 87.5943 7.03729C87.2866 7.03729 87.0125 7.13346 86.7721 7.32579C86.5413 7.51813 86.3538 7.82587 86.2095 8.24901C86.0749 8.67215 86.0076 9.23954 86.0076 9.95118C86.0076 10.6532 86.0749 11.2206 86.2095 11.6534C86.3538 12.0765 86.5413 12.3842 86.7721 12.5766C87.0125 12.7689 87.2866 12.8651 87.5943 12.8651ZM97.4694 15.202C96.6039 15.202 95.8345 14.9952 95.1614 14.5817C94.4978 14.1681 93.9737 13.5719 93.589 12.7929C93.2043 12.014 93.012 11.0667 93.012 9.95118C93.012 8.83563 93.2043 7.88838 93.589 7.10942C93.9737 6.33045 94.4978 5.73421 95.1614 5.32069C95.8345 4.90717 96.6039 4.70041 97.4694 4.70041C98.3253 4.70041 99.085 4.90717 99.7486 5.32069C100.422 5.73421 100.951 6.33045 101.335 7.10942C101.72 7.88838 101.912 8.83563 101.912 9.95118C101.912 11.0667 101.72 12.014 101.335 12.7929C100.951 13.5719 100.422 14.1681 99.7486 14.5817C99.085 14.9952 98.3253 15.202 97.4694 15.202ZM97.4694 12.8651C97.7771 12.8651 98.0464 12.7689 98.2772 12.5766C98.5176 12.3842 98.7051 12.0765 98.8398 11.6534C98.9744 11.2206 99.0417 10.6532 99.0417 9.95118C99.0417 9.23954 98.9744 8.67215 98.8398 8.24901C98.7051 7.82587 98.5176 7.51813 98.2772 7.32579C98.0464 7.13346 97.7771 7.03729 97.4694 7.03729C97.1617 7.03729 96.8876 7.13346 96.6472 7.32579C96.4163 7.51813 96.2288 7.82587 96.0846 8.24901C95.9499 8.67215 95.8826 9.23954 95.8826 9.95118C95.8826 10.6532 95.9499 11.2206 96.0846 11.6534C96.2288 12.0765 96.4163 12.3842 96.6472 12.5766C96.8876 12.7689 97.1617 12.8651 97.4694 12.8651ZM112.249 15V13.5431L112.062 13.1824V10.4993C112.062 10.0666 111.927 9.7348 111.658 9.504C111.398 9.26358 110.98 9.14337 110.403 9.14337C110.028 9.14337 109.648 9.20588 109.263 9.3309C108.879 9.4463 108.552 9.60978 108.282 9.82135L107.359 7.9605C107.801 7.672 108.33 7.45081 108.946 7.29694C109.571 7.13346 110.191 7.05172 110.807 7.05172C112.076 7.05172 113.057 7.34503 113.749 7.93165C114.451 8.50866 114.803 9.41745 114.803 10.658V15H112.249ZM109.941 15.1298C109.316 15.1298 108.787 15.024 108.354 14.8125C107.922 14.6009 107.59 14.3124 107.359 13.947C107.138 13.5815 107.027 13.1728 107.027 12.7208C107.027 12.24 107.148 11.8265 107.388 11.4803C107.638 11.1244 108.018 10.8552 108.528 10.6724C109.037 10.4801 109.696 10.3839 110.504 10.3839H112.35V11.812H110.879C110.436 11.812 110.124 11.8842 109.941 12.0284C109.768 12.1727 109.682 12.365 109.682 12.6054C109.682 12.8458 109.773 13.0382 109.956 13.1824C110.138 13.3267 110.388 13.3988 110.706 13.3988C111.004 13.3988 111.273 13.3267 111.514 13.1824C111.764 13.0286 111.946 12.7978 112.062 12.49L112.437 13.4998C112.293 14.0383 112.009 14.447 111.586 14.7259C111.172 14.9952 110.624 15.1298 109.941 15.1298ZM120.627 15.1298C119.761 15.1298 118.987 14.9567 118.304 14.6105C117.631 14.2643 117.102 13.7883 116.718 13.1824C116.333 12.5669 116.141 11.8649 116.141 11.0763C116.141 10.2878 116.333 9.59055 116.718 8.98469C117.102 8.37883 117.631 7.90761 118.304 7.57102C118.987 7.22482 119.761 7.05172 120.627 7.05172C121.512 7.05172 122.276 7.23924 122.921 7.6143C123.565 7.98935 124.022 8.51828 124.291 9.20107L122.17 10.283C121.988 9.91752 121.762 9.65306 121.492 9.48957C121.223 9.31647 120.93 9.22992 120.612 9.22992C120.295 9.22992 120.007 9.30205 119.747 9.4463C119.487 9.59055 119.281 9.80212 119.127 10.081C118.982 10.3503 118.91 10.6821 118.91 11.0763C118.91 11.4803 118.982 11.8216 119.127 12.1005C119.281 12.3794 119.487 12.591 119.747 12.7352C120.007 12.8795 120.295 12.9516 120.612 12.9516C120.93 12.9516 121.223 12.8699 121.492 12.7064C121.762 12.5333 121.988 12.264 122.17 11.8986L124.291 12.9805C124.022 13.6633 123.565 14.1922 122.921 14.5672C122.276 14.9423 121.512 15.1298 120.627 15.1298ZM128.941 15.1298C127.94 15.1298 127.161 14.8846 126.604 14.3941C126.046 13.8941 125.767 13.144 125.767 12.1438V5.43609H128.508V12.115C128.508 12.3938 128.585 12.615 128.739 12.7785C128.892 12.9324 129.09 13.0093 129.33 13.0093C129.657 13.0093 129.936 12.9276 130.167 12.7641L130.845 14.6826C130.614 14.8365 130.33 14.9471 129.994 15.0144C129.657 15.0914 129.306 15.1298 128.941 15.1298ZM124.627 9.51842V7.47005H130.297V9.51842H124.627ZM135.773 15.1298C134.85 15.1298 134.042 14.9567 133.349 14.6105C132.667 14.2547 132.133 13.7739 131.748 13.168C131.373 12.5525 131.186 11.8553 131.186 11.0763C131.186 10.2974 131.368 9.60498 131.734 8.99912C132.109 8.38364 132.623 7.90761 133.277 7.57102C133.931 7.22482 134.667 7.05172 135.484 7.05172C136.254 7.05172 136.956 7.21039 137.59 7.52775C138.225 7.83548 138.73 8.29228 139.105 8.89814C139.48 9.504 139.668 10.2397 139.668 11.1052C139.668 11.2014 139.663 11.312 139.653 11.437C139.644 11.562 139.634 11.6774 139.624 11.7832H133.436V10.3407H138.167L137.129 10.7446C137.138 10.3887 137.071 10.081 136.927 9.82135C136.792 9.5617 136.6 9.35975 136.35 9.21549C136.11 9.07124 135.826 8.99912 135.499 8.99912C135.172 8.99912 134.883 9.07124 134.633 9.21549C134.393 9.35975 134.205 9.56651 134.071 9.83578C133.936 10.0954 133.869 10.4032 133.869 10.759V11.1773C133.869 11.562 133.946 11.8938 134.1 12.1727C134.263 12.4515 134.494 12.6679 134.792 12.8218C135.09 12.966 135.446 13.0382 135.859 13.0382C136.244 13.0382 136.571 12.9853 136.84 12.8795C137.119 12.7641 137.393 12.591 137.663 12.3602L139.105 13.8604C138.73 14.2739 138.268 14.5913 137.72 14.8125C137.172 15.024 136.523 15.1298 135.773 15.1298ZM144.22 15.1298C143.586 15.1298 143.013 15.0048 142.504 14.7548C142.004 14.5047 141.609 14.1153 141.321 13.5863C141.042 13.0478 140.903 12.3698 140.903 11.5524V7.18154H143.643V11.1052C143.643 11.7111 143.754 12.1438 143.975 12.4035C144.206 12.6631 144.528 12.7929 144.942 12.7929C145.211 12.7929 145.456 12.7304 145.677 12.6054C145.898 12.4804 146.076 12.2833 146.211 12.014C146.346 11.7351 146.413 11.3793 146.413 10.9465V7.18154H149.154V15H146.543V12.7929L147.048 13.4132C146.778 13.9902 146.389 14.423 145.879 14.7115C145.37 14.9904 144.817 15.1298 144.22 15.1298ZM150.919 15V7.18154H153.53V9.46072L153.141 8.81159C153.371 8.22496 153.746 7.7874 154.266 7.4989C154.785 7.20078 155.415 7.05172 156.156 7.05172V9.51842C156.03 9.49919 155.92 9.48957 155.824 9.48957C155.737 9.47996 155.641 9.47515 155.535 9.47515C154.977 9.47515 154.525 9.62902 154.179 9.93675C153.833 10.2349 153.66 10.7253 153.66 11.4081V15H150.919ZM160.156 15.1298C159.493 15.1298 158.844 15.0529 158.209 14.899C157.584 14.7452 157.079 14.5528 156.694 14.322L157.517 12.4467C157.882 12.6679 158.31 12.8458 158.8 12.9805C159.291 13.1055 159.772 13.168 160.243 13.168C160.705 13.168 161.022 13.1199 161.195 13.0237C161.378 12.9276 161.469 12.7978 161.469 12.6343C161.469 12.4804 161.383 12.3698 161.209 12.3025C161.046 12.2256 160.825 12.1679 160.546 12.1294C160.277 12.0909 159.979 12.0476 159.652 11.9996C159.325 11.9515 158.993 11.889 158.656 11.812C158.329 11.7255 158.026 11.6005 157.747 11.437C157.478 11.2639 157.262 11.0331 157.098 10.7446C156.935 10.4561 156.853 10.0906 156.853 9.64825C156.853 9.14818 156.997 8.7058 157.286 8.32113C157.584 7.92684 158.017 7.61911 158.584 7.39792C159.151 7.16712 159.844 7.05172 160.661 7.05172C161.209 7.05172 161.762 7.10942 162.32 7.22482C162.888 7.3306 163.364 7.49409 163.748 7.71527L162.926 9.57612C162.541 9.35494 162.157 9.20588 161.772 9.12894C161.387 9.04239 161.022 8.99912 160.676 8.99912C160.214 8.99912 159.887 9.05201 159.695 9.15779C159.512 9.26358 159.421 9.39341 159.421 9.54727C159.421 9.70114 159.503 9.82135 159.666 9.9079C159.829 9.98484 160.046 10.0473 160.315 10.0954C160.594 10.1339 160.897 10.1772 161.224 10.2253C161.551 10.2637 161.878 10.3262 162.205 10.4128C162.541 10.4993 162.844 10.6292 163.114 10.8023C163.393 10.9658 163.614 11.1917 163.777 11.4803C163.941 11.7591 164.022 12.1198 164.022 12.5621C164.022 13.043 163.873 13.4757 163.575 13.8604C163.287 14.2451 162.854 14.5528 162.277 14.7836C161.71 15.0144 161.003 15.1298 160.156 15.1298ZM173.397 15.1298C172.532 15.1298 171.758 14.9567 171.075 14.6105C170.402 14.2643 169.873 13.7883 169.488 13.1824C169.103 12.5669 168.911 11.8649 168.911 11.0763C168.911 10.2878 169.103 9.59055 169.488 8.98469C169.873 8.37883 170.402 7.90761 171.075 7.57102C171.758 7.22482 172.532 7.05172 173.397 7.05172C174.282 7.05172 175.046 7.23924 175.691 7.6143C176.335 7.98935 176.792 8.51828 177.061 9.20107L174.941 10.283C174.758 9.91752 174.532 9.65306 174.263 9.48957C173.993 9.31647 173.7 9.22992 173.383 9.22992C173.065 9.22992 172.777 9.30205 172.517 9.4463C172.258 9.59055 172.051 9.80212 171.897 10.081C171.753 10.3503 171.681 10.6821 171.681 11.0763C171.681 11.4803 171.753 11.8216 171.897 12.1005C172.051 12.3794 172.258 12.591 172.517 12.7352C172.777 12.8795 173.065 12.9516 173.383 12.9516C173.7 12.9516 173.993 12.8699 174.263 12.7064C174.532 12.5333 174.758 12.264 174.941 11.8986L177.061 12.9805C176.792 13.6633 176.335 14.1922 175.691 14.5672C175.046 14.9423 174.282 15.1298 173.397 15.1298ZM181.382 15.1298C180.747 15.1298 180.175 15.0048 179.666 14.7548C179.165 14.5047 178.771 14.1153 178.483 13.5863C178.204 13.0478 178.064 12.3698 178.064 11.5524V7.18154H180.805V11.1052C180.805 11.7111 180.916 12.1438 181.137 12.4035C181.368 12.6631 181.69 12.7929 182.103 12.7929C182.373 12.7929 182.618 12.7304 182.839 12.6054C183.06 12.4804 183.238 12.2833 183.373 12.014C183.507 11.7351 183.575 11.3793 183.575 10.9465V7.18154H186.316V15H183.705V12.7929L184.209 13.4132C183.94 13.9902 183.551 14.423 183.041 14.7115C182.531 14.9904 181.978 15.1298 181.382 15.1298ZM188.081 15V4.2965H190.822V15H188.081ZM196.883 15.1298C195.883 15.1298 195.104 14.8846 194.546 14.3941C193.988 13.8941 193.709 13.144 193.709 12.1438V5.43609H196.45V12.115C196.45 12.3938 196.527 12.615 196.681 12.7785C196.835 12.9324 197.032 13.0093 197.272 13.0093C197.599 13.0093 197.878 12.9276 198.109 12.7641L198.787 14.6826C198.556 14.8365 198.272 14.9471 197.936 15.0144C197.599 15.0914 197.248 15.1298 196.883 15.1298ZM192.57 9.51842V7.47005H198.239V9.51842H192.57ZM203.133 15.1298C202.498 15.1298 201.926 15.0048 201.416 14.7548C200.916 14.5047 200.522 14.1153 200.233 13.5863C199.954 13.0478 199.815 12.3698 199.815 11.5524V7.18154H202.556V11.1052C202.556 11.7111 202.666 12.1438 202.887 12.4035C203.118 12.6631 203.44 12.7929 203.854 12.7929C204.123 12.7929 204.368 12.7304 204.59 12.6054C204.811 12.4804 204.989 12.2833 205.123 12.014C205.258 11.7351 205.325 11.3793 205.325 10.9465V7.18154H208.066V15H205.455V12.7929L205.96 13.4132C205.691 13.9902 205.301 14.423 204.792 14.7115C204.282 14.9904 203.729 15.1298 203.133 15.1298ZM209.831 15V7.18154H212.442V9.46072L212.053 8.81159C212.284 8.22496 212.659 7.7874 213.178 7.4989C213.697 7.20078 214.327 7.05172 215.068 7.05172V9.51842C214.943 9.49919 214.832 9.48957 214.736 9.48957C214.649 9.47996 214.553 9.47515 214.447 9.47515C213.89 9.47515 213.438 9.62902 213.092 9.93675C212.745 10.2349 212.572 10.7253 212.572 11.4081V15H209.831ZM220.225 15.1298C219.302 15.1298 218.494 14.9567 217.802 14.6105C217.119 14.2547 216.585 13.7739 216.201 13.168C215.825 12.5525 215.638 11.8553 215.638 11.0763C215.638 10.2974 215.821 9.60498 216.186 8.99912C216.561 8.38364 217.076 7.90761 217.73 7.57102C218.384 7.22482 219.119 7.05172 219.937 7.05172C220.706 7.05172 221.408 7.21039 222.043 7.52775C222.677 7.83548 223.182 8.29228 223.557 8.89814C223.932 9.504 224.12 10.2397 224.12 11.1052C224.12 11.2014 224.115 11.312 224.106 11.437C224.096 11.562 224.086 11.6774 224.077 11.7832H217.888V10.3407H222.62L221.581 10.7446C221.591 10.3887 221.523 10.081 221.379 9.82135C221.245 9.5617 221.052 9.35975 220.802 9.21549C220.562 9.07124 220.278 8.99912 219.951 8.99912C219.624 8.99912 219.336 9.07124 219.086 9.21549C218.845 9.35975 218.658 9.56651 218.523 9.83578C218.388 10.0954 218.321 10.4032 218.321 10.759V11.1773C218.321 11.562 218.398 11.8938 218.552 12.1727C218.715 12.4515 218.946 12.6679 219.244 12.8218C219.542 12.966 219.898 13.0382 220.312 13.0382C220.696 13.0382 221.023 12.9853 221.293 12.8795C221.571 12.7641 221.846 12.591 222.115 12.3602L223.557 13.8604C223.182 14.2739 222.721 14.5913 222.173 14.8125C221.624 15.024 220.975 15.1298 220.225 15.1298ZM225.384 15V4.2965H228.124V15H225.384ZM232.747 15.1298C232.084 15.1298 231.435 15.0529 230.8 14.899C230.175 14.7452 229.67 14.5528 229.285 14.322L230.108 12.4467C230.473 12.6679 230.901 12.8458 231.391 12.9805C231.882 13.1055 232.363 13.168 232.834 13.168C233.295 13.168 233.613 13.1199 233.786 13.0237C233.969 12.9276 234.06 12.7978 234.06 12.6343C234.06 12.4804 233.973 12.3698 233.8 12.3025C233.637 12.2256 233.416 12.1679 233.137 12.1294C232.868 12.0909 232.569 12.0476 232.242 11.9996C231.915 11.9515 231.584 11.889 231.247 11.812C230.92 11.7255 230.617 11.6005 230.338 11.437C230.069 11.2639 229.853 11.0331 229.689 10.7446C229.526 10.4561 229.444 10.0906 229.444 9.64825C229.444 9.14818 229.588 8.7058 229.877 8.32113C230.175 7.92684 230.608 7.61911 231.175 7.39792C231.742 7.16712 232.435 7.05172 233.252 7.05172C233.8 7.05172 234.353 7.10942 234.911 7.22482C235.479 7.3306 235.955 7.49409 236.339 7.71527L235.517 9.57612C235.132 9.35494 234.748 9.20588 234.363 9.12894C233.978 9.04239 233.613 8.99912 233.267 8.99912C232.805 8.99912 232.478 9.05201 232.286 9.15779C232.103 9.26358 232.012 9.39341 232.012 9.54727C232.012 9.70114 232.093 9.82135 232.257 9.9079C232.42 9.98484 232.637 10.0473 232.906 10.0954C233.185 10.1339 233.488 10.1772 233.815 10.2253C234.142 10.2637 234.469 10.3262 234.796 10.4128C235.132 10.4993 235.435 10.6292 235.705 10.8023C235.983 10.9658 236.205 11.1917 236.368 11.4803C236.532 11.7591 236.613 12.1198 236.613 12.5621C236.613 13.043 236.464 13.4757 236.166 13.8604C235.878 14.2451 235.445 14.5528 234.868 14.7836C234.3 15.0144 233.594 15.1298 232.747 15.1298ZM18.2843 33.1298C17.5726 33.1298 16.9235 32.9663 16.3369 32.6394C15.7599 32.3028 15.2983 31.8364 14.9521 31.2401C14.6059 30.6343 14.4328 29.913 14.4328 29.0763C14.4328 28.2493 14.6059 27.5377 14.9521 26.9414C15.2983 26.3356 15.7599 25.8691 16.3369 25.5422C16.9235 25.2152 17.5726 25.0517 18.2843 25.0517C18.9575 25.0517 19.5249 25.196 19.9865 25.4845C20.4577 25.773 20.8135 26.2153 21.0539 26.8116C21.2943 27.4078 21.4146 28.1627 21.4146 29.0763C21.4146 30.0092 21.2992 30.7737 21.0683 31.37C20.8375 31.9662 20.4913 32.4086 20.0297 32.6971C19.5681 32.9856 18.9863 33.1298 18.2843 33.1298ZM18.8613 30.9516C19.169 30.9516 19.4431 30.8795 19.6835 30.7352C19.9336 30.591 20.1307 30.3794 20.275 30.1005C20.4192 29.812 20.4913 29.4706 20.4913 29.0763C20.4913 28.6821 20.4192 28.3503 20.275 28.081C20.1307 27.8021 19.9336 27.5906 19.6835 27.4463C19.4431 27.302 19.169 27.2299 18.8613 27.2299C18.5439 27.2299 18.2602 27.302 18.0102 27.4463C17.7698 27.5906 17.5774 27.8021 17.4332 28.081C17.2889 28.3503 17.2168 28.6821 17.2168 29.0763C17.2168 29.4706 17.2889 29.812 17.4332 30.1005C17.5774 30.3794 17.7698 30.591 18.0102 30.7352C18.2602 30.8795 18.5439 30.9516 18.8613 30.9516ZM20.5779 33V31.6585L20.5923 29.0763L20.4481 26.4942V22.2965H23.1889V33H20.5779ZM29.049 33.1298C28.1258 33.1298 27.318 32.9567 26.6255 32.6105C25.9428 32.2547 25.409 31.7739 25.0243 31.168C24.6493 30.5525 24.4618 29.8553 24.4618 29.0763C24.4618 28.2974 24.6445 27.605 25.0099 26.9991C25.385 26.3836 25.8995 25.9076 26.5534 25.571C27.2074 25.2248 27.943 25.0517 28.7605 25.0517C29.5298 25.0517 30.2318 25.2104 30.8666 25.5277C31.5013 25.8355 32.0061 26.2923 32.3812 26.8981C32.7563 27.504 32.9438 28.2397 32.9438 29.1052C32.9438 29.2014 32.939 29.312 32.9294 29.437C32.9197 29.562 32.9101 29.6774 32.9005 29.7832H26.7121V28.3407H31.4436L30.4049 28.7446C30.4146 28.3887 30.3472 28.081 30.203 27.8214C30.0684 27.5617 29.876 27.3597 29.626 27.2155C29.3856 27.0712 29.1019 26.9991 28.7749 26.9991C28.4479 26.9991 28.1594 27.0712 27.9094 27.2155C27.669 27.3597 27.4814 27.5665 27.3468 27.8358C27.2122 28.0954 27.1449 28.4032 27.1449 28.759V29.1773C27.1449 29.562 27.2218 29.8938 27.3757 30.1727C27.5391 30.4515 27.7699 30.6679 28.0681 30.8218C28.3662 30.966 28.722 31.0382 29.1355 31.0382C29.5202 31.0382 29.8472 30.9853 30.1164 30.8795C30.3953 30.7641 30.6694 30.591 30.9387 30.3602L32.3812 31.8604C32.0061 32.2739 31.5445 32.5913 30.9964 32.8125C30.4482 33.024 29.7991 33.1298 29.049 33.1298ZM27.2891 24.2439L29.2221 22.0513H31.9629L29.2509 24.2439H27.2891ZM33.8757 35.9283C33.5102 35.9283 33.164 35.8898 32.8371 35.8129C32.5005 35.7456 32.212 35.6494 31.9715 35.5244L32.664 33.577C32.914 33.7309 33.1977 33.8078 33.515 33.8078C33.7555 33.8078 33.9478 33.7261 34.0921 33.5626C34.2459 33.3991 34.3229 33.1394 34.3229 32.7836V25.1815H37.0636V32.798C37.0636 33.7501 36.7848 34.5098 36.227 35.0772C35.6692 35.6446 34.8854 35.9283 33.8757 35.9283ZM35.6932 24.316C35.1932 24.316 34.7893 24.1766 34.4815 23.8977C34.1738 23.6188 34.0199 23.2726 34.0199 22.8591C34.0199 22.4456 34.1738 22.0994 34.4815 21.8205C34.7893 21.5416 35.1932 21.4021 35.6932 21.4021C36.1933 21.4021 36.5972 21.5368 36.905 21.806C37.2127 22.0657 37.3666 22.4023 37.3666 22.8158C37.3666 23.2486 37.2127 23.6092 36.905 23.8977C36.6068 24.1766 36.2029 24.316 35.6932 24.316ZM43.6028 33V31.5431L43.4152 31.1824V28.4993C43.4152 28.0666 43.2806 27.7348 43.0113 27.504C42.7517 27.2636 42.3333 27.1434 41.7563 27.1434C41.3813 27.1434 41.0014 27.2059 40.6167 27.3309C40.2321 27.4463 39.9051 27.6098 39.6358 27.8214L38.7126 25.9605C39.155 25.672 39.6839 25.4508 40.2994 25.2969C40.9245 25.1335 41.5448 25.0517 42.1602 25.0517C43.4297 25.0517 44.4106 25.345 45.103 25.9317C45.805 26.5087 46.156 27.4174 46.156 28.658V33H43.6028ZM41.2947 33.1298C40.6696 33.1298 40.1407 33.024 39.708 32.8125C39.2752 32.6009 38.9434 32.3124 38.7126 31.947C38.4914 31.5815 38.3808 31.1728 38.3808 30.7208C38.3808 30.24 38.5011 29.8265 38.7415 29.4803C38.9915 29.1244 39.3714 28.8552 39.8811 28.6724C40.3908 28.4801 41.0495 28.3839 41.8573 28.3839H43.7037V29.812H42.2324C41.79 29.812 41.4775 29.8842 41.2947 30.0284C41.1216 30.1727 41.0351 30.365 41.0351 30.6054C41.0351 30.8458 41.1264 31.0382 41.3092 31.1824C41.4919 31.3267 41.7419 31.3988 42.0593 31.3988C42.3574 31.3988 42.6267 31.3267 42.8671 31.1824C43.1171 31.0286 43.2998 30.7978 43.4152 30.49L43.7903 31.4998C43.646 32.0383 43.3623 32.447 42.9392 32.7259C42.5257 32.9952 41.9775 33.1298 41.2947 33.1298ZM41.915 24.2439L39.2031 22.0513H41.9439L43.8768 24.2439H41.915ZM52.084 33V25.1815H54.8248V33H52.084ZM53.4544 24.316C52.9543 24.316 52.5504 24.1766 52.2427 23.8977C51.9349 23.6188 51.7811 23.2726 51.7811 22.8591C51.7811 22.4456 51.9349 22.0994 52.2427 21.8205C52.5504 21.5416 52.9543 21.4021 53.4544 21.4021C53.9545 21.4021 54.3584 21.5368 54.6661 21.806C54.9738 22.0657 55.1277 22.4023 55.1277 22.8158C55.1277 23.2486 54.9738 23.6092 54.6661 23.8977C54.368 24.1766 53.9641 24.316 53.4544 24.316ZM61.6981 25.0517C62.3039 25.0517 62.8521 25.1767 63.3425 25.4268C63.833 25.6672 64.2177 26.0422 64.4965 26.5519C64.785 27.0616 64.9293 27.7204 64.9293 28.5282V33H62.1885V28.9754C62.1885 28.4176 62.0731 28.0137 61.8423 27.7637C61.6211 27.504 61.3086 27.3742 60.9047 27.3742C60.6162 27.3742 60.3517 27.4415 60.1113 27.5761C59.8709 27.7011 59.6833 27.8983 59.5487 28.1676C59.4141 28.4368 59.3467 28.7878 59.3467 29.2206V33H56.606V25.1815H59.2169V27.403L58.712 26.7539C59.0102 26.1865 59.4189 25.7634 59.9382 25.4845C60.4575 25.196 61.0441 25.0517 61.6981 25.0517ZM69.4918 33.1298C68.8283 33.1298 68.1791 33.0529 67.5444 32.899C66.9193 32.7452 66.4145 32.5528 66.0298 32.322L66.852 30.4467C67.2175 30.6679 67.6454 30.8458 68.1359 30.9805C68.6263 31.1055 69.1072 31.168 69.5784 31.168C70.04 31.168 70.3573 31.1199 70.5304 31.0237C70.7132 30.9276 70.8045 30.7978 70.8045 30.6343C70.8045 30.4804 70.718 30.3698 70.5449 30.3025C70.3814 30.2256 70.1602 30.1679 69.8813 30.1294C69.612 30.0909 69.3139 30.0476 68.9869 29.9996C68.66 29.9515 68.3282 29.889 67.9916 29.812C67.6646 29.7255 67.3617 29.6005 67.0828 29.437C66.8135 29.2639 66.5972 29.0331 66.4337 28.7446C66.2702 28.4561 66.1885 28.0906 66.1885 27.6483C66.1885 27.1482 66.3327 26.7058 66.6212 26.3211C66.9193 25.9268 67.3521 25.6191 67.9195 25.3979C68.4869 25.1671 69.1793 25.0517 69.9967 25.0517C70.5449 25.0517 71.0978 25.1094 71.6556 25.2248C72.223 25.3306 72.699 25.4941 73.0837 25.7153L72.2615 27.5761C71.8768 27.3549 71.4921 27.2059 71.1075 27.1289C70.7228 27.0424 70.3573 26.9991 70.0111 26.9991C69.5495 26.9991 69.2226 27.052 69.0302 27.1578C68.8475 27.2636 68.7561 27.3934 68.7561 27.5473C68.7561 27.7011 68.8379 27.8214 69.0014 27.9079C69.1649 27.9848 69.3812 28.0473 69.6505 28.0954C69.9294 28.1339 70.2323 28.1772 70.5593 28.2253C70.8863 28.2637 71.2132 28.3262 71.5402 28.4128C71.8768 28.4993 72.1797 28.6292 72.449 28.8023C72.7279 28.9658 72.9491 29.1917 73.1126 29.4803C73.276 29.7591 73.3578 30.1198 73.3578 30.5621C73.3578 31.043 73.2087 31.4757 72.9106 31.8604C72.6221 32.2451 72.1893 32.5528 71.6123 32.7836C71.0449 33.0144 70.3381 33.1298 69.4918 33.1298ZM78.5346 33.1298C77.6691 33.1298 76.895 32.9567 76.2122 32.6105C75.539 32.2643 75.0101 31.7883 74.6254 31.1824C74.2407 30.5669 74.0484 29.8649 74.0484 29.0763C74.0484 28.2878 74.2407 27.5906 74.6254 26.9847C75.0101 26.3788 75.539 25.9076 76.2122 25.571C76.895 25.2248 77.6691 25.0517 78.5346 25.0517C79.4194 25.0517 80.1839 25.2392 80.8282 25.6143C81.4726 25.9894 81.9294 26.5183 82.1986 27.2011L80.0781 28.283C79.8954 27.9175 79.6694 27.6531 79.4001 27.4896C79.1309 27.3165 78.8376 27.2299 78.5202 27.2299C78.2028 27.2299 77.9143 27.302 77.6547 27.4463C77.395 27.5906 77.1883 27.8021 77.0344 28.081C76.8901 28.3503 76.818 28.6821 76.818 29.0763C76.818 29.4803 76.8901 29.8216 77.0344 30.1005C77.1883 30.3794 77.395 30.591 77.6547 30.7352C77.9143 30.8795 78.2028 30.9516 78.5202 30.9516C78.8376 30.9516 79.1309 30.8699 79.4001 30.7064C79.6694 30.5333 79.8954 30.264 80.0781 29.8986L82.1986 30.9805C81.9294 31.6633 81.4726 32.1922 80.8282 32.5672C80.1839 32.9423 79.4194 33.1298 78.5346 33.1298ZM83.2306 33V25.1815H85.8416V27.4607L85.4521 26.8116C85.6829 26.225 86.0579 25.7874 86.5772 25.4989C87.0965 25.2008 87.7264 25.0517 88.4669 25.0517V27.5184C88.3419 27.4992 88.2313 27.4896 88.1352 27.4896C88.0486 27.48 87.9524 27.4751 87.8467 27.4751C87.2889 27.4751 86.8369 27.629 86.4907 27.9368C86.1445 28.2349 85.9714 28.7253 85.9714 29.4081V33H83.2306ZM89.598 33V25.1815H92.3388V33H89.598ZM90.9684 24.316C90.4683 24.316 90.0644 24.1766 89.7566 23.8977C89.4489 23.6188 89.295 23.2726 89.295 22.8591C89.295 22.4456 89.4489 22.0994 89.7566 21.8205C90.0644 21.5416 90.4683 21.4021 90.9684 21.4021C91.4684 21.4021 91.8723 21.5368 92.1801 21.806C92.4878 22.0657 92.6417 22.4023 92.6417 22.8158C92.6417 23.2486 92.4878 23.6092 92.1801 23.8977C91.882 24.1766 91.478 24.316 90.9684 24.316ZM97.6108 33.1298C96.6107 33.1298 95.8317 32.8846 95.2739 32.3941C94.7162 31.8941 94.4373 31.144 94.4373 30.1438V23.4361H97.1781V30.115C97.1781 30.3938 97.255 30.615 97.4089 30.7785C97.5627 30.9324 97.7599 31.0093 98.0003 31.0093C98.3273 31.0093 98.6062 30.9276 98.837 30.7641L99.515 32.6826C99.2841 32.8365 99.0005 32.9471 98.6639 33.0144C98.3273 33.0914 97.9763 33.1298 97.6108 33.1298ZM93.2977 27.5184V25.47H98.9668V27.5184H93.2977ZM103.414 33.1298C102.75 33.1298 102.101 33.0529 101.466 32.899C100.841 32.7452 100.336 32.5528 99.9515 32.322L100.774 30.4467C101.139 30.6679 101.567 30.8458 102.058 30.9805C102.548 31.1055 103.029 31.168 103.5 31.168C103.962 31.168 104.279 31.1199 104.452 31.0237C104.635 30.9276 104.726 30.7978 104.726 30.6343C104.726 30.4804 104.64 30.3698 104.467 30.3025C104.303 30.2256 104.082 30.1679 103.803 30.1294C103.534 30.0909 103.236 30.0476 102.909 29.9996C102.582 29.9515 102.25 29.889 101.913 29.812C101.586 29.7255 101.283 29.6005 101.005 29.437C100.735 29.2639 100.519 29.0331 100.355 28.7446C100.192 28.4561 100.11 28.0906 100.11 27.6483C100.11 27.1482 100.254 26.7058 100.543 26.3211C100.841 25.9268 101.274 25.6191 101.841 25.3979C102.409 25.1671 103.101 25.0517 103.918 25.0517C104.467 25.0517 105.02 25.1094 105.577 25.2248C106.145 25.3306 106.621 25.4941 107.005 25.7153L106.183 27.5761C105.799 27.3549 105.414 27.2059 105.029 27.1289C104.645 27.0424 104.279 26.9991 103.933 26.9991C103.471 26.9991 103.144 27.052 102.952 27.1578C102.769 27.2636 102.678 27.3934 102.678 27.5473C102.678 27.7011 102.76 27.8214 102.923 27.9079C103.087 27.9848 103.303 28.0473 103.572 28.0954C103.851 28.1339 104.154 28.1772 104.481 28.2253C104.808 28.2637 105.135 28.3262 105.462 28.4128C105.799 28.4993 106.101 28.6292 106.371 28.8023C106.65 28.9658 106.871 29.1917 107.034 29.4803C107.198 29.7591 107.28 30.1198 107.28 30.5621C107.28 31.043 107.13 31.4757 106.832 31.8604C106.544 32.2451 106.111 32.5528 105.534 32.7836C104.967 33.0144 104.26 33.1298 103.414 33.1298Z" fill="white"/>
<path d="M15.2732 49.4339C13.5717 50.3949 6.55706 49.663 3.6894 40.2651" stroke="white" stroke-width="2.04338" stroke-linecap="round"/>
<path d="M7.19141 52.7107C7.19141 52.7107 3.8478 52.6605 1.99899 48.2541" stroke="white" stroke-width="2.04338" stroke-linecap="round"/>
</svg>
