<svg width="215" height="75" viewBox="0 0 215 75" fill="none" xmlns="http://www.w3.org/2000/svg">
<rect x="25.7305" y="46.4758" width="183" height="10" rx="4.82216" fill="#6123DF"/>
<path d="M4.34372 30.1534V23.1726H6.60219V30.1534H4.34372ZM1.85059 27.7336V25.5924H9.08064V27.7336H1.85059ZM18.5602 31.9279C17.8367 31.9279 17.1768 31.7617 16.5804 31.4293C15.9938 31.0871 15.5245 30.6129 15.1725 30.0067C14.8206 29.3908 14.6446 28.6575 14.6446 27.8069C14.6446 26.9661 14.8206 26.2426 15.1725 25.6364C15.5245 25.0205 15.9938 24.5463 16.5804 24.2139C17.1768 23.8815 17.8367 23.7153 18.5602 23.7153C19.2446 23.7153 19.8215 23.8619 20.2908 24.1552C20.7698 24.4485 21.1316 24.8983 21.376 25.5044C21.6204 26.1106 21.7426 26.8781 21.7426 27.8069C21.7426 28.7553 21.6253 29.5325 21.3907 30.1387C21.156 30.7449 20.804 31.1946 20.3347 31.4879C19.8655 31.7812 19.2739 31.9279 18.5602 31.9279ZM19.1468 29.7134C19.4597 29.7134 19.7384 29.6401 19.9828 29.4934C20.237 29.3468 20.4374 29.1317 20.5841 28.8481C20.7307 28.5548 20.804 28.2078 20.804 27.8069C20.804 27.4061 20.7307 27.0687 20.5841 26.795C20.4374 26.5115 20.237 26.2964 19.9828 26.1497C19.7384 26.0031 19.4597 25.9297 19.1468 25.9297C18.8242 25.9297 18.5358 26.0031 18.2816 26.1497C18.0372 26.2964 17.8416 26.5115 17.695 26.795C17.5483 27.0687 17.475 27.4061 17.475 27.8069C17.475 28.2078 17.5483 28.5548 17.695 28.8481C17.8416 29.1317 18.0372 29.3468 18.2816 29.4934C18.5358 29.6401 18.8242 29.7134 19.1468 29.7134ZM20.892 31.7959V30.432L20.9067 27.8069L20.76 25.1818V20.9142H23.5465V31.7959H20.892ZM29.5042 31.9279C28.5656 31.9279 27.7443 31.7519 27.0404 31.3999C26.3462 31.0382 25.8036 30.5493 25.4125 29.9334C25.0312 29.3077 24.8406 28.5988 24.8406 27.8069C24.8406 27.015 25.0263 26.311 25.3979 25.6951C25.7792 25.0694 26.3022 24.5854 26.9671 24.2432C27.6319 23.8912 28.3798 23.7153 29.2109 23.7153C29.993 23.7153 30.7067 23.8766 31.352 24.1992C31.9973 24.5121 32.5106 24.9765 32.8919 25.5924C33.2732 26.2084 33.4638 26.9563 33.4638 27.8362C33.4638 27.934 33.459 28.0464 33.4492 28.1735C33.4394 28.3006 33.4296 28.418 33.4198 28.5255H27.1284V27.059H31.9386L30.8827 27.4696C30.8925 27.1079 30.8241 26.795 30.6774 26.531C30.5405 26.267 30.345 26.0617 30.0908 25.9151C29.8464 25.7684 29.558 25.6951 29.2255 25.6951C28.8931 25.6951 28.5998 25.7684 28.3456 25.9151C28.1012 26.0617 27.9105 26.2719 27.7737 26.5457C27.6368 26.8097 27.5683 27.1225 27.5683 27.4843V27.9096C27.5683 28.3006 27.6466 28.6379 27.803 28.9215C27.9692 29.205 28.2038 29.425 28.5069 29.5814C28.81 29.7281 29.1718 29.8014 29.5922 29.8014C29.9833 29.8014 30.3157 29.7476 30.5894 29.6401C30.873 29.5228 31.1516 29.3468 31.4254 29.1121L32.8919 30.6373C32.5106 31.0577 32.0413 31.3804 31.484 31.6052C30.9267 31.8203 30.2668 31.9279 29.5042 31.9279ZM38.5618 31.7959V29.9774L42.4041 26.3844C42.6779 26.1302 42.8783 25.9053 43.0054 25.7098C43.1423 25.5142 43.2303 25.3382 43.2694 25.1818C43.3183 25.0156 43.3427 24.864 43.3427 24.7272C43.3427 24.3948 43.2303 24.1357 43.0054 23.9499C42.7903 23.7641 42.4628 23.6713 42.0228 23.6713C41.6513 23.6713 41.3042 23.7544 40.9816 23.9206C40.659 24.0868 40.395 24.3361 40.1897 24.6685L38.0338 23.4659C38.4151 22.8207 38.9675 22.3025 39.691 21.9114C40.4145 21.5203 41.2798 21.3248 42.2868 21.3248C43.0787 21.3248 43.7729 21.4519 44.3693 21.7061C44.9657 21.9603 45.4301 22.322 45.7625 22.7913C46.1047 23.2606 46.2758 23.813 46.2758 24.4485C46.2758 24.7809 46.2318 25.1134 46.1438 25.4458C46.0558 25.7684 45.8847 26.1155 45.6305 26.487C45.3861 26.8488 45.0195 27.2545 44.5306 27.7042L41.4802 30.52L40.9963 29.4934H46.5544V31.7959H38.5618ZM62.4173 23.7153C63.0332 23.7153 63.5807 23.8424 64.0598 24.0966C64.5486 24.341 64.9299 24.7223 65.2037 25.2405C65.4872 25.7586 65.629 26.4284 65.629 27.2496V31.7959H62.8426V27.7042C62.8426 27.1372 62.735 26.7266 62.5199 26.4724C62.3048 26.2084 62.0115 26.0764 61.64 26.0764C61.376 26.0764 61.1365 26.1399 60.9214 26.267C60.7063 26.3941 60.5401 26.5897 60.4228 26.8537C60.3055 27.1079 60.2468 27.4403 60.2468 27.8509V31.7959H57.4604V27.7042C57.4604 27.1372 57.3528 26.7266 57.1377 26.4724C56.9324 26.2084 56.6391 26.0764 56.2578 26.0764C55.984 26.0764 55.7396 26.1399 55.5245 26.267C55.3192 26.3941 55.153 26.5897 55.0259 26.8537C54.9086 27.1079 54.8499 27.4403 54.8499 27.8509V31.7959H52.0635V23.8472H54.7179V26.0617L54.19 25.4311C54.4833 24.864 54.8841 24.4387 55.3925 24.1552C55.9009 23.8619 56.468 23.7153 57.0937 23.7153C57.8074 23.7153 58.4332 23.901 58.9709 24.2725C59.5184 24.6343 59.885 25.2013 60.0708 25.9737L59.1616 25.7831C59.4451 25.1378 59.8704 24.6343 60.4374 24.2725C61.0143 23.901 61.6742 23.7153 62.4173 23.7153ZM67.3877 31.7959V23.8472H70.1741V31.7959H67.3877ZM68.7809 22.9673C68.2725 22.9673 67.8619 22.8256 67.549 22.542C67.2362 22.2585 67.0797 21.9065 67.0797 21.4861C67.0797 21.0657 67.2362 20.7137 67.549 20.4302C67.8619 20.1467 68.2725 20.0049 68.7809 20.0049C69.2893 20.0049 69.6999 20.1418 70.0128 20.4155C70.3257 20.6795 70.4821 21.0217 70.4821 21.4421C70.4821 21.8821 70.3257 22.2487 70.0128 22.542C69.7097 22.8256 69.2991 22.9673 68.7809 22.9673ZM71.985 31.7959V20.9142H74.7714V31.7959H71.985ZM76.5822 31.7959V20.9142H79.3687V31.7959H76.5822ZM81.1795 31.7959V23.8472H83.9659V31.7959H81.1795ZM82.5727 22.9673C82.0643 22.9673 81.6537 22.8256 81.3408 22.542C81.028 22.2585 80.8715 21.9065 80.8715 21.4861C80.8715 21.0657 81.028 20.7137 81.3408 20.4302C81.6537 20.1467 82.0643 20.0049 82.5727 20.0049C83.0811 20.0049 83.4917 20.1418 83.8046 20.4155C84.1175 20.6795 84.2739 21.0217 84.2739 21.4421C84.2739 21.8821 84.1175 22.2487 83.8046 22.542C83.5015 22.8256 83.0909 22.9673 82.5727 22.9673ZM89.7658 31.9279C88.8956 31.9279 88.1232 31.7519 87.4486 31.3999C86.774 31.048 86.2412 30.564 85.8501 29.9481C85.4688 29.3223 85.2781 28.6086 85.2781 27.8069C85.2781 27.0052 85.4688 26.2964 85.8501 25.6804C86.2412 25.0645 86.774 24.5854 87.4486 24.2432C88.1232 23.8912 88.8956 23.7153 89.7658 23.7153C90.6359 23.7153 91.4083 23.8912 92.0829 24.2432C92.7673 24.5854 93.3001 25.0645 93.6814 25.6804C94.0627 26.2964 94.2534 27.0052 94.2534 27.8069C94.2534 28.6086 94.0627 29.3223 93.6814 29.9481C93.3001 30.564 92.7673 31.048 92.0829 31.3999C91.4083 31.7519 90.6359 31.9279 89.7658 31.9279ZM89.7658 29.7134C90.0884 29.7134 90.3719 29.6401 90.6163 29.4934C90.8706 29.3468 91.071 29.1317 91.2176 28.8481C91.3643 28.5548 91.4376 28.2078 91.4376 27.8069C91.4376 27.4061 91.3643 27.0687 91.2176 26.795C91.071 26.5115 90.8706 26.2964 90.6163 26.1497C90.3719 26.0031 90.0884 25.9297 89.7658 25.9297C89.4529 25.9297 89.1694 26.0031 88.9152 26.1497C88.6707 26.2964 88.4703 26.5115 88.3139 26.795C88.1672 27.0687 88.0939 27.4061 88.0939 27.8069C88.0939 28.2078 88.1672 28.5548 88.3139 28.8481C88.4703 29.1317 88.6707 29.3468 88.9152 29.4934C89.1694 29.6401 89.4529 29.7134 89.7658 29.7134ZM100.721 23.7153C101.337 23.7153 101.894 23.8424 102.393 24.0966C102.892 24.341 103.283 24.7223 103.566 25.2405C103.859 25.7586 104.006 26.4284 104.006 27.2496V31.7959H101.22V27.7042C101.22 27.1372 101.102 26.7266 100.868 26.4724C100.643 26.2084 100.325 26.0764 99.9145 26.0764C99.6211 26.0764 99.3523 26.1448 99.1079 26.2817C98.8634 26.4088 98.6728 26.6092 98.5359 26.883C98.399 27.1567 98.3306 27.5136 98.3306 27.9536V31.7959H95.5442V23.8472H98.1986V26.1057L97.6853 25.4458C97.9884 24.8689 98.4039 24.4387 98.9319 24.1552C99.4598 23.8619 100.056 23.7153 100.721 23.7153ZM108.645 31.9279C107.97 31.9279 107.31 31.8497 106.665 31.6932C106.029 31.5368 105.516 31.3413 105.125 31.1066L105.961 29.2001C106.332 29.425 106.767 29.6059 107.266 29.7427C107.765 29.8698 108.254 29.9334 108.733 29.9334C109.202 29.9334 109.525 29.8845 109.701 29.7867C109.886 29.689 109.979 29.557 109.979 29.3908C109.979 29.2343 109.891 29.1219 109.715 29.0535C109.549 28.9753 109.324 28.9166 109.041 28.8775C108.767 28.8384 108.464 28.7944 108.131 28.7455C107.799 28.6966 107.462 28.6331 107.119 28.5548C106.787 28.4668 106.479 28.3397 106.195 28.1735C105.922 27.9976 105.702 27.7629 105.536 27.4696C105.369 27.1763 105.286 26.8048 105.286 26.355C105.286 25.8466 105.433 25.3969 105.726 25.0058C106.029 24.605 106.469 24.2921 107.046 24.0672C107.623 23.8326 108.327 23.7153 109.158 23.7153C109.715 23.7153 110.277 23.7739 110.844 23.8912C111.421 23.9988 111.905 24.165 112.296 24.3899L111.46 26.2817C111.069 26.0568 110.678 25.9053 110.287 25.8271C109.896 25.7391 109.525 25.6951 109.173 25.6951C108.703 25.6951 108.371 25.7489 108.175 25.8564C107.99 25.964 107.897 26.0959 107.897 26.2524C107.897 26.4088 107.98 26.531 108.146 26.619C108.312 26.6972 108.532 26.7608 108.806 26.8097C109.089 26.8488 109.397 26.8928 109.73 26.9416C110.062 26.9808 110.395 27.0443 110.727 27.1323C111.069 27.2203 111.377 27.3523 111.651 27.5283C111.935 27.6945 112.159 27.9242 112.326 28.2175C112.492 28.5011 112.575 28.8677 112.575 29.3174C112.575 29.8063 112.423 30.2463 112.12 30.6373C111.827 31.0284 111.387 31.3413 110.8 31.5759C110.224 31.8106 109.505 31.9279 108.645 31.9279ZM121.505 31.9279C120.781 31.9279 120.121 31.7617 119.525 31.4293C118.938 31.0871 118.469 30.6129 118.117 30.0067C117.765 29.3908 117.589 28.6575 117.589 27.8069C117.589 26.9661 117.765 26.2426 118.117 25.6364C118.469 25.0205 118.938 24.5463 119.525 24.2139C120.121 23.8815 120.781 23.7153 121.505 23.7153C122.189 23.7153 122.766 23.8619 123.235 24.1552C123.714 24.4485 124.076 24.8983 124.32 25.5044C124.565 26.1106 124.687 26.8781 124.687 27.8069C124.687 28.7553 124.57 29.5325 124.335 30.1387C124.1 30.7449 123.748 31.1946 123.279 31.4879C122.81 31.7812 122.218 31.9279 121.505 31.9279ZM122.091 29.7134C122.404 29.7134 122.683 29.6401 122.927 29.4934C123.181 29.3468 123.382 29.1317 123.528 28.8481C123.675 28.5548 123.748 28.2078 123.748 27.8069C123.748 27.4061 123.675 27.0687 123.528 26.795C123.382 26.5115 123.181 26.2964 122.927 26.1497C122.683 26.0031 122.404 25.9297 122.091 25.9297C121.769 25.9297 121.48 26.0031 121.226 26.1497C120.982 26.2964 120.786 26.5115 120.639 26.795C120.493 27.0687 120.419 27.4061 120.419 27.8069C120.419 28.2078 120.493 28.5548 120.639 28.8481C120.786 29.1317 120.982 29.3468 121.226 29.4934C121.48 29.6401 121.769 29.7134 122.091 29.7134ZM123.836 31.7959V30.432L123.851 27.8069L123.704 25.1818V20.9142H126.491V31.7959H123.836ZM132.449 31.9279C131.51 31.9279 130.689 31.7519 129.985 31.3999C129.291 31.0382 128.748 30.5493 128.357 29.9334C127.976 29.3077 127.785 28.5988 127.785 27.8069C127.785 27.015 127.971 26.311 128.342 25.6951C128.724 25.0694 129.247 24.5854 129.911 24.2432C130.576 23.8912 131.324 23.7153 132.155 23.7153C132.937 23.7153 133.651 23.8766 134.296 24.1992C134.942 24.5121 135.455 24.9765 135.836 25.5924C136.218 26.2084 136.408 26.9563 136.408 27.8362C136.408 27.934 136.403 28.0464 136.394 28.1735C136.384 28.3006 136.374 28.418 136.364 28.5255H130.073V27.059H134.883L133.827 27.4696C133.837 27.1079 133.768 26.795 133.622 26.531C133.485 26.267 133.289 26.0617 133.035 25.9151C132.791 25.7684 132.502 25.6951 132.17 25.6951C131.837 25.6951 131.544 25.7684 131.29 25.9151C131.046 26.0617 130.855 26.2719 130.718 26.5457C130.581 26.8097 130.513 27.1225 130.513 27.4843V27.9096C130.513 28.3006 130.591 28.6379 130.747 28.9215C130.914 29.205 131.148 29.425 131.451 29.5814C131.754 29.7281 132.116 29.8014 132.537 29.8014C132.928 29.8014 133.26 29.7476 133.534 29.6401C133.817 29.5228 134.096 29.3468 134.37 29.1121L135.836 30.6373C135.455 31.0577 134.986 31.3804 134.428 31.6052C133.871 31.8203 133.211 31.9279 132.449 31.9279ZM141.623 34.773C141.252 34.773 140.9 34.7339 140.568 34.6557C140.225 34.5872 139.932 34.4894 139.688 34.3623L140.392 32.3825C140.646 32.5389 140.934 32.6172 141.257 32.6172C141.501 32.6172 141.697 32.5341 141.843 32.3678C142 32.2016 142.078 31.9377 142.078 31.5759V23.8472H144.865V31.5906C144.865 32.5585 144.581 33.3309 144.014 33.9077C143.447 34.4846 142.65 34.773 141.623 34.773ZM143.471 22.9673C142.963 22.9673 142.552 22.8256 142.239 22.542C141.927 22.2585 141.77 21.9065 141.77 21.4861C141.77 21.0657 141.927 20.7137 142.239 20.4302C142.552 20.1467 142.963 20.0049 143.471 20.0049C143.98 20.0049 144.39 20.1418 144.703 20.4155C145.016 20.6795 145.172 21.0217 145.172 21.4421C145.172 21.8821 145.016 22.2487 144.703 22.542C144.4 22.8256 143.989 22.9673 143.471 22.9673ZM150.823 31.9279C149.885 31.9279 149.063 31.7519 148.359 31.3999C147.665 31.0382 147.123 30.5493 146.732 29.9334C146.35 29.3077 146.16 28.5988 146.16 27.8069C146.16 27.015 146.345 26.311 146.717 25.6951C147.098 25.0694 147.621 24.5854 148.286 24.2432C148.951 23.8912 149.699 23.7153 150.53 23.7153C151.312 23.7153 152.026 23.8766 152.671 24.1992C153.316 24.5121 153.83 24.9765 154.211 25.5924C154.592 26.2084 154.783 26.9563 154.783 27.8362C154.783 27.934 154.778 28.0464 154.768 28.1735C154.758 28.3006 154.749 28.418 154.739 28.5255H148.447V27.059H153.258L152.202 27.4696C152.212 27.1079 152.143 26.795 151.996 26.531C151.86 26.267 151.664 26.0617 151.41 25.9151C151.165 25.7684 150.877 25.6951 150.545 25.6951C150.212 25.6951 149.919 25.7684 149.665 25.9151C149.42 26.0617 149.23 26.2719 149.093 26.5457C148.956 26.8097 148.887 27.1225 148.887 27.4843V27.9096C148.887 28.3006 148.966 28.6379 149.122 28.9215C149.288 29.205 149.523 29.425 149.826 29.5814C150.129 29.7281 150.491 29.8014 150.911 29.8014C151.302 29.8014 151.635 29.7476 151.908 29.6401C152.192 29.5228 152.471 29.3468 152.744 29.1121L154.211 30.6373C153.83 31.0577 153.36 31.3804 152.803 31.6052C152.246 31.8203 151.586 31.9279 150.823 31.9279ZM159.411 31.9279C158.766 31.9279 158.184 31.8008 157.666 31.5466C157.158 31.2924 156.757 30.8964 156.464 30.3587C156.18 29.8112 156.038 29.1219 156.038 28.2909V23.8472H158.825V27.8362C158.825 28.4522 158.937 28.8921 159.162 29.1561C159.397 29.4201 159.724 29.5521 160.145 29.5521C160.418 29.5521 160.668 29.4885 160.893 29.3614C161.117 29.2343 161.298 29.0339 161.435 28.7602C161.572 28.4766 161.64 28.1149 161.64 27.6749V23.8472H164.427V31.7959H161.772V29.5521L162.286 30.1827C162.012 30.7693 161.616 31.2093 161.098 31.5026C160.58 31.7861 160.018 31.9279 159.411 31.9279ZM171.399 23.7153C172.015 23.7153 172.572 23.8424 173.07 24.0966C173.569 24.341 173.96 24.7223 174.244 25.2405C174.537 25.7586 174.684 26.4284 174.684 27.2496V31.7959H171.897V27.7042C171.897 27.1372 171.78 26.7266 171.545 26.4724C171.32 26.2084 171.003 26.0764 170.592 26.0764C170.299 26.0764 170.03 26.1448 169.785 26.2817C169.541 26.4088 169.35 26.6092 169.213 26.883C169.077 27.1567 169.008 27.5136 169.008 27.9536V31.7959H166.222V23.8472H168.876V26.1057L168.363 25.4458C168.666 24.8689 169.081 24.4387 169.609 24.1552C170.137 23.8619 170.734 23.7153 171.399 23.7153ZM180.698 31.9279C179.76 31.9279 178.938 31.7519 178.235 31.3999C177.54 31.0382 176.998 30.5493 176.607 29.9334C176.225 29.3077 176.035 28.5988 176.035 27.8069C176.035 27.015 176.22 26.311 176.592 25.6951C176.973 25.0694 177.496 24.5854 178.161 24.2432C178.826 23.8912 179.574 23.7153 180.405 23.7153C181.187 23.7153 181.901 23.8766 182.546 24.1992C183.191 24.5121 183.705 24.9765 184.086 25.5924C184.467 26.2084 184.658 26.9563 184.658 27.8362C184.658 27.934 184.653 28.0464 184.643 28.1735C184.634 28.3006 184.624 28.418 184.614 28.5255H178.323V27.059H183.133L182.077 27.4696C182.087 27.1079 182.018 26.795 181.872 26.531C181.735 26.267 181.539 26.0617 181.285 25.9151C181.041 25.7684 180.752 25.6951 180.42 25.6951C180.087 25.6951 179.794 25.7684 179.54 25.9151C179.295 26.0617 179.105 26.2719 178.968 26.5457C178.831 26.8097 178.762 27.1225 178.762 27.4843V27.9096C178.762 28.3006 178.841 28.6379 178.997 28.9215C179.163 29.205 179.398 29.425 179.701 29.5814C180.004 29.7281 180.366 29.8014 180.786 29.8014C181.177 29.8014 181.51 29.7476 181.784 29.6401C182.067 29.5228 182.346 29.3468 182.619 29.1121L184.086 30.6373C183.705 31.0577 183.235 31.3804 182.678 31.6052C182.121 31.8203 181.461 31.9279 180.698 31.9279ZM188.832 31.9279C188.157 31.9279 187.497 31.8497 186.852 31.6932C186.216 31.5368 185.703 31.3413 185.312 31.1066L186.148 29.2001C186.52 29.425 186.955 29.6059 187.453 29.7427C187.952 29.8698 188.441 29.9334 188.92 29.9334C189.389 29.9334 189.712 29.8845 189.888 29.7867C190.073 29.689 190.166 29.557 190.166 29.3908C190.166 29.2343 190.078 29.1219 189.902 29.0535C189.736 28.9753 189.511 28.9166 189.228 28.8775C188.954 28.8384 188.651 28.7944 188.318 28.7455C187.986 28.6966 187.649 28.6331 187.307 28.5548C186.974 28.4668 186.666 28.3397 186.383 28.1735C186.109 27.9976 185.889 27.7629 185.723 27.4696C185.556 27.1763 185.473 26.8048 185.473 26.355C185.473 25.8466 185.62 25.3969 185.913 25.0058C186.216 24.605 186.656 24.2921 187.233 24.0672C187.81 23.8326 188.514 23.7153 189.345 23.7153C189.902 23.7153 190.465 23.7739 191.032 23.8912C191.608 23.9988 192.092 24.165 192.483 24.3899L191.648 26.2817C191.256 26.0568 190.865 25.9053 190.474 25.8271C190.083 25.7391 189.712 25.6951 189.36 25.6951C188.89 25.6951 188.558 25.7489 188.362 25.8564C188.177 25.964 188.084 26.0959 188.084 26.2524C188.084 26.4088 188.167 26.531 188.333 26.619C188.499 26.6972 188.719 26.7608 188.993 26.8097C189.277 26.8488 189.585 26.8928 189.917 26.9416C190.249 26.9808 190.582 27.0443 190.914 27.1323C191.256 27.2203 191.564 27.3523 191.838 27.5283C192.122 27.6945 192.347 27.9242 192.513 28.2175C192.679 28.5011 192.762 28.8677 192.762 29.3174C192.762 29.8063 192.611 30.2463 192.307 30.6373C192.014 31.0284 191.574 31.3413 190.988 31.5759C190.411 31.8106 189.692 31.9279 188.832 31.9279ZM5.88358 50.9279C5.01344 50.9279 4.24106 50.7519 3.56645 50.3999C2.89184 50.048 2.359 49.564 1.96792 48.9481C1.58662 48.3223 1.39597 47.6086 1.39597 46.8069C1.39597 46.0052 1.58662 45.2964 1.96792 44.6804C2.359 44.0645 2.89184 43.5854 3.56645 43.2432C4.24106 42.8912 5.01344 42.7153 5.88358 42.7153C6.75373 42.7153 7.52611 42.8912 8.20072 43.2432C8.88511 43.5854 9.41795 44.0645 9.79925 44.6804C10.1806 45.2964 10.3712 46.0052 10.3712 46.8069C10.3712 47.6086 10.1806 48.3223 9.79925 48.9481C9.41795 49.564 8.88511 50.048 8.20072 50.3999C7.52611 50.7519 6.75373 50.9279 5.88358 50.9279ZM5.88358 48.7134C6.20622 48.7134 6.48975 48.6401 6.73418 48.4934C6.98838 48.3468 7.18881 48.1317 7.33546 47.8481C7.48211 47.5548 7.55544 47.2078 7.55544 46.8069C7.55544 46.4061 7.48211 46.0687 7.33546 45.795C7.18881 45.5115 6.98838 45.2964 6.73418 45.1497C6.48975 45.0031 6.20622 44.9297 5.88358 44.9297C5.57072 44.9297 5.28719 45.0031 5.03299 45.1497C4.78857 45.2964 4.58814 45.5115 4.43171 45.795C4.28505 46.0687 4.21173 46.4061 4.21173 46.8069C4.21173 47.2078 4.28505 47.5548 4.43171 47.8481C4.58814 48.1317 4.78857 48.3468 5.03299 48.4934C5.28719 48.6401 5.57072 48.7134 5.88358 48.7134ZM16.8389 42.7153C17.4548 42.7153 18.0121 42.8424 18.5107 43.0966C19.0094 43.341 19.4004 43.7223 19.684 44.2405C19.9773 44.7586 20.1239 45.4284 20.1239 46.2496V50.7959H17.3375V46.7042C17.3375 46.1372 17.2202 45.7266 16.9855 45.4724C16.7607 45.2084 16.4429 45.0764 16.0323 45.0764C15.739 45.0764 15.4701 45.1448 15.2257 45.2817C14.9813 45.4088 14.7906 45.6092 14.6537 45.883C14.5169 46.1567 14.4484 46.5136 14.4484 46.9536V50.7959H11.662V42.8472H14.3164V45.1057L13.8031 44.4458C14.1062 43.8689 14.5217 43.4387 15.0497 43.1552C15.5777 42.8619 16.174 42.7153 16.8389 42.7153ZM25.4224 50.9279C24.4056 50.9279 23.6137 50.6786 23.0466 50.18C22.4795 49.6715 22.196 48.9089 22.196 47.8921V41.0727H24.9824V47.8628C24.9824 48.1463 25.0606 48.3712 25.2171 48.5374C25.3735 48.6939 25.5739 48.7721 25.8184 48.7721C26.1508 48.7721 26.4343 48.689 26.6689 48.5228L27.3582 50.4733C27.1236 50.6297 26.8352 50.7421 26.493 50.8106C26.1508 50.8888 25.7939 50.9279 25.4224 50.9279ZM21.0374 45.223V43.1406H26.8009V45.223H21.0374ZM36.1616 50.9279C35.4381 50.9279 34.7782 50.7617 34.1818 50.4293C33.5951 50.0871 33.1259 49.6129 32.7739 49.0067C32.4219 48.3908 32.2459 47.6575 32.2459 46.8069C32.2459 45.9661 32.4219 45.2426 32.7739 44.6364C33.1259 44.0205 33.5951 43.5463 34.1818 43.2139C34.7782 42.8815 35.4381 42.7153 36.1616 42.7153C36.846 42.7153 37.4228 42.8619 37.8921 43.1552C38.3712 43.4485 38.7329 43.8983 38.9774 44.5044C39.2218 45.1106 39.344 45.8781 39.344 46.8069C39.344 47.7553 39.2267 48.5325 38.992 49.1387C38.7574 49.7449 38.4054 50.1946 37.9361 50.4879C37.4668 50.7812 36.8753 50.9279 36.1616 50.9279ZM36.7482 48.7134C37.0611 48.7134 37.3397 48.6401 37.5841 48.4934C37.8383 48.3468 38.0388 48.1317 38.1854 47.8481C38.3321 47.5548 38.4054 47.2078 38.4054 46.8069C38.4054 46.4061 38.3321 46.0687 38.1854 45.795C38.0388 45.5115 37.8383 45.2964 37.5841 45.1497C37.3397 45.0031 37.0611 44.9297 36.7482 44.9297C36.4256 44.9297 36.1372 45.0031 35.883 45.1497C35.6385 45.2964 35.443 45.5115 35.2963 45.795C35.1497 46.0687 35.0764 46.4061 35.0764 46.8069C35.0764 47.2078 35.1497 47.5548 35.2963 47.8481C35.443 48.1317 35.6385 48.3468 35.883 48.4934C36.1372 48.6401 36.4256 48.7134 36.7482 48.7134ZM38.4934 50.7959V49.432L38.5081 46.8069L38.3614 44.1818V39.9142H41.1478V50.7959H38.4934ZM47.1055 50.9279C46.167 50.9279 45.3457 50.7519 44.6418 50.3999C43.9476 50.0382 43.405 49.5493 43.0139 48.9334C42.6326 48.3077 42.4419 47.5988 42.4419 46.8069C42.4419 46.015 42.6277 45.311 42.9992 44.6951C43.3805 44.0694 43.9036 43.5854 44.5684 43.2432C45.2333 42.8912 45.9812 42.7153 46.8122 42.7153C47.5944 42.7153 48.3081 42.8766 48.9534 43.1992C49.5987 43.5121 50.112 43.9765 50.4933 44.5924C50.8746 45.2084 51.0652 45.9563 51.0652 46.8362C51.0652 46.934 51.0603 47.0464 51.0505 47.1735C51.0408 47.3006 51.031 47.418 51.0212 47.5255H44.7297V46.059H49.54L48.4841 46.4696C48.4939 46.1079 48.4254 45.795 48.2788 45.531C48.1419 45.267 47.9464 45.0617 47.6922 44.9151C47.4477 44.7684 47.1593 44.6951 46.8269 44.6951C46.4945 44.6951 46.2012 44.7684 45.947 44.9151C45.7026 45.0617 45.5119 45.2719 45.375 45.5457C45.2382 45.8097 45.1697 46.1225 45.1697 46.4843V46.9096C45.1697 47.3006 45.2479 47.6379 45.4044 47.9215C45.5706 48.205 45.8052 48.425 46.1083 48.5814C46.4114 48.7281 46.7731 48.8014 47.1935 48.8014C47.5846 48.8014 47.917 48.7476 48.1908 48.6401C48.4743 48.5228 48.753 48.3468 49.0267 48.1121L50.4933 49.6373C50.112 50.0577 49.6427 50.3804 49.0854 50.6052C48.5281 50.8203 47.8681 50.9279 47.1055 50.9279ZM45.3164 41.894L47.2815 39.6648H50.068L47.3109 41.894H45.3164ZM52.0126 53.773C51.6411 53.773 51.2891 53.7339 50.9567 53.6557C50.6145 53.5872 50.3212 53.4894 50.0768 53.3623L50.7807 51.3825C51.0349 51.5389 51.3233 51.6172 51.646 51.6172C51.8904 51.6172 52.0859 51.5341 52.2326 51.3678C52.389 51.2016 52.4672 50.9377 52.4672 50.5759V42.8472H55.2537V50.5906C55.2537 51.5585 54.9701 52.3309 54.4031 52.9077C53.836 53.4846 53.0392 53.773 52.0126 53.773ZM53.8605 41.9673C53.3521 41.9673 52.9414 41.8256 52.6286 41.542C52.3157 41.2585 52.1593 40.9065 52.1593 40.4861C52.1593 40.0657 52.3157 39.7137 52.6286 39.4302C52.9414 39.1467 53.3521 39.0049 53.8605 39.0049C54.3689 39.0049 54.7795 39.1418 55.0924 39.4155C55.4052 39.6795 55.5616 40.0217 55.5616 40.4421C55.5616 40.8821 55.4052 41.2487 55.0924 41.542C54.7893 41.8256 54.3786 41.9673 53.8605 41.9673ZM61.9017 50.7959V49.3147L61.711 48.9481V46.2203C61.711 45.7803 61.5742 45.443 61.3004 45.2084C61.0364 44.964 60.6111 44.8417 60.0245 44.8417C59.6432 44.8417 59.257 44.9053 58.8659 45.0324C58.4749 45.1497 58.1425 45.3159 57.8687 45.531L56.9301 43.6392C57.3799 43.3459 57.9176 43.121 58.5433 42.9646C59.1788 42.7984 59.8094 42.7153 60.4351 42.7153C61.7257 42.7153 62.723 43.0135 63.4269 43.6098C64.1406 44.1965 64.4975 45.1204 64.4975 46.3816V50.7959H61.9017ZM59.5552 50.9279C58.9197 50.9279 58.382 50.8203 57.942 50.6052C57.5021 50.3902 57.1648 50.0968 56.9301 49.7253C56.7052 49.3538 56.5928 48.9383 56.5928 48.4788C56.5928 47.9899 56.715 47.5695 56.9594 47.2175C57.2136 46.8558 57.5998 46.582 58.118 46.3963C58.6362 46.2007 59.3059 46.103 60.1272 46.103H62.0043V47.5548H60.5085C60.0587 47.5548 59.741 47.6282 59.5552 47.7748C59.3792 47.9215 59.2912 48.117 59.2912 48.3614C59.2912 48.6059 59.3841 48.8014 59.5699 48.9481C59.7557 49.0947 60.0099 49.168 60.3325 49.168C60.6356 49.168 60.9093 49.0947 61.1538 48.9481C61.408 48.7916 61.5937 48.557 61.711 48.2441L62.0923 49.2707C61.9457 49.8182 61.6573 50.2337 61.2271 50.5173C60.8067 50.791 60.2494 50.9279 59.5552 50.9279ZM60.1858 41.894L57.4287 39.6648H60.2152L62.1803 41.894H60.1858ZM70.5242 50.7959V42.8472H73.1786V45.1644L72.7826 44.5044C73.0173 43.908 73.3986 43.4632 73.9265 43.1699C74.4545 42.8668 75.0949 42.7153 75.8477 42.7153V45.223C75.7206 45.2035 75.6082 45.1937 75.5104 45.1937C75.4224 45.1839 75.3246 45.179 75.2171 45.179C74.65 45.179 74.1905 45.3355 73.8385 45.6483C73.4866 45.9514 73.3106 46.45 73.3106 47.1442V50.7959H70.5242ZM81.0909 50.9279C80.1523 50.9279 79.3311 50.7519 78.6271 50.3999C77.933 50.0382 77.3904 49.5493 76.9993 48.9334C76.618 48.3077 76.4273 47.5988 76.4273 46.8069C76.4273 46.015 76.6131 45.311 76.9846 44.6951C77.3659 44.0694 77.889 43.5854 78.5538 43.2432C79.2186 42.8912 79.9666 42.7153 80.7976 42.7153C81.5798 42.7153 82.2935 42.8766 82.9388 43.1992C83.584 43.5121 84.0973 43.9765 84.4786 44.5924C84.8599 45.2084 85.0506 45.9563 85.0506 46.8362C85.0506 46.934 85.0457 47.0464 85.0359 47.1735C85.0261 47.3006 85.0164 47.418 85.0066 47.5255H78.7151V46.059H83.5254L82.4695 46.4696C82.4793 46.1079 82.4108 45.795 82.2642 45.531C82.1273 45.267 81.9317 45.0617 81.6775 44.9151C81.4331 44.7684 81.1447 44.6951 80.8123 44.6951C80.4799 44.6951 80.1866 44.7684 79.9324 44.9151C79.6879 45.0617 79.4973 45.2719 79.3604 45.5457C79.2235 45.8097 79.1551 46.1225 79.1551 46.4843V46.9096C79.1551 47.3006 79.2333 47.6379 79.3897 47.9215C79.5559 48.205 79.7906 48.425 80.0937 48.5814C80.3968 48.7281 80.7585 48.8014 81.1789 48.8014C81.57 48.8014 81.9024 48.7476 82.1762 48.6401C82.4597 48.5228 82.7383 48.3468 83.0121 48.1121L84.4786 49.6373C84.0973 50.0577 83.628 50.3804 83.0708 50.6052C82.5135 50.8203 81.8535 50.9279 81.0909 50.9279ZM79.3017 41.894L81.2669 39.6648H84.0533L81.2962 41.894H79.3017ZM89.2244 50.9279C88.5498 50.9279 87.8898 50.8497 87.2446 50.6932C86.6091 50.5368 86.0958 50.3413 85.7047 50.1066L86.5406 48.2001C86.9121 48.425 87.3472 48.6059 87.8458 48.7427C88.3445 48.8698 88.8333 48.9334 89.3124 48.9334C89.7817 48.9334 90.1043 48.8845 90.2803 48.7867C90.4661 48.689 90.5589 48.557 90.5589 48.3908C90.5589 48.2343 90.4709 48.1219 90.295 48.0535C90.1288 47.9753 89.9039 47.9166 89.6204 47.8775C89.3466 47.8384 89.0435 47.7944 88.7111 47.7455C88.3787 47.6966 88.0414 47.6331 87.6992 47.5548C87.3668 47.4668 87.0588 47.3397 86.7753 47.1735C86.5015 46.9976 86.2815 46.7629 86.1153 46.4696C85.9491 46.1763 85.866 45.8048 85.866 45.355C85.866 44.8466 86.0127 44.3969 86.306 44.0058C86.6091 43.605 87.049 43.2921 87.6259 43.0672C88.2027 42.8326 88.9066 42.7153 89.7377 42.7153C90.295 42.7153 90.8571 42.7739 91.4242 42.8912C92.001 42.9988 92.485 43.165 92.8761 43.3899L92.0401 45.2817C91.6491 45.0568 91.258 44.9053 90.8669 44.8271C90.4758 44.7391 90.1043 44.6951 89.7523 44.6951C89.2831 44.6951 88.9506 44.7489 88.7551 44.8564C88.5693 44.964 88.4765 45.0959 88.4765 45.2524C88.4765 45.4088 88.5596 45.531 88.7258 45.619C88.892 45.6972 89.112 45.7608 89.3857 45.8097C89.6692 45.8488 89.9772 45.8928 90.3096 45.9416C90.642 45.9808 90.9745 46.0443 91.3069 46.1323C91.6491 46.2203 91.957 46.3523 92.2308 46.5283C92.5143 46.6945 92.7392 46.9242 92.9054 47.2175C93.0716 47.5011 93.1547 47.8677 93.1547 48.3174C93.1547 48.8063 93.0032 49.2463 92.7001 49.6373C92.4068 50.0284 91.9668 50.3413 91.3802 50.5759C90.8034 50.8106 90.0848 50.9279 89.2244 50.9279ZM98.5204 50.9279C97.5818 50.9279 96.7606 50.7519 96.0566 50.3999C95.3625 50.0382 94.8199 49.5493 94.4288 48.9334C94.0475 48.3077 93.8568 47.5988 93.8568 46.8069C93.8568 46.015 94.0426 45.311 94.4141 44.6951C94.7954 44.0694 95.3185 43.5854 95.9833 43.2432C96.6481 42.8912 97.3961 42.7153 98.2271 42.7153C99.0093 42.7153 99.723 42.8766 100.368 43.1992C101.014 43.5121 101.527 43.9765 101.908 44.5924C102.289 45.2084 102.48 45.9563 102.48 46.8362C102.48 46.934 102.475 47.0464 102.465 47.1735C102.456 47.3006 102.446 47.418 102.436 47.5255H96.1446V46.059H100.955L99.899 46.4696C99.9088 46.1079 99.8403 45.795 99.6937 45.531C99.5568 45.267 99.3612 45.0617 99.107 44.9151C98.8626 44.7684 98.5742 44.6951 98.2418 44.6951C97.9094 44.6951 97.6161 44.7684 97.3619 44.9151C97.1174 45.0617 96.9268 45.2719 96.7899 45.5457C96.653 45.8097 96.5846 46.1225 96.5846 46.4843V46.9096C96.5846 47.3006 96.6628 47.6379 96.8192 47.9215C96.9854 48.205 97.2201 48.425 97.5232 48.5814C97.8263 48.7281 98.188 48.8014 98.6084 48.8014C98.9995 48.8014 99.3319 48.7476 99.6057 48.6401C99.8892 48.5228 100.168 48.3468 100.442 48.1121L101.908 49.6373C101.527 50.0577 101.058 50.3804 100.5 50.6052C99.943 50.8203 99.283 50.9279 98.5204 50.9279ZM103.765 50.7959V42.8472H106.419V45.1644L106.023 44.5044C106.258 43.908 106.639 43.4632 107.167 43.1699C107.695 42.8668 108.336 42.7153 109.088 42.7153V45.223C108.961 45.2035 108.849 45.1937 108.751 45.1937C108.663 45.1839 108.565 45.179 108.458 45.179C107.891 45.179 107.431 45.3355 107.079 45.6483C106.727 45.9514 106.551 46.45 106.551 47.1442V50.7959H103.765ZM112.696 50.7959L109.426 42.8472H112.286L114.896 49.4907H113.459L116.201 42.8472H118.856L115.571 50.7959H112.696ZM123.526 50.9279C122.588 50.9279 121.766 50.7519 121.062 50.3999C120.368 50.0382 119.826 49.5493 119.434 48.9334C119.053 48.3077 118.863 47.5988 118.863 46.8069C118.863 46.015 119.048 45.311 119.42 44.6951C119.801 44.0694 120.324 43.5854 120.989 43.2432C121.654 42.8912 122.402 42.7153 123.233 42.7153C124.015 42.7153 124.729 42.8766 125.374 43.1992C126.019 43.5121 126.533 43.9765 126.914 44.5924C127.295 45.2084 127.486 45.9563 127.486 46.8362C127.486 46.934 127.481 47.0464 127.471 47.1735C127.461 47.3006 127.452 47.418 127.442 47.5255H121.15V46.059H125.961L124.905 46.4696C124.914 46.1079 124.846 45.795 124.699 45.531C124.562 45.267 124.367 45.0617 124.113 44.9151C123.868 44.7684 123.58 44.6951 123.247 44.6951C122.915 44.6951 122.622 44.7684 122.368 44.9151C122.123 45.0617 121.932 45.2719 121.796 45.5457C121.659 45.8097 121.59 46.1225 121.59 46.4843V46.9096C121.59 47.3006 121.668 47.6379 121.825 47.9215C121.991 48.205 122.226 48.425 122.529 48.5814C122.832 48.7281 123.194 48.8014 123.614 48.8014C124.005 48.8014 124.338 48.7476 124.611 48.6401C124.895 48.5228 125.174 48.3468 125.447 48.1121L126.914 49.6373C126.533 50.0577 126.063 50.3804 125.506 50.6052C124.949 50.8203 124.289 50.9279 123.526 50.9279ZM121.737 41.894L123.702 39.6648H126.489L123.731 41.894H121.737ZM136.382 50.9279C135.737 50.9279 135.155 50.8008 134.637 50.5466C134.128 50.2924 133.728 49.8964 133.434 49.3587C133.151 48.8112 133.009 48.1219 133.009 47.2909V42.8472H135.795V46.8362C135.795 47.4522 135.908 47.8921 136.133 48.1561C136.367 48.4201 136.695 48.5521 137.115 48.5521C137.389 48.5521 137.638 48.4885 137.863 48.3614C138.088 48.2343 138.269 48.0339 138.406 47.7602C138.543 47.4766 138.611 47.1149 138.611 46.6749V42.8472H141.398V50.7959H138.743V48.5521L139.256 49.1827C138.983 49.7693 138.587 50.2093 138.069 50.5026C137.55 50.7861 136.988 50.9279 136.382 50.9279ZM148.369 42.7153C148.985 42.7153 149.543 42.8424 150.041 43.0966C150.54 43.341 150.931 43.7223 151.214 44.2405C151.508 44.7586 151.654 45.4284 151.654 46.2496V50.7959H148.868V46.7042C148.868 46.1372 148.751 45.7266 148.516 45.4724C148.291 45.2084 147.973 45.0764 147.563 45.0764C147.269 45.0764 147.001 45.1448 146.756 45.2817C146.512 45.4088 146.321 45.6092 146.184 45.883C146.047 46.1567 145.979 46.5136 145.979 46.9536V50.7959H143.192V42.8472H145.847V45.1057L145.334 44.4458C145.637 43.8689 146.052 43.4387 146.58 43.1552C147.108 42.8619 147.704 42.7153 148.369 42.7153ZM157.669 50.9279C156.73 50.9279 155.909 50.7519 155.205 50.3999C154.511 50.0382 153.968 49.5493 153.577 48.9334C153.196 48.3077 153.005 47.5988 153.005 46.8069C153.005 46.015 153.191 45.311 153.563 44.6951C153.944 44.0694 154.467 43.5854 155.132 43.2432C155.797 42.8912 156.545 42.7153 157.376 42.7153C158.158 42.7153 158.872 42.8766 159.517 43.1992C160.162 43.5121 160.675 43.9765 161.057 44.5924C161.438 45.2084 161.629 45.9563 161.629 46.8362C161.629 46.934 161.624 47.0464 161.614 47.1735C161.604 47.3006 161.594 47.418 161.585 47.5255H155.293V46.059H160.103L159.048 46.4696C159.057 46.1079 158.989 45.795 158.842 45.531C158.705 45.267 158.51 45.0617 158.256 44.9151C158.011 44.7684 157.723 44.6951 157.39 44.6951C157.058 44.6951 156.765 44.7684 156.51 44.9151C156.266 45.0617 156.075 45.2719 155.939 45.5457C155.802 45.8097 155.733 46.1225 155.733 46.4843V46.9096C155.733 47.3006 155.811 47.6379 155.968 47.9215C156.134 48.205 156.369 48.425 156.672 48.5814C156.975 48.7281 157.337 48.8014 157.757 48.8014C158.148 48.8014 158.481 48.7476 158.754 48.6401C159.038 48.5228 159.316 48.3468 159.59 48.1121L161.057 49.6373C160.675 50.0577 160.206 50.3804 159.649 50.6052C159.092 50.8203 158.432 50.9279 157.669 50.9279ZM171.17 50.9279C170.3 50.9279 169.528 50.7519 168.853 50.3999C168.179 50.048 167.646 49.564 167.255 48.9481C166.873 48.3223 166.683 47.6086 166.683 46.8069C166.683 46.0052 166.873 45.2964 167.255 44.6804C167.646 44.0645 168.179 43.5854 168.853 43.2432C169.528 42.8912 170.3 42.7153 171.17 42.7153C172.04 42.7153 172.813 42.8912 173.487 43.2432C174.172 43.5854 174.705 44.0645 175.086 44.6804C175.467 45.2964 175.658 46.0052 175.658 46.8069C175.658 47.6086 175.467 48.3223 175.086 48.9481C174.705 49.564 174.172 50.048 173.487 50.3999C172.813 50.7519 172.04 50.9279 171.17 50.9279ZM171.17 48.7134C171.493 48.7134 171.776 48.6401 172.021 48.4934C172.275 48.3468 172.475 48.1317 172.622 47.8481C172.769 47.5548 172.842 47.2078 172.842 46.8069C172.842 46.4061 172.769 46.0687 172.622 45.795C172.475 45.5115 172.275 45.2964 172.021 45.1497C171.776 45.0031 171.493 44.9297 171.17 44.9297C170.857 44.9297 170.574 45.0031 170.32 45.1497C170.075 45.2964 169.875 45.5115 169.718 45.795C169.572 46.0687 169.498 46.4061 169.498 46.8069C169.498 47.2078 169.572 47.5548 169.718 47.8481C169.875 48.1317 170.075 48.3468 170.32 48.4934C170.574 48.6401 170.857 48.7134 171.17 48.7134ZM177.271 50.7959V42.9352C177.271 41.9771 177.555 41.2145 178.122 40.6474C178.699 40.0706 179.52 39.7822 180.586 39.7822C180.928 39.7822 181.265 39.8164 181.598 39.8848C181.93 39.9533 182.209 40.0559 182.434 40.1928L181.744 42.158C181.627 42.0895 181.495 42.0358 181.348 41.9966C181.202 41.9478 181.055 41.9233 180.908 41.9233C180.615 41.9233 180.385 42.0113 180.219 42.1873C180.063 42.3535 179.984 42.6126 179.984 42.9646V43.5365L180.058 44.6951V50.7959H177.271ZM176.113 45.223V43.1406H181.876V45.223H176.113ZM183.43 50.7959V42.9352C183.43 41.9771 183.713 41.2145 184.28 40.6474C184.857 40.0706 185.678 39.7822 186.744 39.7822C187.086 39.7822 187.424 39.8164 187.756 39.8848C188.088 39.9533 188.367 40.0559 188.592 40.1928L187.903 42.158C187.785 42.0895 187.653 42.0358 187.507 41.9966C187.36 41.9478 187.213 41.9233 187.067 41.9233C186.773 41.9233 186.544 42.0113 186.377 42.1873C186.221 42.3535 186.143 42.6126 186.143 42.9646V43.5365L186.216 44.6951V50.7959H183.43ZM182.271 45.223V43.1406H188.035V45.223H182.271ZM189.165 50.7959V42.8472H191.82V45.1644L191.424 44.5044C191.658 43.908 192.039 43.4632 192.567 43.1699C193.095 42.8668 193.736 42.7153 194.489 42.7153V45.223C194.362 45.2035 194.249 45.1937 194.151 45.1937C194.063 45.1839 193.966 45.179 193.858 45.179C193.291 45.179 192.831 45.3355 192.479 45.6483C192.127 45.9514 191.951 46.45 191.951 47.1442V50.7959H189.165ZM199.732 50.9279C198.793 50.9279 197.972 50.7519 197.268 50.3999C196.574 50.0382 196.031 49.5493 195.64 48.9334C195.259 48.3077 195.068 47.5988 195.068 46.8069C195.068 46.015 195.254 45.311 195.626 44.6951C196.007 44.0694 196.53 43.5854 197.195 43.2432C197.86 42.8912 198.608 42.7153 199.439 42.7153C200.221 42.7153 200.934 42.8766 201.58 43.1992C202.225 43.5121 202.738 43.9765 203.12 44.5924C203.501 45.2084 203.692 45.9563 203.692 46.8362C203.692 46.934 203.687 47.0464 203.677 47.1735C203.667 47.3006 203.657 47.418 203.648 47.5255H197.356V46.059H202.166L201.11 46.4696C201.12 46.1079 201.052 45.795 200.905 45.531C200.768 45.267 200.573 45.0617 200.318 44.9151C200.074 44.7684 199.786 44.6951 199.453 44.6951C199.121 44.6951 198.827 44.7684 198.573 44.9151C198.329 45.0617 198.138 45.2719 198.001 45.5457C197.864 45.8097 197.796 46.1225 197.796 46.4843V46.9096C197.796 47.3006 197.874 47.6379 198.031 47.9215C198.197 48.205 198.432 48.425 198.735 48.5814C199.038 48.7281 199.399 48.8014 199.82 48.8014C200.211 48.8014 200.543 48.7476 200.817 48.6401C201.101 48.5228 201.379 48.3468 201.653 48.1121L203.12 49.6373C202.738 50.0577 202.269 50.3804 201.712 50.6052C201.154 50.8203 200.494 50.9279 199.732 50.9279ZM4.10907 69.7959L0.83868 61.8472H3.69844L6.30888 68.4907H4.87167L7.6141 61.8472H10.2685L6.98349 69.7959H4.10907ZM10.9889 69.7959V61.8472H13.7753V69.7959H10.9889ZM12.3821 60.9673C11.8737 60.9673 11.463 60.8256 11.1502 60.542C10.8373 60.2585 10.6809 59.9065 10.6809 59.4861C10.6809 59.0657 10.8373 58.7137 11.1502 58.4302C11.463 58.1467 11.8737 58.0049 12.3821 58.0049C12.8905 58.0049 13.3011 58.1418 13.614 58.4155C13.9268 58.6795 14.0833 59.0217 14.0833 59.4421C14.0833 59.8821 13.9268 60.2487 13.614 60.542C13.3109 60.8256 12.9003 60.9673 12.3821 60.9673ZM20.4404 69.7959V68.3147L20.2497 67.9481V65.2203C20.2497 64.7803 20.1129 64.443 19.8391 64.2084C19.5751 63.964 19.1498 63.8417 18.5632 63.8417C18.1819 63.8417 17.7957 63.9053 17.4046 64.0324C17.0136 64.1497 16.6811 64.3159 16.4074 64.531L15.4688 62.6392C15.9185 62.3459 16.4563 62.121 17.082 61.9646C17.7175 61.7984 18.3481 61.7153 18.9738 61.7153C20.2644 61.7153 21.2616 62.0135 21.9656 62.6098C22.6793 63.1965 23.0362 64.1204 23.0362 65.3816V69.7959H20.4404ZM18.0939 69.9279C17.4584 69.9279 16.9207 69.8203 16.4807 69.6052C16.0408 69.3902 15.7035 69.0968 15.4688 68.7253C15.2439 68.3538 15.1315 67.9383 15.1315 67.4788C15.1315 66.9899 15.2537 66.5695 15.4981 66.2175C15.7523 65.8558 16.1385 65.582 16.6567 65.3963C17.1749 65.2007 17.8446 65.103 18.6659 65.103H20.543V66.5548H19.0472C18.5974 66.5548 18.2797 66.6282 18.0939 66.7748C17.9179 66.9215 17.8299 67.117 17.8299 67.3614C17.8299 67.6059 17.9228 67.8014 18.1086 67.9481C18.2943 68.0947 18.5485 68.168 18.8712 68.168C19.1743 68.168 19.448 68.0947 19.6924 67.9481C19.9466 67.7916 20.1324 67.557 20.2497 67.2441L20.631 68.2707C20.4844 68.8182 20.196 69.2337 19.7658 69.5173C19.3454 69.791 18.7881 69.9279 18.0939 69.9279ZM29.0628 69.7959V58.9142H31.8493V69.7959H29.0628ZM33.3521 64.2524L34.452 60.4394L34.848 62.0232C34.3592 62.0232 33.9583 61.8815 33.6454 61.5979C33.3326 61.3046 33.1762 60.9135 33.1762 60.4247C33.1762 59.9261 33.3326 59.5301 33.6454 59.2368C33.9681 58.9337 34.3689 58.7822 34.848 58.7822C35.3271 58.7822 35.723 58.9337 36.0359 59.2368C36.3488 59.5301 36.5052 59.9261 36.5052 60.4247C36.5052 60.5616 36.4954 60.7033 36.4759 60.85C36.4563 60.9869 36.4123 61.1531 36.3439 61.3486C36.2852 61.5344 36.1826 61.7886 36.0359 62.1112L35.0973 64.2524H33.3521ZM42.5244 69.7959V68.3147L42.3338 67.9481V65.2203C42.3338 64.7803 42.1969 64.443 41.9232 64.2084C41.6592 63.964 41.2339 63.8417 40.6473 63.8417C40.266 63.8417 39.8798 63.9053 39.4887 64.0324C39.0976 64.1497 38.7652 64.3159 38.4915 64.531L37.5529 62.6392C38.0026 62.3459 38.5403 62.121 39.1661 61.9646C39.8016 61.7984 40.4322 61.7153 41.0579 61.7153C42.3485 61.7153 43.3457 62.0135 44.0496 62.6098C44.7634 63.1965 45.1202 64.1204 45.1202 65.3816V69.7959H42.5244ZM40.178 69.9279C39.5425 69.9279 39.0047 69.8203 38.5648 69.6052C38.1248 69.3902 37.7875 69.0968 37.5529 68.7253C37.328 68.3538 37.2156 67.9383 37.2156 67.4788C37.2156 66.9899 37.3378 66.5695 37.5822 66.2175C37.8364 65.8558 38.2226 65.582 38.7408 65.3963C39.2589 65.2007 39.9287 65.103 40.7499 65.103H42.6271V66.5548H41.1312C40.6815 66.5548 40.3637 66.6282 40.178 66.7748C40.002 66.9215 39.914 67.117 39.914 67.3614C39.914 67.6059 40.0069 67.8014 40.1926 67.9481C40.3784 68.0947 40.6326 68.168 40.9552 68.168C41.2583 68.168 41.5321 68.0947 41.7765 67.9481C42.0307 67.7916 42.2165 67.557 42.3338 67.2441L42.7151 68.2707C42.5684 68.8182 42.28 69.2337 41.8498 69.5173C41.4294 69.791 40.8721 69.9279 40.178 69.9279ZM51.8799 69.9279C51.2053 69.9279 50.6285 69.7812 50.1494 69.4879C49.6704 69.1848 49.3037 68.7351 49.0495 68.1387C48.8051 67.5325 48.6829 66.7602 48.6829 65.8216C48.6829 64.8732 48.8002 64.1008 49.0349 63.5044C49.2695 62.8983 49.6215 62.4485 50.0908 62.1552C50.5698 61.8619 51.1662 61.7153 51.8799 61.7153C52.6034 61.7153 53.2585 61.8864 53.8451 62.2285C54.4415 62.561 54.9108 63.0351 55.253 63.6511C55.605 64.2573 55.7809 64.9808 55.7809 65.8216C55.7809 66.6624 55.605 67.3908 55.253 68.0067C54.9108 68.6227 54.4415 69.0968 53.8451 69.4293C53.2585 69.7617 52.6034 69.9279 51.8799 69.9279ZM46.879 72.641V61.8472H49.5335V63.1965L49.5188 65.8216L49.6655 68.4613V72.641H46.879ZM51.2933 67.7134C51.6062 67.7134 51.8848 67.6401 52.1293 67.4934C52.3835 67.3468 52.5839 67.1317 52.7305 66.8481C52.887 66.5646 52.9652 66.2224 52.9652 65.8216C52.9652 65.4207 52.887 65.0785 52.7305 64.795C52.5839 64.5115 52.3835 64.2964 52.1293 64.1497C51.8848 64.0031 51.6062 63.9297 51.2933 63.9297C50.9805 63.9297 50.6969 64.0031 50.4427 64.1497C50.1983 64.2964 49.9979 64.5115 49.8414 64.795C49.6948 65.0785 49.6215 65.4207 49.6215 65.8216C49.6215 66.2224 49.6948 66.5646 49.8414 66.8481C49.9979 67.1317 50.1983 67.3468 50.4427 67.4934C50.6969 67.6401 50.9805 67.7134 51.2933 67.7134ZM62.077 69.9279C61.4024 69.9279 60.8255 69.7812 60.3465 69.4879C59.8674 69.1848 59.5008 68.7351 59.2466 68.1387C59.0021 67.5325 58.8799 66.7602 58.8799 65.8216C58.8799 64.8732 58.9973 64.1008 59.2319 63.5044C59.4665 62.8983 59.8185 62.4485 60.2878 62.1552C60.7669 61.8619 61.3633 61.7153 62.077 61.7153C62.8005 61.7153 63.4555 61.8864 64.0422 62.2285C64.6385 62.561 65.1078 63.0351 65.45 63.6511C65.802 64.2573 65.978 64.9808 65.978 65.8216C65.978 66.6624 65.802 67.3908 65.45 68.0067C65.1078 68.6227 64.6385 69.0968 64.0422 69.4293C63.4555 69.7617 62.8005 69.9279 62.077 69.9279ZM57.0761 72.641V61.8472H59.7305V63.1965L59.7159 65.8216L59.8625 68.4613V72.641H57.0761ZM61.4904 67.7134C61.8032 67.7134 62.0819 67.6401 62.3263 67.4934C62.5805 67.3468 62.7809 67.1317 62.9276 66.8481C63.084 66.5646 63.1622 66.2224 63.1622 65.8216C63.1622 65.4207 63.084 65.0785 62.9276 64.795C62.7809 64.5115 62.5805 64.2964 62.3263 64.1497C62.0819 64.0031 61.8032 63.9297 61.4904 63.9297C61.1775 63.9297 60.894 64.0031 60.6398 64.1497C60.3954 64.2964 60.1949 64.5115 60.0385 64.795C59.8918 65.0785 59.8185 65.4207 59.8185 65.8216C59.8185 66.2224 59.8918 66.5646 60.0385 66.8481C60.1949 67.1317 60.3954 67.3468 60.6398 67.4934C60.894 67.6401 61.1775 67.7134 61.4904 67.7134ZM67.2731 69.7959V58.9142H70.0596V69.7959H67.2731ZM71.8704 69.7959V61.8472H74.6568V69.7959H71.8704ZM73.2636 60.9673C72.7552 60.9673 72.3446 60.8256 72.0317 60.542C71.7188 60.2585 71.5624 59.9065 71.5624 59.4861C71.5624 59.0657 71.7188 58.7137 72.0317 58.4302C72.3446 58.1467 72.7552 58.0049 73.2636 58.0049C73.772 58.0049 74.1826 58.1418 74.4955 58.4155C74.8084 58.6795 74.9648 59.0217 74.9648 59.4421C74.9648 59.8821 74.8084 60.2487 74.4955 60.542C74.1924 60.8256 73.7818 60.9673 73.2636 60.9673ZM80.53 69.9279C79.6501 69.9279 78.863 69.7519 78.1688 69.3999C77.4845 69.048 76.9467 68.564 76.5556 67.9481C76.1646 67.3223 75.969 66.6086 75.969 65.8069C75.969 65.0052 76.1646 64.2964 76.5556 63.6804C76.9467 63.0645 77.4845 62.5854 78.1688 62.2432C78.863 61.8912 79.6501 61.7153 80.53 61.7153C81.4295 61.7153 82.2067 61.9059 82.8618 62.2872C83.5168 62.6685 83.9812 63.2062 84.255 63.9004L82.0992 65.0003C81.9134 64.6288 81.6837 64.3599 81.4099 64.1937C81.1361 64.0177 80.838 63.9297 80.5153 63.9297C80.1927 63.9297 79.8994 64.0031 79.6354 64.1497C79.3714 64.2964 79.1612 64.5115 79.0048 64.795C78.8581 65.0687 78.7848 65.4061 78.7848 65.8069C78.7848 66.2175 78.8581 66.5646 79.0048 66.8481C79.1612 67.1317 79.3714 67.3468 79.6354 67.4934C79.8994 67.6401 80.1927 67.7134 80.5153 67.7134C80.838 67.7134 81.1361 67.6303 81.4099 67.4641C81.6837 67.2881 81.9134 67.0144 82.0992 66.6428L84.255 67.7427C83.9812 68.4369 83.5168 68.9746 82.8618 69.3559C82.2067 69.7372 81.4295 69.9279 80.53 69.9279ZM90.1584 69.7959V68.3147L89.9677 67.9481V65.2203C89.9677 64.7803 89.8309 64.443 89.5571 64.2084C89.2931 63.964 88.8678 63.8417 88.2812 63.8417C87.8999 63.8417 87.5137 63.9053 87.1227 64.0324C86.7316 64.1497 86.3992 64.3159 86.1254 64.531L85.1868 62.6392C85.6366 62.3459 86.1743 62.121 86.8 61.9646C87.4355 61.7984 88.0661 61.7153 88.6919 61.7153C89.9824 61.7153 90.9797 62.0135 91.6836 62.6098C92.3973 63.1965 92.7542 64.1204 92.7542 65.3816V69.7959H90.1584ZM87.8119 69.9279C87.1764 69.9279 86.6387 69.8203 86.1987 69.6052C85.7588 69.3902 85.4215 69.0968 85.1868 68.7253C84.962 68.3538 84.8495 67.9383 84.8495 67.4788C84.8495 66.9899 84.9717 66.5695 85.2162 66.2175C85.4704 65.8558 85.8565 65.582 86.3747 65.3963C86.8929 65.2007 87.5626 65.103 88.3839 65.103H90.2611V66.5548H88.7652C88.3154 66.5548 87.9977 66.6282 87.8119 66.7748C87.6359 66.9215 87.548 67.117 87.548 67.3614C87.548 67.6059 87.6408 67.8014 87.8266 67.9481C88.0124 68.0947 88.2666 68.168 88.5892 68.168C88.8923 68.168 89.166 68.0947 89.4105 67.9481C89.6647 67.7916 89.8504 67.557 89.9677 67.2441L90.349 68.2707C90.2024 68.8182 89.914 69.2337 89.4838 69.5173C89.0634 69.791 88.5061 69.9279 87.8119 69.9279ZM98.062 69.9279C97.0452 69.9279 96.2533 69.6786 95.6862 69.18C95.1192 68.6715 94.8356 67.9089 94.8356 66.8921V60.0727H97.6221V66.8628C97.6221 67.1463 97.7003 67.3712 97.8567 67.5374C98.0131 67.6939 98.2136 67.7721 98.458 67.7721C98.7904 67.7721 99.0739 67.689 99.3086 67.5228L99.9979 69.4733C99.7632 69.6297 99.4748 69.7421 99.1326 69.8106C98.7904 69.8888 98.4335 69.9279 98.062 69.9279ZM93.6771 64.223V62.1406H99.4406V64.223H93.6771ZM101.072 69.7959V61.8472H103.859V69.7959H101.072ZM102.466 60.9673C101.957 60.9673 101.547 60.8256 101.234 60.542C100.921 60.2585 100.764 59.9065 100.764 59.4861C100.764 59.0657 100.921 58.7137 101.234 58.4302C101.547 58.1467 101.957 58.0049 102.466 58.0049C102.974 58.0049 103.385 58.1418 103.697 58.4155C104.01 58.6795 104.167 59.0217 104.167 59.4421C104.167 59.8821 104.01 60.2487 103.697 60.542C103.394 60.8256 102.984 60.9673 102.466 60.9673ZM109.659 69.9279C108.788 69.9279 108.016 69.7519 107.341 69.3999C106.667 69.048 106.134 68.564 105.743 67.9481C105.362 67.3223 105.171 66.6086 105.171 65.8069C105.171 65.0052 105.362 64.2964 105.743 63.6804C106.134 63.0645 106.667 62.5854 107.341 62.2432C108.016 61.8912 108.788 61.7153 109.659 61.7153C110.529 61.7153 111.301 61.8912 111.976 62.2432C112.66 62.5854 113.193 63.0645 113.574 63.6804C113.956 64.2964 114.146 65.0052 114.146 65.8069C114.146 66.6086 113.956 67.3223 113.574 67.9481C113.193 68.564 112.66 69.048 111.976 69.3999C111.301 69.7519 110.529 69.9279 109.659 69.9279ZM109.659 67.7134C109.981 67.7134 110.265 67.6401 110.509 67.4934C110.763 67.3468 110.964 67.1317 111.11 66.8481C111.257 66.5548 111.33 66.2078 111.33 65.8069C111.33 65.4061 111.257 65.0687 111.11 64.795C110.964 64.5115 110.763 64.2964 110.509 64.1497C110.265 64.0031 109.981 63.9297 109.659 63.9297C109.346 63.9297 109.062 64.0031 108.808 64.1497C108.564 64.2964 108.363 64.5115 108.207 64.795C108.06 65.0687 107.987 65.4061 107.987 65.8069C107.987 66.2078 108.06 66.5548 108.207 66.8481C108.363 67.1317 108.564 67.3468 108.808 67.4934C109.062 67.6401 109.346 67.7134 109.659 67.7134ZM120.614 61.7153C121.23 61.7153 121.787 61.8424 122.286 62.0966C122.784 62.341 123.175 62.7223 123.459 63.2405C123.752 63.7586 123.899 64.4284 123.899 65.2496V69.7959H121.113V65.7042C121.113 65.1372 120.995 64.7266 120.761 64.4724C120.536 64.2084 120.218 64.0764 119.807 64.0764C119.514 64.0764 119.245 64.1448 119.001 64.2817C118.756 64.4088 118.566 64.6092 118.429 64.883C118.292 65.1567 118.223 65.5136 118.223 65.9536V69.7959H115.437V61.8472H118.091V64.1057L117.578 63.4458C117.881 62.8689 118.297 62.4387 118.825 62.1552C119.353 61.8619 119.949 61.7153 120.614 61.7153Z" fill="white"/>
<path d="M195.599 4.94348C197.844 3.9201 207.23 4.51935 211.324 14.104" stroke="white" stroke-width="1.60739" stroke-linecap="round"/>
<path d="M206.297 1.40332C206.297 1.40332 210.763 1.38237 213.355 5.8654" stroke="white" stroke-width="1.60739" stroke-linecap="round"/>
</svg>
