<svg width="201" height="73" viewBox="0 0 201 73" fill="none" xmlns="http://www.w3.org/2000/svg">
<rect y="47.3125" width="148.074" height="11.3903" rx="5.15627" fill="#6123DF"/>
<path d="M3.99485 13.3696V6.44029H6.23668V13.3696H3.99485ZM1.52011 10.9676V8.84225H8.69687V10.9676H1.52011ZM18.1066 15.131C17.3884 15.131 16.7334 14.966 16.1414 14.6361C15.5591 14.2964 15.0932 13.8257 14.7439 13.224C14.3945 12.6126 14.2198 11.8847 14.2198 11.0404C14.2198 10.2058 14.3945 9.48762 14.7439 8.88592C15.0932 8.27451 15.5591 7.80382 16.1414 7.47386C16.7334 7.14389 17.3884 6.97891 18.1066 6.97891C18.7859 6.97891 19.3585 7.12448 19.8244 7.41563C20.2999 7.70678 20.659 8.1532 20.9016 8.7549C21.1442 9.35661 21.2655 10.1184 21.2655 11.0404C21.2655 11.9818 21.1491 12.7533 20.9162 13.355C20.6832 13.9567 20.3339 14.4031 19.868 14.6943C19.4022 14.9854 18.8151 15.131 18.1066 15.131ZM18.6889 12.9329C18.9994 12.9329 19.276 12.8601 19.5187 12.7145C19.771 12.5689 19.9699 12.3554 20.1155 12.074C20.2611 11.7828 20.3339 11.4383 20.3339 11.0404C20.3339 10.6425 20.2611 10.3077 20.1155 10.0359C19.9699 9.75451 19.771 9.541 19.5187 9.39543C19.276 9.24985 18.9994 9.17707 18.6889 9.17707C18.3686 9.17707 18.0823 9.24985 17.83 9.39543C17.5874 9.541 17.3933 9.75451 17.2477 10.0359C17.1021 10.3077 17.0294 10.6425 17.0294 11.0404C17.0294 11.4383 17.1021 11.7828 17.2477 12.074C17.3933 12.3554 17.5874 12.5689 17.83 12.7145C18.0823 12.8601 18.3686 12.9329 18.6889 12.9329ZM20.4212 15V13.6462L20.4358 11.0404L20.2902 8.43464V4.19846H23.0561V15H20.4212ZM28.9699 15.131C28.0382 15.131 27.223 14.9563 26.5243 14.607C25.8352 14.2479 25.2966 13.7626 24.9084 13.1512C24.5299 12.5301 24.3407 11.8265 24.3407 11.0404C24.3407 10.2543 24.5251 9.55556 24.8938 8.94415C25.2723 8.32304 25.7915 7.84264 26.4515 7.50297C27.1114 7.1536 27.8538 6.97891 28.6787 6.97891C29.4551 6.97891 30.1636 7.13904 30.8041 7.4593C31.4446 7.76986 31.9541 8.23084 32.3326 8.84225C32.7111 9.45366 32.9004 10.1961 32.9004 11.0695C32.9004 11.1666 32.8955 11.2782 32.8858 11.4043C32.8761 11.5305 32.8664 11.647 32.8567 11.7537H26.6116V10.298H31.3864L30.3383 10.7056C30.348 10.3465 30.2801 10.0359 30.1345 9.77392C29.9986 9.51189 29.8045 9.30808 29.5522 9.16251C29.3096 9.01694 29.0233 8.94415 28.6933 8.94415C28.3633 8.94415 28.0722 9.01694 27.8199 9.16251C27.5772 9.30808 27.388 9.51674 27.2521 9.78847C27.1163 10.0505 27.0483 10.3611 27.0483 10.7201V11.1423C27.0483 11.5305 27.126 11.8653 27.2812 12.1468C27.4462 12.4282 27.6791 12.6466 27.98 12.8018C28.2808 12.9474 28.6399 13.0202 29.0572 13.0202C29.4454 13.0202 29.7754 12.9668 30.0471 12.8601C30.3286 12.7436 30.6052 12.5689 30.8769 12.336L32.3326 13.85C31.9541 14.2673 31.4883 14.5875 30.9351 14.8108C30.382 15.0243 29.7269 15.131 28.9699 15.131ZM37.9171 13.0493V11.1714L42.4881 4.80987H45.4723L41.0324 11.1714L39.664 10.7638H47.6268V13.0493H37.9171ZM43.3033 15V13.0493L43.3906 10.7638V9.03149H46.1129V15H43.3033ZM63.1189 6.97891C63.7303 6.97891 64.2738 7.10507 64.7493 7.3574C65.2346 7.60002 65.613 7.97851 65.8848 8.49287C66.1662 9.00723 66.3069 9.67202 66.3069 10.4872V15H63.5411V10.9385C63.5411 10.3756 63.4343 9.96802 63.2208 9.71569C63.0073 9.45366 62.7161 9.32264 62.3474 9.32264C62.0853 9.32264 61.8476 9.38572 61.634 9.51189C61.4205 9.63805 61.2556 9.83215 61.1391 10.0942C61.0226 10.3465 60.9644 10.6765 60.9644 11.0841V15H58.1985V10.9385C58.1985 10.3756 58.0918 9.96802 57.8783 9.71569C57.6745 9.45366 57.3833 9.32264 57.0048 9.32264C56.7331 9.32264 56.4905 9.38572 56.2769 9.51189C56.0731 9.63805 55.9082 9.83215 55.782 10.0942C55.6655 10.3465 55.6073 10.6765 55.6073 11.0841V15H52.8414V7.10992H55.4763V9.30808L54.9522 8.68212C55.2434 8.11923 55.6413 7.69707 56.1459 7.41563C56.6506 7.12448 57.2135 6.97891 57.8346 6.97891C58.543 6.97891 59.1642 7.1633 59.6979 7.53209C60.2414 7.89117 60.6053 8.45405 60.7897 9.22074L59.8872 9.03149C60.1686 8.39097 60.5908 7.89117 61.1537 7.53209C61.7262 7.1633 62.3813 6.97891 63.1189 6.97891ZM68.0527 15V7.10992H70.8186V15H68.0527ZM69.4356 6.23648C68.931 6.23648 68.5234 6.09576 68.2128 5.81432C67.9023 5.53288 67.747 5.1835 67.747 4.76619C67.747 4.34888 67.9023 3.99951 68.2128 3.71807C68.5234 3.43662 68.931 3.2959 69.4356 3.2959C69.9403 3.2959 70.3479 3.43177 70.6585 3.70351C70.969 3.96554 71.1243 4.30521 71.1243 4.72252C71.1243 5.15924 70.969 5.52318 70.6585 5.81432C70.3576 6.09576 69.95 6.23648 69.4356 6.23648ZM72.6161 15V4.19846H75.382V15H72.6161ZM77.1795 15V4.19846H79.9453V15H77.1795ZM81.7428 15V7.10992H84.5087V15H81.7428ZM83.1258 6.23648C82.6211 6.23648 82.2135 6.09576 81.903 5.81432C81.5924 5.53288 81.4371 5.1835 81.4371 4.76619C81.4371 4.34888 81.5924 3.99951 81.903 3.71807C82.2135 3.43662 82.6211 3.2959 83.1258 3.2959C83.6304 3.2959 84.038 3.43177 84.3486 3.70351C84.6592 3.96554 84.8144 4.30521 84.8144 4.72252C84.8144 5.15924 84.6592 5.52318 84.3486 5.81432C84.0478 6.09576 83.6401 6.23648 83.1258 6.23648ZM90.2658 15.131C89.4021 15.131 88.6354 14.9563 87.9658 14.607C87.2961 14.2576 86.7672 13.7772 86.379 13.1658C86.0005 12.5447 85.8113 11.8362 85.8113 11.0404C85.8113 10.2446 86.0005 9.541 86.379 8.92959C86.7672 8.31818 87.2961 7.84264 87.9658 7.50297C88.6354 7.1536 89.4021 6.97891 90.2658 6.97891C91.1296 6.97891 91.8962 7.1536 92.5659 7.50297C93.2452 7.84264 93.7741 8.31818 94.1526 8.92959C94.5311 9.541 94.7204 10.2446 94.7204 11.0404C94.7204 11.8362 94.5311 12.5447 94.1526 13.1658C93.7741 13.7772 93.2452 14.2576 92.5659 14.607C91.8962 14.9563 91.1296 15.131 90.2658 15.131ZM90.2658 12.9329C90.5861 12.9329 90.8675 12.8601 91.1101 12.7145C91.3625 12.5689 91.5614 12.3554 91.707 12.074C91.8526 11.7828 91.9254 11.4383 91.9254 11.0404C91.9254 10.6425 91.8526 10.3077 91.707 10.0359C91.5614 9.75451 91.3625 9.541 91.1101 9.39543C90.8675 9.24985 90.5861 9.17707 90.2658 9.17707C89.9553 9.17707 89.6738 9.24985 89.4215 9.39543C89.1789 9.541 88.9799 9.75451 88.8246 10.0359C88.6791 10.3077 88.6063 10.6425 88.6063 11.0404C88.6063 11.4383 88.6791 11.7828 88.8246 12.074C88.9799 12.3554 89.1789 12.5689 89.4215 12.7145C89.6738 12.8601 89.9553 12.9329 90.2658 12.9329ZM101.14 6.97891C101.752 6.97891 102.305 7.10507 102.8 7.3574C103.295 7.60002 103.683 7.97851 103.964 8.49287C104.256 9.00723 104.401 9.67202 104.401 10.4872V15H101.635V10.9385C101.635 10.3756 101.519 9.96802 101.286 9.71569C101.063 9.45366 100.747 9.32264 100.34 9.32264C100.049 9.32264 99.7817 9.39057 99.5391 9.52644C99.2964 9.65261 99.1072 9.85156 98.9713 10.1233C98.8355 10.395 98.7675 10.7493 98.7675 11.186V15H96.0016V7.10992H98.6365V9.35175L98.127 8.69667C98.4279 8.12409 98.8403 7.69707 99.3644 7.41563C99.8884 7.12448 100.48 6.97891 101.14 6.97891ZM109.006 15.131C108.336 15.131 107.681 15.0534 107.04 14.8981C106.409 14.7428 105.9 14.5487 105.512 14.3158L106.342 12.4234C106.71 12.6466 107.142 12.8261 107.637 12.962C108.132 13.0881 108.617 13.1512 109.093 13.1512C109.559 13.1512 109.879 13.1027 110.054 13.0056C110.238 12.9086 110.33 12.7776 110.33 12.6126C110.33 12.4573 110.243 12.3457 110.068 12.2778C109.903 12.2001 109.68 12.1419 109.399 12.1031C109.127 12.0643 108.826 12.0206 108.496 11.9721C108.166 11.9236 107.831 11.8605 107.492 11.7828C107.162 11.6955 106.856 11.5693 106.574 11.4043C106.303 11.2297 106.084 10.9967 105.919 10.7056C105.754 10.4144 105.672 10.0457 105.672 9.59923C105.672 9.09458 105.817 8.64815 106.109 8.25995C106.409 7.86205 106.846 7.5515 107.419 7.32829C107.991 7.09537 108.69 6.97891 109.515 6.97891C110.068 6.97891 110.626 7.03714 111.189 7.1536C111.762 7.26035 112.242 7.42533 112.63 7.64855L111.801 9.52644C111.412 9.30323 111.024 9.1528 110.636 9.07517C110.248 8.98782 109.879 8.94415 109.53 8.94415C109.064 8.94415 108.734 8.99753 108.54 9.10428C108.355 9.21103 108.263 9.34205 108.263 9.49733C108.263 9.65261 108.346 9.77392 108.511 9.86126C108.676 9.9389 108.894 10.002 109.166 10.0505C109.447 10.0893 109.753 10.133 110.083 10.1815C110.413 10.2203 110.743 10.2834 111.073 10.3708C111.412 10.4581 111.718 10.5891 111.99 10.7638C112.271 10.9288 112.494 11.1569 112.659 11.448C112.824 11.7295 112.907 12.0934 112.907 12.5398C112.907 13.0251 112.756 13.4618 112.456 13.85C112.164 14.2382 111.728 14.5487 111.145 14.7816C110.573 15.0146 109.86 15.131 109.006 15.131ZM121.771 15.131C121.053 15.131 120.397 14.966 119.805 14.6361C119.223 14.2964 118.757 13.8257 118.408 13.224C118.059 12.6126 117.884 11.8847 117.884 11.0404C117.884 10.2058 118.059 9.48762 118.408 8.88592C118.757 8.27451 119.223 7.80382 119.805 7.47386C120.397 7.14389 121.053 6.97891 121.771 6.97891C122.45 6.97891 123.023 7.12448 123.488 7.41563C123.964 7.70678 124.323 8.1532 124.566 8.7549C124.808 9.35661 124.93 10.1184 124.93 11.0404C124.93 11.9818 124.813 12.7533 124.58 13.355C124.347 13.9567 123.998 14.4031 123.532 14.6943C123.066 14.9854 122.479 15.131 121.771 15.131ZM122.353 12.9329C122.664 12.9329 122.94 12.8601 123.183 12.7145C123.435 12.5689 123.634 12.3554 123.78 12.074C123.925 11.7828 123.998 11.4383 123.998 11.0404C123.998 10.6425 123.925 10.3077 123.78 10.0359C123.634 9.75451 123.435 9.541 123.183 9.39543C122.94 9.24985 122.664 9.17707 122.353 9.17707C122.033 9.17707 121.746 9.24985 121.494 9.39543C121.252 9.541 121.057 9.75451 120.912 10.0359C120.766 10.3077 120.693 10.6425 120.693 11.0404C120.693 11.4383 120.766 11.7828 120.912 12.074C121.057 12.3554 121.252 12.5689 121.494 12.7145C121.746 12.8601 122.033 12.9329 122.353 12.9329ZM124.085 15V13.6462L124.1 11.0404L123.954 8.43464V4.19846H126.72V15H124.085ZM132.634 15.131C131.702 15.131 130.887 14.9563 130.188 14.607C129.499 14.2479 128.961 13.7626 128.573 13.1512C128.194 12.5301 128.005 11.8265 128.005 11.0404C128.005 10.2543 128.189 9.55556 128.558 8.94415C128.936 8.32304 129.456 7.84264 130.116 7.50297C130.776 7.1536 131.518 6.97891 132.343 6.97891C133.119 6.97891 133.828 7.13904 134.468 7.4593C135.109 7.76986 135.618 8.23084 135.997 8.84225C136.375 9.45366 136.565 10.1961 136.565 11.0695C136.565 11.1666 136.56 11.2782 136.55 11.4043C136.54 11.5305 136.531 11.647 136.521 11.7537H130.276V10.298H135.051L134.002 10.7056C134.012 10.3465 133.944 10.0359 133.799 9.77392C133.663 9.51189 133.469 9.30808 133.216 9.16251C132.974 9.01694 132.687 8.94415 132.357 8.94415C132.027 8.94415 131.736 9.01694 131.484 9.16251C131.241 9.30808 131.052 9.51674 130.916 9.78847C130.78 10.0505 130.712 10.3611 130.712 10.7201V11.1423C130.712 11.5305 130.79 11.8653 130.945 12.1468C131.11 12.4282 131.343 12.6466 131.644 12.8018C131.945 12.9474 132.304 13.0202 132.721 13.0202C133.11 13.0202 133.44 12.9668 133.711 12.8601C133.993 12.7436 134.269 12.5689 134.541 12.336L135.997 13.85C135.618 14.2673 135.152 14.5875 134.599 14.8108C134.046 15.0243 133.391 15.131 132.634 15.131ZM141.741 17.9551C141.373 17.9551 141.023 17.9163 140.693 17.8387C140.354 17.7707 140.062 17.6737 139.82 17.5475L140.519 15.5823C140.771 15.7376 141.057 15.8152 141.377 15.8152C141.62 15.8152 141.814 15.7327 141.96 15.5677C142.115 15.4028 142.193 15.1407 142.193 14.7816V7.10992H144.959V14.7962C144.959 15.757 144.677 16.5237 144.114 17.0963C143.551 17.6688 142.76 17.9551 141.741 17.9551ZM143.576 6.23648C143.071 6.23648 142.663 6.09576 142.353 5.81432C142.042 5.53288 141.887 5.1835 141.887 4.76619C141.887 4.34888 142.042 3.99951 142.353 3.71807C142.663 3.43662 143.071 3.2959 143.576 3.2959C144.08 3.2959 144.488 3.43177 144.798 3.70351C145.109 3.96554 145.264 4.30521 145.264 4.72252C145.264 5.15924 145.109 5.52318 144.798 5.81432C144.498 6.09576 144.09 6.23648 143.576 6.23648ZM150.873 15.131C149.942 15.131 149.126 14.9563 148.428 14.607C147.739 14.2479 147.2 13.7626 146.812 13.1512C146.433 12.5301 146.244 11.8265 146.244 11.0404C146.244 10.2543 146.428 9.55556 146.797 8.94415C147.176 8.32304 147.695 7.84264 148.355 7.50297C149.015 7.1536 149.757 6.97891 150.582 6.97891C151.359 6.97891 152.067 7.13904 152.708 7.4593C153.348 7.76986 153.858 8.23084 154.236 8.84225C154.615 9.45366 154.804 10.1961 154.804 11.0695C154.804 11.1666 154.799 11.2782 154.789 11.4043C154.78 11.5305 154.77 11.647 154.76 11.7537H148.515V10.298H153.29L152.242 10.7056C152.251 10.3465 152.183 10.0359 152.038 9.77392C151.902 9.51189 151.708 9.30808 151.456 9.16251C151.213 9.01694 150.927 8.94415 150.597 8.94415C150.267 8.94415 149.976 9.01694 149.723 9.16251C149.481 9.30808 149.291 9.51674 149.156 9.78847C149.02 10.0505 148.952 10.3611 148.952 10.7201V11.1423C148.952 11.5305 149.029 11.8653 149.185 12.1468C149.35 12.4282 149.583 12.6466 149.883 12.8018C150.184 12.9474 150.543 13.0202 150.961 13.0202C151.349 13.0202 151.679 12.9668 151.951 12.8601C152.232 12.7436 152.509 12.5689 152.78 12.336L154.236 13.85C153.858 14.2673 153.392 14.5875 152.839 14.8108C152.285 15.0243 151.63 15.131 150.873 15.131ZM159.398 15.131C158.758 15.131 158.18 15.0049 157.666 14.7525C157.161 14.5002 156.763 14.1072 156.472 13.5734C156.191 13.0299 156.05 12.3457 156.05 11.5208V7.10992H158.816V11.0695C158.816 11.6809 158.927 12.1176 159.151 12.3797C159.384 12.6417 159.709 12.7727 160.126 12.7727C160.398 12.7727 160.645 12.7096 160.868 12.5835C161.092 12.4573 161.271 12.2584 161.407 11.9866C161.543 11.7052 161.611 11.3461 161.611 10.9094V7.10992H164.377V15H161.742V12.7727L162.251 13.3987C161.98 13.981 161.587 14.4177 161.072 14.7089C160.558 14.9903 160 15.131 159.398 15.131ZM171.297 6.97891C171.908 6.97891 172.462 7.10507 172.957 7.3574C173.452 7.60002 173.84 7.97851 174.121 8.49287C174.412 9.00723 174.558 9.67202 174.558 10.4872V15H171.792V10.9385C171.792 10.3756 171.676 9.96802 171.443 9.71569C171.219 9.45366 170.904 9.32264 170.496 9.32264C170.205 9.32264 169.938 9.39057 169.696 9.52644C169.453 9.65261 169.264 9.85156 169.128 10.1233C168.992 10.395 168.924 10.7493 168.924 11.186V15H166.158V7.10992H168.793V9.35175L168.284 8.69667C168.585 8.12409 168.997 7.69707 169.521 7.41563C170.045 7.12448 170.637 6.97891 171.297 6.97891ZM180.528 15.131C179.597 15.131 178.781 14.9563 178.083 14.607C177.394 14.2479 176.855 13.7626 176.467 13.1512C176.088 12.5301 175.899 11.8265 175.899 11.0404C175.899 10.2543 176.083 9.55556 176.452 8.94415C176.831 8.32304 177.35 7.84264 178.01 7.50297C178.67 7.1536 179.412 6.97891 180.237 6.97891C181.013 6.97891 181.722 7.13904 182.362 7.4593C183.003 7.76986 183.512 8.23084 183.891 8.84225C184.269 9.45366 184.459 10.1961 184.459 11.0695C184.459 11.1666 184.454 11.2782 184.444 11.4043C184.434 11.5305 184.425 11.647 184.415 11.7537H178.17V10.298H182.945L181.897 10.7056C181.906 10.3465 181.838 10.0359 181.693 9.77392C181.557 9.51189 181.363 9.30808 181.111 9.16251C180.868 9.01694 180.582 8.94415 180.252 8.94415C179.922 8.94415 179.631 9.01694 179.378 9.16251C179.136 9.30808 178.946 9.51674 178.81 9.78847C178.675 10.0505 178.607 10.3611 178.607 10.7201V11.1423C178.607 11.5305 178.684 11.8653 178.84 12.1468C179.005 12.4282 179.237 12.6466 179.538 12.8018C179.839 12.9474 180.198 13.0202 180.616 13.0202C181.004 13.0202 181.334 12.9668 181.605 12.8601C181.887 12.7436 182.163 12.5689 182.435 12.336L183.891 13.85C183.512 14.2673 183.047 14.5875 182.493 14.8108C181.94 15.0243 181.285 15.131 180.528 15.131ZM188.602 15.131C187.932 15.131 187.277 15.0534 186.636 14.8981C186.006 14.7428 185.496 14.5487 185.108 14.3158L185.938 12.4234C186.307 12.6466 186.738 12.8261 187.233 12.962C187.728 13.0881 188.214 13.1512 188.689 13.1512C189.155 13.1512 189.475 13.1027 189.65 13.0056C189.834 12.9086 189.926 12.7776 189.926 12.6126C189.926 12.4573 189.839 12.3457 189.664 12.2778C189.499 12.2001 189.276 12.1419 188.995 12.1031C188.723 12.0643 188.422 12.0206 188.092 11.9721C187.762 11.9236 187.427 11.8605 187.088 11.7828C186.758 11.6955 186.452 11.5693 186.171 11.4043C185.899 11.2297 185.681 10.9967 185.516 10.7056C185.351 10.4144 185.268 10.0457 185.268 9.59923C185.268 9.09458 185.414 8.64815 185.705 8.25995C186.006 7.86205 186.442 7.5515 187.015 7.32829C187.588 7.09537 188.286 6.97891 189.111 6.97891C189.664 6.97891 190.222 7.03714 190.785 7.1536C191.358 7.26035 191.838 7.42533 192.227 7.64855L191.397 9.52644C191.009 9.30323 190.62 9.1528 190.232 9.07517C189.844 8.98782 189.475 8.94415 189.126 8.94415C188.66 8.94415 188.33 8.99753 188.136 9.10428C187.952 9.21103 187.859 9.34205 187.859 9.49733C187.859 9.65261 187.942 9.77392 188.107 9.86126C188.272 9.9389 188.49 10.002 188.762 10.0505C189.043 10.0893 189.349 10.133 189.679 10.1815C190.009 10.2203 190.339 10.2834 190.669 10.3708C191.009 10.4581 191.314 10.5891 191.586 10.7638C191.867 10.9288 192.091 11.1569 192.256 11.448C192.421 11.7295 192.503 12.0934 192.503 12.5398C192.503 13.0251 192.353 13.4618 192.052 13.85C191.761 14.2382 191.324 14.5487 190.742 14.7816C190.169 15.0146 189.456 15.131 188.602 15.131ZM4.43157 34.131C3.76194 34.131 3.10686 34.0534 2.46633 33.8981C1.83552 33.7428 1.32601 33.5487 0.937813 33.3158L1.76758 31.4234C2.13637 31.6466 2.56823 31.8261 3.06318 31.962C3.55813 32.0881 4.04338 32.1512 4.51892 32.1512C4.98475 32.1512 5.30501 32.1027 5.4797 32.0056C5.66409 31.9086 5.75629 31.7776 5.75629 31.6126C5.75629 31.4573 5.66895 31.3457 5.49426 31.2778C5.32928 31.2001 5.10606 31.1419 4.82462 31.1031C4.55288 31.0643 4.25203 31.0206 3.92207 30.9721C3.5921 30.9236 3.25728 30.8605 2.91761 30.7828C2.58764 30.6955 2.28194 30.5693 2.0005 30.4043C1.72876 30.2297 1.5104 29.9967 1.34542 29.7056C1.18044 29.4144 1.09794 29.0457 1.09794 28.5992C1.09794 28.0946 1.24352 27.6482 1.53466 27.26C1.83552 26.8621 2.27224 26.5515 2.84482 26.3283C3.41741 26.0954 4.11616 25.9789 4.94108 25.9789C5.49426 25.9789 6.05229 26.0371 6.61517 26.1536C7.18776 26.2604 7.66815 26.4253 8.05635 26.6485L7.22658 28.5264C6.83839 28.3032 6.45019 28.1528 6.06199 28.0752C5.6738 27.9878 5.30501 27.9441 4.95564 27.9441C4.4898 27.9441 4.15984 27.9975 3.96574 28.1043C3.78135 28.211 3.68915 28.342 3.68915 28.4973C3.68915 28.6526 3.77164 28.7739 3.93662 28.8613C4.10161 28.9389 4.31997 29.002 4.5917 29.0505C4.87315 29.0893 5.17885 29.133 5.50882 29.1815C5.83878 29.2203 6.16875 29.2834 6.49871 29.3708C6.83839 29.4581 7.14409 29.5891 7.41583 29.7638C7.69727 29.9288 7.92048 30.1569 8.08546 30.448C8.25045 30.7295 8.33294 31.0934 8.33294 31.5398C8.33294 32.0251 8.18251 32.4618 7.88166 32.85C7.59051 33.2382 7.15379 33.5487 6.5715 33.7816C5.99891 34.0146 5.2856 34.131 4.43157 34.131ZM13.5572 34.131C12.6838 34.131 11.9025 33.9563 11.2135 33.607C10.5341 33.2576 10.0004 32.7772 9.61216 32.1658C9.22397 31.5447 9.02987 30.8362 9.02987 30.0404C9.02987 29.2446 9.22397 28.541 9.61216 27.9296C10.0004 27.3182 10.5341 26.8426 11.2135 26.503C11.9025 26.1536 12.6838 25.9789 13.5572 25.9789C14.4501 25.9789 15.2216 26.1682 15.8718 26.5466C16.522 26.9251 16.983 27.4589 17.2548 28.148L15.1148 29.2398C14.9304 28.871 14.7024 28.6041 14.4306 28.4391C14.1589 28.2644 13.8629 28.1771 13.5426 28.1771C13.2224 28.1771 12.9312 28.2499 12.6692 28.3954C12.4072 28.541 12.1985 28.7545 12.0432 29.0359C11.8977 29.3077 11.8249 29.6425 11.8249 30.0404C11.8249 30.448 11.8977 30.7925 12.0432 31.074C12.1985 31.3554 12.4072 31.5689 12.6692 31.7145C12.9312 31.8601 13.2224 31.9329 13.5426 31.9329C13.8629 31.9329 14.1589 31.8504 14.4306 31.6854C14.7024 31.5107 14.9304 31.239 15.1148 30.8702L17.2548 31.962C16.983 32.651 16.522 33.1848 15.8718 33.5633C15.2216 33.9418 14.4501 34.131 13.5572 34.131ZM22.1705 34.131C21.3067 34.131 20.5401 33.9563 19.8704 33.607C19.2008 33.2576 18.6719 32.7772 18.2837 32.1658C17.9052 31.5447 17.7159 30.8362 17.7159 30.0404C17.7159 29.2446 17.9052 28.541 18.2837 27.9296C18.6719 27.3182 19.2008 26.8426 19.8704 26.503C20.5401 26.1536 21.3067 25.9789 22.1705 25.9789C23.0342 25.9789 23.8009 26.1536 24.4705 26.503C25.1499 26.8426 25.6788 27.3182 26.0573 27.9296C26.4358 28.541 26.625 29.2446 26.625 30.0404C26.625 30.8362 26.4358 31.5447 26.0573 32.1658C25.6788 32.7772 25.1499 33.2576 24.4705 33.607C23.8009 33.9563 23.0342 34.131 22.1705 34.131ZM22.1705 31.9329C22.4907 31.9329 22.7722 31.8601 23.0148 31.7145C23.2671 31.5689 23.4661 31.3554 23.6117 31.074C23.7572 30.7828 23.83 30.4383 23.83 30.0404C23.83 29.6425 23.7572 29.3077 23.6117 29.0359C23.4661 28.7545 23.2671 28.541 23.0148 28.3954C22.7722 28.2499 22.4907 28.1771 22.1705 28.1771C21.8599 28.1771 21.5785 28.2499 21.3262 28.3954C21.0835 28.541 20.8846 28.7545 20.7293 29.0359C20.5837 29.3077 20.5109 29.6425 20.5109 30.0404C20.5109 30.4383 20.5837 30.7828 20.7293 31.074C20.8846 31.3554 21.0835 31.5689 21.3262 31.7145C21.5785 31.8601 21.8599 31.9329 22.1705 31.9329ZM27.9063 34V23.1985H30.6722V34H27.9063ZM37.2882 34V32.5297L37.0989 32.1658V29.4581C37.0989 29.0214 36.963 28.6866 36.6913 28.4537C36.4293 28.211 36.0071 28.0897 35.4248 28.0897C35.0463 28.0897 34.663 28.1528 34.2748 28.279C33.8866 28.3954 33.5566 28.5604 33.2849 28.7739L32.3532 26.896C32.7996 26.6049 33.3334 26.3817 33.9545 26.2264C34.5853 26.0614 35.2113 25.9789 35.8324 25.9789C37.1135 25.9789 38.1034 26.2749 38.8021 26.8669C39.5106 27.4492 39.8648 28.3663 39.8648 29.6182V34H37.2882ZM34.959 34.131C34.3282 34.131 33.7944 34.0243 33.3577 33.8108C32.921 33.5972 32.5861 33.3061 32.3532 32.9373C32.13 32.5685 32.0184 32.1561 32.0184 31.6999C32.0184 31.2147 32.1397 30.7974 32.3823 30.448C32.6347 30.0889 33.018 29.8172 33.5324 29.6328C34.0467 29.4387 34.7115 29.3417 35.5267 29.3417H37.3901V30.7828H35.9052C35.4588 30.7828 35.1434 30.8556 34.959 31.0012C34.7843 31.1468 34.697 31.3409 34.697 31.5835C34.697 31.8261 34.7891 32.0202 34.9735 32.1658C35.1579 32.3113 35.4103 32.3841 35.7305 32.3841C36.0314 32.3841 36.3031 32.3113 36.5457 32.1658C36.7981 32.0105 36.9825 31.7776 37.0989 31.467L37.4774 32.486C37.3318 33.0295 37.0455 33.442 36.6185 33.7234C36.2012 33.9951 35.648 34.131 34.959 34.131ZM41.6107 34V26.1099H44.2455V28.41L43.8525 27.7549C44.0854 27.1629 44.4639 26.7213 44.988 26.4302C45.512 26.1293 46.1477 25.9789 46.895 25.9789V28.4682C46.7688 28.4488 46.6572 28.4391 46.5602 28.4391C46.4728 28.4294 46.3758 28.4245 46.269 28.4245C45.7061 28.4245 45.25 28.5798 44.9006 28.8904C44.5512 29.1912 44.3766 29.6862 44.3766 30.3752V34H41.6107ZM48.0364 34V26.1099H50.8023V34H48.0364ZM49.4193 25.2365C48.9147 25.2365 48.507 25.0958 48.1965 24.8143C47.8859 24.5329 47.7307 24.1835 47.7307 23.7662C47.7307 23.3489 47.8859 22.9995 48.1965 22.7181C48.507 22.4366 48.9147 22.2959 49.4193 22.2959C49.924 22.2959 50.3316 22.4318 50.6421 22.7035C50.9527 22.9655 51.108 23.3052 51.108 23.7225C51.108 24.1592 50.9527 24.5232 50.6421 24.8143C50.3413 25.0958 49.9337 25.2365 49.4193 25.2365ZM55.4675 34.131C54.7979 34.131 54.1428 34.0534 53.5023 33.8981C52.8715 33.7428 52.362 33.5487 51.9738 33.3158L52.8035 31.4234C53.1723 31.6466 53.6042 31.8261 54.0991 31.962C54.5941 32.0881 55.0793 32.1512 55.5549 32.1512C56.0207 32.1512 56.341 32.1027 56.5157 32.0056C56.7001 31.9086 56.7923 31.7776 56.7923 31.6126C56.7923 31.4573 56.7049 31.3457 56.5302 31.2778C56.3652 31.2001 56.142 31.1419 55.8606 31.1031C55.5888 31.0643 55.288 31.0206 54.958 30.9721C54.6281 30.9236 54.2932 30.8605 53.9536 30.7828C53.6236 30.6955 53.3179 30.5693 53.0365 30.4043C52.7647 30.2297 52.5464 29.9967 52.3814 29.7056C52.2164 29.4144 52.1339 29.0457 52.1339 28.5992C52.1339 28.0946 52.2795 27.6482 52.5706 27.26C52.8715 26.8621 53.3082 26.5515 53.8808 26.3283C54.4534 26.0954 55.1521 25.9789 55.977 25.9789C56.5302 25.9789 57.0883 26.0371 57.6511 26.1536C58.2237 26.2604 58.7041 26.4253 59.0923 26.6485L58.2625 28.5264C57.8743 28.3032 57.4862 28.1528 57.098 28.0752C56.7098 27.9878 56.341 27.9441 55.9916 27.9441C55.5258 27.9441 55.1958 27.9975 55.0017 28.1043C54.8173 28.211 54.7251 28.342 54.7251 28.4973C54.7251 28.6526 54.8076 28.7739 54.9726 28.8613C55.1376 28.9389 55.3559 29.002 55.6277 29.0505C55.9091 29.0893 56.2148 29.133 56.5448 29.1815C56.8747 29.2203 57.2047 29.2834 57.5347 29.3708C57.8743 29.4581 58.1801 29.5891 58.4518 29.7638C58.7332 29.9288 58.9564 30.1569 59.1214 30.448C59.2864 30.7295 59.3689 31.0934 59.3689 31.5398C59.3689 32.0251 59.2185 32.4618 58.9176 32.85C58.6265 33.2382 58.1898 33.5487 57.6075 33.7816C57.0349 34.0146 56.3216 34.131 55.4675 34.131ZM64.6951 34.131C63.7634 34.131 62.9482 33.9563 62.2494 33.607C61.5604 33.2479 61.0218 32.7626 60.6336 32.1512C60.2551 31.5301 60.0658 30.8265 60.0658 30.0404C60.0658 29.2543 60.2502 28.5556 60.619 27.9441C60.9975 27.323 61.5167 26.8426 62.1766 26.503C62.8366 26.1536 63.579 25.9789 64.4039 25.9789C65.1803 25.9789 65.8888 26.139 66.5293 26.4593C67.1698 26.7699 67.6793 27.2308 68.0578 27.8422C68.4363 28.4537 68.6255 29.1961 68.6255 30.0695C68.6255 30.1666 68.6207 30.2782 68.611 30.4043C68.6013 30.5305 68.5916 30.647 68.5819 30.7537H62.3368V29.298H67.1116L66.0635 29.7056C66.0732 29.3465 66.0052 29.0359 65.8597 28.7739C65.7238 28.5119 65.5297 28.3081 65.2774 28.1625C65.0347 28.0169 64.7484 27.9441 64.4185 27.9441C64.0885 27.9441 63.7974 28.0169 63.545 28.1625C63.3024 28.3081 63.1132 28.5167 62.9773 28.7885C62.8414 29.0505 62.7735 29.3611 62.7735 29.7201V30.1423C62.7735 30.5305 62.8511 30.8653 63.0064 31.1468C63.1714 31.4282 63.4043 31.6466 63.7052 31.8018C64.006 31.9474 64.3651 32.0202 64.7824 32.0202C65.1706 32.0202 65.5006 31.9668 65.7723 31.8601C66.0538 31.7436 66.3303 31.5689 66.6021 31.336L68.0578 32.85C67.6793 33.2673 67.2135 33.5875 66.6603 33.8108C66.1071 34.0243 65.452 34.131 64.6951 34.131ZM62.9191 25.1637L64.8698 22.951H67.6356L64.8989 25.1637H62.9191ZM72.7686 34.131C72.0989 34.131 71.4439 34.0534 70.8033 33.8981C70.1725 33.7428 69.663 33.5487 69.2748 33.3158L70.1046 31.4234C70.4734 31.6466 70.9052 31.8261 71.4002 31.962C71.8951 32.0881 72.3804 32.1512 72.8559 32.1512C73.3218 32.1512 73.642 32.1027 73.8167 32.0056C74.0011 31.9086 74.0933 31.7776 74.0933 31.6126C74.0933 31.4573 74.006 31.3457 73.8313 31.2778C73.6663 31.2001 73.4431 31.1419 73.1616 31.1031C72.8899 31.0643 72.589 31.0206 72.2591 30.9721C71.9291 30.9236 71.5943 30.8605 71.2546 30.7828C70.9247 30.6955 70.619 30.5693 70.3375 30.4043C70.0658 30.2297 69.8474 29.9967 69.6824 29.7056C69.5174 29.4144 69.435 29.0457 69.435 28.5992C69.435 28.0946 69.5805 27.6482 69.8717 27.26C70.1725 26.8621 70.6092 26.5515 71.1818 26.3283C71.7544 26.0954 72.4532 25.9789 73.2781 25.9789C73.8313 25.9789 74.3893 26.0371 74.9522 26.1536C75.5248 26.2604 76.0052 26.4253 76.3934 26.6485L75.5636 28.5264C75.1754 28.3032 74.7872 28.1528 74.399 28.0752C74.0108 27.9878 73.642 27.9441 73.2927 27.9441C72.8268 27.9441 72.4968 27.9975 72.3028 28.1043C72.1184 28.211 72.0262 28.342 72.0262 28.4973C72.0262 28.6526 72.1087 28.7739 72.2736 28.8613C72.4386 28.9389 72.657 29.002 72.9287 29.0505C73.2102 29.0893 73.5159 29.133 73.8458 29.1815C74.1758 29.2203 74.5058 29.2834 74.8357 29.3708C75.1754 29.4581 75.4811 29.5891 75.7528 29.7638C76.0343 29.9288 76.2575 30.1569 76.4225 30.448C76.5875 30.7295 76.67 31.0934 76.67 31.5398C76.67 32.0251 76.5195 32.4618 76.2187 32.85C75.9275 33.2382 75.4908 33.5487 74.9085 33.7816C74.3359 34.0146 73.6226 34.131 72.7686 34.131ZM86.0578 34.131C85.1941 34.131 84.4274 33.9563 83.7578 33.607C83.0881 33.2576 82.5592 32.7772 82.171 32.1658C81.7925 31.5447 81.6033 30.8362 81.6033 30.0404C81.6033 29.2446 81.7925 28.541 82.171 27.9296C82.5592 27.3182 83.0881 26.8426 83.7578 26.503C84.4274 26.1536 85.1941 25.9789 86.0578 25.9789C86.9216 25.9789 87.6883 26.1536 88.3579 26.503C89.0372 26.8426 89.5662 27.3182 89.9446 27.9296C90.3231 28.541 90.5124 29.2446 90.5124 30.0404C90.5124 30.8362 90.3231 31.5447 89.9446 32.1658C89.5662 32.7772 89.0372 33.2576 88.3579 33.607C87.6883 33.9563 86.9216 34.131 86.0578 34.131ZM86.0578 31.9329C86.3781 31.9329 86.6595 31.8601 86.9022 31.7145C87.1545 31.5689 87.3534 31.3554 87.499 31.074C87.6446 30.7828 87.7174 30.4383 87.7174 30.0404C87.7174 29.6425 87.6446 29.3077 87.499 29.0359C87.3534 28.7545 87.1545 28.541 86.9022 28.3954C86.6595 28.2499 86.3781 28.1771 86.0578 28.1771C85.7473 28.1771 85.4658 28.2499 85.2135 28.3954C84.9709 28.541 84.7719 28.7545 84.6167 29.0359C84.4711 29.3077 84.3983 29.6425 84.3983 30.0404C84.3983 30.4383 84.4711 30.7828 84.6167 31.074C84.7719 31.3554 84.9709 31.5689 85.2135 31.7145C85.4658 31.8601 85.7473 31.9329 86.0578 31.9329ZM96.9324 25.9789C97.5438 25.9789 98.097 26.1051 98.5919 26.3574C99.0869 26.6 99.4751 26.9785 99.7565 27.4929C100.048 28.0072 100.193 28.672 100.193 29.4872V34H97.4273V29.9385C97.4273 29.3756 97.3109 28.968 97.078 28.7157C96.8548 28.4537 96.5393 28.3226 96.1317 28.3226C95.8406 28.3226 95.5737 28.3906 95.3311 28.5264C95.0885 28.6526 94.8992 28.8516 94.7633 29.1233C94.6275 29.395 94.5595 29.7493 94.5595 30.186V34H91.7937V26.1099H94.4285V28.3518L93.919 27.6967C94.2199 27.1241 94.6323 26.6971 95.1564 26.4156C95.6805 26.1245 96.2725 25.9789 96.9324 25.9789ZM105.453 34.131C104.443 34.131 103.657 33.8835 103.094 33.3886C102.531 32.8839 102.25 32.127 102.25 31.1176V24.3485H105.016V31.0885C105.016 31.37 105.094 31.5932 105.249 31.7582C105.404 31.9134 105.603 31.9911 105.846 31.9911C106.176 31.9911 106.457 31.9086 106.69 31.7436L107.374 33.6797C107.141 33.835 106.855 33.9466 106.515 34.0146C106.176 34.0922 105.821 34.131 105.453 34.131ZM101.1 28.4682V26.4011H106.821V28.4682H101.1ZM117.641 34.131C116.972 34.131 116.399 33.9854 115.923 33.6943C115.448 33.3934 115.084 32.947 114.832 32.355C114.589 31.7533 114.468 30.9866 114.468 30.055C114.468 29.1136 114.584 28.3469 114.817 27.7549C115.05 27.1532 115.399 26.7068 115.865 26.4156C116.341 26.1245 116.933 25.9789 117.641 25.9789C118.359 25.9789 119.01 26.1487 119.592 26.4884C120.184 26.8184 120.65 27.2891 120.989 27.9005C121.339 28.5022 121.513 29.2203 121.513 30.055C121.513 30.8896 121.339 31.6126 120.989 32.224C120.65 32.8354 120.184 33.3061 119.592 33.6361C119.01 33.966 118.359 34.131 117.641 34.131ZM112.677 36.8241V26.1099H115.312V27.4492L115.297 30.055L115.443 32.6753V36.8241H112.677ZM117.059 31.9329C117.369 31.9329 117.646 31.8601 117.889 31.7145C118.141 31.5689 118.34 31.3554 118.486 31.074C118.641 30.7925 118.718 30.4529 118.718 30.055C118.718 29.6571 118.641 29.3174 118.486 29.0359C118.34 28.7545 118.141 28.541 117.889 28.3954C117.646 28.2499 117.369 28.1771 117.059 28.1771C116.748 28.1771 116.467 28.2499 116.215 28.3954C115.972 28.541 115.773 28.7545 115.618 29.0359C115.472 29.3174 115.399 29.6571 115.399 30.055C115.399 30.4529 115.472 30.7925 115.618 31.074C115.773 31.3554 115.972 31.5689 116.215 31.7145C116.467 31.8601 116.748 31.9329 117.059 31.9329ZM127.447 34V32.5297L127.258 32.1658V29.4581C127.258 29.0214 127.122 28.6866 126.85 28.4537C126.588 28.211 126.166 28.0897 125.584 28.0897C125.205 28.0897 124.822 28.1528 124.434 28.279C124.045 28.3954 123.715 28.5604 123.444 28.7739L122.512 26.896C122.958 26.6049 123.492 26.3817 124.113 26.2264C124.744 26.0614 125.37 25.9789 125.991 25.9789C127.272 25.9789 128.262 26.2749 128.961 26.8669C129.669 27.4492 130.024 28.3663 130.024 29.6182V34H127.447ZM125.118 34.131C124.487 34.131 123.953 34.0243 123.516 33.8108C123.08 33.5972 122.745 33.3061 122.512 32.9373C122.289 32.5685 122.177 32.1561 122.177 31.6999C122.177 31.2147 122.299 30.7974 122.541 30.448C122.793 30.0889 123.177 29.8172 123.691 29.6328C124.206 29.4387 124.87 29.3417 125.686 29.3417H127.549V30.7828H126.064C125.618 30.7828 125.302 30.8556 125.118 31.0012C124.943 31.1468 124.856 31.3409 124.856 31.5835C124.856 31.8261 124.948 32.0202 125.132 32.1658C125.317 32.3113 125.569 32.3841 125.889 32.3841C126.19 32.3841 126.462 32.3113 126.705 32.1658C126.957 32.0105 127.141 31.7776 127.258 31.467L127.636 32.486C127.491 33.0295 127.204 33.442 126.777 33.7234C126.36 33.9951 125.807 34.131 125.118 34.131ZM131.769 34V26.1099H134.404V28.41L134.011 27.7549C134.244 27.1629 134.623 26.7213 135.147 26.4302C135.671 26.1293 136.306 25.9789 137.054 25.9789V28.4682C136.928 28.4488 136.816 28.4391 136.719 28.4391C136.632 28.4294 136.535 28.4245 136.428 28.4245C135.865 28.4245 135.409 28.5798 135.059 28.8904C134.71 29.1912 134.535 29.6862 134.535 30.3752V34H131.769ZM141.96 34.131C140.95 34.131 140.164 33.8835 139.601 33.3886C139.039 32.8839 138.757 32.127 138.757 31.1176V24.3485H141.523V31.0885C141.523 31.37 141.601 31.5932 141.756 31.7582C141.911 31.9134 142.11 31.9911 142.353 31.9911C142.683 31.9911 142.964 31.9086 143.197 31.7436L143.881 33.6797C143.648 33.835 143.362 33.9466 143.022 34.0146C142.683 34.0922 142.328 34.131 141.96 34.131ZM137.607 28.4682V26.4011H143.328V28.4682H137.607ZM144.948 34V26.1099H147.714V34H144.948ZM146.331 25.2365C145.826 25.2365 145.419 25.0958 145.108 24.8143C144.797 24.5329 144.642 24.1835 144.642 23.7662C144.642 23.3489 144.797 22.9995 145.108 22.7181C145.419 22.4366 145.826 22.2959 146.331 22.2959C146.835 22.2959 147.243 22.4318 147.554 22.7035C147.864 22.9655 148.019 23.3052 148.019 23.7225C148.019 24.1592 147.864 24.5232 147.554 24.8143C147.253 25.0958 146.845 25.2365 146.331 25.2365ZM153.544 34.131C152.67 34.131 151.889 33.9563 151.2 33.607C150.521 33.2576 149.987 32.7772 149.599 32.1658C149.21 31.5447 149.016 30.8362 149.016 30.0404C149.016 29.2446 149.21 28.541 149.599 27.9296C149.987 27.3182 150.521 26.8426 151.2 26.503C151.889 26.1536 152.67 25.9789 153.544 25.9789C154.436 25.9789 155.208 26.1682 155.858 26.5466C156.508 26.9251 156.969 27.4589 157.241 28.148L155.101 29.2398C154.917 28.871 154.689 28.6041 154.417 28.4391C154.145 28.2644 153.849 28.1771 153.529 28.1771C153.209 28.1771 152.918 28.2499 152.656 28.3954C152.394 28.541 152.185 28.7545 152.03 29.0359C151.884 29.3077 151.811 29.6425 151.811 30.0404C151.811 30.448 151.884 30.7925 152.03 31.074C152.185 31.3554 152.394 31.5689 152.656 31.7145C152.918 31.8601 153.209 31.9329 153.529 31.9329C153.849 31.9329 154.145 31.8504 154.417 31.6854C154.689 31.5107 154.917 31.239 155.101 30.8702L157.241 31.962C156.969 32.651 156.508 33.1848 155.858 33.5633C155.208 33.9418 154.436 34.131 153.544 34.131ZM158.254 34V26.1099H161.02V34H158.254ZM159.637 25.2365C159.132 25.2365 158.725 25.0958 158.414 24.8143C158.104 24.5329 157.948 24.1835 157.948 23.7662C157.948 23.3489 158.104 22.9995 158.414 22.7181C158.725 22.4366 159.132 22.2959 159.637 22.2959C160.142 22.2959 160.549 22.4318 160.86 22.7035C161.17 22.9655 161.326 23.3052 161.326 23.7225C161.326 24.1592 161.17 24.5232 160.86 24.8143C160.559 25.0958 160.151 25.2365 159.637 25.2365ZM167.782 34.131C167.112 34.131 166.539 33.9854 166.064 33.6943C165.588 33.3934 165.224 32.947 164.972 32.355C164.729 31.7533 164.608 30.9866 164.608 30.055C164.608 29.1136 164.725 28.3469 164.957 27.7549C165.19 27.1532 165.54 26.7068 166.006 26.4156C166.481 26.1245 167.073 25.9789 167.782 25.9789C168.5 25.9789 169.15 26.1487 169.732 26.4884C170.324 26.8184 170.79 27.2891 171.13 27.9005C171.479 28.5022 171.654 29.2203 171.654 30.055C171.654 30.8896 171.479 31.6126 171.13 32.224C170.79 32.8354 170.324 33.3061 169.732 33.6361C169.15 33.966 168.5 34.131 167.782 34.131ZM162.818 36.8241V26.1099H165.452V27.4492L165.438 30.055L165.583 32.6753V36.8241H162.818ZM167.199 31.9329C167.51 31.9329 167.786 31.8601 168.029 31.7145C168.281 31.5689 168.48 31.3554 168.626 31.074C168.781 30.7925 168.859 30.4529 168.859 30.055C168.859 29.6571 168.781 29.3174 168.626 29.0359C168.48 28.7545 168.281 28.541 168.029 28.3954C167.786 28.2499 167.51 28.1771 167.199 28.1771C166.889 28.1771 166.607 28.2499 166.355 28.3954C166.112 28.541 165.913 28.7545 165.758 29.0359C165.613 29.3174 165.54 29.6571 165.54 30.055C165.54 30.4529 165.613 30.7925 165.758 31.074C165.913 31.3554 166.112 31.5689 166.355 31.7145C166.607 31.8601 166.889 31.9329 167.199 31.9329ZM177.074 34.131C176.142 34.131 175.327 33.9563 174.628 33.607C173.939 33.2479 173.4 32.7626 173.012 32.1512C172.634 31.5301 172.444 30.8265 172.444 30.0404C172.444 29.2543 172.629 28.5556 172.998 27.9441C173.376 27.323 173.895 26.8426 174.555 26.503C175.215 26.1536 175.958 25.9789 176.783 25.9789C177.559 25.9789 178.267 26.139 178.908 26.4593C179.548 26.7699 180.058 27.2308 180.436 27.8422C180.815 28.4537 181.004 29.1961 181.004 30.0695C181.004 30.1666 180.999 30.2782 180.99 30.4043C180.98 30.5305 180.97 30.647 180.961 30.7537H174.715V29.298H179.49L178.442 29.7056C178.452 29.3465 178.384 29.0359 178.238 28.7739C178.102 28.5119 177.908 28.3081 177.656 28.1625C177.413 28.0169 177.127 27.9441 176.797 27.9441C176.467 27.9441 176.176 28.0169 175.924 28.1625C175.681 28.3081 175.492 28.5167 175.356 28.7885C175.22 29.0505 175.152 29.3611 175.152 29.7201V30.1423C175.152 30.5305 175.23 30.8653 175.385 31.1468C175.55 31.4282 175.783 31.6466 176.084 31.8018C176.385 31.9474 176.744 32.0202 177.161 32.0202C177.549 32.0202 177.879 31.9668 178.151 31.8601C178.432 31.7436 178.709 31.5689 178.981 31.336L180.436 32.85C180.058 33.2673 179.592 33.5875 179.039 33.8108C178.486 34.0243 177.831 34.131 177.074 34.131ZM175.298 25.1637L177.248 22.951H180.014L177.278 25.1637H175.298ZM191.334 34V32.5297L191.145 32.1658V29.4581C191.145 29.0214 191.009 28.6866 190.737 28.4537C190.475 28.211 190.053 28.0897 189.471 28.0897C189.092 28.0897 188.709 28.1528 188.321 28.279C187.933 28.3954 187.603 28.5604 187.331 28.7739L186.399 26.896C186.846 26.6049 187.38 26.3817 188.001 26.2264C188.632 26.0614 189.257 25.9789 189.879 25.9789C191.16 25.9789 192.15 26.2749 192.848 26.8669C193.557 27.4492 193.911 28.3663 193.911 29.6182V34H191.334ZM189.005 34.131C188.374 34.131 187.841 34.0243 187.404 33.8108C186.967 33.5972 186.632 33.3061 186.399 32.9373C186.176 32.5685 186.065 32.1561 186.065 31.6999C186.065 31.2147 186.186 30.7974 186.428 30.448C186.681 30.0889 187.064 29.8172 187.579 29.6328C188.093 29.4387 188.758 29.3417 189.573 29.3417H191.436V30.7828H189.951C189.505 30.7828 189.19 30.8556 189.005 31.0012C188.83 31.1468 188.743 31.3409 188.743 31.5835C188.743 31.8261 188.835 32.0202 189.02 32.1658C189.204 32.3113 189.456 32.3841 189.777 32.3841C190.078 32.3841 190.349 32.3113 190.592 32.1658C190.844 32.0105 191.029 31.7776 191.145 31.467L191.524 32.486C191.378 33.0295 191.092 33.442 190.665 33.7234C190.247 33.9951 189.694 34.131 189.005 34.131ZM189.631 25.1637L186.894 22.951H189.66L191.611 25.1637H189.631ZM4.88285 53.131C4.24233 53.131 3.66489 53.0049 3.15053 52.7525C2.64587 52.5002 2.24797 52.1072 1.95683 51.5734C1.67538 51.0299 1.53466 50.3457 1.53466 49.5208V45.1099H4.30056V49.0695C4.30056 49.6809 4.41216 50.1176 4.63538 50.3797C4.86829 50.6417 5.19341 50.7727 5.61072 50.7727C5.88245 50.7727 6.12993 50.7096 6.35314 50.5835C6.57635 50.4573 6.75589 50.2584 6.89176 49.9866C7.02763 49.7052 7.09557 49.3461 7.09557 48.9094V45.1099H9.86146V53H7.22658V50.7727L7.73609 51.3987C7.46435 51.981 7.0713 52.4177 6.55694 52.7089C6.04258 52.9903 5.48455 53.131 4.88285 53.131ZM16.7818 44.9789C17.3932 44.9789 17.9464 45.1051 18.4413 45.3574C18.9363 45.6 19.3244 45.9785 19.6059 46.4929C19.897 47.0072 20.0426 47.672 20.0426 48.4872V53H17.2767V48.9385C17.2767 48.3756 17.1603 47.968 16.9273 47.7157C16.7041 47.4537 16.3887 47.3226 15.9811 47.3226C15.69 47.3226 15.4231 47.3906 15.1805 47.5264C14.9378 47.6526 14.7486 47.8516 14.6127 48.1233C14.4769 48.395 14.4089 48.7493 14.4089 49.186V53H11.643V45.1099H14.2779V47.3518L13.7684 46.6967C14.0692 46.1241 14.4817 45.6971 15.0058 45.4156C15.5298 45.1245 16.1218 44.9789 16.7818 44.9789ZM26.0129 53.131C25.0813 53.131 24.2661 52.9563 23.5673 52.607C22.8783 52.2479 22.3396 51.7626 21.9514 51.1512C21.5729 50.5301 21.3837 49.8265 21.3837 49.0404C21.3837 48.2543 21.5681 47.5556 21.9369 46.9441C22.3154 46.323 22.8346 45.8426 23.4945 45.503C24.1544 45.1536 24.8969 44.9789 25.7218 44.9789C26.4982 44.9789 27.2066 45.139 27.8472 45.4593C28.4877 45.7699 28.9972 46.2308 29.3757 46.8422C29.7542 47.4537 29.9434 48.1961 29.9434 49.0695C29.9434 49.1666 29.9386 49.2782 29.9289 49.4043C29.9192 49.5305 29.9094 49.647 29.8997 49.7537H23.6546V48.298H28.4295L27.3813 48.7056C27.391 48.3465 27.3231 48.0359 27.1775 47.7739C27.0417 47.5119 26.8476 47.3081 26.5952 47.1625C26.3526 47.0169 26.0663 46.9441 25.7363 46.9441C25.4064 46.9441 25.1152 47.0169 24.8629 47.1625C24.6203 47.3081 24.431 47.5167 24.2952 47.7885C24.1593 48.0505 24.0914 48.3611 24.0914 48.7201V49.1423C24.0914 49.5305 24.169 49.8653 24.3243 50.1468C24.4893 50.4282 24.7222 50.6466 25.023 50.8018C25.3239 50.9474 25.683 51.0202 26.1003 51.0202C26.4885 51.0202 26.8184 50.9668 27.0902 50.8601C27.3716 50.7436 27.6482 50.5689 27.9199 50.336L29.3757 51.85C28.9972 52.2673 28.5314 52.5875 27.9782 52.8108C27.425 53.0243 26.7699 53.131 26.0129 53.131ZM38.3229 53.131C37.6532 53.131 36.9981 53.0534 36.3576 52.8981C35.7268 52.7428 35.2173 52.5487 34.8291 52.3158L35.6589 50.4234C36.0277 50.6466 36.4595 50.8261 36.9545 50.962C37.4494 51.0881 37.9347 51.1512 38.4102 51.1512C38.876 51.1512 39.1963 51.1027 39.371 51.0056C39.5554 50.9086 39.6476 50.7776 39.6476 50.6126C39.6476 50.4573 39.5602 50.3457 39.3856 50.2778C39.2206 50.2001 38.9974 50.1419 38.7159 50.1031C38.4442 50.0643 38.1433 50.0206 37.8134 49.9721C37.4834 49.9236 37.1486 49.8605 36.8089 49.7828C36.4789 49.6955 36.1732 49.5693 35.8918 49.4043C35.6201 49.2297 35.4017 48.9967 35.2367 48.7056C35.0717 48.4144 34.9892 48.0457 34.9892 47.5992C34.9892 47.0946 35.1348 46.6482 35.426 46.26C35.7268 45.8621 36.1635 45.5515 36.7361 45.3283C37.3087 45.0954 38.0075 44.9789 38.8324 44.9789C39.3856 44.9789 39.9436 45.0371 40.5065 45.1536C41.0791 45.2604 41.5594 45.4253 41.9476 45.6485L41.1179 47.5264C40.7297 47.3032 40.3415 47.1528 39.9533 47.0752C39.5651 46.9878 39.1963 46.9441 38.8469 46.9441C38.3811 46.9441 38.0511 46.9975 37.857 47.1043C37.6726 47.211 37.5804 47.342 37.5804 47.4973C37.5804 47.6526 37.6629 47.7739 37.8279 47.8613C37.9929 47.9389 38.2113 48.002 38.483 48.0505C38.7644 48.0893 39.0701 48.133 39.4001 48.1815C39.7301 48.2203 40.06 48.2834 40.39 48.3708C40.7297 48.4581 41.0354 48.5891 41.3071 48.7638C41.5886 48.9288 41.8118 49.1569 41.9768 49.448C42.1417 49.7295 42.2242 50.0934 42.2242 50.5398C42.2242 51.0251 42.0738 51.4618 41.773 51.85C41.4818 52.2382 41.0451 52.5487 40.4628 52.7816C39.8902 53.0146 39.1769 53.131 38.3229 53.131ZM47.3757 53.131C46.512 53.131 45.7453 52.9563 45.0756 52.607C44.406 52.2576 43.8771 51.7772 43.4889 51.1658C43.1104 50.5447 42.9212 49.8362 42.9212 49.0404C42.9212 48.2446 43.1104 47.541 43.4889 46.9296C43.8771 46.3182 44.406 45.8426 45.0756 45.503C45.7453 45.1536 46.512 44.9789 47.3757 44.9789C48.2394 44.9789 49.0061 45.1536 49.6758 45.503C50.3551 45.8426 50.884 46.3182 51.2625 46.9296C51.641 47.541 51.8303 48.2446 51.8303 49.0404C51.8303 49.8362 51.641 50.5447 51.2625 51.1658C50.884 51.7772 50.3551 52.2576 49.6758 52.607C49.0061 52.9563 48.2394 53.131 47.3757 53.131ZM47.3757 50.9329C47.696 50.9329 47.9774 50.8601 48.22 50.7145C48.4724 50.5689 48.6713 50.3554 48.8169 50.074C48.9625 49.7828 49.0352 49.4383 49.0352 49.0404C49.0352 48.6425 48.9625 48.3077 48.8169 48.0359C48.6713 47.7545 48.4724 47.541 48.22 47.3954C47.9774 47.2499 47.696 47.1771 47.3757 47.1771C47.0652 47.1771 46.7837 47.2499 46.5314 47.3954C46.2888 47.541 46.0898 47.7545 45.9345 48.0359C45.789 48.3077 45.7162 48.6425 45.7162 49.0404C45.7162 49.4383 45.789 49.7828 45.9345 50.074C46.0898 50.3554 46.2888 50.5689 46.5314 50.7145C46.7837 50.8601 47.0652 50.9329 47.3757 50.9329ZM53.1115 53V45.1099H55.7464V47.41L55.3534 46.7549C55.5863 46.1629 55.9648 45.7213 56.4888 45.4302C57.0129 45.1293 57.6486 44.9789 58.3958 44.9789V47.4682C58.2697 47.4488 58.1581 47.4391 58.061 47.4391C57.9737 47.4294 57.8766 47.4245 57.7699 47.4245C57.207 47.4245 56.7509 47.5798 56.4015 47.8904C56.0521 48.1912 55.8774 48.6862 55.8774 49.3752V53H53.1115ZM63.3018 53.131C62.2925 53.131 61.5064 52.8835 60.9435 52.3886C60.3806 51.8839 60.0992 51.127 60.0992 50.1176V43.3485H62.8651V50.0885C62.8651 50.37 62.9427 50.5932 63.098 50.7582C63.2532 50.9134 63.4522 50.9911 63.6948 50.9911C64.0248 50.9911 64.3062 50.9086 64.5391 50.7436L65.2233 52.6797C64.9904 52.835 64.7041 52.9466 64.3645 53.0146C64.0248 53.0922 63.6706 53.131 63.3018 53.131ZM58.9491 47.4682V45.4011H64.6702V47.4682H58.9491ZM66.2899 53V45.1099H69.0558V53H66.2899ZM67.6728 44.2365C67.1682 44.2365 66.7606 44.0958 66.45 43.8143C66.1395 43.5329 65.9842 43.1835 65.9842 42.7662C65.9842 42.3489 66.1395 41.9995 66.45 41.7181C66.7606 41.4366 67.1682 41.2959 67.6728 41.2959C68.1775 41.2959 68.5851 41.4318 68.8957 41.7035C69.2062 41.9655 69.3615 42.3052 69.3615 42.7225C69.3615 43.1592 69.2062 43.5232 68.8957 43.8143C68.5948 44.0958 68.1872 44.2365 67.6728 44.2365ZM74.9876 53.131C74.0559 53.131 73.2407 52.9563 72.5419 52.607C71.8529 52.2479 71.3143 51.7626 70.9261 51.1512C70.5476 50.5301 70.3583 49.8265 70.3583 49.0404C70.3583 48.2543 70.5427 47.5556 70.9115 46.9441C71.29 46.323 71.8092 45.8426 72.4691 45.503C73.1291 45.1536 73.8715 44.9789 74.6964 44.9789C75.4728 44.9789 76.1813 45.139 76.8218 45.4593C77.4623 45.7699 77.9718 46.2308 78.3503 46.8422C78.7288 47.4537 78.918 48.1961 78.918 49.0695C78.918 49.1666 78.9132 49.2782 78.9035 49.4043C78.8938 49.5305 78.8841 49.647 78.8744 49.7537H72.6293V48.298H77.4041L76.3559 48.7056C76.3656 48.3465 76.2977 48.0359 76.1521 47.7739C76.0163 47.5119 75.8222 47.3081 75.5698 47.1625C75.3272 47.0169 75.0409 46.9441 74.711 46.9441C74.381 46.9441 74.0898 47.0169 73.8375 47.1625C73.5949 47.3081 73.4057 47.5167 73.2698 47.7885C73.1339 48.0505 73.066 48.3611 73.066 48.7201V49.1423C73.066 49.5305 73.1436 49.8653 73.2989 50.1468C73.4639 50.4282 73.6968 50.6466 73.9977 50.8018C74.2985 50.9474 74.6576 51.0202 75.0749 51.0202C75.4631 51.0202 75.7931 50.9668 76.0648 50.8601C76.3462 50.7436 76.6228 50.5689 76.8946 50.336L78.3503 51.85C77.9718 52.2673 77.506 52.5875 76.9528 52.8108C76.3996 53.0243 75.7445 53.131 74.9876 53.131ZM87.2975 53.131C86.6278 53.131 85.9728 53.0534 85.3322 52.8981C84.7014 52.7428 84.1919 52.5487 83.8037 52.3158L84.6335 50.4234C85.0023 50.6466 85.4341 50.8261 85.9291 50.962C86.424 51.0881 86.9093 51.1512 87.3848 51.1512C87.8507 51.1512 88.1709 51.1027 88.3456 51.0056C88.53 50.9086 88.6222 50.7776 88.6222 50.6126C88.6222 50.4573 88.5349 50.3457 88.3602 50.2778C88.1952 50.2001 87.972 50.1419 87.6905 50.1031C87.4188 50.0643 87.1179 50.0206 86.788 49.9721C86.458 49.9236 86.1232 49.8605 85.7835 49.7828C85.4536 49.6955 85.1479 49.5693 84.8664 49.4043C84.5947 49.2297 84.3763 48.9967 84.2113 48.7056C84.0463 48.4144 83.9639 48.0457 83.9639 47.5992C83.9639 47.0946 84.1094 46.6482 84.4006 46.26C84.7014 45.8621 85.1381 45.5515 85.7107 45.3283C86.2833 45.0954 86.9821 44.9789 87.807 44.9789C88.3602 44.9789 88.9182 45.0371 89.4811 45.1536C90.0537 45.2604 90.5341 45.4253 90.9223 45.6485L90.0925 47.5264C89.7043 47.3032 89.3161 47.1528 88.9279 47.0752C88.5397 46.9878 88.1709 46.9441 87.8216 46.9441C87.3557 46.9441 87.0257 46.9975 86.8317 47.1043C86.6473 47.211 86.5551 47.342 86.5551 47.4973C86.5551 47.6526 86.6376 47.7739 86.8025 47.8613C86.9675 47.9389 87.1859 48.002 87.4576 48.0505C87.7391 48.0893 88.0448 48.133 88.3747 48.1815C88.7047 48.2203 89.0347 48.2834 89.3646 48.3708C89.7043 48.4581 90.01 48.5891 90.2817 48.7638C90.5632 48.9288 90.7864 49.1569 90.9514 49.448C91.1164 49.7295 91.1989 50.0934 91.1989 50.5398C91.1989 51.0251 91.0484 51.4618 90.7476 51.85C90.4564 52.2382 90.0197 52.5487 89.4374 52.7816C88.8648 53.0146 88.1515 53.131 87.2975 53.131ZM96.4231 53.131C95.5497 53.131 94.7684 52.9563 94.0794 52.607C93.4 52.2576 92.8663 51.7772 92.4781 51.1658C92.0899 50.5447 91.8958 49.8362 91.8958 49.0404C91.8958 48.2446 92.0899 47.541 92.4781 46.9296C92.8663 46.3182 93.4 45.8426 94.0794 45.503C94.7684 45.1536 95.5497 44.9789 96.4231 44.9789C97.316 44.9789 98.0875 45.1682 98.7377 45.5466C99.388 45.9251 99.8489 46.4589 100.121 47.148L97.9808 48.2398C97.7964 47.871 97.5683 47.6041 97.2966 47.4391C97.0248 47.2644 96.7288 47.1771 96.4086 47.1771C96.0883 47.1771 95.7972 47.2499 95.5351 47.3954C95.2731 47.541 95.0644 47.7545 94.9092 48.0359C94.7636 48.3077 94.6908 48.6425 94.6908 49.0404C94.6908 49.448 94.7636 49.7925 94.9092 50.074C95.0644 50.3554 95.2731 50.5689 95.5351 50.7145C95.7972 50.8601 96.0883 50.9329 96.4086 50.9329C96.7288 50.9329 97.0248 50.8504 97.2966 50.6854C97.5683 50.5107 97.7964 50.239 97.9808 49.8702L100.121 50.962C99.8489 51.651 99.388 52.1848 98.7377 52.5633C98.0875 52.9418 97.316 53.131 96.4231 53.131ZM105.036 53.131C104.173 53.131 103.406 52.9563 102.736 52.607C102.067 52.2576 101.538 51.7772 101.15 51.1658C100.771 50.5447 100.582 49.8362 100.582 49.0404C100.582 48.2446 100.771 47.541 101.15 46.9296C101.538 46.3182 102.067 45.8426 102.736 45.503C103.406 45.1536 104.173 44.9789 105.036 44.9789C105.9 44.9789 106.667 45.1536 107.336 45.503C108.016 45.8426 108.545 46.3182 108.923 46.9296C109.302 47.541 109.491 48.2446 109.491 49.0404C109.491 49.8362 109.302 50.5447 108.923 51.1658C108.545 51.7772 108.016 52.2576 107.336 52.607C106.667 52.9563 105.9 53.131 105.036 53.131ZM105.036 50.9329C105.357 50.9329 105.638 50.8601 105.881 50.7145C106.133 50.5689 106.332 50.3554 106.478 50.074C106.623 49.7828 106.696 49.4383 106.696 49.0404C106.696 48.6425 106.623 48.3077 106.478 48.0359C106.332 47.7545 106.133 47.541 105.881 47.3954C105.638 47.2499 105.357 47.1771 105.036 47.1771C104.726 47.1771 104.444 47.2499 104.192 47.3954C103.949 47.541 103.75 47.7545 103.595 48.0359C103.45 48.3077 103.377 48.6425 103.377 49.0404C103.377 49.4383 103.45 49.7828 103.595 50.074C103.75 50.3554 103.949 50.5689 104.192 50.7145C104.444 50.8601 104.726 50.9329 105.036 50.9329ZM110.772 53V42.1985H113.538V53H110.772ZM120.154 53V51.5297L119.965 51.1658V48.4581C119.965 48.0214 119.829 47.6866 119.557 47.4537C119.295 47.211 118.873 47.0897 118.291 47.0897C117.912 47.0897 117.529 47.1528 117.141 47.279C116.753 47.3954 116.423 47.5604 116.151 47.7739L115.219 45.896C115.666 45.6049 116.199 45.3817 116.82 45.2264C117.451 45.0614 118.077 44.9789 118.698 44.9789C119.979 44.9789 120.969 45.2749 121.668 45.8669C122.376 46.4492 122.731 47.3663 122.731 48.6182V53H120.154ZM117.825 53.131C117.194 53.131 116.66 53.0243 116.224 52.8108C115.787 52.5972 115.452 52.3061 115.219 51.9373C114.996 51.5685 114.884 51.1561 114.884 50.6999C114.884 50.2147 115.006 49.7974 115.248 49.448C115.501 49.0889 115.884 48.8172 116.398 48.6328C116.913 48.4387 117.577 48.3417 118.393 48.3417H120.256V49.7828H118.771C118.325 49.7828 118.009 49.8556 117.825 50.0012C117.65 50.1468 117.563 50.3409 117.563 50.5835C117.563 50.8261 117.655 51.0202 117.839 51.1658C118.024 51.3113 118.276 51.3841 118.596 51.3841C118.897 51.3841 119.169 51.3113 119.412 51.1658C119.664 51.0105 119.848 50.7776 119.965 50.467L120.343 51.486C120.198 52.0295 119.911 52.442 119.484 52.7234C119.067 52.9951 118.514 53.131 117.825 53.131ZM124.477 53V45.1099H127.242V53H124.477ZM125.86 44.2365C125.355 44.2365 124.947 44.0958 124.637 43.8143C124.326 43.5329 124.171 43.1835 124.171 42.7662C124.171 42.3489 124.326 41.9995 124.637 41.7181C124.947 41.4366 125.355 41.2959 125.86 41.2959C126.364 41.2959 126.772 41.4318 127.082 41.7035C127.393 41.9655 127.548 42.3052 127.548 42.7225C127.548 43.1592 127.393 43.5232 127.082 43.8143C126.781 44.0958 126.374 44.2365 125.86 44.2365ZM129.04 53V45.1099H131.675V47.41L131.282 46.7549C131.515 46.1629 131.893 45.7213 132.417 45.4302C132.941 45.1293 133.577 44.9789 134.324 44.9789V47.4682C134.198 47.4488 134.087 47.4391 133.989 47.4391C133.902 47.4294 133.805 47.4245 133.698 47.4245C133.135 47.4245 132.679 47.5798 132.33 47.8904C131.981 48.1912 131.806 48.6862 131.806 49.3752V53H129.04ZM139.529 53.131C138.597 53.131 137.782 52.9563 137.083 52.607C136.394 52.2479 135.856 51.7626 135.467 51.1512C135.089 50.5301 134.9 49.8265 134.9 49.0404C134.9 48.2543 135.084 47.5556 135.453 46.9441C135.831 46.323 136.351 45.8426 137.01 45.503C137.67 45.1536 138.413 44.9789 139.238 44.9789C140.014 44.9789 140.723 45.139 141.363 45.4593C142.004 45.7699 142.513 46.2308 142.892 46.8422C143.27 47.4537 143.459 48.1961 143.459 49.0695C143.459 49.1666 143.454 49.2782 143.445 49.4043C143.435 49.5305 143.425 49.647 143.416 49.7537H137.171V48.298H141.945L140.897 48.7056C140.907 48.3465 140.839 48.0359 140.693 47.7739C140.558 47.5119 140.363 47.3081 140.111 47.1625C139.869 47.0169 139.582 46.9441 139.252 46.9441C138.922 46.9441 138.631 47.0169 138.379 47.1625C138.136 47.3081 137.947 47.5167 137.811 47.7885C137.675 48.0505 137.607 48.3611 137.607 48.7201V49.1423C137.607 49.5305 137.685 49.8653 137.84 50.1468C138.005 50.4282 138.238 50.6466 138.539 50.8018C138.84 50.9474 139.199 51.0202 139.616 51.0202C140.004 51.0202 140.334 50.9668 140.606 50.8601C140.888 50.7436 141.164 50.5689 141.436 50.336L142.892 51.85C142.513 52.2673 142.047 52.5875 141.494 52.8108C140.941 53.0243 140.286 53.131 139.529 53.131Z" fill="white"/>
<path d="M154.128 58.7031C154.807 60.5909 152.858 67.5647 142.852 68.8478M156.054 67.4457C156.054 67.4457 155.427 70.8213 150.648 71.9333" stroke="white" stroke-width="1.60739" stroke-linecap="round"/>
</svg>
