<svg width="1068" height="210" viewBox="0 0 1068 210" fill="none" xmlns="http://www.w3.org/2000/svg">
<g clip-path="url(#clip0_1211_446)">
<mask id="mask0_1211_446" style="mask-type:luminance" maskUnits="userSpaceOnUse" x="0" y="0" width="1068" height="210">
<path d="M1060 0H8C3.58172 0 0 3.58172 0 8V202C0 206.418 3.58172 210 8 210H1060C1064.42 210 1068 206.418 1068 202V8C1068 3.58172 1064.42 0 1060 0Z" fill="white"/>
</mask>
<g mask="url(#mask0_1211_446)">
<path d="M1060 0H8C3.58172 0 0 3.58172 0 8V202C0 206.418 3.58172 210 8 210H1060C1064.42 210 1068 206.418 1068 202V8C1068 3.58172 1064.42 0 1060 0Z" fill="#EFEAFF"/>
<mask id="mask1_1211_446" style="mask-type:luminance" maskUnits="userSpaceOnUse" x="682" y="-78" width="367" height="367">
<path d="M1048.9 60.1238L820.119 -77.3398L682.655 151.438L911.433 288.902L1048.9 60.1238Z" fill="white"/>
</mask>
<g mask="url(#mask1_1211_446)">
<path fill-rule="evenodd" clip-rule="evenodd" d="M864.978 2.93979C884.5 -2.86319 906.623 -0.289209 925.417 11.9673C957.528 32.948 967.811 76.4638 948.181 108.418C940.088 121.58 928.271 131.088 914.789 136.407L914.776 136.412C897.12 143.426 882 155.647 872.183 171.985L871.925 172.415C869.828 175.905 865.41 176.888 862.012 174.846L806.559 141.527C803.148 139.477 801.992 135.062 803.994 131.728L804.31 131.203C814.052 114.989 817.916 95.9894 815.733 77.0778C814.069 62.3993 816.964 47.2282 825.102 33.6849C826.687 31.0466 825.783 27.5923 823.082 25.9696C820.382 24.3469 816.907 25.1702 815.322 27.8085C805.894 43.4996 802.536 61.109 804.464 78.1069L804.466 78.1178C806.38 94.6961 802.985 111.255 794.53 125.327L794.214 125.852C789.041 134.462 792.005 145.786 800.819 151.081L856.271 184.4C865.098 189.704 876.454 187.031 881.705 178.292L881.963 177.862C890.458 163.723 903.62 153.019 919.183 146.835C934.832 140.66 948.539 129.618 957.903 114.39L957.904 114.388C980.692 77.2957 968.81 27.0025 931.528 2.64511L931.524 2.64252C909.77 -11.5446 884.12 -14.5291 861.509 -7.80802C858.528 -6.92176 856.887 -3.79732 857.845 -0.829395C858.803 2.13853 861.996 3.82606 864.978 2.93979ZM793.902 163.143C790.655 161.192 786.741 161.744 785.159 164.377C783.578 167.009 784.928 170.724 788.175 172.675L843.144 205.704C846.39 207.655 850.305 207.102 851.886 204.47C853.468 201.838 852.118 198.122 848.871 196.172L793.902 163.143ZM777.038 188.688C778.62 186.056 782.722 185.617 786.201 187.707L830.798 214.503C834.277 216.594 835.815 220.422 834.233 223.054C832.651 225.687 828.549 226.126 825.07 224.036L780.474 197.239C776.995 195.149 775.457 191.321 777.038 188.688ZM914.46 24.7549C911.759 23.1322 908.288 23.9506 906.706 26.5829C905.125 29.2152 906.032 32.6646 908.733 34.2873C930.335 47.2675 937.593 74.8668 924.942 95.9226C923.36 98.5549 924.267 102.004 926.968 103.627C929.669 105.25 933.14 104.431 934.722 101.799C950.537 75.4786 941.464 40.9805 914.46 24.7549Z" fill="#C1A3FF" fill-opacity="0.4"/>
</g>
</g>
</g>
<defs>
<clipPath id="clip0_1211_446">
<rect width="1068" height="210" fill="white"/>
</clipPath>
</defs>
</svg>
