<svg width="18" height="18" viewBox="0 0 18 18" fill="none" xmlns="http://www.w3.org/2000/svg">
<path fill-rule="evenodd" clip-rule="evenodd" d="M8.99984 17.3332C13.6022 17.3332 17.3332 13.6022 17.3332 8.99984C17.3332 4.39746 13.6022 0.666504 8.99984 0.666504C4.39746 0.666504 0.666504 4.39746 0.666504 8.99984C0.666504 13.6022 4.39746 17.3332 8.99984 17.3332ZM5.49449 5.49334C5.82024 5.16822 6.34788 5.16874 6.673 5.49449L8.99493 7.82093L11.3133 5.50784C11.6391 5.18277 12.1668 5.18338 12.4918 5.50919C12.8169 5.835 12.8163 6.36263 12.4905 6.6877L10.1754 8.99747L12.5038 11.3108C12.8303 11.6351 12.832 12.1628 12.5076 12.4893C12.1833 12.8158 11.6556 12.8175 11.3291 12.4931L8.99978 10.1789L6.69059 12.5038C6.36626 12.8303 5.83863 12.8321 5.51209 12.5078C5.18555 12.1834 5.18376 11.6558 5.50809 11.3293L7.81929 9.00233L5.49334 6.67185C5.16822 6.3461 5.16874 5.81846 5.49449 5.49334Z" fill="#EB0055"/>
</svg>
