<svg width="18" height="18" viewBox="0 0 18 18" fill="none" xmlns="http://www.w3.org/2000/svg">
<path fill-rule="evenodd" clip-rule="evenodd" d="M8.99984 17.3332C13.6022 17.3332 17.3332 13.6022 17.3332 8.99984C17.3332 4.39746 13.6022 0.666504 8.99984 0.666504C4.39746 0.666504 0.666504 4.39746 0.666504 8.99984C0.666504 13.6022 4.39746 17.3332 8.99984 17.3332ZM13.3775 6.93343C13.65 6.64549 13.652 6.17648 13.382 5.88588C13.1121 5.59527 12.6724 5.59311 12.3999 5.88106L7.80043 10.7423L5.59962 8.41731C5.32711 8.12943 4.88742 8.1317 4.61754 8.42237C4.34765 8.71304 4.34978 9.18204 4.62228 9.46992L7.00126 11.9831C7.44309 12.4499 8.15785 12.4499 8.59968 11.9831L8.59979 11.983L13.3775 6.93343Z"/>
</svg>
