<svg width="40" height="40" viewBox="0 0 40 40"><path d="M11.611 15.296a.626.626 0 01-.145.809l-.07.048-1.897 1.135a1.158 1.158 0 00-.433 1.468l.054.105 5.692 10.133c.169.3.062.682-.24.85a.623.623 0 01-.804-.167l-.046-.07-5.687-10.125a2.412 2.412 0 01.681-3.173l.13-.087 1.908-1.142a.625.625 0 01.857.216zM20 10.208l10.05.002c1.285.104 2.259 1.184 2.247 2.419l-.005.138v10.491a.625.625 0 01-1.245.085l-.005-.085.001-10.533c.041-.613-.388-1.15-.938-1.253L30 11.458l-9.95-.002c-.612.05-1.08.553-1.094 1.19l.002.12-.001 14.51c-.041.612.388 1.149.938 1.252l.105.014 9.95.002a1.191 1.191 0 001.095-1.155l-.002-.114a.625.625 0 011.247-.084c.087 1.286-.838 2.408-2.143 2.585l-.147.016-10.05-.002c-1.285-.104-2.259-1.184-2.247-2.419l.005-.138.002-14.424c-.087-1.286.838-2.408 2.143-2.585l.147-.016zm-3.386 1.387a.626.626 0 01-.37.734l-.08.026-1.708.437a1.16 1.16 0 00-.827 1.28l.022.115 3.267 14.459a.625.625 0 01-1.195.357l-.024-.082-3.265-14.45a2.412 2.412 0 011.551-2.84l.143-.045 1.725-.441a.624.624 0 01.76.45z" fill="#FFF" fill-rule="evenodd"/></svg>