<?xml version="1.0" encoding="UTF-8"?>
<svg id="Calque_1" data-name="Calque 1" xmlns="http://www.w3.org/2000/svg" viewBox="0 0 462 462">
  <defs>
    <style>
      .cls-1 {
        fill: #320096;
        opacity: .17;
      }
    </style>
  </defs>
  <g>
    <g>
      <path d="M111.59,374.38c.04-.79.09-1.38.09-1.96,0-18.43-.03-36.86-.03-55.29,0-19.63.04-39.27.04-58.9,0-23.25-.05-46.49-.05-69.74,0-28.97.02-57.94.03-86.91,0-2.77-.04-5.54-.03-8.31,0-1.14.04-2.29.12-3.43.14-1.86.87-3.51,1.97-4.97,1.19-1.57,2.75-2.46,4.79-2.45,4.22.02,8.43-.01,12.65-.01,31.08.01,62.15.03,93.23.04,21.08,0,42.16,0,63.24,0,.72,0,1.45.01,2.17,0,1.42-.02,2.61.54,3.47,1.63.66.84,1.25,1.78,1.69,2.75.47,1.03.82,2.14,1.06,3.25.5,2.35-.96,4.17-3.36,4.33-1.4.09-2.31-.51-2.71-1.87-.15-.51-.18-1.07-.22-1.6-.15-2.14-.32-2.31-2.52-2.32-3.31-.01-6.62-.02-9.94-.02-24.75-.01-49.51-.01-74.26-.04-14.39-.02-28.79-.1-43.18-.11-11.68,0-23.37.06-35.05.09-1.63,0-3.25-.04-4.88-.06-1.42-.01-1.96.46-2.07,1.9-.05.66-.05,1.32-.05,1.99.02,21.38.05,42.76.05,64.14,0,22.34-.04,44.69-.04,67.03,0,22.77,0,45.53.01,68.3,0,25.54.01,51.07.02,76.61,0,1.92.04,3.84.06,5.71.61.51,1.24.32,1.82.32,11.38,0,22.77-.01,34.15-.01,11.26,0,22.52,0,33.79.02,2.6,0,2.75-.1,2.43-2.64-.32-2.47.35-4.66,1.74-6.65,1.21-1.73,2.82-2.95,4.94-3.4.53-.11,1.05-.26,1.56-.44,1.07-.38,1.7-1.11,1.69-2.29,0-1.02-.01-2.05-.05-3.07-.06-1.7.17-3.36.58-5.01.58-2.36,1.8-4.32,3.74-5.8.91-.69,1.81-1.41,2.74-2.07.96-.68,1.31-1.55.9-2.66-.39-1.04-.41-2.12-.42-3.2-.02-2.41,1.02-4.28,2.89-5.74,1.31-1.02,2.8-1.65,4.44-1.87,1.07-.15,2.16-.26,3.24-.26,22.16,0,44.33,0,66.49,0,1.69,0,3.37-.06,5.06-.07,1.64,0,3.24.23,4.79.8,4.4,1.62,6.43,6.26,4.66,10.62-.14.33-.27.67-.41,1.01.07.6.54.92.95,1.26.69.58,1.41,1.13,2.14,1.66,3.09,2.2,4.63,5.32,5.17,8.97.21,1.42.22,2.88.31,4.32.02.36-.01.72,0,1.08.02,1.72.59,2.34,2.35,2.55.42.05.84.08,1.26.13,3.72.44,6.26,3,6.6,6.74.1,1.13.06,2.28.03,3.42-.02.71-.13,1.43-.22,2.25.33.11.64.25.97.3.42.05.84.03,1.26.03,27.82-.02,55.65-.04,83.47-.06,1.45,0,2.89-.01,4.34.04.59.02,1.21.1,1.76.3,1.21.45,1.96,1.66,1.87,2.81-.1,1.23-1.1,2.44-2.32,2.71-.58.13-1.2.14-1.8.15-1.99.02-3.97,0-5.96.01-22.52.02-45.05.05-67.57.07-18.25.02-36.5.03-54.74.04-27.34.01-54.68.03-82.02.02-9.45,0-18.91-.12-28.36-.12-21.32.01-42.64.08-63.96.1-1.2,0-2.41-.08-3.6-.26-1.51-.22-2.47-1.26-2.61-2.59-.08-.7.11-1.31.58-1.83.72-.8,1.63-1.23,2.69-1.31.72-.05,1.44-.06,2.17-.06,1.99,0,3.97,0,5.96,0,.66,0,1.32-.05,2.22-.08ZM253.44,360.73h0c4.58,0,9.15,0,13.73,0,9.87,0,19.75,0,29.62,0,.9,0,1.81-.04,2.69-.19,1.22-.21,1.72-.73,1.77-1.92.1-2.43-.11-4.84-1.22-7.04-1.22-2.43-3.18-3.87-5.99-3.97-2.29-.08-4.57-.22-6.86-.23-8.79-.03-17.58-.01-26.37-.02-.84,0-1.69.03-2.53-.04-.71-.06-1.45-.15-2.12-.38-1.4-.47-2.18-1.77-2.06-3.24.09-1.21.87-2,2.37-2.33.47-.1.95-.16,1.43-.18,1.56-.04,3.13-.07,4.69-.08,8.79-.05,17.58-.09,26.37-.14.72,0,1.45-.04,2.16-.12.8-.1,1.49-.45,2.03-1.07,1.49-1.73.33-3.88-1.28-4.09-.65-.08-1.31-.15-1.97-.14-8.91.02-17.82.05-26.73.08-9.45.03-18.9.07-28.36.09-5.66.01-11.32,0-16.98,0-.9,0-1.81.03-2.7.17-.89.14-1.36.72-1.42,1.62-.13,1.88.65,3.33,2.79,3.42.18,0,.36.02.54.03,3.01.06,6.02.15,9.03.16,2.95.02,5.9-.07,8.85-.06,1.32,0,2.65.1,3.97.17.87.04,1.65.34,2.27.98.95.97,1,2.24.08,3.23-.36.39-.82.71-1.29.95-1.36.7-2.82.98-4.36.97-6.2-.02-12.4,0-18.6-.01-1.08,0-2.17-.07-3.24-.16-2.87-.24-5.68,1.45-6.72,4.15-.85,2.22-1.12,4.55-.99,6.92.08,1.37,1.06,2.33,2.43,2.45.54.05,1.08.03,1.62.03,14.45,0,28.9,0,43.35,0ZM253.78,374.47h0c16.26-.01,32.52-.01,48.78-.01,1.26,0,2.53,0,3.79,0,1.35-.01,2.62-.34,3.77-1.08,1.17-.76,1.62-1.92,1.29-3.28-.36-1.46-1.26-2.51-2.72-2.85-1.1-.25-2.26-.33-3.4-.34-25.89-.02-51.79-.03-77.68-.03-8.61,0-17.22.03-25.83.06-.84,0-1.7.05-2.51.24-1.69.39-2.67,1.53-3.03,3.22-.25,1.18.13,2.12,1.07,2.87.98.78,2.14,1.09,3.36,1.17,1.02.06,2.05.05,3.07.05,16.68,0,33.36,0,50.04,0Z"/>
      <path d="M138.95,236c0-36.44,0-72.87,0-109.31,0-1.02.05-2.06.25-3.05.19-.93.51-1.86.94-2.71,1.26-2.54,3.21-3.88,6.19-3.81,5.06.11,10.12.04,15.18.05,3.19,0,6.39-.08,9.57.02,2.01.06,3.36-.67,4.1-2.53.16-.39.36-.76.54-1.14,2.08-4.51,5.76-6.8,10.53-7.51,1.66-.25,3.36-.3,5.04-.3,21.02-.02,42.04-.02,63.06-.02,9.4,0,18.79-.02,28.19,0,1.8,0,3.63.03,5.4.29,4.47.66,7.76,3.06,9.83,7.1.47.91.84,1.87,1.32,2.77.49.91,1.2,1.36,2.33,1.36,8.85-.06,17.71.02,26.56-.12,2.52-.04,4.24.87,5.67,2.8,1.46,1.96,2.17,4.11,2.17,6.55-.02,6.56,0,13.13,0,19.69,0,42.52.01,85.04.02,127.56,0,.54,0,1.08-.02,1.63-.05.93-.35,1.77-.95,2.48-1.03,1.23-2.64,1.34-3.85.29-.66-.57-1.08-1.31-1.23-2.16-.13-.7-.18-1.43-.17-2.15.02-1.74.13-3.49.13-5.23,0-14.45,0-28.91,0-43.36,0-29.75-.01-59.5-.02-89.25,0-2.41.04-4.82.05-7.23,0-1.08-.04-2.17-.04-3.25,0-1.08-.62-1.67-1.56-1.95-.51-.15-1.07-.17-1.61-.17-7.65,0-15.3,0-22.95,0-.24,0-.48,0-.72.02-2.01.09-2.55.58-2.82,2.53-.11.77-.16,1.57-.36,2.32-.35,1.33-.65,2.71-1.24,3.95-2.41,5.07-6.54,7.71-12.07,8.21-1.2.11-2.41.07-3.61.07-8.91.02-17.83.04-26.74.06-17.4.04-34.81.08-52.21.09-5.12,0-10.24-.1-15.36-.19-1.14-.02-2.29-.09-3.41-.31-5.53-1.05-9.97-5.36-11.1-11.45-.19-1-.26-2.03-.4-3.04-.21-1.51-.83-2.12-2.33-2.25-.6-.05-1.2-.03-1.81-.03-7.17,0-14.33,0-21.5,0-.18,0-.36,0-.54,0-1.18.04-1.79.52-1.95,1.69-.14,1.01-.22,2.04-.22,3.06,0,16.74,0,33.49.01,50.23,0,23.73,0,47.46,0,71.18,0,30.53,0,61.07,0,91.6,0,1.51-.06,3.01-.06,4.52,0,.66.05,1.33.15,1.98.18,1.1.97,1.84,2.12,1.77,1.44-.09,2.89-.08,4.33-.09,7.83-.03,15.66-.05,23.49-.07.36,0,.72,0,1.08,0,.3,0,.6.02.9.06,1.52.23,2.67,1.35,2.77,2.67.1,1.32-1.02,2.84-2.45,3.2-.58.14-1.19.17-1.79.18-2.95.03-5.9.03-8.85.04-6.81.01-13.61.01-20.42.02-.12,0-.24,0-.36,0-2.48.14-4.79-.66-6.25-4.19-.72-1.75-.94-3.6-.94-5.48,0-11.68,0-23.37,0-35.05,0-24.87,0-49.75,0-74.62h-.02ZM237.19,111.87h0c-2.11-.01-4.21-.01-6.32-.01-13.42,0-26.85,0-40.27.02-1.2,0-2.4.1-3.6.2-1.76.15-3.19.98-4.4,2.24-1.15,1.19-2,2.58-2.41,4.18-.87,3.4-.82,6.82.32,10.14,1.19,3.47,4.15,6.22,8.51,5.92.96-.07,1.93-.07,2.89-.07,16.97-.03,33.95-.07,50.92-.08,13.06,0,26.12.05,39.19.04,1.5,0,3.01-.09,4.5-.31,3.61-.54,6.35-3.25,7.06-6.82.38-1.9.48-3.83.31-5.75-.22-2.51-1.02-4.82-2.52-6.85-1.17-1.58-2.7-2.57-4.7-2.68-1.5-.09-3.01-.16-4.51-.16-14.99-.01-29.98,0-44.97,0Z"/>
      <path d="M259.99,214.35c1.47-.02,2.87.3,4.27.66,5.16,1.32,10.02,3.42,14.78,5.76,7.75,3.8,15.08,8.3,21.87,13.65,3.45,2.73,6.81,5.56,9.78,8.82.24.27.48.54.74.79,2.73,2.63,2.92,5.78,1.84,9.17-.46,1.45-1.24,2.74-2.19,3.92-1.44,1.79-3.01,3.44-4.87,4.81-.58.43-1.19.84-1.7,1.34-.85.84-1.74,1.69-2.42,2.66-1,1.42-1.85,2.96-2.74,4.46-.18.31-.3.65-.45.99-.56,1.29-.42,2.46.58,3.49.38.39.74.79,1.09,1.21,1.41,1.67,2.53,3.51,3.18,5.61.3.98.68,1.93.98,2.91.41,1.34,1.26,2.32,2.43,3.03.51.31,1.04.6,1.59.86,8.99,4.37,17.77,9.14,26.32,14.32,8.5,5.14,16.99,10.29,25.39,15.6,8.65,5.46,17.26,11.01,25.58,16.97,3.08,2.21,6.14,4.45,9.37,6.45,1.79,1.11,3.45,2.43,4.86,4.02,2.6,2.94,3.66,6.32,2.76,10.2-.2.86-.55,1.73-1.01,2.49-1.21,2.02-2.56,3.94-4.27,5.57-.35.33-.71.65-1.09.95-1.8,1.44-3.78,1.99-6.08,1.44-2.72-.64-5.25-1.74-7.71-3.03-5.66-2.97-11-6.46-16.29-10.03-9.17-6.21-18.12-12.75-27-19.37-9.36-6.98-18.7-14-27.98-21.09-4.78-3.65-9.44-7.48-14.1-11.28-1.51-1.24-3.14-1.97-5.09-1.98-2.31-.02-4.54-.52-6.74-1.18-.35-.1-.7-.18-1.04-.3-1.24-.46-2.2-.16-2.97.95-.86,1.24-1.78,2.43-2.71,3.61-.7.89-.8,1.85-.45,2.89.21.63.47,1.24.72,1.85,1.21,2.99.55,5.67-1.43,8.08-.68.84-1.44,1.63-2.23,2.37-1.8,1.68-3.9,2.27-6.34,1.72-2.6-.58-5.07-1.52-7.45-2.69-8.72-4.26-17.08-9.16-25.27-14.34-5.29-3.35-10.46-6.88-15.65-10.37-1.14-.77-2.22-1.65-3.23-2.59-1.12-1.04-1.87-2.34-2.23-3.85-.37-1.51-.27-2.99.36-4.41.84-1.89,1.99-3.58,3.43-5.05,1.08-1.1,2.35-1.9,3.91-2.08,1.5-.17,2.43-1,2.88-2.37.5-1.5,1.27-2.85,2.1-4.18,2.94-4.69,5.87-9.39,8.83-14.07,3.73-5.9,7.48-11.79,11.22-17.69.29-.46.56-.93.84-1.39.61-1.02.8-2.1.56-3.29-.94-4.57.22-8.77,2.62-12.59,1.76-2.8,4.41-4.38,7.84-4.37ZM295.83,263.1c-.11-.24-.27-.86-.64-1.27-.52-.56-1.19-1.01-1.85-1.42-2.25-1.39-4.53-2.74-6.79-4.12-4.62-2.82-9.26-5.61-13.85-8.49-5-3.13-9.95-6.33-14.91-9.52-1.36-.87-2.52-.98-4.01.56-.5.51-.87,1.15-1.25,1.76-6.6,10.5-13.19,20.99-19.78,31.5-.26.41-.52.82-.72,1.25-.56,1.22-.4,2.04.61,2.89.41.35.88.62,1.35.9.67.4,1.37.76,2.04,1.16,11.13,6.83,22.25,13.67,33.38,20.51.46.28.91.59,1.38.85,1.02.55,1.62.54,2.45-.27.68-.67,1.31-1.42,1.82-2.23,3.19-5.03,6.32-10.1,9.51-15.13,2.54-4.02,5.13-8.01,7.71-12,.85-1.31,1.76-2.59,2.61-3.9.53-.81.97-1.67.95-3.03ZM387.51,346.47c.13-1.36-.45-2.63-1.57-3.68-.57-.53-1.17-1.04-1.81-1.5-1.41-1.03-2.83-2.05-4.28-3.02-7.43-4.91-14.85-9.85-22.32-14.69-10.36-6.71-20.87-13.16-31.61-19.24-6.6-3.74-13.24-7.39-19.97-10.89-.58-.3-1.19-.59-1.82-.77-.51-.15-1.08-.22-1.6-.15-1.99.27-2.68,1.93-1.51,3.55.21.29.44.58.69.83,1.26,1.21,2.46,2.49,3.81,3.58,4.69,3.78,9.4,7.52,14.16,11.21,12.57,9.74,25.39,19.13,38.36,28.32,5.75,4.07,11.54,8.08,17.35,12.07,1.23.84,2.59,1.53,3.96,2.14,1.78.78,3.42.36,4.82-.97,1.06-1,1.92-2.15,2.58-3.46.49-.99.73-2.03.75-3.33ZM225.12,279.73c-.65-.05-1.28.23-1.85.74-.73.66-1.25,1.44-1.65,2.34-.43.95-.25,1.76.48,2.46.48.45.97.91,1.5,1.29,5.85,4.13,11.68,8.28,17.8,12.01,6.58,4.01,13.19,7.94,20.1,11.35,1.89.93,3.81,1.79,5.73,2.65.83.37,1.71.53,2.64.51.92-.02,1.61-.39,2.16-1.11.86-1.12.93-2.49.19-3.71-.61-1.01-1.51-1.7-2.49-2.31-3.68-2.29-7.35-4.58-11.04-6.85-7.32-4.51-14.65-9.01-21.99-13.49-2.72-1.66-5.47-3.27-8.22-4.87-.99-.58-2.05-1.03-3.35-1.02ZM257.34,228.28c-1.27,1.41-1.3,2.03-.13,3.12.52.49,1.14.89,1.75,1.26,1.65.99,3.34,1.92,4.98,2.92,9.62,5.82,19.23,11.67,28.86,17.48,2.01,1.21,4.05,2.37,6.11,3.49.56.31,1.23.5,1.86.59.67.09,1.11-.38,1.38-.96.21-.45,0-.84-.31-1.14-.51-.51-1.01-1.03-1.59-1.46-1.78-1.34-3.58-2.64-5.38-3.95-1.66-1.2-3.31-2.4-4.99-3.57-5.74-3.98-11.65-7.68-17.77-11.03-3.16-1.73-6.38-3.36-9.62-4.95-1.61-.79-3.32-1.39-5.16-1.8ZM306.81,251.34c.79-.91,1.01-1.76.35-2.69-.49-.68-.98-1.39-1.59-1.95-2.64-2.46-5.22-5.01-8.02-7.26-5.83-4.69-12.21-8.56-18.84-12-4.44-2.3-8.95-4.44-13.68-6.05-1.64-.56-3.36-.89-5.07-1.22-.83-.16-1.19.29-1.2,1.15,0,.67.27,1.17.88,1.44.55.24,1.11.46,1.68.65,2.57.86,5.05,1.94,7.48,3.14,6.91,3.41,13.58,7.25,20.08,11.38,5.24,3.33,10.25,6.97,14.99,10.97.96.81,1.93,1.59,2.95,2.43ZM298.6,283.72c.12-1.37-.78-2.61-2.03-3.65-1.08-.89-2.21-.9-3.27.02-.58.5-1.09,1.13-1.5,1.78-1.54,2.44-3.04,4.91-4.54,7.38-.28.46-.54.95-.73,1.45-.32.85-.19,1.63.41,2.36,1.22,1.45,2.71,1.81,4.53,1,1.23-.55,2.28-1.38,3.08-2.45,1.14-1.54,2.2-3.15,3.26-4.76.54-.82.73-1.77.79-3.13ZM391.05,360.84c.25-.08.91-.13,1.37-.45,2.26-1.6,3.92-3.69,4.83-6.33.08-.22.07-.47.11-.71.19-1.08-.17-2.01-.8-2.86-.97-1.31-3.01-1.85-4.11.2-1.16,2.18-2.43,4.28-4.08,6.14-.29.33-.5.86-.51,1.3-.02,1.32,1.5,2.72,3.18,2.71Z"/>
      <path d="M271.85,169.2c11.13,0,22.27,0,33.4,0,.9,0,1.81.02,2.71.06.79.04,1.54.27,2.18.76.95.73,1.35,1.69,1.12,2.86-.21,1.08-.85,1.87-1.91,2.2-.57.18-1.18.27-1.77.29-1.32.03-2.65-.03-3.97-.03-21.07.04-42.13.08-63.2.12-1.08,0-2.16.13-3.24.1-1.02-.02-2.04-.11-3.04-.28-.45-.07-.91-.34-1.28-.63-.95-.72-1.27-1.74-1.09-2.89.18-1.14.96-1.83,2.02-2.06,1.11-.24,2.26-.37,3.4-.38,5.48-.06,10.95-.07,16.43-.09,6.08-.01,12.16,0,18.24,0,0-.02,0-.03,0-.05Z"/>
      <path d="M178.48,251.38c.58-.49,1.06-.85,1.49-1.25,7.29-6.73,14.58-13.47,21.87-20.21,2.25-2.08,4.51-4.16,6.76-6.24.86-.79,1.8-1.39,3.01-1.49,1.36-.11,2.49.42,3.03,1.51.55,1.11.36,2.6-.61,3.49-.13.12-.26.25-.4.37-5.82,4.96-11.22,10.36-16.86,15.52-4.66,4.26-9.26,8.59-13.88,12.89-1.86,1.74-4.01,2.06-6.36,1.26-1.27-.43-2.39-1.14-3.34-2.09-2.39-2.38-4.78-4.75-7.14-7.15-.59-.6-1.1-1.27-1.59-1.96-.5-.7-.72-1.51-.67-2.39.13-2.24,2.31-3.54,4.28-2.48.72.39,1.33,1.02,1.91,1.62,2.54,2.57,5.05,5.16,7.57,7.74.25.25.52.49.92.86Z"/>
      <path d="M179.2,190.71c1.2-.48,1.94-1.19,2.69-1.88,8.13-7.43,16.26-14.87,24.38-22.31.93-.85,1.82-1.76,2.75-2.61.44-.4.91-.79,1.42-1.11.35-.22.77-.37,1.17-.42,2.15-.28,3.7,1.59,3.07,3.68-.29.94-.84,1.73-1.55,2.4-1.35,1.28-2.71,2.57-4.08,3.83-8.38,7.69-16.77,15.37-25.16,23.06-2.03,2.44-6.6,2.14-8.53.22-.77-.76-1.56-1.5-2.33-2.27-2.52-2.5-5.04-5-7.53-7.53-.62-.64-1.17-1.37-1.66-2.11-.71-1.07-.29-2.86.81-3.74,1-.81,2.77-.99,3.82.03.99.97,1.95,1.96,2.92,2.95.89.9,1.76,1.81,2.65,2.7,1.1,1.11,2.2,2.23,3.31,3.33.59.59,1.21,1.16,1.86,1.78Z"/>
      <path d="M278.85,188.79c-8.61,0-17.22,0-25.83,0-.9,0-1.81.02-2.71-.07-.65-.07-1.33-.19-1.91-.48-1.81-.9-1.99-3.17-.58-4.36.73-.61,1.57-.9,2.48-.95,1.44-.09,2.88-.18,4.33-.19,9.87-.05,19.75-.08,29.62-.1,7.41-.02,14.81-.02,22.22-.03.72,0,1.45-.02,2.16.08,1.47.21,2.46,1.25,2.58,2.61.12,1.38-.8,2.76-2.23,3.11-.92.22-1.9.28-2.86.29-7.89.04-15.77.05-23.66.07-1.2,0-2.41,0-3.61,0v.03Z"/>
      <path d="M179.93,304.67c1.61-1.45,3.17-2.86,4.74-4.27,3.4-3.06,6.81-6.11,10.2-9.18,1.65-1.49,3.31-2.98,4.93-4.51.85-.8,1.82-1.38,2.88-1.82.22-.09.45-.18.68-.24,1.04-.27,2.06-.28,2.86.56.83.87.65,1.89.19,2.86-.26.54-.58,1.06-.98,1.5-.68.76-1.4,1.5-2.19,2.14-5.11,4.22-9.89,8.81-14.69,13.36-1.31,1.24-2.61,2.5-3.9,3.76-1.5,1.47-3.3,2.16-5.4,2.04-1.37-.08-2.62-.48-3.62-1.43-3.34-3.21-6.65-6.45-9.95-9.7-.38-.37-.7-.84-.94-1.31-.69-1.41-.38-2.96.73-3.96.87-.79,2.75-.87,3.89-.1.49.33.9.79,1.32,1.22,2.93,2.94,5.85,5.89,8.78,8.83.08.08.21.12.47.25Z"/>
    </g>
    <path d="M393.45,313.9c-.45,0-.9-.1-1.32-.31-1.49-.73-2.1-2.53-1.36-4.02,12.1-24.56,18.23-50.99,18.23-78.57,0-98.15-79.85-178-178-178-21.45,0-42.42,3.77-62.33,11.22-1.55.58-3.28-.21-3.86-1.76-.58-1.55.21-3.28,1.76-3.86,20.58-7.7,42.26-11.6,64.43-11.6,101.46,0,184,82.54,184,184,0,28.51-6.34,55.83-18.85,81.22-.52,1.06-1.59,1.67-2.69,1.67Z"/>
    <path d="M231,415c-29.24,0-57.2-6.66-83.1-19.79-1.48-.75-2.07-2.55-1.32-4.03s2.56-2.07,4.03-1.32c25.05,12.7,52.09,19.14,80.38,19.14,43.99,0,86.23-16.18,118.92-45.55,1.23-1.11,3.13-1.01,4.24.23,1.11,1.23,1.01,3.13-.23,4.24-33.8,30.37-77.45,47.09-122.93,47.09Z"/>
    <path d="M101.9,360.86c-.78,0-1.55-.3-2.14-.9-34.02-34.62-52.76-80.42-52.76-128.96,0-36.47,10.65-71.72,30.8-101.94.92-1.38,2.78-1.75,4.16-.83s1.75,2.78.83,4.16c-19.49,29.23-29.79,63.33-29.79,98.61,0,46.96,18.13,91.27,51.04,124.76,1.16,1.18,1.15,3.08-.04,4.24-.58.57-1.34.86-2.1.86Z"/>
  </g>
  <polygon class="cls-1" points="291.42 108.5 291.42 87.45 116.42 85.5 113.42 377.5 191.99 377.5 192.42 353.5 152.42 353.5 139.9 351.15 143.42 120.5 174.42 118.5 186.42 108.5 291.42 108.5"/>
  <polygon class="cls-1" points="226.42 275.5 218.42 283.5 267.42 316.5 277.72 310.9 275.42 303.5 226.42 275.5"/>
  <polygon class="cls-1" points="251.97 228.28 258.75 216.67 284.42 226.5 309.26 246.3 307.55 255.72 298.61 261.81 253.64 231.5 251.97 228.28"/>
  <polygon class="cls-1" points="382.42 359.5 392.63 363.86 400.9 354.62 395.41 341.82 382.42 359.5"/>
</svg>