<?xml version="1.0" encoding="UTF-8"?>
<svg id="Calque_1" data-name="Calque 1" xmlns="http://www.w3.org/2000/svg" viewBox="0 0 462 462">
  <defs>
    <style>
      .cls-1 {
        fill: #320096;
        opacity: .17;
      }

      .cls-2 {
        fill: none;
        stroke: #000;
        stroke-linecap: round;
        stroke-miterlimit: 10;
        stroke-width: 6px;
      }
    </style>
  </defs>
  <g>
    <path d="M370.82,218.68h0c-1.68,0-3.04,1.36-3.04,3.04v126.59c-.02,7.53-2.65,14.63-7.4,20-4.87,5.5-11.66,8.8-19.14,9.28h-.03s-.03,0-.03,0H121.82s-.03,0-.03,0h-.03c-15.34-.87-26.32-11.97-27.34-27.62v-.03s0-.03,0-.03v-67.57c0-1.84-1.52-3.31-3.35-3.26-.02,0-.04,0-.07,0-1.77.05-3.17,1.5-3.17,3.26v67.85c.27,8.77,3.78,17.09,9.88,23.4,6.11,6.31,14.3,10.07,23.08,10.58,10.95-.03,22.63-.04,35.72-.04,16.44,0,32.88.02,49.32.04,16.44.02,32.88.04,49.32.04,35.15,0,62.24-.1,87.83-.31,16.78-1.79,28.97-13.9,31.07-30.87.35-31.54.17-63.66-.01-94.71-.07-12.09-.14-24.32-.18-36.61,0-1.68-1.37-3.04-3.04-3.04Z"/>
    <path d="M373.48,127.93c-3.2-15.02-15.88-25.45-31.55-25.97h-8.68s-1,0-1,0v-15.61c0-1.12-1.25-4.43-1.97-5.73-2.67-4.77-7.49-7.62-12.88-7.62s-10.53,3.01-13.16,8.04c-1.46,2.8-1.79,5.9-1.91,8.29-.1,1.95-.05,3.99,0,5.97.04,1.87.09,3.81.02,5.7l-.04.96h-55.66s-1.02,0-1.02,0l.02-1.02c0-.42.09-.78.16-1.1.06-.24.11-.46.12-.67.19-3.46.79-14.01-1.98-18.81-2.65-4.6-7.42-7.34-12.76-7.34-6.68,0-12.29,4.04-14.28,10.29-.92,2.9-.78,6.49-.64,9.96.1,2.56.21,5.2-.11,7.58l-.06.44-.37.25-.32.22-.25.17h-.31s-53.99.04-53.99.04h-1s0-15.88,0-15.88c0-2-1.94-6.03-3.53-7.94-2.76-3.31-6.72-5.13-11.15-5.13-6.44,0-12.12,3.9-14.14,9.72-.37,1.05-.83,3.22-.83,4.15v15.04l-.96.04c-.25,0-.5.01-.75.01-.39,0-.78,0-1.17-.02-.37,0-.75-.02-1.12-.02-.28,0-.56,0-.84.02-.92.05-1.85.08-2.78.11-2.91.09-5.93.19-8.72.81-15.12,3.35-25.58,15.79-26.04,30.95v121.73c0,1.82,1.47,3.29,3.29,3.29h0c1.82,0,3.29-1.47,3.29-3.29v-79.66s0-.12,0-.12l.03-.12.34-1.4.15-.61.61-.13,2.74-.61.11-.02h265.3s.04,0,.04,0h.04c2.31.18,3.78.87,4,3.74v.04s0,.04,0,.04v18.94c0,1.72,1.44,3.08,3.15,3h.03c1.61-.08,2.88-1.41,2.88-3.02.03-17.94.16-35.93.51-53.77.09-4.44.05-9.56-.88-13.91ZM309.18,121.48l.02-35.11v-.06s0-.06,0-.06c.39-2.99,3.52-6.52,6.32-7.11.59-.13,1.19-.19,1.77-.19,2.94,0,5.5,1.6,7.03,4.38,1.14,2.08,1.18,3.03,1.25,4.6.02.38.03.81.07,1.31.69,9.23.8,21.14.28,29.64-.3,4.96-2.32,8.28-5.83,9.63-.94.36-1.91.54-2.87.54-3.96,0-7.34-3.11-8.05-7.4v-.08s-.01-.08-.01-.08ZM222.84,120.95l.03-34.31v-.06s0-.06,0-.06c.38-2.93,3.17-6.71,6.32-7.38.57-.12,1.14-.18,1.7-.18,4.03,0,7.39,3.2,8.16,7.77v.07s.01.08.01.08c.07,4.55.03,9.18-.02,13.66-.05,4.85-.1,9.86,0,14.77.02.76.08,1.46.13,2.14.16,1.91.32,3.71-.59,6.13-1.28,3.39-4.03,5.41-7.37,5.41-3.74,0-7.95-2.78-8.38-7.94v-.04s0-.04,0-.04ZM136.74,102.96c.16-5.22.33-10.62.08-15.72v-.06s0-.06,0-.06c.25-3.36,2.97-7.37,6.63-7.98.5-.08,1.01-.13,1.49-.13,4.46,0,7.96,3.62,8.33,8.61.43,5.76.23,11.87.04,17.78-.17,5.23-.34,10.65-.08,15.75v.14s-.02.13-.02.13c-.33,1.46-1.4,5.02-4.26,6.56-1.26.68-2.58,1.02-3.92,1.02-4.3,0-7.93-3.61-8.26-8.22-.41-5.77-.22-11.89-.04-17.8ZM132.5,159.37l231.97.13h.13s.13.03.13.03c1.95.52,3.41,2.52,3.25,4.46-.1,1.25-.98,2.65-3.13,2.85h-.05s-.05,0-.05,0c-8.76-.09-18.3-.13-29.18-.13-10.06,0-20.28.04-30.16.07-9.9.03-20.14.07-30.22.07h-2.68c-33.34-.02-66.8-.04-100.33-.04-27.07,0-51.26.01-73.95.04h-.09s-.09-.02-.09-.02l-2.92-.52-.62-.11-.17-.61c-.43-1.58-.32-2.99.31-4.07.54-.93,1.46-1.58,2.66-1.88l.12-.03h.12s16.08-.14,16.08-.14c1.99-.62,3.32-2.46,3.32-3.83,0-1.26-1.1-1.87-2.06-2.16-1.1-.08-2.31-.12-3.68-.12-1.55,0-3.16.05-4.71.1-1.56.05-3.17.1-4.75.1-1.44,0-2.7-.04-3.85-.13h-.11c-1.21-.1-2.44-.25-3.06-1.07-.26-.35-.37-.78-.31-1.22.04-2.19,0-4.41-.04-6.56-.18-10.17-.35-19.78,7.42-27.97,3.03-3.19,10.19-7.81,15.21-7.81h12.76l.15.82c.4,2.19.34,4.43.28,6.6-.04,1.28-.07,2.6,0,3.86.12,2.33.4,4.82,1.63,7.24,2.63,5.15,7.99,8.27,13.86,8.03,3.09-.13,6.06-1.32,8.53-3.18,5.53-4.15,5.68-9.48,5.85-15.21.02-.56.03-1.12.05-1.69.03-.9.01-1.84,0-2.74-.02-.9-.04-1.84,0-2.76l.03-.97h.97s53.46.04,53.46.04h.16s.15.05.15.05c.29.1,1.16.39,1.39,3.11.14,1.72.09,3.39.05,5.01-.08,2.67-.15,5.18.59,7.81,1.8,6.39,7.35,10.52,14.12,10.52,5.24,0,9.82-2.53,12.57-6.94.8-1.29,2.32-4.85,2.32-5.85v-12.75l.29-.29.4-.4.29-.29h54.51l.27.21c.62.48.76,1.28.66,8.12-.02,1.23-.03,2.29-.01,2.69.42,7.55,4.54,13.14,11.02,14.96,1.37.39,2.77.58,4.14.58,4.88,0,9.33-2.45,12.2-6.72,2.82-4.19,2.68-7.82,2.52-12.02-.07-1.88-.15-3.82.02-5.97v-.1c.02-.34.06-1.05.73-1.47.44-.28,2.73-.54,2.75-.54.68-.05,1.46-.08,2.33-.08,3.27,0,8.13.39,11.1,1.26,10.58,3.1,17.89,12.63,18.62,24.28.28,4.4.37,11.59,0,16.24-.21,2.73-1.85,2.91-3.16,3.05-.32.03-.65.07-1.01.14l-.09.02h-.09l-229.76-.02c-.63.05-1.28.18-1.67.34-.19.09-1.17.68-1.61.96-.09.43-.2,1.3-.19,1.54.06,1.17,1.19,2.84,2.31,3.09Z"/>
  </g>
  <path class="cls-2" d="M294.93,59.48c-19.9-7.42-41.44-11.48-63.93-11.48-20.54,0-40.3,3.39-58.73,9.63"/>
  <path class="cls-2" d="M394.15,313.99c12.7-24.91,19.85-53.11,19.85-82.99s-7.4-59.01-20.49-84.22"/>
  <path class="cls-2" d="M172.85,404.57c18.27,6.12,37.82,9.43,58.15,9.43,22.26,0,43.6-3.98,63.33-11.26"/>
  <path class="cls-2" d="M64.52,154.91c-10.61,23.17-16.52,48.94-16.52,76.09,0,29.39,6.93,57.17,19.24,81.78"/>
  <path d="M306.99,356.97c-1.47-.01-2.95-.01-4.39-.44-4.43-1.32-7.49-5.19-7.61-9.81-.07-2.89-.09-26.78-.01-29.66.15-5.63,4.29-9.94,9.9-10.21,4.22-.2,31-.11,32.47.02,4.92.42,8.79,4.11,9.34,9.03.41,3.61.38,28.25.04,31.86-.47,5.06-4.78,9.01-9.88,9.15-3.83.11-20.13.14-29.86.07ZM334.54,351.28c.74,0,1.48.02,2.21-.06,2.47-.26,4.19-2.03,4.31-4.51.08-1.74.04-24.49.03-26.24,0-1.21,0-2.42-.05-3.62-.09-1.78-1.03-3-2.6-3.77-.99-.49-2.04-.59-3.13-.59-20.61,0-8.23,0-28.84,0-.4,0-.81-.01-1.21.02-2.53.22-4.2,1.83-4.51,4.35-.06.53-.06,1.07-.07,1.61,0,1.95,0,24.89,0,26.84,0,.54.01,1.08.08,1.61.32,2.51,2.01,4.13,4.52,4.34.73.06,1.48.05,2.21.05,10,0,17.02,0,27.03,0Z"/>
  <path d="M245.99,356.97c-1.47-.01-2.95-.01-4.39-.44-4.43-1.32-7.49-5.19-7.61-9.81-.07-2.89-.09-26.78-.01-29.66.15-5.63,4.29-9.94,9.9-10.21,4.22-.2,31-.11,32.47.02,4.92.42,8.79,4.11,9.34,9.03.41,3.61.38,28.25.04,31.86-.47,5.06-4.78,9.01-9.88,9.15-3.83.11-20.13.14-29.86.07ZM273.54,351.28c.74,0,1.48.02,2.21-.06,2.47-.26,4.19-2.03,4.31-4.51.08-1.74.04-24.49.03-26.24,0-1.21,0-2.42-.05-3.62-.09-1.78-1.03-3-2.6-3.77-.99-.49-2.04-.59-3.13-.59-20.61,0-8.23,0-28.84,0-.4,0-.81-.01-1.21.02-2.53.22-4.2,1.83-4.51,4.35-.06.53-.06,1.07-.07,1.61,0,1.95,0,24.89,0,26.84,0,.54.01,1.08.08,1.61.32,2.51,2.01,4.13,4.52,4.34.73.06,1.48.05,2.21.05,10,0,17.02,0,27.03,0Z"/>
  <rect class="cls-1" x="177" y="193" width="43.15" height="41.35" transform="translate(397.15 427.35) rotate(180)"/>
  <path d="M184.99,356.97c-1.47-.01-2.95-.01-4.39-.44-4.43-1.32-7.49-5.19-7.61-9.81-.07-2.89-.09-26.78-.01-29.66.15-5.63,4.29-9.94,9.9-10.21,4.22-.2,31-.11,32.47.02,4.92.42,8.79,4.11,9.34,9.03.41,3.61.38,28.25.04,31.86-.47,5.06-4.78,9.01-9.88,9.15-3.83.11-20.13.14-29.86.07ZM212.54,351.28c.74,0,1.48.02,2.21-.06,2.47-.26,4.19-2.03,4.31-4.51.08-1.74.04-24.49.03-26.24,0-1.21,0-2.42-.05-3.62-.09-1.78-1.03-3-2.6-3.77-.99-.49-2.04-.59-3.13-.59-20.61,0-8.23,0-28.84,0-.4,0-.81-.01-1.21.02-2.53.22-4.2,1.83-4.51,4.35-.06.53-.06,1.07-.07,1.61,0,1.95,0,24.89,0,26.84,0,.54.01,1.08.08,1.61.32,2.51,2.01,4.13,4.52,4.34.73.06,1.48.05,2.21.05,10,0,17.02,0,27.03,0Z"/>
  <path d="M123.99,356.97c-1.47-.01-2.95-.01-4.39-.44-4.43-1.32-7.49-5.19-7.61-9.81-.07-2.89-.09-26.78-.01-29.66.15-5.63,4.29-9.94,9.9-10.21,4.22-.2,31-.11,32.47.02,4.92.42,8.79,4.11,9.34,9.03.41,3.61.38,28.25.04,31.86-.47,5.06-4.78,9.01-9.88,9.15-3.83.11-20.13.14-29.86.07ZM151.54,351.28c.74,0,1.48.02,2.21-.06,2.47-.26,4.19-2.03,4.31-4.51.08-1.74.04-24.49.03-26.24,0-1.21,0-2.42-.05-3.62-.09-1.78-1.03-3-2.6-3.77-.99-.49-2.04-.59-3.13-.59-20.61,0-8.23,0-28.84,0-.4,0-.81-.01-1.21.02-2.53.22-4.2,1.83-4.51,4.35-.06.53-.06,1.07-.07,1.61,0,1.95,0,24.89,0,26.84,0,.54.01,1.08.08,1.61.32,2.51,2.01,4.13,4.52,4.34.73.06,1.48.05,2.21.05,10,0,17.02,0,27.03,0Z"/>
  <rect class="cls-1" x="299" y="193" width="43.15" height="41.35" transform="translate(641.15 427.35) rotate(180)"/>
  <rect class="cls-1" x="116" y="252" width="43.15" height="41.35" transform="translate(275.15 545.35) rotate(180)"/>
  <path d="M245.99,297.97c-1.47-.01-2.95-.01-4.39-.44-4.43-1.32-7.49-5.19-7.61-9.81-.07-2.89-.09-26.78-.01-29.66.15-5.63,4.29-9.94,9.9-10.21,4.22-.2,31-.11,32.47.02,4.92.42,8.79,4.11,9.34,9.03.41,3.61.38,28.25.04,31.86-.47,5.06-4.78,9.01-9.88,9.15-3.83.11-20.13.14-29.86.07ZM273.54,292.28c.74,0,1.48.02,2.21-.06,2.47-.26,4.19-2.03,4.31-4.51.08-1.74.04-24.49.03-26.24,0-1.21,0-2.42-.05-3.62-.09-1.78-1.03-3-2.6-3.77-.99-.49-2.04-.59-3.13-.59-20.61,0-8.23,0-28.84,0-.4,0-.81-.01-1.21.02-2.53.22-4.2,1.83-4.51,4.35-.06.53-.06,1.07-.07,1.61,0,1.95,0,24.89,0,26.84,0,.54.01,1.08.08,1.61.32,2.51,2.01,4.13,4.52,4.34.73.06,1.48.05,2.21.05,10,0,17.02,0,27.03,0Z"/>
  <path d="M184.99,297.97c-1.47-.01-2.95-.01-4.39-.44-4.43-1.32-7.49-5.19-7.61-9.81-.07-2.89-.09-26.78-.01-29.66.15-5.63,4.29-9.94,9.9-10.21,4.22-.2,31-.11,32.47.02,4.92.42,8.79,4.11,9.34,9.03.41,3.61.38,28.25.04,31.86-.47,5.06-4.78,9.01-9.88,9.15-3.83.11-20.13.14-29.86.07ZM212.54,292.28c.74,0,1.48.02,2.21-.06,2.47-.26,4.19-2.03,4.31-4.51.08-1.74.04-24.49.03-26.24,0-1.21,0-2.42-.05-3.62-.09-1.78-1.03-3-2.6-3.77-.99-.49-2.04-.59-3.13-.59-20.61,0-8.23,0-28.84,0-.4,0-.81-.01-1.21.02-2.53.22-4.2,1.83-4.51,4.35-.06.53-.06,1.07-.07,1.61,0,1.95,0,24.89,0,26.84,0,.54.01,1.08.08,1.61.32,2.51,2.01,4.13,4.52,4.34.73.06,1.48.05,2.21.05,10,0,17.02,0,27.03,0Z"/>
  <rect class="cls-1" x="238" y="252" width="43.15" height="41.35" transform="translate(519.15 545.35) rotate(180)"/>
  <path d="M123.99,297.97c-1.47-.01-2.95-.01-4.39-.44-4.43-1.32-7.49-5.19-7.61-9.81-.07-2.89-.09-26.78-.01-29.66.15-5.63,4.29-9.94,9.9-10.21,4.22-.2,31-.11,32.47.02,4.92.42,8.79,4.11,9.34,9.03.41,3.61.38,28.25.04,31.86-.47,5.06-4.78,9.01-9.88,9.15-3.83.11-20.13.14-29.86.07ZM151.54,292.28c.74,0,1.48.02,2.21-.06,2.47-.26,4.19-2.03,4.31-4.51.08-1.74.04-24.49.03-26.24,0-1.21,0-2.42-.05-3.62-.09-1.78-1.03-3-2.6-3.77-.99-.49-2.04-.59-3.13-.59-20.61,0-8.23,0-28.84,0-.4,0-.81-.01-1.21.02-2.53.22-4.2,1.83-4.51,4.35-.06.53-.06,1.07-.07,1.61,0,1.95,0,24.89,0,26.84,0,.54.01,1.08.08,1.61.32,2.51,2.01,4.13,4.52,4.34.73.06,1.48.05,2.21.05,10,0,17.02,0,27.03,0Z"/>
  <path d="M306.99,238.97c-1.47-.01-2.95-.01-4.39-.44-4.43-1.32-7.49-5.19-7.61-9.81-.07-2.89-.09-26.78-.01-29.66.15-5.63,4.29-9.94,9.9-10.21,4.22-.2,31-.11,32.47.02,4.92.42,8.79,4.11,9.34,9.03.41,3.61.38,28.25.04,31.86-.47,5.06-4.78,9.01-9.88,9.15-3.83.11-20.13.14-29.86.07ZM334.54,233.28c.74,0,1.48.02,2.21-.06,2.47-.26,4.19-2.03,4.31-4.51.08-1.74.04-24.49.03-26.24,0-1.21,0-2.42-.05-3.62-.09-1.78-1.03-3-2.6-3.77-.99-.49-2.04-.59-3.13-.59-20.61,0-8.23,0-28.84,0-.4,0-.81-.01-1.21.02-2.53.22-4.2,1.83-4.51,4.35-.06.53-.06,1.07-.07,1.61,0,1.95,0,24.89,0,26.84,0,.54.01,1.08.08,1.61.32,2.51,2.01,4.13,4.52,4.34.73.06,1.48.05,2.21.05,10,0,17.02,0,27.03,0Z"/>
  <path d="M245.99,238.97c-1.47-.01-2.95-.01-4.39-.44-4.43-1.32-7.49-5.19-7.61-9.81-.07-2.89-.09-26.78-.01-29.66.15-5.63,4.29-9.94,9.9-10.21,4.22-.2,31-.11,32.47.02,4.92.42,8.79,4.11,9.34,9.03.41,3.61.38,28.25.04,31.86-.47,5.06-4.78,9.01-9.88,9.15-3.83.11-20.13.14-29.86.07ZM273.54,233.28c.74,0,1.48.02,2.21-.06,2.47-.26,4.19-2.03,4.31-4.51.08-1.74.04-24.49.03-26.24,0-1.21,0-2.42-.05-3.62-.09-1.78-1.03-3-2.6-3.77-.99-.49-2.04-.59-3.13-.59-20.61,0-8.23,0-28.84,0-.4,0-.81-.01-1.21.02-2.53.22-4.2,1.83-4.51,4.35-.06.53-.06,1.07-.07,1.61,0,1.95,0,24.89,0,26.84,0,.54.01,1.08.08,1.61.32,2.51,2.01,4.13,4.52,4.34.73.06,1.48.05,2.21.05,10,0,17.02,0,27.03,0Z"/>
  <rect class="cls-1" x="177" y="311" width="43.15" height="41.35" transform="translate(397.15 663.35) rotate(180)"/>
  <path d="M184.99,238.97c-1.47-.01-2.95-.01-4.39-.44-4.43-1.32-7.49-5.19-7.61-9.81-.07-2.89-.09-26.78-.01-29.66.15-5.63,4.29-9.94,9.9-10.21,4.22-.2,31-.11,32.47.02,4.92.42,8.79,4.11,9.34,9.03.41,3.61.38,28.25.04,31.86-.47,5.06-4.78,9.01-9.88,9.15-3.83.11-20.13.14-29.86.07ZM212.54,233.28c.74,0,1.48.02,2.21-.06,2.47-.26,4.19-2.03,4.31-4.51.08-1.74.04-24.49.03-26.24,0-1.21,0-2.42-.05-3.62-.09-1.78-1.03-3-2.6-3.77-.99-.49-2.04-.59-3.13-.59-20.61,0-8.23,0-28.84,0-.4,0-.81-.01-1.21.02-2.53.22-4.2,1.83-4.51,4.35-.06.53-.06,1.07-.07,1.61,0,1.95,0,24.89,0,26.84,0,.54.01,1.08.08,1.61.32,2.51,2.01,4.13,4.52,4.34.73.06,1.48.05,2.21.05,10,0,17.02,0,27.03,0Z"/>
  <path d="M123.99,238.97c-1.47-.01-2.95-.01-4.39-.44-4.43-1.32-7.49-5.19-7.61-9.81-.07-2.89-.09-26.78-.01-29.66.15-5.63,4.29-9.94,9.9-10.21,4.22-.2,31-.11,32.47.02,4.92.42,8.79,4.11,9.34,9.03.41,3.61.38,28.25.04,31.86-.47,5.06-4.78,9.01-9.88,9.15-3.83.11-20.13.14-29.86.07ZM151.54,233.28c.74,0,1.48.02,2.21-.06,2.47-.26,4.19-2.03,4.31-4.51.08-1.74.04-24.49.03-26.24,0-1.21,0-2.42-.05-3.62-.09-1.78-1.03-3-2.6-3.77-.99-.49-2.04-.59-3.13-.59-20.61,0-8.23,0-28.84,0-.4,0-.81-.01-1.21.02-2.53.22-4.2,1.83-4.51,4.35-.06.53-.06,1.07-.07,1.61,0,1.95,0,24.89,0,26.84,0,.54.01,1.08.08,1.61.32,2.51,2.01,4.13,4.52,4.34.73.06,1.48.05,2.21.05,10,0,17.02,0,27.03,0Z"/>
  <rect class="cls-1" x="299" y="311" width="43.15" height="41.35" transform="translate(641.15 663.35) rotate(180)"/>
  <rect class="cls-1" x="133" y="77" width="24" height="53.35" rx="11.15" ry="11.15"/>
  <rect class="cls-1" x="219" y="77" width="24" height="53.35" rx="11.15" ry="11.15"/>
  <rect class="cls-1" x="305" y="77" width="24" height="53.35" rx="11.15" ry="11.15"/>
  <path d="M354.54,253.17c-.74-.88-1.86-1.3-3.07-1.14-.48.06-.98.24-1.4.5-.46.29-.94.66-1.45,1.13-.44.41-.87.82-1.3,1.24-.43.41-.86.83-1.3,1.23-7.69,7.05-15.39,14.1-23.09,21.13l-.1.09c-.56.51-1.09.99-1.82,1.37l-.23-.22c-.41-.38-.8-.75-1.18-1.13-1.01-1-2-2.01-3-3.02l-3.27-3.34c-.71-.72-1.42-1.45-2.15-2.16-1.3-1.27-3.38-1.03-4.56-.07-1.35,1.09-1.77,3.19-.91,4.49.58.87,1.11,1.54,1.66,2.1,1.89,1.92,3.8,3.82,5.72,5.73l1.42,1.42c.36.36.72.71,1.09,1.06.37.36.75.72,1.11,1.09,1.04,1.03,2.75,1.65,4.54,1.65.12,0,.24,0,.36,0,1.75-.08,3.24-.74,4.19-1.86l4.53-4.15c6.43-5.89,12.85-11.78,19.28-17.67,1.31-1.2,2.59-2.41,3.88-3.63.81-.77,1.37-1.64,1.66-2.58.36-1.16.13-2.38-.61-3.26Z"/>
  <path d="M346.89,285c0-.35.02-.72.02-1.1.03-1.62-1.28-2.96-2.91-2.96s-2.9,1.3-2.91,2.9c0,2.03-.02,3.47-.04,3.86-.12,2.48-1.84,4.25-4.31,4.51-.73.08-1.48.06-2.21.06-10,0-17.02.01-27.03,0-.74,0-1.48.01-2.21-.05-2.51-.21-4.19-1.83-4.52-4.34-.07-.53-.08-1.07-.08-1.61-.01-1.95-.01-24.89,0-26.84,0-.54,0-1.08.07-1.61.3-2.51,1.98-4.12,4.51-4.35.4-.04.81-.02,1.21-.02,16.9,0,8.05,0,15.8,0,1.56,0,3.82,0,8.99,0,1.58,0,2.86-1.28,2.86-2.86s-1.26-2.84-2.83-2.86c-4-.03-9.36-.05-14.26-.04-5.31,0-10.25.03-12.16.12-5.61.27-9.75,4.58-9.9,10.21,0,.08,0,.19,0,.31,0,.03,0,.06,0,.09,0,.1,0,.2,0,.31,0,.05,0,.1,0,.16,0,.11,0,.23,0,.35,0,.06,0,.12,0,.18,0,.12,0,.25,0,.38,0,.09,0,.17,0,.27,0,.21,0,.43,0,.66,0,.03,0,.06,0,.09,0,.2,0,.41,0,.63,0,.12,0,.24,0,.37,0,.17,0,.34,0,.51,0,.1,0,.2,0,.31,0,.19,0,.38,0,.57,0,.13,0,.26,0,.39,0,.6,0,1.24,0,1.9,0,.23,0,.46,0,.7,0,.08,0,.16,0,.25,0,.25,0,.51,0,.77,0,.1,0,.19,0,.29,0,.22,0,.44,0,.66,0,.18,0,.37,0,.55,0,.2,0,.39,0,.59,0,.28,0,.56,0,.84,0,.07,0,.13,0,.2,0,.38,0,.76,0,1.14,0,.16,0,.32,0,.48,0,.21,0,.42,0,.63,0,.15,0,.31,0,.46,0,.25,0,.5,0,.76,0,.19,0,.38,0,.57,0,.09,0,.18,0,.27,0,.87,0,1.73,0,2.57,0,.13,0,.25,0,.38,0,.22,0,.44,0,.66,0,.11,0,.22,0,.33,0,.23,0,.47,0,.69,0,.13,0,.26,0,.38,0,.23,0,.46,0,.68,0,.03,0,.06,0,.08,0,.51,0,1.01,0,1.48,0,.08,0,.16,0,.23,0,.13,0,.26,0,.39,0,.17,0,.34,0,.51,0,.14,0,.28,0,.42,0,.14,0,.29,0,.42,0,.13,0,.26,0,.39,0,.05,0,.1,0,.15,0,0,0,0,0,0,0,1.58.02,2.74.03,3.25.11,4.42,2.92,8.15,7.04,9.62.05.02.11.04.16.05.13.05.27.1.4.14,0,0,.01,0,.02,0,.33.1.65.17.98.22.05,0,.1.02.16.03.32.05.64.09.96.11.06,0,.12,0,.18.01.32.02.64.04.96.04.06,0,.11,0,.17,0,.32,0,.64,0,.97.01,9.74.07,26.04.04,29.86-.07,5.11-.14,9.41-4.09,9.88-9.15.1-1.08.17,0,.22-3.75h-.07Z"/>
</svg>