<?xml version="1.0" encoding="UTF-8"?>
<svg id="Calque_1" data-name="Calque 1" xmlns="http://www.w3.org/2000/svg" viewBox="0 0 462 462">
  <defs>
    <style>
      .cls-1 {
        fill: #320096;
        opacity: .17;
      }

      .cls-2 {
        fill-rule: evenodd;
      }
    </style>
  </defs>
  <g>
    <g>
      <path d="M161.1,361.44c-4.74,2.56-9.48,5.15-14.59,6.92-3.27,1.14-6.64,1.76-10.12,1.67-2.18-.05-4.25-.53-6.14-1.64-2.93-1.72-3.7-3.82-2.69-7.09.87-2.81,2.19-5.42,3.86-7.83,2.29-3.31,4.67-6.55,6.96-9.86,1.4-2.03,2.7-4.13,4.03-6.2.47-.73.92-1.48,1.78-1.95,3.87-4.09-1.22-8.91-5.09-4.82-.17.92-.5,1.84-1.03,2.76-1.06,1.85-2.28,3.62-3.5,5.38-3.11,4.48-6.31,8.89-9.38,13.4-1.57,2.31-2.79,4.84-3.52,7.56-1.66,6.19.63,11.42,6.32,14.35,2.7,1.39,5.6,2.1,8.63,2.01,6.11-.18,11.95-1.51,17.42-4.35,3.13-1.62,6.28-3.23,9.42-4.83,4.5-1.95,2.13-7.43-2.37-5.49Z"/>
      <path d="M290.82,250.59c-3.02-11.91-8.65-22.36-17.3-31.1-7.04-7.11-15.15-12.8-24.01-17.46-11.09-5.83-22.84-9.52-35.29-11-10.13-1.2-20.22-.99-30.19,1.3-19.6,4.5-35.27,14.72-46.07,31.94-3.47,5.53-6.38,11.31-7.76,17.74-.21,1-.28,2.07-.19,3.09.09,1.15,1.07,1.94,2.24,2.09,1.15.15,2.03-.26,2.55-1.33.39-.81.68-1.68.94-2.55,1.65-5.5,4.01-10.68,7.14-15.5,9.84-15.14,23.25-25.34,40.95-29.5,12.92-3.04,25.9-2.78,38.8.09,16.01,3.56,30.23,10.84,42.7,21.47,10.4,8.87,17.22,19.94,20.19,33.37,2.3,10.4,3.17,20.91,3.12,31.52-.07,12.37-1.31,24.63-3.31,36.82-1.65,10.01-4.1,19.82-7.79,29.29-2.08,5.35-4.66,10.42-8.48,14.79-3.67,4.21-8.27,6.12-13.82,5.83-3.46-.18-6.82-.82-10.1-1.94-4.64-1.59-8.8-4.13-12.99-6.6-7.89-4.65-15.9-9.09-24.58-12.11-.14-.05-.28-.11-.42-.17-3.26-1.16-3.26,6.38,3.47,7.89,3.4,1.57,6.82,3.12,10.12,4.87,4.64,2.47,9.12,5.23,13.74,7.73,6.16,3.34,12.66,5.63,19.75,6.05,8.46.5,15.37-2.35,20.64-9.08,3.97-5.07,6.73-10.77,8.92-16.77,4.79-13.06,7.12-26.68,8.99-40.39,1.01-7.4,1.55-14.85,1.78-22.32.39-12.85-.57-25.55-3.74-38.06Z"/>
      <path d="M231.4,140.49c-43.82,0-87.64,0-131.46,0-3,0-3.61.52-3.79,3.58-.16,2.79-.23,5.58-.25,8.37-.1,16.24-.16,32.47-.26,48.71-.05,7.73-.14,15.46-.22,23.18-.01.97-.03,1.95-.13,2.92-.13,1.26-1.06,2.21-2.2,2.39-1.04.17-2.18-.39-2.62-1.59-.49-1.32-.9-2.73-1-4.13-.18-2.52-.16-5.06-.14-7.59.1-12.4.29-24.81.33-37.21.05-16.37,0-32.73-.02-49.1,0-4.63.26-9.23,1.8-13.64,3.15-8.99,9.52-14.14,18.87-15.65,1.72-.28,3.49-.4,5.23-.39,50.83.02,101.66.1,152.49.07,19.54-.01,39.08-.33,58.62-.41,7.46-.03,14.93.16,22.39.36,3.52.1,6.96.78,10.26,2.07,7.13,2.79,11.14,8.23,12.89,15.49.42,1.76.67,3.59.72,5.39.11,4.35.09,8.7.06,13.05-.04,5.97-.19,11.94-.2,17.91-.04,18.77-.04,37.54-.07,56.31,0,.78.05,1.58-.12,2.33-.2.86-.55,1.72-.98,2.5-.44.78-1.18,1.23-2.13,1.03-.95-.2-1.7-.72-1.94-1.7-.18-.75-.32-1.53-.34-2.3-.1-4.35-.21-8.7-.22-13.05-.06-17.47-.09-34.94-.14-52.41,0-1.43.04-2.86-.06-4.28-.12-1.62-.72-2.15-2.34-2.24-.84-.05-1.69-.04-2.53-.04-43.49,0-86.99,0-130.48,0v.08ZM231.24,134.38s0-.03,0-.05c13.95,0,27.91.01,41.86,0,29.79-.03,59.58-.08,89.38-.12.78,0,1.56,0,2.33-.09,1.66-.21,2.34-.83,2.4-2.51.17-4.61.22-9.23-1.13-13.72-1.48-4.93-4.63-8.33-9.48-10.09-3.15-1.14-6.47-1.45-9.77-1.54-8.43-.22-16.87-.43-25.31-.37-10.58.07-21.15.6-31.73.62-42.19.08-84.38.05-126.57.02-13.43,0-26.87-.05-40.3-.22-3.91-.05-7.78.25-11.64.74-4.49.57-8.32,2.52-11.08,6.2-4.22,5.63-5.09,12.08-4.32,18.87.16,1.42.93,1.99,2.36,2.13.45.04.91.03,1.36.04,6.94.03,13.89.09,20.83.09,36.93,0,73.86,0,110.79,0Z"/>
      <path d="M346.86,239.33c0-20.84.02-41.69-.03-62.53,0-2.58-.19-5.21-.72-7.73-1.38-6.63-5.42-10.17-12.16-10.99-3.56-.44-7.11-.41-10.69-.17-3.75.25-7.52.34-11.28.34-16.81,0-33.62-.06-50.43-.12-4.09-.02-8.18-.06-12.26-.23-1.33-.05-2.71-.37-3.95-.87-1.67-.67-1.76-2.09-.22-3.08.78-.51,1.77-.92,2.68-.97,4.4-.26,8.81-.52,13.22-.55,18.5-.13,37-.15,55.49-.26,3.83-.02,7.65-.27,11.47-.44,3.79-.17,7.53.2,11.14,1.39,7.77,2.56,11.88,8.25,13.25,16.07.42,2.42.56,4.91.56,7.37.01,16.88-.05,33.76-.08,50.64-.01,8.38-.05,16.75,0,25.13.09,15.32.23,30.65.35,45.97.03,4.1-.1,8.19-1.14,12.18-2.08,7.95-7.37,12.41-15.28,13.97-5.07,1-10.19.84-15.33.72-4.6-.11-9.21-.06-13.81.03-1.47.03-2.85-.17-4.16-.77-2.07-.95-2.28-2.95-.44-4.27,1.25-.9,2.71-1.2,4.23-1.2,6.88.01,13.76.01,20.63.03,3.11,0,6.24.31,9.28-.65,5.18-1.63,8.25-5.18,9.35-10.44.27-1.32.35-2.71.35-4.07.02-21.49.01-42.99.01-64.48,0,0-.02,0-.03,0Z"/>
      <path d="M372.56,285.73c0,14.55,0,29.09,0,43.64,0,5.31-1.26,10.31-3.84,14.92-4.83,8.63-12.43,12.94-22.15,13.18-10.31.26-20.64.09-30.96.06-4.86-.01-9.73-.2-14.59-.16-1.33.01-2.57-.06-3.77-.61-1.38-.63-1.92-1.61-1.74-3.13.16-1.31.99-2.13,2.45-2.35.64-.09,1.29-.1,1.94-.1,6.68.08,13.36.18,20.04.24,8.18.08,16.36-.09,24.53.23,13.14.51,19.65-8.72,21.56-17.42.83-3.78.95-7.61.95-11.43-.03-26.04-.13-52.08-.23-78.12,0-2.53-.25-5.06.43-7.55.46-1.69.97-2.3,2.15-2.35,1.18-.05,2.31.72,2.69,2.12.34,1.24.58,2.54.62,3.82.09,3.11.03,6.23.03,9.35,0,11.88,0,23.77,0,35.65-.04,0-.08,0-.12,0Z"/>
      <path d="M118.46,201.95c-.19,10.65-.35,21.29-.59,31.94-.03,1.33-.4,2.68-.78,3.97-.29,1-1.06,1.61-2.18,1.63-1.14.02-1.82-.65-2.2-1.61-.3-.78-.55-1.6-.65-2.43-.14-1.09-.15-2.2-.15-3.3.06-19.8.1-39.61.22-59.41.01-2.52.28-5.05.67-7.54.89-5.56,6.34-12.62,14.64-13.37,2.13-.19,4.27-.28,6.41-.37,4.99-.21,9.98-.47,14.97-.54,2.31-.03,4.65.26,6.94.6,1.2.18,2.5.69,2.64,2.19.14,1.46-1.02,2.14-2.07,2.81-1.21.77-2.58.78-3.95.78-6.23-.02-12.46-.1-18.69,0-2.12.03-4.29.3-6.35.8-5.56,1.35-8.78,5.22-9.09,10.95-.2,3.69-.11,7.4-.12,11.1-.01,7.27,0,14.54,0,21.81.11,0,.22,0,.33,0Z"/>
      <path d="M114.22,351.66c-.93-.27-1.89-.44-2.83-.7-6.28-1.72-10.81-5.46-13.27-11.57-1.77-4.4-2.46-9-2.47-13.71-.01-5.26.08-10.52,0-15.78-.25-17.66.64-35.33-.79-52.96-.12-1.49-.39-2.99-.73-4.46-.75-1.23-1.53-2.45-2.32-3.66-.3-.04-.61-.03-.93.04-1,.21-1.69,1.13-1.83,2.48-.03.26-.04.52-.03.78.1,2.66.19,5.32.3,7.98.13,3.11.41,6.23.39,9.34-.05,8.77-.22,17.53-.35,26.3.02,0,.05,0,.07,0,0,10.65.05,21.3-.02,31.95-.03,4.28.7,8.4,2.03,12.43,2.66,8.08,7.97,13.57,16.18,16.02,1.9.57,3.94.75,5.94.87,1.52.09,2.64-1.09,2.75-2.47.11-1.4-.6-2.41-2.08-2.85Z"/>
      <path d="M267.99,185.45c-7.91,0-15.82,0-23.73,0-1.68,0-3.37.04-4.93-.79-.89-.47-1.77-.97-1.77-2.1,0-1.22.87-1.91,1.91-2.18,1.49-.39,3.04-.81,4.57-.83,15.75-.23,31.51-.4,47.26-.54,1.67-.01,3.36.19,5.02.43,1.19.18,2.33.73,2.48,2.1.14,1.27-.81,2.02-1.79,2.54-.73.39-1.57.6-2.38.76-.69.14-1.42.11-2.13.12-8.17.08-16.34.15-24.5.23,0,.09,0,.18,0,.27Z"/>
      <path d="M304.81,202.91c-8.3,0-16.6-.02-24.89.02-1.16,0-2.15-.3-3.12-.88-.86-.52-1.34-1.19-1.17-2.24.18-1.1.98-1.37,1.92-1.6,3.43-.82,6.93-1.06,10.42-1.08,12.96-.08,25.93-.07,38.9-.06,1.75,0,3.49.22,5.24.34,1.04.07,1.95.41,2.29,1.48.35,1.11-.1,2.03-.91,2.8-.84.8-1.84,1.17-3,1.17-2.01,0-4.02.02-6.03.02-6.55,0-13.1,0-19.64,0,0,0,0,.01,0,.02Z"/>
      <path d="M187.31,151.33c3.68.3,7.4.36,11.03.95,6.51,1.06,10.35,5.41,10.87,11.89.08.96-.11,1.94-.12,2.91-.02,2.86-.01,5.71-.01,8.57,0,.78.05,1.56.05,2.34,0,1.77-.5,2.62-1.66,2.92-1.27.32-2.99-.48-3.42-1.94-.46-1.53-.7-3.16-.75-4.76-.11-3.05-.01-6.1,0-9.15,0-.39-.01-.78-.04-1.17-.18-2.49-1.54-4.4-3.94-4.97-2.45-.58-4.96-1.08-7.47-1.19-4.34-.19-8.69-.06-13.04-.07-.58,0-1.18.02-1.75-.07-1.09-.17-1.96-.69-2.26-1.85-.31-1.22.05-2.45,1.2-3.02.95-.48,2.07-.8,3.13-.85,2.72-.12,5.45-.04,8.17-.04,0-.17.01-.33.02-.5Z"/>
      <path d="M316.55,217.2c-4.02,0-8.04.08-12.06-.04-1.72-.05-3.5-.33-5.13-.87-1.66-.55-1.69-2.29-.23-3.32.21-.15.44-.31.68-.37,1.06-.28,2.12-.69,3.2-.74,4.66-.22,9.33-.33,13.99-.46,3.5-.1,7-.27,10.5-.25,1.67,0,3.34.34,4.99.61,1.01.17,1.81.7,2.02,1.82.22,1.15-.48,1.8-1.27,2.42-1.25.98-2.71,1.18-4.22,1.18-4.15.02-8.3,0-12.45,0,0,0,0,0,0,.01Z"/>
      <path d="M319.57,232.11c-2.92,0-5.84.08-8.75-.04-1.27-.05-2.55-.37-3.76-.78-1.23-.41-1.83-1.4-1.66-2.34.2-1.09.98-1.7,1.99-1.89,1.78-.34,3.57-.72,5.38-.79,5.25-.21,10.5-.32,15.75-.39,1.35-.02,2.72.17,4.05.43,2.08.41,2.65,2.41,1.15,3.96-.98,1.01-2.25,1.56-3.64,1.68-1.29.11-2.59.1-3.88.11-2.2.02-4.41,0-6.61,0,0,.01,0,.02,0,.03Z"/>
      <path d="M321.87,251.46c-3.05,0-6.1.08-9.14-.04-1.33-.05-2.67-.45-3.96-.85-.79-.25-1.51-.79-1.56-1.79-.06-1.08.63-1.76,1.48-2.08,1.13-.44,2.36-.86,3.55-.86,6.23-.02,12.45.07,18.68.2.85.02,1.78.37,2.52.82,1.09.66,1.43,1.8,1.07,2.87-.36,1.1-1.21,1.67-2.32,1.8-.83.09-1.68.05-2.53.05-2.59,0-5.19,0-7.78,0v-.12Z"/>
      <path d="M321.1,267.12c-2.66,0-5.32.07-7.97-.03-1.14-.04-2.33-.28-3.4-.68-1.66-.61-1.98-2.42-.63-3.55.65-.54,1.6-1,2.43-1.03,6.02-.24,12.04-.38,18.06-.48.79-.01,1.68.3,2.37.72,1.76,1.09,1.8,3.2.05,4.3-.77.48-1.81.71-2.74.74-2.72.1-5.44.03-8.16.03,0,0,0-.02,0-.03Z"/>
      <path d="M111.65,309.39c0-1.52-.04-3.02.02-4.51.02-.57.15-1.18.41-1.68.72-1.38,2.4-1.53,3.37-.28.43.54.75,1.23.92,1.9.97,3.73,1.51,7.5,1.13,11.37-.05.51-.15,1.03-.34,1.51-.75,1.94-2.66,2.34-3.93.69-.64-.82-1.04-1.96-1.19-3.01-.27-1.99-.29-4.01-.41-5.99Z"/>
      <path d="M120.37,112.04c4.75,0,8.19,3.43,8.23,8.22.05,4.91-3.4,8.58-8.08,8.61-5.11.03-9.21-3.98-9.22-9.03,0-4.57,3.75-7.79,9.08-7.79ZM120.29,122.85c1.42-.03,2.41-1.11,2.34-2.53-.09-1.63-1.37-2.74-3.17-2.74-1.24,0-2.25,1.07-2.27,2.41-.02,1.48,1.52,2.89,3.11,2.86Z"/>
      <path d="M163.9,128.91c-3.95-.02-7.23-2.58-8.1-6.3-.87-3.74.79-7.25,4.29-9.12,1.64-.88,3.4-1.27,5.24-1.27,4.58,0,8,4.02,7.48,8.74-.49,4.38-4.52,7.98-8.9,7.96ZM166.63,120.18c.02-1.27-.79-2.17-1.96-2.17-1.52,0-3.11,1.35-3.1,2.64.01,1.25,1.23,2.31,2.64,2.3,1.31-.01,2.4-1.25,2.42-2.77Z"/>
      <path d="M143.52,128.83c-4.77.23-8.23-4.14-8.12-8.35.11-4.55,3.67-8.06,8.27-8.05,4.37,0,7.92,3.59,7.83,7.97-.1,4.6-3.13,8.67-7.98,8.43ZM143.37,123c1.22-.02,2.36-1.19,2.34-2.39-.02-1.18-1.39-2.56-2.51-2.54-1.16.02-2.29,1.36-2.28,2.72,0,1.25,1.1,2.24,2.45,2.21Z"/>
      <path d="M192.58,268.47c-16.83,0-30.53-13.69-30.53-30.53s13.69-30.53,30.53-30.53c6.94,0,13.73,2.39,19.12,6.73,1.08.87,1.25,2.44.38,3.52-.87,1.07-2.44,1.25-3.52.38-4.58-3.68-10.1-5.63-15.99-5.63-14.08,0-25.53,11.45-25.53,25.53s11.45,25.53,25.53,25.53,25.53-11.45,25.53-25.53c0-1.38,1.12-2.5,2.5-2.5s2.5,1.12,2.5,2.5c0,16.83-13.69,30.53-30.53,30.53Z"/>
      <path d="M252.4,300.81c-6.27,0-12.17-2.44-16.61-6.87-.98-.97-.98-2.56,0-3.54s2.56-.98,3.54,0c3.5,3.49,8.14,5.41,13.08,5.41,10.21,0,18.52-8.31,18.52-18.52s-8.31-18.52-18.52-18.52-18.52,8.31-18.52,18.52c0,1.38-1.12,2.5-2.5,2.5s-2.5-1.12-2.5-2.5c0-12.97,10.55-23.52,23.52-23.52s23.52,10.55,23.52,23.52-10.55,23.52-23.52,23.52Z"/>
      <path d="M234.62,348.78c-11.19,0-20.29-9.1-20.29-20.29,0-1.38,1.12-2.5,2.5-2.5s2.5,1.12,2.5,2.5c0,8.43,6.86,15.29,15.29,15.29s15.29-6.86,15.29-15.29-6.86-15.29-15.29-15.29c-5.8,0-11.03,3.21-13.65,8.39-.62,1.23-2.13,1.72-3.36,1.1-1.23-.62-1.72-2.13-1.1-3.36,3.48-6.87,10.42-11.13,18.11-11.13,11.19,0,20.29,9.1,20.29,20.29s-9.1,20.29-20.29,20.29Z"/>
      <path d="M192.04,311.59c-8.21,0-14.9-6.68-14.9-14.9s6.68-14.9,14.9-14.9,14.9,6.68,14.9,14.9c0,1.38-1.12,2.5-2.5,2.5s-2.5-1.12-2.5-2.5c0-5.46-4.44-9.9-9.9-9.9s-9.9,4.44-9.9,9.9,4.44,9.9,9.9,9.9c2.76,0,5.33-1.11,7.22-3.13.94-1.01,2.53-1.06,3.53-.11,1.01.94,1.06,2.53.11,3.53-2.81,2.99-6.77,4.7-10.86,4.7Z"/>
      <path class="cls-2" d="M207.97,380.72c1.29-.94,1.9-3.52-.01-5.88h-.01s-3.96-4.92-3.96-4.92h0s-8.94-11.04-8.94-11.04l-40.85-50.39h0c-1.76-2.15-4.16-2.28-5.41-1.47l-.54.4c-1.19.91-1.81,3.22-.16,5.55l31.69,44.83c1.01,1.43.66,3.39-.79,4.37-1.45.98-3.44.62-4.45-.81l-31.69-44.83c-1.09-1.55-1.79-3.33-2.04-5.13-3.16.38-6.44-.9-8.49-3.59-2.75-3.61-2.34-8.52.71-11.61-7.28,2.34-15.59-.03-20.43-6.45-5.53-7.27-7.13-16.26-6.53-23.95.3-3.86,1.16-7.5,2.43-10.56,1.25-3,3.01-5.7,5.31-7.37.76-.55,1.74-.74,2.67-.51.93.23,1.7.85,2.12,1.7.4.81.65,1.58.84,2.15h0s.05.17.05.17c.21.61.36,1.02.58,1.44.41.75,1.29,1.92,4.04,3.74,1.47.97,1.87,2.93.89,4.37-.98,1.44-2.96,1.82-4.43.84-2.84-1.88-4.55-3.53-5.66-5.22-.17.35-.35.73-.51,1.13-1,2.39-1.72,5.38-1.98,8.66-.51,6.6.91,13.95,5.27,19.69h0c3.91,5.21,11.37,6.33,16.64,2.49h0c5.25-3.81,6.33-11.13,2.38-16.35-1.42-1.87-2.72-3.04-3.61-3.73-.45-.34-.79-.56-1-.69-.1-.06-.17-.1-.21-.12h-.01c-1.58-.75-2.27-2.6-1.55-4.17.73-1.57,2.63-2.26,4.23-1.53l-1.32,2.85q1.32-2.85,1.33-2.85h0s0,0,0,0h.01s.02.02.02.02l.06.03s.1.05.17.09c.13.07.31.17.52.29.42.25.98.61,1.64,1.12,1.32,1.01,3.03,2.59,4.82,4.94h0c4.85,6.42,4.77,14.93.38,21.08,3.9-1.95,8.77-.88,11.49,2.69,2.07,2.72,2.35,6.18,1.05,9.04,1.68.75,3.2,1.9,4.39,3.35h0s40.86,50.41,40.86,50.41l8.95,11.04h0s3.95,4.91,3.95,4.91h0c3.63,4.46,3.71,11.31-1.13,14.84h0s-5.01,3.65-5.01,3.65h0c-4.85,3.55-11.53,1.47-14.84-3.24h0s-9.64-13.66-9.64-13.66c-1.01-1.43-.66-3.39.79-4.37,1.45-.98,3.44-.62,4.45.81l9.64,13.66h0c1.76,2.51,4.47,2.66,5.75,1.73h0s5.01-3.65,5.01-3.65ZM144.83,302.03c.07-.05.15-.11.22-.16l3-2.18c1.23-.9,1.46-2.58.55-3.78-.93-1.22-2.64-1.46-3.85-.58l-3.28,2.4-3.52,2.54c-1.22.9-1.46,2.58-.55,3.77.93,1.22,2.64,1.46,3.85.58h.01s3.1-2.26,3.1-2.26l.07-.05h0s.39-.29.39-.29h0Z"/>
    </g>
    <path d="M130.36,84.74c-.96,0-1.91-.46-2.49-1.32-.93-1.37-.57-3.24.81-4.17,30.27-20.45,65.65-31.25,102.32-31.25s69.8,10.14,99.4,29.32c1.39.9,1.79,2.76.89,4.15-.9,1.39-2.75,1.79-4.15.89-28.62-18.55-61.87-28.36-96.13-28.36s-69.69,10.45-98.96,30.23c-.51.35-1.1.51-1.68.51Z"/>
    <path d="M397.99,301.31c-.37,0-.75-.07-1.12-.22-1.54-.62-2.28-2.37-1.66-3.9,8.49-21.03,12.79-43.3,12.79-66.19,0-31.54-8.4-62.51-24.29-89.54-.84-1.43-.36-3.27,1.07-4.11,1.42-.84,3.27-.36,4.11,1.07,16.43,27.96,25.11,59.97,25.11,92.58,0,23.66-4.45,46.68-13.23,68.43-.47,1.17-1.6,1.88-2.78,1.88Z"/>
    <path d="M231,414c-1.66,0-3-1.34-3-3s1.34-3,3-3c38.99,0,75.97-12.43,106.93-35.94,1.32-1,3.2-.75,4.2.58,1,1.32.74,3.2-.58,4.2-32.02,24.31-70.25,37.16-110.56,37.16Z"/>
    <path d="M70.16,314.9c-1.1,0-2.15-.6-2.68-1.65-12.93-25.65-19.48-53.32-19.48-82.25,0-32.61,8.68-64.62,25.11-92.58.84-1.43,2.68-1.91,4.11-1.07,1.43.84,1.91,2.68,1.07,4.11-15.89,27.04-24.29,58-24.29,89.54,0,27.98,6.34,54.75,18.84,79.55.75,1.48.15,3.28-1.33,4.03-.43.22-.89.32-1.35.32Z"/>
  </g>
  <polygon class="cls-1" points="99.94 140.49 364.41 140.46 372.9 123.32 359.29 102.43 102.67 105.87 89.97 123 99.94 140.49"/>
  <circle class="cls-1" cx="192.93" cy="237.5" r="28"/>
  <circle class="cls-1" cx="234.93" cy="328.5" r="17"/>
  <polygon class="cls-1" points="116.32 251.59 136.85 267.17 140.93 281.5 142.22 289.49 129.27 293.59 114.63 286.53 107.93 269.5 116.32 251.59"/>
  <polygon class="cls-1" points="143.52 311.5 196.93 388.5 206.93 385.5 213.12 377.26 154.77 301.23 143.52 311.5"/>
</svg>