<?xml version="1.0" encoding="UTF-8"?>
<svg id="Calque_1" data-name="Calque 1" xmlns="http://www.w3.org/2000/svg" viewBox="0 0 462 462">
  <defs>
    <style>
      .cls-1 {
        fill: #320096;
        opacity: .17;
      }
    </style>
  </defs>
  <g>
    <g>
      <path d="M414.01,87.68c-1.06-.9-2.26-1.17-3.61-.7-1.28.45-2.55.96-3.86,1.33-9.91,2.84-19.94,5.24-30.03,7.34-8.43,1.75-31.41,6.16-31.68,6.21-2.89.56-25.76,3.02-29.38,3.29-6.66.49-13.32.99-19.99,1.31-8.95.43-17.9.7-26.85,1.03-8.12.3-16.23.59-24.35.86-6.91.23-13.8.59-20.66,1.47-3.47.44-6.86,1.19-10.15,2.43-4.91,1.85-9.12,4.78-12.98,8.25-6.74,6.06-12.77,12.77-18.21,20.01-3.74,4.97-7.46,9.96-11.45,14.74-2.03,2.44-3.87,5.08-5.51,7.8-5.35,8.86-9.24,18.42-12.96,28.05-.22.56-.39,1.16-.45,1.76-.15,1.42.68,2.73,1.99,3.25,1.36.54,2.75.17,3.62-1.08.43-.61.74-1.33,1.01-2.03,2.24-5.64,4.59-11.23,7.17-16.73,2.91-6.21,6.25-12.12,10.56-17.49,4.19-5.2,8.2-10.54,12.28-15.83,5.16-6.69,10.89-12.85,17.27-18.4,5.36-4.67,11.52-7.62,18.6-8.31,6.64-.65,13.31-1.07,19.98-1.39,8.26-.41,16.54-.6,24.81-.91,8.12-.3,16.23-.56,24.35-.93,6.29-.29,12.58-.69,18.87-1.08,2.04-.12,4.09-.31,6.12-.51,4.76-.46,9.51-.93,14.27-1.43.58-.06,11.25-1.45,11.91-1.57,8.73-1.58,17.48-3.05,26.18-4.77,9.81-1.94,19.58-4.12,29.25-6.68,3.81-1.01,7.58-2.15,11.36-3.27,1.02-.3,1.98-.74,2.73-1.56,1.22-1.34,1.17-3.28-.2-4.45Z"/>
      <path d="M382.47,163.82c-1.99.9-17.57,6.17-22.65,7.39-8.52,2.04-16.33,5.6-23.48,10.62-3.72,2.62-7.37,5.35-11.01,8.08-5.31,3.99-11.02,7.26-17.14,9.8-5.47,2.27-11.05,4.17-16.87,5.38-4.74.99-9.51,1.93-14.1,3.53-4.05,1.41-7.75,3.42-11.02,6.22-3.72,3.19-6.8,6.94-9.64,10.88-2.98,4.13-6.11,8.13-9.51,11.92-.22.25-.53.42-.77.61-.38-5.12-.79-10.11-1.11-15.1-.33-5.05-1.1-10.07-1.32-15.12.6-.33,1.06-.58,1.52-.83,3.73-2.02,7.47-4.04,11.2-6.07,1.13-.61,2.19-1.49,3.39-1.81,1.2-.33,2.55-.12,3.83-.15,1.21-.03,2.43-.06,3.64-.1,3.94-.14,7.89-.32,11.83-.42,4.48-.11,8.93-.54,13.34-1.35,9.62-1.77,18.13-5.86,25.49-12.3,1.42-1.25,2.78-2.59,4.02-4.02,1.3-1.5,1.12-3.19-.23-4.47-1.23-1.17-3.12-1.12-4.53.13-.4.35-.73.77-1.11,1.15-6.94,7.01-15.28,11.33-24.97,13.11-5.92,1.08-11.91,1.31-17.91,1.36-.26,0-.53-.09-.72-.13.24-.82.58-1.52.63-2.24.2-2.81-2.07-4.35-4.67-3.22-.35.15-.67.34-1,.53-5.07,2.91-10.1,5.86-15.2,8.71-11.72,6.54-23.51,12.94-35.65,18.68-3.21,1.52-6.44,2.06-9.94,1.39-4.06-.78-6.82-5.2-5.59-9.13.6-1.9,1.41-3.71,2.73-5.21,1.45-1.65,2.91-3.31,4.54-4.78,4-3.62,8.44-6.7,12.83-9.82,3.77-2.68,7.55-5.37,10.97-8.5,2.42-2.21,4.63-4.61,6.2-7.52,2.4-4.46,2.76-9.26,2.27-14.17-.69-6.82-2.27-13.45-4.24-20-.15-.51-.31-1.02-.55-1.49-.76-1.5-2.14-2.19-3.54-1.82-1.48.4-2.55,1.84-2.46,3.42.04.6.22,1.19.37,1.77,1.29,5.07,2.71,10.12,3.49,15.3.49,3.31.81,6.64.24,9.97-.22,1.26-.38,2.54-1.32,3.63-.31-.1-.59-.17-.86-.28-6.56-2.66-12.01-6.73-16.03-12.63-.55-.81-1.13-1.63-1.81-2.33-.99-1.01-2.68-1.16-3.77-.45-1.32.86-1.85,2.28-1.31,3.76.2.56.55,1.07.87,1.59.42.69.88,1.37,1.31,2.04-.55.65-.97,1.19-1.42,1.69-8.2,9.17-16.42,18.31-25.05,27.08-.58.59-1.16,1.22-1.57,1.93-.74,1.31-.44,2.71.65,3.72,1.14,1.05,2.9,1.15,4.17.12,1-.81,1.9-1.74,2.8-2.67,8-8.22,15.8-16.61,23.33-25.26.39-.44.83-.83,1.25-1.25.3.17.52.25.68.39,3.47,3.12,7.42,5.51,11.62,7.52.24.12.43.35.71.59-2.22,2.16-4.54,3.98-6.91,5.75-4.87,3.62-9.82,7.14-14.62,10.86-4.34,3.36-8.28,7.14-10.76,12.2-.41.04-.78.11-1.15.12-13.21.34-26.41.66-39.62,1-3.49.09-6.98.25-10.47.26-3.47.01-4.61,2.03-4.46,4.89.26,5,.28,10.02.42,15.03.02.84.48,17.73.49,17.99.12,3.95.26,7.89.33,11.84.17,9.34.31,18.67.47,28.01.01.68-.01,1.37.06,2.05.16,1.44,1.18,2.52,2.59,2.8,1.38.28,2.8-.34,3.42-1.66.28-.59.34-1.31.35-1.97.21-13.21-.34-26.42-.64-39.62-.23-10.4-.56-20.79-.83-31.19-.01-.51.09-1.02.14-1.63.85-.07,1.59-.16,2.34-.19,1.9-.06,3.79-.1,5.69-.15,5.01-.11,10.02-.21,15.03-.34,7.44-.19,14.87-.4,22.31-.59.59-.02,1.18.08,1.78.12.18,1,.31,1.9.49,2.78,1.04,4.93,4.02,8.23,8.64,10.08,3.48,1.4,7.08,1.53,10.73.75.87-.19,1.74-.37,2.75-.58.05.83.11,1.5.12,2.17.02,8.81,0,17.61.05,26.42.06,9.03.13,18.07.34,27.1.06,2.48.14,4.95.2,7.43.25,3.58,6.8,3.13,6.55-.46-.12-8.96-.16-17.93-.23-26.89,0-.58.1-1.15.16-1.74.29.05.45.05.59.1,4.29,1.77,8.41,1.44,12.45-.82,3.21-1.8,6.08-4.01,8.69-6.57,5.39-5.27,10.03-11.18,14.6-17.15,2.21-2.89,4.4-5.82,6.81-8.54,3.48-3.92,7.7-6.85,12.81-8.32,2.26-.65,4.52-1.28,6.81-1.78,5.03-1.11,10.09-2.08,15-3.67,8.86-2.87,17.23-6.71,24.82-12.16,3.51-2.52,6.97-5.12,10.47-7.67,4.3-3.13,8.66-6.18,13.61-8.21,2.59-1.06,5.27-1.94,7.96-2.69,6.74-1.88,24.63-7.23,26.72-8.01,5.57-2.55,2.59-9.05-2.98-6.5ZM239.2,242.19c-.66,4.1-.95,4.61-4.43,6.84-.7.45-1.44.86-2.21,1.15-2.22.83-4.31.59-6.2-.92-.18-.14-.35-.29-.52-.45-2.15-1.97-2.19-1.99-2.2-4.9-.02-4.17.01-8.34.02-12.52,0-4.09,0-8.19,0-12.51,4.55-2.46,9-4.86,13.63-7.36.15.82.32,1.46.38,2.11.57,5.73,1.16,11.47,1.68,17.21.34,3.78.47,7.57-.15,11.35Z"/>
      <path d="M284.84,318.05c-11.08,0-22.17,0-33.25,0-1.74,0-3.48-.02-5.19-.52-5.45-1.58-9.28-6.32-9.54-12.01-.1-2.2-.06-4.4-.06-6.6,0-5.16.06-10.33-.02-15.49-.1-5.67,3.72-12,10.98-13.52,1.32-.28,2.71-.32,4.07-.33,11.39-.13,22.77-.25,34.16-.33,5.24-.04,10.48,0,15.71.05,5.77.06,11.53.2,17.3.28,2.74.04,5.21.87,7.48,2.38,3.64,2.42,5.67,5.82,6.13,10.16.11,1.05.17,2.12.17,3.18.01,5.39.02,10.78-.01,16.17,0,1.59-.1,3.19-.22,4.78-.38,5.16-4.56,11.21-12.18,11.73-1.82.12-3.64.09-5.46.09-10.02,0-20.04,0-30.06,0v-.02ZM284.68,311.66h0c7.97,0,15.93,0,23.9,0,3.34,0,6.68-.15,10.01,0,4.16.2,7.88-2.81,7.64-7.62-.19-3.78-.03-7.59-.04-11.38,0-3.11-.06-6.22-.01-9.33.05-3.86-3.24-7.28-7.21-7.29-1.74,0-3.49-.05-5.23-.05-18.29-.01-36.57-.03-54.86-.02-2.81,0-5.62,0-8.42.12-4.11.16-6.9,2.96-7.17,7.07-.03.45-.03.91-.03,1.37,0,6.37,0,12.75.02,19.12,0,.76,0,1.53.14,2.27.57,3.26,3.12,5.51,6.44,5.7.91.05,1.82.05,2.73.05,10.7,0,21.4,0,32.09,0Z"/>
      <path d="M286.39,358.81c-13.07-.08-24.53-.15-36-.23-1.67-.01-3.33-.01-4.96-.5-5.01-1.49-8.47-5.86-8.6-11.08-.08-3.26-.1-6.53-.02-9.79.17-6.36,4.85-11.24,11.19-11.54,4.77-.23,9.56-.28,14.34-.28,18.22-.01,36.43.02,54.65.06,1.67,0,3.34.1,5,.24,5.56.48,9.93,4.65,10.56,10.21.46,4.08.42,8.19.04,12.27-.53,5.72-5.4,10.18-11.17,10.34-4.32.12-8.65.08-12.98.11-7.89.07-15.79.14-22.06.19ZM284.9,352.16h0c11.31,0,22.61,0,33.92-.01.83,0,1.67.02,2.5-.07,2.79-.3,4.73-2.3,4.87-5.1.09-1.97.04-3.94.04-5.92,0-1.37.01-2.73-.06-4.1-.1-2.01-1.16-3.39-2.94-4.26-1.12-.55-2.3-.67-3.53-.67-23.29,0-46.59,0-69.88,0-.46,0-.91-.01-1.36.03-2.86.25-4.75,2.07-5.09,4.91-.07.6-.07,1.21-.07,1.82,0,2.2,0,4.4,0,6.6,0,.61.01,1.22.09,1.82.36,2.83,2.27,4.67,5.1,4.9.83.07,1.67.05,2.5.05,11.31,0,22.61,0,33.92,0Z"/>
      <path d="M158.42,380.24c-8.57,0-17.14,0-25.72,0-.53,0-1.07.04-1.59-.02-1.81-.19-3.07-1.42-3.15-3.02-.09-1.75,1.07-3.17,2.91-3.48.59-.1,1.21-.07,1.82-.07,17.3,0,34.59,0,51.89.02.6,0,1.22,0,1.81.11,1.65.3,2.63,1.52,2.66,3.2.03,1.58-1.02,2.88-2.65,3.2-.44.09-.91.09-1.36.09-8.88,0-17.75,0-26.63,0v-.03Z"/>
      <path d="M182.41,243.95c-7.43-.08-14.85-.16-22.28-.25-.61,0-1.22-.02-1.82-.09-1.46-.17-2.4-1.01-2.7-2.35-.3-1.32.19-2.62,1.38-3.33.57-.33,1.25-.53,1.91-.63.74-.11,1.51-.07,2.27-.06,14.63.1,29.26.2,43.88.3.53,0,1.07,0,1.59.08,1.71.23,2.93,1.63,2.89,3.25-.05,1.56-1.54,3.22-3.02,3.16-.68-.03-1.36.02-2.05.02-7.35,0-14.7,0-22.06,0,0-.03,0-.06,0-.09Z"/>
      <path d="M182.41,259.95c-7.43-.08-14.85-.16-22.28-.25-.61,0-1.22-.02-1.82-.09-1.46-.17-2.4-1.01-2.7-2.35-.3-1.32.19-2.62,1.38-3.33.57-.33,1.25-.53,1.91-.63.74-.11,1.51-.07,2.27-.06,14.63.1,29.26.2,43.88.3.53,0,1.07,0,1.59.08,1.71.23,2.93,1.63,2.89,3.25-.05,1.56-1.54,3.22-3.02,3.16-.68-.03-1.36.02-2.05.02-7.35,0-14.7,0-22.06,0,0-.03,0-.06,0-.09Z"/>
      <path d="M174.21,228.71c-4.93.1-9.86.2-14.8.29-.61.01-1.23.06-1.81-.05-1.61-.3-2.68-1.62-2.69-3.2,0-1.62,1.01-2.83,2.72-3.12.82-.14,1.66-.19,2.49-.2,9.64-.2,19.27-.39,28.91-.58.61-.01,1.22-.04,1.82.04,1.69.22,2.83,1.61,2.78,3.32-.04,1.59-1.17,2.92-2.81,3.03-2.8.19-5.61.29-8.42.34-2.73.06-5.46.01-8.2.01,0,.04,0,.09,0,.13Z"/>
      <path d="M283.07,296.27c-9.17,0-18.35,0-27.52,0-1.14,0-2.27.07-3.41.07-.6,0-1.22,0-1.81-.12-1.57-.32-2.51-1.49-2.54-3.05-.03-1.47.97-2.81,2.48-3.08,1.04-.19,2.11-.23,3.17-.23,19.11-.02,38.22-.02,57.32-.02,1.21,0,2.43-.06,3.64.02.66.04,1.37.19,1.94.51,1.24.68,1.84,2.2,1.53,3.51-.27,1.16-1.44,2.22-2.74,2.42-.44.07-.91.04-1.36.04-4.85-.02-9.7-.05-14.56-.06-5.38-.01-10.77,0-16.15,0,0,0,0,0,0,0Z"/>
      <path d="M231.42,290.29c-.6-.69-1.51-1.06-2.7-1.09-.23,0-.45,0-.68,0h-.3s-15.3,0-15.3,0c-25.5,0-50.99,0-76.49-.01h-.45c-.85,0-1.65,0-2.44-.08-1.66-.18-2.73-1.35-2.77-3.05-.01-.47-.01-.93-.01-1.4,0-.63,0-1.26-.03-1.89-.08-1.84-1.31-3.17-3.15-3.4-.58-.07-1.14-.08-1.62-.08-4.45-.01-8.9-.02-13.34-.02-1.03,0-2.08-.01-3.04.14-3.03.5-5.33,2.12-6.82,4.84-.82,1.5-1.2,3.2-1.18,5.36v2.09c.03,2.39.05,4.79.05,7.18v12.91c0,9.2,0,18.4.02,27.6,0,2.35-.3,4.49-.94,6.54-.76,2.44-1.7,4.22-2.95,5.6-1.24,1.38-2.5,1.87-3.85,1.51-1.26-.34-2.05-1.33-2.42-3.05-.2-.94-.3-2.02-.31-3.3-.02-15.48-.02-30.96-.02-46.44v-13.33c.01-4.13.02-8.26,0-12.38,0-2.07.8-3.61,2.54-4.85,1.71-1.21,3.5-1.8,5.49-1.8h.04c2.71.01,5.43.01,8.14,0h28.59s1.12-.01,1.12-.01l-.13-1.11c-.03-.25-.05-1.75-.06-2.64q-.03-2.2-.55-2.49l-.23-.12h-4.34c-9.64,0-24.74,0-32.36-.02h-.05c-3.79,0-7.17,1.25-10.35,3.83-2.2,1.78-3.52,4.09-3.95,6.86-.2,1.27-.22,2.59-.22,3.82-.01,18.97,0,37.95,0,56.92v7.59c0,.78,0,1.55,0,2.33-.01,1.93-.02,3.92.04,5.88.1,3.16,1.3,5.93,3.59,8.24,1.84,1.85,4.31,2.77,7.57,2.79,11.84.08,23.87.07,35.51.06h23.71c13.55-.02,29.2-.02,40.8,0h.04c3.09,0,5.87-.79,8.26-2.34,1.91-1.24,3.51-2.45,4.9-3.71,3.34-3.01,6.33-6.68,9.71-11.9,8.79-13.58,10.78-28.87,12.69-43.66l.21-1.6c.07-.53.2-1.07.35-1.64.16-.63.32-1.29.4-1.97.13-1.12-.1-2.04-.69-2.71ZM107.45,306.76l-.04-17.24c0-1.29.33-2.28.98-2.93.65-.65,1.63-.98,2.91-.98,2.57,0,5.15,0,7.73,0h4.91c0,.18,0,.34,0,.5.12,5.69,3.87,9.39,9.54,9.42,5.09.03,10.18.02,15.27.02h76.41s-.02.12-.02.12c-.59,3.19-1.1,6.17-1.59,8.99-1.75,10.2-3.14,18.26-6.78,27.86-2.06,5.44-6.11,9.94-10.02,14.3-2.16,2.41-4.03,4.02-6.04,5.22-2.04,1.22-3.85,1.67-5.7,1.39-.37-.05-.73-.07-1.08-.07-.17,0-.34,0-.51,0h-89.61c1.68-2.79,2.79-5.81,3.38-9.15.22-1.26.33-2.46.33-3.56-.01-11.3-.04-22.61-.06-33.91Z"/>
    </g>
    <path d="M228.91,413c-13.67,0-27.31-1.52-40.52-4.53-1.62-.37-2.63-1.98-2.26-3.59.37-1.62,1.98-2.63,3.59-2.26,12.78,2.91,25.96,4.38,39.19,4.38,97.05,0,176-78.95,176-176,0-1.66,1.34-3,3-3s3,1.34,3,3c0,100.36-81.65,182-182,182Z"/>
    <path d="M59.8,292.82c-1.24,0-2.4-.78-2.83-2.02-6.67-19.18-10.05-39.3-10.05-59.8,0-100.36,81.65-182,182-182,32.82,0,65,8.83,93.04,25.55,1.42.85,1.89,2.69,1.04,4.11-.85,1.42-2.69,1.89-4.11,1.04-27.12-16.16-58.23-24.7-89.97-24.7-97.05,0-176,78.95-176,176,0,19.83,3.27,39.28,9.72,57.83.54,1.56-.28,3.27-1.85,3.82-.33.11-.66.17-.99.17Z"/>
  </g>
  <polygon class="cls-1" points="147.16 209.93 194.3 208.78 203.43 221.64 216.76 214.58 217.63 284.92 144.71 286 147.16 209.93"/>
  <rect class="cls-1" x="241.41" y="329.5" width="86" height="25"/>
</svg>