<svg width="16" height="17" viewBox="0 0 16 17" fill="none" xmlns="http://www.w3.org/2000/svg">
<path fill-rule="evenodd" clip-rule="evenodd" d="M8.33146 10.6956L8.33146 1.50033C8.33146 1.31623 8.18222 1.16699 7.99813 1.16699C7.81403 1.16699 7.6648 1.31623 7.6648 1.50033L7.66479 10.6953L6.23464 9.26428C6.10459 9.13415 5.89359 9.134 5.76337 9.26396C5.63314 9.39391 5.633 9.60475 5.76305 9.73488L7.76249 11.7356C7.825 11.7981 7.90983 11.8333 7.99829 11.8333C8.08675 11.8333 8.17158 11.7981 8.23409 11.7356L10.2335 9.73488C10.3636 9.60475 10.3634 9.39391 10.2332 9.26396C10.103 9.134 9.89199 9.13415 9.76194 9.26428L8.33146 10.6956ZM3.39628 4.83475C2.99425 4.83475 2.66648 5.16314 2.66648 5.56786V13.432C2.66648 13.8367 2.99425 14.1651 3.39628 14.1651H12.6037C13.0058 14.1651 13.3335 13.8367 13.3335 13.432V5.56786C13.3335 5.16314 13.0058 4.83475 12.6037 4.83475H10.1244C9.94037 4.83475 9.79117 4.68518 9.79117 4.50067C9.79117 4.31616 9.94037 4.16659 10.1244 4.16659H12.6037C13.3747 4.16659 14 4.79498 14 5.56786V13.432C14 14.2049 13.3747 14.8333 12.6037 14.8333H3.39628C2.6253 14.8333 2 14.2049 2 13.432V5.56786C2 4.79498 2.6253 4.16659 3.39628 4.16659H5.87559C6.05963 4.16659 6.20883 4.31616 6.20883 4.50067C6.20883 4.68518 6.05963 4.83475 5.87559 4.83475H3.39628Z" fill="#161617"/>
</svg>
