<svg width="16" height="17" viewBox="0 0 16 17" fill="none" xmlns="http://www.w3.org/2000/svg">
<path fill-rule="evenodd" clip-rule="evenodd" d="M2.99996 2.18271C2.81586 2.18271 2.66663 2.33195 2.66663 2.51604C2.66663 2.70014 2.81586 2.84938 2.99996 2.84938H3.67422C3.78679 5.31561 5.143 7.56733 7.28878 8.8207L7.33798 8.84938L7.2885 8.87821C5.14273 10.1316 3.78677 12.3832 3.67422 14.8494H2.99996C2.81586 14.8494 2.66663 14.9986 2.66663 15.1827C2.66663 15.3668 2.81586 15.516 2.99996 15.516H3.99996H12H13C13.1841 15.516 13.3333 15.3668 13.3333 15.1827C13.3333 14.9986 13.1841 14.8494 13 14.8494H12.3257C12.2131 12.3831 10.8569 10.1314 8.71114 8.87805L8.66194 8.84938L8.71142 8.82054C10.8572 7.56716 12.2132 5.31559 12.3257 2.84938H13C13.1841 2.84938 13.3333 2.70014 13.3333 2.51604C13.3333 2.33195 13.1841 2.18271 13 2.18271H12H10.8333C10.6492 2.18271 10.5 2.33195 10.5 2.51604C10.5 2.70014 10.6492 2.84938 10.8333 2.84938H11.6583C11.5463 5.07799 10.3166 7.1108 8.37517 8.24488L7.99996 8.46356L7.6246 8.24479C5.68318 7.11072 4.45364 5.07799 4.34166 2.84938H8.99996C9.18405 2.84938 9.33329 2.70014 9.33329 2.51604C9.33329 2.33195 9.18405 2.18271 8.99996 2.18271H2.99996ZM8.37532 9.45396C10.3167 10.588 11.5463 12.6208 11.6583 14.8494H4.34166C4.45364 12.6208 5.68335 10.5879 7.62475 9.45387L7.99996 9.23519L8.37532 9.45396Z" fill="#161617"/>
</svg>
