<svg width="18" height="18" viewBox="0 0 18 18" fill="none" xmlns="http://www.w3.org/2000/svg">
<path fill-rule="evenodd" clip-rule="evenodd" d="M1.50139 7.07379C1.50139 3.99655 3.99753 1.50042 7.07477 1.50042C8.49641 1.50042 9.78952 2.02948 10.7774 2.9058C10.9497 3.0587 11.2134 3.04292 11.3663 2.87056C11.5192 2.69819 11.5035 2.43451 11.3311 2.2816C10.1966 1.27516 8.70832 0.666016 7.07477 0.666016C3.5367 0.666016 0.666992 3.53573 0.666992 7.07379C0.666992 10.6119 3.5367 13.4816 7.07477 13.4816C10.6128 13.4816 13.4825 10.6119 13.4825 7.07379C13.4825 6.1822 13.2996 5.32649 12.9699 4.55255C12.8796 4.34057 12.6346 4.24194 12.4226 4.33225C12.2106 4.42256 12.112 4.66762 12.2023 4.87959C12.4887 5.55196 12.6481 6.29658 12.6481 7.07379C12.6481 10.151 10.152 12.6472 7.07477 12.6472C3.99753 12.6472 1.50139 10.151 1.50139 7.07379ZM12.9325 12.3415C12.7696 12.1786 12.5054 12.1786 12.3425 12.3415C12.1795 12.5044 12.1795 12.7686 12.3425 12.9315L16.6215 17.2105C16.7844 17.3734 17.0485 17.3734 17.2115 17.2105C17.3744 17.0476 17.3744 16.7834 17.2115 16.6205L12.9325 12.3415Z" fill="#161617"/>
</svg>
