<svg width="49" height="48" viewBox="0 0 49 48" fill="none" xmlns="http://www.w3.org/2000/svg">
<path fill-rule="evenodd" clip-rule="evenodd" d="M7.5 7.78516C5.89826 7.78516 4.5 9.17976 4.5 11.0352V36.5352C4.5 36.6741 4.50785 36.8106 4.52304 36.944L16.8541 23.8813L6.95082 15.8624C6.5216 15.5148 6.45539 14.8851 6.80295 14.4559C7.1505 14.0267 7.78019 13.9605 8.20941 14.308L21.9815 25.4597C23.4438 26.6503 25.5464 26.6503 27.0087 25.4597L27.0111 25.4578L44.5 11.308V11.0352C44.5 9.17976 43.1017 7.78516 41.5 7.78516H37.34C36.7877 7.78516 36.34 7.33744 36.34 6.78516C36.34 6.23287 36.7877 5.78516 37.34 5.78516H41.5C44.3183 5.78516 46.5 8.19056 46.5 11.0352V11.7675C46.5002 11.7789 46.5002 11.7903 46.5 11.8016V36.5352C46.5 39.3798 44.3183 41.7852 41.5 41.7852H7.5C4.68174 41.7852 2.5 39.3798 2.5 36.5352V11.0352C2.5 8.19056 4.68174 5.78516 7.5 5.78516H29.28C29.8323 5.78516 30.28 6.23287 30.28 6.78516C30.28 7.33744 29.8323 7.78516 29.28 7.78516H7.5ZM18.4129 25.1435L5.43427 38.8922C5.98067 39.451 6.71596 39.7852 7.5 39.7852H41.5C42.284 39.7852 43.0193 39.451 43.5657 38.8922L38.2527 33.2615C37.8736 32.8598 37.892 32.2269 38.2937 31.8479C38.6954 31.4688 39.3283 31.4872 39.7073 31.8889L44.477 36.9437C44.4922 36.8104 44.5 36.6741 44.5 36.5352V13.8807L32.1428 23.8785L37.0674 29.099C37.4463 29.5007 37.4279 30.1336 37.0261 30.5126C36.6244 30.8916 35.9915 30.8731 35.6125 30.4714L30.5834 25.1402L28.2715 27.0107L28.2704 27.0115C26.0731 28.7997 22.9171 28.7997 20.7198 27.0115L20.7187 27.0107L18.4129 25.1435Z" fill="#EB0055"/>
</svg>
