<svg width="16" height="16" viewBox="0 0 16 16" fill="none" xmlns="http://www.w3.org/2000/svg">
<path fill-rule="evenodd" clip-rule="evenodd" d="M8.00016 14.6673C11.6821 14.6673 14.6668 11.6826 14.6668 8.00065C14.6668 4.31875 11.6821 1.33398 8.00016 1.33398C4.31826 1.33398 1.3335 4.31875 1.3335 8.00065C1.3335 11.6826 4.31826 14.6673 8.00016 14.6673ZM10.3156 4.5903C10.4395 4.93698 10.259 5.31854 9.91232 5.44252L9.55419 5.57059C9.92854 5.7682 10.2606 6.03484 10.5331 6.3532C11.0317 6.93556 11.3335 7.69343 11.3335 8.52009C11.3335 10.361 9.84111 11.8534 8.00016 11.8534C6.15921 11.8534 4.66683 10.361 4.66683 8.52009C4.66683 8.11241 4.74032 7.72038 4.87536 7.35752C5.00378 7.01246 5.38762 6.83683 5.73269 6.96525C6.07776 7.09367 6.25338 7.47751 6.12496 7.82258C6.04447 8.03887 6.00016 8.27355 6.00016 8.52009C6.00016 9.62466 6.89559 10.5201 8.00016 10.5201C9.10473 10.5201 10.0002 9.62466 10.0002 8.52009C10.0002 8.02326 9.81986 7.57024 9.52029 7.22032C9.34083 7.0107 9.1194 6.83895 8.86905 6.71801L9.1497 7.30108C9.30939 7.63284 9.1699 8.03123 8.83814 8.19092C8.50638 8.35061 8.10799 8.21112 7.9483 7.87936L6.9758 5.85895C6.89384 5.68866 6.888 5.49158 6.95974 5.31674C7.03149 5.1419 7.17407 5.00572 7.35202 4.94208L9.46335 4.18705C9.81004 4.06307 10.1916 4.24361 10.3156 4.5903Z"/>
</svg>
