<svg width="24" height="24" viewBox="0 0 24 24" fill="none" xmlns="http://www.w3.org/2000/svg">
<path fill-rule="evenodd" clip-rule="evenodd" d="M9.50489 3.32486C10.0471 2.52252 10.9624 2 12.0037 2C13.6692 2 15.0136 3.34229 15.0136 5V7.5C15.0136 9.15771 13.6692 10.5 12.0037 10.5C10.3383 10.5 8.99388 9.15771 8.99388 7.5V5C8.99388 4.3774 9.18315 3.79967 9.50453 3.3254L9.50489 3.32486ZM12.0037 1C10.6182 1 9.3975 1.69737 8.67602 2.76487C8.24535 3.40054 7.99342 4.17271 7.99342 5V7.5C7.99342 9.71229 9.78804 11.5 12.0037 11.5C14.2194 11.5 16.014 9.71229 16.014 7.5V5C16.014 2.78771 14.2194 1 12.0037 1ZM11.9987 12.625C8.03968 12.625 4.72653 15.319 3.76768 18.9628C3.7243 19.1277 3.76795 19.3033 3.88349 19.4287C5.89877 21.6161 8.78291 23 12.0037 23C12.8861 23 13.7371 22.8952 14.5559 22.7016C14.8247 22.638 14.9911 22.3686 14.9275 22.0999C14.8639 21.8312 14.5944 21.6649 14.3256 21.7284C13.5798 21.9048 12.8062 22 12.0037 22C9.17675 22 6.63448 20.8281 4.81007 18.9527C5.74355 15.8715 8.60279 13.625 11.9987 13.625C15.3951 13.625 18.2589 15.872 19.1925 18.953C18.7151 19.445 18.1873 19.8901 17.6158 20.2755C17.3868 20.43 17.3265 20.7408 17.481 20.9697C17.6355 21.1986 17.9465 21.2589 18.1755 21.1045C18.891 20.6218 19.5423 20.056 20.1193 19.4283C20.2346 19.3029 20.2781 19.1275 20.2348 18.9628C19.2758 15.3187 15.9574 12.625 11.9987 12.625Z" fill="#EB0055"/>
</svg>
