<svg xmlns="http://www.w3.org/2000/svg" width="701" height="706"><path fill="url(#paint0_linear_1457_1434)" d="m252.076 186.121.439-.238v-.001zm8.683 2.545.24.439.002-.002zm2.514-8.732-.439.24zm-44.766-81.96.439-.239zm-8.668-2.537.242.437h.001zm-2.521 8.732.438-.24zm-12.914-23.637.439-.24zm8.669 2.538-.242-.438h-.001zm2.528-8.732-.439.24zm-18.305-33.51-.439.24zm-8.668-2.53.241.438.002-.001zm-2.522 8.732-.439.239zm137.787 188.308-.484.124zm7.785 4.632.122.485.004-.001zm4.594-7.829.485-.123v-.001zM274.733 30.117l-.485.123.001.001zm-7.771-4.624.125.484h.001zm-4.594 7.822.485-.124zm7.151 171.396.242.438h.001zm-2.521 8.732-.439.24zm12.749 23.365-.438.24v.001zm8.676 2.538-.242-.438-.002.002zm2.514-8.732-.439.239.001.001zm-12.742-23.372.439-.239-.001-.001zm-31.931 43.41.366-.34v-.001zm9.032.287.341.365.003-.002zm.284-9.091.367-.34-.001-.001zM139.133 117.031l-.366.341zm-9.025-.287.343.364.001-.001zm-.292 9.091-.366.34.001.001zM379.329 239.97l-.126.484h.002zm7.778-4.632.484.125v-.001zm48.412-189.807-.484-.124zm-12.379-3.197-.484-.124zM374.728 232.14l-.485-.124v.001zM207.823 427.662l-.214-.452-.002.001zm26.938-12.754.214.452v-.001zm3.056-8.56.453-.211-.001-.002zm-8.498-3.076.214.452h.001zm-26.93 12.754.214.452zm-3.07 8.553-.454.211.001.001zm38.79-108.357-.476-.154-.001.002zm-4.096-8.101-.155.475zm-125.144-40.922.155-.475zm-3.946 12.223.155-.475zm125.144 40.93.158-.475h-.002zm-53.512 107.912.214.452h.001zm-69.346 32.85.214.452zm-3.07 8.553-.453.211.001.002zm8.505 3.083.213.452.001-.001zm69.346-32.85-.214-.452zm3.062-8.553.454-.211-.001-.001zm53.263-56.824.491-.093v-.001zm-7.471-5.112.094.491zM38.661 406.312l-.094-.491zm-5.078 7.52.491-.093v-.001zm7.464 5.112.089.492.005-.001zm192.19-36.9.094.491zm-85.984-35.496.031-.499zm84.388 5.349-.031.499h.005zm6.767-6.015-.499-.032v.001zm-5.969-6.818-.031.499zm-84.389-5.341-.032.499h.001zm-6.773 6.007-.499-.032v.001zm321.486-58.422-.423.266v.001zm8.811 1.986-.269-.422v.001zm162.082-103.575-.269-.421zm1.973-8.876.423-.266zm-8.811-1.978-.269-.422zM464.736 272.44l.269.421zm126.854 1.691-.476.153v.001zm-8.042-4.129-.155-.475zm-116.561 38.119.155.475zm-4.096 8.101.477-.152-.001-.002zm8.042 4.13-.156-.475h-.002zm116.554-38.119-.155-.476v.001zm-118.926 56.831.031.499h.001zm-5.969 6.818.499-.031v-.001zm6.767 6.015.028.499h.003zm69.865-4.431-.03-.499h-.001zm5.969-6.818-.499.03v.002zm-6.766-6.015-.032-.499zm-72.188 80.275-.215.451.001.001zm122.124 57.842.215-.452h-.001zm8.498-3.083.452.213.001-.002zm-3.063-8.553-.214.452zm-122.117-57.842-.215.452h.001zm-8.498 3.076.453.212zm-50.634-166.973-.243.437.001.001zm8.668-2.538-.439-.24-.001.002zm37.892-69.377-.438-.241-.001.001zm-2.514-8.725-.242.437zm-8.675 2.537.438.24zm-37.893 69.371.439.24v-.001zm-173.77 41.761-.269.421zm-27.729-17.723.27-.421zm-8.81 1.979.422.267.001-.001zm1.958 8.875-.269.422zm27.743 17.723.269-.421zm8.811-1.986.423.267zm375.248-14.295-.476.153zm8.041 4.122-.155-.475h-.002zm44.716-14.618.155.475h.001zm-3.96-12.224-.155-.475h-.001zm-44.702 14.618-.155-.475zm-142.652-39.259-.343.364zm9.032-.287.365.342.001-.001zm59.524-63.806-.365-.342-.001.001zm-.278-9.091.344-.363-.001-.001zm-9.025.287.366.341.001-.001zm-59.537 63.814-.366-.341zm-19.716 21.135.365.341.001-.001zm-9.509 10.166.366.341zm.271 9.09.344-.362zm9.032-.286-.365-.342-.002.001zm9.523-10.174.365.342zm2.87-100.986.244-.437h-.002zm8.675-2.538-.439-.24v.001zm45.706-83.687-.439-.24zm-2.514-8.732.243-.437-.002-.001zm-8.676 2.538-.438-.24zm-45.712 83.687-.439-.24h-.001zm-34.096 333.028-.295-.404zm-1.411 8.976.406-.293-.001-.001zm34.054 47.209-.406.293zm8.924 1.42.295.404zm1.41-8.976.406-.292v-.001zm-34.06-47.21-.406.292.001.001zm125.323-332.454-.366-.341-.002.001zm33.91-36.334.366.34zm-.285-9.09.344-.364zm-9.031.279-.365-.342h-.001zm-33.904 36.348.366.341zm.278 9.083-.344.363.001.001zm-480.335 51.82.27-.421h-.001zm102.608 65.542.27-.422zm8.811-1.986.423.267v-.001zm-1.973-8.876.269-.421zM82.216 173.991l.27-.422h-.001zm-8.818 1.979-.422-.268-.001.002zm397.093 464.598-.465.183zm-8.283-3.613-.186-.464zm-3.597 8.345-.466.183zm12.336 31.351-.465.183v.001zm8.291 3.607-.185-.465h-.001zm3.582-8.346.466-.182v-.001zm-71.14-180.859-.466.183.001.001zm-8.341-21.2-.466.182.001.001zm-8.283-3.613-.185-.465-.001.001zm-3.597 8.345-.466.182v.001zm8.34 21.199-.465.184zm8.298 3.614.185.464h.001zm-27.771 91.265.054.497.01-.001zm5.534-7.184-.496.063zM371.8 471.416l-.496.062zm-7.13-5.571.062.497.002-.001zm-5.541 7.184-.496.062zm14.067 112.056.496-.062zm9.374 23.415.062.496h.001zm-5.535 7.184.496-.063zm8.22 65.477.496-.062zm7.137 5.578-.063-.496h-.003zm5.534-7.184-.496.062zm-8.212-65.484.496-.063v-.001zm76.197-173.311-.32.384zm-8.141 9.901.32-.384v-.001zm136.534 113.676.32-.384zm8.995-.853.386.319.001-.002zm-.854-9.055.32-.384zm90.97-229.603-.032-.499zm-127.16 8.051.031.499zm-5.976 6.818-.499.031zm6.781 6.015.025.499h.006zm127.167-8.051-.032-.499zm5.969-6.826.499-.031v-.001zm-28.263 77.321.095-.491h-.001zm-201.769-38.743-.095.491zm-7.479 5.112-.491-.094-.001.002zm5.078 7.521-.094.491zm201.777 38.735.095-.49-.001-.001zm7.471-5.104-.491-.094v.001zM496.325 544.07l-.406.292zm-8.925-1.42-.295-.404v.001zm-1.41 8.976.405-.293zm47.672 66.036.406-.291-.001-.001zm8.917 1.42.295.404zm1.41-8.976-.405.293zm122.98-114.336.214-.452zm-44.695-21.171-.214.452zm-8.497 3.076.452.212.001-.001zm3.055 8.56.214-.452zm44.702 21.171-.214.452h.001zm8.497-3.083-.453-.212zm-246.549 16.74-.465.183zm-8.291-3.613-.184-.465-.002.001zm-3.582 8.345-.466.183zm34.202 86.971-.465.183v.001zm8.291 3.606-.185-.465-.001.001zm3.59-8.345.465-.183zM244.12 441.585l-.387.316.001.002zm-8.996-.854.32.385zM102.829 550.873l-.32-.384zm-.855 9.055.386-.317zm8.989.853.32.385zm132.31-110.149-.32-.384zM81.055 473.495l-.214-.452zM37.137 494.3l.214.452zm-3.063 8.553-.453.211v.001zm8.498 3.076-.215-.452zm43.925-20.798.214.452zm38.875-146.411.499.031zm-5.976-6.818-.032.499h.001zm-111.81-7.076-.033.498v.001zm-.806 12.833.032-.499zm111.818 7.076-.031.499h.005zm-96.59-92.427.156-.475zm53.819 17.601.156-.475zm8.049-4.13-.476-.153zm-4.103-8.101-.155.475zm-53.819-17.601.156-.475zm-8.048 4.13-.476-.154v.001zm156.199 342.219.405.292zm-30.57 42.349.404.293.001-.001zm1.41 8.976.296-.403-.001-.001zm8.932-1.42.404.294.001-.001zm30.563-42.349.405.293zm-1.418-8.983-.295.404zm87.495-121.218.295-.404zm-8.918 1.426.406.293v-.001zm-68.99 95.581.406.293zm1.418 8.976.296-.403h-.001zm8.917-1.419-.405-.293zm68.983-95.581-.405-.293h-.001zm34.017-6.524.186-.464-.001-.001zm-8.283 3.613.465.183zm-27.287 69.377.465.184v-.001zm3.583 8.345-.186.465.004.001zm8.283-3.613-.465-.183zm27.294-69.377.466.183zm26.803-8.74-.063.497h.001zm-7.137 5.571.496.062zm-28.412 226.327-.496-.062zm5.534 7.184.066-.496h-.003zm7.137-5.57-.496-.063v.002zm28.412-226.328.496.062zM266.2 567.277l-.185.464h.001zm-8.283 3.613.465.183zM218.18 671.912l.465.184v-.001zm3.582 8.346.186-.465h-.001zm8.291-3.607-.465-.183v.001zm39.744-101.029.466.183v-.001zm-18.16-389.262a6.88 6.88 0 0 0 6.045 3.602v-1a5.88 5.88 0 0 1-5.167-3.079zm6.045 3.602c1.13 0 2.26-.279 3.317-.857l-.48-.877a5.9 5.9 0 0 1-2.837.734zm3.319-.859c3.325-1.847 4.545-6.057 2.711-9.409l-.878.48c1.571 2.871.525 6.476-2.318 8.055zm2.711-9.409-44.766-81.959-.878.48 44.766 81.959zm-44.766-81.96c-1.834-3.351-6.02-4.584-9.35-2.734l.486.874c2.839-1.577 6.416-.53 7.987 2.34zM209.597 95c-3.333 1.847-4.552 6.057-2.718 9.409l.877-.48c-1.57-2.871-.525-6.475 2.325-8.055zm-2.718 9.409 44.758 81.952.878-.479-44.759-81.953zm-12.914-23.638a6.88 6.88 0 0 0 6.045 3.595v-1a5.88 5.88 0 0 1-5.167-3.073zm6.045 3.595c1.13 0 2.261-.28 3.305-.859l-.485-.874a5.8 5.8 0 0 1-2.82.733zm3.305-.859c3.339-1.847 4.559-6.057 2.725-9.41l-.878.48c1.571 2.871.526 6.475-2.331 8.055zm2.725-9.41L187.735 40.59l-.878.48 18.305 33.508zM187.735 40.59c-1.82-3.348-6.022-4.579-9.35-2.73l.486.875c2.84-1.578 6.43-.53 7.986 2.332zm-9.348-2.73c-3.343 1.84-4.545 6.052-2.72 9.409l.879-.478c-1.566-2.88-.531-6.484 2.323-8.055zm-2.72 9.41 18.298 33.502.878-.48-18.298-33.502zm137.742 188.192a6.9 6.9 0 0 0 6.674 5.209v-1a5.9 5.9 0 0 1-5.705-4.456zm6.674 5.209a7 7 0 0 0 1.717-.216l-.244-.97a6 6 0 0 1-1.473.186zm1.721-.217c3.68-.959 5.896-4.731 4.953-8.436l-.969.246c.809 3.177-1.092 6.403-4.236 7.222zm4.953-8.437L275.218 29.994l-.969.247 51.539 202.024zM275.218 29.995c-.936-3.7-4.691-5.945-8.381-4.986l.251.968c3.148-.818 6.359 1.095 7.16 4.263zm-8.38-4.986c-3.689.951-5.905 4.731-4.954 8.43l.969-.249c-.815-3.168 1.085-6.4 4.234-7.213zm-4.954 8.43 51.525 202.023.969-.247-51.525-202.024zm7.394 170.834c-3.335 1.841-4.544 6.059-2.719 9.41l.878-.479c-1.565-2.872-.524-6.483 2.324-8.055zm-2.719 9.41 12.75 23.365.877-.479-12.749-23.365zm12.75 23.366a6.88 6.88 0 0 0 6.037 3.593v-1a5.88 5.88 0 0 1-5.16-3.074zm6.037 3.593a6.8 6.8 0 0 0 3.321-.859l-.488-.873a5.8 5.8 0 0 1-2.833.732zm3.318-.858c3.335-1.841 4.545-6.059 2.712-9.41l-.877.48c1.571 2.872.53 6.482-2.318 8.054zm2.712-9.409-12.742-23.372-.878.478 12.742 23.372zm-12.743-23.373c-1.834-3.353-6.021-4.577-9.356-2.728l.485.875c2.847-1.579 6.424-.537 7.994 2.333zm-32.735 43.991a6.85 6.85 0 0 0 5.024 2.188v-1a5.85 5.85 0 0 1-4.292-1.869zm5.024 2.188a6.9 6.9 0 0 0 4.715-1.877l-.683-.73a5.9 5.9 0 0 1-4.032 1.607zm4.718-1.879c2.763-2.619 2.901-7.005.307-9.794l-.733.681c2.221 2.387 2.103 6.145-.262 8.387zm.306-9.795L139.498 116.69l-.731.682 116.448 124.817zM139.498 116.69a6.853 6.853 0 0 0-9.734-.309l.688.726a5.853 5.853 0 0 1 8.315.265zm-9.732-.31c-2.78 2.62-2.917 6.999-.316 9.795l.732-.681c-2.227-2.395-2.108-6.145.269-8.386zm-.315 9.796 116.447 124.817.732-.682-116.448-124.817zm249.754 114.278a7 7 0 0 0 1.712.217v-1c-.478 0-.971-.06-1.465-.186zm1.712.217a6.91 6.91 0 0 0 6.674-5.208l-.969-.249a5.91 5.91 0 0 1-5.705 4.457zm6.674-5.209 48.413-189.807-.969-.247-48.413 189.807zm48.412-189.806c.952-3.706-1.264-7.486-4.953-8.438l-.25.969c3.149.812 5.05 4.044 4.235 7.22zm-4.953-8.438c-3.689-.951-7.443 1.285-8.394 4.992l.968.248c.816-3.176 4.028-5.083 7.176-4.271zm-8.394 4.992-48.413 189.807.969.247 48.413-189.806zm-48.413 189.808c-.944 3.706 1.281 7.477 4.96 8.436l.252-.968c-3.144-.819-5.051-4.046-4.243-7.222zM205.11 428.778c.983 0 1.976-.209 2.929-.665l-.432-.902a5.75 5.75 0 0 1-2.497.567zm2.927-.664 26.938-12.754-.428-.904-26.938 12.754zm26.938-12.755c3.443-1.632 4.905-5.758 3.295-9.222l-.907.421c1.382 2.974.123 6.504-2.816 7.898zm3.294-9.224c-1.619-3.453-5.72-4.947-9.164-3.315l.429.904c2.938-1.393 6.443-.121 7.83 2.836zm-9.164-3.315-26.93 12.754.428.904 26.93-12.754zm-26.93 12.754c-3.45 1.632-4.913 5.765-3.31 9.216l.907-.422c-1.374-2.958-.116-6.496 2.831-7.89zm-3.309 9.217a6.9 6.9 0 0 0 6.244 3.987v-1a5.9 5.9 0 0 1-5.338-3.411zm33.174-103.624a6.89 6.89 0 0 0 6.545-4.792l-.953-.305a5.885 5.885 0 0 1-5.592 4.097zm6.544-4.79c1.182-3.637-.797-7.548-4.415-8.731l-.311.95c3.091 1.011 4.787 4.356 3.775 7.472zm-4.415-8.731-125.145-40.922-.311.95 125.145 40.922zm-125.145-40.922c-3.619-1.184-7.505.805-8.68 4.444l.952.307c1.005-3.115 4.327-4.811 7.417-3.801zm-8.68 4.444c-1.173 3.636.805 7.546 4.423 8.73l.311-.951c-3.09-1.01-4.788-4.355-3.782-7.472zm4.423 8.73 125.145 40.929.311-.95-125.145-40.93zm125.143 40.928a6.8 6.8 0 0 0 2.13.341v-1a5.8 5.8 0 0 1-1.815-.29zm-53.569 106.986-69.346 32.85.428.904 69.346-32.85zm-69.346 32.85c-3.448 1.631-4.92 5.757-3.309 9.216l.907-.422c-1.381-2.965-.117-6.496 2.83-7.89zm-3.308 9.218a6.9 6.9 0 0 0 6.236 3.979v-1a5.89 5.89 0 0 1-5.331-3.405zm6.236 3.979c.983 0 1.982-.209 2.934-.657l-.426-.905a5.9 5.9 0 0 1-2.508.562zm2.935-.658 69.346-32.849-.428-.904-69.346 32.85zm69.345-32.849c3.45-1.632 4.913-5.758 3.303-9.216l-.907.422c1.381 2.965.123 6.496-2.823 7.89zm3.302-9.217c-1.619-3.46-5.727-4.956-9.165-3.323l.43.904c2.93-1.393 6.443-.121 7.829 2.843zm53.301-56.706c-.72-3.759-4.327-6.228-8.057-5.509l.189.982c3.179-.613 6.268 1.491 6.886 4.715zm-8.057-5.509L38.567 405.821l.188.982 192.183-36.901zM38.567 405.821c-3.741.719-6.197 4.344-5.475 8.105l.982-.188c-.618-3.221 1.485-6.321 4.682-6.935zm-5.475 8.104c.629 3.321 3.515 5.634 6.752 5.634v-1c-2.76 0-5.231-1.975-5.77-4.82zm6.752 5.634c.434 0 .87-.047 1.292-.123l-.177-.984a6.4 6.4 0 0 1-1.116.107zm1.297-.124 192.19-36.9-.188-.982-192.19 36.9zm192.19-36.9c3.735-.72 6.189-4.352 5.475-8.105l-.982.186c.611 3.216-1.493 6.322-4.682 6.937zm-86.11-35.488 84.389 5.349.063-.998-84.389-5.349zm84.394 5.349c.151.008.292.008.432.008v-1c-.144 0-.259 0-.379-.007zm.432.008c3.605 0 6.637-2.823 6.86-6.492l-.998-.061c-.191 3.142-2.786 5.553-5.862 5.553zm6.86-6.49c.245-3.815-2.632-7.109-6.436-7.349l-.063.998c3.247.204 5.711 3.018 5.501 6.287zm-6.436-7.349-84.389-5.341-.063.998 84.389 5.341zm-84.388-5.341c-3.792-.248-7.06 2.662-7.305 6.474l.998.065c.21-3.271 3.011-5.753 6.242-5.541zm-7.305 6.475c-.238 3.815 2.646 7.109 6.443 7.348l.063-.998c-3.24-.204-5.712-3.018-5.508-6.287zm321.562-58.124a6.86 6.86 0 0 0 5.815 3.215v-1a5.86 5.86 0 0 1-4.969-2.749zm5.815 3.215c1.267 0 2.55-.347 3.688-1.075l-.538-.842a5.84 5.84 0 0 1-3.15.917zm3.688-1.075L633.925 180.14l-.538-.842-162.082 103.574zm162.082-103.574c3.211-2.049 4.16-6.329 2.127-9.564l-.846.532c1.742 2.773.925 6.438-1.819 8.189zm2.127-9.564a6.86 6.86 0 0 0-9.503-2.134l.538.843a5.86 5.86 0 0 1 8.119 1.824zm-9.503-2.134L464.467 272.018l.538.843 162.083-103.575zM464.467 272.018c-3.21 2.049-4.16 6.328-2.127 9.556l.846-.533c-1.741-2.765-.925-6.429 1.819-8.18zm127.599 1.961c-1.167-3.639-5.053-5.636-8.673-4.452l.311.95c3.089-1.01 6.411.693 7.41 3.807zm-8.673-4.452-116.562 38.119.311.95 116.562-38.119zm-116.562 38.119c-3.618 1.183-5.597 5.094-4.415 8.731l.951-.309c-1.012-3.116.684-6.461 3.775-7.472zm-4.416 8.729a6.88 6.88 0 0 0 6.545 4.792v-1a5.88 5.88 0 0 1-5.592-4.097zm6.545 4.792c.706 0 1.429-.108 2.13-.341l-.315-.949a5.8 5.8 0 0 1-1.815.29zm2.128-.34 116.555-38.119-.311-.95-116.555 38.119zm116.554-38.119c3.627-1.183 5.597-5.094 4.424-8.73l-.952.307c1.006 3.118-.685 6.462-3.782 7.472zm-119.113 55.857c-3.796.24-6.681 3.534-6.436 7.349l.998-.064c-.21-3.268 2.261-6.083 5.501-6.287zm-6.436 7.347c.223 3.669 3.255 6.492 6.867 6.492v-1c-3.084 0-5.678-2.411-5.869-5.553zm6.867 6.492c.125 0 .282 0 .427-.008l-.056-.998c-.112.006-.24.006-.371.006zm.43-.008 69.866-4.431-.063-.998-69.866 4.431zm69.865-4.431c3.806-.232 6.683-3.528 6.437-7.349l-.998.064c.211 3.277-2.254 6.089-5.5 6.287zm6.437-7.347c-.23-3.815-3.507-6.724-7.297-6.484l.063.998c3.233-.205 6.039 2.278 6.236 5.546zm-7.297-6.484-69.866 4.431.064.998 69.865-4.431zm-72.37 81.226 122.124 57.841.428-.903-122.124-57.842zm122.124 57.841a6.8 6.8 0 0 0 2.928.658v-1a5.8 5.8 0 0 1-2.499-.561zm2.928.658a6.9 6.9 0 0 0 6.236-3.979l-.905-.426a5.89 5.89 0 0 1-5.331 3.405zm6.237-3.981c1.61-3.458.147-7.585-3.302-9.216l-.428.904c2.947 1.394 4.204 4.924 2.823 7.89zm-3.302-9.216L471.895 402.82l-.428.904 122.117 57.842zM471.895 402.82c-3.437-1.633-7.545-.138-9.164 3.315l.905.425c1.387-2.957 4.899-4.229 7.83-2.836zm-9.164 3.315c-1.627 3.468-.139 7.593 3.293 9.224l.43-.903c-2.935-1.394-4.211-4.926-2.818-7.896zm-50.424-166.322a6.85 6.85 0 0 0 3.312.858v-1a5.85 5.85 0 0 1-2.829-.734zm3.312.858a6.86 6.86 0 0 0 6.038-3.596l-.88-.476a5.86 5.86 0 0 1-5.158 3.072zm6.037-3.595 37.892-69.377-.878-.479-37.892 69.377zm37.892-69.376c1.834-3.344.623-7.563-2.711-9.403l-.484.875c2.849 1.572 3.889 5.183 2.318 8.047zm-2.711-9.403c-3.335-1.849-7.522-.625-9.356 2.736l.877.479c1.571-2.877 5.148-3.918 7.995-2.34zm-9.356 2.736-37.893 69.37.878.479 37.892-69.37zm-37.892 69.37c-1.834 3.352-.615 7.562 2.717 9.409l.485-.875c-2.85-1.579-3.896-5.184-2.325-8.054zm-173.063 41.579-27.728-17.722-.539.842 27.729 17.723zm-27.728-17.722a6.85 6.85 0 0 0-9.504 2.134l.847.532a5.85 5.85 0 0 1 8.118-1.823zm-9.503 2.133c-2.041 3.228-1.091 7.515 2.112 9.564l.539-.843c-2.737-1.751-3.554-5.422-1.806-8.187zm2.112 9.564 27.743 17.722.538-.842-27.742-17.723zm27.743 17.722a6.83 6.83 0 0 0 3.681 1.076v-1a5.84 5.84 0 0 1-3.143-.918zm3.681 1.076a6.86 6.86 0 0 0 5.822-3.216l-.846-.534a5.86 5.86 0 0 1-4.976 2.75zm5.822-3.216c2.033-3.229 1.083-7.508-2.127-9.557l-.538.843c2.744 1.751 3.56 5.415 1.819 8.181zm374.349-14.409a6.89 6.89 0 0 0 6.544 4.791v-1a5.89 5.89 0 0 1-5.592-4.098zm6.544 4.791c.717 0 1.433-.116 2.131-.348l-.315-.949a5.7 5.7 0 0 1-1.816.297zm2.128-.347 44.716-14.618-.31-.951-44.716 14.619zm44.717-14.618c3.612-1.184 5.581-5.095 4.408-8.73l-.952.307c1.007 3.118-.685 6.462-3.768 7.473zm4.408-8.73c-1.174-3.639-5.053-5.628-8.679-4.444l.31.95a5.873 5.873 0 0 1 7.417 3.801zm-8.68-4.444L617.418 258.4l.311.95 44.701-14.618zM617.418 258.4c-3.612 1.183-5.59 5.086-4.416 8.73l.952-.307c-1.007-3.124.691-6.462 3.775-7.473zm-142.84-38.42a6.86 6.86 0 0 0 4.717 1.878v-1a5.86 5.86 0 0 1-4.031-1.606zm4.717 1.878a6.87 6.87 0 0 0 5.023-2.187l-.73-.683a5.87 5.87 0 0 1-4.293 1.87zm5.024-2.188 59.523-63.806-.731-.682-59.524 63.806zm59.523-63.806c2.61-2.789 2.471-7.169-.299-9.795l-.688.726c2.372 2.249 2.49 5.999.257 8.386zm-.3-9.796a6.854 6.854 0 0 0-9.734.31l.733.681a5.853 5.853 0 0 1 8.315-.263zm-9.733.31-59.538 63.814.731.682 59.538-63.814zm-59.538 63.814a6.954 6.954 0 0 0 .307 9.788l.687-.727a5.954 5.954 0 0 1-.263-8.379zm-9.975 20.826a6.855 6.855 0 0 0-9.741.309l.732.681a5.856 5.856 0 0 1 8.322-.264zm-9.74.308-9.509 10.166.731.683 9.508-10.166zm-9.509 10.166c-2.609 2.789-2.471 7.176.292 9.795l.688-.725a5.963 5.963 0 0 1-.249-8.387zm.292 9.795a6.84 6.84 0 0 0 4.725 1.88v-1a5.84 5.84 0 0 1-4.037-1.605zm4.725 1.88a6.83 6.83 0 0 0 5.017-2.189l-.733-.681a5.83 5.83 0 0 1-4.284 1.87zm5.016-2.188 9.523-10.173-.731-.683-9.522 10.173zm9.523-10.173a6.954 6.954 0 0 0-.307-9.788l-.687.726a5.954 5.954 0 0 1 .263 8.379zm2.261-100.892a6.77 6.77 0 0 0 3.314.86v-1a5.76 5.76 0 0 1-2.826-.733zm3.314.86a6.88 6.88 0 0 0 6.044-3.595l-.878-.478a5.88 5.88 0 0 1-5.166 3.073zm6.044-3.594 45.706-83.688-.878-.479-45.706 83.687zm45.706-83.687c1.834-3.352.615-7.562-2.71-9.41l-.486.875c2.843 1.58 3.889 5.184 2.318 8.055zm-2.712-9.41c-3.334-1.841-7.521-.618-9.355 2.736l.877.48c1.57-2.87 5.148-3.913 7.995-2.34zm-9.355 2.736-45.713 83.687.877.479 45.713-83.687zm-45.714 83.687c-1.825 3.351-.615 7.562 2.719 9.409l.484-.874c-2.849-1.58-3.889-5.184-2.324-8.056zM430.196 463.37c-3.079 2.249-3.762 6.583-1.52 9.673l.809-.587c-1.918-2.645-1.333-6.355 1.3-8.279zm-1.521 9.672 34.053 47.21.811-.585-34.053-47.21zm34.053 47.21a6.88 6.88 0 0 0 5.577 2.86v-1a5.87 5.87 0 0 1-4.766-2.445zm5.577 2.86a6.86 6.86 0 0 0 4.048-1.329l-.59-.808a5.85 5.85 0 0 1-3.458 1.137zm4.048-1.329c3.08-2.25 3.746-6.584 1.521-9.672l-.811.584c1.906 2.647 1.332 6.358-1.3 8.28zm1.521-9.673-34.06-47.209-.811.585 34.06 47.209zm-34.06-47.209a6.86 6.86 0 0 0-9.618-1.531l.589.807a5.86 5.86 0 0 1 8.217 1.308zm120.265-329.633a6.82 6.82 0 0 0 5.019-2.19l-.735-.679a5.82 5.82 0 0 1-4.284 1.869zm5.017-2.188 33.911-36.334-.731-.682-33.911 36.334zm33.911-36.334c2.603-2.79 2.456-7.176-.307-9.795l-.688.726c2.366 2.242 2.49 6 .264 8.387zm-.307-9.795a6.87 6.87 0 0 0-9.74.301l.73.683a5.87 5.87 0 0 1 8.323-.258zm-9.741.302L555.056 123.6l.731.682 33.904-36.348zM555.056 123.6c-2.602 2.789-2.464 7.168.299 9.787l.688-.725a5.96 5.96 0 0 1-.256-8.38zm.3 9.788a6.85 6.85 0 0 0 4.723 1.879v-1a5.85 5.85 0 0 1-4.037-1.606zM75.095 185.266l102.608 65.542.539-.843-102.609-65.541zm102.608 65.542a6.84 6.84 0 0 0 3.681 1.082v-1a5.83 5.83 0 0 1-3.142-.925zm3.681 1.082a6.89 6.89 0 0 0 5.822-3.222l-.846-.534a5.89 5.89 0 0 1-4.976 2.756zm5.822-3.223c2.033-3.228 1.091-7.507-2.127-9.563l-.538.843c2.751 1.758 3.561 5.422 1.819 8.187zm-2.127-9.563L82.485 173.569l-.538.843 102.594 65.535zM82.485 173.569c-3.212-2.049-7.467-1.089-9.51 2.133l.846.535c1.747-2.757 5.384-3.575 8.126-1.825zm-9.51 2.135c-2.032 3.234-1.091 7.513 2.12 9.563l.538-.843c-2.743-1.751-3.554-5.415-1.811-8.188zm397.982 464.681c-1.397-3.553-5.405-5.303-8.935-3.894l.371.928c3.009-1.201 6.437.29 7.633 3.332zm-8.935-3.894c-3.54 1.414-5.273 5.439-3.877 8.992l.931-.366c-1.196-3.043.29-6.488 3.317-7.698zm-3.877 8.992 12.337 31.351.93-.366-12.336-31.351zm12.337 31.352a6.89 6.89 0 0 0 6.405 4.374v-1a5.89 5.89 0 0 1-5.475-3.741zm6.405 4.374c.845 0 1.706-.154 2.537-.487l-.372-.929a5.8 5.8 0 0 1-2.165.416zm2.536-.487c3.535-1.408 5.258-5.434 3.863-8.992l-.931.365c1.197 3.052-.285 6.496-3.302 7.698zm3.863-8.993-12.33-31.344-.93.366 12.329 31.344zM412.145 490.87l-8.341-21.2-.93.366 8.34 21.2zm-8.34-21.199c-1.39-3.555-5.399-5.304-8.934-3.896l.37.929c3.017-1.201 6.444.29 7.632 3.331zm-8.935-3.895c-3.541 1.414-5.265 5.439-3.877 8.991l.931-.364c-1.19-3.044.291-6.49 3.317-7.699zm-3.877 8.992 8.341 21.2.93-.367-8.34-21.199zm8.341 21.2a6.91 6.91 0 0 0 6.413 4.381v-1a5.91 5.91 0 0 1-5.483-3.748zm6.413 4.381c.838 0 1.698-.154 2.535-.487l-.369-.929a5.9 5.9 0 0 1-2.166.416zm2.536-.487c3.525-1.415 5.266-5.439 3.862-8.993l-.93.368c1.202 3.041-.29 6.487-3.304 7.697zm-27.893 91.297c3.779-.487 6.45-3.95 5.966-7.743l-.992.126c.414 3.248-1.872 6.209-5.102 6.625zm5.966-7.742-14.06-112.063-.992.124 14.06 112.064zm-14.06-112.063c-.475-3.79-3.913-6.492-7.69-6.004l.128.991c3.218-.415 6.162 1.887 6.57 5.137zm-7.687-6.005c-3.783.472-6.451 3.945-5.976 7.742l.992-.124c-.408-3.257 1.881-6.223 5.107-6.625zm-5.976 7.742L372.7 585.147l.992-.124-14.067-112.056zM372.7 585.147c.437 3.505 3.393 6.066 6.821 6.066v-1c-2.925 0-5.454-2.185-5.829-5.19zm6.821 6.066c.296 0 .587-.023.859-.053l-.108-.994a7 7 0 0 1-.751.047zm2.987 16.791c-3.783.472-6.452 3.945-5.969 7.743l.992-.126c-.414-3.257 1.874-6.222 5.101-6.625zm-5.969 7.742 8.22 65.477.992-.124-8.22-65.478zm8.22 65.477c.437 3.506 3.4 6.066 6.821 6.066v-1c-2.918 0-5.454-2.186-5.829-5.19zm6.821 6.066c.281 0 .581-.016.877-.055l-.131-.991c-.245.032-.5.046-.746.046zm.875-.054c3.774-.48 6.443-3.952 5.967-7.742l-.992.124c.408 3.25-1.881 6.216-5.101 6.626zm5.967-7.742-8.212-65.485-.993.125 8.213 65.484zm-8.212-65.486c-.484-3.79-3.929-6.483-7.703-6.003l.126.992c3.22-.409 6.17 1.888 6.585 5.138zm76.022-173.631a6.85 6.85 0 0 0-9.696.92l.773.635a5.85 5.85 0 0 1 8.282-.787zm-9.696.92c-2.424 2.95-2.019 7.315.915 9.75l.639-.77c-2.508-2.081-2.858-5.818-.781-8.345zm.914 9.749 136.534 113.676.64-.768L458.09 450.277zm136.534 113.676a6.82 6.82 0 0 0 4.387 1.593v-1a5.82 5.82 0 0 1-3.747-1.361zm4.387 1.593a6.88 6.88 0 0 0 5.314-2.511l-.771-.637a5.88 5.88 0 0 1-4.543 2.148zm5.315-2.513c2.417-2.95 2.012-7.314-.921-9.756l-.64.769c2.509 2.089 2.858 5.826.788 8.353zm-.921-9.756L466.231 440.376l-.64.768 136.534 113.67zm90.618-229.718-127.16 8.051.063.998 127.16-8.051zm-127.16 8.051c-3.797.239-6.681 3.533-6.443 7.348l.998-.062c-.204-3.269 2.268-6.084 5.508-6.288zm-6.443 7.348c.23 3.667 3.26 6.498 6.866 6.498v-1c-3.074 0-5.671-2.417-5.868-5.561zm6.866 6.498c.158 0 .3-.008.439-.015l-.051-.999c-.146.008-.26.014-.388.014zm.445-.015 127.167-8.051-.063-.998-127.167 8.051zm127.167-8.051c3.791-.24 6.674-3.542 6.437-7.356l-.998.063c.203 3.27-2.27 6.09-5.502 6.295zm6.437-7.357c-.246-3.813-3.5-6.714-7.312-6.474l.063.998c3.254-.205 6.04 2.27 6.251 5.541zm-28.668 76.862L470.258 368.92l-.189.982 201.77 38.743zM470.258 368.92c-3.744-.719-7.343 1.75-8.064 5.509l.982.188c.618-3.224 3.699-5.329 6.893-4.715zm-8.065 5.511c-.705 3.751 1.74 7.384 5.476 8.104l.189-.982c-3.188-.614-5.287-3.72-4.682-6.938zm5.476 8.104 201.777 38.735.188-.982-201.777-38.735zm201.775 38.735a7 7 0 0 0 1.3.131v-1c-.363 0-.73-.039-1.109-.112zm1.3.131c3.244 0 6.129-2.32 6.759-5.633l-.983-.186c-.539 2.837-3.009 4.819-5.776 4.819zm6.759-5.633c.713-3.753-1.741-7.385-5.475-8.105l-.19.982c3.189.614 5.294 3.721 4.682 6.936zM350.504.481c-3.805 0-6.897 3.109-6.897 6.931h1c0-3.275 2.649-5.93 5.897-5.93zm-6.897 6.931v48.615h1V7.412zm0 48.615c0 3.824 3.093 6.924 6.897 6.924v-1c-3.248 0-5.897-2.65-5.897-5.924zm6.897 6.924c3.797 0 6.881-3.102 6.881-6.924h-1c0 3.276-2.642 5.924-5.881 5.924zm6.881-6.924V7.412h-1v48.615zm0-48.615c0-3.821-3.083-6.93-6.881-6.93v1c3.239 0 5.881 2.654 5.881 5.93zM496.73 543.777a6.86 6.86 0 0 0-9.625-1.531l.59.808a5.86 5.86 0 0 1 8.224 1.308zm-9.625-1.53c-3.071 2.249-3.754 6.582-1.52 9.672l.81-.586c-1.912-2.645-1.326-6.356 1.301-8.279zm-1.52 9.672 47.671 66.036.811-.585-47.672-66.037zm47.671 66.035a6.84 6.84 0 0 0 5.57 2.861v-1a5.84 5.84 0 0 1-4.758-2.444zm5.57 2.861a6.84 6.84 0 0 0 4.048-1.329l-.59-.808a5.84 5.84 0 0 1-3.458 1.137zm4.048-1.329c3.079-2.249 3.761-6.576 1.521-9.673l-.811.586c1.919 2.653 1.334 6.356-1.3 8.279zm1.521-9.673-47.665-66.036-.811.585 47.665 66.037zm122.788-114.495-44.695-21.171-.428.904 44.695 21.171zm-44.695-21.171c-3.442-1.632-7.552-.146-9.164 3.317l.906.422a5.865 5.865 0 0 1 7.83-2.835zm-9.164 3.315c-1.626 3.467-.154 7.594 3.295 9.225l.427-.904c-2.947-1.394-4.21-4.924-2.817-7.896zm3.294 9.225 44.702 21.171.428-.904-44.702-21.171zm44.703 21.171a6.84 6.84 0 0 0 2.927.664v-1a5.86 5.86 0 0 1-2.501-.568zm2.927.664a6.89 6.89 0 0 0 6.236-3.987l-.906-.424a5.88 5.88 0 0 1-5.33 3.411zm6.236-3.987c1.619-3.46.139-7.586-3.301-9.217l-.429.904c2.942 1.394 4.211 4.926 2.824 7.889zM423.947 520.88c-1.397-3.553-5.398-5.302-8.94-3.895l.369.93c3.024-1.202 6.445.289 7.641 3.331zm-8.942-3.894c-3.533 1.415-5.258 5.44-3.862 8.992l.931-.366c-1.197-3.044.284-6.489 3.303-7.698zm-3.862 8.992 34.203 86.971.931-.366-34.203-86.971zm34.203 86.972a6.9 6.9 0 0 0 6.406 4.381v-1a5.9 5.9 0 0 1-5.476-3.749zm6.406 4.381c.855 0 1.708-.163 2.536-.495l-.372-.928a5.8 5.8 0 0 1-2.164.423zm2.535-.494c3.542-1.408 5.266-5.434 3.87-8.993l-.931.365c1.197 3.052-.284 6.496-3.309 7.698zm3.87-8.993-34.21-86.964-.93.366 34.21 86.964zm-213.65-166.576a6.857 6.857 0 0 0-9.703-.921l.64.769a5.856 5.856 0 0 1 8.289.785zm-9.703-.921L102.509 550.489l.64.769 132.295-110.142zM102.509 550.489a6.96 6.96 0 0 0-.921 9.757l.772-.635a5.957 5.957 0 0 1 .789-8.353zm-.921 9.757a6.86 6.86 0 0 0 5.315 2.512v-1a5.86 5.86 0 0 1-4.543-2.147zm5.315 2.512a6.85 6.85 0 0 0 4.38-1.592l-.64-.769a5.84 5.84 0 0 1-3.74 1.361zm4.38-1.592 132.309-110.149-.639-.769-132.31 110.149zm132.309-110.149c2.926-2.435 3.34-6.806.914-9.75l-.772.636c2.076 2.519 1.721 6.263-.781 8.345zM80.841 473.043l-43.918 20.806.428.903 43.918-20.805zm-43.918 20.805c-3.45 1.632-4.913 5.758-3.302 9.216l.907-.422c-1.382-2.965-.124-6.496 2.823-7.89zm-3.302 9.217a6.89 6.89 0 0 0 6.237 3.981v-1a5.89 5.89 0 0 1-5.33-3.404zm6.237 3.981c.993 0 1.985-.218 2.928-.665l-.429-.904a5.8 5.8 0 0 1-2.5.569zm2.928-.665 43.925-20.798-.428-.904-43.925 20.798zm43.925-20.798c3.441-1.632 4.913-5.758 3.294-9.217l-.906.424c1.388 2.964.124 6.495-2.817 7.889zm3.294-9.217c-1.62-3.461-5.728-4.948-9.164-3.323l.428.904c2.932-1.386 6.444-.12 7.83 2.843zm28.999-131.117c3.613 0 6.637-2.824 6.867-6.498l-.998-.063c-.197 3.151-2.787 5.561-5.869 5.561zm6.867-6.498c.238-3.814-2.639-7.109-6.444-7.348l-.062.998c3.247.204 5.712 3.018 5.508 6.288zm-6.443-7.348L7.617 324.327l-.063.998 111.81 7.076zm-111.81-7.076c-3.806-.248-7.075 2.661-7.313 6.475l.999.063c.203-3.269 3.003-5.752 6.249-5.541zm-7.313 6.475c-.237 3.814 2.646 7.116 6.444 7.356l.063-.998c-3.24-.205-5.712-3.026-5.508-6.295zm6.444 7.356 111.818 7.076.063-.998L6.812 337.16zm111.823 7.076c.133.007.282.015.432.015v-1c-.12 0-.242-.006-.379-.014zm-96.719-92.451 53.819 17.601.31-.95-53.818-17.601zm53.818 17.601c.707.232 1.422.34 2.129.34v-1a5.8 5.8 0 0 1-1.817-.29zm2.129.34a6.9 6.9 0 0 0 6.551-4.791l-.951-.307a5.9 5.9 0 0 1-5.6 4.098zm6.551-4.791c1.174-3.637-.804-7.547-4.423-8.73l-.31.95c3.09 1.011 4.788 4.356 3.782 7.473zm-4.423-8.73L26.11 239.602l-.311.951 53.819 17.6zM26.11 239.602c-3.62-1.184-7.506.814-8.68 4.451l.952.307c1.005-3.115 4.328-4.817 7.417-3.807zm-8.68 4.452c-1.166 3.635.803 7.546 4.423 8.729l.31-.95c-3.089-1.01-4.78-4.355-3.781-7.474zm156.269 342.079-30.57 42.349.811.585 30.57-42.349zm-30.569 42.348c-2.242 3.092-1.551 7.425 1.519 9.673l.591-.807c-2.627-1.924-3.218-5.634-1.301-8.279zm1.519 9.673a6.82 6.82 0 0 0 4.042 1.33v-1a5.8 5.8 0 0 1-3.45-1.136zm4.042 1.33a6.9 6.9 0 0 0 5.59-2.859l-.809-.587a5.9 5.9 0 0 1-4.781 2.446zm5.591-2.86 30.563-42.349-.811-.585-30.563 42.349zm30.563-42.349c2.233-3.097 1.551-7.431-1.528-9.68l-.59.808c2.634 1.923 3.22 5.634 1.307 8.287zm-1.527-9.679c-3.074-2.251-7.385-1.562-9.619 1.537l.811.585c1.912-2.651 5.593-3.237 8.217-1.315zm87.494-121.219a6.854 6.854 0 0 0-9.619 1.539l.812.583a5.854 5.854 0 0 1 8.217-1.314zm-9.618 1.538-68.99 95.581.811.585 68.99-95.581zm-68.99 95.581c-2.233 3.09-1.551 7.423 1.528 9.672l.59-.807c-2.634-1.924-3.219-5.635-1.307-8.28zm1.527 9.671a6.78 6.78 0 0 0 4.042 1.323v-1a5.78 5.78 0 0 1-3.45-1.129zm4.042 1.323a6.87 6.87 0 0 0 5.577-2.853l-.811-.585a5.87 5.87 0 0 1-4.766 2.438zm5.577-2.853 68.982-95.581-.811-.585-68.982 95.581zm68.982-95.58c2.241-3.097 1.559-7.431-1.52-9.68l-.59.808c2.633 1.923 3.219 5.633 1.3 8.286zm33.797-7.282c-3.536-1.408-7.537.342-8.933 3.895l.93.366c1.196-3.042 4.617-4.533 7.633-3.332zm-8.933 3.895-27.287 69.377.93.366 27.287-69.377zm-27.287 69.377c-1.404 3.553.329 7.578 3.862 8.993l.372-.929c-3.02-1.209-4.506-4.654-3.304-7.697zm3.866 8.994a7 7 0 0 0 2.532.486v-1a6 6 0 0 1-2.168-.417zm2.532.486a6.88 6.88 0 0 0 6.399-4.382l-.931-.366a5.88 5.88 0 0 1-5.468 3.748zm6.399-4.382L310 474.768l-.931-.366-27.294 69.377zM310 474.768c1.396-3.552-.329-7.578-3.87-8.992l-.371.928c3.026 1.209 4.506 4.654 3.31 7.698zm26.4-9.419c-3.774-.479-7.221 2.213-7.696 6.005l.992.124c.407-3.248 3.357-5.546 6.578-5.136zm-7.696 6.005-28.412 226.327.992.125 28.412-226.328zm-28.412 226.327c-.476 3.798 2.193 7.262 5.967 7.742l.126-.992c-3.221-.409-5.509-3.369-5.101-6.625zm5.964 7.742c.289.038.589.061.885.061v-1a6 6 0 0 1-.753-.053zm.885.061c3.421 0 6.384-2.567 6.814-6.067l-.992-.121c-.368 2.996-2.904 5.188-5.822 5.188zm6.814-6.065 28.412-226.328-.992-.124-28.412 226.327zm28.412-226.328c.475-3.797-2.193-7.269-5.968-7.742l-.124.993c3.219.402 5.508 3.367 5.1 6.625zm8.137-378.95c-3.805 0-6.897 3.108-6.897 6.931h1c0-3.275 2.649-5.93 5.897-5.93zm-6.897 6.931V233.74h1V101.072zm0 132.668c0 3.822 3.092 6.931 6.897 6.931v-1c-3.248 0-5.897-2.656-5.897-5.931zm6.897 6.931c3.798 0 6.881-3.11 6.881-6.931h-1c0 3.276-2.642 5.931-5.881 5.931zm6.881-6.931V101.072h-1V233.74zm0-132.668c0-3.822-3.083-6.93-6.881-6.93v1c3.239 0 5.881 2.654 5.881 5.93zm-90.999 465.74c-3.529-1.408-7.538.334-8.935 3.895l.931.366c1.196-3.049 4.623-4.533 7.633-3.332zm-8.935 3.895-39.737 101.022.931.366 39.737-101.022zm-39.737 101.022c-1.403 3.559.329 7.586 3.863 8.993l.37-.929c-3.018-1.202-4.505-4.646-3.302-7.697zm3.862 8.993a6.8 6.8 0 0 0 2.537.487v-1a5.8 5.8 0 0 1-2.165-.416zm2.537.487a6.88 6.88 0 0 0 6.405-4.375l-.93-.365a5.88 5.88 0 0 1-5.475 3.74zm6.405-4.375 39.745-101.029-.931-.366-39.744 101.029zm39.745-101.03c1.396-3.559-.337-7.585-3.878-8.992l-.369.929c3.025 1.203 4.512 4.647 3.316 7.698z"/><defs><linearGradient id="paint0_linear_1457_1434" x1=".792" x2="266.171" y1=".981" y2="734.567" gradientUnits="userSpaceOnUse"><stop/><stop offset="1"/></linearGradient></defs></svg>