<svg width="42" height="42" viewBox="0 0 42 42" fill="none" xmlns="http://www.w3.org/2000/svg">
<path fill-rule="evenodd" clip-rule="evenodd" d="M42 21C42 32.598 32.598 42 21 42C9.40202 42 0 32.598 0 21C0 9.40202 9.40202 0 21 0C32.598 0 42 9.40202 42 21ZM21 28.4022C19.7304 28.4022 18.7011 29.4314 18.7011 30.7011C18.7011 31.9707 19.7304 33 21 33C22.2697 33 23.299 31.9707 23.299 30.7011C23.299 29.4314 22.2697 28.4022 21 28.4022ZM18.8169 24.6886C18.647 25.7801 19.5751 26.6821 20.6797 26.6821H20.7422C21.8468 26.6821 22.5052 25.7351 22.894 24.7012C23.0668 24.2415 23.4142 23.7445 24.1016 23.0571L25.3672 21.854C26.3568 20.8957 27.0495 20.0259 27.4453 19.2446C27.8411 18.453 28.0391 17.6144 28.0391 16.729C28.0391 14.7811 27.4297 13.2759 26.2109 12.2134C24.9922 11.1405 23.2786 10.604 21.0703 10.604C18.8828 10.604 17.1536 11.1665 15.8828 12.2915C15.208 12.8938 14.7108 13.6201 14.3913 14.4702C13.8988 15.7808 15.1037 16.9634 16.5037 16.9634C17.4996 16.9634 18.2159 16.1419 18.885 15.3746C18.959 15.2897 19.0325 15.2054 19.1057 15.123C19.139 15.0855 19.174 15.048 19.2109 15.0103C19.6797 14.5311 20.2995 14.2915 21.0703 14.2915C22.6953 14.2915 23.5078 15.1717 23.5078 16.9321C23.5078 17.5155 23.3516 18.0728 23.0391 18.604C22.7266 19.1248 22.0964 19.8071 21.1484 20.6509C20.2109 21.4842 19.5651 22.3332 19.2109 23.1978C19.0368 23.6229 18.9054 24.1199 18.8169 24.6886Z" fill="currentColor"/>
</svg>