<svg width="24" height="24" viewBox="0 0 24 24" xmlns="http://www.w3.org/2000/svg"><g fill="none"><path d="M-6-6h36v35.809H-6z"/><path d="M16.91 3.766H7.09v.814c0 .45-.365.814-.817.814a.816.816 0 01-.818-.814v-.814H2.182V21.67h19.636V3.766h-3.273v.814c0 .45-.366.814-.818.814a.816.816 0 01-.818-.814v-.814zm1.635-1.628h4.091c.452 0 .819.365.819.814v19.532c0 .45-.367.814-.819.814H1.364a.816.816 0 01-.819-.814V2.952c0-.45.367-.814.819-.814h4.09v-.814c0-.449.367-.813.819-.813.452 0 .818.364.818.813v.814h9.818v-.814c0-.449.366-.813.818-.813.452 0 .818.364.818.813v.814zM7.91 13.532a.816.816 0 01-.818-.814c0-.45.366-.814.818-.814h.818c.452 0 .818.365.818.814 0 .45-.366.814-.818.814H7.91zm0 3.255a.816.816 0 01-.818-.814c0-.45.366-.813.818-.813h.818c.452 0 .818.364.818.813 0 .45-.366.814-.818.814H7.91zm0 3.256a.816.816 0 01-.818-.814c0-.45.366-.814.818-.814h.818c.452 0 .818.364.818.814 0 .45-.366.814-.818.814H7.91zm-3.273-6.511a.816.816 0 01-.818-.814c0-.45.366-.814.818-.814h.819c.451 0 .818.365.818.814 0 .45-.367.814-.818.814h-.819zm0 3.255a.816.816 0 01-.818-.814c0-.45.366-.813.818-.813h.819c.451 0 .818.364.818.813 0 .45-.367.814-.818.814h-.819zm0 3.256a.816.816 0 01-.818-.814c0-.45.366-.814.818-.814h.819c.451 0 .818.364.818.814 0 .45-.367.814-.818.814h-.819zm6.546-9.766a.816.816 0 01-.818-.814c0-.45.366-.814.818-.814H12c.452 0 .818.364.818.814 0 .45-.366.814-.818.814h-.818zm0 3.255a.816.816 0 01-.818-.814c0-.45.366-.814.818-.814H12c.452 0 .818.365.818.814 0 .45-.366.814-.818.814h-.818zm0 3.255a.816.816 0 01-.818-.814c0-.45.366-.813.818-.813H12c.452 0 .818.364.818.813 0 .45-.366.814-.818.814h-.818zm3.273-6.51a.816.816 0 01-.819-.814c0-.45.367-.814.819-.814h.818c.452 0 .818.364.818.814 0 .45-.366.814-.818.814h-.818zm3.272 0a.816.816 0 01-.818-.814c0-.45.366-.814.818-.814h.818c.452 0 .819.364.819.814 0 .45-.367.814-.819.814h-.818zm-3.272 3.255a.816.816 0 01-.819-.814c0-.45.367-.814.819-.814h.818c.452 0 .818.365.818.814 0 .45-.366.814-.818.814h-.818zm0 3.255a.816.816 0 01-.819-.814c0-.45.367-.813.819-.813h.818c.452 0 .818.364.818.813 0 .45-.366.814-.818.814h-.818zm3.272-3.255a.816.816 0 01-.818-.814c0-.45.366-.814.818-.814h.818c.452 0 .819.365.819.814 0 .45-.367.814-.819.814h-.818zm0 3.255a.816.816 0 01-.818-.814c0-.45.366-.813.818-.813h.818c.452 0 .819.364.819.813 0 .45-.367.814-.819.814h-.818z" fill="#FFF"/></g></svg>