<svg width="20" height="20" viewBox="0 0 20 20" fill="#161617" xmlns="http://www.w3.org/2000/svg">
<path fill-rule="evenodd" clip-rule="evenodd" d="M16.7779 4.02049C16.9406 3.86328 16.9406 3.60838 16.7779 3.45116C16.6151 3.29395 16.3513 3.29395 16.1886 3.45116L14.126 5.44399C12.9101 4.70752 11.5057 4.16659 10 4.16659C7.55575 4.16659 5.3783 5.59211 3.841 6.96556C3.06682 7.65724 2.4413 8.34794 2.00917 8.86574C1.79287 9.12491 1.62442 9.34149 1.50941 9.49419C1.45188 9.57056 1.40768 9.63101 1.37751 9.67289C1.36242 9.69383 1.35083 9.71013 1.34283 9.72146L1.33353 9.73469L1.33092 9.73843L1.32986 9.73996C1.2234 9.89376 1.22337 10.106 1.32982 10.2598L1.33077 10.2612L1.33306 10.2645L1.34117 10.276C1.34814 10.2859 1.35821 10.3001 1.37132 10.3184C1.39753 10.3548 1.4359 10.4075 1.48586 10.4743C1.58577 10.6078 1.73217 10.7978 1.9206 11.0271C2.29712 11.4853 3.35403 12.5018 4.03395 13.1409L4.201 13.27C4.55573 13.5442 4.89266 13.8047 5.22186 14.047L3.22191 15.9793C3.05919 16.1365 3.05919 16.3914 3.22191 16.5487C3.38463 16.7059 3.64845 16.7059 3.81117 16.5487L5.90375 14.5268C5.9109 14.5316 5.91806 14.5363 5.92521 14.5411L7.62593 12.9033C7.61838 12.8972 7.61086 12.891 7.60336 12.8847L9.12237 11.4171C9.13192 11.423 9.14153 11.4288 9.1512 11.4346L10.4211 10.2117C10.4115 10.2045 10.402 10.1972 10.3927 10.1897L12.9496 7.71932C12.9582 7.7302 12.9668 7.74113 12.9753 7.75212L14.8666 5.93085C14.8539 5.92186 14.8412 5.91289 14.8285 5.90393L16.7779 4.02049ZM10 6.24992C10.8503 6.24992 11.7007 6.57624 12.3761 7.1347L10.0014 9.42914C10.0005 9.41118 10 9.3931 10 9.37492C10 8.9636 10.2384 8.60796 10.5846 8.43864C10.4027 8.37051 10.2057 8.33325 10 8.33325C9.07953 8.33325 8.33333 9.07945 8.33333 9.99993C8.33333 10.3014 8.41338 10.5842 8.55338 10.8282L7.03433 12.2959C6.54262 11.6615 6.25 10.865 6.25 9.99992C6.25 7.92813 8.125 6.24992 10 6.24992Z"/>
<path d="M16.0423 6.86228L13.6613 9.1975C13.7191 9.45404 13.75 9.72223 13.75 9.99992C13.75 12.1633 12.0718 13.7499 10 13.7499C9.69845 13.7499 9.40523 13.7144 9.12432 13.6472L7.3971 15.3412C8.15696 15.654 8.98834 15.8333 10 15.8333C12.4443 15.8333 14.4287 14.5144 15.966 13.1409C16.7402 12.4493 17.5587 11.6519 17.9908 11.1341C18.2071 10.8749 18.3756 10.6583 18.4906 10.5056C18.5481 10.4293 18.5923 10.3688 18.6225 10.327C18.6376 10.306 18.6492 10.2897 18.6572 10.2784L18.6665 10.2652L18.6691 10.2614L18.6699 10.2603L18.6701 10.2599C18.7766 10.1061 18.7766 9.89377 18.6701 9.73996L18.6699 9.73957L18.6691 9.73843L18.6665 9.73469L18.6572 9.72146C18.6492 9.71013 18.6376 9.69383 18.6225 9.67289C18.5923 9.63101 18.5481 9.57056 18.4906 9.49419C18.3756 9.34149 18.2071 9.12491 17.9908 8.86574C17.5587 8.34794 16.9332 7.65724 16.159 6.96556C16.1205 6.93116 16.0816 6.89673 16.0423 6.86228Z" />
</svg>
