<svg width="88" height="88" viewBox="0 0 48 48" fill="none" xmlns="http://www.w3.org/2000/svg">
<path fill-rule="evenodd" clip-rule="evenodd" d="M46 19.0215C46 12.9385 41.0762 8 35 8C28.9238 8 24 12.9385 24 19.0215C24 12.9385 19.0762 8 13 8C6.92381 8 2 12.9385 2 19.0215C2 30.2549 14.5714 40.8525 23.9267 44C33.4976 40.8411 46 30.2954 46 19.0215ZM11.4296 15.5182C11.8944 15.2199 12.0292 14.6012 11.7309 14.1365C11.4325 13.6717 10.8138 13.5369 10.3491 13.8353C8.37228 15.1045 6.91921 17.1282 6.41156 19.4972C6.29585 20.0373 6.63981 20.5688 7.17984 20.6846C7.71986 20.8003 8.25145 20.4563 8.36717 19.9163C8.75953 18.0853 9.88645 16.509 11.4296 15.5182Z" fill="#EB0055"/>
</svg>
