<svg width="20" height="20" viewBox="0 0 20 20" fill="none" xmlns="http://www.w3.org/2000/svg">
<path fill-rule="evenodd" clip-rule="evenodd" d="M4.45825 2.08331C3.14658 2.08331 2.08325 3.14664 2.08325 4.45831V15.5416C2.08325 16.8533 3.14658 17.9166 4.45825 17.9166H15.5416C16.8533 17.9166 17.9166 16.8533 17.9166 15.5416V4.45831C17.9166 3.14664 16.8533 2.08331 15.5416 2.08331H4.45825ZM9.7923 6.46512C9.7923 6.1163 10.0751 5.83336 10.4241 5.83336H13.1502C13.7113 5.83336 14.1666 6.2888 14.1666 6.84972V9.57585C14.1666 9.92468 13.8838 10.2076 13.5348 10.2076C13.1857 10.2076 12.9029 9.92468 12.9029 9.57585V7.99032L6.91189 13.9816C6.66514 14.2283 6.26503 14.2283 6.01828 13.9816L6.21413 13.7858L6.01828 13.9816C5.77158 13.7348 5.77158 13.3349 6.01828 13.0882L12.0094 7.09689H10.4241C10.0751 7.09689 9.7923 6.81395 9.7923 6.46512ZM6.2652 13.3349L12.5031 7.09689H12.5029L6.26513 13.3349C6.15469 13.4453 6.15469 13.6244 6.26513 13.7348C6.27592 13.7456 6.28737 13.7554 6.29935 13.764C6.2874 13.7554 6.27597 13.7457 6.2652 13.7349C6.15477 13.6244 6.15477 13.4454 6.2652 13.3349ZM13.8175 9.57585C13.8175 9.70985 13.7244 9.82208 13.5992 9.85126C13.7243 9.82207 13.8175 9.70984 13.8175 9.57585V7.02978L13.8175 7.02972V9.57585ZM10.4241 6.18233L12.9698 6.18233H10.4241L10.4241 6.18233Z" fill="#161617"/>
</svg>
