<svg xmlns="http://www.w3.org/2000/svg" width="33" height="32" viewBox="0 0 33 32">
    <g fill="none" fill-rule="evenodd">
        <g fill="#151515">
            <g>
                <path d="M23.352 6.834c.997.038 1.785.842 1.815 1.813v11.818c.029.997-.72 1.838-1.718 1.934l-.116.008-7.5-.002v1.474l1.047.001c.276 0 .5.224.5.5 0 .253-.188.462-.432.495l-.068.005h-5.26c-.276 0-.5-.224-.5-.5 0-.253.188-.462.432-.495l.068-.005h3.213v-1.475l-6.185.001c-.997-.038-1.785-.842-1.815-1.813V8.775c-.029-.997.72-1.838 1.718-1.934l.116-.008h14.685zM20.593 23.88c.276 0 .5.224.5.5 0 .253-.188.462-.432.495l-.068.005H19.36c-.276 0-.5-.224-.5-.5 0-.253.188-.462.432-.495l.068-.005h1.233zM8.686 7.833c-.456.017-.82.376-.85.834l-.003.093v11.735c-.013.456.32.842.747.904l.087.008h14.647c.456-.017.82-.376.85-.834l.003-.093V8.745c.013-.456-.32-.842-.747-.904l-.087-.008H8.686zM14.5 12c.087 0 .172.023.247.067l3.673 2.16c.151.095.243.261.243.44 0 .178-.092.344-.243.44l-3.673 2.16c-.075.043-.16.066-.247.066-.277-.003-.5-.23-.5-.506v-4.32c0-.278.223-.503.5-.507z" transform="translate(-340 -302) translate(341 302)"/>
            </g>
        </g>
    </g>
</svg>
