<svg width="88" height="88" viewBox="0 0 88 88" fill="none" xmlns="http://www.w3.org/2000/svg">
<path fill-rule="evenodd" clip-rule="evenodd" d="M73.8219 15.1848C74.5379 15.8766 74.5379 16.9981 73.8219 17.6899L45.2958 45.2513L27.4507 62.4929C27.4298 62.5141 27.4084 62.5347 27.3866 62.5548L16.7685 72.8138C16.0525 73.5055 14.8917 73.5055 14.1758 72.8138C13.4598 72.122 13.4598 71.0005 14.1758 70.3087L23.141 61.6467C17.7321 58.4655 13.1937 54.6119 9.91528 51.4423C8.06324 49.6517 6.6014 48.0679 5.59933 46.9277C5.09806 46.3573 4.71118 45.8972 4.44738 45.5768C4.31546 45.4166 4.21426 45.2912 4.14487 45.2044L4.06476 45.1036L4.04283 45.0757L4.03645 45.0675L4.03313 45.0633L5.49893 43.9993L4.03451 42.9337L4.03574 42.9321L4.03939 42.9274L4.05143 42.9121L4.09428 42.8578C4.13116 42.8114 4.18457 42.7446 4.25413 42.6587C4.39323 42.4871 4.59697 42.2393 4.86211 41.9262C5.39227 41.3002 6.16873 40.4124 7.16574 39.3499C9.15763 37.2273 12.0409 34.3958 15.6094 31.5604C22.6955 25.9301 32.7323 20.0863 43.9989 20.0863C50.348 20.0863 56.311 21.9474 61.5338 24.5523L71.2292 15.1848C71.9452 14.4931 73.106 14.4931 73.8219 15.1848ZM58.8013 27.1924C54.2203 25.0489 49.2065 23.629 43.9989 23.629C33.9989 23.629 24.7857 28.8561 17.9384 34.2966C14.5403 36.9966 11.7861 39.7006 9.88213 41.7295C9.01967 42.6486 8.33398 43.4267 7.84429 43.9999C8.00634 44.1897 8.18991 44.4021 8.39431 44.6347C9.34303 45.7142 10.7377 47.2258 12.5088 48.938C15.8201 52.1393 20.4058 56.002 25.8148 59.0634L31.1211 53.9366C31.0661 53.8838 31.0139 53.827 30.9651 53.7663C28.7996 51.0763 27.4989 47.6854 27.4989 43.9993C27.4989 35.1917 34.883 28.0573 43.9989 28.0573C47.8997 28.0573 51.4799 29.3733 54.3008 31.5407L58.8013 27.1924ZM51.6865 34.0666C49.5383 32.5216 46.8808 31.5999 43.9989 31.5999C36.9081 31.5999 31.1656 37.1483 31.1656 43.9993C31.1656 46.7899 32.1212 49.3567 33.7247 51.421L39.0296 46.2955C37.9668 44.1599 38.4952 41.5251 40.4606 39.9252C41.6263 38.9763 43.077 38.5779 44.4813 38.6991C44.1744 39.2171 43.9989 39.8171 43.9989 40.4567C43.9989 40.7741 44.0421 41.0816 44.1231 41.3743L51.6865 34.0666ZM4.03451 42.9337C4.03406 42.9342 4.03367 42.9347 5.49893 43.9993C4.03313 45.0633 4.03285 45.0629 4.03313 45.0633C3.54289 44.4327 3.54394 43.564 4.03451 42.9337ZM73.8534 32.758C73.0877 32.1179 71.9299 32.1987 71.2674 32.9385C70.6049 33.6783 70.6885 34.7969 71.4542 35.437C74.4434 37.9361 76.8487 40.3551 78.5048 42.1477C79.1863 42.8853 79.7395 43.5153 80.153 43.9993C79.6633 44.5724 78.9778 45.3503 78.1156 46.2691C76.2116 48.2981 73.4574 51.002 70.0593 53.702C63.212 59.1425 53.9988 64.3696 43.9988 64.3696C41.1288 64.3696 38.327 63.9381 35.6048 63.1962C34.6303 62.9306 33.6174 63.4786 33.3426 64.4202C33.0677 65.3617 33.6349 66.3403 34.6094 66.6058C37.6071 67.4228 40.7454 67.9123 43.9988 67.9123C55.2654 67.9123 65.3022 62.0685 72.3882 56.4383C75.9568 53.6028 78.8401 50.7714 80.832 48.6487C81.829 47.5863 82.6054 46.6984 83.1356 46.0725C83.4007 45.7594 83.6045 45.5116 83.7436 45.3399L83.8123 45.2548L83.8531 45.2039L83.9034 45.1408L83.9463 45.0866L83.9583 45.0712L83.9632 45.065C84.4539 44.4345 84.454 43.5644 83.9634 42.9338L83.959 42.9283L83.9484 42.9148L83.911 42.8674C83.8789 42.8269 83.8325 42.7687 83.7721 42.6939C83.6513 42.5443 83.4744 42.3283 83.2441 42.0546C82.7836 41.5073 82.1088 40.7286 81.2402 39.7885C79.5047 37.91 76.9874 35.3781 73.8534 32.758ZM83.9634 42.9338L82.4988 43.9993C83.9641 42.9348 83.9635 42.9341 83.9634 42.9338ZM82.4988 43.9993L83.9632 45.065C83.9636 45.0644 83.964 45.0639 82.4988 43.9993ZM60.4992 43.9993C60.4992 43.0211 59.6784 42.228 58.6658 42.228C57.6533 42.228 56.8325 43.0211 56.8325 43.9993C56.8325 50.8504 51.09 56.3987 43.9992 56.3987C42.6697 56.3987 41.384 56.1976 40.1733 55.8388C39.2053 55.552 38.1799 56.0777 37.8831 57.013C37.5862 57.9483 38.1303 58.939 39.0983 59.2258C40.6376 59.6819 42.2853 59.9413 43.9992 59.9413C53.115 59.9413 60.4992 52.8069 60.4992 43.9993Z" fill="#696A6F"/>
</svg>
