<svg viewBox="0 0 80 80" fill="none" xmlns="http://www.w3.org/2000/svg">
<path fill-rule="evenodd" clip-rule="evenodd" d="M40.5 8.18182C22.9241 8.18182 8.68182 22.4241 8.68182 40C8.68182 57.5759 22.9241 71.8182 40.5 71.8182C58.0759 71.8182 72.3182 57.5759 72.3182 40C72.3182 34.5136 70.9245 29.3491 68.4705 24.8348C68.0508 24.0629 68.3364 23.0969 69.1083 22.6773C69.8803 22.2576 70.8463 22.5432 71.2659 23.3152C73.9664 28.2828 75.5 33.9682 75.5 40C75.5 59.3332 59.8332 75 40.5 75C21.1668 75 5.5 59.3332 5.5 40C5.5 20.6668 21.1668 5 40.5 5C46.4463 5 52.0659 6.48289 56.9713 9.11909C57.7452 9.53503 58.0355 10.4996 57.6195 11.2736C57.2036 12.0475 56.239 12.3377 55.4651 11.9218C51.0159 9.53075 45.9128 8.18182 40.5 8.18182ZM38.4167 54.5833C38.4167 53.4327 39.3494 52.5 40.5 52.5C41.6506 52.5 42.5833 53.4327 42.5833 54.5833C42.5833 55.7339 41.6506 56.6667 40.5 56.6667C39.3494 56.6667 38.4167 55.7339 38.4167 54.5833ZM42.1667 24.9187C42.1667 24.0431 41.4205 23.3333 40.5 23.3333C39.5795 23.3333 38.8333 24.0431 38.8333 24.9187V45.0813C38.8333 45.9569 39.5795 46.6667 40.5 46.6667C41.4205 46.6667 42.1667 45.9569 42.1667 45.0813V24.9187Z" fill="#67686B"/>
</svg>
