<svg width="40" height="40" viewBox="0 0 40 40" fill="none" xmlns="http://www.w3.org/2000/svg">
<path fill-rule="evenodd" clip-rule="evenodd" d="M0 1.46341C0 0.655193 0.671573 0 1.5 0H23.5C24.3284 0 25 0.655193 25 1.46341V13.7733C25 14.5815 24.3284 15.2367 23.5 15.2367C22.6716 15.2367 22 14.5815 22 13.7733V2.92683H7.67315L16.6375 4.17188C17.1318 4.24072 17.5 4.66333 17.5 5.16235V37.0732H22V26.2267C22 25.4185 22.6716 24.7633 23.5 24.7633C24.3284 24.7633 25 25.4185 25 26.2267V38.5366C25 39.3448 24.3284 40 23.5 40H1.5C0.671573 40 0 39.3448 0 38.5366V1.46341ZM34.2249 13.4576C33.5844 12.8474 32.5462 12.8476 31.906 13.4574C31.2659 14.0672 31.2656 15.0562 31.9062 15.6664L34.8153 18.4377L20.4 18.438C20.1791 18.438 20 18.617 20 18.8379L20 19.9998L20 21.1626C20 21.3835 20.1791 21.5624 20.4 21.5624L34.8156 21.5617L31.9058 24.3335C31.2657 24.9433 31.2654 25.9323 31.906 26.5424C32.5465 27.1526 33.5847 27.1524 34.2249 26.5426L39.2278 21.7768C40.2572 20.7962 40.2575 19.2041 39.2277 18.2232L34.2249 13.4576Z"/>
</svg>
