<svg width="78" height="78" viewBox="0 0 78 78" fill="none" xmlns="http://www.w3.org/2000/svg">
<path fill-rule="evenodd" clip-rule="evenodd" d="M39 4C19.6665 4 4 19.6665 4 39C4 58.3335 19.6665 74 39 74C58.3335 74 74 58.3335 74 39C74 32.965 72.4669 27.284 69.7675 22.3183C69.3059 21.4692 69.62 20.4066 70.4692 19.945C71.3183 19.4834 72.3809 19.7975 72.8425 20.6467C75.8131 26.111 77.5 32.365 77.5 39C77.5 60.2665 60.2665 77.5 39 77.5C17.7335 77.5 0.5 60.2665 0.5 39C0.5 17.7335 17.7335 0.5 39 0.5C45.5409 0.5 51.7225 2.13118 57.1184 5.031C57.9698 5.48853 58.289 6.54958 57.8315 7.40092C57.374 8.25227 56.3129 8.57152 55.4616 8.114C50.5675 5.48382 44.9541 4 39 4ZM36.7083 55.0417C36.7083 53.776 37.7344 52.75 39 52.75C40.2657 52.75 41.2917 53.776 41.2917 55.0417C41.2917 56.3073 40.2657 57.3333 39 57.3333C37.7344 57.3333 36.7083 56.3073 36.7083 55.0417ZM40.8333 22.4106C40.8333 21.4475 40.0125 20.6667 39 20.6667C37.9875 20.6667 37.1667 21.4475 37.1667 22.4106V44.5894C37.1667 45.5525 37.9875 46.3333 39 46.3333C40.0125 46.3333 40.8333 45.5525 40.8333 44.5894V22.4106Z" fill="#67686B"/>
</svg>
