<svg viewBox="0 0 40 40" aria-hidden="true"><path class="svg-color" d="M29.375 10.208c1.557 0 2.83 1.22 2.912 2.757l.005.16v2.466a1.797 1.797 0 0 1-1.386 1.681A2.816 2.816 0 0 0 28.79 20c0 1.286.87 2.408 2.097 2.724.749.168 1.303.79 1.393 1.563l.012.146v2.442c0 1.557-1.22 2.83-2.757 2.912l-.16.005h-2.708a.625.625 0 0 1-.085-1.245l.085-.005h2.708c.879 0 1.598-.68 1.662-1.543l.005-.124v-2.417a.55.55 0 0 0-.364-.494l-.084-.025A4.067 4.067 0 0 1 27.54 20a4.071 4.071 0 0 1 3.073-3.943.554.554 0 0 0 .42-.416l.009-.074v-2.442c0-.879-.68-1.598-1.543-1.662l-.124-.005h-18.75c-.879 0-1.598.68-1.662 1.543l-.005.124v2.468a.5.5 0 0 0 .327.442l.087.026A4.067 4.067 0 0 1 12.427 20a4.073 4.073 0 0 1-3.076 3.944.502.502 0 0 0-.383.378l-.01.078v2.493c.01.872.687 1.581 1.544 1.644l.123.005h12.708a.625.625 0 0 1 .085 1.244l-.085.006H10.625a2.917 2.917 0 0 1-2.91-2.733l-.007-.159v-2.518a1.744 1.744 0 0 1 1.353-1.654A2.817 2.817 0 0 0 11.177 20a2.81 2.81 0 0 0-2.094-2.723 1.752 1.752 0 0 1-1.362-1.509l-.013-.143v-2.5c0-1.557 1.22-2.83 2.757-2.912l.16-.005h18.75zm-6.042 4.584c.317 0 .578.235.62.54l.005.085v9.166a.625.625 0 0 1-1.244.085l-.006-.085v-9.166c0-.346.28-.625.625-.625z" fill="#FFF" fill-rule="evenodd"/></svg>