<svg viewBox="0 0 33 32" fill="none" xmlns="http://www.w3.org/2000/svg">
<path d="M29.299 0.000228882C31.064 0.000228882 32.5 1.43619 32.5 3.20123V28.7992C32.5 30.5643 31.064 32.0002 29.299 32.0002H3.701C1.93596 31.9903 0.5 30.5643 0.5 28.7992V3.20123C0.5 1.43619 1.93596 0.000228882 3.701 0.000228882H29.299ZM29.299 1.74532H3.701C2.89327 1.74532 2.24509 2.3935 2.24509 3.20123V28.7992C2.24509 29.597 2.89327 30.2551 3.701 30.2551H29.299C30.0968 30.2551 30.7549 29.607 30.7549 28.7992V3.20123C30.7449 2.3935 30.0968 1.74532 29.299 1.74532ZM16.7842 4.65713C17.4224 4.65713 17.9509 5.14576 17.9509 5.74407V15.1277H26.2775C26.7861 15.1277 27.1949 15.5764 27.2448 16.1648L27.2548 16.2944C27.2548 16.9326 26.816 17.4611 26.2775 17.4611H17.9509V26.8447C17.9509 27.4032 17.5022 27.8619 16.9138 27.9217H16.7842C16.146 27.9217 15.6175 27.4331 15.6175 26.8348V17.4511H7.2909C6.7923 17.4511 6.37348 17.0024 6.32362 16.4141L6.31365 16.2844C6.31365 15.6462 6.75241 15.1177 7.2909 15.1177H15.6175V5.74407C15.6175 5.18564 16.0662 4.72693 16.6546 4.6671L16.7842 4.65713Z" fill="#67686B"/>
</svg>
