<svg xmlns="http://www.w3.org/2000/svg" width="57" height="56" viewBox="0 0 57 56"><path d="M40.542 11.667a3.21 3.21 0 013.208 3.208v25.667a3.21 3.21 0 01-3.208 3.208H14.875a3.209 3.209 0 01-3.208-3.208V14.875a3.209 3.209 0 013.208-3.208zm0 1.75H14.875c-.805 0-1.458.653-1.458 1.458v25.667c0 .804.653 1.458 1.458 1.458h25.667A1.46 1.46 0 0042 40.542V14.875c0-.805-.654-1.458-1.458-1.458zM28 16.333c.644 0 1.167.488 1.167 1.09v9.41h8.353c.505 0 .921.455.974 1.04L38.5 28c0 .644-.439 1.167-.98 1.167h-8.353v9.41c0 .562-.455 1.024-1.04 1.083l-.127.007c-.644 0-1.167-.488-1.167-1.09v-9.41H18.48c-.505 0-.921-.455-.974-1.04L17.5 28c0-.644.439-1.167.98-1.167h8.353v-9.41c0-.562.455-1.024 1.04-1.083z" fill="#626262"/></svg>