<svg width="24" height="24" viewBox="0 0 24 24"><g fill="none" fill-rule="evenodd"><path d="M0 0h24v24H0z"/><g class="svg-color" fill="#000" fill-rule="nonzero"><path d="M9.375 3c1.027 0 1.875.848 1.875 1.875A1.886 1.886 0 019.375 6.75 1.886 1.886 0 017.5 4.875C7.5 3.848 8.348 3 9.375 3zm9.937 13.214a.933.933 0 00-1.318-.22l-.772.527-2.226-3.067a.98.98 0 00-.863-.482h-3.998V11.7h3.225c.546 0 .954-.438.954-.92 0-.526-.454-.92-.954-.92h-3.225V8.02c0-.701-.59-1.271-1.318-1.271-.726 0-1.317.57-1.317 1.27v5.872c0 .525.409.92.954.92h5.179s2.726 3.724 2.862 3.812a1 1 0 001.045-.044l1.545-1.052c.454-.35.545-.92.227-1.314z"/><path d="M9.992 19.526c-2.241 0-4.042-1.877-4.042-4.111 0-1.251.527-2.368 1.406-3.083V10.5A5.636 5.636 0 004.5 15.415C4.5 18.498 6.96 21 10.036 21A5.479 5.479 0 0015 17.828l-1.054-1.52c-.396 1.832-2.021 3.218-3.954 3.218z"/></g></g></svg>
