<svg xmlns="http://www.w3.org/2000/svg" width="48" height="48" fill="none"><path id="icon" fill="currentColor" fill-rule="evenodd" d="M9.681 31.539c-1.631-1.535-4.168-3.974-5.072-5.074a38 38 0 0 1-1.318-1.7l-.072-.102-.02-.028-.005-.008-.002-.003a1.11 1.11 0 0 1 0-1.248l.002-.004.006-.009.023-.031.083-.117q.109-.152.317-.429c.276-.366.68-.886 1.199-1.508a44 44 0 0 1 4.396-4.56C12.908 13.42 18.134 10 24 10s11.092 3.421 14.782 6.718a44 44 0 0 1 5.595 6.068 25 25 0 0 1 .4.546l.023.031.006.01.002.002v.001c.256.37.256.879 0 1.248l-.002.004-.006.009-.023.031-.083.117q-.108.152-.317.429c-.276.366-.68.886-1.199 1.508-1.037 1.243-3.001 3.156-4.86 4.816C34.628 34.835 29.866 38 24 38c-5.96 0-9.312-2.592-13.918-6.152zM33 24c0 5.192-4.028 9-9 9s-9-4.028-9-9 4.5-9 9-9 9 3.808 9 9m-9 4a4 4 0 0 0 3.966-3.475 2.5 2.5 0 1 1-2.563-4.272A4 4 0 1 0 24 28" clip-rule="evenodd"/></svg>