<svg xmlns="http://www.w3.org/2000/svg" width="48" height="48" fill="none"><path id="icon" fill="currentColor" fill-rule="evenodd" d="M24 44c11.046 0 20-8.954 20-20S35.046 4 24 4 4 12.954 4 24s8.954 20 20 20m6.946-30.231a2 2 0 0 1-1.21 2.557l-1.074.384a10 10 0 0 1 2.937 2.348 9.97 9.97 0 0 1 2.401 6.5c0 5.523-4.477 10-10 10s-10-4.477-10-10c0-1.223.22-2.399.626-3.487a2 2 0 0 1 3.748 1.395 6 6 0 1 0 8.232-3.314l.843 1.75a2 2 0 0 1-3.605 1.734l-2.917-6.061a2 2 0 0 1 1.129-2.75l6.334-2.266a2 2 0 0 1 2.556 1.21" clip-rule="evenodd"/></svg>