<svg xmlns="http://www.w3.org/2000/svg" width="48" height="48" fill="none"><path id="icon" fill="currentColor" fill-rule="evenodd" d="M10.7 5A5.7 5.7 0 0 0 5 10.7v26.6a5.7 5.7 0 0 0 5.7 5.7h26.6a5.7 5.7 0 0 0 5.7-5.7V10.7A5.7 5.7 0 0 0 37.3 5zm12.802 10.516c0-.837.678-1.516 1.516-1.516h6.543A2.44 2.44 0 0 1 34 16.44v6.542a1.516 1.516 0 0 1-3.033 0v-3.805L16.59 33.556a1.516 1.516 0 0 1-2.145-2.144l14.379-14.38h-3.805c-.838 0-1.516-.678-1.516-1.516m-8.465 16.488 14.97-14.971zm18.125-9.022v-6.11z" clip-rule="evenodd"/></svg>