<svg width="48" height="48" viewBox="0 0 48 48" fill="none" xmlns="http://www.w3.org/2000/svg">
<g id="icon" fill="none">
<path d="M15.17 5.39C16.43 3.46 18.56 2.2 20.98 2.2C24.85 2.2 27.98 5.43 27.98 9.44V13.96C27.98 17.96 24.85 21.2 20.98 21.2C17.11 21.2 13.98 17.97 13.98 13.96V9.44C13.98 7.94 14.42 6.55 15.17 5.4V5.39Z" fill="currentColor"/>
<path d="M20.98 36.31C20.98 31.27 24.22 26.99 28.74 25.42C26.46 24.1 23.81 23.33 20.98 23.33C13.78 23.33 7.75998 28.23 6.00998 34.85C5.92998 35.15 6.00998 35.47 6.21998 35.7C9.87998 39.68 15.13 42.19 20.98 42.19C21.51 42.19 22.03 42.15 22.55 42.1C21.56 40.4 20.98 38.42 20.98 36.3V36.31Z" fill="currentColor"/>
<path fill-rule="evenodd" clip-rule="evenodd" d="M32.52 26.81C27.27 26.81 23.02 31.06 23.02 36.31C23.02 41.56 27.27 45.81 32.52 45.81C37.77 45.81 42.02 41.56 42.02 36.31C42.02 31.06 37.77 26.81 32.52 26.81ZM37.05 37.28H33.5V40.97C33.43 41.44 33.02 41.81 32.53 41.81C31.99 41.81 31.56 41.37 31.56 40.84V37.29H27.87C27.39 37.22 27.03 36.81 27.03 36.32C27.03 35.78 27.47 35.35 28 35.35H31.55V31.67C31.62 31.19 32.03 30.83 32.52 30.83C33.06 30.83 33.49 31.27 33.49 31.8V35.35H37.18C37.65 35.42 38.02 35.83 38.02 36.32C38.02 36.86 37.58 37.29 37.05 37.29V37.28Z" fill="currentColor"/>
</g>
</svg>
