<svg width="48" height="48" viewBox="0 0 48 48" fill="none" xmlns="http://www.w3.org/2000/svg">
<path id="icon" fill-rule="evenodd" clip-rule="evenodd" d="M24 44C35.0457 44 44 35.0457 44 24C44 12.9543 35.0457 4 24 4C12.9543 4 4 12.9543 4 24C4 35.0457 12.9543 44 24 44ZM21 15C21 16.6569 22.3431 18 24 18C25.6569 18 27 16.6569 27 15C27 13.3431 25.6569 12 24 12C22.3431 12 21 13.3431 21 15ZM21 24C21 25.6569 22.3431 27 24 27C25.6569 27 27 25.6569 27 24C27 22.3431 25.6569 21 24 21C22.3431 21 21 22.3431 21 24ZM24 36C22.3431 36 21 34.6569 21 33C21 31.3431 22.3431 30 24 30C25.6569 30 27 31.3431 27 33C27 34.6569 25.6569 36 24 36Z" fill="currentColor"/>
</svg>
