<svg width="48" height="48" viewBox="0 0 48 48" fill="none" xmlns="http://www.w3.org/2000/svg">
<path id="icon" fill-rule="evenodd" clip-rule="evenodd" d="M4 24C4 12.9543 12.9543 4 24 4C35.0457 4 44 12.9543 44 24C44 35.0457 35.0457 44 24 44C12.9543 44 4 35.0457 4 24ZM23.7011 30.9022C22.4314 30.9022 21.4022 31.9314 21.4022 33.2011C21.4022 34.4707 22.4314 35.5 23.7011 35.5C24.9707 35.5 26 34.4707 26 33.2011C26 31.9314 24.9707 30.9022 23.7011 30.9022ZM21.4 25.7487C21.4 26.8533 22.4297 28 23.7 28C24.9703 28 26 26.8533 26 25.7487L26 13.9146C26 12.81 24.9703 11.5 23.7 11.5C22.4297 11.5 21.4 12.81 21.4 13.9146L21.4 25.7487Z" fill="currentColor"/>
</svg>
