<svg xmlns="http://www.w3.org/2000/svg" width="44" height="42" fill="none"><path id="icon" fill="currentColor" d="m38.119 13.49 2.878.252c2.653.23 3.695 3.55 1.712 5.28l-8.396 7.34h-.002c-.29.258-.41.64-.326.998v.003l2.52 10.923c.594 2.572-2.185 4.659-4.473 3.268l-9.514-5.785-.003-.002a1.01 1.01 0 0 0-1.038 0l-.002.002-9.514 5.785c-2.285 1.39-5.067-.682-4.474-3.267l2.52-10.924v-.003a1.01 1.01 0 0 0-.32-.992l-.004-.003-8.4-7.342c-1.997-1.745-.935-5.052 1.712-5.28l11.07-.959h.005c.358-.03.68-.26.83-.612l4.33-10.326c1.03-2.455 4.5-2.47 5.524.002l.001.002 4.327 10.321c.15.352.473.584.83.613h.007z"/></svg>