<svg xmlns="http://www.w3.org/2000/svg" width="48" height="48"><g id="icon" fill="currentColor"><path d="M11 11.1h26c.55 0 1-.45 1-1V8.38c0-.55-.45-1-1-1H11c-.55 0-1 .45-1 1v1.72c0 .55.45 1 1 1"/><path d="M31 10.998H17V7C17 5.9 17.9 5 19 5h10c1.1 0 2 .9 2 2z"/><path fill-rule="evenodd" d="m35.26 41.12 1.62-26.003c.06-1.15-.85-2.12-2-2.12H13.12c-1.15 0-2.06.97-2 2.12l1.62 26.004c.07 1.06.94 1.879 2 1.879h18.52c1.06 0 1.93-.83 2-1.88m-9.99-23.233a1 1 0 0 0-2 0V38.91a1 1 0 0 0 2 0zm-8.047-.999a1 1 0 0 1 1.046.951l1 21.025a1 1 0 0 1-1.998.095l-1-21.025a1 1 0 0 1 .951-1.046m15.046 1.046a1 1 0 0 0-1.998-.095l-1 21.025a1 1 0 0 0 1.998.095z" clip-rule="evenodd"/></g></svg>