<svg xmlns="http://www.w3.org/2000/svg" width="48" height="48" fill="none" id="icon"><path fill="currentColor" d="m45.688 20.598 1.25-3.995-3.376-2.496V9.925l-4-1.311-1.312-3.995h-4.187l-2.5-3.37-4 1.248L24.063 0l-3.438 2.434-4-1.248-2.5 3.37H9.938L8.625 8.552l-4 1.311v4.182L1.25 16.541l1.25 3.995L0 24.03l2.438 3.433-1.25 3.995 3.375 2.497v4.182l4 1.31 1.312 3.995h4.188l2.5 3.371 4-1.248L24 48l3.438-2.434 4 1.248 2.5-3.37h4.187l1.313-3.995 4-1.311v-4.182l3.374-2.497-1.25-3.995L48 24.031z"/><path fill="#fff" fill-rule="evenodd" d="M15 15v17.67c.225-.11.48-.17.75-.17H18V13h-1a2 2 0 0 0-2 2m.855 19.86H30.93c.245 0 .395-.035.47-.08a.14.14 0 0 0 .06-.06.4.4 0 0 0 .035-.185V33.36h-15.64c-.47 0-.855.335-.855.75s.385.75.855.75M33 14.5v16c0 .935-.64 1.705-1.5 1.93v.07H19.095V13H31.5c.825 0 1.5.675 1.5 1.5m-10 8h4c.275 0 .5-.225.5-.5s-.225-.5-.5-.5h-4c-.275 0-.5.225-.5.5s.225.5.5.5m0-2.5h6c.275 0 .5-.225.5-.5s-.225-.5-.5-.5h-6c-.275 0-.5.225-.5.5s.225.5.5.5" clip-rule="evenodd"/></svg>