<svg xmlns="http://www.w3.org/2000/svg" width="48" height="48" fill="none"><g id="icon"><path fill="currentColor" d="M45.6876 20.59818L46.9374 16.60338L43.5624 14.10663V9.92457L39.5625 8.61378L38.25 4.61898H34.0626L31.5624 1.248375L27.5625 2.49675L24.06249 0L20.625 2.434329L16.62501 1.185957L14.12499 4.55658H9.9375L8.625 8.55138L4.62501 9.86217V14.0442L1.250001 16.54095L2.499999 20.53575L0 24.0312L2.4375 27.46425L1.187499 31.4589L4.56249 33.9558V38.1378L8.56251 39.4485L9.87501 43.4433H14.0625L16.56249 46.8139L20.56251 45.5658L24 48L27.43749 45.5658L31.4376 46.8139L33.9375 43.4433H38.1249L39.4374 39.4485L43.4376 38.1378V33.9558L46.8126 31.4589L45.5625 27.46425L48 24.0312L45.6876 20.59818Z" /><path d="M24 14.625C30.5583 14.625 35.874 18.99555 35.874 24.38673C35.874 29.77785 30.5583 34.1484 24 34.1484C22.34529 34.1484 20.77002 33.8688 19.33887 33.3663C18.52671 34.6218 16.12692 35.3109 14.31444 35.6601C13.71345 35.7759 13.2624 34.8504 13.59375 34.3359C14.16024 33.456 14.70342 32.2128 14.82714 30.5829C13.13985 28.8973 12.126 26.74011 12.12597 24.38673C12.12597 18.99555 17.44161 14.625 24 14.625ZM19.93653 23.37597C19.07403 23.37651 18.375 24.07488 18.375 24.9375C18.375 25.80012 19.07403 26.49849 19.93653 26.49903C20.79948 26.49903 21.50097 25.80045 21.50097 24.9375C21.50097 24.07455 20.79948 23.37597 19.93653 23.37597ZM24.31347 23.37597C23.45052 23.37597 22.74903 24.07455 22.74903 24.9375C22.74903 25.80045 23.45052 26.49903 24.31347 26.49903C25.17597 26.49849 25.875 25.80012 25.875 24.9375C25.875 24.07488 25.17597 23.37651 24.31347 23.37597ZM28.6875 23.37597C27.82455 23.37597 27.12597 24.07455 27.12597 24.9375C27.12597 25.80045 27.82455 26.49903 28.6875 26.49903C29.55045 26.49903 30.24903 25.80045 30.24903 24.9375C30.24903 24.07455 29.55045 23.37597 28.6875 23.37597Z" fill="white" /></g></svg>