<svg xmlns="http://www.w3.org/2000/svg" width="48" height="48" fill="none"><g id="icon" fill="currentColor"><path d="M15.17 5.39c1.26-1.93 3.39-3.19 5.81-3.19 3.87 0 7 3.23 7 7.24v4.52c0 4-3.13 7.24-7 7.24s-7-3.23-7-7.24V9.44c0-1.5.44-2.89 1.19-4.04zM20.98 36.31c0-5.04 3.24-9.32 7.76-10.89a15.45 15.45 0 0 0-7.76-2.09c-7.2 0-13.22 4.9-14.97 11.52-.08.3 0 .62.21.85 3.66 3.98 8.91 6.49 14.76 6.49.53 0 1.05-.04 1.57-.09-.99-1.7-1.57-3.68-1.57-5.8z"/><path fill-rule="evenodd" d="M32.52 26.81c-5.25 0-9.5 4.25-9.5 9.5s4.25 9.5 9.5 9.5 9.5-4.25 9.5-9.5-4.25-9.5-9.5-9.5m4.53 10.47H33.5v3.69c-.07.47-.48.84-.97.84a.97.97 0 0 1-.97-.97v-3.55h-3.69a.98.98 0 0 1-.84-.97c0-.54.44-.97.97-.97h3.55v-3.68a.98.98 0 0 1 .97-.84c.54 0 .97.44.97.97v3.55h3.69c.47.07.84.48.84.97 0 .54-.44.97-.97.97z" clip-rule="evenodd"/></g></svg>