<svg xmlns="http://www.w3.org/2000/svg" width="119" height="40" fill="none"><path id="icon" fill="currentColor" d="M38.666 33.22c-.663 0-.992-.418-.992-1.285v-4.587h2.952v-2.215h-2.952v-3.065h-3.095v3.065h-1.513v2.194h1.513v5.158a3.34 3.34 0 0 0 .951 2.548 3.47 3.47 0 0 0 2.469.889c.501 0 1-.066 1.484-.196a4.9 4.9 0 0 0 1.343-.572l-.646-2.34c-.466.252-.985.39-1.514.405m6.927-24.33q-1.977 0-3.061.901a3 3 0 0 0-1.084 2.457 3.31 3.31 0 0 0 1.013 2.502 3.79 3.79 0 0 0 2.727.963 5.1 5.1 0 0 0 2.002-.371 3.53 3.53 0 0 0 1.418-1.08v1.305h3.052l-.029-7.256a3.75 3.75 0 0 0-1.222-2.94c-.804-.705-1.93-1.06-3.39-1.06a9.3 9.3 0 0 0-2.502.314c-.84.24-1.653.566-2.427.971l.971 2.198c.976-.6 2.091-.937 3.236-.976a2.56 2.56 0 0 1 1.69.488 1.7 1.7 0 0 1 .575 1.376v.209zm2.994 2.878a1.86 1.86 0 0 1-.834 1.201 2.9 2.9 0 0 1-1.668.48c-.45.027-.894-.11-1.251-.384a1.27 1.27 0 0 1-.455-1.026 1.08 1.08 0 0 1 .417-.963 2.4 2.4 0 0 1 1.343-.3h2.448zM37.232 15a4.7 4.7 0 0 0 1.772-1.977 6.6 6.6 0 0 0 .626-2.952 6.75 6.75 0 0 0-.639-3.003 4.8 4.8 0 0 0-1.797-2.018 5 5 0 0 0-2.681-.717 4.3 4.3 0 0 0-1.969.446c-.591.3-1.096.747-1.467 1.297V4.437H27.96V19.6h3.116v-5.634c.381.546.89.99 1.484 1.293a4.4 4.4 0 0 0 2.014.446A4.94 4.94 0 0 0 37.232 15m-5.396-2.794a3.63 3.63 0 0 1 0-4.445 2.5 2.5 0 0 1 1.951-.86 2.46 2.46 0 0 1 1.94.86 3.666 3.666 0 0 1 0 4.433 2.44 2.44 0 0 1-1.94.858 2.5 2.5 0 0 1-1.951-.846M27.96 35.763h3.116V20.396H27.96zM71.99 9.42a16 16 0 0 0-1.902-.696 8.6 8.6 0 0 1-1.518-.559.776.776 0 0 1-.38-1.064c.06-.11.15-.2.26-.262.278-.149.593-.22.908-.204a5.1 5.1 0 0 1 1.56.28q.921.301 1.756.796l1.071-2.173a7.4 7.4 0 0 0-2.022-.926 8 8 0 0 0-2.223-.317 4.97 4.97 0 0 0-3.073.91 3.03 3.03 0 0 0-1.214 2.568 2.75 2.75 0 0 0 .526 1.747c.329.432.758.777 1.25 1.005q.905.392 1.852.663a8 8 0 0 1 1.556.58.83.83 0 0 1 .475.747.71.71 0 0 1-.375.654c-.31.158-.654.232-1.001.217a5.8 5.8 0 0 1-1.93-.363 6.3 6.3 0 0 1-1.848-1.025l-1.014 2.151a6.5 6.5 0 0 0 2.144 1.151 8.2 8.2 0 0 0 2.569.417 5.23 5.23 0 0 0 3.186-.921 3.03 3.03 0 0 0 1.25-2.577 2.74 2.74 0 0 0-.545-1.773A3.55 3.55 0 0 0 71.99 9.42m-12.456 3.754c-.31.156-.655.231-1.001.216a5.8 5.8 0 0 1-1.931-.363 6.4 6.4 0 0 1-1.852-1.025l-1.009 2.151a6.5 6.5 0 0 0 2.144 1.151 8.1 8.1 0 0 0 2.569.417 5.2 5.2 0 0 0 3.181-.921 3.02 3.02 0 0 0 1.251-2.577 2.7 2.7 0 0 0-.546-1.773 3.5 3.5 0 0 0-1.293-1.013 16 16 0 0 0-1.91-.713 8.4 8.4 0 0 1-1.513-.559.77.77 0 0 1-.467-.705.68.68 0 0 1 .346-.621c.279-.15.593-.22.909-.204a5.1 5.1 0 0 1 1.555.28c.614.199 1.205.466 1.76.796l1.072-2.173a7.5 7.5 0 0 0-2.023-.926 8 8 0 0 0-2.222-.317 4.96 4.96 0 0 0-3.074.91 3.03 3.03 0 0 0-1.213 2.568 2.75 2.75 0 0 0 .525 1.747c.328.433.758.779 1.251 1.005q.902.39 1.848.663c.528.14 1.041.334 1.53.58a.83.83 0 0 1 .475.747.71.71 0 0 1-.342.654zm8.936 11.35a5.84 5.84 0 0 0-2.919.714 5 5 0 0 0-1.98 2.01 6.67 6.67 0 0 0 0 5.955 4.87 4.87 0 0 0 1.984 1.985c.924.487 1.958.73 3.003.704a6.6 6.6 0 0 0 2.635-.504 5.55 5.55 0 0 0 2.014-1.464l-1.638-1.697a3.9 3.9 0 0 1-1.272.88c-.468.2-.972.301-1.48.3a2.82 2.82 0 0 1-1.798-.588c-.514-.419-.87-1-1.01-1.647h7.803c0-.18.021-.417.021-.768q0-2.777-1.364-4.328T68.47 24.52zm-2.527 4.763a3.07 3.07 0 0 1 .86-1.772 2.34 2.34 0 0 1 1.688-.651 2.3 2.3 0 0 1 1.718.663c.447.477.693 1.107.688 1.76zm-15.997.834a3.1 3.1 0 0 1-.646 2.03 2.21 2.21 0 0 1-1.76.81 1.93 1.93 0 0 1-1.497-.6 2.38 2.38 0 0 1-.546-1.669v-6.071h-3.111v7.001a4.4 4.4 0 0 0 1.06 3.12 3.7 3.7 0 0 0 2.86 1.146q2.527 0 3.64-2.085v1.964h3.095V24.62h-3.078zm8.758-3.499v-2.01h-3.111v11.143h3.11V30.4a2.78 2.78 0 0 1 .835-2.122 3.17 3.17 0 0 1 2.272-.797 4 4 0 0 1 .484.021v-3.007c-.744 0-1.476.194-2.122.563a4.05 4.05 0 0 0-1.48 1.573zM22.24 30.121a3.08 3.08 0 0 1-.646 2.03 2.2 2.2 0 0 1-1.76.81 1.92 1.92 0 0 1-1.493-.6 2.38 2.38 0 0 1-.546-1.669v-6.071h-3.116v7.001a4.42 4.42 0 0 0 1.064 3.12 3.7 3.7 0 0 0 2.86 1.146q2.527 0 3.637-2.085v1.964h3.094V24.62H22.24zM9.513 32.544c-.6.3-1.26.46-1.931.467a4.06 4.06 0 0 1-2.181-.613 4.3 4.3 0 0 1-1.56-1.668 4.8 4.8 0 0 1-.563-2.31 4.73 4.73 0 0 1 .563-2.298 4.3 4.3 0 0 1 1.56-1.64 4.17 4.17 0 0 1 2.18-.595c.69.006 1.366.179 1.973.504.66.345 1.24.82 1.71 1.397l1.86-2.34a7.78 7.78 0 0 0-9.412-1.446A7.14 7.14 0 0 0 .993 24.67a7.37 7.37 0 0 0-.992 3.79 7.67 7.67 0 0 0 .971 3.833 7.1 7.1 0 0 0 2.67 2.702c1.15.66 2.455 1 3.781.984a7.2 7.2 0 0 0 3.061-.705 8.55 8.55 0 0 0 2.66-1.905l-1.88-2.086a6.1 6.1 0 0 1-1.751 1.26m-.914-21.435h1.668q.25 0 .497-.025l1.413 1.99h.718L11.38 10.95a1.92 1.92 0 0 0 1.418-1.948 1.92 1.92 0 0 0-.676-1.555 2.78 2.78 0 0 0-1.855-.567h-2.32v6.192h.656zm0-3.661h1.648c.502-.029 1 .119 1.405.417a1.42 1.42 0 0 1 .488 1.155 1.4 1.4 0 0 1-.488 1.143c-.405.3-.902.447-1.405.417H8.599zm-7.143 3.67h1.668a2.84 2.84 0 0 0 1.86-.56 2.14 2.14 0 0 0 0-3.11 2.8 2.8 0 0 0-1.86-.567H.805v6.192h.655zm0-3.67h1.647c.503-.029 1 .119 1.406.417a1.42 1.42 0 0 1 .487 1.155 1.4 1.4 0 0 1-.487 1.122 2.17 2.17 0 0 1-1.406.417H1.464zm14.804 5.267c.51.28 1.085.424 1.668.417a3.34 3.34 0 0 0 1.668-.417 3 3 0 0 0 1.164-1.126 3.31 3.31 0 0 0 0-3.232 3 3 0 0 0-1.164-1.126 3.57 3.57 0 0 0-3.336 0c-.485.261-.89.65-1.168 1.126a3.3 3.3 0 0 0 0 3.224c.28.479.687.872 1.176 1.134zm-.605-4.054c.224-.385.548-.702.939-.917.408-.224.868-.34 1.334-.334.463-.005.92.11 1.326.334.39.214.711.531.93.917a2.76 2.76 0 0 1 0 2.632c-.219.386-.54.703-.93.917a2.7 2.7 0 0 1-1.326.334 2.7 2.7 0 0 1-1.334-.334 2.45 2.45 0 0 1-.939-.917 2.73 2.73 0 0 1 0-2.632M86.602 19.65l4.825.304h.025a.367.367 0 0 0 .02-.73l-4.812-.32a.367.367 0 0 0-.045.729zm4.85-1.472a.363.363 0 0 0 .325-.53.37.37 0 0 0-.213-.183l-7.156-2.323a.364.364 0 1 0-.225.692l7.156 2.327a.4.4 0 0 0 .113 0zm13.261-5.071a.37.37 0 0 0-.517 0l-.547.575a.37.37 0 0 0-.068.396.36.36 0 0 0 .335.221.36.36 0 0 0 .267-.116l.542-.576a.36.36 0 0 0 .071-.4.4.4 0 0 0-.083-.117zm7.298 2.427a.37.37 0 0 0-.463-.234l-6.673 2.165a.367.367 0 0 0-.101.644.37.37 0 0 0 .214.069.4.4 0 0 0 .113 0l6.672-2.165a.376.376 0 0 0 .238-.496zm-7.369.417a.36.36 0 0 0 .372.165.4.4 0 0 0 .133-.053l9.266-5.884a.37.37 0 0 0 .161-.227.36.36 0 0 0-.047-.275.36.36 0 0 0-.227-.162.37.37 0 0 0-.275.047l-9.27 5.884a.363.363 0 0 0-.113.48zm8.62-.813a.36.36 0 0 0 .346.25.4.4 0 0 0 .112 0l2.557-.834a.37.37 0 0 0 .212-.181.355.355 0 0 0 .021-.278.364.364 0 0 0-.459-.238l-2.556.834a.36.36 0 0 0-.233.422zm-23.353 9.174a.4.4 0 0 0 .154-.033l1.539-.726a.365.365 0 0 0 .091-.598.36.36 0 0 0-.4-.06l-1.543.72a.37.37 0 0 0-.175.488.38.38 0 0 0 .338.171zm11.86-10.73a.4.4 0 0 0 .175.046.37.37 0 0 0 .321-.192l2.164-3.94a.36.36 0 0 0-.144-.495.36.36 0 0 0-.494.144l-2.168 3.94a.366.366 0 0 0 .15.459zm3.119-5.675a.365.365 0 0 0 .496-.142l2.611-4.754a.36.36 0 0 0-.142-.496.366.366 0 0 0-.496.141l-2.615 4.754a.36.36 0 0 0-.012.258.36.36 0 0 0 .162.201zm-8.757 5.446a.36.36 0 0 0 .354.275h.092a.367.367 0 0 0 .263-.446L93.89 1.71a.362.362 0 0 0-.57-.202.36.36 0 0 0-.134.381zm3.753.263h.092a.36.36 0 0 0 .354-.276l2.757-10.788a.367.367 0 0 0-.709-.183l-2.77 10.78a.367.367 0 0 0 .263.429zm2.919 12.714a.364.364 0 0 0-.083.509l1.947 2.681a.37.37 0 0 0 .513.08.367.367 0 0 0 .079-.509l-1.947-2.681a.36.36 0 0 0-.232-.169.36.36 0 0 0-.281.052zm7.406-18.69a.35.35 0 0 0 .267-.117l1.939-2.085a.363.363 0 0 0-.258-.62.37.37 0 0 0-.259.107l-1.935 2.085a.363.363 0 0 0 0 .513.37.37 0 0 0 .242.08zm-4.866 4.82a.36.36 0 0 0 .395.069.4.4 0 0 0 .122-.085l3.402-3.624a.37.37 0 0 0-.035-.497.37.37 0 0 0-.498-.004l-3.403 3.624a.37.37 0 0 0 .012.48zm-.497 11.093 6.981 3.286a.366.366 0 0 0 .482-.492.36.36 0 0 0-.169-.171l-6.985-3.282a.36.36 0 0 0-.484.175.366.366 0 0 0 .175.484m-13.031-2.294a.367.367 0 0 0-.417-.291l-10.989 2.084a.363.363 0 0 0-.288.418.37.37 0 0 0 .36.3h.066l10.988-2.085a.363.363 0 0 0 .275-.463zm-3.532 3.053-3.966 1.864a.367.367 0 0 0 .313.663l3.965-1.868a.365.365 0 0 0-.312-.66m3.986-10.088a.36.36 0 0 0 .267.113.37.37 0 0 0 .25-.1.363.363 0 0 0 0-.513l-6.672-7.09a.367.367 0 0 0-.534.501zm1.33-2.61a.37.37 0 0 0-.189.36q.008.073.044.136l.713 1.285a.36.36 0 0 0 .32.187q.094 0 .176-.042a.364.364 0 0 0 .142-.496l-.714-1.318a.36.36 0 0 0-.496-.15zm-4.295-7.056a.37.37 0 0 0 .321.192.364.364 0 0 0 .317-.542l-1.046-1.906a.367.367 0 0 0-.639.354zm3.299 6a.36.36 0 0 0 .317.188.367.367 0 0 0 .321-.542L90.68 5.55a.362.362 0 0 0-.67.073.37.37 0 0 0 .031.278zm12.377 8.687a.37.37 0 0 0-.319.374.369.369 0 0 0 .34.356h.008l3.995-.254a.365.365 0 0 0 .34-.386.36.36 0 0 0-.386-.34zm-11.326 7.09a.364.364 0 0 0-.51.079l-3.944 5.42a.365.365 0 0 0 .296.58.36.36 0 0 0 .296-.15l3.945-5.42a.364.364 0 0 0-.087-.551zm11.43 9.995a.36.36 0 0 0-.193-.2.363.363 0 0 0-.479.189.37.37 0 0 0-.008.278l.705 1.78a.37.37 0 0 0 .342.234q.07.001.133-.029a.36.36 0 0 0 .202-.192.4.4 0 0 0 .03-.14.4.4 0 0 0-.027-.14zm-2.686-6.789a.364.364 0 0 0-.465-.179.36.36 0 0 0-.195.183.36.36 0 0 0-.019.267l1.955 4.938a.37.37 0 0 0 .656-.005.37.37 0 0 0 .024-.262zm-.675-1.705-.467-1.201a.36.36 0 0 0-.471-.205.37.37 0 0 0-.201.196.37.37 0 0 0-.004.28l.476 1.205a.365.365 0 0 0 .337.23.4.4 0 0 0 .138-.026.367.367 0 0 0 .192-.475zm-1.793 5.659a.366.366 0 0 0 .317-.417l-.805-6.34a.367.367 0 1 0-.726.093l.805 6.363a.37.37 0 0 0 .363.321zm.129 1.013a.37.37 0 0 0-.31.272.4.4 0 0 0-.007.145l.471 3.72a.359.359 0 0 0 .359.317h.046a.365.365 0 0 0 .317-.417l-.467-3.72a.37.37 0 0 0-.409-.313zM98.224 0a.367.367 0 0 0-.367.363v2.76a.367.367 0 0 0 .734 0V.363a.367.367 0 0 0-.367-.359zm19.6 18.395-7.273.458a.36.36 0 0 0-.322.243.4.4 0 0 0-.02.14.37.37 0 0 0 .367.347l7.273-.455a.367.367 0 0 0-.046-.73zm-1.251 4.733-11.535-2.202a.365.365 0 0 0-.406.142.38.38 0 0 0-.056.292.37.37 0 0 0 .325.283l11.534 2.202h.071a.37.37 0 0 0 .355-.333.37.37 0 0 0-.288-.393zm-.284 4.979-2.523-1.201a.366.366 0 0 0-.308.663l2.556 1.2a.365.365 0 0 0 .511-.25.36.36 0 0 0-.202-.408zm-11.497-3.128a.36.36 0 0 0-.513.05.36.36 0 0 0 .05.513l7.807 6.455a.365.365 0 0 0 .586-.374.37.37 0 0 0-.123-.184zm1.739 5.868a.364.364 0 0 0-.528-.122.35.35 0 0 0-.102.112.35.35 0 0 0-.048.144.356.356 0 0 0 .09.283l2.723 3.753a.37.37 0 0 0 .296.15.35.35 0 0 0 .217-.071.37.37 0 0 0 .079-.509zm-23.74-4.008-2.503 1.18a.367.367 0 0 0 .155.697.4.4 0 0 0 .154-.034l2.502-1.18a.367.367 0 0 0 .175-.488.363.363 0 0 0-.454-.17zM98.194 5.317a.37.37 0 0 0-.367.367v7.535a.367.367 0 1 0 .734 0V5.69a.37.37 0 0 0-.338-.368zm-6.53 10.1-1.59-1.01a.365.365 0 0 0-.387.618l1.584 1.01a.368.368 0 0 0 .392-.618m.446 9.591a.364.364 0 0 0-.513-.046l-7.565 6.256a.363.363 0 0 0-.046.513.36.36 0 0 0 .513.05l7.565-6.256a.367.367 0 0 0 .075-.496zm-9.646-14.595 5.868 3.724a.36.36 0 0 0 .191.058.367.367 0 0 0 .196-.675l-5.813-3.691a.367.367 0 0 0-.504.113.36.36 0 0 0 .087.504zm-3.052 3.832 3.077 1.001a.4.4 0 0 0 .113 0 .363.363 0 0 0 .325-.53.37.37 0 0 0-.213-.183l-3.077-.997a.364.364 0 1 0-.225.693zm5.58 5.284a.367.367 0 0 0 0-.713l-6.394-.417a.366.366 0 0 0-.045.73l6.392.416zm12.426 6.88a.37.37 0 0 0-.417.317l-1.626 12.857a.367.367 0 0 0 .317.417h.05a.36.36 0 0 0 .359-.317l1.626-12.856a.37.37 0 0 0-.313-.418zm-1.739.021a.357.357 0 0 0-.47.205l-1.565 3.945a.367.367 0 0 0 .487.466.36.36 0 0 0 .193-.2l1.56-3.94a.367.367 0 0 0-.209-.476zm-2.277 5.73a.36.36 0 0 0-.47.205l-2.274 5.738a.357.357 0 0 0 .205.47q.063.03.133.03a.37.37 0 0 0 .342-.233l2.273-5.739a.367.367 0 0 0-.209-.47m-5.266 1.084-1.748 2.407a.367.367 0 0 0 .084.508c.06.048.135.073.212.071a.36.36 0 0 0 .296-.15l1.748-2.406a.363.363 0 0 0-.08-.509.37.37 0 0 0-.512.092z"/></svg>