<svg xmlns="http://www.w3.org/2000/svg" width="282" height="120" fill="none"><g id="icon" fill="currentColor"><path d="M92.023 79.06c-1.578 0-2.362-.992-2.362-3.057V65.086h7.027v-5.27H89.66v-7.295h-7.364v7.295h-3.603v5.22h3.603v12.277a7.94 7.94 0 0 0 2.263 6.064 8.26 8.26 0 0 0 5.875 2.114 13.5 13.5 0 0 0 3.533-.466 11.7 11.7 0 0 0 3.196-1.36l-1.538-5.568a8.1 8.1 0 0 1-3.603.963m16.485-57.9q-4.704 0-7.285 2.143a7.13 7.13 0 0 0-2.58 5.846 7.88 7.88 0 0 0 2.412 5.955 9 9 0 0 0 6.49 2.292c1.632.03 3.252-.27 4.764-.883a8.4 8.4 0 0 0 3.375-2.57v3.106h7.265l-.07-17.27a8.94 8.94 0 0 0-2.908-6.996c-1.915-1.677-4.595-2.52-8.069-2.52a22.2 22.2 0 0 0-5.954.744 30.7 30.7 0 0 0-5.777 2.312l2.313 5.23a15.7 15.7 0 0 1 7.701-2.322 6.1 6.1 0 0 1 4.02 1.161 4.058 4.058 0 0 1 1.369 3.275v.496zm7.126 6.848a4.43 4.43 0 0 1-1.985 2.858 6.95 6.95 0 0 1-3.97 1.141 4.45 4.45 0 0 1-2.977-.913 3.03 3.03 0 0 1-1.082-2.441 2.57 2.57 0 0 1 .992-2.293 5.7 5.7 0 0 1 3.196-.715h5.826zm-27.025 7.691a11.23 11.23 0 0 0 4.218-4.704 15.8 15.8 0 0 0 1.489-7.027c.049-2.467-.47-4.912-1.519-7.146a11.4 11.4 0 0 0-4.277-4.803 11.9 11.9 0 0 0-6.382-1.707 10.2 10.2 0 0 0-4.684 1.062 9.3 9.3 0 0 0-3.494 3.086v-3.9h-7.413v36.086h7.413V33.238a9.7 9.7 0 0 0 3.533 3.076 10.5 10.5 0 0 0 4.794 1.062A11.75 11.75 0 0 0 88.61 35.7m-12.843-6.65a8.645 8.645 0 0 1 0-10.58 5.96 5.96 0 0 1 4.645-2.044 5.85 5.85 0 0 1 4.615 2.045 8.724 8.724 0 0 1 0 10.55 5.8 5.8 0 0 1-4.615 2.044 5.95 5.95 0 0 1-4.645-2.014m-9.22 56.065h7.414V48.542h-7.413zM171.332 22.42a38.5 38.5 0 0 0-4.525-1.658 20.4 20.4 0 0 1-3.613-1.33 1.84 1.84 0 0 1-1.111-1.677 1.63 1.63 0 0 1 .823-1.479 4.2 4.2 0 0 1 2.164-.486c1.264.028 2.516.252 3.712.665a21 21 0 0 1 4.178 1.896l2.551-5.171a17.6 17.6 0 0 0-4.814-2.203 19 19 0 0 0-5.29-.755 11.83 11.83 0 0 0-7.314 2.164 7.21 7.21 0 0 0-2.888 6.114 6.55 6.55 0 0 0 1.25 4.158 7.94 7.94 0 0 0 2.978 2.392 36 36 0 0 0 4.406 1.578c1.279.33 2.52.792 3.702 1.38a1.99 1.99 0 0 1 1.132 1.776 1.69 1.69 0 0 1-.894 1.558 4.8 4.8 0 0 1-2.382.516 13.8 13.8 0 0 1-4.595-.863 15 15 0 0 1-4.396-2.442l-2.412 5.122a15.5 15.5 0 0 0 5.101 2.739c1.972.656 4.036.99 6.114.992 2.698.112 5.36-.658 7.582-2.193a7.218 7.218 0 0 0 2.978-6.134 6.5 6.5 0 0 0-1.3-4.218 8.45 8.45 0 0 0-3.137-2.441m-29.645 8.932a4.8 4.8 0 0 1-2.382.516 13.7 13.7 0 0 1-4.595-.863 15.2 15.2 0 0 1-4.406-2.442l-2.402 5.121a15.4 15.4 0 0 0 5.101 2.74 19.4 19.4 0 0 0 6.114.992 12.4 12.4 0 0 0 7.572-2.193 7.2 7.2 0 0 0 2.978-6.134 6.46 6.46 0 0 0-1.3-4.218 8.3 8.3 0 0 0-3.077-2.411 37 37 0 0 0-4.546-1.698 20 20 0 0 1-3.602-1.33 1.83 1.83 0 0 1-1.112-1.677 1.63 1.63 0 0 1 .824-1.479 4.14 4.14 0 0 1 2.164-.486c1.261.028 2.51.253 3.701.665a20.8 20.8 0 0 1 4.189 1.896l2.55-5.171a17.7 17.7 0 0 0-4.813-2.203 19.1 19.1 0 0 0-5.29-.755 11.8 11.8 0 0 0-7.314 2.164 7.2 7.2 0 0 0-2.889 6.114 6.55 6.55 0 0 0 1.251 4.158 7.84 7.84 0 0 0 2.977 2.392 37 37 0 0 0 4.397 1.578c1.259.332 2.479.795 3.642 1.38a1.98 1.98 0 0 1 1.132 1.776 1.69 1.69 0 0 1-.814 1.558zm21.269 27.015a13.9 13.9 0 0 0-6.947 1.697 11.9 11.9 0 0 0-4.715 4.784 15.89 15.89 0 0 0 0 14.172 11.6 11.6 0 0 0 4.725 4.725 14.56 14.56 0 0 0 7.145 1.677 15.8 15.8 0 0 0 6.273-1.201 13.2 13.2 0 0 0 4.793-3.484l-3.9-4.039a9.3 9.3 0 0 1-3.027 2.094 8.9 8.9 0 0 1-3.523.715 6.72 6.72 0 0 1-4.278-1.4 6.95 6.95 0 0 1-2.402-3.92h18.569c0-.427.05-.992.05-1.826q0-6.61-3.245-10.302t-9.518-3.702zm-6.014 11.334a7.3 7.3 0 0 1 2.044-4.218 5.57 5.57 0 0 1 4.02-1.548 5.45 5.45 0 0 1 4.089 1.578 6.07 6.07 0 0 1 1.637 4.188zm-38.072 1.985a7.38 7.38 0 0 1-1.538 4.833 5.26 5.26 0 0 1-4.188 1.926 4.58 4.58 0 0 1-3.563-1.43 5.67 5.67 0 0 1-1.3-3.97v-14.45h-7.404V75.26a10.5 10.5 0 0 0 2.521 7.424 8.84 8.84 0 0 0 6.808 2.729q6.015 0 8.664-4.963v4.675h7.365V58.595h-7.325zm20.842-8.327v-4.784h-7.404v26.52h7.404V72.35a6.62 6.62 0 0 1 1.985-5.052 7.53 7.53 0 0 1 5.409-1.895q.578-.007 1.151.05v-7.156c-1.771-.001-3.513.46-5.051 1.34a9.63 9.63 0 0 0-3.523 3.741zM52.93 71.686a7.33 7.33 0 0 1-1.538 4.833 5.25 5.25 0 0 1-4.189 1.926 4.57 4.57 0 0 1-3.553-1.43 5.67 5.67 0 0 1-1.3-3.97v-14.45h-7.414V75.26a10.5 10.5 0 0 0 2.531 7.424 8.82 8.82 0 0 0 6.809 2.729q6.014 0 8.654-4.963v4.675h7.364V58.595H52.93zm-30.29 5.766a10.55 10.55 0 0 1-4.596 1.112 9.67 9.67 0 0 1-5.19-1.46 10.27 10.27 0 0 1-3.712-3.969 11.4 11.4 0 0 1-1.34-5.498 11.27 11.27 0 0 1 1.34-5.469 10.23 10.23 0 0 1 3.712-3.9 9.93 9.93 0 0 1 5.19-1.42c1.64.015 3.25.427 4.695 1.202a13.05 13.05 0 0 1 4.07 3.324l4.426-5.568a18.51 18.51 0 0 0-22.4-3.443 17 17 0 0 0-6.471 6.352A17.55 17.55 0 0 0 0 67.736c-.04 3.19.758 6.335 2.313 9.12a16.87 16.87 0 0 0 6.352 6.432 17.65 17.65 0 0 0 9.001 2.342 17.2 17.2 0 0 0 7.285-1.677 20.3 20.3 0 0 0 6.332-4.536l-4.476-4.962a14.5 14.5 0 0 1-4.168 2.997M20.466 26.44h3.97q.593 0 1.181-.06l3.365 4.735h1.707l-3.603-5.052a4.565 4.565 0 0 0 3.374-4.635 4.57 4.57 0 0 0-1.608-3.701 6.62 6.62 0 0 0-4.416-1.35h-5.518v14.738h1.558zm0-8.713h3.92a5.15 5.15 0 0 1 3.345.992 3.38 3.38 0 0 1 1.161 2.75 3.33 3.33 0 0 1-1.161 2.718 5.1 5.1 0 0 1-3.345.993h-3.92zm-17 8.733h3.969a6.75 6.75 0 0 0 4.427-1.33 5.09 5.09 0 0 0 0-7.404 6.65 6.65 0 0 0-4.427-1.35H1.917v14.739h1.558zm0-8.733h3.92a5.15 5.15 0 0 1 3.344.992 3.38 3.38 0 0 1 1.161 2.75 3.32 3.32 0 0 1-1.161 2.669 5.15 5.15 0 0 1-3.345.992h-3.9zM38.697 30.26a8.06 8.06 0 0 0 3.97.993 7.94 7.94 0 0 0 3.97-.993 7.2 7.2 0 0 0 2.769-2.68 7.88 7.88 0 0 0 0-7.69 7.2 7.2 0 0 0-2.77-2.68 8.5 8.5 0 0 0-7.94 0 7.15 7.15 0 0 0-2.778 2.68 7.84 7.84 0 0 0 0 7.67 7.15 7.15 0 0 0 2.799 2.7zm-1.44-9.646a5.8 5.8 0 0 1 2.234-2.184 6.44 6.44 0 0 1 3.176-.794 6.4 6.4 0 0 1 3.156.794 5.7 5.7 0 0 1 2.213 2.184 6.57 6.57 0 0 1 0 6.262 5.7 5.7 0 0 1-2.213 2.183 6.4 6.4 0 0 1-3.156.794 6.44 6.44 0 0 1-3.176-.794 5.8 5.8 0 0 1-2.233-2.183 6.5 6.5 0 0 1 0-6.262m168.849 26.151 11.483.725h.06a.876.876 0 0 0 .808-.846.875.875 0 0 0-.758-.891l-11.454-.764a.87.87 0 0 0-.851.818.875.875 0 0 0 .742.918zm11.543-3.503a.86.86 0 0 0 .824-.596.875.875 0 0 0-.556-1.101l-17.031-5.529a.868.868 0 0 0-1.04 1.217.88.88 0 0 0 .504.431l17.031 5.538a.8.8 0 0 0 .268 0zm31.56-12.069a.87.87 0 0 0-1.23 0l-1.3 1.37a.873.873 0 0 0 .982 1.397.9.9 0 0 0 .288-.206l1.29-1.37a.864.864 0 0 0-.03-1.23zm17.369 5.776a.877.877 0 0 0-1.102-.555l-15.88 5.15a.873.873 0 0 0-.24 1.534.86.86 0 0 0 .508.164q.135.021.268 0l15.88-5.151a.9.9 0 0 0 .628-.822.9.9 0 0 0-.062-.36zm-17.537.993a.86.86 0 0 0 .884.393.9.9 0 0 0 .317-.125l22.052-14.004a.86.86 0 0 0 .384-.541.86.86 0 0 0-.111-.655.86.86 0 0 0-.541-.384.87.87 0 0 0-.655.111L249.31 36.761a.866.866 0 0 0-.268 1.141zm20.514-1.935a.87.87 0 0 0 .824.595.8.8 0 0 0 .268 0l6.084-1.985a.87.87 0 0 0 .596-.756.872.872 0 0 0-1.132-.902l-6.084 1.986a.86.86 0 0 0-.556 1.002zM213.978 57.86a1 1 0 0 0 .367-.08l3.662-1.726a.86.86 0 0 0 .447-.49.863.863 0 0 0-.519-1.108.87.87 0 0 0-.662.03l-3.672 1.716a.874.874 0 0 0-.417 1.162.89.89 0 0 0 .804.407zm28.226-25.536c.128.07.271.107.416.109a.87.87 0 0 0 .765-.457l5.151-9.378a.87.87 0 0 0-.343-1.177.866.866 0 0 0-1.176.343l-5.161 9.379a.874.874 0 0 0 .358 1.091zm7.423-13.508a.8.8 0 0 0 .417.11.87.87 0 0 0 .764-.447l6.213-11.314a.86.86 0 0 0 .078-.661.86.86 0 0 0-.415-.52.874.874 0 0 0-1.181.337l-6.223 11.314a.86.86 0 0 0 .357 1.092zM228.785 31.78a.866.866 0 0 0 .844.655h.218a.87.87 0 0 0 .626-1.062l-7.017-27.303a.867.867 0 0 0-1.695.09.9.9 0 0 0 .018.337zm8.933.625h.218a.86.86 0 0 0 .844-.655l6.56-25.675a.877.877 0 0 0-.64-1.007.87.87 0 0 0-1.047.57l-6.59 25.656a.873.873 0 0 0 .625 1.022zm6.947 30.26a.87.87 0 0 0-.199 1.211l4.635 6.382a.89.89 0 0 0 .705.357.84.84 0 0 0 .516-.169.87.87 0 0 0 .189-1.21l-4.635-6.382a.87.87 0 0 0-.551-.4.87.87 0 0 0-.67.122zm17.626-44.482a.83.83 0 0 0 .635-.278l4.615-4.962a.863.863 0 0 0-.615-1.475.87.87 0 0 0-.615.254l-4.605 4.962a.863.863 0 0 0 0 1.221c.163.13.367.197.575.189zm-11.582 11.473a.855.855 0 0 0 .941.163.9.9 0 0 0 .29-.203l8.098-8.624a.873.873 0 0 0-1.27-1.191l-8.099 8.624a.875.875 0 0 0 .03 1.142zm-1.181 26.4 16.614 7.82a.872.872 0 0 0 .744-1.578l-16.624-7.81a.865.865 0 1 0-.734 1.568m-31.015-5.459a.87.87 0 0 0-.992-.695l-26.152 4.963a.863.863 0 0 0-.684.992.88.88 0 0 0 .853.715h.159l26.151-4.963a.87.87 0 0 0 .688-.744.9.9 0 0 0-.033-.357zm-8.406 7.265-9.438 4.436a.874.874 0 0 0 .377 1.658.8.8 0 0 0 .367-.08l9.439-4.446a.87.87 0 0 0 .411-1.156.86.86 0 0 0-.827-.495.9.9 0 0 0-.329.083m9.488-24.008a.87.87 0 0 0 .635.268.87.87 0 0 0 .596-.238.863.863 0 0 0 0-1.22l-15.88-16.873a.87.87 0 0 0-1.185.009.876.876 0 0 0-.085 1.182zm3.166-6.213a.86.86 0 0 0-.421.518.865.865 0 0 0 .074.663l1.697 3.057a.86.86 0 0 0 .764.447.9.9 0 0 0 .417-.1q.151-.083.26-.218a.86.86 0 0 0 .077-.963l-1.697-3.136a.87.87 0 0 0-.855-.459.9.9 0 0 0-.326.102zm-10.222-16.792a.87.87 0 0 0 .764.456.873.873 0 0 0 .832-.63.86.86 0 0 0-.078-.66l-2.491-4.536a.874.874 0 0 0-1.518.844zm7.85 14.281a.86.86 0 0 0 .754.447.83.83 0 0 0 .427-.11.875.875 0 0 0 .338-1.18l-6.094-11.076a.86.86 0 0 0-1.181-.348.875.875 0 0 0-.338 1.181zm29.457 20.673a.872.872 0 0 0 .049 1.737h.02l9.508-.605a.863.863 0 0 0 .809-.918.87.87 0 0 0-.918-.809zM222.89 62.674a.87.87 0 0 0-.645-.157.86.86 0 0 0-.566.346l-9.388 12.902a.88.88 0 0 0-.154.647.86.86 0 0 0 .352.564.8.8 0 0 0 .506.169.85.85 0 0 0 .705-.358l9.389-12.902a.865.865 0 0 0-.209-1.31zm27.204 23.79a.87.87 0 0 0-.79-.547.87.87 0 0 0-.81.52.87.87 0 0 0-.018.662l1.677 4.238a.875.875 0 0 0 .814.556.7.7 0 0 0 .318-.07.86.86 0 0 0 .479-.458.84.84 0 0 0 .007-.663zm-6.392-16.157a.875.875 0 0 0-1.618.645l4.655 11.75a.873.873 0 0 0 1.618-.635zm-1.608-4.06-1.111-2.858a.86.86 0 0 0-.789-.55.872.872 0 0 0-.819 1.195l1.131 2.868a.884.884 0 0 0 1.132.487.87.87 0 0 0 .456-1.132zm-4.267 13.468a.87.87 0 0 0 .585-.338.88.88 0 0 0 .169-.654l-1.915-15.086a.876.876 0 0 0-1.322-.712.88.88 0 0 0-.406.572.9.9 0 0 0 .001.358l1.915 15.146a.876.876 0 0 0 .864.764zm.307 2.412a.87.87 0 0 0-.735.648.9.9 0 0 0-.019.344l1.122 8.853a.853.853 0 0 0 .853.754h.109a.87.87 0 0 0 .755-.992l-1.112-8.853a.873.873 0 0 0-.973-.744zM233.768 0a.87.87 0 0 0-.874.863v6.57a.873.873 0 1 0 1.747 0V.864a.874.874 0 0 0-.873-.853zm46.646 43.778-17.309 1.092a.863.863 0 0 0-.539 1.496.88.88 0 0 0 .599.24l17.308-1.081a.873.873 0 0 0-.109-1.737zm-2.978 11.264-27.451-5.24a.874.874 0 1 0-.328 1.707l27.452 5.24h.168a.87.87 0 0 0 .845-.793.873.873 0 0 0-.686-.934zm-.675 11.85-6.004-2.858a.873.873 0 0 0-.735 1.578l6.084 2.858a.8.8 0 0 0 .368.08.86.86 0 0 0 .779-1.247.87.87 0 0 0-.412-.4zm-27.362-7.443a.867.867 0 0 0-1.385.417.86.86 0 0 0 .283.923l18.579 15.363a.865.865 0 1 0 1.102-1.33zm4.139 13.964a.87.87 0 0 0-.564-.426.863.863 0 0 0-.836 1.418l6.481 8.933a.89.89 0 0 0 .705.357.84.84 0 0 0 .516-.169.87.87 0 0 0 .188-1.21zm-56.502-9.538-5.954 2.809a.87.87 0 0 0-.417 1.161.85.85 0 0 0 .784.496 1 1 0 0 0 .367-.079l5.955-2.809a.87.87 0 0 0 .417-1.16.866.866 0 0 0-1.082-.408zm36.662-51.221a.885.885 0 0 0-.873.873v17.934a.873.873 0 1 0 1.746 0V13.537a.88.88 0 0 0-.803-.873zm-15.542 24.038-3.781-2.402a.868.868 0 0 0-.923 1.469l3.771 2.401a.875.875 0 0 0 .933-1.468m1.062 22.826a.863.863 0 0 0-1.221-.109l-18.003 14.887a.86.86 0 0 0-.272.924.9.9 0 0 0 .163.297.87.87 0 0 0 .922.28.9.9 0 0 0 .298-.16l18.004-14.888a.874.874 0 0 0 .178-1.181zm-22.956-34.736 13.964 8.863a.85.85 0 0 0 .457.139.875.875 0 0 0 .812-1.18.88.88 0 0 0-.346-.428l-13.835-8.784a.87.87 0 0 0-1.201.268.865.865 0 0 0 .209 1.201zm-7.265 9.12 7.325 2.383a.8.8 0 0 0 .268 0 .858.858 0 0 0 .823-.596.873.873 0 0 0-.555-1.102l-7.325-2.372a.863.863 0 0 0-1.091.556.879.879 0 0 0 .26.927q.132.112.295.165zm13.28 12.575a.874.874 0 0 0 0-1.697l-15.215-.992a.874.874 0 0 0-.109 1.737l15.214.992zm29.575 16.376a.87.87 0 0 0-.992.754l-3.871 30.598a.87.87 0 0 0 .169.655.87.87 0 0 0 .585.338h.119a.85.85 0 0 0 .854-.755l3.871-30.597a.87.87 0 0 0-.745-.992zm-4.138.05a.86.86 0 0 0-.664.006.85.85 0 0 0-.458.48l-3.722 9.389a.874.874 0 0 0 1.158 1.111.85.85 0 0 0 .46-.476l3.712-9.379a.875.875 0 0 0-.496-1.131zm-5.419 13.636a.86.86 0 0 0-.941.2.9.9 0 0 0-.181.286l-5.409 13.657a.86.86 0 0 0 .007.663.85.85 0 0 0 .48.458.7.7 0 0 0 .317.07.87.87 0 0 0 .814-.556l5.409-13.656a.874.874 0 0 0-.496-1.122m-12.535 2.58-4.159 5.727a.877.877 0 0 0 .199 1.211.8.8 0 0 0 .506.169.85.85 0 0 0 .705-.358l4.158-5.726a.85.85 0 0 0 .158-.645.86.86 0 0 0-.347-.566.87.87 0 0 0-.655-.145.87.87 0 0 0-.565.363z"/><path fill-rule="evenodd" d="M273.018 103.12c.165.382.253.793.26 1.208l.188 10.57a3.16 3.16 0 0 1-3.116 3.216l-107.961 1.885a3.15 3.15 0 0 1-2.252-.885 3.16 3.16 0 0 1-.963-2.221l-.189-10.57a3.17 3.17 0 0 1 1.906-2.965 3.2 3.2 0 0 1 1.211-.26l107.96-1.886a3.16 3.16 0 0 1 2.956 1.908m-222.788 5c.463.244.845.616 1.102 1.071a3.1 3.1 0 0 1 .457 1.569l-4.963.992c.14.411.416.762.784.992.406.238.87.358 1.34.348a2.305 2.305 0 0 0 1.796-.745l.616.725a2.6 2.6 0 0 1-1.042.744c-.444.181-.92.269-1.4.258a3.67 3.67 0 0 1-1.746-.397 2.97 2.97 0 0 1-1.181-1.131 3.26 3.26 0 0 1-.417-1.648 3.3 3.3 0 0 1 .407-1.627 2.9 2.9 0 0 1 1.111-1.132 3.2 3.2 0 0 1 1.598-.406 3.07 3.07 0 0 1 1.538.387m-3.304 1.588a2.44 2.44 0 0 0-.259 1.131v.119l4.01-.744a1.984 1.984 0 0 0-1.985-1.529 2.04 2.04 0 0 0-1.042.268 2 2 0 0 0-.724.755m-4.675-1.003a2.3 2.3 0 0 0-1.102.268v.02c-.315.17-.576.424-.754.734-.19.35-.286.744-.278 1.142-.01.404.087.804.278 1.161.174.321.435.586.754.764.339.181.718.274 1.102.268.344.01.685-.065.992-.218.295-.16.544-.393.725-.675l.853.546c-.23.418-.574.762-.992.992a3.25 3.25 0 0 1-1.509.338 3.4 3.4 0 0 1-1.697-.407 3.03 3.03 0 0 1-1.16-1.132 3.33 3.33 0 0 1 0-3.265c.27-.48.673-.872 1.16-1.131a3.5 3.5 0 0 1 1.697-.407 3.24 3.24 0 0 1 1.509.347c.423.224.769.57.992.993l-.853.545a2 2 0 0 0-.725-.665 2.1 2.1 0 0 0-.992-.218m17.527-.992a3.26 3.26 0 0 1 1.618.407v.019c.464.246.849.618 1.111 1.072.282.503.422 1.072.407 1.648a3.23 3.23 0 0 1-.407 1.657c-.253.475-.64.865-1.111 1.122a3.26 3.26 0 0 1-1.618.397 2.8 2.8 0 0 1-1.23-.258 2.55 2.55 0 0 1-.944-.745v3.206h-1.121v-8.466h1.032v.993c.256-.345.598-.615.993-.784a3 3 0 0 1 1.27-.268m.973 5.081c.318-.183.579-.451.754-.774v.02c.191-.357.287-.757.278-1.161a2.4 2.4 0 0 0-.278-1.142 2 2 0 0 0-.754-.764 2.27 2.27 0 0 0-2.134 0 2 2 0 0 0-.745.774 2.2 2.2 0 0 0-.278 1.132c-.009.397.083.79.268 1.141.169.328.431.598.755.774a2.18 2.18 0 0 0 2.134 0m-46.16-4.674c.458.25.839.62 1.102 1.071.271.478.411 1.019.406 1.569l-4.962.992c.143.412.424.762.794.992.405.241.87.361 1.34.348a2.33 2.33 0 0 0 1.796-.745l.606.725a2.54 2.54 0 0 1-.993.744c-.444.181-.92.269-1.4.258a3.65 3.65 0 0 1-1.746-.397 2.9 2.9 0 0 1-1.181-1.131 3.26 3.26 0 0 1-.417-1.648 3.3 3.3 0 0 1 .407-1.627 2.84 2.84 0 0 1 1.112-1.132 3.2 3.2 0 0 1 1.598-.406 3.1 3.1 0 0 1 1.538.387m-3.563 2.719v.119l3.97-.744a1.88 1.88 0 0 0-.675-1.102 2 2 0 0 0-1.27-.427 2.1 2.1 0 0 0-1.053.268 1.87 1.87 0 0 0-.714.755c-.176.35-.264.739-.258 1.131m-9.111-5.032h1.171v7.205h4.446v.993H1.917zm17.904 4.685q.615.1 1.211.277l.01-.009c.316.073.605.235.834.466.236.275.353.631.327.992a1.55 1.55 0 0 1-.724 1.34 3.36 3.36 0 0 1-1.985.497 5.5 5.5 0 0 1-1.46-.199 3.2 3.2 0 0 1-1.1-.526l.465-.893c.302.213.638.374.993.476.384.11.782.166 1.181.169.992 0 1.479-.278 1.479-.844a.54.54 0 0 0-.199-.446 1.2 1.2 0 0 0-.496-.238c-.198-.05-.486-.11-.854-.169a9 9 0 0 1-1.22-.268 1.9 1.9 0 0 1-.814-.516 1.43 1.43 0 0 1-.337-.993 1.58 1.58 0 0 1 .704-1.349 3.15 3.15 0 0 1 1.886-.517c.418.005.834.058 1.24.159.35.082.686.219.993.407l-.486.893a3.23 3.23 0 0 0-1.797-.496 2 2 0 0 0-1.082.238.71.71 0 0 0-.327.888q.055.124.159.214c.154.123.334.211.526.258l.026.006c.206.049.486.116.847.183m15.532-2.452c.368.167.689.423.933.745l.04-.933h1.121v6.212h-1.072v-.992a2.43 2.43 0 0 1-.992.784 3 3 0 0 1-1.27.268 3.26 3.26 0 0 1-1.618-.397 2.75 2.75 0 0 1-1.112-1.121 3.34 3.34 0 0 1-.406-1.658c-.011-.575.13-1.143.406-1.647.257-.47.643-.856 1.112-1.112a3.27 3.27 0 0 1 1.618-.407c.427-.004.85.084 1.24.258m-.08 4.824a1.84 1.84 0 0 0 .755-.775l.01-.049c.174-.338.262-.712.258-1.092a2.4 2.4 0 0 0-.268-1.141 1.86 1.86 0 0 0-.754-.764 2.26 2.26 0 0 0-2.134 0c-.317.18-.578.445-.754.764a2.4 2.4 0 0 0-.268 1.141c-.01.397.083.79.268 1.141.175.323.436.591.754.775a2.19 2.19 0 0 0 2.134 0m-8.425-5.082a3.23 3.23 0 0 1 1.617.407l.01-.05c.475.268.861.668 1.112 1.152.25.484.376 1.023.367 1.568.01.578-.13 1.149-.407 1.657a2.78 2.78 0 0 1-1.121 1.122 3.24 3.24 0 0 1-1.618.397 2.8 2.8 0 0 1-1.22-.258 2.5 2.5 0 0 1-.944-.745v3.206h-1.13v-8.396h1.08v.992c.254-.347.597-.618.993-.784.396-.18.826-.272 1.26-.268m.982 5.082c.319-.18.578-.449.745-.775l.02-.049c.177-.336.266-.712.258-1.092a2.3 2.3 0 0 0-.278-1.141 1.9 1.9 0 0 0-.745-.764 2.14 2.14 0 0 0-1.071-.268 1.99 1.99 0 0 0-1.817 1.042 2.54 2.54 0 0 0 0 2.272c.167.326.426.595.745.775.325.187.696.283 1.072.277.375.008.746-.088 1.071-.277m-19.688-7.522a.8.8 0 0 1 .305-.051l.01-.05c.19.013.368.099.497.239a.76.76 0 0 1 .218.565q.023.174 0 .348a2.7 2.7 0 0 1-.149.486l-.566 1.638h-.734l.427-1.747a.7.7 0 0 1-.358-.268.87.87 0 0 1 .09-.993.8.8 0 0 1 .26-.167m130.537 2.698c.373.164.697.42.943.745v-3.464h1.122v8.743h-1.033v-.992a2.4 2.4 0 0 1-.992.784 3 3 0 0 1-1.261.268 3.24 3.24 0 0 1-1.617-.397 2.7 2.7 0 0 1-1.122-1.121 3.34 3.34 0 0 1-.407-1.658 3.3 3.3 0 0 1 .407-1.647 2.74 2.74 0 0 1 1.122-1.112 3.23 3.23 0 0 1 1.617-.407c.421-.001.837.087 1.221.258m-.069 4.824c.323-.177.586-.447.754-.775l.01-.049c.174-.338.262-.712.258-1.092a2.4 2.4 0 0 0-.268-1.141 1.86 1.86 0 0 0-.754-.764 2.26 2.26 0 0 0-2.134 0c-.317.18-.578.445-.754.764a2.4 2.4 0 0 0-.268 1.141c-.01.397.083.79.268 1.141.175.323.436.591.754.775a2.19 2.19 0 0 0 2.134 0m-9.975-4.695c.463.245.845.617 1.102 1.072l.01-.05c.294.489.448 1.048.447 1.618l-4.963.993c.14.411.417.761.784.992.409.239.877.359 1.35.347a2.3 2.3 0 0 0 1.787-.744l.615.725a2.65 2.65 0 0 1-1.042.744c-.444.181-.92.268-1.4.258a3.7 3.7 0 0 1-1.746-.397 2.97 2.97 0 0 1-1.181-1.131 3.24 3.24 0 0 1-.417-1.648 3.3 3.3 0 0 1 .407-1.628 2.9 2.9 0 0 1 1.111-1.131 3.23 3.23 0 0 1 1.608-.407 3.07 3.07 0 0 1 1.528.387m-3.563 2.72v.119l3.98-.745a1.9 1.9 0 0 0-.685-1.101 1.9 1.9 0 0 0-1.26-.427 2.04 2.04 0 0 0-1.052.268 1.97 1.97 0 0 0-.724.754 2.44 2.44 0 0 0-.259 1.132m-4.098-3.047v1.042l.01-.05c.204-.338.504-.608.863-.774.438-.201.917-.3 1.399-.288v1.092h-.258a1.9 1.9 0 0 0-1.439.546 2.17 2.17 0 0 0-.516 1.558v3.087h-1.131v-6.213zm25.982.327c.463.245.845.617 1.102 1.072l.01-.05c.296.478.457 1.027.466 1.588l-4.962.993c.139.411.416.762.784.992.409.239.876.359 1.35.348a2.3 2.3 0 0 0 1.786-.745l.616.725a2.64 2.64 0 0 1-1.042.744 3.5 3.5 0 0 1-1.4.258 3.7 3.7 0 0 1-1.747-.397 3 3 0 0 1-1.181-1.131 3.25 3.25 0 0 1-.416-1.648 3.3 3.3 0 0 1 .407-1.627c.257-.46.634-.841 1.091-1.102a3.23 3.23 0 0 1 1.608-.407 3.07 3.07 0 0 1 1.528.387m-3.563 2.72v.119l3.98-.745a1.9 1.9 0 0 0-.685-1.101 1.9 1.9 0 0 0-1.26-.427 2.04 2.04 0 0 0-1.052.268 1.97 1.97 0 0 0-.724.754 2.44 2.44 0 0 0-.259 1.132m-27.312 1.697a2.13 2.13 0 0 0 .516-1.529l.089-3.245h1.122v6.213h-1.062v-.933a2.3 2.3 0 0 1-.903.744 3.07 3.07 0 0 1-3.166-.427 2.67 2.67 0 0 1-.715-1.985v-3.582h1.032v3.453c-.034.493.122.98.437 1.36a1.629 1.629 0 0 0 1.24.467 1.87 1.87 0 0 0 1.41-.536m36.076-2.055q.614.1 1.211.278l.039-.049c.314.088.597.263.814.506.236.274.354.631.328.992a1.55 1.55 0 0 1-.715 1.34 3.4 3.4 0 0 1-1.985.496 5.5 5.5 0 0 1-1.469-.198 3.4 3.4 0 0 1-1.101-.526l.466-.893c.303.212.638.373.993.476.384.11.781.167 1.181.169.982 0 1.479-.278 1.479-.844a.6.6 0 0 0-.199-.447 1.3 1.3 0 0 0-.506-.238 11 11 0 0 0-.844-.169 9 9 0 0 1-1.23-.267 2 2 0 0 1-.814-.517 1.43 1.43 0 0 1-.338-.992 1.6 1.6 0 0 1 .705-1.35 3.17 3.17 0 0 1 1.886-.516c.418.003.835.057 1.24.159.351.082.686.219.993.407l-.477.893a3.27 3.27 0 0 0-1.796-.496 2.04 2.04 0 0 0-1.092.238.73.73 0 0 0-.377.625.6.6 0 0 0 .209.477c.156.121.335.208.526.258l.026.006c.206.049.486.116.847.182m-71.726 0q.62.1 1.221.278l.04-.049c.31.088.59.263.804.506.236.274.353.631.327.992a1.55 1.55 0 0 1-.714 1.34 3.4 3.4 0 0 1-1.985.496c-.497 0-.99-.066-1.47-.198a3.4 3.4 0 0 1-1.1-.526l.465-.893c.303.212.638.373.993.476.384.11.781.167 1.181.169.983 0 1.479-.278 1.479-.844a.57.57 0 0 0-.199-.447 1.3 1.3 0 0 0-.496-.238 11 11 0 0 0-.853-.169 9 9 0 0 1-1.221-.267 1.85 1.85 0 0 1-.814-.517 1.43 1.43 0 0 1-.347-.992 1.6 1.6 0 0 1 .704-1.35 3.17 3.17 0 0 1 1.886-.516c.418.003.835.057 1.24.159.351.082.686.219.993.407l-.476.893a3.26 3.26 0 0 0-1.797-.496 2.04 2.04 0 0 0-1.091.238.72.72 0 0 0-.368.625.6.6 0 0 0 .209.477c.15.122.327.21.516.258l.026.006c.206.049.486.116.847.182m-12.197-2.451c.37.164.69.42.933.744l.099-.982h1.131v6.213h-1.081v-.993a2.36 2.36 0 0 1-.993.784c-.395.18-.826.272-1.26.268a3.24 3.24 0 0 1-1.618-.397 2.77 2.77 0 0 1-1.121-1.121 3.34 3.34 0 0 1-.407-1.658c-.011-.575.13-1.143.406-1.647a2.8 2.8 0 0 1 1.062-1.062 3.23 3.23 0 0 1 1.618-.407c.424-.003.844.085 1.23.258m-.07 4.823a1.86 1.86 0 0 0 .745-.774l.04-.089c.156-.328.235-.689.228-1.052a2.4 2.4 0 0 0-.268-1.142 1.9 1.9 0 0 0-.745-.764 2.2 2.2 0 0 0-1.072-.268 2.15 2.15 0 0 0-1.071.268 1.9 1.9 0 0 0-.745.764c-.19.35-.286.744-.278 1.142-.01.398.085.792.278 1.141.167.326.426.595.745.774.325.189.695.285 1.072.278.375.006.746-.09 1.071-.278m6.402-2.332q.614.1 1.21.278l.04-.089c.315.1.594.29.804.545.236.275.354.632.328.993a1.53 1.53 0 0 1-.725 1.34 3.36 3.36 0 0 1-1.985.496 5.5 5.5 0 0 1-1.459-.199 3.15 3.15 0 0 1-1.101-.526l.466-.893c.302.214.637.375.993.477a4.4 4.4 0 0 0 1.19.168c.983 0 1.47-.278 1.47-.843a.58.58 0 0 0-.2-.447 1.2 1.2 0 0 0-.495-.238c-.199-.05-.487-.109-.854-.169a9 9 0 0 1-1.22-.268 1.9 1.9 0 0 1-.814-.516 1.43 1.43 0 0 1-.338-.992 1.58 1.58 0 0 1 .705-1.35 3.14 3.14 0 0 1 1.885-.516q.63.007 1.241.159c.35.081.686.219.993.407l-.487.893a3.2 3.2 0 0 0-1.796-.496 2 2 0 0 0-1.082.238.7.7 0 0 0-.377.625.6.6 0 0 0 .208.476c.155.123.335.211.526.258l.027.007c.206.049.485.115.847.182m16.653-3.732a3.3 3.3 0 0 0-1.657.417l.04-.089c-.501.269-.914.675-1.191 1.171a3.3 3.3 0 0 0 0 3.216c.272.475.67.867 1.15 1.131a3.3 3.3 0 0 0 1.658.417 3.039 3.039 0 0 0 2.312-.993l.755.745c-.37.431-.836.77-1.36.992a4.7 4.7 0 0 1-1.766.328 4.6 4.6 0 0 1-2.223-.546 3.97 3.97 0 0 1-1.549-1.499 4.39 4.39 0 0 1 0-4.307c.371-.634.91-1.153 1.559-1.499a4.6 4.6 0 0 1 2.223-.546 4.6 4.6 0 0 1 1.756.328c.529.213.996.554 1.36.992l-.754.735a3.08 3.08 0 0 0-2.313-.993m17.73 6.314a.9.9 0 0 0 .393.058l.04-.079c.294.021.587-.056.833-.219l.358.814a1.7 1.7 0 0 1-.616.318c-.24.076-.492.113-.744.109a1.998 1.998 0 0 1-1.459-.496 1.99 1.99 0 0 1-.516-1.449v-5.697h1.131v1.359h1.777v.933h-1.777v3.365a1.04 1.04 0 0 0 .248.764.9.9 0 0 0 .332.22m-9.194-.538c.361-.424.546-.971.516-1.528l.069-3.245h1.122v6.213H100.4v-.933a2.3 2.3 0 0 1-.903.744 2.7 2.7 0 0 1-1.211.258 2.7 2.7 0 0 1-1.985-.685 2.66 2.66 0 0 1-.715-1.985v-3.583h1.082v3.454c-.034.493.122.979.437 1.36a1.63 1.63 0 0 0 1.24.466 1.86 1.86 0 0 0 1.41-.536m5.476.539a.9.9 0 0 0 .389.057l.04-.079c.177-.001.353-.038.516-.11l.059.923c-.26.097-.536.144-.813.139a1.84 1.84 0 0 1-1.39-.496 1.894 1.894 0 0 1-.496-1.399v-6.868h1.121v6.848c-.017.277.072.55.249.764q.137.147.325.221m96.232-5.451v.833c.237-.316.561-.557.933-.694a3.3 3.3 0 0 1 1.29-.239v1.688h-.417a1.7 1.7 0 0 0-1.28.417 1.781 1.781 0 0 0-.447 1.32v2.977h-1.826v-6.302zm-12.644.288a3 3 0 0 1 1.181 1.101c.298.529.442 1.131.417 1.737l-4.665.903c.121.3.342.549.625.705.327.16.688.238 1.052.228.298.005.594-.045.874-.149a2 2 0 0 0 .704-.456l.993 1.052a3.291 3.291 0 0 1-2.6.992 4.1 4.1 0 0 1-1.886-.417 3.1 3.1 0 0 1-1.271-1.151 3.38 3.38 0 0 1 0-3.354 3.1 3.1 0 0 1 1.201-1.162 3.6 3.6 0 0 1 1.737-.417 3.5 3.5 0 0 1 1.638.388m-2.769 1.449a1.8 1.8 0 0 0-.457 1.23l3.117-.605a1.4 1.4 0 0 0-.536-.784 1.6 1.6 0 0 0-.993-.288 1.5 1.5 0 0 0-1.131.447m-4.154 3.171c.1.038.207.053.313.044v-.01c.265.006.524-.071.744-.218l.487 1.29a2.2 2.2 0 0 1-.665.298q-.402.095-.814.099a2.42 2.42 0 0 1-1.747-.576 2.215 2.215 0 0 1-.615-1.687v-5.538h1.836v1.568h1.558v1.41h-1.558v2.53a.83.83 0 0 0 .198.616.7.7 0 0 0 .263.174m25.462-2.387q.642.097 1.27.268v-.01c.344.094.653.283.894.546.257.299.389.687.367 1.081a1.66 1.66 0 0 1-.357 1.042 2.2 2.2 0 0 1-.993.705 4.6 4.6 0 0 1-1.598.258 6.1 6.1 0 0 1-1.538-.198 4 4 0 0 1-1.201-.487l.615-1.31c.307.195.642.342.993.437.38.113.774.17 1.171.169q1.161 0 1.161-.566a.39.39 0 0 0-.317-.387 5 5 0 0 0-.993-.209 7.4 7.4 0 0 1-1.28-.268 2 2 0 0 1-.874-.535 1.53 1.53 0 0 1-.367-1.102 1.7 1.7 0 0 1 .348-1.062c.258-.328.601-.578.992-.725a4.4 4.4 0 0 1 1.568-.258q.674.002 1.33.149c.382.08.751.217 1.092.407l-.606 1.3a3.7 3.7 0 0 0-1.816-.466 1.9 1.9 0 0 0-.883.159.5.5 0 0 0-.288.426.404.404 0 0 0 .318.407q.485.163.992.229m-38.978-2.439c.326.132.619.334.857.593l.01-.675h1.836v6.312h-1.746v-.725a2.426 2.426 0 0 1-1.985.824 3.35 3.35 0 0 1-1.608-.397 2.9 2.9 0 0 1-1.132-1.141 3.81 3.81 0 0 1 0-3.424 2.9 2.9 0 0 1 1.132-1.132 3.26 3.26 0 0 1 1.608-.407c.351-.019.702.04 1.028.172m-.084 4.715c.198-.082.377-.205.525-.361a1.99 1.99 0 0 0 0-2.551 1.566 1.566 0 0 0-1.152-.466 1.58 1.58 0 0 0-1.161.466 1.985 1.985 0 0 0 0 2.551 1.55 1.55 0 0 0 1.161.476c.215.006.428-.033.627-.115m8.306-3.112a1.56 1.56 0 0 0-.834-.226l.03-.05a1.6 1.6 0 0 0-1.221.516 1.984 1.984 0 0 0 0 2.551 1.62 1.62 0 0 0 1.191.476 1.554 1.554 0 0 0 1.419-.873l1.409.774a2.43 2.43 0 0 1-1.081 1.171 3.4 3.4 0 0 1-1.737.427 3.9 3.9 0 0 1-1.816-.417 3.1 3.1 0 0 1-1.251-1.151 3.38 3.38 0 0 1 0-3.355c.299-.497.733-.9 1.251-1.161a3.9 3.9 0 0 1 1.816-.417 3.5 3.5 0 0 1 1.737.417c.485.263.866.683 1.081 1.191l-1.409.764a1.56 1.56 0 0 0-.585-.637m19.164 2.751c.288-.358.43-.812.397-1.27l.07-3.166h1.826v6.302h-1.737v-.744c-.258.28-.577.498-.933.635a2.98 2.98 0 0 1-3.067-.496 2.9 2.9 0 0 1-.724-2.124v-3.573h1.836v3.344c0 1.013.417 1.519 1.27 1.519a1.39 1.39 0 0 0 1.062-.427m65.424.526q.143.015.287 0l.03-.05q.128-.021.248-.069l.08 1.409a2.7 2.7 0 0 1-.993.159 2.27 2.27 0 0 1-1.667-.576 2.118 2.118 0 0 1-.596-1.607v-6.61h1.827v6.51a.83.83 0 0 0 .208.616.74.74 0 0 0 .576.218m-5.459-4.625c.488.252.896.633 1.181 1.102l.03-.05c.297.546.431 1.166.387 1.787l-4.665.903c.121.3.342.549.626.704.327.16.688.239 1.052.229.297.005.594-.046.873-.149.264-.102.504-.257.705-.457l.992 1.052a3.28 3.28 0 0 1-2.6.993c-.653.013-1.3-.13-1.886-.417a3.04 3.04 0 0 1-1.27-1.151 3.2 3.2 0 0 1-.447-1.678 3.27 3.27 0 0 1 .437-1.677c.292-.489.71-.89 1.211-1.161a3.6 3.6 0 0 1 1.727-.417 3.5 3.5 0 0 1 1.647.387m-2.769 1.449a1.79 1.79 0 0 0-.456 1.231l3.096-.606a1.34 1.34 0 0 0-.526-.784 1.62 1.62 0 0 0-.992-.287 1.49 1.49 0 0 0-1.122.446m-4.982-1.737v.834l.03-.05c.216-.304.511-.545.853-.694a3.2 3.2 0 0 1 1.28-.239v1.717h-.406a1.7 1.7 0 0 0-1.231.437 1.8 1.8 0 0 0-.357.615 1.8 1.8 0 0 0-.09.705v2.978h-1.826v-6.303zm18.589 2.779c.327.099.622.284.853.536l.03-.049a1.48 1.48 0 0 1 .387 1.131c.002.376-.12.742-.347 1.042a2.2 2.2 0 0 1-.993.705 4.6 4.6 0 0 1-1.598.258 6.2 6.2 0 0 1-1.538-.199 4 4 0 0 1-1.191-.486l.606-1.31c.308.191.642.338.992.437.38.112.775.169 1.171.168q1.161 0 1.161-.565a.393.393 0 0 0-.317-.387 4.7 4.7 0 0 0-.993-.209 7.5 7.5 0 0 1-1.28-.268 1.9 1.9 0 0 1-.863-.536 1.53 1.53 0 0 1-.378-1.101 1.75 1.75 0 0 1 .348-1.062c.257-.329.601-.58.992-.725a4.3 4.3 0 0 1 1.558-.258c.448 0 .894.05 1.33.149a3.8 3.8 0 0 1 1.102.407l-.615 1.3a3.67 3.67 0 0 0-1.817-.466 1.8 1.8 0 0 0-.873.158.49.49 0 0 0-.298.427.42.42 0 0 0 .318.407q.485.163.992.228.638.098 1.261.268m-41.227 1.608c.292-.356.434-.811.397-1.27l.019-3.166h1.827v6.312h-1.727v-.745c-.245.267-.542.48-.874.626a2.7 2.7 0 0 1-1.091.218 2.697 2.697 0 0 1-1.985-.714 2.87 2.87 0 0 1-.725-2.124v-3.573h1.826v3.344q0 1.52 1.281 1.519a1.37 1.37 0 0 0 1.052-.427m16.991 0a1.78 1.78 0 0 0 .407-1.27v-3.166h1.826v6.312h-1.737v-.745c-.241.267-.535.48-.864.626a2.98 2.98 0 0 1-3.066-.496 2.9 2.9 0 0 1-.725-2.124v-3.573H240v3.344q0 1.52 1.281 1.519a1.35 1.35 0 0 0 1.052-.427m-10.451.526h.288l.268-.119.079 1.409a2.8 2.8 0 0 1-.992.159 2.3 2.3 0 0 1-.887-.121 2.3 2.3 0 0 1-.771-.455 2.123 2.123 0 0 1-.605-1.607v-6.61h1.836v6.51a.9.9 0 0 0 .198.616.77.77 0 0 0 .586.218m-13.765-3.277a1.56 1.56 0 0 0-.834-.226l.039-.05a1.58 1.58 0 0 0-1.22.516 1.984 1.984 0 0 0 0 2.551 1.58 1.58 0 0 0 1.181.476 1.54 1.54 0 0 0 1.419-.873l1.419.774a2.47 2.47 0 0 1-1.082 1.171 3.4 3.4 0 0 1-1.746.427 3.9 3.9 0 0 1-1.807-.417 3.2 3.2 0 0 1-1.26-1.151 3.263 3.263 0 0 1 1.26-4.516 3.9 3.9 0 0 1 1.807-.417 3.5 3.5 0 0 1 1.746.417c.484.265.865.684 1.082 1.191l-1.419.764a1.56 1.56 0 0 0-.585-.637m17.482 3.263a.7.7 0 0 0 .312.044l.04-.05c.265.006.525-.071.744-.218l.487 1.29a2.1 2.1 0 0 1-.665.298q-.402.095-.814.099a2.44 2.44 0 0 1-1.747-.576 2.215 2.215 0 0 1-.615-1.687v-5.538h1.796v1.568h1.558v1.41h-1.558v2.57a.833.833 0 0 0 .199.615.7.7 0 0 0 .263.175" clip-rule="evenodd"/></g></svg>