<svg width="48" height="48" viewBox="0 0 48 48" xmlns="http://www.w3.org/2000/svg">
<g id="icon" clip-path="url(#clip0_4987_58440)">
<circle opacity="0.4" cx="20.3078" cy="31.3847" r="16.6154" fill="#FFA5C0"/>
<path fill-rule="evenodd" clip-rule="evenodd" d="M42.5905 0.63954C42.218 0.286362 41.5576 0.368869 41.1155 0.823823L37.0863 6.13825C36.6442 6.5932 36.5878 7.24832 36.9603 7.6015C37.3328 7.95468 37.9931 7.87217 38.4352 7.41722L42.4645 2.10279C42.9066 1.64784 42.963 0.992717 42.5905 0.63954ZM7.24414 25.7952C7.24414 16.4645 14.804 8.90332 24.133 8.90332C27.0017 8.90332 29.7139 9.61893 32.0818 10.8917C32.5802 11.1596 32.7671 11.7808 32.4992 12.2792C32.2314 12.7776 31.6103 12.9645 31.112 12.6967C29.0378 11.5818 26.6582 10.9525 24.133 10.9525C15.9355 10.9525 9.29291 17.5962 9.29291 25.7952C9.29291 33.9941 15.9355 40.6379 24.133 40.6379C32.3305 40.6379 38.9732 33.9941 38.9732 25.7952C38.9732 23.2356 38.3232 20.8268 37.1787 18.7211C36.9085 18.224 37.0924 17.6019 37.5894 17.3316C38.0865 17.0614 38.7085 17.2453 38.9787 17.7424C40.2819 20.1401 41.0219 22.8843 41.0219 25.7952C41.0219 35.1258 33.462 42.687 24.133 42.687C14.804 42.687 7.24414 35.1258 7.24414 25.7952ZM23.0726 18.6326C23.0726 18.0557 23.5602 17.6107 24.133 17.6107C24.7058 17.6107 25.1933 18.0557 25.1933 18.6326V28.2086C25.1933 28.7855 24.7058 29.2305 24.133 29.2305C23.5602 29.2305 23.0726 28.7855 23.0726 28.2086V18.6326ZM24.1348 31.463C23.4399 31.463 22.8766 32.0264 22.8766 32.7215C22.8766 33.4165 23.4399 33.9799 24.1348 33.9799C24.8297 33.9799 25.393 33.4165 25.393 32.7215C25.393 32.0264 24.8297 31.463 24.1348 31.463ZM46.3353 10.5256C46.9633 10.2701 47.6313 10.4456 47.8273 10.9177C48.0233 11.3898 47.6731 11.9796 47.0451 12.2351L42.4531 14.03C41.8251 14.2855 41.1571 14.1099 40.9611 13.6379C40.7651 13.1658 41.1153 12.576 41.7433 12.3205L46.3353 10.5256Z" fill="#EB0055"/>
</g>
<defs>
<clipPath id="clip0_4987_58440">
<rect width="48" height="48" fill="white"/>
</clipPath>
</defs>
</svg>
