<svg xmlns="http://www.w3.org/2000/svg" width="48" height="48" fill="none"><g id="icon" fill="currentColor"><path d="M37 46c-5.24 0-9.5-4.26-9.5-9.5S31.76 27 37 27s9.5 4.26 9.5 9.5S42.24 46 37 46Zm0-16.89c-4.07 0-7.39 3.32-7.39 7.39s3.32 7.39 7.39 7.39 7.39-3.32 7.39-7.39-3.32-7.39-7.39-7.39Z"/><path fill-rule="evenodd" d="M29.4 42.17H11.36a5 5 0 0 1-4.99-5v-20h30.98c.55 0 1-.45 1-1s-.45-1-1-1H6.37v-4c0-1.11.89-2 2-2h3.02c0 2.21 1.79 4 3.99 4 .55 0 1-.45 1-1s-.45-1-1-1c-1.11 0-2-.89-2-2v-2c0-1.11.89-2 2-2 1.11 0 2 .89 2 2h-.76c-.55 0-1 .45-1 1s.45 1 1 1h12.72c0 2.21 1.79 4 3.99 4 .55 0 1-.45 1-1s-.45-1-1-1c-1.11 0-2-.89-2-2v-.8c.01-.06.02-.13.02-.2s0-.14-.02-.2v-.8c0-1.11.89-2 2-2 1.11 0 2 .89 2 2h-.74c-.55 0-1 .45-1 1s.45 1 1 1h5.73c1.11 0 2.02.9 2.05 2.01l-.03 17.46c.75.51 1.42 1.12 1.99 1.82l.04-19.29v-.02c-.04-2.2-1.84-3.98-4.04-3.98h-3c0-2.21-1.79-4-3.99-4s-3.99 1.79-3.99 4h-9.97c0-2.21-1.79-4-3.99-4s-3.99 1.79-3.99 4H8.38a3.99 3.99 0 0 0-3.99 4v26c0 3.86 3.13 7 6.99 7h20.06a9.576 9.576 0 0 1-2.02-2h-.02Z" clip-rule="evenodd"/><path d="M41 35.5h-3v-3c0-.55-.45-1-1-1s-1 .45-1 1v3h-3c-.55 0-1 .45-1 1s.45 1 1 1h3v3c0 .55.45 1 1 1s1-.45 1-1v-3h3c.55 0 1-.45 1-1s-.45-1-1-1Z"/></g></svg>