<svg xmlns="http://www.w3.org/2000/svg" width="48" height="48" fill="none"><path id="icon" fill="currentColor" fill-rule="evenodd" d="M32.964 5a1.995 1.995 0 0 0-1.998 2v.8a1 1 0 0 1 0 .4V9c0 1.108.892 2 1.998 2a1 1 0 0 1 0 2 3.993 3.993 0 0 1-3.995-4H16.245a1 1 0 0 1 0-2h.759c0-1.108-.891-2-1.998-2a1.995 1.995 0 0 0-1.997 2v2c0 1.108.89 2 1.997 2a1 1 0 0 1 0 2 3.993 3.993 0 0 1-3.995-4H7.995a1.995 1.995 0 0 0-1.998 2v4H36.98a1 1 0 0 1 0 2H5.998v20c0 2.758 2.239 5 4.993 5H36.96c2.786 0 5.035-2.291 4.994-5.085v-.017l.05-25.89A2.057 2.057 0 0 0 39.954 9h-5.733a1 1 0 0 1 0-2h.74c0-1.108-.892-2-1.998-2M19 7h9.968c0-2.212 1.785-4 3.995-4a3.993 3.993 0 0 1 3.995 4h2.996A4.056 4.056 0 0 1 44 10.982v.02l-.05 25.892C44.003 40.796 40.861 44 36.96 44H10.99C7.134 44 4 40.862 4 37V11c0-2.212 1.785-4 3.995-4h3.016c0-2.212 1.786-4 3.995-4a3.993 3.993 0 0 1 3.995 4" clip-rule="evenodd"/></svg>