<svg xmlns="http://www.w3.org/2000/svg" width="48" height="48" fill="none"><path id="icon" fill="currentColor" fill-rule="evenodd" d="M27.243 3.53c-1.755-.439-3.082-.229-3.69.076a1 1 0 0 0-.521 1.144l-.008.033c-.147.662-.514 1.768-1.12 2.837-.611 1.08-1.404 2.012-2.351 2.486-2.096 1.048-4.407.722-5.237.445a1 1 0 0 0-.632 1.898c1.17.39 4.06.797 6.763-.554 1.453-.727 2.493-2.045 3.198-3.29a13.1 13.1 0 0 0 1.313-3.31l.124-.01c.405-.022.97.009 1.675.185.365.091.546.208.674.328.15.14.29.347.501.739q.093.172.196.374c.402.774.97 1.87 2.104 3.23.796.955 1.973 1.552 3.156 1.96 1.197.413 2.523.674 3.721.883q.456.08.878.15c.864.146 1.614.272 2.222.428.4.102.662.2.816.285l.022.012.013.008c.291 1.205.347 2.086.27 2.773a4.06 4.06 0 0 1-.633 1.77c-.328.523-.75 1.011-1.284 1.628l-.1.116c-.567.655-1.217 1.42-1.85 2.396-.887 1.37.217 2.95 1.655 2.95h.433l.278 5.283c.036.677.255 1.294.503 1.827.19.41.424.822.632 1.19v.001q.087.15.164.291c.544.976.753 1.558.612 2.074-.08.292-.384.817-1.34 1.534-.854.64-1.611.88-2.314.936-.727.057-1.455-.08-2.273-.292q-.284-.075-.591-.161c-1.44-.402-3.24-.906-5.116-.102-.907.388-1.554.75-2.001 1.145-.495.436-.725.891-.831 1.37-.057.255-.079.45-.098.62-.044.391-.073.647-.476 1.184-.788 1.051-1.78.912-2.212.725a2 2 0 0 0-.318-.115c-1.883-.516-6.339-1.787-9.854-2.959-.76-.253-1.118-.54-1.28-.748a.76.76 0 0 1-.157-.603c.072-.568.572-1.294 1.176-1.854.14-.13.29-.301.407-.519.746-1.385 1.038-3.05 1.038-7.827 0-.95-.018-2.235-.16-3.428a10.7 10.7 0 0 0-.335-1.735c-.154-.523-.383-1.072-.751-1.494-1.076-1.234-2.607-1.974-3.99-2.445-1.237-.421-2.457-.66-3.276-.821l-.292-.058a2.06 2.06 0 0 1-1.567-1.355c-.11-.31-.127-.579-.101-.748l.009-.05q.06-.017.17-.044c.183-.043.424-.089.715-.137a43 43 0 0 1 2.114-.279c1.591-.177 3.377-.326 4.535-.409a1 1 0 1 0-.142-1.994c-1.176.083-2.99.235-4.615.416-.811.09-1.587.19-2.217.293-.314.051-.604.106-.849.164a3.3 3.3 0 0 0-.695.23c-.658.329-.923.985-1.003 1.51-.083.549-.006 1.154.196 1.72.408 1.145 1.404 2.314 3.058 2.645l.303.06c.827.162 1.912.375 3.011.75 1.25.426 2.392 1.021 3.128 1.866.094.108.221.339.341.745.116.392.203.871.267 1.406.127 1.069.146 2.254.146 3.192 0 4.785-.318 5.98-.793 6.867l-.011.012c-.709.656-1.64 1.792-1.801 3.073a2.76 2.76 0 0 0 .561 2.078c.488.627 1.245 1.09 2.228 1.419 3.564 1.188 8.058 2.47 9.958 2.99l.048.02c.997.434 3.1.655 4.61-1.359a4.4 4.4 0 0 0 .9-2.36q.01-.137.026-.21c.019-.085.039-.16.2-.303.21-.184.625-.446 1.468-.808 1.186-.508 2.256-.22 3.745.182q.322.088.672.18c.87.225 1.862.433 2.931.349 1.095-.086 2.212-.47 3.358-1.33 1.117-.838 1.822-1.7 2.07-2.607.383-1.401-.294-2.676-.794-3.574l-.197-.35c-.2-.354-.38-.672-.533-1.001-.196-.422-.303-.774-.32-1.09l-.278-5.283a2 2 0 0 0-1.997-1.895h-.318c.524-.789 1.064-1.427 1.593-2.038l.126-.146c.505-.583 1.026-1.184 1.44-1.843.464-.741.806-1.57.924-2.606.116-1.02.01-2.19-.346-3.61-.151-.604-.612-.959-.975-1.16-.378-.209-.835-.357-1.29-.473-.697-.178-1.567-.325-2.454-.474l-.798-.136c-1.187-.207-2.377-.446-3.412-.803-1.048-.362-1.82-.807-2.273-1.351-.986-1.184-1.46-2.093-1.857-2.857q-.111-.214-.218-.415c-.227-.42-.492-.87-.89-1.245-.419-.395-.925-.654-1.56-.813m13.87 10.374-.005-.005zM5.058 16.301l-.005.01z" clip-rule="evenodd"/></svg>