<svg xmlns="http://www.w3.org/2000/svg" width="48" height="48" fill="none"><path id="icon" fill="currentColor" fill-rule="evenodd" d="M20.654 4.873a2.96 2.96 0 0 1 2.476-.848L38.052 5.89a1 1 0 0 1 .18.04.99.99 0 0 1 .77.846l1.779 14.896a2.95 2.95 0 0 1-.852 2.48l-.196.195A10.53 10.53 0 0 1 45 33.47C45 39.285 40.285 44 34.468 44a10.53 10.53 0 0 1-9.123-5.266l-2.195 2.194a2.983 2.983 0 0 1-4.214 0l-9.88-9.879a.993.993 0 1 1 1.404-1.404l9.88 9.879a.997.997 0 0 0 1.406 0l2.727-2.726a10.5 10.5 0 0 1-.537-3.328c0-5.816 4.715-10.53 10.532-10.53 1.163 0 2.282.188 3.328.536l.732-.731.008-.008a.96.96 0 0 0 .275-.81v-.005L37.12 7.776l-14.24-1.781-.006-.001a.97.97 0 0 0-.817.284L5.276 23.047a.997.997 0 0 0 0 1.406l1.142 1.141a.993.993 0 1 1-1.404 1.404l-1.142-1.141a2.98 2.98 0 0 1 0-4.215zm13.442 9.807a3.97 3.97 0 0 1-3.972 3.971 3.97 3.97 0 1 1 0-7.943 3.97 3.97 0 0 1 3.972 3.972m-1.986 0a1.99 1.99 0 0 0-1.986-1.986 1.99 1.99 0 0 0-1.986 1.986c0 1.092.894 1.986 1.986 1.986a1.99 1.99 0 0 0 1.986-1.986m2.358 10.253a8.537 8.537 0 1 0 0 17.073 8.537 8.537 0 1 0 0-17.073m.986 3.95a.986.986 0 0 0-1.964-.133l-.008.134v3.6h-3.6a.987.987 0 0 0-.135 1.963l.134.009h3.6v3.6a.986.986 0 0 0 1.964.134l.01-.134v-3.6h3.6a.986.986 0 0 0 .134-1.964l-.134-.009h-3.6z" clip-rule="evenodd"/></svg>