<svg xmlns="http://www.w3.org/2000/svg" viewBox="0 0 48 48" width="48" height="48">
  <path id="icon" fill="currentColor" d="m36.03,45.41c-.44,0-.88-.1-1.29-.29l-10.3-4.84c-.28-.13-.59-.13-.87,0l-10.3,4.85c-1.01.47-2.15.37-3.05-.28-.9-.65-1.36-1.7-1.23-2.81l1.34-11.28c.04-.3-.06-.6-.27-.82l-7.68-8.05c-.76-.8-1.02-1.9-.7-2.96.32-1.06,1.15-1.83,2.23-2.07l11.64-2.61c.29-.06.53-.25.67-.51l5.13-9.53c.53-.98,1.55-1.59,2.66-1.59,1.11,0,2.13.61,2.66,1.59l5.13,9.53c.14.26.39.45.67.51l11.63,2.61c1.08.24,1.91,1.02,2.23,2.07.32,1.05.06,2.16-.7,2.96l-7.68,8.05c-.21.22-.31.52-.27.82l1.34,11.28c.13,1.11-.33,2.15-1.23,2.81-.53.38-1.14.58-1.76.58Zm-12.03-7.24c.44,0,.88.1,1.29.29h0l10.3,4.85c.49.23.88.01,1.03-.09s.48-.41.42-.95l-1.34-11.28c-.11-.9.19-1.79.81-2.44l7.68-8.05c.37-.39.29-.83.24-1-.05-.17-.23-.58-.75-.7l-11.64-2.61c-.85-.19-1.58-.74-2-1.51l-5.13-9.53c-.26-.48-.72-.54-.9-.54s-.64.05-.9.54l-5.13,9.53c-.41.77-1.14,1.32-2,1.51l-11.64,2.61c-.52.12-.7.53-.75.7-.05.17-.13.61.24,1l7.68,8.05c.62.65.92,1.54.81,2.44l-1.34,11.28c-.06.54.27.84.42.95.15.11.54.33,1.03.1l10.3-4.85c.41-.19.85-.29,1.29-.29Z"/>
</svg>