<svg xmlns="http://www.w3.org/2000/svg" id="icon" width="49" height="48" fill="none"><path fill="currentColor" fill-rule="evenodd" d="M6.5 8c-1.108 0-2 .892-2 2v1h7V8zm7 0v3h10V8zm-9 5h40v22h-40V21.05a1 1 0 1 0-2 0V38c0 2.212 1.788 4 4 4h21a1 1 0 1 0 0-2h-2v-3h10v3h-2a1 1 0 1 0 0 2h9c2.212 0 4-1.788 4-4V10c0-2.212-1.788-4-4-4h-36c-2.212 0-4 1.788-4 4v5.23a1 1 0 1 0 2 0zm31-5h-10v3h10zm2 3V8h5c1.108 0 2 .892 2 2v1zm5 29h-5v-3h7v1c0 1.108-.892 2-2 2m-31-3h-7v1c0 1.108.892 2 2 2h5zm2 3v-3h10v3zm16.027-17.554-6.486-3.259c-1.164-.59-2.521.268-2.521 1.553v6.53c0 1.285 1.357 2.143 2.521 1.553l6.488-3.26.011-.005c1.246-.646 1.277-2.466-.012-3.112m-1.35 1.559-5.657-2.841v5.682z" clip-rule="evenodd"/></svg>