<svg xmlns="http://www.w3.org/2000/svg" width="48" height="48" fill="none"><path id="icon" fill="currentColor" fill-rule="evenodd" d="M22 6c-.233 0-.455.04-.66.111a1 1 0 0 1-.662-1.887C21.094 4.079 21.539 4 22 4h1.286a1 1 0 1 1 0 2zm3.714-1a1 1 0 0 1 1-1h2.572a1 1 0 1 1 0 2h-2.572a1 1 0 0 1-1-1m6 0a1 1 0 0 1 1-1h2.572a1 1 0 1 1 0 2h-2.572a1 1 0 0 1-1-1m6 0a1 1 0 0 1 1-1H40c.461 0 .907.079 1.322.224a1 1 0 1 1-.661 1.887A2 2 0 0 0 40 6h-1.286a1 1 0 0 1-1-1M19.498 6.065a1 1 0 0 1 .613 1.274A2 2 0 0 0 20 8v1.5a1 1 0 1 1-2 0V8c0-.461.078-.906.224-1.321a1 1 0 0 1 1.274-.614m23.004 0a1 1 0 0 1 1.274.614c.145.415.224.86.224 1.321v1.371a1 1 0 1 1-2 0V8c0-.233-.04-.455-.111-.66a1 1 0 0 1 .613-1.275M43 12.029a1 1 0 0 1 1 1v2.742a1 1 0 1 1-2 0V13.03a1 1 0 0 1 1-1M19 12.5a1 1 0 0 1 1 1v3a1 1 0 1 1-2 0v-3a1 1 0 0 1 1-1m24 5.929a1 1 0 0 1 1 1v2.742a1 1 0 1 1-2 0V19.43a1 1 0 0 1 1-1M19 19.5a1 1 0 0 1 1 1v.694c6.135.963 11 5.404 11 11.039 0 6.381-6.24 11.232-13.5 11.232-.85 0-2.005-.102-3.158-.306-1.142-.203-2.362-.521-3.304-.988a.3.3 0 0 0-.107-.031h-.024l-2.978 1.355c-1.567.712-3.242-.757-2.741-2.404l.872-2.863v-.001l-.001-.007a.1.1 0 0 0-.02-.043C4.754 36.465 4 34.428 4 32.233c0-2.99 1.37-5.645 3.573-7.621a1 1 0 0 1-.288-.476l-.318-1.174a1 1 0 0 1 1.931-.522l.26.96c2.322-1.514 5.24-2.4 8.342-2.4q.25 0 .5.008V20.5a1 1 0 0 1 1-1m24 5.329a1 1 0 0 1 1 1v2.742a1 1 0 1 1-2 0V25.83a1 1 0 0 1 1-1m0 6.4a1 1 0 0 1 1 1v2.742a1 1 0 1 1-2 0V32.23a1 1 0 0 1 1-1m0 6.4a1 1 0 0 1 1 1V40c0 .461-.078.907-.224 1.322a1 1 0 0 1-1.888-.661q.11-.31.112-.661v-1.371a1 1 0 0 1 1-1m-1.065 4.873a1 1 0 0 1-.614 1.274c-.414.145-.86.224-1.321.224h-1.34a1 1 0 1 1 0-2H40c.233 0 .455-.04.66-.111a1 1 0 0 1 1.275.613M26.5 43a1 1 0 0 1 1-1h1.34a1 1 0 1 1 0 2H27.5a1 1 0 0 1-1-1m4.91 0a1 1 0 0 1 1-1h2.68a1 1 0 1 1 0 2h-2.68a1 1 0 0 1-1-1M14.968 7.246a1 1 0 0 1-.712 1.221l-1.41.371a1 1 0 0 1-.51-1.934l1.41-.37a1 1 0 0 1 1.222.712m-5.17 1.36a1 1 0 0 1-.712 1.222l-1.41.37c-.227.06-.432.156-.613.278A1 1 0 1 1 5.94 8.82a4 4 0 0 1 1.226-.555l1.41-.371a1 1 0 0 1 1.222.712m-4.531 2.308a1 1 0 0 1 .923 1.07q-.026.33.064.67l.318 1.175a1 1 0 0 1-1.931.522l-.317-1.174c-.121-.448-.161-.9-.129-1.34a1 1 0 0 1 1.072-.923m.925 5.342a1 1 0 0 1 1.226.704l.635 2.349a1 1 0 0 1-1.93.522l-.636-2.349a1 1 0 0 1 .705-1.226M6 32.233C6 27.31 10.952 23 17.5 23S29 27.311 29 32.233c0 4.92-4.952 9.232-11.5 9.232-.717 0-1.754-.088-2.809-.276-1.066-.189-2.071-.466-2.765-.81-.52-.257-1.203-.352-1.846-.06l-2.979 1.355.872-2.865c.2-.654.041-1.33-.335-1.832C6.59 35.577 6 33.954 6 32.233" clip-rule="evenodd"/></svg>