<svg xmlns="http://www.w3.org/2000/svg" width="48" height="48" fill="none"><path id="icon" fill="currentColor" fill-rule="evenodd" d="M34.887 8.353c-2.986-2.74-6.727-4.356-9.84-4.306-2.538.045-3.998.33-4.821.615 1.62.83 3.157 2.052 4.315 3.832 1.262 1.941 2.03 4.479 2.03 7.755 0 3.983.504 7.213 1.004 9.44.25 1.113.5 1.974.684 2.552a18 18 0 0 0 .279.807l.014.036.002.006c.182.451.021.967-.386 1.235l-2.587 1.706.165 2.459.003.06c1.36-.021 2.65-.248 3.623-.479a18 18 0 0 0 1.533-.437l.08-.028.017-.006.003-.001a1.03 1.03 0 0 1 1.154.309c.28.337.312.814.081 1.186l-1.12 1.81a6.55 6.55 0 0 1-5.577 3.092q-.528 0-1.043-.083.003.27.032.737.016.237.036.508v.001c.027.38.058.797.075 1.187.022.488.029 1.016-.024 1.483a5.2 5.2 0 0 0 4.217-1.097l2.86-2.36q.776-.64 1.476-1.35a19.2 19.2 0 0 0 5.195-9.816v-.002c.395-2.012.791-4.16 1.088-6.045.3-1.907.488-3.476.488-4.368 0-3.995-2.082-7.709-5.056-10.438M18.068 5.997a1 1 0 0 1-.168-.053c-3.007-.919-7.096-.978-10.312 1.093a1.03 1.03 0 0 1-1.423-.302 1.02 1.02 0 0 1 .305-1.416c3.594-2.314 7.953-2.38 11.309-1.532.195-.216.451-.424.778-.614 1.053-.612 2.953-1.11 6.453-1.171h.002c3.777-.062 8.007 1.853 11.27 4.847C39.556 9.854 42 14.079 42 18.79c0 1.072-.214 2.788-.513 4.685-.302 1.92-.703 4.094-1.1 6.12-.94 4.842-3.556 9.2-7.378 12.35l-2.86 2.36a7.27 7.27 0 0 1-6.789 1.318l-.024.006h-.002c-3.16.652-5.827.415-8.295-.49-2.44-.893-4.63-2.42-6.864-4.248a1.02 1.02 0 0 1-.14-1.44 1.03 1.03 0 0 1 1.447-.14c2.178 1.782 4.155 3.134 6.268 3.909 1.885.69 3.924.937 6.369.55.12-.165.286-.287.472-.356a10 10 0 0 0-.003-.978c-.016-.364-.043-.728-.07-1.092l-.038-.563c-.033-.496-.062-1.06-.002-1.468l.012-.069a6.55 6.55 0 0 1-2.522-2.337l-.002-.003-1.12-1.81a1.02 1.02 0 0 1 .416-1.453c.272-.229.642-.34 1.045-.24.951.245 2.093.49 3.35.684l-.169-2.511c-.025-.367.15-.718.458-.921l2.417-1.594-.065-.2c-.201-.63-.466-1.55-.73-2.725-.529-2.351-1.054-5.732-1.054-9.887 0-2.949-.687-5.085-1.7-6.643-1.009-1.55-2.384-2.594-3.874-3.292a12 12 0 0 0-.872-.316m7.021 31.93.013-1.335q.22.006.44.006c1.304 0 2.539-.169 3.551-.371a4.5 4.5 0 0 1-4.004 1.7M17.772 24.8c.808-.595 1.54-.584 2.094-.442l.929.426a1.03 1.03 0 0 0 1.438-.17 1.02 1.02 0 0 0-.164-1.437l-.628.785c.628-.785.627-.785.627-.786h-.001l-.002-.002-.004-.003-.011-.009a2 2 0 0 0-.133-.095 5.049 5.049 0 0 0-1.537-.69c-1.027-.265-2.429-.254-3.832.778a1.02 1.02 0 0 0-.215 1.431c.338.455.982.55 1.439.214m3.017-.02h.002l.002.003h.002l-.003-.001zm0 0-.035-.025a2.98 2.98 0 0 0-.888-.397zm9.325.02c.809-.595 1.542-.584 2.095-.442l.928.426a1.03 1.03 0 0 0 1.44-.17 1.02 1.02 0 0 0-.165-1.437l-.38.475c.38-.475.38-.475.379-.476h-.001l-.002-.002-.004-.003-.012-.009a2 2 0 0 0-.132-.095 4 4 0 0 0-.34-.21 5 5 0 0 0-1.196-.48c-1.029-.265-2.43-.254-3.833.778a1.02 1.02 0 0 0-.215 1.431c.338.455.982.55 1.439.214m3.018-.02h.002l.002.003h.002l-.003-.001zm0 0-.035-.025a2.982 2.982 0 0 0-.888-.397z" clip-rule="evenodd"/></svg>