<svg xmlns="http://www.w3.org/2000/svg" width="48" height="48" fill="none"><path id="icon" fill="currentColor" fill-rule="evenodd" d="M12 14h24c5.523 0 10 4.477 10 10s-4.477 10-10 10H12C6.477 34 2 29.523 2 24s4.477-10 10-10M0 24c0-6.627 5.373-12 12-12h24c6.627 0 12 5.373 12 12s-5.373 12-12 12H12C5.373 36 0 30.627 0 24m32.188 5.233q1.328.767 2.984.767 1.654 0 2.983-.767a5.6 5.6 0 0 0 2.087-2.15Q41 25.717 41 24q0-1.716-.758-3.083a5.5 5.5 0 0 0-2.087-2.134Q36.826 18 35.172 18t-2.984.783a5.45 5.45 0 0 0-2.087 2.15Q29.343 22.3 29.343 24t.758 3.083a5.6 5.6 0 0 0 2.087 2.15m4.932-1.65a3.73 3.73 0 0 1-1.948.517q-1.083 0-1.948-.517a3.75 3.75 0 0 1-1.36-1.466q-.495-.951-.495-2.117 0-1.167.494-2.1a3.6 3.6 0 0 1 1.36-1.467 3.64 3.64 0 0 1 1.949-.533q1.081 0 1.948.533.865.517 1.36 1.467.495.933.495 2.1 0 1.166-.495 2.117a3.75 3.75 0 0 1-1.36 1.466M7 18.167h4.73q1.732 0 3.077.733a5.07 5.07 0 0 1 2.087 2.05q.742 1.316.742 3.05t-.742 3.067a5.2 5.2 0 0 1-2.087 2.05q-1.344.716-3.076.716H7zM11.638 28q1.191 0 2.087-.483a3.4 3.4 0 0 0 1.392-1.4q.494-.917.494-2.117t-.495-2.1a3.26 3.26 0 0 0-1.39-1.4q-.898-.5-2.088-.5H9.01v8zm11.86 2q-2.241 0-3.494-1.35-1.251-1.367-1.252-3.9v-6.583h2.01v6.5q0 3.433 2.752 3.433 2.736 0 2.736-3.433v-6.5h1.98v6.583q0 2.534-1.253 3.9Q25.74 30 23.498 30" clip-rule="evenodd"/></svg>