<svg xmlns="http://www.w3.org/2000/svg" width="48" height="48" fill="none"><path id="icon" fill="currentColor" fill-rule="evenodd" d="M19.825 8c0-1.101.895-2 2.021-2h18.132c1.126 0 2.021.899 2.021 2v2.59a1 1 0 0 0 2.001 0V8c0-2.219-1.804-4-4.022-4H21.846c-2.218 0-4.022 1.781-4.022 4v32c0 2.219 1.804 4 4.022 4h18.132C42.196 44 44 42.219 44 40V17.59a1 1 0 0 0-2 0V40c0 1.101-.896 2-2.022 2H21.846a2.007 2.007 0 0 1-2.021-2zm-5.915.457a1 1 0 1 0-.507-1.934l-6.416 1.68A3.99 3.99 0 0 0 4.14 13.1l7.736 28.64a1 1 0 0 0 1.931-.522L6.07 12.58a1.99 1.99 0 0 1 1.422-2.441z" clip-rule="evenodd"/></svg>