<svg xmlns="http://www.w3.org/2000/svg" width="48" height="48" fill="none"><path id="icon" fill="currentColor" fill-rule="evenodd" d="M24 43.09C13.455 43.09 4.91 34.546 4.91 24c0-3.248.809-6.31 2.243-8.979a.955.955 0 0 0-1.681-.904A20.8 20.8 0 0 0 3 24c0 11.6 9.4 21 21 21s21-9.4 21-21S35.6 3 24 3c-3.619 0-7.03.92-10.01 2.54a.955.955 0 0 0 .911 1.678 19 19 0 0 1 9.1-2.309c10.545 0 19.09 8.546 19.09 19.091s-8.545 19.09-19.09 19.09M16.223 23c-.675 0-1.223.448-1.223 1s.547 1 1.223 1h15.554c.675 0 1.223-.448 1.223-1s-.548-1-1.223-1z" clip-rule="evenodd"/></svg>