<svg xmlns="http://www.w3.org/2000/svg" width="48" height="48" fill="none"><path id="icon" fill="currentColor" fill-rule="evenodd" d="M4 11.64C4 9.536 5.524 8 7.2 8l25.14.02a1 1 0 1 0 0-2L7.2 6C4.236 6 2 8.624 2 11.64v4.47a3.01 3.01 0 0 0 2.177 2.88C6.091 19.561 7.6 21.538 7.6 24s-1.51 4.439-3.423 5.01A3 3 0 0 0 2 31.89v4.47C2 39.376 4.236 42 7.2 42h33.6c2.964 0 5.2-2.624 5.2-5.64v-4.47a3.01 3.01 0 0 0-2.177-2.879C41.91 28.439 40.4 26.461 40.4 24c0-2.463 1.501-4.439 3.422-5.01A3 3 0 0 0 46 16.11v-4.47C46 8.624 43.764 6 40.8 6a1 1 0 1 0 0 2c1.676 0 3.2 1.536 3.2 3.64v4.47c0 .44-.29.83-.74.96l-.005.001c-2.858.85-4.855 3.673-4.855 6.929s2.009 6.08 4.854 6.928l.007.002c.445.13.739.528.739.96v4.47c0 2.104-1.524 3.64-3.2 3.64H7.2C5.524 40 4 38.464 4 36.36v-4.47c0-.44.29-.83.74-.96l.006-.002C7.59 30.08 9.6 27.258 9.6 24s-2.009-6.08-4.854-6.928l-.007-.002A1.01 1.01 0 0 1 4 16.11zm25 4.39a1 1 0 1 0-2 0v16.05a1 1 0 1 0 2 0z" clip-rule="evenodd"/></svg>