<svg xmlns="http://www.w3.org/2000/svg" width="48" height="48"><path id="icon" fill="currentColor" fill-rule="evenodd" d="M5.179 25.007a35 35 0 0 1-.9-1.007c.268-.312.642-.735 1.112-1.234a41.6 41.6 0 0 1 4.394-4.04c3.735-2.958 8.76-5.8 14.215-5.8s10.48 2.842 14.215 5.8a41.6 41.6 0 0 1 4.394 4.04c.47.5.844.922 1.111 1.234-.267.312-.64.735-1.11 1.234a41.6 41.6 0 0 1-4.395 4.04c-3.735 2.958-8.76 5.8-14.215 5.8-3.367 0-6.578-1.085-9.432-2.622a1.02 1.02 0 0 0-1.36.37.944.944 0 0 0 .384 1.311C16.638 35.773 20.188 37 24 37c6.145 0 11.62-3.177 15.485-6.238a43.5 43.5 0 0 0 4.606-4.234 37 37 0 0 0 1.588-1.8l.056-.069.031-.038.024-.03.006-.008.002-.003a.936.936 0 0 0 0-1.16l-.002-.003-.006-.008-.024-.03-.087-.108a37.208 37.208 0 0 0-1.588-1.799 43.5 43.5 0 0 0-4.606-4.234C35.62 14.177 30.145 11 24 11s-11.62 3.177-15.485 6.238a43.5 43.5 0 0 0-4.606 4.234 37 37 0 0 0-1.588 1.8l-.087.107-.023.03-.007.008-.002.003a.936.936 0 0 0 0 1.16l.002.002.005.008.02.025.076.095q.1.122.289.347c.25.298.619.721 1.093 1.232a44 44 0 0 0 4.029 3.822c.417.348 1.049.304 1.41-.098a.94.94 0 0 0-.102-1.358 42 42 0 0 1-3.845-3.648M2.2 23.42 3 24zM3 24c-.8.579-.799.58-.799.58zm42.799-.58L45 24c.8-.579.8-.579.799-.58M45 24l.799.58zm-28 0c0-3.724 3.132-6.74 7-6.74 1.68 0 3.22.571 4.43 1.517a1.026 1.026 0 0 0 1.407-.14.94.94 0 0 0-.147-1.355A9.22 9.22 0 0 0 24 15.333c-4.972 0-9 3.879-9 8.667s4.028 8.667 9 8.667 9-3.879 9-8.667c0-.532-.448-.963-1-.963s-1 .431-1 .963c0 3.724-3.132 6.74-7 6.74s-7-3.016-7-6.74m7 2.889c1.657 0 3-1.293 3-2.889a2.8 2.8 0 0 0-.132-.85c-.235.5-.76.85-1.368.85-.828 0-1.5-.647-1.5-1.445 0-.586.363-1.09.883-1.317a3.1 3.1 0 0 0-.883-.127c-1.657 0-3 1.293-3 2.889s1.343 2.889 3 2.889" clip-rule="evenodd"/></svg>