<svg xmlns="http://www.w3.org/2000/svg" width="48" height="48" fill="none"><path id="icon" fill="currentColor" fill-rule="evenodd" d="M24.702.295a1 1 0 0 0-1.414 0l-5.999 6.008a1 1 0 0 0 1.415 1.413l4.291-4.298v27.624a1 1 0 1 0 2 0V3.418l4.29 4.298a1 1 0 1 0 1.416-1.413zM10.19 14.005c-1.206 0-2.19.985-2.19 2.199v23.592c0 1.214.984 2.2 2.19 2.2H37.81c1.206 0 2.19-.986 2.19-2.2V16.204c0-1.214-.984-2.2-2.19-2.2h-7.438c-.552 0-1-.448-1-1.002 0-.553.448-1.002 1-1.002h7.438C40.124 12 42 13.885 42 16.204v23.592C42 42.115 40.124 44 37.811 44H10.19C7.876 44 6 42.115 6 39.796V16.204C6 13.885 7.876 12 10.189 12h7.438a1.001 1.001 0 0 1 0 2.005z" clip-rule="evenodd"/></svg>