<svg xmlns="http://www.w3.org/2000/svg" width="48" height="48" fill="none"><path id="icon" fill="currentColor" d="M25.805 44h-.077a1.96 1.96 0 0 1-1.78-1.312l-4.982-13.92-13.802-6.262A1.99 1.99 0 0 1 4 20.665a2 2 0 0 1 1.231-1.804l7.762-3.174a.963.963 0 0 1 .721 1.785l-7.761 3.174-.395.984.395-.878 13.764 6.222c.49.222.865.637 1.048 1.138l4.983 13.921h.096L42.06 6l-.432-.964.365.897-20.506 8.374a.955.955 0 0 1-1.25-.531.963.963 0 0 1 .528-1.254l20.507-8.374a1.97 1.97 0 0 1 2.174.463c.567.589.711 1.447.375 2.19L27.604 42.833A1.96 1.96 0 0 1 25.805 44"/></svg>