<svg xmlns="http://www.w3.org/2000/svg" width="48" height="48" fill="none"><path id="icon" fill="currentColor" fill-rule="evenodd" d="M24.592 5.172c.92-.92 2.629-.94 3.829.26l2.646 2.647a.7.7 0 0 1 .106.827c-1.22 2.261-.716 5.2 1.258 7.173 1.975 1.976 4.916 2.479 7.178 1.255l.003-.001a.67.67 0 0 1 .812.103l2.653 2.653c1.19 1.19 1.181 2.9.26 3.83l-.002.002-19.917 19.917c-.92.92-2.629.94-3.829-.26l-2.646-2.647a.7.7 0 0 1-.106-.827c1.22-2.261.716-5.2-1.258-7.173-1.975-1.975-4.916-2.479-7.178-1.255l-.003.001a.67.67 0 0 1-.812-.103L4.933 28.92c-1.19-1.19-1.181-2.9-.26-3.83l.002-.002 14.914-14.894a1 1 0 1 0-1.413-1.415L3.258 23.677l-.003.003c-1.824 1.837-1.574 4.817.263 6.655l2.644 2.644c.86.872 2.16 1.017 3.192.455 1.408-.76 3.398-.502 4.811.91 1.413 1.414 1.672 3.405.91 4.813l-.004.007c-.545 1.029-.401 2.322.457 3.18l2.647 2.648c1.848 1.847 4.83 2.088 6.657.26l19.92-19.92.003-.002c1.824-1.838 1.574-4.817-.263-6.655l-2.64-2.64-.004-.004c-.86-.872-2.16-1.017-3.192-.455-1.407.76-3.398.502-4.811-.911s-1.672-3.405-.91-4.812l.004-.007c.545-1.029.401-2.322-.457-3.181l-2.647-2.647c-1.848-1.847-4.83-2.088-6.657-.26a1 1 0 0 0 1.414 1.414M22.356 16.7a1 1 0 0 0-1.414 1.414l9.514 9.514a1 1 0 0 0 1.414-1.414z" clip-rule="evenodd"/></svg>