<svg xmlns="http://www.w3.org/2000/svg" width="48" height="48" fill="currentColor"><g id="icon"><path id="Union" fill-rule="evenodd" d="M4 10c0-1.108.892-2 2-2h25a1 1 0 1 0 0-2H6c-2.212 0-4 1.788-4 4v28c0 2.212 1.788 4 4 4h36c2.212 0 4-1.788 4-4V10c0-2.212-1.788-4-4-4h-3.21a1 1 0 1 0 0 2H42c1.108 0 2 .892 2 2v23.28l-5.965-4.902a2.996 2.996 0 0 0-4.022.195l-1.72 1.72a1 1 0 0 0 1.414 1.414l1.72-1.72a.996.996 0 0 1 1.338-.065l7.19 5.91.045.035V38c0 1.108-.892 2-2 2h-4.586L22.721 25.306l-.03-.028-6.504-6.505a2.997 2.997 0 0 0-4.334.091L4 27.43zm11.325 17.22a10.17 10.17 0 0 0 5.093-1.388l-5.645-5.645a.997.997 0 0 0-1.446.029l-4.63 5.05q.107.07.306.19c.29.172.722.407 1.27.649a1 1 0 0 1-.806 1.83 14 14 0 0 1-1.485-.76 10 10 0 0 1-.52-.33l-.033-.024-.01-.007-.003-.002-.003-.002.497-.685-.497.685a1 1 0 0 1-.076-.061L4 30.389V38c0 1.108.892 2 2 2h28.586L21.875 27.289c-2.251 1.416-4.505 1.921-6.54 1.931a1 1 0 0 1-.01-2M30 17a2 2 0 1 1 4 0 2 2 0 0 1-4 0m2-4a4 4 0 1 0 0 8 4 4 0 0 0 0-8" clip-rule="evenodd"/></g></svg>