<svg xmlns="http://www.w3.org/2000/svg" width="48" height="48" fill="none"><path id="icon" fill="currentColor" fill-rule="evenodd" d="M25.006 3a1 1 0 0 0-2.001 0v3.035a1 1 0 0 0 2 0zm0 6.51a1 1 0 0 0-2.001 0v6.51a1 1 0 0 0 2 0zM16.36 3.33a1 1 0 0 1 1.285.592l4.339 11.751a1 1 0 1 1-1.878.693L15.767 4.614a1 1 0 0 1 .593-1.284m-5.268 3.974A1 1 0 0 0 9.568 8.6l3.467 4.074a1.001 1.001 0 0 0 1.524-1.296zm4.642 6.995a1 1 0 0 1 1.41.114l1.359 1.597a1 1 0 1 1-1.525 1.296l-1.359-1.598a1 1 0 0 1 .115-1.41M6.03 12.634a1 1 0 0 0-.99 1.739l10.401 5.91a1 1 0 0 0 .99-1.738zM2.015 20.18a1 1 0 0 1 1.159-.813l4.957.869a1 1 0 1 1-.346 1.97l-4.957-.869a1 1 0 0 1-.813-1.157m8.518.465a1 1 0 0 0-.345 1.97l5.535.969a1 1 0 1 0 .345-1.97zM6.52 27.04a1 1 0 0 1-.815 1.157l-2.534.44a1 1 0 1 1-.343-1.97l2.535-.44a1 1 0 0 1 1.157.813m7.104-2.251.036-.006 2.065-.354a1 1 0 1 1 .339 1.97l-2.099.36q-.015.004-.031.006l-5.42.942a1 1 0 1 1-.344-1.97zm2.805 4.67a1 1 0 1 0-.989-1.74l-10.4 5.911a1 1 0 1 0 .989 1.739zm1.958 1.124a1 1 0 0 1 .115 1.41l-7.441 8.746a1.001 1.001 0 0 1-1.525-1.296l7.441-8.746a1 1 0 0 1 1.41-.114m1.973 6.15a1 1 0 1 0-1.877-.693l-2.716 7.349a1 1 0 1 0 1.877.693zm1.042-5.677a1 1 0 0 1 .59 1.285l-.466 1.258a1 1 0 0 1-1.876-.694l.466-1.259a1 1 0 0 1 1.286-.59m3.603.938a1 1 0 0 0-2.001 0v13.01a1 1 0 0 0 2 0zm5.06 8.407a1 1 0 0 1 1.285.593l.882 2.396a1 1 0 1 1-1.878.69l-.882-2.396a1 1 0 0 1 .593-1.283m-2.172-8.754a1 1 0 0 0-1.878.693l2.17 5.871a1 1 0 0 0 1.877-.693zm1.717-1.063a1 1 0 0 1 1.41.113l7.451 8.746a1 1 0 1 1-1.523 1.296l-7.451-8.746a1 1 0 0 1 .113-1.41m7.449-.308a1.001 1.001 0 0 0-.99 1.738l5.9 3.355a1 1 0 0 0 .99-1.738zm-5.866-2.18a1 1 0 0 1 1.364-.377l1.55.879a1 1 0 1 1-.986 1.74l-1.551-.879a1 1 0 0 1-.377-1.363m1.092-3.667a1 1 0 1 0-.342 1.97l12.884 2.237a1 1 0 1 0 .342-1.97zm13.698-4.252a1 1 0 0 1-.81 1.16l-1.743.31a1 1 0 1 1-.35-1.97l1.743-.31a1 1 0 0 1 1.16.81m-5.953 2.06a1 1 0 1 0-.343-1.971l-7.745 1.348a1 1 0 1 0 .343 1.97zm3.304-9.228a1 1 0 0 1-.375 1.364l-4.147 2.356a1 1 0 0 1-.989-1.739l4.146-2.356a1 1 0 0 1 1.365.375m-7.188 5.238a1 1 0 1 0-.988-1.74l-3.589 2.037a1 1 0 1 0 .988 1.74zM38.359 7.15a1 1 0 0 1 .113 1.41l-7.45 8.746a1 1 0 0 1-1.524-1.297l7.45-8.746c.359-.42.99-.471 1.411-.113m-6.127-2.537a1 1 0 1 0-1.877-.692l-4.339 11.751a1 1 0 1 0 1.878.693z" clip-rule="evenodd"/></svg>