<svg xmlns="http://www.w3.org/2000/svg" width="48" height="48" fill="none"><path id="icon" fill="currentColor" fill-rule="evenodd" d="M24 2.001c-2.602 0-5.046.665-7.177 1.821a1 1 0 0 0 .954 1.758A13 13 0 0 1 24 4.001c7.178 0 13 5.823 13 13 0 2.25-.925 4.596-1.71 6.438-.37.867-2.959 5.854-5.498 10.7a2952 2952 0 0 1-4.528 8.604l-.408.771a1 1 0 0 1-1.713-.002l-.402-.753a2235 2235 0 0 1-4.474-8.439c-2.52-4.788-5.105-9.765-5.55-10.864l-.001-.003C11.764 21.125 11 19.253 11 17c0-2.946.975-5.664 2.626-7.834a1 1 0 1 0-1.592-1.211A14.9 14.9 0 0 0 9 17c0 2.65.896 4.84 1.805 7.062l.058.144.927-.376-.926.378c.496 1.222 3.15 6.328 5.634 11.043a1849 1849 0 0 0 4.478 8.448l.412.773.011.02.006.01c1.155 1.995 4.035 1.995 5.19 0l.008-.014.011-.021.419-.791a3428 3428 0 0 0 4.53-8.61c2.506-4.782 5.156-9.88 5.567-10.844.775-1.817 1.87-4.512 1.87-7.222 0-8.282-6.718-15-15-15m1.73 42 .884.467zm-5.73-27c0-2.208 1.793-4 4-4a1 1 0 1 0 0-2c-3.312 0-6 2.688-6 6 0 3.313 2.688 6 6 6 3.313 0 6-2.687 6-6a1 1 0 1 0-2 0c0 2.208-1.792 4-4 4-2.207 0-4-1.792-4-4" clip-rule="evenodd"/></svg>