<svg xmlns="http://www.w3.org/2000/svg" width="48" height="48" fill="none"><path id="icon" fill="currentColor" fill-rule="evenodd" d="M18 3c-3.909 0-7 3.318-7 7.32v3.496c0 3.993 3.092 7.31 7 7.31s7-3.318 7-7.32V10.32C25 6.318 21.909 3 18 3m-5 7.32C13 7.326 15.289 5 18 5s5 2.327 5 5.32v3.486c0 2.993-2.289 5.319-5 5.319-2.712 0-5-2.327-5-5.309zm5 15.19c-5.898 0-10.849 4.393-11.936 10.267 2.765 3.176 6.661 5.24 11.025 5.493q.453.026.911.026h.007c.986 0 2.394-.003 3.67-.236.637-.116 1.193-.282 1.624-.503.429-.221.677-.467.803-.72a1 1 0 0 1 .197-.271A10.45 10.45 0 0 1 23 34.5C23 28.701 27.701 24 33.5 24a1 1 0 1 1 0 2 8.5 8.5 0 1 0 8.5 8.5 8.46 8.46 0 0 0-1.847-5.291 1 1 0 1 1 1.564-1.247A10.46 10.46 0 0 1 44 34.5C44 40.299 39.299 45 33.5 45c-3.197 0-6.06-1.429-7.986-3.683-.36.442-.819.772-1.298 1.019-.67.345-1.436.557-2.18.693-1.47.268-3.044.268-4.01.268H18c-5.53 0-10.455-2.57-13.77-6.581a1 1 0 0 1-.209-.853C5.096 28.893 10.911 23.51 18 23.51c1.52 0 2.987.25 4.356.706a1 1 0 0 1-.632 1.898A11.8 11.8 0 0 0 18 25.509m15.5 3.99c.452 0 1 .316 1 .908v5.184c0 .592-.548.908-1 .908s-1-.316-1-.908v-5.184c0-.592.548-.908 1-.908m0 8a1 1 0 1 1 0 2 1 1 0 0 1 0-2" clip-rule="evenodd"/></svg>