<svg xmlns="http://www.w3.org/2000/svg" width="48" height="48" fill="none"><path id="icon" fill="currentColor" fill-rule="evenodd" d="M22.514 5.528a3.36 3.36 0 0 0-1.068 4.68l.119.184-1.668 2.085a1.02 1.02 0 0 0 .175 1.448 1.06 1.06 0 0 0 1.472-.174l1.191-1.49 12.54 19.476L11.2 37.181l-3.74-5.81 9.87-12.347a1.02 1.02 0 0 0-.175-1.448 1.06 1.06 0 0 0-1.472.174L5.3 30.735l-1.878 1.212a3.065 3.065 0 0 0-.934 4.244l2.188 3.398c.94 1.459 2.911 1.877 4.38.929l1.758-1.134 4.262-.964.513 2.277c.36 1.594 1.96 2.592 3.573 2.228a1.04 1.04 0 0 0 .793-1.239 1.04 1.04 0 0 0-1.248-.778.9.9 0 0 1-1.078-.672l-.513-2.277 13.169-2.977.256 1.136c.251 1.114-.459 2.223-1.585 2.477l-5.496 1.24a1.04 1.04 0 0 0-.792 1.24 1.04 1.04 0 0 0 1.247.777l5.496-1.24c2.253-.509 3.673-2.727 3.17-4.954l-.256-1.138 4.17-.942.032.05c1.018 1.58 3.146 2.05 4.754 1.046a3.36 3.36 0 0 0 1.069-4.679L27.27 6.575c-1.019-1.582-3.148-2.05-4.756-1.047m.703 3.574a1.316 1.316 0 0 1 .419-1.832 1.36 1.36 0 0 1 1.862.41l15.08 23.42c.399.62.212 1.44-.418 1.832s-1.463.21-1.862-.41zM4.571 33.67l1.066-.688 3.31 5.14-1.04.67a1.06 1.06 0 0 1-1.46-.309L4.26 35.086a1.02 1.02 0 0 1 .312-1.415M42.55 14.348a.987.987 0 0 0 .283-1.387 1.036 1.036 0 0 0-1.417-.277l-3.133 1.93A.987.987 0 0 0 38 16c.313.46.948.584 1.417.277zm3.447 7.275a1.01 1.01 0 0 1-.954 1.062L41.5 23a1.015 1.015 0 0 1-1.086-.934 1.01 1.01 0 0 1 .954-1.062l3.543-.315a1.015 1.015 0 0 1 1.086.934m-9.43-14.18a.99.99 0 0 0-.463-1.34 1.033 1.033 0 0 0-1.37.454l-1.566 3.057a.99.99 0 0 0 .463 1.34A1.033 1.033 0 0 0 35 10.5z" clip-rule="evenodd"/></svg>