<svg xmlns="http://www.w3.org/2000/svg" width="48" height="48" fill="none"><path id="icon" fill="currentColor" fill-rule="evenodd" d="M40.255 9.715a.996.996 0 0 0 .024-1.41 1 1 0 0 0-1.414-.025l-5.297 5.109c-2.866-1.43-6.112-2.438-9.568-2.438-6.134 0-11.604 3.177-15.472 6.245a43.6 43.6 0 0 0-4.607 4.242 37 37 0 0 0-1.59 1.803l-.087.109-.023.03-.007.008-.003.003a1 1 0 0 0-.012 1.21l.002.004.007.009.022.03a16 16 0 0 0 .405.51c.28.342.69.826 1.22 1.406a41 41 0 0 0 4.518 4.25 34 34 0 0 0 4.145 2.87l-4.773 4.605a.996.996 0 0 0-.024 1.41 1 1 0 0 0 1.414.025l5.231-5.046c2.855 1.402 6.111 2.384 9.634 2.384 6.134 0 11.604-3.176 15.472-6.244a43.5 43.5 0 0 0 4.607-4.243 37 37 0 0 0 1.59-1.803l.035-.043.027-.034.025-.031.023-.03.007-.008.002-.003a1 1 0 0 0 0-1.228l-.002-.003-.007-.009-.023-.03-.048-.06-.04-.048a37.318 37.318 0 0 0-1.59-1.803 43.5 43.5 0 0 0-4.606-4.242 36 36 0 0 0-4.064-2.806zm-8.22 5.152c-.72-.335-1.46-.637-2.217-.897q-.054.076-.123.143l-2.798 2.699c.722.27 1.393.639 1.996 1.086zM18.376 30.81A9.2 9.2 0 0 0 24 32.718c4.94 0 9-3.867 9-8.713a.999.999 0 0 0-2 0c0 3.68-3.1 6.718-7 6.718a7.2 7.2 0 0 1-4.166-1.318l2.8-2.697a3.08 3.08 0 0 0 3.426-.292c1.132-.92 1.39-2.468.675-3.661l7.178-6.923c1.57.886 3.02 1.9 4.315 2.926a41.5 41.5 0 0 1 4.393 4.046c.453.482.816.893 1.081 1.2-.265.309-.628.72-1.081 1.202a41.5 41.5 0 0 1-4.393 4.045c-3.732 2.96-8.762 5.811-14.228 5.811-2.898 0-5.629-.745-8.097-1.869zm-.706-2.094a7.8 7.8 0 0 1-1.126-1.924l-4.44 4.277c.613.406 1.251.798 1.913 1.167zM45 24.005l.789.613zm0 0c.79-.613.789-.613.789-.614zm-42.801.597L3 24.005c-.802.596-.802.596-.801.597m.012-1.21.789.613zm3.122 1.825a36 36 0 0 1-.532-.597l1.894-1.826 6.96-6.713c2.136-1.253 4.507-2.285 7.019-2.793l-7.369 7.107-6.54 6.308a39 39 0 0 1-1.432-1.486m18.524-12.27a1 1 0 0 1-.162.203l-10 9.644-5.47 5.276a37 37 0 0 0 2.23 1.83 1 1 0 0 1 .1-.113l5.463-5.263a8 8 0 0 1-.018-.52c0-4.262 3.58-7.715 8-7.715q.274 0 .543.018l3.068-2.959a17 17 0 0 0-3.754-.4" clip-rule="evenodd"/></svg>