<svg xmlns="http://www.w3.org/2000/svg" width="48" height="48" fill="none"><g id="icon" fill="currentColor"><path d="M21.396 8.512c1.151-2.016 4.059-2.016 5.21 0l2.247 3.935a1 1 0 1 0 1.737-.992L28.343 7.52c-1.92-3.36-6.765-3.36-8.684 0L3.669 35.522c-1.904 3.333.503 7.48 4.341 7.48h31.982c3.838 0 6.245-4.147 4.342-7.48l-8.024-14.05a1 1 0 0 0-1.737.991l8.024 14.05c1.142 2-.302 4.489-2.605 4.489H8.01c-2.303 0-3.747-2.488-2.605-4.488z"/><path d="M24.01 16.007c.553 0 1 .426 1 .951v12.093c0 .525-.447.95-1 .95s-1-.425-1-.95V16.958c0-.525.447-.95 1-.95M22.76 34.75a1.25 1.25 0 1 1 2.5.001 1.25 1.25 0 0 1-2.5 0"/></g></svg>