<svg xmlns="http://www.w3.org/2000/svg" width="58" height="58" fill="none"><path id="icon" fill="currentColor" fill-rule="evenodd" d="M4.833 12.583a2.41 2.41 0 0 1 2.417-2.416h30.208a1.208 1.208 0 0 0 0-2.417H7.25a4.83 4.83 0 0 0-4.833 4.833v33.834A4.83 4.83 0 0 0 7.25 51.25h43.5a4.83 4.83 0 0 0 4.833-4.833V12.583A4.83 4.83 0 0 0 50.75 7.75H46.87a1.208 1.208 0 1 0 0 2.417h3.879a2.41 2.41 0 0 1 2.416 2.416v28.131l-7.207-5.925a3.62 3.62 0 0 0-4.86.237l-2.079 2.078a1.208 1.208 0 1 0 1.71 1.709l2.078-2.079c.44-.44 1.139-.47 1.616-.078l8.688 7.142.054.042v2.577a2.41 2.41 0 0 1-2.416 2.416h-5.541L27.454 31.08l-.035-.035-7.86-7.86a3.62 3.62 0 0 0-5.237.11l-9.489 10.35zm13.685 20.808c1.905-.01 4.009-.444 6.154-1.677l-6.822-6.821a1.205 1.205 0 0 0-1.747.034L10.51 31.03q.13.085.37.23c.35.208.872.493 1.534.784a1.208 1.208 0 0 1-.974 2.212 17 17 0 0 1-1.794-.919 12 12 0 0 1-.629-.4l-.039-.027-.012-.009-.004-.003-.003-.002.6-.828-.6.828a1 1 0 0 1-.092-.073L4.833 37.22v9.197a2.41 2.41 0 0 0 2.417 2.416H41.79l-15.36-15.359c-2.719 1.712-5.443 2.322-7.902 2.334a1.208 1.208 0 0 1-.011-2.417M36.25 21.04a2.417 2.417 0 1 1 4.833 0 2.417 2.417 0 0 1-4.833 0m2.416-4.833a4.833 4.833 0 1 0 0 9.667 4.833 4.833 0 0 0 0-9.667" clip-rule="evenodd"/></svg>