<svg xmlns="http://www.w3.org/2000/svg" width="48" height="48" fill="none"><path id="icon" fill="currentColor" d="M29.252 29.637c0 4.69 3.755 8.489 8.389 8.489s8.39-3.8 8.39-8.49-3.756-8.489-8.39-8.489a8.3 8.3 0 0 0-3.997 1.027.787.787 90 0 1-1.074-.321.806.806 90 0 1 .317-1.087 9.8 9.8 90 0 1 4.754-1.22c1.174 0 2.3.204 3.346.581V9.618h-4.362a.804.804 90 0 1-.801-.808c0-.446.359-.807.801-.807h4.363V6.678c0-2.567-1.877-4.51-4.014-4.51H6.18c-2.146 0-4.014 1.942-4.014 4.51v1.325h28.76c.442 0 .801.361.801.807a.805.805 0 0 1-.801.808H2.166v18.56c0 2.569 1.868 4.51 4.014 4.51h17.544c.492 0 .89.402.89.899a.893.893 0 0 1-.89.897H6.18c-3.279 0-5.795-2.902-5.795-6.305V6.678C.386 3.275 2.902.372 6.181.372h30.793c3.267 0 5.795 2.902 5.795 6.306v13.78a.9.9 0 0 1-.12.45 10.11 10.11 90 0 1 4.965 8.729c0 5.574-4.464 10.09-9.972 10.09s-9.973-4.516-9.973-10.09c0-1.713.423-3.335 1.174-4.75a.787.787 90 0 1 1.072-.326c.385.21.53.695.323 1.085a8.5 8.5 90 0 0-.985 3.991m-.097-4.58a.5.5 90 0 1 .084-.111.5.5 90 0 0-.07.096 9.74 9.74 90 0 0-1.13 4.58c0 5.376 4.304 9.733 9.617 9.733a9.53 9.53 0 0 0 6.794-2.844 9.53 9.53 0 0 1-6.809 2.859c-5.313 0-9.618-4.357-9.618-9.733 0-1.654.408-3.216 1.132-4.58m3.726-3.375a.45.45 90 0 1 .082-.531.45.45 90 0 0-.067.516.435.435 90 0 0 .592.177 8.6 8.6 90 0 1 4.168-1.07c4.83 0 8.743 3.961 8.743 8.848 0 2.447-.98 4.662-2.567 6.263a8.87 8.87 90 0 0 2.552-6.248c0-4.888-3.913-8.848-8.743-8.848a8.6 8.6 0 0 0-4.167 1.07.435.435 90 0 1-.593-.177m.96 11.798a.92.92 90 0 1 .002-1.292l2.52-2.545-2.506-2.542a.92.92 90 0 1 .002-1.292.895.895 90 0 1 1.277 0l2.502 2.54 2.506-2.554a.895.895 90 0 1 1.277-.004.92.92 90 0 1 .005 1.293l-2.507 2.553 2.518 2.532a.92.92 90 0 1 .004 1.292.895.895 90 0 1-1.276.004l-2.521-2.534-2.525 2.55a.895.895 90 0 1-1.277 0M5.932 6.415a1.073 1.073 90 1 0 0-2.146 1.073 1.073 90 0 0 0 2.146m4.651-1.073a1.073 1.073 90 1 1-2.147 0 1.073 1.073 90 0 1 2.147 0m2.505 1.073a1.073 1.073 90 1 0 0-2.146 1.073 1.073 90 0 0 0 2.146"/></svg>