<svg xmlns="http://www.w3.org/2000/svg" width="48" height="48" fill="none"><path id="icon" fill="currentColor" fill-rule="evenodd" d="M14.689 6.96c0-1.148.935-2.078 2.09-2.078s2.09.93 2.09 2.079c0 1.148-.936 2.08-2.09 2.08-1.155 0-2.09-.932-2.09-2.08m2.09-4.068c-2.26 0-4.09 1.822-4.09 4.069s1.83 4.069 4.09 4.069c2.258 0 4.09-1.822 4.09-4.07 0-2.246-1.832-4.068-4.09-4.068m-3.693 13.812c-.304-2.433 1.6-4.58 4.062-4.58 2.06 0 3.807 1.523 4.062 3.564l1.602 11.827h6.526c.809 0 1.585.31 2.167.888l5.903 5.873 2.383-2.37a1.004 1.004 0 0 1 1.414 0 .99.99 0 0 1 0 1.406l-3.09 3.074a1.004 1.004 0 0 1-1.414 0l-6.61-6.576a1.05 1.05 0 0 0-.753-.305h-11.81a3.066 3.066 0 0 1-3.041-2.665zm7.708 10.811h-3.266c-.534 0-.99-.4-1.058-.93l-1.4-10.132a2.088 2.088 0 0 1 2.078-2.339c1.058 0 1.95.782 2.078 1.822zM9.798 23.032a.99.99 0 0 1 .366 1.359c-3.423 5.901-1.388 13.45 4.544 16.857s13.52 1.381 16.944-4.52a1.003 1.003 0 0 1 1.366-.365.99.99 0 0 1 .366 1.36c-3.976 6.852-12.787 9.204-19.676 5.248C6.82 39.016 4.456 30.25 8.432 23.396a1.003 1.003 0 0 1 1.366-.364" clip-rule="evenodd"/></svg>