<svg xmlns="http://www.w3.org/2000/svg" width="48" height="48" fill="none"><g id="icon"><path id="Union" fill="currentColor" fill-rule="evenodd" d="M18 5c-1.652 0-3 1.348-3 3v1H6.73A4.73 4.73 0 0 0 2 13.73V28c0 1.302.837 2.415 2 2.828v7.752A4.42 4.42 0 0 0 8.42 43h23.22a1 1 0 1 0 0-2H8.42A2.42 2.42 0 0 1 6 38.58V31h6v4a1 1 0 1 0 2 0v-4h2a1 1 0 1 0 0-2h-2v-5a1 1 0 1 0-2 0v5H5c-.548 0-1-.452-1-1V13.73A2.73 2.73 0 0 1 6.73 11h18.78a1 1 0 1 0 0-2H17V8c0-.548.452-1 1-1h12c.548 0 1 .452 1 1v1h-.49a1 1 0 1 0 0 2H42.2c.997 0 1.8.802 1.8 1.8V28c0 .548-.453 1-1 1h-7v-5a1 1 0 1 0-2 0v5H21a1 1 0 1 0 0 2h13v4a1 1 0 1 0 2 0v-4h6v7.58A2.42 2.42 0 0 1 39.58 41h-1.56a1 1 0 1 0 0 2h1.56A4.42 4.42 0 0 0 44 38.58v-7.752A3.01 3.01 0 0 0 46 28V12.8c0-2.102-1.698-3.8-3.8-3.8H33V8c0-1.652-1.348-3-3-3z" clip-rule="evenodd"/></g></svg>