<svg viewBox="0 0 32 32" aria-hidden="true" fill="#626262" xmlns="http://www.w3.org/2000/svg"><path d="M21.5 15.49a4.833 4.833 0 1 1 0 9.667 4.833 4.833 0 0 1 0-9.667zm-5.578 6.02a.5.5 0 0 1-.126.645l-.057.038-3.591 2.073a1.676 1.676 0 0 1-2.29-.613.5.5 0 0 1 .828-.557l.038.057a.675.675 0 0 0 .858.28l.066-.033 3.591-2.073a.5.5 0 0 1 .683.183zm5.578-5.02a3.833 3.833 0 1 0 0 7.666 3.833 3.833 0 0 0 0-7.666zm0 1.008a.5.5 0 0 1 .5.5v1.825h1.825l.068.005a.5.5 0 0 1-.068.996L22 20.823v1.826l-.005.067a.5.5 0 0 1-.995-.067v-1.826h-1.825l-.068-.004a.5.5 0 0 1 .068-.995l1.824-.001.001-1.825.005-.067a.5.5 0 0 1 .495-.433zm-8.543-6.276a.5.5 0 0 1-.126.645l-.057.038-5.822 3.361a.677.677 0 0 0-.281.859l.033.066 2.353 4.075a.5.5 0 0 1-.828.556l-.038-.056-2.353-4.075a1.677 1.677 0 0 1 .52-2.232l.094-.059 5.822-3.361a.5.5 0 0 1 .683.183zm5.098-3.338.064.025 5.874 2.722c.146.068.247.2.279.351l.01.077-.002.08-.393 3.638a.5.5 0 0 1-.997-.033l.003-.074.354-3.283-5.313-2.462-2.19 1.265a.5.5 0 0 1-.645-.127l-.038-.056a.5.5 0 0 1 .127-.645l.057-.038 2.414-1.394a.5.5 0 0 1 .396-.046zm3.77 4.308a1.511 1.511 0 0 1-.929 2.219.5.5 0 0 1-.317-.947l.065-.021a.51.51 0 0 0 .314-.751.51.51 0 0 0-.916.449l.03.062a.5.5 0 1 1-.866.5 1.512 1.512 0 0 1 2.618-1.511zm-6.158-5.025a.5.5 0 0 1 .068.995l-.068.005h-8.04a.676.676 0 0 0-.672.602l-.004.074v4.706a.5.5 0 0 1-.995.068l-.005-.068V8.843c0-.889.692-1.616 1.566-1.673l.11-.003h8.04z"/></svg>
