<svg width="10" height="10" viewBox="0 0 10 10" fill="none" xmlns="http://www.w3.org/2000/svg">
<path fill-rule="evenodd" clip-rule="evenodd" d="M0.423429 0.0725357C0.32316 -0.0276626 0.164515 -0.0235447 0.0690843 0.0817333C-0.0263463 0.187011 -0.0224244 0.353583 0.0778442 0.453781L4.44933 4.8222C4.55094 4.92375 4.55094 5.08152 4.44933 5.18306L4.44889 5.1835L0.10374 9.54666C0.00370259 9.64711 0.000163914 9.81369 0.0958365 9.91873C0.191509 10.0238 0.350164 10.0275 0.450201 9.92703L4.79491 5.56431L4.79514 5.56408C4.89174 5.46747 4.95813 5.35169 4.99431 5.22872C5.03122 5.35132 5.09824 5.4666 5.19546 5.5626L5.19569 5.56283L9.57732 9.90454C9.67799 10.0043 9.83662 9.99948 9.93162 9.89377C10.0266 9.78808 10.022 9.62152 9.92137 9.52177L5.53935 5.17967L5.53896 5.17929C5.43601 5.07772 5.43611 4.91825 5.53748 4.81695L9.91783 0.455096C10.0181 0.354897 10.022 0.188326 9.92659 0.0830478C9.83116 -0.0222302 9.67252 -0.0263481 9.57225 0.0738502L5.1919 4.4357C5.09535 4.53218 5.02893 4.64811 4.99276 4.77134C4.95622 4.65022 4.89027 4.53625 4.79491 4.44096L0.423429 0.0725357Z" fill="currentColor"/>
</svg>
