<svg width="25" height="24" viewBox="0 0 25 24" xmlns="http://www.w3.org/2000/svg"><g fill="none"><path d="M-6-6h36v35.809H-6z"/><path d="M-6-6h36v35.809H-6z"/><g fill="#E60039"><path d="M22.364 11.917l-3.633 3.957a.821.821 0 00.046 1.156.81.81 0 001.15-.046l4.143-4.512a.821.821 0 000-1.11l-4.143-4.513a.81.81 0 00-1.15-.046.821.821 0 00-.046 1.156l3.633 3.958z"/><path d="M6.714 12.722a.816.816 0 01-.813-.818c0-.452.364-.818.813-.818h16.277c.45 0 .814.366.814.818a.816.816 0 01-.814.818H6.714z"/><path d="M14.446 21.722v-4.909c0-.452.364-.818.814-.818.45 0 .814.366.814.818v5.728a.816.816 0 01-.814.818H1.425a.816.816 0 01-.814-.818V1.268A.815.815 0 011.425.45H15.26c.45 0 .814.366.814.818v5.727a.816.816 0 01-.814.818.816.816 0 01-.814-.818V2.086H2.238v19.636h12.208z"/></g></g></svg>