<svg xmlns="http://www.w3.org/2000/svg" width="317" height="198" viewBox="0 0 317 198"><path fill="#FFF" d="M166.492 30.339c3.424 0 6.446 2.075 7.51 5.121l.086.264 38.184 124.664c.09.295.134.593.134.886h65.769c1.891 0 3.424 1.43 3.424 3.194 0 1.7-1.425 3.09-3.223 3.188l-.201.005h-91.31c-1.89 0-3.423-1.43-3.423-3.193 0-1.701 1.425-3.091 3.223-3.188l.2-.006h18.625l-17.107-55.85-79.937 34.62-6.588 21.23h7.385c1.876 0 3.397 1.43 3.397 3.194 0 1.7-1.414 3.09-3.197 3.188l-.2.005H69.371c-1.876 0-3.396-1.43-3.396-3.193 0-1.701 1.414-3.091 3.197-3.188l.2-.006h25.567c0-.237.028-.476.087-.715l.05-.182 38.692-124.679c.957-3.085 3.901-5.234 7.288-5.354l.3-.005h25.136zM44.949 161.274c1.836 0 3.325 1.43 3.325 3.194 0 1.7-1.384 3.09-3.13 3.188l-.195.005h-6.223c-1.836 0-3.325-1.43-3.325-3.193 0-1.701 1.384-3.091 3.13-3.188l.195-.006h6.223zM182.185 85.19l-65.264 27.545-5.901 19.017 75.422-32.664-4.257-13.898zm-6.96-22.724l-49.824 22.942-6.012 19.374 60.922-25.71-5.086-16.606zm-8.733-25.74h-25.136c-.456 0-.862.258-1.038.645l-.046.12-12.254 39.484 45.266-20.843-5.707-18.637a1.114 1.114 0 00-.95-.762l-.135-.007z"/></svg>