<svg width="20" height="20" viewBox="0 0 20 20" fill="none" xmlns="http://www.w3.org/2000/svg">
<path fill-rule="evenodd" clip-rule="evenodd" d="M9.99935 18.3333C14.6017 18.3333 18.3327 14.6024 18.3327 9.99999C18.3327 5.39762 14.6017 1.66666 9.99935 1.66666C5.39698 1.66666 1.66602 5.39762 1.66602 9.99999C1.66602 14.6024 5.39698 18.3333 9.99935 18.3333ZM6.494 6.4935C6.81975 6.16837 7.34739 6.16889 7.67251 6.49464L9.99444 8.82109L12.3128 6.50799C12.6387 6.18293 13.1663 6.18353 13.4914 6.50934C13.8164 6.83515 13.8158 7.36279 13.49 7.68785L11.1749 9.99763L13.5033 12.3109C13.8298 12.6353 13.8315 13.1629 13.5071 13.4894C13.1828 13.8159 12.6551 13.8176 12.3286 13.4933L9.99929 11.179L7.6901 13.5039C7.36577 13.8304 6.83814 13.8322 6.5116 13.5079C6.18506 13.1836 6.18327 12.6559 6.5076 12.3294L8.8188 10.0025L6.49285 7.67201C6.16773 7.34625 6.16825 6.81862 6.494 6.4935Z" />
</svg>
