<svg width="48" height="48" viewBox="0 0 48 48" xmlns="http://www.w3.org/2000/svg"><path d="M24.138 15c6.271 0 11.807 3.146 13.886 7.811a2.92 2.92 0 010 2.379c-.596 1.335-1.487 2.567-2.626 3.642a.75.75 0 11-1.03-1.091c.998-.942 1.772-2.012 2.285-3.162a1.42 1.42 0 000-1.157c-1.822-4.09-6.805-6.922-12.515-6.922-5.71 0-10.693 2.832-12.514 6.921a1.42 1.42 0 000 1.158c1.821 4.09 6.805 6.921 12.514 6.921 2.375 0 4.654-.485 6.657-1.393a.75.75 0 01.619 1.366C29.215 32.47 26.725 33 24.138 33c-6.27 0-11.806-3.145-13.885-7.81a2.92 2.92 0 010-2.379c2.079-4.665 7.614-7.81 13.885-7.81zm0 4.45a4.55 4.55 0 110 9.103 4.55 4.55 0 010-9.104zm0 1.5a3.05 3.05 0 100 6.1 3.05 3.05 0 000-6.1z" fill="#151515" fill-rule="evenodd"/></svg>