<svg width="28" height="23" viewBox="0 0 28 23" xmlns="http://www.w3.org/2000/svg"><g fill="none"><path d="M-4-7h36v35.809H-4z"/><path d="M-4-7h36v35.809H-4z"/><path d="M3.364 22.298a.816.816 0 01-.819-.814V9.277c0-.45.367-.814.819-.814h21.272c.452 0 .819.364.819.814v12.207c0 .45-.367.814-.819.814H3.364zm.818-1.628h19.636V10.09H4.182v10.58z" fill="#000"/><path d="M16.455 21.891a.816.816 0 01-.819-.814v-7.731c0-.45.367-.814.819-.814h4.909c.452 0 .818.364.818.814v7.731c0 .45-.366.814-.818.814h-4.91zm4.09-1.22V14.16h-3.272v6.51h3.272zM6.636 18.229a.816.816 0 01-.818-.814v-4.07c0-.449.366-.813.818-.813h6.546c.452 0 .818.364.818.814v4.069c0 .45-.366.814-.818.814H6.636zm5.728-1.628V14.16h-4.91v2.44h4.91zM.91 10.09a.816.816 0 01-.82-.813v-4.07c0-.449.367-.813.82-.813h26.18c.453 0 .82.364.82.813v4.07c0 .45-.367.813-.82.813H.91zm.817-1.627h24.546V6.02H1.727v2.442z" fill="#000"/><path d="M3.364 6.021a.816.816 0 01-.819-.814V1.138c0-.45.367-.814.819-.814h21.272c.452 0 .819.365.819.814v4.07a.816.816 0 01-.819.813H3.364zm.818-1.627h19.636V1.952H4.182v2.442z" fill="#000"/></g></svg>