<svg width="25" height="24" viewBox="0 0 25 24" fill="none" xmlns="http://www.w3.org/2000/svg">
<path fill-rule="evenodd" clip-rule="evenodd" d="M19.0527 22C20.9857 22 22.5527 20.433 22.5527 18.5L22.5527 5.5C22.5527 3.567 20.9857 2 19.0527 2L6.05273 2C4.11974 2 2.55273 3.567 2.55273 5.5L2.55273 12C2.55273 12.2761 2.77659 12.5 3.05273 12.5C3.32888 12.5 3.55273 12.2761 3.55273 12L3.55273 5.5C3.55273 4.11929 4.67202 3 6.05273 3L19.0527 3C20.4334 3 21.5527 4.11929 21.5527 5.5L21.5527 18.5C21.5527 19.8807 20.4334 21 19.0527 21L6.05274 21C5.36733 21 4.74718 20.7248 4.29506 20.2778C3.83616 19.8241 3.55274 19.1956 3.55274 18.5C3.55274 18.2239 3.32888 18 3.05274 18C2.77659 18 2.55274 18.2239 2.55274 18.5C2.55274 19.4735 2.95087 20.355 3.59196 20.9889C4.22366 21.6135 5.09355 22 6.05274 22L19.0527 22ZM12.9123 7.00001C12.6251 7.00001 12.3922 7.23159 12.3922 7.51726C12.3922 7.80293 12.6251 8.03451 12.9123 8.03451H15.8309L7.70502 16.117C7.50194 16.319 7.50194 16.6465 7.70502 16.8485C7.9081 17.0505 8.23736 17.0505 8.44044 16.8485L16.5127 8.81935V11.4256C16.5127 11.7112 16.7455 11.9428 17.0327 11.9428C17.3199 11.9428 17.5527 11.7112 17.5527 11.4256V8.03451C17.5527 7.46317 17.0871 7.00001 16.5127 7.00001H12.9123Z" fill="white"/>
</svg>
