<svg width="48" height="48" viewBox="0 0 48 48" xmlns="http://www.w3.org/2000/svg"><path d="M14.794 14.147l.085.073L34.58 33.922a.75.75 0 01-.977 1.133l-.084-.073L13.818 15.28a.75.75 0 01.976-1.133zm.36 4.768a.75.75 0 01-.155 1.05c-1.528 1.134-2.688 2.533-3.375 4.075a1.42 1.42 0 000 1.158c1.821 4.09 6.805 6.921 12.514 6.921a16.73 16.73 0 003.937-.463.75.75 0 01.353 1.458 18.23 18.23 0 01-4.29.505c-6.27 0-11.806-3.145-13.885-7.81a2.92 2.92 0 010-2.379c.796-1.787 2.123-3.387 3.852-4.67a.75.75 0 011.05.155zm8.984-3.296c6.272 0 11.807 3.146 13.885 7.811a2.92 2.92 0 010 2.378c-.594 1.334-1.485 2.566-2.624 3.642-.378.357-.785.698-1.218 1.02a.75.75 0 01-.896-1.202c.387-.288.749-.591 1.083-.908 1-.943 1.774-2.014 2.285-3.162a1.42 1.42 0 000-1.157c-1.822-4.09-6.805-6.922-12.515-6.922-1.242 0-2.464.134-3.64.394a.75.75 0 01-.324-1.465 18.385 18.385 0 013.964-.429zm-3.8 8.25a.75.75 0 01.75.75 3.05 3.05 0 003.05 3.051.75.75 0 110 1.5 4.55 4.55 0 01-4.55-4.55.75.75 0 01.75-.75zm3.8-3.8a4.55 4.55 0 014.551 4.55.75.75 0 11-1.5 0 3.05 3.05 0 00-3.051-3.05.75.75 0 110-1.5z" fill="#151515" fill-rule="evenodd"/></svg>