<svg width="24" height="24" viewBox="0 0 24 24" xmlns="http://www.w3.org/2000/svg">
<path fill-rule="evenodd" clip-rule="evenodd" d="M16.4819 2.5C15.9287 2.5 15.4831 2.94614 15.4831 3.5V3.89997C15.4897 3.93229 15.4931 3.96574 15.4931 4C15.4931 4.03426 15.4897 4.06771 15.4831 4.10003V4.5C15.4831 5.05386 15.9287 5.5 16.4819 5.5C16.7577 5.5 16.9813 5.72386 16.9813 6C16.9813 6.27614 16.7577 6.5 16.4819 6.5C15.3771 6.5 14.4844 5.60614 14.4844 4.5H9.00126H9.00125H8.12235C7.84655 4.5 7.62298 4.27614 7.62298 4C7.62298 3.72386 7.84655 3.5 8.12235 3.5H8.50188C8.50188 2.94614 8.0563 2.5 7.50313 2.5C6.94996 2.5 6.50438 2.94614 6.50438 3.5V4.5C6.50438 5.05386 6.94996 5.5 7.50313 5.5C7.77893 5.5 8.00251 5.72386 8.00251 6C8.00251 6.27614 7.77893 6.5 7.50313 6.5C6.39837 6.5 5.50563 5.60614 5.50563 4.5H3.9975C3.44434 4.5 2.99875 4.94614 2.99875 5.5V7.5H18.4894C18.7652 7.5 18.9888 7.72386 18.9888 8C18.9888 8.27614 18.7652 8.5 18.4894 8.5H2.99875V18.5C2.99875 19.8789 4.11849 21 5.49563 21H18.4794C19.8726 21 20.9972 19.8545 20.9763 18.4575L20.9763 18.449L21.0012 5.50447C20.9888 4.94819 20.5317 4.5 19.9775 4.5H17.99H17.98H17.1111C16.8353 4.5 16.6117 4.27614 16.6117 4C16.6117 3.72386 16.8353 3.5 17.1111 3.5H17.4806C17.4806 2.94614 17.0351 2.5 16.4819 2.5ZM9.50063 3.5H14.4844C14.4844 2.39386 15.3771 1.5 16.4819 1.5C17.5867 1.5 18.4794 2.39386 18.4794 3.5H19.9775C21.0797 3.5 21.98 4.38936 21.9999 5.49097L22 5.50097L21.975 18.4469C22.0017 20.398 20.4306 22 18.4794 22H5.49563C3.5669 22 2 20.4311 2 18.5V5.5C2 4.39386 2.89274 3.5 3.9975 3.5H5.50563C5.50563 2.39386 6.39837 1.5 7.50313 1.5C8.60789 1.5 9.50063 2.39386 9.50063 3.5Z" />
</svg>