<svg xmlns="http://www.w3.org/2000/svg" width="25" height="25" viewBox="0 0 25 25"><path fill="#151515" d="M11.932 8.636c.379.005.568.187.568.546 0 .359-.19.54-.568.545h-6.25v9.818h10.227v-6c0-.363.19-.545.568-.545.38 0 .568.182.568.545v6.546a.557.557 0 01-.568.545H5.114a.557.557 0 01-.569-.545V9.18c0-.3.255-.545.569-.545h6.818zm4.07-3.435l.093.003 3.703.407c.263.03.47.228.5.48l.425 3.555a.55.55 0 01-.5.604.563.563 0 01-.63-.48l-.297-2.478-7.283 6.993a.585.585 0 01-.804 0 .53.53 0 010-.771l7.242-6.954-2.486-.273a.555.555 0 01-.502-.515l.003-.089a.563.563 0 01.629-.48z"/></svg>