<svg width="20" height="20" viewBox="0 0 20 20" fill="none" xmlns="http://www.w3.org/2000/svg">
<path fill-rule="evenodd" clip-rule="evenodd" d="M1.66659 9.99992C1.66659 5.39755 5.39754 1.66659 9.99992 1.66659C14.6023 1.66659 18.3333 5.39755 18.3333 9.99992C18.3333 14.6023 14.6023 18.3333 9.99992 18.3333C5.39754 18.3333 1.66659 14.6023 1.66659 9.99992ZM9.87536 12.8758C9.34634 12.8758 8.91748 13.3047 8.91748 13.8337C8.91748 14.3627 9.34634 14.7916 9.87536 14.7916C10.4044 14.7916 10.8332 14.3627 10.8332 13.8337C10.8332 13.3047 10.4044 12.8758 9.87536 12.8758ZM8.91658 10.7286C8.91658 11.1888 9.34565 11.6666 9.87492 11.6666C10.4042 11.6666 10.8333 11.1888 10.8333 10.7286L10.8333 5.79766C10.8333 5.33742 10.4042 4.79159 9.87492 4.79159C9.34564 4.79159 8.91658 5.33742 8.91658 5.79766L8.91658 10.7286Z" fill="#EB0055"/>
</svg>
