<svg width="48" height="48" viewBox="0 0 48 48" fill="currentColor" xmlns="http://www.w3.org/2000/svg">
<path fill-rule="evenodd" clip-rule="evenodd" d="M43.9636 11.7382L26.2198 25.1969L26.2167 25.1993C24.9263 26.1843 23.0636 26.184 21.7731 25.1993L4.26813 11.7407L4.2658 11.7389C4.20118 11.6898 4.13346 11.6468 4.06342 11.6096C4.18542 11.0614 4.40206 10.5502 4.69482 10.0948C5.25439 9.4176 6.09464 9 6.99988 9H35.4756H40.9999C41.9065 9 42.7479 9.41886 43.3075 10.0978C43.622 10.5879 43.8484 11.1426 43.9636 11.7382ZM32.3605 24.1346L43.9999 15.306V35.693L35.9035 27.6493C35.8762 27.6222 35.848 27.5964 35.8191 27.5718L32.3605 24.1346ZM34.861 30.6776L42.6982 38.4638C42.2086 38.8044 41.6195 39 40.9999 39H6.99988C6.38018 39 5.79094 38.8043 5.30135 38.4636L17.9656 25.8864L19.9254 27.3932L19.9268 27.3943L19.9279 27.3951C22.2969 29.2025 25.6935 29.2021 28.0625 27.3946L28.0636 27.3938L30.0409 25.894L34.7742 30.5979C34.8022 30.6258 34.8312 30.6524 34.861 30.6776ZM3.99988 15.1488V35.6929L15.6596 24.1134L3.99988 15.1488Z" fill="#EB0055"/>
</svg>