<svg width="28" height="26" viewBox="0 0 28 26" xmlns="http://www.w3.org/2000/svg"><g fill="none"><path d="M-4-5h36v35.809H-4z"/><path d="M-4-5h36v35.809H-4z"/><path d="M10.178 16.773c-1.156-1.216-2.033-2.69-2.268-3.78-.571-.517-.891-1.773-1.263-3.998l-.01-.133c0-.627.368-1.061.893-1.323.164-4.721 2.398-7.25 6.563-7.25 4.13 0 6.36 2.487 6.553 7.134.278.097.5.26.665.504.225.334.249.56.236 1.118a6.474 6.474 0 00-.003.16l-.006.103c-.26 2.029-.527 3.206-1.081 3.696-.242 1.164-1.175 2.745-2.4 3.992.059.07.106.151.14.242l.708 1.937h1.893c3.693 0 6.34 1.77 6.34 4.853v1.084c0 .45-.367.814-.819.814a.816.816 0 01-.818-.814v-1.084c0-2.016-1.808-3.225-4.703-3.225h-2.466a.818.818 0 01-.768-.536l-.796-2.175c-.811.56-1.678.916-2.519.916-.984 0-2.02-.493-2.964-1.227a.821.821 0 01-.028.072l-1.13 2.472a.818.818 0 01-.745.478h-2.5c-2.863 0-4.444 1.14-4.444 3.225v1.084c0 .45-.366.814-.818.814a.816.816 0 01-.818-.814v-1.084c0-3.118 2.406-4.853 6.08-4.853h1.973l.912-1.996a.813.813 0 01.411-.406zm9.663-7.84a.816.816 0 01-.818-.814c.007-4.26-1.583-6.201-4.93-6.201-3.347 0-4.94 1.941-4.936 6.201 0 .4-.29.74-.687.804a.849.849 0 00-.166.052c.18 1.037.357 1.816.53 2.327.062.186.12.326.169.416a.814.814 0 01.481.742c0 .289.667 1.644 1.478 2.704 1.067 1.393 2.238 2.216 3.287 2.216 1.044 0 2.184-.817 3.213-2.206.782-1.056 1.42-2.411 1.42-2.714 0-.33.196-.613.48-.74.034-.073.076-.18.12-.317.15-.48.295-1.235.426-2.252l.003-.144.001-.072a2.17 2.17 0 00-.07-.001z" fill="#E60039"/></g></svg>