<svg width="15" height="14" viewBox="0 0 15 14" fill="none" xmlns="http://www.w3.org/2000/svg">
<path fill-rule="evenodd" clip-rule="evenodd" d="M7.5 13.125C10.8827 13.125 13.625 10.3827 13.625 7C13.625 3.61726 10.8827 0.875 7.5 0.875C4.11726 0.875 1.375 3.61726 1.375 7C1.375 10.3827 4.11726 13.125 7.5 13.125ZM5.04626 4.54545C5.27428 4.31787 5.64363 4.31823 5.87121 4.54626L7.49656 6.17477L9.11944 4.5556C9.34751 4.32806 9.71686 4.32848 9.9444 4.55655C10.1719 4.78461 10.1715 5.15396 9.94346 5.3815L8.3229 6.99835L9.95277 8.61765C10.1813 8.84471 10.1825 9.21406 9.95546 9.4426C9.72839 9.67115 9.35905 9.67235 9.1305 9.44529L7.49996 7.82531L5.88353 9.45274C5.6565 9.68132 5.28715 9.68257 5.05858 9.45554C4.83 9.22851 4.82875 8.85917 5.05578 8.63059L6.67362 7.00174L5.04545 5.37041C4.81787 5.14238 4.81823 4.77304 5.04626 4.54545Z" fill="#B60025"/>
</svg>
