<svg xmlns="http://www.w3.org/2000/svg" width="16" height="16" viewBox="0 0 16 16"><g fill="none"><path d="M0 0h16v16H0z"/><path fill="#EB0055" d="M14.667 5.693V4c0-.733-.6-1.333-1.334-1.333H2.667C1.933 2.667 1.34 3.26 1.34 4v1.693c0 .46.22.914.627 1.127.42.233.7.673.7 1.18 0 .507-.287.953-.707 1.173-.4.22-.627.674-.627 1.134V12c0 .733.6 1.333 1.334 1.333h10.666c.734 0 1.334-.6 1.334-1.333v-1.693c0-.46-.227-.914-.627-1.134-.42-.226-.707-.666-.707-1.173s.287-.947.707-1.173c.4-.22.627-.674.627-1.134zm-6 5.974H7.333v-1.334h1.334v1.334zm0-3H7.333V7.333h1.334v1.334zm0-3H7.333V4.333h1.334v1.334z"/></g></svg>