<svg xmlns="http://www.w3.org/2000/svg" width="25" height="24" viewBox="0 0 25 24"><path fill="#EB0055" d="M19.14 6.5c.762 0 1.385.57 1.43 1.291l.003.084v9c0 .759-.642 1.375-1.432 1.375a.382.382 0 01-.39-.375.38.38 0 01.337-.372l.053-.003a.641.641 0 00.647-.561l.004-.064v-9a.636.636 0 00-.585-.622l-.066-.003H6.64a.642.642 0 00-.648.56l-.003.065v9c0 .323.256.59.584.622l.067.003h9.131c.216 0 .39.168.39.375 0 .19-.146.347-.337.371l-.053.004h-9.13c-.762 0-1.385-.571-1.43-1.291l-.003-.084v-9c0-.731.595-1.33 1.345-1.373l.088-.002h12.5zm-.618 2.198c.12.15.104.358-.028.49l-.043.036-4.356 3.227a2.045 2.045 0 01-2.335.079l-.093-.063-4.49-3.24a.364.364 0 01-.078-.525.4.4 0 01.498-.104l.049.03 4.49 3.24c.424.305.967.32 1.402.044l.08-.055 4.356-3.226a.401.401 0 01.548.067z"/></svg>