<svg width="20" height="20" viewBox="0 0 20 20" fill="none" xmlns="http://www.w3.org/2000/svg">
<path fill-rule="evenodd" clip-rule="evenodd" d="M4.45801 2.08337C3.14633 2.08337 2.08301 3.1467 2.08301 4.45837V15.5417C2.08301 16.8534 3.14633 17.9167 4.45801 17.9167H15.5413C16.853 17.9167 17.9163 16.8534 17.9163 15.5417V4.45837C17.9163 3.1467 16.853 2.08337 15.5413 2.08337H4.45801ZM9.79205 6.46519C9.79205 6.11636 10.0748 5.83342 10.4239 5.83342H13.1499C13.7111 5.83342 14.1663 6.28886 14.1663 6.84978V9.57591C14.1663 9.92474 13.8835 10.2077 13.5345 10.2077C13.1855 10.2077 12.9027 9.92474 12.9027 9.57591V7.99038L6.91165 13.9816C6.66489 14.2284 6.26479 14.2284 6.01804 13.9816C5.77133 13.7349 5.77133 13.3349 6.01804 13.0882L12.0091 7.09695H10.4239C10.0748 7.09695 9.79205 6.81401 9.79205 6.46519ZM6.26496 13.335L12.5028 7.09695H12.5027L6.26488 13.335C6.15445 13.4454 6.15445 13.6244 6.26488 13.7349C6.27568 13.7457 6.28713 13.7554 6.29911 13.7641C6.28716 13.7554 6.27573 13.7457 6.26496 13.7349C6.15452 13.6245 6.15452 13.4454 6.26496 13.335ZM13.8173 9.57591C13.8173 9.70991 13.7241 9.82214 13.599 9.85132C13.7241 9.82213 13.8173 9.7099 13.8173 9.57592V7.02984L13.8173 7.02978V9.57591ZM10.4239 6.18239L12.9696 6.18239H10.4239L10.4239 6.18239Z" fill="white"/>
</svg>
