<svg width="16" height="16" viewBox="0 0 16 16" xmlns="http://www.w3.org/2000/svg"><g fill="none"><path d="M-3-3h22v22H-3z"/><path d="M19-3H-3v22h22z"/><path d="M5.005 6.39a.5.5 0 00-.571 0L2.969 7.409 3.486 5.7a.5.5 0 00-.176-.543L1.888 4.08l1.784-.036a.5.5 0 00.462-.336l.585-1.685.586 1.685a.5.5 0 00.462.336l1.784.036-1.422 1.078a.5.5 0 00-.176.543l.516 1.708-1.464-1.02zm2.074 2.66a.5.5 0 00.764-.555l-.832-2.752L9.3 4.008a.5.5 0 00-.292-.898l-2.873-.06L5.192.336a.5.5 0 00-.945 0L3.303 3.05.43 3.11a.5.5 0 00-.291.898l2.29 1.736-.832 2.752a.5.5 0 00.764.555l2.36-1.642L7.08 9.051zm4.241 4.405a.5.5 0 00-.572 0l-.652.454.23-.76a.5.5 0 00-.176-.544l-.633-.48.794-.016a.5.5 0 00.462-.336l.26-.75.261.75a.5.5 0 00.463.336l.794.016-.633.48a.5.5 0 00-.177.543l.23.76-.652-.453zm1.26 2.096a.5.5 0 00.765-.555l-.546-1.804 1.502-1.14a.5.5 0 00-.292-.897l-1.884-.039-.619-1.78a.5.5 0 00-.945 0l-.618 1.78-1.885.039a.5.5 0 00-.292.898l1.502 1.139-.546 1.804a.5.5 0 00.765.555l1.547-1.077 1.547 1.077zm1.205-11.017a.5.5 0 00-.571 0l-.056.038.02-.064A.5.5 0 0013 3.964l-.054-.04.068-.002a.5.5 0 00.462-.335l.022-.064.022.064a.5.5 0 00.462.335l.068.002-.054.04a.5.5 0 00-.176.544l.02.064-.056-.038zm.665 1.68a.5.5 0 00.764-.555l-.336-1.108.923-.7a.5.5 0 00-.292-.898l-1.157-.023-.38-1.094a.5.5 0 00-.945 0l-.38 1.094-1.158.023a.5.5 0 00-.292.899l.923.7-.336 1.107a.5.5 0 00.765.556l.95-.662.95.662z" fill="#E60039"/></g></svg>