<svg width="78" height="78" viewBox="0 0 78 78" fill="none" xmlns="http://www.w3.org/2000/svg">
<path fill-rule="evenodd" clip-rule="evenodd" d="M38.5527 74C19.2192 74 3.55274 58.3335 3.55273 39C3.55273 33.0459 5.03656 27.4326 7.66673 22.5384C8.12426 21.6871 7.805 20.626 6.95366 20.1685C6.10231 19.711 5.04126 20.0302 4.58374 20.8816C1.68391 26.2775 0.0527341 32.4591 0.0527344 39C0.0527353 60.2665 17.2862 77.5 38.5527 77.5C59.8192 77.5 77.0527 60.2665 77.0527 39C77.0527 17.7335 59.8192 0.499999 38.5527 0.5C31.9177 0.5 25.6638 2.18695 20.1994 5.15751C19.3503 5.61912 19.0361 6.68169 19.4977 7.53083C19.9593 8.37996 21.0219 8.69411 21.8711 8.2325C26.8367 5.53306 32.5177 4 38.5527 4C57.8862 4 73.5527 19.6665 73.5527 39C73.5527 58.3335 57.8862 74 38.5527 74ZM22.591 23.0357C23.3076 22.3204 24.4684 22.3216 25.1837 23.0382L38.5247 36.4052L51.8514 23.109C52.5682 22.3939 53.729 22.3952 54.4441 23.112C55.1593 23.8288 55.158 24.9896 54.4412 25.7047L41.1236 38.9918L54.5116 52.2929C55.2299 53.0066 55.2337 54.1674 54.5201 54.8857C53.8064 55.6039 52.6456 55.6077 51.9274 54.8941L38.5415 41.595L25.2681 54.9586C24.5546 55.677 23.3938 55.681 22.6754 54.9674C21.957 54.2539 21.9531 53.0931 22.6666 52.3747L35.9425 39.0085L22.5884 25.6284C21.8732 24.9118 21.8743 23.751 22.591 23.0357Z" fill="#696A6F"/>
</svg>
