<svg width="20" height="20" viewBox="0 0 20 20" xmlns="http://www.w3.org/2000/svg">
<path fill-rule="evenodd" clip-rule="evenodd" d="M13.7343 2.08333C13.2733 2.08333 12.902 2.45512 12.902 2.91667V3.24997C12.9074 3.27691 12.9103 3.30478 12.9103 3.33333C12.9103 3.36188 12.9074 3.38976 12.902 3.4167V3.75C12.902 4.21155 13.2733 4.58333 13.7343 4.58333C13.9641 4.58333 14.1504 4.76988 14.1504 5C14.1504 5.23012 13.9641 5.41667 13.7343 5.41667C12.8136 5.41667 12.0697 4.67179 12.0697 3.75H7.50062H7.50039H6.76798C6.53814 3.75 6.35183 3.56345 6.35183 3.33333C6.35183 3.10321 6.53814 2.91667 6.76798 2.91667L7.08425 2.91667C7.08425 2.45512 6.71293 2.08333 6.25196 2.08333C5.79099 2.08333 5.41967 2.45512 5.41967 2.91667V3.75C5.41967 4.21155 5.79099 4.58333 6.25196 4.58333C6.48179 4.58333 6.6681 4.76988 6.6681 5C6.6681 5.23012 6.48179 5.41667 6.25196 5.41667C5.33132 5.41667 4.58737 4.67179 4.58737 3.75H3.3306C2.86963 3.75 2.49831 4.12179 2.49831 4.58333V6.25H15.4072C15.637 6.25 15.8233 6.43655 15.8233 6.66667C15.8233 6.89679 15.637 7.08333 15.4072 7.08333H2.49831V15.4167C2.49831 16.5657 3.43143 17.5 4.57904 17.5H15.3989C16.5598 17.5 17.497 16.5454 17.4796 15.3812L17.4796 15.3742L17.5004 4.58706C17.49 4.12349 17.1091 3.75 16.6473 3.75H14.9827C14.9826 3.75 14.9825 3.75 14.9824 3.75H14.2586C14.0288 3.75 13.8425 3.56345 13.8425 3.33333C13.8425 3.10321 14.0288 2.91667 14.2586 2.91667H14.5666C14.5666 2.45512 14.1952 2.08333 13.7343 2.08333ZM13.7343 1.25C12.8136 1.25 12.0697 1.99488 12.0697 2.91667L7.91654 2.91667C7.91654 1.99488 7.17259 1.25 6.25196 1.25C5.33132 1.25 4.58737 1.99488 4.58737 2.91667L3.3306 2.91667C2.40997 2.91667 1.66602 3.66155 1.66602 4.58333V15.4167C1.66602 17.026 2.97176 18.3333 4.57904 18.3333H15.3989C17.0248 18.3333 18.3341 16.9983 18.3119 15.3725L18.3327 4.58414L18.3326 4.5758C18.316 3.6578 17.5658 2.91667 16.6473 2.91667H15.3989C15.3989 1.99488 14.6549 1.25 13.7343 1.25Z" />
</svg>
