<svg width="282" height="120" viewBox="0 0 282 120" fill="none" xmlns="http://www.w3.org/2000/svg">
<path d="M92.0232 79.0601C90.4452 79.0601 89.6611 78.0676 89.6611 76.0033V65.0861H96.6878V59.8161H89.6611V52.5214H82.297V59.8161H78.6943V65.0365H82.297V77.3133C82.2271 78.4263 82.3926 79.5416 82.7825 80.5864C83.1723 81.6312 83.7779 82.5822 84.5598 83.3773C86.1661 84.8239 88.2756 85.5828 90.4352 85.4913C91.6284 85.4932 92.8166 85.3363 93.9684 85.0248C95.0955 84.7335 96.1727 84.2752 97.1642 83.6651L95.6259 78.0974C94.5165 78.6948 93.2827 79.0245 92.0232 79.0601ZM108.508 21.1594C105.372 21.1594 102.944 21.874 101.223 23.3032C100.368 24.0094 99.6892 24.9057 99.2412 25.9205C98.7932 26.9354 98.5884 28.0408 98.6429 29.1488C98.6041 30.2551 98.7988 31.3571 99.2144 32.3831C99.6299 33.4092 100.257 34.3361 101.055 35.1036C102.83 36.6966 105.164 37.521 107.545 37.3962C109.177 37.426 110.797 37.1256 112.309 36.5129C113.635 35.9587 114.797 35.0736 115.684 33.9424V37.0489H122.949L122.879 19.7799C122.937 18.4718 122.706 17.167 122.204 15.9578C121.701 14.7487 120.939 13.6648 119.971 12.783C118.056 11.1057 115.376 10.2621 111.902 10.2621C109.893 10.2395 107.89 10.4899 105.948 11.0065C103.949 11.5797 102.013 12.3545 100.171 13.3189L102.484 18.5492C104.806 17.1195 107.46 16.3191 110.185 16.2269C111.62 16.1266 113.044 16.538 114.205 17.388C114.666 17.7945 115.029 18.3006 115.267 18.868C115.504 19.4353 115.609 20.0492 115.574 20.6632V21.1594H108.508ZM115.634 28.0075C115.513 28.5931 115.275 29.1482 114.934 29.6394C114.592 30.1306 114.156 30.5477 113.649 30.8658C112.472 31.6399 111.088 32.038 109.679 32.0071C108.609 32.0717 107.552 31.7474 106.702 31.094C106.347 30.7969 106.065 30.4223 105.877 29.999C105.69 29.5758 105.602 29.1152 105.62 28.6526C105.577 28.2176 105.645 27.7787 105.819 27.3776C105.993 26.9764 106.266 26.6262 106.612 26.36C107.585 25.8136 108.696 25.5651 109.808 25.6454H115.634V28.0075ZM88.6091 35.6991C90.4362 34.5668 91.9001 32.9341 92.8271 30.9948C93.8572 28.7983 94.3666 26.3937 94.3158 23.9681C94.365 21.5012 93.8454 19.0561 92.7973 16.8223C91.8624 14.8436 90.3774 13.1759 88.5198 12.0188C86.5961 10.8594 84.3838 10.2676 82.1382 10.3118C80.5146 10.289 78.9089 10.653 77.4538 11.3737C76.0458 12.0889 74.8435 13.1512 73.9602 14.4603V10.5599H66.5465V46.646H73.9602V33.2378C74.8685 34.537 76.0817 35.5934 77.4934 36.3144C78.9852 37.0416 80.6278 37.4055 82.2871 37.3764C84.5107 37.4269 86.703 36.8452 88.6091 35.6991ZM75.7665 29.0496C74.5948 27.5351 73.959 25.6745 73.959 23.7597C73.959 21.8449 74.5948 19.9843 75.7665 18.4698C76.3423 17.808 77.0573 17.2815 77.8602 16.928C78.6632 16.5746 79.5343 16.4029 80.4113 16.4254C81.2844 16.3997 82.1522 16.57 82.9508 16.9238C83.7495 17.2776 84.4586 17.8059 85.0263 18.4698C86.1782 19.9872 86.8017 21.8398 86.8017 23.7448C86.8017 25.6498 86.1782 27.5025 85.0263 29.0198C84.4605 29.6859 83.7517 30.2158 82.9526 30.5698C82.1535 30.9238 81.2848 31.0928 80.4113 31.0643C79.5366 31.0904 78.6669 30.9233 77.8642 30.5751C77.0614 30.2269 76.3452 29.706 75.7665 29.0496ZM66.5465 85.1142H73.9602V48.5417H66.5465V85.1142ZM171.331 22.4199C169.859 21.7733 168.347 21.2197 166.806 20.7624C165.562 20.4339 164.353 19.9886 163.193 19.4325C162.865 19.2905 162.586 19.0564 162.389 18.7587C162.191 18.461 162.085 18.1124 162.082 17.7553C162.07 17.4569 162.141 17.1612 162.286 16.9004C162.431 16.6396 162.646 16.4237 162.905 16.2765C163.57 15.9229 164.317 15.7549 165.069 15.7902C166.333 15.8181 167.585 16.0424 168.781 16.4551C170.239 16.9319 171.64 17.5676 172.959 18.3507L175.51 13.18C174.025 12.2072 172.403 11.4643 170.696 10.9767C168.977 10.4778 167.196 10.2239 165.406 10.2224C162.796 10.1162 160.224 10.877 158.092 12.386C157.147 13.091 156.39 14.0171 155.886 15.083C155.383 16.1489 155.148 17.3221 155.204 18.4996C155.136 19.9876 155.577 21.4544 156.454 22.6581C157.237 23.6857 158.259 24.5068 159.432 25.0499C160.865 25.6706 162.337 26.1978 163.838 26.6279C165.117 26.9572 166.358 27.4196 167.54 28.0075C167.876 28.1676 168.161 28.4191 168.361 28.7333C168.561 29.0474 168.669 29.4116 168.672 29.784C168.685 30.1015 168.608 30.4162 168.45 30.6918C168.291 30.9675 168.059 31.1929 167.778 31.3422C167.042 31.7165 166.222 31.8943 165.396 31.8583C163.827 31.834 162.273 31.542 160.801 30.9948C159.209 30.4341 157.722 29.6087 156.405 28.5533L153.993 33.6745C155.506 34.9008 157.236 35.8302 159.094 36.4137C161.066 37.0696 163.13 37.4047 165.208 37.4062C167.906 37.5179 170.568 36.7479 172.79 35.2128C173.754 34.5151 174.53 33.59 175.049 32.5199C175.569 31.4498 175.815 30.2679 175.768 29.0793C175.839 27.5648 175.379 26.0731 174.468 24.8613C173.631 23.8096 172.556 22.9726 171.331 22.4199ZM141.686 31.3521C140.95 31.7256 140.129 31.9033 139.304 31.8682C137.735 31.8457 136.18 31.5536 134.709 31.0047C133.115 30.4419 131.625 29.6168 130.303 28.5633L127.901 33.6844C129.412 34.9128 131.143 35.8423 133.002 36.4236C134.974 37.0803 137.038 37.4154 139.116 37.4161C141.811 37.5278 144.47 36.7578 146.688 35.2227C147.653 34.5263 148.43 33.6014 148.95 32.531C149.469 31.4606 149.715 30.2781 149.666 29.0893C149.742 27.5741 149.281 26.0807 148.366 24.8713C147.547 23.8332 146.492 23.0063 145.289 22.4596C143.812 21.7954 142.294 21.2285 140.743 20.7624C139.503 20.436 138.296 19.9907 137.141 19.4325C136.812 19.2926 136.531 19.059 136.333 18.7608C136.136 18.4626 136.03 18.113 136.029 17.7553C136.018 17.4569 136.088 17.1612 136.234 16.9004C136.379 16.6396 136.593 16.4237 136.853 16.2765C137.517 15.9206 138.265 15.7524 139.017 15.7902C140.278 15.8181 141.527 16.0425 142.718 16.4551C144.18 16.9299 145.585 17.5656 146.907 18.3507L149.457 13.18C147.972 12.209 146.35 11.4663 144.644 10.9767C142.925 10.4791 141.144 10.2252 139.354 10.2224C136.744 10.1147 134.171 10.8756 132.04 12.386C131.095 13.091 130.337 14.0171 129.834 15.083C129.33 16.1489 129.096 17.3221 129.151 18.4996C129.083 19.9876 129.524 21.4544 130.402 22.6581C131.182 23.6886 132.205 24.5102 133.379 25.0499C134.81 25.6692 136.278 26.1963 137.776 26.6279C139.035 26.9603 140.255 27.4227 141.418 28.0075C141.755 28.1676 142.039 28.4191 142.239 28.7333C142.439 29.0474 142.547 29.4116 142.55 29.784C142.57 30.0934 142.505 30.4025 142.362 30.6774C142.218 30.9523 142.002 31.1823 141.736 31.3422L141.686 31.3521ZM162.955 58.3671C160.531 58.3169 158.136 58.902 156.008 60.0642C154.01 61.1735 152.373 62.8341 151.293 64.8479C150.196 67.0489 149.625 69.4747 149.625 71.9341C149.625 74.3936 150.196 76.8194 151.293 79.0204C152.37 81.0249 154.013 82.668 156.018 83.7445C158.217 84.9043 160.677 85.4817 163.163 85.4218C165.314 85.4532 167.449 85.0445 169.436 84.2209C171.277 83.4374 172.916 82.2463 174.229 80.7374L170.329 76.698C169.47 77.5912 168.441 78.3032 167.302 78.7921C166.188 79.2666 164.989 79.5097 163.779 79.5067C162.234 79.5458 160.724 79.0516 159.501 78.1073C158.279 77.111 157.432 75.7285 157.099 74.1871H175.668C175.668 73.7603 175.718 73.1946 175.718 72.3609C175.718 67.9544 174.636 64.5204 172.473 62.0591C170.309 59.5978 167.137 58.3638 162.955 58.3572V58.3671ZM156.941 69.7011C157.141 68.1089 157.859 66.6267 158.985 65.4831C159.519 64.971 160.149 64.5704 160.839 64.3045C161.529 64.0387 162.265 63.913 163.005 63.9348C163.758 63.9004 164.511 64.023 165.215 64.2946C165.919 64.5662 166.558 64.9811 167.094 65.5129C168.156 66.6475 168.742 68.1467 168.731 69.7011H156.941ZM118.869 71.686C118.943 73.4282 118.399 75.1404 117.331 76.5194C116.825 77.1372 116.185 77.6317 115.459 77.9653C114.734 78.2989 113.941 78.4628 113.143 78.4448C112.481 78.4782 111.82 78.3677 111.205 78.121C110.59 77.8743 110.035 77.4972 109.58 77.0156C108.657 75.9061 108.192 74.4863 108.28 73.0457V58.5954H100.876V75.2589C100.726 77.9661 101.63 80.6263 103.397 82.6826C104.27 83.5987 105.33 84.3165 106.504 84.7873C107.679 85.2582 108.941 85.4712 110.205 85.4119C114.215 85.4119 117.103 83.7578 118.869 80.4495V85.1241H126.234V58.5954H118.909L118.869 71.686ZM139.711 63.3592V58.5755H132.307V85.0943H139.711V72.351C139.666 71.4164 139.819 70.4828 140.161 69.612C140.504 68.7412 141.027 67.9529 141.696 67.2993C143.179 65.9794 145.123 65.2982 147.105 65.4037C147.49 65.3992 147.874 65.4158 148.256 65.4533V58.2976C146.485 58.2967 144.743 58.7585 143.205 59.6375C141.713 60.5427 140.496 61.8359 139.682 63.3791L139.711 63.3592ZM52.9298 71.686C53.0082 73.4288 52.4628 75.1425 51.3915 76.5194C50.8859 77.1378 50.2458 77.6326 49.52 77.9663C48.7942 78.2999 48.0019 78.4636 47.2033 78.4448C46.5429 78.4781 45.8831 78.3675 45.2696 78.1207C44.6562 77.874 44.1037 77.4969 43.6503 77.0156C42.7272 75.9061 42.2621 74.4863 42.3501 73.0457V58.5954H34.9364V75.2589C34.7905 77.9673 35.6973 80.6273 37.4672 82.6826C38.3399 83.5992 39.3995 84.3174 40.5743 84.7883C41.749 85.2592 43.0113 85.4719 44.2755 85.4119C48.2851 85.4119 51.1698 83.7578 52.9298 80.4495V85.1241H60.2939V58.5954H52.9298V71.686ZM22.6397 77.4523C21.2118 78.1657 19.6406 78.5457 18.0445 78.5639C16.211 78.5797 14.4108 78.0737 12.8539 77.1049C11.2827 76.1389 10.0005 74.7676 9.14209 73.135C8.24098 71.4438 7.7802 69.5529 7.80225 67.6368C7.77877 65.7299 8.23979 63.8483 9.14209 62.1682C10.009 60.5601 11.2907 59.2133 12.8539 58.2678C14.4204 57.3258 16.2166 56.8347 18.0445 56.8486C19.6835 56.863 21.2944 57.2751 22.7389 58.0495C24.3067 58.8704 25.6911 60.0016 26.8081 61.3743L31.2345 55.8065C28.4102 52.8315 24.6776 50.8789 20.6231 50.2556C16.5687 49.6322 12.4219 50.3734 8.83443 52.3627C6.14221 53.8551 3.9057 56.0504 2.36354 58.7145C0.77685 61.4535 -0.0393405 64.5708 0.00145787 67.736C-0.0385938 70.9262 0.758737 74.0711 2.3139 76.8568C3.80682 79.5384 6.00293 81.7619 8.66572 83.288C11.4028 84.8597 14.5114 85.6686 17.6674 85.6302C20.1892 85.612 22.6762 85.0393 24.9521 83.9529C27.3353 82.8632 29.4854 81.3231 31.2841 79.4174L26.8081 74.455C25.6079 75.6941 24.1964 76.7091 22.6397 77.4523ZM20.4662 26.4394H24.436C24.8305 26.4398 25.2247 26.42 25.6171 26.3798L28.9816 31.1139H30.6886L27.0859 26.0622C28.0933 25.7914 28.9774 25.1838 29.5914 24.3405C30.2053 23.4973 30.512 22.4692 30.4603 21.4274C30.494 20.7284 30.3665 20.031 30.0877 19.3891C29.809 18.7472 29.3863 18.178 28.8525 17.7255C27.5901 16.76 26.0225 16.2809 24.436 16.3757H18.9179V31.1139H20.4761L20.4662 26.4394ZM20.4662 17.7255H24.3864C25.5828 17.6572 26.7656 18.0082 27.731 18.718C28.1224 19.0565 28.4307 19.4805 28.6321 19.9572C28.8334 20.4339 28.9224 20.9505 28.8922 21.4671C28.9208 21.9792 28.8309 22.4909 28.6295 22.9625C28.4281 23.4342 28.1207 23.853 27.731 24.1865C26.7678 24.9009 25.5834 25.2523 24.3864 25.1789H20.4662V17.7255ZM3.46516 26.4592H7.43504C9.02105 26.5507 10.5885 26.0798 11.8615 25.1293C12.3655 24.6534 12.767 24.0796 13.0414 23.4431C13.3159 22.8065 13.4574 22.1206 13.4574 21.4274C13.4574 20.7342 13.3159 20.0483 13.0414 19.4118C12.767 18.7752 12.3655 18.2014 11.8615 17.7255C10.5952 16.7601 9.02453 16.2812 7.43504 16.3757H1.91692V31.1139H3.4751L3.46516 26.4592ZM3.46516 17.7255H7.38543C8.58181 17.6572 9.76456 18.0082 10.73 18.718C11.1214 19.0565 11.4297 19.4805 11.6311 19.9572C11.8324 20.4339 11.9215 20.9505 11.8912 21.4671C11.9136 21.9711 11.8206 22.4736 11.6194 22.9363C11.4182 23.3989 11.114 23.8096 10.73 24.1369C9.76456 24.8467 8.58181 25.1976 7.38543 25.1293H3.48503L3.46516 17.7255ZM38.6978 30.2604C39.9137 30.9272 41.281 31.2691 42.6677 31.2528C44.055 31.2746 45.4237 30.9324 46.6376 30.2604C47.7873 29.6359 48.7447 28.7094 49.4066 27.5807C50.0637 26.4055 50.4087 25.0814 50.4087 23.7349C50.4087 22.3884 50.0637 21.0643 49.4066 19.8891C48.7447 18.7604 47.7873 17.8339 46.6376 17.2094C45.4139 16.5636 44.0513 16.2261 42.6677 16.2261C41.2841 16.2261 39.9214 16.5636 38.6978 17.2094C37.5432 17.8308 36.5818 18.7578 35.9189 19.8891C35.2617 21.0607 34.9165 22.3816 34.9165 23.725C34.9165 25.0684 35.2617 26.3892 35.9189 27.5609C36.5844 28.7021 37.5532 29.6365 38.7177 30.2604H38.6978ZM37.2588 20.6136C37.7905 19.6961 38.5626 18.9412 39.4918 18.4301C40.4644 17.8964 41.5583 17.6229 42.6677 17.6362C43.7707 17.6232 44.8582 17.8968 45.8237 18.4301C46.7493 18.9391 47.5155 19.695 48.037 20.6136C48.5581 21.575 48.8311 22.6512 48.8311 23.7448C48.8311 24.8384 48.5581 25.9147 48.037 26.876C47.5155 27.7947 46.7493 28.5505 45.8237 29.0595C44.8582 29.5929 43.7707 29.8665 42.6677 29.8535C41.5583 29.8667 40.4644 29.5932 39.4918 29.0595C38.5626 28.5485 37.7905 27.7935 37.2588 26.876C36.7314 25.9166 36.4549 24.8396 36.4549 23.7448C36.4549 22.65 36.7314 21.573 37.2588 20.6136ZM206.107 46.7651L217.59 47.4896H217.65C217.865 47.4736 218.067 47.3783 218.217 47.222C218.366 47.0657 218.452 46.8597 218.458 46.6436C218.464 46.4276 218.39 46.2169 218.25 46.0524C218.11 45.8879 217.914 45.7811 217.7 45.7528L206.246 44.9886C206.028 44.9937 205.819 45.0807 205.662 45.2322C205.504 45.3837 205.409 45.5888 205.395 45.807C205.382 46.0251 205.45 46.2405 205.588 46.4106C205.725 46.5806 205.921 46.693 206.137 46.7254L206.107 46.7651ZM217.65 43.2617C217.833 43.2623 218.011 43.205 218.159 43.098C218.307 42.991 218.417 42.8399 218.474 42.6662C218.546 42.4464 218.528 42.207 218.424 42.0005C218.319 41.7939 218.138 41.6372 217.918 41.5646L200.887 36.0365C200.779 36.0014 200.665 35.9878 200.551 35.9967C200.438 36.0056 200.328 36.0367 200.226 36.0883C200.125 36.1399 200.035 36.211 199.961 36.2975C199.887 36.384 199.831 36.4842 199.795 36.5923C199.76 36.7005 199.747 36.8145 199.756 36.9279C199.764 37.0414 199.796 37.1519 199.847 37.2533C199.899 37.3547 199.97 37.4449 200.056 37.5188C200.143 37.5927 200.243 37.6489 200.351 37.6841L217.382 43.222C217.471 43.2365 217.561 43.2365 217.65 43.222V43.2617ZM249.21 31.1933C249.047 31.0309 248.826 30.9397 248.595 30.9397C248.365 30.9397 248.143 31.0309 247.98 31.1933L246.68 32.5629C246.564 32.6871 246.487 32.8424 246.458 33.0097C246.429 33.1771 246.449 33.3492 246.517 33.505C246.584 33.6609 246.696 33.7938 246.837 33.8873C246.979 33.9808 247.145 34.0311 247.315 34.0318C247.434 34.0325 247.552 34.0081 247.662 33.9602C247.771 33.9123 247.869 33.8421 247.95 33.7539L249.24 32.3843C249.32 32.302 249.382 32.2046 249.424 32.0979C249.466 31.9912 249.486 31.8772 249.483 31.7627C249.48 31.6482 249.455 31.5353 249.408 31.4307C249.361 31.3261 249.294 31.2319 249.21 31.1536V31.1933ZM266.579 36.9695C266.506 36.7498 266.349 36.5679 266.143 36.4637C265.936 36.3595 265.697 36.3415 265.477 36.4137L249.597 41.5646C249.378 41.6372 249.196 41.7939 249.092 42.0005C248.988 42.207 248.97 42.4464 249.042 42.6662C249.098 42.8399 249.209 42.991 249.357 43.098C249.505 43.205 249.683 43.2623 249.865 43.2617C249.954 43.2762 250.045 43.2762 250.133 43.2617L266.013 38.1108C266.13 38.0743 266.239 38.014 266.332 37.9336C266.425 37.8532 266.5 37.7545 266.553 37.6437C266.607 37.5328 266.636 37.4122 266.641 37.2894C266.645 37.1665 266.624 37.0441 266.579 36.9298V36.9695ZM249.042 37.9619C249.102 38.0591 249.182 38.1431 249.275 38.2093C249.369 38.2755 249.474 38.3224 249.586 38.3473C249.698 38.3723 249.813 38.3747 249.926 38.3546C250.039 38.3344 250.146 38.292 250.243 38.2299L272.295 24.2262C272.392 24.1656 272.475 24.0866 272.541 23.9937C272.607 23.9008 272.654 23.7958 272.679 23.6847C272.705 23.5737 272.708 23.4587 272.689 23.3464C272.67 23.2341 272.629 23.1267 272.568 23.0302C272.508 22.9338 272.429 22.8502 272.336 22.7843C272.243 22.7184 272.138 22.6714 272.027 22.6461C271.802 22.5949 271.567 22.6349 271.372 22.7573L249.31 36.7611C249.13 36.8827 249.002 37.0677 248.952 37.2793C248.903 37.4908 248.935 37.7133 249.042 37.9024V37.9619ZM269.556 36.0266C269.613 36.2002 269.723 36.3514 269.871 36.4584C270.019 36.5654 270.197 36.6227 270.38 36.6221C270.469 36.6366 270.559 36.6366 270.648 36.6221L276.732 34.6372C276.84 34.6023 276.94 34.5463 277.027 34.4725C277.114 34.3987 277.185 34.3084 277.237 34.2069C277.288 34.1055 277.319 33.9948 277.328 33.8813C277.337 33.7677 277.323 33.6536 277.287 33.5454C277.217 33.3263 277.062 33.1439 276.858 33.0379C276.653 32.932 276.415 32.9111 276.196 32.9797L270.112 34.9647C269.913 35.0349 269.746 35.1757 269.644 35.3604C269.541 35.5451 269.51 35.7609 269.556 35.9671V36.0266ZM213.978 57.8609C214.104 57.8581 214.229 57.8312 214.345 57.7815L218.007 56.0546C218.11 56.0064 218.203 55.9384 218.279 55.8544C218.356 55.7705 218.415 55.6722 218.454 55.5653C218.493 55.4584 218.51 55.345 218.505 55.2314C218.5 55.1178 218.472 55.0064 218.424 54.9034C218.376 54.8004 218.308 54.708 218.224 54.6313C218.14 54.5546 218.042 54.4952 217.935 54.4565C217.828 54.4178 217.714 54.4006 217.601 54.4057C217.487 54.4109 217.376 54.4383 217.273 54.4865L213.601 56.2035C213.392 56.3024 213.23 56.4802 213.152 56.6979C213.074 56.9156 213.085 57.1554 213.184 57.3647C213.27 57.4977 213.389 57.6055 213.531 57.677C213.672 57.7485 213.83 57.7811 213.988 57.7716L213.978 57.8609ZM242.204 32.3247C242.332 32.3942 242.475 32.4317 242.62 32.4339C242.777 32.4333 242.931 32.3906 243.065 32.3103C243.2 32.23 243.31 32.115 243.385 31.9774L248.536 22.5985C248.646 22.3971 248.672 22.1601 248.608 21.9396C248.544 21.719 248.395 21.533 248.193 21.4224C247.992 21.3119 247.755 21.2859 247.534 21.3501C247.314 21.4143 247.128 21.5635 247.017 21.7648L241.856 31.1437C241.774 31.3381 241.764 31.5558 241.83 31.7565C241.896 31.9572 242.032 32.1274 242.214 32.2354L242.204 32.3247ZM249.627 18.8172C249.753 18.8913 249.898 18.9291 250.044 18.9264C250.2 18.9278 250.353 18.8871 250.488 18.8085C250.622 18.7298 250.733 18.6162 250.808 18.4798L257.021 7.16563C257.077 7.06609 257.113 6.9564 257.126 6.84294C257.14 6.72948 257.13 6.61448 257.099 6.50463C257.068 6.39477 257.015 6.29225 256.944 6.20298C256.872 6.11371 256.784 6.03948 256.684 5.98459C256.482 5.87402 256.245 5.84743 256.024 5.91061C255.803 5.97378 255.615 6.12162 255.503 6.32202L249.28 17.6362C249.195 17.8303 249.185 18.0488 249.251 18.2501C249.317 18.4514 249.454 18.6214 249.637 18.7279L249.627 18.8172ZM228.785 31.7788C228.832 31.9668 228.941 32.1337 229.094 32.2525C229.247 32.3713 229.435 32.4352 229.629 32.4339H229.847C230.071 32.3755 230.262 32.231 230.379 32.032C230.496 31.833 230.53 31.5956 230.473 31.3719L223.456 4.06911C223.428 3.95898 223.378 3.85546 223.31 3.76443C223.242 3.67341 223.157 3.59667 223.059 3.53861C222.962 3.48055 222.853 3.4423 222.741 3.42604C222.629 3.40979 222.514 3.41585 222.404 3.44387C222.294 3.47189 222.19 3.52132 222.099 3.58936C222.008 3.65739 221.931 3.74269 221.873 3.84038C221.815 3.93807 221.777 4.04623 221.761 4.15871C221.745 4.27118 221.751 4.38575 221.779 4.49588L228.785 31.7788ZM237.718 32.4041H237.936C238.13 32.4054 238.318 32.3415 238.471 32.2227C238.624 32.1039 238.733 31.9371 238.78 31.7491L245.34 6.07391C245.381 5.85626 245.338 5.63118 245.219 5.44422C245.1 5.25726 244.915 5.12239 244.7 5.0669C244.486 5.01141 244.258 5.03943 244.064 5.14531C243.869 5.2512 243.722 5.42703 243.653 5.63722L237.063 31.2925C237.017 31.5105 237.056 31.7378 237.172 31.9278C237.289 32.1178 237.473 32.2563 237.688 32.3148L237.718 32.4041ZM244.665 62.6645C244.479 62.7997 244.354 63.0025 244.317 63.2292C244.28 63.4558 244.334 63.6879 244.466 63.8753L249.101 70.2569C249.183 70.3671 249.289 70.4567 249.411 70.5187C249.534 70.5807 249.669 70.6134 249.806 70.6142C249.992 70.6163 250.173 70.557 250.322 70.4454C250.506 70.3088 250.629 70.1052 250.664 69.8787C250.7 69.6521 250.644 69.4208 250.511 69.2346L245.876 62.8531C245.816 62.7524 245.736 62.6649 245.642 62.596C245.547 62.527 245.439 62.4781 245.325 62.4521C245.211 62.4261 245.093 62.4236 244.977 62.4447C244.862 62.4659 244.752 62.5103 244.655 62.5752L244.665 62.6645ZM262.291 18.182C262.411 18.184 262.529 18.1602 262.639 18.1122C262.749 18.0643 262.847 17.9933 262.926 17.9041L267.541 12.9418C267.703 12.7799 267.794 12.5603 267.794 12.3314C267.794 12.1025 267.703 11.883 267.541 11.7211C267.378 11.5586 267.157 11.4675 266.926 11.4675C266.695 11.4675 266.474 11.5586 266.311 11.7211L261.706 16.6834C261.544 16.8453 261.453 17.0648 261.453 17.2938C261.453 17.5227 261.544 17.7422 261.706 17.9041C261.869 18.0336 262.073 18.1005 262.281 18.0927L262.291 18.182ZM250.709 29.655C250.869 29.8088 251.083 29.8942 251.305 29.8932C251.424 29.891 251.541 29.8653 251.65 29.8176C251.759 29.7699 251.857 29.7011 251.94 29.6153L260.038 20.9907C260.175 20.8191 260.243 20.602 260.227 20.3829C260.211 20.1637 260.114 19.9585 259.953 19.8082C259.793 19.658 259.582 19.5736 259.362 19.5721C259.143 19.5705 258.93 19.6518 258.768 19.7998L250.669 28.4243C250.537 28.5865 250.466 28.791 250.472 29.0005C250.477 29.2101 250.558 29.4107 250.699 29.5657L250.709 29.655ZM249.528 56.0546L266.142 63.8753C266.257 63.9297 266.382 63.9569 266.509 63.9547C266.706 63.953 266.896 63.885 267.049 63.7617C267.203 63.6383 267.31 63.4669 267.353 63.2751C267.397 63.0834 267.375 62.8825 267.29 62.705C267.205 62.5276 267.063 62.3839 266.886 62.2973L250.262 54.4865C250.159 54.4383 250.048 54.4109 249.934 54.4057C249.821 54.4006 249.707 54.4178 249.601 54.4565C249.494 54.4952 249.395 54.5546 249.311 54.6313C249.227 54.708 249.159 54.8004 249.111 54.9034C249.063 55.0064 249.035 55.1178 249.03 55.2314C249.025 55.345 249.042 55.4584 249.081 55.5653C249.12 55.6722 249.179 55.7705 249.256 55.8544C249.333 55.9384 249.425 56.0064 249.528 56.0546ZM218.513 50.5961C218.47 50.3744 218.342 50.1782 218.157 50.0487C217.972 49.9191 217.744 49.8663 217.521 49.9013L191.369 54.8637C191.148 54.9071 190.953 55.0351 190.825 55.2206C190.697 55.406 190.647 55.6341 190.685 55.8562C190.723 56.0551 190.829 56.2347 190.985 56.3648C191.14 56.4949 191.335 56.5676 191.538 56.5707H191.697L217.848 51.6084C217.967 51.5846 218.079 51.5363 218.178 51.4665C218.276 51.3966 218.359 51.3069 218.421 51.2031C218.482 51.0993 218.522 50.9837 218.536 50.8637C218.55 50.7438 218.539 50.6221 218.503 50.5067L218.513 50.5961ZM210.107 57.8609L200.669 62.2973C200.492 62.3839 200.35 62.5276 200.265 62.705C200.181 62.8825 200.158 63.0834 200.202 63.2751C200.245 63.4669 200.353 63.6383 200.506 63.7617C200.659 63.885 200.849 63.953 201.046 63.9547C201.173 63.9569 201.298 63.9297 201.413 63.8753L210.852 59.4291C210.954 59.3802 211.047 59.3115 211.123 59.2269C211.2 59.1424 211.259 59.0436 211.297 58.9362C211.335 58.8289 211.352 58.715 211.346 58.6012C211.34 58.4874 211.312 58.3758 211.263 58.2728C211.214 58.1699 211.146 58.0775 211.061 58.0011C210.977 57.9247 210.878 57.8657 210.771 57.8274C210.663 57.7892 210.549 57.7724 210.436 57.7782C210.322 57.7839 210.21 57.8121 210.107 57.8609ZM219.595 33.8531C219.677 33.939 219.776 34.0071 219.885 34.0532C219.994 34.0993 220.112 34.1224 220.23 34.1211C220.452 34.1201 220.665 34.0349 220.826 33.8829C220.988 33.721 221.079 33.5014 221.079 33.2725C221.079 33.0436 220.988 32.8241 220.826 32.6622L204.946 15.7902C204.784 15.6422 204.572 15.5609 204.352 15.5625C204.132 15.564 203.921 15.6484 203.761 15.7987C203.601 15.9489 203.503 16.1541 203.487 16.3733C203.471 16.5925 203.539 16.8095 203.676 16.9811L219.595 33.8531ZM222.761 27.6403C222.66 27.6943 222.571 27.7679 222.499 27.8568C222.426 27.9457 222.372 28.0481 222.34 28.158C222.308 28.2679 222.298 28.3832 222.31 28.497C222.323 28.6109 222.358 28.7212 222.414 28.8213L224.111 31.8781C224.186 32.0146 224.297 32.1282 224.431 32.2068C224.566 32.2854 224.719 32.3262 224.875 32.3247C225.02 32.3252 225.163 32.2911 225.292 32.2255C225.392 32.1706 225.48 32.0963 225.552 32.0071C225.623 31.9178 225.676 31.8153 225.707 31.7054C225.739 31.5956 225.748 31.4806 225.735 31.3671C225.721 31.2537 225.685 31.144 225.629 31.0444L223.932 27.9082C223.879 27.8063 223.806 27.7161 223.718 27.6428C223.629 27.5695 223.527 27.5146 223.417 27.4813C223.307 27.448 223.191 27.4371 223.077 27.449C222.963 27.461 222.852 27.4956 222.751 27.5509L222.761 27.6403ZM212.539 10.8477C212.613 10.9853 212.724 11.1003 212.858 11.1806C212.993 11.2609 213.146 11.3036 213.303 11.3042C213.448 11.3009 213.591 11.2635 213.72 11.195C213.82 11.1402 213.908 11.0659 213.98 10.9766C214.051 10.8874 214.104 10.7848 214.135 10.675C214.166 10.5651 214.176 10.4502 214.162 10.3367C214.149 10.2232 214.113 10.1136 214.057 10.014L211.566 5.47842C211.442 5.30188 211.257 5.17749 211.047 5.12922C210.837 5.08094 210.616 5.1122 210.427 5.21697C210.239 5.32175 210.096 5.49262 210.025 5.69666C209.955 5.90069 209.963 6.12346 210.048 6.32202L212.539 10.8477ZM220.389 25.1293C220.463 25.265 220.572 25.3782 220.705 25.4569C220.837 25.5355 220.989 25.5766 221.143 25.5759C221.293 25.5784 221.44 25.5408 221.57 25.4668C221.771 25.354 221.918 25.1667 221.982 24.9456C222.045 24.7245 222.018 24.4874 221.908 24.2857L215.814 13.2098C215.76 13.1087 215.686 13.0195 215.597 12.9472C215.508 12.8748 215.406 12.821 215.296 12.7886C215.186 12.7563 215.071 12.7462 214.957 12.7588C214.843 12.7715 214.733 12.8067 214.633 12.8624C214.432 12.9752 214.285 13.1625 214.221 13.3836C214.158 13.6047 214.185 13.8418 214.295 14.0434L220.389 25.1293ZM249.846 45.8024C249.631 45.8307 249.435 45.9375 249.295 46.102C249.155 46.2666 249.081 46.4772 249.087 46.6932C249.093 46.9093 249.179 47.1153 249.328 47.2716C249.478 47.4279 249.68 47.5232 249.895 47.5393H249.915L259.423 46.9339C259.652 46.9194 259.866 46.8145 260.017 46.6423C260.169 46.4702 260.246 46.2448 260.232 46.0158C260.217 45.7868 260.112 45.573 259.94 45.4213C259.768 45.2696 259.543 45.1925 259.314 45.207L249.846 45.8024ZM222.89 62.6744C222.798 62.6069 222.694 62.5582 222.584 62.5311C222.473 62.504 222.358 62.4991 222.245 62.5167C222.133 62.5342 222.025 62.5738 221.928 62.6333C221.831 62.6927 221.746 62.7708 221.679 62.863L212.291 75.7651C212.224 75.8574 212.176 75.9621 212.149 76.0731C212.123 76.1842 212.119 76.2993 212.137 76.4119C212.156 76.5245 212.196 76.6323 212.257 76.7291C212.317 76.8259 212.396 76.9098 212.489 76.9759C212.633 77.0888 212.812 77.1484 212.995 77.1446C213.133 77.1462 213.269 77.1146 213.391 77.0524C213.514 76.9902 213.62 76.8993 213.7 76.7873L223.089 63.8852C223.172 63.7899 223.233 63.6775 223.268 63.5558C223.303 63.4342 223.311 63.3064 223.291 63.1814C223.271 63.0564 223.224 62.9373 223.153 62.8325C223.082 62.7278 222.989 62.6399 222.88 62.5752L222.89 62.6744ZM250.094 86.4639C250.052 86.3583 249.99 86.2619 249.911 86.1802C249.832 86.0986 249.738 86.0333 249.634 85.9881C249.53 85.943 249.418 85.9188 249.304 85.917C249.191 85.9152 249.078 85.9358 248.972 85.9776C248.759 86.0618 248.587 86.2267 248.494 86.4366C248.401 86.6464 248.395 86.8844 248.476 87.0991L250.153 91.3369C250.217 91.5007 250.329 91.6414 250.474 91.7406C250.62 91.8397 250.791 91.8927 250.967 91.8927C251.077 91.8946 251.186 91.8708 251.285 91.8232C251.391 91.7827 251.488 91.7213 251.571 91.6426C251.653 91.5639 251.719 91.4695 251.764 91.365C251.81 91.2605 251.834 91.148 251.835 91.034C251.836 90.9201 251.814 90.8071 251.771 90.7017L250.094 86.4639ZM243.702 70.3065C243.605 70.109 243.437 69.9553 243.232 69.8762C243.027 69.7971 242.799 69.7985 242.595 69.88C242.39 69.9615 242.224 70.1171 242.13 70.3158C242.035 70.5145 242.019 70.7416 242.084 70.9516L246.739 82.7024C246.838 82.895 247.005 83.044 247.208 83.1205C247.41 83.1969 247.634 83.1955 247.835 83.1163C248.037 83.0372 248.202 82.8861 248.298 82.6923C248.394 82.4984 248.415 82.2757 248.357 82.0673L243.702 70.3065ZM242.094 66.2473L240.983 63.389C240.942 63.2825 240.881 63.1852 240.802 63.1028C240.724 63.0205 240.629 62.9547 240.525 62.9094C240.42 62.864 240.308 62.8401 240.194 62.8389C240.08 62.8378 239.967 62.8595 239.861 62.9027C239.647 62.9888 239.476 63.1561 239.385 63.3681C239.294 63.5801 239.29 63.8195 239.375 64.0341L240.506 66.9023C240.572 67.0619 240.684 67.1987 240.827 67.2957C240.97 67.3928 241.138 67.4458 241.31 67.4482C241.422 67.4469 241.533 67.4268 241.638 67.3886C241.847 67.2969 242.011 67.1273 242.096 66.9159C242.182 66.7045 242.181 66.4681 242.094 66.2572V66.2473ZM237.827 79.7151C237.942 79.7005 238.053 79.6631 238.153 79.605C238.254 79.547 238.342 79.4695 238.412 79.3771C238.482 79.2847 238.534 79.1793 238.562 79.0669C238.591 78.9545 238.598 78.8375 238.581 78.7226L236.666 63.6371C236.661 63.5164 236.63 63.398 236.577 63.2895C236.524 63.181 236.449 63.0847 236.357 63.0067C236.264 62.9287 236.157 62.8708 236.041 62.8365C235.925 62.8022 235.803 62.7923 235.683 62.8074C235.564 62.8226 235.448 62.8625 235.344 62.9245C235.241 62.9866 235.151 63.0695 235.081 63.168C235.011 63.2665 234.962 63.3785 234.938 63.4968C234.913 63.6151 234.914 63.7373 234.939 63.8555L236.854 79.0005C236.881 79.2111 236.983 79.4048 237.142 79.5454C237.301 79.686 237.505 79.764 237.718 79.7647L237.827 79.7151ZM238.134 82.1268C238.019 82.1414 237.908 82.1788 237.808 82.2368C237.707 82.2949 237.619 82.3724 237.549 82.4648C237.479 82.5572 237.428 82.6627 237.399 82.775C237.37 82.8874 237.363 83.0044 237.38 83.1193L238.502 91.9721C238.526 92.1808 238.627 92.3733 238.784 92.5125C238.942 92.6516 239.145 92.7278 239.355 92.7264H239.464C239.579 92.7118 239.691 92.6744 239.791 92.6163C239.892 92.5583 239.98 92.4808 240.05 92.3884C240.12 92.296 240.171 92.1905 240.2 92.0782C240.229 91.9658 240.235 91.8487 240.219 91.7339L239.107 82.8811C239.075 82.6543 238.955 82.4491 238.773 82.3098C238.591 82.1706 238.362 82.1084 238.134 82.1367V82.1268ZM233.768 1.82322e-09C233.538 -1.48439e-05 233.317 0.090633 233.154 0.252282C232.99 0.413931 232.897 0.633535 232.894 0.863443V7.43358C232.894 7.66522 232.986 7.88736 233.15 8.05115C233.314 8.21494 233.536 8.30696 233.768 8.30696C233.999 8.30696 234.221 8.21494 234.385 8.05115C234.549 7.88736 234.641 7.66522 234.641 7.43358V0.863443C234.636 0.635268 234.541 0.418193 234.378 0.258673C234.215 0.099152 233.996 0.00986029 233.768 0.00991924V1.82322e-09ZM280.414 43.7778L263.105 44.8695C262.991 44.8758 262.88 44.9045 262.778 44.9539C262.676 45.0032 262.584 45.0723 262.509 45.1571C262.433 45.2419 262.375 45.3409 262.338 45.4482C262.3 45.5555 262.284 45.6692 262.291 45.7826C262.306 46.0047 262.404 46.2129 262.566 46.3656C262.728 46.5184 262.942 46.6043 263.165 46.6063L280.473 45.5245C280.689 45.4921 280.886 45.3797 281.023 45.2097C281.16 45.0396 281.229 44.8242 281.215 44.6061C281.201 44.3879 281.106 44.1828 280.949 44.0313C280.791 43.8798 280.583 43.7929 280.364 43.7877L280.414 43.7778ZM277.436 55.0423L249.985 49.8021C249.868 49.7674 249.745 49.7575 249.624 49.7732C249.503 49.7889 249.386 49.8297 249.282 49.8931C249.178 49.9564 249.088 50.041 249.019 50.1412C248.949 50.2413 248.901 50.355 248.878 50.4748C248.855 50.5946 248.858 50.7178 248.885 50.8367C248.913 50.9555 248.965 51.0672 249.038 51.1647C249.112 51.2621 249.205 51.3431 249.311 51.4024C249.418 51.4618 249.536 51.4981 249.657 51.5091L277.109 56.7494H277.277C277.491 56.7433 277.695 56.6593 277.85 56.5132C278.006 56.3671 278.103 56.1689 278.122 55.9563C278.142 55.7437 278.083 55.5313 277.957 55.3592C277.83 55.1871 277.645 55.0674 277.436 55.0225V55.0423ZM276.761 66.8924L270.757 64.0341C270.551 63.9587 270.325 63.9633 270.123 64.0469C269.92 64.1305 269.757 64.2871 269.664 64.4856C269.572 64.6841 269.558 64.91 269.624 65.1186C269.69 65.3273 269.832 65.5034 270.022 65.6121L276.106 68.4704C276.221 68.5259 276.347 68.5531 276.474 68.5498C276.671 68.5511 276.863 68.4848 277.017 68.3618C277.171 68.2389 277.279 68.0668 277.322 67.8742C277.365 67.6817 277.34 67.4802 277.253 67.3033C277.165 67.1265 277.02 66.985 276.841 66.9023L276.761 66.8924ZM249.399 59.4489C249.311 59.3761 249.21 59.3214 249.101 59.2879C248.992 59.2545 248.877 59.2429 248.764 59.254C248.65 59.2651 248.54 59.2985 248.44 59.3524C248.339 59.4063 248.25 59.4796 248.178 59.568C248.104 59.6552 248.048 59.7564 248.014 59.8656C247.98 59.9747 247.968 60.0897 247.979 60.2036C247.99 60.3175 248.024 60.4279 248.079 60.5285C248.133 60.629 248.208 60.7175 248.297 60.7887L266.876 76.1521C267.027 76.2852 267.221 76.3592 267.422 76.3606C267.603 76.3642 267.78 76.3112 267.929 76.2089C268.077 76.1067 268.19 75.9604 268.252 75.7907C268.313 75.6209 268.32 75.4362 268.271 75.2625C268.221 75.0887 268.119 74.9348 267.978 74.8222L249.399 59.4489ZM253.538 73.4129C253.479 73.3063 253.398 73.2132 253.301 73.1398C253.204 73.0664 253.093 73.0144 252.974 72.9872C252.856 72.9599 252.732 72.9581 252.613 72.9817C252.494 73.0054 252.381 73.054 252.281 73.1244C252.182 73.1948 252.099 73.2854 252.037 73.3903C251.975 73.4951 251.936 73.6119 251.923 73.7328C251.909 73.8538 251.921 73.9763 251.959 74.0922C251.996 74.2081 252.057 74.3148 252.138 74.4054L258.619 83.3376C258.701 83.4478 258.807 83.5374 258.929 83.5994C259.052 83.6614 259.187 83.6941 259.324 83.6949C259.51 83.6971 259.691 83.6378 259.84 83.5262C260.024 83.3895 260.147 83.1859 260.182 82.9594C260.217 82.7329 260.162 82.5016 260.028 82.3154L253.538 73.4129ZM197.036 63.8753L191.082 66.684C190.872 66.7829 190.711 66.9607 190.633 67.1784C190.555 67.3961 190.566 67.6359 190.665 67.8452C190.734 67.9947 190.844 68.1211 190.983 68.2091C191.122 68.2972 191.284 68.3431 191.449 68.3414C191.575 68.3386 191.7 68.3116 191.816 68.262L197.771 65.4533C197.98 65.3544 198.141 65.1766 198.219 64.9589C198.297 64.7412 198.286 64.5014 198.188 64.2921C198.089 64.1026 197.925 63.9561 197.725 63.881C197.525 63.8058 197.305 63.8074 197.106 63.8852L197.036 63.8753ZM233.698 12.654C233.467 12.6566 233.247 12.7494 233.083 12.9126C232.92 13.0759 232.827 13.2965 232.825 13.5273V31.4613C232.825 31.6929 232.917 31.915 233.081 32.0788C233.244 32.2426 233.466 32.3346 233.698 32.3346C233.93 32.3346 234.152 32.2426 234.316 32.0788C234.479 31.915 234.571 31.6929 234.571 31.4613V13.5373C234.57 13.3179 234.487 13.1069 234.338 12.9454C234.19 12.784 233.986 12.6836 233.768 12.6639L233.698 12.654ZM218.156 36.6916L214.375 34.2898C214.18 34.1674 213.945 34.1274 213.72 34.1786C213.496 34.2298 213.301 34.3679 213.179 34.5627C213.056 34.7575 213.016 34.9929 213.068 35.2172C213.119 35.4415 213.257 35.6363 213.452 35.7587L217.223 38.1604C217.417 38.261 217.642 38.2853 217.853 38.2284C218.063 38.1716 218.245 38.0378 218.363 37.8534C218.48 37.669 218.523 37.4474 218.485 37.2323C218.447 37.0173 218.33 36.8243 218.156 36.6916ZM219.218 59.5184C219.145 59.4307 219.056 59.3583 218.955 59.3053C218.854 59.2523 218.744 59.2198 218.63 59.2096C218.517 59.1995 218.403 59.2119 218.294 59.2461C218.185 59.2804 218.084 59.3358 217.997 59.4092L199.994 74.2962C199.906 74.369 199.834 74.4583 199.781 74.5592C199.728 74.6601 199.695 74.7704 199.685 74.8839C199.675 74.9973 199.687 75.1117 199.722 75.2204C199.756 75.329 199.811 75.4298 199.885 75.517C199.957 75.6054 200.046 75.6786 200.146 75.7325C200.247 75.7864 200.357 75.8199 200.47 75.8309C200.584 75.842 200.698 75.8305 200.807 75.797C200.916 75.7636 201.018 75.7089 201.105 75.6361L219.109 60.749C219.283 60.6117 219.398 60.4132 219.432 60.1938C219.465 59.9745 219.413 59.7507 219.287 59.568L219.218 59.5184ZM196.262 24.782L210.226 33.6447C210.362 33.7335 210.52 33.7817 210.683 33.7837C210.871 33.7823 211.054 33.7203 211.204 33.6068C211.354 33.4933 211.463 33.3343 211.515 33.1536C211.568 32.973 211.56 32.7802 211.495 32.604C211.429 32.4278 211.307 32.2776 211.149 32.1758L197.314 23.3925C197.119 23.2697 196.884 23.2289 196.659 23.2791C196.434 23.3293 196.238 23.4664 196.113 23.6605C195.982 23.8475 195.93 24.0789 195.969 24.304C196.009 24.529 196.135 24.7295 196.322 24.8613L196.262 24.782ZM188.997 33.9027L196.322 36.2847C196.41 36.2991 196.501 36.2991 196.59 36.2847C196.772 36.2853 196.95 36.228 197.099 36.121C197.247 36.014 197.357 35.8628 197.413 35.6892C197.486 35.4694 197.468 35.23 197.363 35.0234C197.259 34.8169 197.077 34.6601 196.858 34.5876L189.533 32.2155C189.425 32.1803 189.311 32.1668 189.198 32.1757C189.084 32.1846 188.974 32.2157 188.872 32.2673C188.771 32.3189 188.681 32.39 188.607 32.4765C188.533 32.563 188.477 32.6631 188.442 32.7713C188.406 32.8795 188.393 32.9936 188.402 33.107C188.411 33.2204 188.442 33.3309 188.493 33.4323C188.545 33.5337 188.616 33.6239 188.702 33.6978C188.789 33.7717 188.889 33.8278 188.997 33.863V33.9027ZM202.277 46.4773C202.467 46.431 202.636 46.3222 202.757 46.1683C202.878 46.0144 202.943 45.8244 202.943 45.6288C202.943 45.4331 202.878 45.2431 202.757 45.0892C202.636 44.9353 202.467 44.8265 202.277 44.7802L187.062 43.7877C186.843 43.7929 186.635 43.8798 186.477 44.0313C186.32 44.1828 186.225 44.3879 186.211 44.6061C186.197 44.8242 186.266 45.0396 186.403 45.2097C186.541 45.3797 186.737 45.4921 186.953 45.5245L202.167 46.517L202.277 46.4773ZM231.852 62.8531C231.737 62.8363 231.62 62.8426 231.508 62.8716C231.395 62.9006 231.29 62.9517 231.198 63.0219C231.105 63.0922 231.028 63.1801 230.97 63.2806C230.912 63.3811 230.874 63.4922 230.86 63.6073L226.989 94.2051C226.972 94.32 226.979 94.437 227.008 94.5494C227.037 94.6618 227.088 94.7673 227.158 94.8597C227.228 94.9521 227.316 95.0296 227.417 95.0876C227.517 95.1456 227.628 95.183 227.743 95.1976H227.862C228.073 95.199 228.276 95.1229 228.433 94.9837C228.591 94.8445 228.692 94.6521 228.716 94.4434L232.587 63.8455C232.603 63.7314 232.597 63.6151 232.569 63.5033C232.541 63.3915 232.49 63.2865 232.421 63.1942C232.352 63.1019 232.265 63.0242 232.166 62.9657C232.066 62.9071 231.956 62.8689 231.842 62.8531H231.852ZM227.714 62.9027C227.608 62.8595 227.495 62.8378 227.381 62.8389C227.267 62.8401 227.155 62.864 227.05 62.9094C226.946 62.9547 226.851 63.0205 226.773 63.1028C226.694 63.1852 226.633 63.2825 226.592 63.389L222.87 72.7777C222.789 72.9924 222.796 73.2304 222.888 73.4403C222.981 73.6501 223.153 73.815 223.367 73.8992C223.472 73.9411 223.585 73.9617 223.698 73.9599C223.812 73.9581 223.924 73.9339 224.028 73.8887C224.132 73.8435 224.227 73.7782 224.305 73.6966C224.384 73.615 224.446 73.5186 224.488 73.4129L228.2 64.0341C228.242 63.9272 228.262 63.8132 228.26 63.6985C228.257 63.5838 228.232 63.4706 228.186 63.3656C228.14 63.2605 228.074 63.1655 227.991 63.0861C227.908 63.0067 227.811 62.9444 227.704 62.9027H227.714ZM222.295 76.5392C222.189 76.496 222.076 76.4743 221.962 76.4755C221.848 76.4766 221.736 76.5005 221.631 76.5459C221.527 76.5912 221.432 76.657 221.354 76.7394C221.275 76.8218 221.214 76.919 221.173 77.0255L215.764 90.6819C215.721 90.7873 215.699 90.9003 215.7 91.0142C215.702 91.1281 215.726 91.2407 215.771 91.3452C215.816 91.4497 215.882 91.5441 215.964 91.6228C216.047 91.7015 216.144 91.7629 216.251 91.8034C216.35 91.851 216.458 91.8748 216.568 91.8729C216.744 91.8729 216.916 91.8199 217.061 91.7207C217.206 91.6215 217.318 91.4809 217.382 91.3171L222.791 77.6607C222.872 77.4461 222.866 77.2081 222.773 76.9982C222.68 76.7883 222.508 76.6235 222.295 76.5392ZM209.76 79.1196L205.601 84.8462C205.469 85.0336 205.415 85.2657 205.452 85.4923C205.489 85.7189 205.614 85.9218 205.8 86.057C205.944 86.1699 206.123 86.2295 206.306 86.2257C206.444 86.2274 206.579 86.1957 206.702 86.1335C206.825 86.0713 206.931 85.9803 207.011 85.8684L211.169 80.1419C211.237 80.0501 211.285 79.9459 211.312 79.8353C211.339 79.7247 211.344 79.6097 211.327 79.4972C211.309 79.3847 211.27 79.2767 211.21 79.1795C211.151 79.0824 211.073 78.9979 210.98 78.9311C210.886 78.8648 210.78 78.8178 210.667 78.7929C210.555 78.768 210.438 78.7657 210.325 78.7859C210.211 78.8062 210.103 78.8488 210.006 78.9112C209.909 78.9736 209.825 79.0545 209.76 79.1494V79.1196Z" fill="white"/>
<path fill-rule="evenodd" clip-rule="evenodd" d="M273.018 103.12C273.183 103.502 273.271 103.913 273.278 104.328L273.466 114.898C273.473 115.314 273.398 115.727 273.244 116.114C273.091 116.5 272.864 116.853 272.574 117.151C272.285 117.45 271.94 117.689 271.558 117.854C271.176 118.019 270.766 118.107 270.35 118.114L162.389 119.999C161.974 120.007 161.561 119.933 161.175 119.781C160.788 119.629 160.435 119.402 160.137 119.114C159.838 118.825 159.599 118.48 159.434 118.099C159.268 117.718 159.18 117.308 159.174 116.893L158.985 106.323C158.977 105.907 159.052 105.493 159.204 105.105C159.357 104.717 159.584 104.363 159.874 104.063C160.163 103.764 160.509 103.524 160.891 103.358C161.274 103.193 161.685 103.104 162.101 103.098L270.062 101.212C270.478 101.205 270.891 101.281 271.278 101.434C271.664 101.587 272.017 101.815 272.316 102.104C272.614 102.393 272.853 102.739 273.018 103.12ZM50.2303 108.12C50.6926 108.364 51.075 108.736 51.332 109.191C51.6208 109.664 51.7784 110.206 51.7885 110.76L46.8262 111.752C46.9655 112.163 47.2424 112.514 47.6102 112.744C48.0161 112.982 48.4799 113.102 48.9501 113.092C49.2857 113.106 49.6203 113.047 49.9307 112.919C50.241 112.79 50.5194 112.595 50.7464 112.347L51.3617 113.072C51.0807 113.402 50.7229 113.658 50.3197 113.816C49.8757 113.997 49.3995 114.085 48.9203 114.074C48.3142 114.088 47.7142 113.952 47.1735 113.677C46.682 113.418 46.2728 113.026 45.9925 112.546C45.7101 112.043 45.5663 111.475 45.5756 110.898C45.5699 110.33 45.71 109.77 45.9826 109.271C46.2407 108.798 46.6256 108.406 47.0941 108.139C47.5823 107.867 48.1331 107.727 48.692 107.733C49.2298 107.725 49.7602 107.858 50.2303 108.12ZM46.9254 109.708C46.7497 110.058 46.6612 110.447 46.6674 110.839V110.958L50.6769 110.214C50.5722 109.77 50.3176 109.375 49.9561 109.097C49.5945 108.818 49.1481 108.673 48.692 108.685C48.3269 108.679 47.9669 108.772 47.6499 108.953C47.3453 109.135 47.0951 109.396 46.9254 109.708ZM42.2509 108.705C41.8669 108.7 41.4878 108.792 41.1492 108.973V108.993C40.8345 109.163 40.5733 109.417 40.395 109.727C40.2044 110.077 40.1085 110.471 40.1171 110.869C40.1078 111.273 40.2036 111.673 40.395 112.03C40.5688 112.351 40.8304 112.616 41.1492 112.794C41.4878 112.975 41.8669 113.068 42.2509 113.062C42.5947 113.072 42.9356 112.997 43.2434 112.844C43.538 112.684 43.7872 112.451 43.9678 112.169L44.8214 112.715C44.5912 113.133 44.247 113.477 43.8289 113.707C43.3606 113.94 42.843 114.055 42.3203 114.045C41.7289 114.059 41.144 113.919 40.6232 113.638C40.1405 113.373 39.739 112.982 39.4621 112.506C39.1821 112.008 39.0351 111.445 39.0351 110.874C39.0351 110.302 39.1821 109.74 39.4621 109.241C39.7336 108.761 40.1364 108.369 40.6232 108.11C41.1457 107.833 41.7294 107.693 42.3203 107.703C42.8438 107.695 43.3614 107.814 43.8289 108.05C44.2519 108.274 44.5977 108.62 44.8214 109.043L43.9678 109.588C43.7859 109.309 43.5368 109.081 43.2434 108.923C42.9356 108.77 42.5947 108.695 42.2509 108.705ZM59.7779 107.713C60.3433 107.706 60.9007 107.846 61.3956 108.12V108.139C61.8596 108.385 62.2449 108.757 62.5072 109.211C62.7888 109.714 62.9294 110.283 62.9141 110.859C62.9292 111.438 62.7887 112.01 62.5072 112.516C62.2543 112.991 61.8678 113.381 61.3956 113.638C60.8999 113.908 60.3424 114.045 59.7779 114.035C59.3535 114.042 58.9328 113.954 58.5472 113.777C58.178 113.607 57.8547 113.352 57.6044 113.032V116.238H56.4829V107.772H57.5151V108.765C57.7709 108.42 58.1133 108.15 58.5075 107.981C58.9061 107.799 59.3399 107.707 59.7779 107.713ZM60.7505 112.794C61.0687 112.611 61.3298 112.343 61.5048 112.02V112.04C61.6962 111.683 61.7919 111.283 61.7827 110.879C61.7859 110.481 61.6905 110.089 61.5048 109.737C61.3283 109.418 61.0674 109.154 60.7505 108.973C60.4223 108.798 60.0558 108.706 59.6836 108.706C59.3114 108.706 58.9449 108.798 58.6167 108.973C58.3022 109.158 58.0446 109.426 57.8723 109.747C57.6808 110.093 57.5849 110.484 57.5945 110.879C57.5851 111.276 57.6774 111.669 57.8624 112.02C58.0305 112.348 58.2933 112.618 58.6167 112.794C58.9427 112.977 59.31 113.073 59.6836 113.073C60.0572 113.073 60.4245 112.977 60.7505 112.794ZM14.5908 108.12C15.049 108.37 15.4299 108.74 15.6924 109.191C15.9639 109.669 16.1043 110.21 16.0993 110.76L11.137 111.752C11.2803 112.164 11.5605 112.514 11.9309 112.744C12.3358 112.985 12.8003 113.105 13.2708 113.092C13.6062 113.105 13.9405 113.045 14.2506 112.917C14.5607 112.788 14.8393 112.594 15.0671 112.347L15.6726 113.072C15.4083 113.398 15.0673 113.654 14.6801 113.816C14.2361 113.997 13.7599 114.085 13.2807 114.074C12.6746 114.089 12.0744 113.952 11.534 113.677C11.0395 113.422 10.6294 113.029 10.3529 112.546C10.0705 112.043 9.92672 111.475 9.9361 110.898C9.93036 110.33 10.0704 109.77 10.343 109.271C10.5985 108.796 10.9841 108.403 11.4546 108.139C11.9423 107.866 12.4933 107.726 13.0524 107.733C13.5901 107.726 14.1201 107.86 14.5908 108.12ZM11.0278 110.839V110.958L14.9977 110.214C14.9094 109.778 14.6705 109.388 14.3228 109.112C13.9616 108.827 13.5126 108.676 13.0524 108.685C12.6842 108.68 12.3211 108.772 12.0004 108.953C11.6956 109.132 11.4478 109.394 11.2858 109.708C11.1101 110.058 11.0216 110.447 11.0278 110.839ZM1.91693 105.807H3.08804V113.012H7.53431V114.005H1.91693V105.807ZM19.8211 110.492C20.2301 110.559 20.6346 110.651 21.0319 110.769L21.0418 110.76C21.3583 110.833 21.6473 110.995 21.8755 111.226C22.1116 111.501 22.2293 111.857 22.203 112.218C22.208 112.485 22.1439 112.749 22.0169 112.984C21.89 113.218 21.7045 113.416 21.4785 113.558C20.8847 113.926 20.1907 114.1 19.4935 114.055C19.0005 114.055 18.5097 113.988 18.0346 113.856C17.6368 113.754 17.2626 113.575 16.933 113.33L17.3995 112.437C17.7012 112.65 18.0367 112.811 18.3919 112.913C18.7761 113.023 19.1735 113.079 19.573 113.082C20.5654 113.082 21.0517 112.804 21.0517 112.238C21.0556 112.154 21.0397 112.069 21.0053 111.992C20.9708 111.914 20.9188 111.846 20.8533 111.792C20.7081 111.676 20.5384 111.594 20.357 111.554C20.1585 111.504 19.8707 111.444 19.5035 111.385C19.0908 111.324 18.6829 111.235 18.2827 111.117C17.9717 111.017 17.6915 110.84 17.4689 110.601C17.2348 110.325 17.1142 109.97 17.1315 109.608C17.1256 109.342 17.1871 109.079 17.3103 108.843C17.4335 108.607 17.6144 108.406 17.8361 108.259C18.394 107.891 19.0544 107.71 19.7218 107.742C20.1401 107.747 20.5565 107.8 20.9624 107.901C21.3128 107.983 21.6479 108.12 21.9549 108.308L21.4686 109.201C20.9317 108.863 20.3068 108.69 19.6722 108.705C19.2963 108.68 18.9211 108.763 18.5904 108.943C18.4765 109.003 18.381 109.093 18.3145 109.203C18.2481 109.314 18.213 109.44 18.2133 109.569C18.2097 109.659 18.2266 109.748 18.2627 109.831C18.2988 109.913 18.3532 109.986 18.4217 110.045C18.5764 110.168 18.7558 110.256 18.9477 110.303L18.9743 110.309C19.1804 110.358 19.4598 110.425 19.8211 110.492ZM35.3532 108.04C35.7212 108.207 36.0418 108.463 36.2861 108.785L36.3258 107.852H37.4473V114.064H36.3755V113.072C36.1196 113.416 35.7772 113.687 35.383 113.856C34.9844 114.038 34.5506 114.129 34.1126 114.124C33.5481 114.134 32.9906 113.997 32.4949 113.727C32.0227 113.47 31.6362 113.08 31.3833 112.606C31.1062 112.098 30.966 111.527 30.9764 110.948C30.9659 110.373 31.1062 109.805 31.3833 109.301C31.6396 108.831 32.0255 108.445 32.4949 108.189C32.9898 107.916 33.5473 107.775 34.1126 107.782C34.5399 107.778 34.963 107.866 35.3532 108.04ZM35.2738 112.864C35.5972 112.687 35.86 112.417 36.0281 112.089L36.038 112.04C36.2116 111.702 36.3002 111.328 36.2961 110.948C36.3028 110.551 36.2107 110.159 36.0281 109.807C35.857 109.484 35.5947 109.218 35.2738 109.043C34.9456 108.867 34.5791 108.775 34.2069 108.775C33.8347 108.775 33.4682 108.867 33.14 109.043C32.8231 109.223 32.5622 109.488 32.3857 109.807C32.2031 110.159 32.111 110.551 32.1178 110.948C32.1084 111.345 32.2007 111.738 32.3857 112.089C32.5607 112.412 32.8218 112.68 33.14 112.864C33.466 113.046 33.8333 113.142 34.2069 113.142C34.5805 113.142 34.9479 113.046 35.2738 112.864ZM26.8477 107.782C27.4133 107.774 27.9711 107.914 28.4655 108.189L28.4754 108.139C28.9497 108.407 29.3359 108.807 29.587 109.291C29.8372 109.775 29.9634 110.314 29.9542 110.859C29.9646 111.437 29.8244 112.008 29.5473 112.516C29.2908 112.991 28.901 113.381 28.4258 113.638C27.9304 113.909 27.3727 114.046 26.8081 114.035C26.3868 114.043 25.9691 113.955 25.5873 113.777C25.2164 113.61 24.8924 113.354 24.6445 113.032V116.238H23.5131V107.842H24.5949V108.834C24.8483 108.487 25.1914 108.216 25.5873 108.05C25.9829 107.87 26.4131 107.778 26.8477 107.782ZM27.8303 112.864C28.1489 112.684 28.4078 112.415 28.5747 112.089L28.5945 112.04C28.772 111.704 28.8608 111.328 28.8526 110.948C28.8611 110.55 28.7653 110.156 28.5747 109.807C28.4044 109.486 28.1461 109.221 27.8303 109.043C27.5026 108.861 27.133 108.769 26.7584 108.775C26.3887 108.762 26.0227 108.853 25.7018 109.037C25.3808 109.221 25.1178 109.491 24.9422 109.817C24.7658 110.17 24.6739 110.559 24.6739 110.953C24.6739 111.348 24.7658 111.737 24.9422 112.089C25.1091 112.415 25.368 112.684 25.6866 112.864C26.0123 113.051 26.3826 113.147 26.7584 113.141C27.1344 113.149 27.5052 113.053 27.8303 112.864ZM8.14194 105.342C8.23923 105.304 8.34319 105.287 8.44739 105.291L8.4573 105.241C8.64707 105.254 8.82463 105.34 8.95353 105.48C9.0266 105.554 9.08369 105.643 9.12124 105.74C9.15879 105.837 9.17601 105.941 9.17188 106.045C9.18706 106.161 9.18706 106.277 9.17188 106.393C9.13744 106.559 9.08761 106.722 9.02301 106.879L8.4573 108.517H7.72288L8.14964 106.77C8.00394 106.723 7.87817 106.629 7.79236 106.502C7.70428 106.347 7.6656 106.169 7.68157 105.992C7.69753 105.814 7.76737 105.646 7.88168 105.509C7.95609 105.436 8.04465 105.379 8.14194 105.342ZM138.679 108.04C139.052 108.204 139.376 108.46 139.622 108.785V105.321H140.744V114.064H139.711V113.072C139.455 113.416 139.113 113.687 138.719 113.856C138.323 114.036 137.893 114.128 137.458 114.124C136.894 114.135 136.336 113.998 135.841 113.727C135.363 113.473 134.973 113.083 134.719 112.606C134.442 112.098 134.302 111.527 134.312 110.948C134.302 110.373 134.442 109.805 134.719 109.301C134.976 108.828 135.366 108.442 135.841 108.189C136.335 107.914 136.893 107.774 137.458 107.782C137.879 107.781 138.295 107.869 138.679 108.04ZM138.61 112.864C138.933 112.687 139.196 112.417 139.364 112.089L139.374 112.04C139.547 111.702 139.636 111.328 139.632 110.948C139.639 110.551 139.547 110.159 139.364 109.807C139.193 109.484 138.931 109.218 138.61 109.043C138.281 108.867 137.915 108.775 137.543 108.775C137.171 108.775 136.804 108.867 136.476 109.043C136.159 109.223 135.898 109.488 135.722 109.807C135.539 110.159 135.447 110.551 135.454 110.948C135.444 111.345 135.537 111.738 135.722 112.089C135.897 112.412 136.158 112.68 136.476 112.864C136.802 113.046 137.169 113.142 137.543 113.142C137.916 113.142 138.284 113.046 138.61 112.864ZM128.635 108.169C129.098 108.414 129.48 108.786 129.737 109.241L129.747 109.191C130.041 109.68 130.195 110.239 130.194 110.809L125.231 111.802C125.371 112.213 125.647 112.563 126.015 112.794C126.424 113.033 126.892 113.153 127.365 113.141C127.699 113.154 128.032 113.095 128.34 112.966C128.649 112.838 128.926 112.643 129.151 112.397L129.767 113.122C129.486 113.451 129.128 113.707 128.725 113.866C128.281 114.047 127.805 114.134 127.325 114.124C126.719 114.137 126.119 114.001 125.579 113.727C125.087 113.468 124.678 113.076 124.398 112.596C124.115 112.093 123.971 111.525 123.981 110.948C123.975 110.38 124.115 109.819 124.388 109.32C124.646 108.847 125.031 108.455 125.499 108.189C125.991 107.916 126.545 107.775 127.107 107.782C127.641 107.776 128.168 107.909 128.635 108.169ZM125.072 110.889V111.008L129.052 110.263C128.961 109.827 128.718 109.437 128.367 109.162C128.012 108.873 127.565 108.722 127.107 108.735C126.739 108.728 126.375 108.82 126.055 109.003C125.75 109.185 125.5 109.445 125.33 109.757C125.155 110.108 125.066 110.496 125.072 110.889ZM120.974 107.842V108.884L120.983 108.834C121.188 108.496 121.488 108.226 121.847 108.06C122.285 107.859 122.764 107.76 123.246 107.772V108.864H122.988C122.724 108.849 122.459 108.89 122.211 108.984C121.963 109.078 121.738 109.223 121.549 109.41C121.18 109.842 120.995 110.401 121.033 110.968V114.055H119.902V107.842H120.974ZM146.956 108.169C147.419 108.414 147.801 108.786 148.058 109.241L148.068 109.191C148.364 109.669 148.525 110.218 148.534 110.779L143.572 111.772C143.711 112.183 143.988 112.534 144.356 112.764C144.765 113.003 145.232 113.123 145.706 113.112C146.04 113.125 146.373 113.065 146.681 112.936C146.99 112.808 147.266 112.614 147.492 112.367L148.108 113.092C147.827 113.422 147.469 113.677 147.066 113.836C146.622 114.017 146.145 114.105 145.666 114.094C145.06 114.108 144.46 113.971 143.919 113.697C143.428 113.438 143.019 113.046 142.738 112.566C142.456 112.063 142.312 111.495 142.322 110.918C142.316 110.35 142.456 109.79 142.728 109.291C142.986 108.831 143.363 108.45 143.82 108.189C144.311 107.916 144.866 107.775 145.428 107.782C145.962 107.776 146.489 107.909 146.956 108.169ZM143.393 110.889V111.008L147.373 110.263C147.282 109.827 147.039 109.437 146.688 109.162C146.333 108.873 145.886 108.722 145.428 108.735C145.06 108.728 144.696 108.82 144.376 109.003C144.071 109.185 143.821 109.445 143.651 109.757C143.476 110.108 143.387 110.496 143.393 110.889ZM116.081 112.586C116.447 112.164 116.632 111.615 116.597 111.057L116.686 107.812H117.808V114.025H116.746V113.092C116.514 113.414 116.203 113.67 115.842 113.836C115.326 114.063 114.758 114.143 114.2 114.068C113.641 113.992 113.114 113.765 112.676 113.409C112.429 113.144 112.238 112.832 112.115 112.491C111.992 112.149 111.94 111.787 111.962 111.424V107.842H112.994V111.295C112.96 111.788 113.116 112.275 113.431 112.655C113.593 112.816 113.788 112.94 114.001 113.02C114.215 113.101 114.443 113.135 114.671 113.122C114.931 113.135 115.19 113.095 115.433 113.002C115.675 112.91 115.896 112.768 116.081 112.586ZM152.157 110.531C152.566 110.598 152.97 110.691 153.368 110.809L153.407 110.76C153.721 110.848 154.003 111.023 154.221 111.266C154.457 111.54 154.575 111.897 154.549 112.258C154.555 112.524 154.492 112.787 154.367 113.022C154.242 113.256 154.058 113.455 153.834 113.598C153.239 113.964 152.546 114.137 151.849 114.094C151.353 114.095 150.859 114.028 150.38 113.896C149.984 113.789 149.611 113.611 149.279 113.37L149.745 112.477C150.048 112.689 150.383 112.85 150.738 112.953C151.122 113.063 151.519 113.12 151.919 113.122C152.901 113.122 153.397 112.844 153.397 112.278C153.399 112.194 153.382 112.11 153.348 112.033C153.314 111.955 153.263 111.887 153.199 111.831C153.049 111.717 152.877 111.636 152.693 111.593C152.494 111.544 152.216 111.484 151.849 111.424C151.433 111.365 151.022 111.275 150.619 111.157C150.309 111.054 150.03 110.877 149.805 110.64C149.571 110.364 149.45 110.01 149.467 109.648C149.463 109.382 149.525 109.119 149.649 108.884C149.772 108.648 149.951 108.447 150.172 108.298C150.73 107.932 151.39 107.751 152.058 107.782C152.476 107.785 152.893 107.839 153.298 107.941C153.649 108.023 153.984 108.16 154.291 108.348L153.814 109.241C153.276 108.905 152.652 108.733 152.018 108.745C151.639 108.721 151.261 108.804 150.926 108.983C150.814 109.045 150.719 109.135 150.653 109.245C150.587 109.355 150.551 109.48 150.549 109.608C150.546 109.698 150.562 109.788 150.599 109.87C150.635 109.953 150.689 110.026 150.758 110.085C150.913 110.206 151.092 110.293 151.284 110.343L151.31 110.349C151.516 110.398 151.796 110.465 152.157 110.531ZM80.4312 110.531C80.8435 110.598 81.2512 110.691 81.6519 110.809L81.6916 110.76C82.0025 110.848 82.2815 111.023 82.4955 111.266C82.7316 111.54 82.8493 111.897 82.823 112.258C82.829 112.524 82.7664 112.787 82.6413 113.022C82.5161 113.256 82.3326 113.455 82.1085 113.598C81.5136 113.964 80.8204 114.137 80.1235 114.094C79.6272 114.094 79.1331 114.028 78.6546 113.896C78.2584 113.789 77.8849 113.611 77.553 113.37L78.0195 112.477C78.3218 112.689 78.6571 112.85 79.0119 112.953C79.396 113.063 79.7934 113.12 80.193 113.122C81.1755 113.122 81.6718 112.844 81.6718 112.278C81.6735 112.194 81.6565 112.11 81.6222 112.033C81.5879 111.955 81.5371 111.887 81.4733 111.831C81.3271 111.717 81.1577 111.636 80.977 111.593C80.7785 111.544 80.4907 111.484 80.1235 111.424C79.7106 111.365 79.3027 111.275 78.9028 111.157C78.5906 111.06 78.3097 110.881 78.0889 110.64C77.8512 110.366 77.727 110.011 77.7416 109.648C77.7374 109.382 77.7998 109.119 77.9228 108.884C78.0459 108.648 78.2258 108.447 78.4462 108.298C79.0046 107.932 79.6646 107.751 80.3319 107.782C80.7503 107.785 81.1668 107.839 81.5725 107.941C81.9229 108.023 82.258 108.16 82.565 108.348L82.0886 109.241C81.5509 108.904 80.9266 108.732 80.2922 108.745C79.9133 108.721 79.5352 108.804 79.2005 108.983C79.0891 109.045 78.9963 109.136 78.9317 109.246C78.8671 109.356 78.8331 109.481 78.8333 109.608C78.8297 109.698 78.8466 109.788 78.8827 109.87C78.9188 109.953 78.9732 110.026 79.0417 110.085C79.1928 110.207 79.369 110.295 79.5578 110.343L79.5843 110.349C79.7904 110.398 80.0698 110.465 80.4312 110.531ZM68.2337 108.08C68.6033 108.244 68.9245 108.5 69.1666 108.824L69.2659 107.842H70.3973V114.055H69.3155V113.062C69.0621 113.409 68.719 113.68 68.323 113.846C67.9275 114.026 67.4973 114.118 67.0626 114.114C66.498 114.125 65.9402 113.988 65.4449 113.717C64.9697 113.461 64.5799 113.071 64.3234 112.596C64.0463 112.088 63.906 111.517 63.9165 110.938C63.9059 110.363 64.0462 109.795 64.3234 109.291C64.5744 108.847 64.9415 108.48 65.3853 108.229C65.8797 107.954 66.4375 107.814 67.0031 107.822C67.427 107.819 67.8465 107.907 68.2337 108.08ZM68.1642 112.903C68.4829 112.724 68.7417 112.455 68.9086 112.129L68.9483 112.04C69.1054 111.712 69.1836 111.351 69.1766 110.988C69.1833 110.591 69.0912 110.199 68.9086 109.846C68.7383 109.526 68.4801 109.261 68.1642 109.082C67.836 108.902 67.4668 108.81 67.0924 108.814C66.7178 108.808 66.3482 108.901 66.0205 109.082C65.7047 109.261 65.4464 109.526 65.2762 109.846C65.0855 110.196 64.9897 110.59 64.9983 110.988C64.9874 111.386 65.0833 111.78 65.2762 112.129C65.443 112.455 65.7019 112.724 66.0205 112.903C66.3456 113.092 66.7164 113.188 67.0924 113.181C67.4682 113.187 67.8385 113.091 68.1642 112.903ZM74.5657 110.571C74.9747 110.638 75.3792 110.731 75.7765 110.849L75.8162 110.76C76.1311 110.86 76.4103 111.05 76.6201 111.305C76.8562 111.58 76.9739 111.937 76.9476 112.298C76.9545 112.565 76.8913 112.829 76.7641 113.064C76.637 113.3 76.4505 113.497 76.2231 113.638C75.6293 114.006 74.9353 114.179 74.2381 114.134C73.7451 114.134 73.2543 114.067 72.7792 113.935C72.3814 113.833 72.0072 113.655 71.6776 113.409L72.1441 112.516C72.4458 112.73 72.7813 112.891 73.1365 112.993C73.524 113.103 73.9247 113.16 74.3275 113.161C75.31 113.161 75.7963 112.883 75.7963 112.318C75.798 112.233 75.7811 112.149 75.7468 112.072C75.7125 111.995 75.6617 111.926 75.5978 111.871C75.4527 111.755 75.283 111.673 75.1016 111.633C74.9031 111.583 74.6153 111.524 74.2481 111.464C73.8354 111.403 73.4275 111.314 73.0273 111.196C72.7163 111.097 72.4361 110.919 72.2135 110.68C71.9794 110.404 71.8588 110.049 71.8761 109.688C71.8701 109.422 71.9316 109.158 72.0549 108.922C72.1781 108.686 72.359 108.485 72.5807 108.338C73.1385 107.97 73.799 107.789 74.4664 107.822C74.8847 107.826 75.3011 107.88 75.707 107.981C76.0574 108.062 76.3925 108.2 76.6995 108.388L76.2132 109.281C75.6763 108.942 75.0514 108.77 74.4168 108.785C74.0409 108.76 73.6657 108.842 73.335 109.023C73.221 109.083 73.1256 109.172 73.0591 109.283C72.9927 109.393 72.9576 109.519 72.9579 109.648C72.9543 109.738 72.9712 109.828 73.0073 109.91C73.0434 109.993 73.0978 110.066 73.1663 110.124C73.321 110.247 73.5004 110.335 73.6923 110.382L73.719 110.389C73.925 110.438 74.2044 110.504 74.5657 110.571ZM91.2193 106.839C90.6399 106.831 90.0684 106.975 89.5619 107.256L89.6016 107.167C89.101 107.436 88.6877 107.842 88.4106 108.338C88.1368 108.83 87.9932 109.383 87.9932 109.946C87.9932 110.508 88.1368 111.062 88.4106 111.554C88.6829 112.029 89.0813 112.421 89.5619 112.685C90.0684 112.966 90.6399 113.11 91.2193 113.102C91.6532 113.111 92.084 113.027 92.4828 112.855C92.8816 112.684 93.2392 112.43 93.5317 112.109L94.286 112.854C93.9153 113.285 93.45 113.624 92.9264 113.846C92.3643 114.069 91.7643 114.18 91.1598 114.174C90.3846 114.182 89.6199 113.994 88.9366 113.628C88.2922 113.281 87.7564 112.762 87.3884 112.129C87.0179 111.472 86.8233 110.73 86.8233 109.975C86.8233 109.221 87.0179 108.479 87.3884 107.822C87.7591 107.188 88.2985 106.669 88.9465 106.323C89.6298 105.957 90.3945 105.769 91.1697 105.777C91.7711 105.769 92.3682 105.881 92.9264 106.105C93.4545 106.318 93.9216 106.659 94.286 107.097L93.5317 107.832C93.2376 107.513 92.8797 107.26 92.4813 107.089C92.0828 106.918 91.6528 106.833 91.2193 106.839ZM108.949 113.153C109.074 113.201 109.208 113.221 109.342 113.211L109.381 113.132C109.676 113.153 109.969 113.076 110.215 112.913L110.572 113.727C110.392 113.875 110.182 113.984 109.957 114.045C109.717 114.121 109.465 114.158 109.213 114.154C108.949 114.172 108.684 114.138 108.433 114.053C108.183 113.968 107.952 113.833 107.754 113.658C107.576 113.462 107.438 113.234 107.35 112.985C107.261 112.736 107.223 112.472 107.238 112.209V106.512H108.369V107.871H110.146V108.804H108.369V112.169C108.358 112.306 108.374 112.445 108.417 112.576C108.459 112.707 108.527 112.828 108.617 112.933C108.71 113.03 108.823 113.105 108.949 113.153ZM99.7545 112.615C100.116 112.191 100.301 111.644 100.271 111.087L100.34 107.842H101.462V114.055H100.4V113.122C100.168 113.443 99.8566 113.7 99.4965 113.866C99.1179 114.043 98.7037 114.132 98.2857 114.124C97.9259 114.148 97.5648 114.1 97.2239 113.982C96.883 113.865 96.5691 113.68 96.3007 113.439C96.053 113.174 95.8619 112.862 95.7391 112.52C95.6162 112.179 95.5642 111.816 95.5862 111.454V107.871H96.668V111.325C96.6338 111.818 96.7902 112.304 97.1046 112.685C97.2671 112.845 97.4616 112.97 97.6753 113.05C97.889 113.131 98.1173 113.165 98.3452 113.151C98.6045 113.165 98.8637 113.124 99.1064 113.032C99.3491 112.94 99.5699 112.798 99.7545 112.615ZM105.231 113.154C105.355 113.202 105.488 113.221 105.62 113.211L105.66 113.132C105.837 113.131 106.013 113.094 106.176 113.022L106.235 113.945C105.975 114.042 105.699 114.089 105.422 114.084C105.168 114.102 104.914 114.066 104.675 113.981C104.436 113.896 104.217 113.762 104.032 113.588C103.859 113.4 103.727 113.179 103.641 112.939C103.556 112.699 103.52 112.443 103.536 112.189V105.321H104.657V112.169C104.64 112.446 104.729 112.719 104.905 112.933C104.996 113.03 105.107 113.105 105.231 113.154ZM201.463 107.703V108.536C201.7 108.22 202.024 107.979 202.396 107.842C202.805 107.676 203.244 107.595 203.686 107.603V109.291H203.269C203.039 109.27 202.806 109.296 202.586 109.368C202.366 109.439 202.163 109.555 201.989 109.708C201.83 109.886 201.708 110.095 201.631 110.322C201.555 110.549 201.524 110.789 201.542 111.028V114.005H199.716V107.703H201.463ZM188.819 107.991C189.306 108.242 189.715 108.623 190 109.092C190.298 109.621 190.442 110.223 190.417 110.829L185.752 111.732C185.873 112.032 186.094 112.281 186.377 112.437C186.704 112.597 187.065 112.675 187.429 112.665C187.727 112.67 188.023 112.62 188.303 112.516C188.567 112.414 188.807 112.259 189.007 112.06L190 113.112C189.665 113.457 189.259 113.725 188.81 113.897C188.361 114.068 187.879 114.139 187.4 114.104C186.747 114.118 186.1 113.975 185.514 113.687C184.991 113.43 184.551 113.031 184.243 112.536C183.951 112.025 183.797 111.447 183.797 110.859C183.797 110.27 183.951 109.692 184.243 109.182C184.529 108.691 184.944 108.289 185.444 108.02C185.979 107.737 186.576 107.594 187.181 107.603C187.75 107.597 188.313 107.73 188.819 107.991ZM186.05 109.44C185.747 109.777 185.584 110.217 185.593 110.67L188.71 110.065C188.627 109.749 188.438 109.472 188.174 109.281C187.884 109.078 187.535 108.976 187.181 108.993C186.972 108.984 186.763 109.019 186.568 109.096C186.373 109.173 186.197 109.29 186.05 109.44ZM181.896 112.611C181.996 112.649 182.103 112.664 182.209 112.655V112.645C182.474 112.651 182.733 112.574 182.953 112.427L183.44 113.717C183.236 113.853 183.012 113.954 182.775 114.015C182.508 114.078 182.235 114.111 181.961 114.114C181.325 114.159 180.698 113.953 180.214 113.538C179.999 113.316 179.834 113.051 179.728 112.76C179.622 112.469 179.578 112.16 179.599 111.851V106.313H181.435V107.881H182.993V109.291H181.435V111.821C181.425 111.932 181.438 112.044 181.472 112.149C181.506 112.255 181.561 112.353 181.633 112.437C181.707 112.514 181.797 112.573 181.896 112.611ZM207.358 110.224C207.786 110.289 208.21 110.378 208.628 110.492V110.482C208.971 110.576 209.281 110.765 209.522 111.028C209.779 111.327 209.911 111.715 209.889 112.109C209.892 112.487 209.766 112.855 209.532 113.151C209.274 113.475 208.93 113.719 208.539 113.856C208.026 114.036 207.485 114.124 206.941 114.114C206.422 114.113 205.905 114.047 205.403 113.916C204.979 113.819 204.573 113.655 204.202 113.429L204.817 112.119C205.124 112.314 205.459 112.461 205.81 112.556C206.19 112.669 206.584 112.726 206.981 112.725C207.755 112.725 208.142 112.536 208.142 112.159C208.142 112.068 208.11 111.979 208.052 111.909C207.994 111.839 207.914 111.79 207.824 111.772C207.502 111.669 207.169 111.599 206.832 111.563C206.398 111.512 205.97 111.422 205.552 111.295C205.219 111.196 204.918 111.012 204.678 110.76C204.416 110.455 204.284 110.059 204.311 109.658C204.303 109.275 204.425 108.9 204.659 108.596C204.917 108.268 205.26 108.018 205.651 107.871C206.154 107.691 206.685 107.603 207.219 107.613C207.667 107.614 208.113 107.664 208.549 107.762C208.931 107.842 209.3 107.979 209.641 108.169L209.035 109.469C208.48 109.16 207.855 108.999 207.219 109.003C206.916 108.984 206.613 109.039 206.336 109.162C206.253 109.2 206.183 109.26 206.132 109.335C206.081 109.41 206.052 109.498 206.048 109.588C206.046 109.683 206.076 109.774 206.134 109.849C206.192 109.923 206.274 109.975 206.366 109.995C206.688 110.103 207.021 110.18 207.358 110.224ZM168.38 107.785C168.706 107.917 168.998 108.119 169.237 108.378L169.247 107.703H171.083V114.015H169.337V113.29C169.091 113.571 168.784 113.791 168.44 113.933C168.096 114.076 167.723 114.138 167.352 114.114C166.791 114.118 166.238 113.982 165.744 113.717C165.267 113.45 164.875 113.055 164.612 112.576C164.345 112.045 164.205 111.458 164.205 110.864C164.205 110.269 164.345 109.683 164.612 109.152C164.875 108.676 165.268 108.283 165.744 108.02C166.236 107.748 166.79 107.608 167.352 107.613C167.703 107.594 168.054 107.653 168.38 107.785ZM168.296 112.5C168.494 112.418 168.673 112.295 168.82 112.139C169.12 111.782 169.284 111.33 169.284 110.864C169.284 110.397 169.12 109.946 168.82 109.588C168.671 109.436 168.491 109.316 168.293 109.235C168.095 109.155 167.883 109.117 167.669 109.122C167.454 109.116 167.24 109.155 167.04 109.235C166.841 109.315 166.66 109.436 166.508 109.588C166.208 109.946 166.044 110.397 166.044 110.864C166.044 111.33 166.208 111.782 166.508 112.139C166.658 112.295 166.838 112.418 167.038 112.5C167.238 112.582 167.453 112.622 167.669 112.615C167.884 112.621 168.097 112.582 168.296 112.5ZM176.602 109.388C176.351 109.236 176.062 109.157 175.768 109.162L175.798 109.112C175.569 109.106 175.342 109.149 175.132 109.238C174.921 109.327 174.732 109.46 174.577 109.628C174.277 109.986 174.113 110.437 174.113 110.903C174.113 111.37 174.277 111.821 174.577 112.179C174.732 112.335 174.918 112.458 175.123 112.54C175.328 112.622 175.547 112.661 175.768 112.655C176.063 112.66 176.353 112.58 176.605 112.426C176.856 112.271 177.058 112.048 177.187 111.782L178.596 112.556C178.378 113.057 177.996 113.469 177.514 113.727C176.984 114.022 176.384 114.17 175.778 114.154C175.147 114.164 174.524 114.021 173.961 113.737C173.446 113.476 173.013 113.078 172.711 112.586C172.418 112.075 172.265 111.497 172.265 110.908C172.265 110.32 172.418 109.742 172.711 109.231C173.01 108.734 173.443 108.331 173.961 108.07C174.524 107.786 175.147 107.643 175.778 107.653C176.383 107.639 176.982 107.782 177.514 108.07C178 108.333 178.381 108.753 178.596 109.261L177.187 110.025C177.056 109.762 176.853 109.541 176.602 109.388ZM195.766 112.139C196.054 111.781 196.196 111.327 196.163 110.869L196.232 107.703H198.059V114.005H196.322V113.261C196.064 113.541 195.745 113.759 195.389 113.896C194.882 114.103 194.327 114.167 193.786 114.079C193.245 113.992 192.738 113.757 192.322 113.4C192.066 113.111 191.87 112.775 191.746 112.411C191.622 112.046 191.571 111.66 191.598 111.276V107.703H193.434V111.047C193.434 112.06 193.851 112.566 194.704 112.566C194.901 112.575 195.098 112.541 195.281 112.468C195.465 112.394 195.63 112.282 195.766 112.139ZM261.19 112.665C261.285 112.675 261.382 112.675 261.477 112.665L261.507 112.615C261.592 112.601 261.675 112.578 261.755 112.546L261.835 113.955C261.517 114.069 261.18 114.123 260.842 114.114C260.54 114.134 260.237 114.093 259.951 113.994C259.664 113.895 259.401 113.74 259.175 113.538C258.969 113.327 258.809 113.075 258.707 112.798C258.604 112.521 258.561 112.225 258.579 111.931V105.321H260.406V111.831C260.398 111.943 260.412 112.054 260.448 112.16C260.484 112.266 260.54 112.363 260.614 112.447C260.688 112.523 260.778 112.582 260.877 112.62C260.977 112.658 261.083 112.673 261.19 112.665ZM255.731 108.04C256.219 108.292 256.627 108.673 256.912 109.142L256.942 109.092C257.239 109.638 257.373 110.258 257.329 110.879L252.664 111.782C252.785 112.082 253.006 112.331 253.29 112.486C253.617 112.646 253.978 112.725 254.342 112.715C254.639 112.72 254.936 112.669 255.215 112.566C255.479 112.464 255.719 112.309 255.92 112.109L256.912 113.161C256.578 113.507 256.171 113.775 255.722 113.947C255.273 114.118 254.791 114.189 254.312 114.154C253.659 114.167 253.012 114.024 252.426 113.737C251.901 113.483 251.46 113.083 251.156 112.586C250.854 112.079 250.7 111.498 250.709 110.908C250.701 110.32 250.852 109.741 251.146 109.231C251.438 108.742 251.856 108.341 252.357 108.07C252.888 107.788 253.482 107.645 254.083 107.653C254.656 107.646 255.222 107.778 255.731 108.04ZM252.962 109.489C252.659 109.827 252.496 110.267 252.505 110.72L255.602 110.114C255.528 109.798 255.341 109.519 255.076 109.33C254.785 109.129 254.437 109.028 254.083 109.043C253.876 109.035 253.669 109.071 253.476 109.148C253.283 109.225 253.108 109.341 252.962 109.489ZM247.98 107.752V108.586L248.01 108.536C248.226 108.232 248.521 107.991 248.863 107.842C249.269 107.676 249.705 107.595 250.143 107.603V109.32H249.736C249.513 109.308 249.289 109.341 249.077 109.416C248.866 109.491 248.672 109.607 248.506 109.757C248.347 109.936 248.225 110.145 248.148 110.372C248.072 110.599 248.041 110.838 248.059 111.077V114.055H246.233V107.752H247.98ZM266.569 110.531C266.896 110.63 267.191 110.815 267.422 111.067L267.452 111.018C267.591 111.169 267.698 111.348 267.764 111.543C267.831 111.737 267.856 111.944 267.839 112.149C267.841 112.525 267.719 112.891 267.492 113.191C267.233 113.514 266.889 113.758 266.499 113.896C265.986 114.077 265.445 114.164 264.901 114.154C264.382 114.153 263.865 114.086 263.363 113.955C262.942 113.859 262.54 113.695 262.172 113.469L262.778 112.159C263.086 112.35 263.42 112.497 263.77 112.596C264.15 112.708 264.545 112.765 264.941 112.764C265.715 112.764 266.102 112.576 266.102 112.199C266.102 112.107 266.07 112.019 266.012 111.949C265.954 111.878 265.874 111.83 265.785 111.812C265.462 111.707 265.129 111.637 264.792 111.603C264.358 111.551 263.93 111.462 263.512 111.335C263.181 111.237 262.883 111.052 262.648 110.799C262.382 110.496 262.247 110.1 262.271 109.698C262.268 109.315 262.39 108.942 262.619 108.636C262.876 108.307 263.22 108.056 263.611 107.911C264.11 107.73 264.639 107.643 265.169 107.653C265.617 107.653 266.063 107.703 266.499 107.802C266.885 107.88 267.257 108.017 267.601 108.209L266.986 109.509C266.431 109.199 265.805 109.038 265.169 109.043C264.87 109.023 264.57 109.077 264.296 109.201C264.212 109.238 264.139 109.297 264.087 109.373C264.034 109.448 264.004 109.536 263.998 109.628C263.998 109.722 264.029 109.813 264.087 109.887C264.144 109.96 264.225 110.013 264.316 110.035C264.638 110.143 264.971 110.22 265.308 110.263C265.733 110.328 266.154 110.418 266.569 110.531ZM225.342 112.139C225.634 111.783 225.776 111.328 225.739 110.869L225.758 107.703H227.585V114.015H225.858V113.27C225.613 113.537 225.316 113.75 224.984 113.896C224.64 114.045 224.268 114.119 223.893 114.114C223.531 114.135 223.168 114.082 222.827 113.96C222.486 113.837 222.173 113.646 221.908 113.4C221.65 113.113 221.453 112.777 221.328 112.412C221.204 112.047 221.154 111.66 221.183 111.276V107.703H223.009V111.047C223.009 112.06 223.436 112.566 224.29 112.566C224.485 112.575 224.681 112.541 224.862 112.468C225.044 112.394 225.207 112.282 225.342 112.139ZM242.333 112.139C242.628 111.785 242.774 111.329 242.74 110.869V107.703H244.566V114.015H242.829V113.27C242.588 113.537 242.294 113.75 241.965 113.896C241.458 114.103 240.903 114.167 240.362 114.079C239.821 113.992 239.315 113.757 238.899 113.4C238.643 113.111 238.447 112.775 238.323 112.411C238.198 112.046 238.148 111.66 238.174 111.276V107.703H240V111.047C240 112.06 240.427 112.566 241.281 112.566C241.476 112.575 241.672 112.542 241.854 112.468C242.035 112.395 242.199 112.282 242.333 112.139ZM231.882 112.665H232.17L232.438 112.546L232.517 113.955C232.198 114.067 231.862 114.121 231.525 114.114C231.224 114.133 230.923 114.091 230.638 113.993C230.354 113.894 230.092 113.739 229.867 113.538C229.659 113.328 229.498 113.076 229.394 112.799C229.29 112.522 229.245 112.226 229.262 111.931V105.321H231.098V111.831C231.084 112.054 231.155 112.274 231.296 112.447C231.373 112.522 231.465 112.581 231.566 112.618C231.667 112.656 231.774 112.672 231.882 112.665ZM218.117 109.388C217.866 109.236 217.577 109.157 217.283 109.162L217.322 109.112C217.094 109.104 216.866 109.146 216.655 109.235C216.444 109.324 216.255 109.458 216.102 109.628C215.802 109.986 215.638 110.437 215.638 110.903C215.638 111.37 215.802 111.821 216.102 112.179C216.255 112.336 216.439 112.459 216.642 112.541C216.845 112.623 217.064 112.662 217.283 112.655C217.578 112.661 217.869 112.582 218.121 112.427C218.373 112.272 218.574 112.048 218.702 111.782L220.121 112.556C219.9 113.055 219.519 113.467 219.039 113.727C218.506 114.022 217.903 114.17 217.293 114.154C216.666 114.163 216.046 114.02 215.486 113.737C214.97 113.474 214.535 113.076 214.226 112.586C214.005 112.208 213.863 111.79 213.807 111.356C213.751 110.923 213.783 110.482 213.9 110.061C214.018 109.64 214.219 109.247 214.491 108.905C214.764 108.563 215.102 108.279 215.486 108.07C216.046 107.787 216.666 107.644 217.293 107.653C217.901 107.639 218.503 107.782 219.039 108.07C219.523 108.335 219.904 108.754 220.121 109.261L218.702 110.025C218.571 109.762 218.368 109.541 218.117 109.388ZM235.599 112.651C235.698 112.689 235.805 112.704 235.911 112.695L235.951 112.645C236.216 112.651 236.476 112.574 236.695 112.427L237.182 113.717C236.98 113.855 236.754 113.956 236.517 114.015C236.25 114.078 235.977 114.112 235.703 114.114C235.068 114.157 234.441 113.951 233.956 113.538C233.741 113.316 233.576 113.051 233.47 112.76C233.364 112.469 233.32 112.16 233.341 111.851V106.313H235.137V107.881H236.695V109.291H235.137V111.861C235.128 111.972 235.14 112.083 235.174 112.189C235.209 112.295 235.263 112.392 235.336 112.476C235.409 112.553 235.499 112.613 235.599 112.651Z" fill="white"/>
</svg>
