<svg viewBox="0 0 71 24" xmlns="http://www.w3.org/2000/svg"><g clip-path="url(#a)"><path fill-rule="evenodd" clip-rule="evenodd" d="M55.803 6.425a.22.22 0 0 1-.192-.113l-1.537-2.794a.219.219 0 1 1 .384-.211L55.995 6.1a.22.22 0 0 1-.192.324zm-1.98-3.6a.22.22 0 0 1-.193-.113l-.628-1.142a.219.219 0 1 1 .384-.212l.628 1.143a.219.219 0 0 1-.192.325zm4.123 5.33a.22.22 0 0 1-.212-.166l-1.77-6.887a.219.219 0 1 1 .425-.109l1.77 6.887a.22.22 0 0 1-.213.274zm-1.823-.912a.22.22 0 0 1 .385-.211l.437.796a.219.219 0 1 1-.384.212l-.438-.797zm-.552 1.338a.219.219 0 0 1-.16-.07l-3.999-4.255a.219.219 0 1 1 .32-.3l3.999 4.255a.22.22 0 0 1-.16.37zm4.464-.427a.22.22 0 0 1-.213-.274l1.663-6.47a.22.22 0 0 1 .425.109l-1.662 6.47a.22.22 0 0 1-.213.165zm-5.944 6.392a.22.22 0 0 1-.292-.105.22.22 0 0 1 .105-.292l.925-.435a.22.22 0 0 1 .187.397l-.925.435zm1.04-3.8a.22.22 0 0 1-.276.142l-4.298-1.396a.22.22 0 1 1 .136-.416l4.297 1.395a.219.219 0 0 1 .14.276zm-4.495 4.94 2.381-1.12a.22.22 0 0 1 .187.397l-2.382 1.12a.22.22 0 0 1-.292-.105.22.22 0 0 1 .106-.292zm4.245-3.126a.22.22 0 0 1 .083.43l-6.6 1.259a.22.22 0 0 1-.082-.43l6.6-1.259zm.028-.597-2.898-.182a.22.22 0 1 1 .027-.438l2.898.182a.219.219 0 0 1-.013.438h-.014zm8.122-2.305a.219.219 0 0 1-.117-.404l5.566-3.53a.22.22 0 1 1 .235.37l-5.567 3.53a.219.219 0 0 1-.117.034zm3.963-.487a.22.22 0 1 1 .135.417l-4.003 1.3a.219.219 0 1 1-.135-.417l4.003-1.3zm-4.154 2.587a.219.219 0 0 1 .205-.232l2.4-.152a.22.22 0 0 1 .027.438l-2.4.151h-.013a.219.219 0 0 1-.219-.205zm4.32 4.325-4.195-1.972a.22.22 0 1 1 .187-.397l4.194 1.972a.22.22 0 1 1-.187.397zm-5.933-7.929a.22.22 0 0 1-.192-.325l1.301-2.365a.22.22 0 0 1 .384.211l-1.3 2.365a.219.219 0 0 1-.193.114zm-7.112.495.952.604a.219.219 0 1 1-.234.37l-.953-.604a.22.22 0 1 1 .235-.37zm14.115.57a.22.22 0 0 1-.068-.427l1.535-.499a.22.22 0 0 1 .136.417l-1.535.499a.216.216 0 0 1-.068.01zm-4.816-1.706a.22.22 0 0 1-.16-.37l2.044-2.175a.22.22 0 1 1 .32.3l-2.044 2.176a.22.22 0 0 1-.16.069zm-.837.351a.22.22 0 0 1 .32.3l-.328.347a.218.218 0 0 1-.31.01.22.22 0 0 1-.009-.31l.327-.347zM63.1 4.75a.22.22 0 0 1-.192-.325l1.57-2.853a.22.22 0 0 1 .385.211l-1.57 2.853a.22.22 0 0 1-.193.114zm-1.41 11.334a.219.219 0 1 1 .354-.258l1.17 1.61a.22.22 0 1 1-.355.257l-1.17-1.61zm4.658-11.591a.218.218 0 0 1-.31.01.22.22 0 0 1-.01-.31l1.164-1.24a.22.22 0 0 1 .32.301l-1.164 1.239zm-13.282 4.01-3.524-2.234a.22.22 0 1 1 .235-.37l3.524 2.234a.22.22 0 1 1-.235.37zm9.76 13.179a.22.22 0 0 1 .285.123l.424 1.069a.22.22 0 0 1-.408.161l-.424-1.069a.22.22 0 0 1 .124-.284zm-2.02-5.697.286.723a.22.22 0 0 1-.408.161l-.287-.723a.22.22 0 0 1 .408-.16zm-.601 3.874a.219.219 0 1 1-.435.055l-.483-3.82a.219.219 0 1 1 .435-.055l.483 3.82zm-.303 1.098a.22.22 0 0 1 .435-.055l.282 2.232a.22.22 0 0 1-.435.055l-.282-2.232zm2.743-5.934a.22.22 0 0 1 .309-.03l4.689 3.875a.22.22 0 1 1-.28.338l-4.689-3.875a.219.219 0 0 1-.029-.309zm3.755-3.707 4.367-.275a.22.22 0 1 1 .028.438l-4.367.274h-.015a.22.22 0 0 1-.013-.437zm-3.3 1.245 6.93 1.32a.22.22 0 0 1-.083.431l-6.93-1.32a.22.22 0 0 1 .083-.43zM58.771.22a.22.22 0 0 1 .439 0v1.657a.22.22 0 0 1-.439 0V.219zm4.92 18.246a.22.22 0 0 1 .307.048l1.637 2.252a.219.219 0 1 1-.354.257l-1.638-2.251a.22.22 0 0 1 .049-.306zm4.633-2.32 1.535.722a.219.219 0 1 1-.187.396l-1.535-.721a.219.219 0 1 1 .187-.397zm-7.112 1.46a.22.22 0 0 1 .285.124l1.175 2.965a.219.219 0 1 1-.408.161l-1.175-2.965a.22.22 0 0 1 .123-.284zm-6.184-2.615a.22.22 0 0 1 .28.338l-4.544 3.755a.219.219 0 1 1-.279-.338l4.543-3.755zm-6.799 1.827 1.508-.71a.22.22 0 0 1 .187.397l-1.508.71a.219.219 0 1 1-.187-.397zm3.03-5.304a.22.22 0 0 1-.232.205l-3.84-.241a.22.22 0 0 1 .027-.438l3.84.241a.22.22 0 0 1 .205.233zm-1.701-2.346-1.848-.6a.22.22 0 0 1 .135-.417l1.848.6a.22.22 0 1 1-.135.417zm2.325 12.234 1.05-1.444a.22.22 0 0 1 .355.258l-1.05 1.444a.22.22 0 0 1-.306.048.219.219 0 0 1-.049-.306zm4.055-5.576a.22.22 0 1 1 .354.257l-2.369 3.259a.219.219 0 0 1-.355-.258l2.37-3.258zm1.238.158a.22.22 0 0 1 .408.161l-.938 2.366a.22.22 0 1 1-.407-.162l.937-2.365zm1.083.054a.22.22 0 0 1 .435.055l-.976 7.715a.219.219 0 1 1-.435-.055l.976-7.715zm.512-12.626a.22.22 0 0 1 .439 0v4.523a.22.22 0 0 1-.439 0V3.412zm-2.96 16.017a.22.22 0 0 1 .408.16l-1.365 3.445a.22.22 0 0 1-.407-.161l1.364-3.444zM23.42 7.814c-.25.51-.605.905-1.063 1.187-.457.282-.99.422-1.596.422a2.65 2.65 0 0 1-1.21-.267 2.441 2.441 0 0 1-.891-.776v3.38h-1.87V2.662h1.87v.982a2.34 2.34 0 0 1 .88-.777 2.581 2.581 0 0 1 1.184-.268c.607 0 1.144.143 1.609.43.465.286.826.69 1.081 1.212.255.521.383 1.122.383 1.801 0 .672-.126 1.262-.377 1.772zM18.66 5.98c0 .555.151 1.003.455 1.342.304.34.694.51 1.172.51.477 0 .866-.172 1.166-.516.3-.344.449-.79.449-1.337 0-.538-.15-.98-.45-1.323-.299-.344-.688-.516-1.165-.516-.478 0-.868.172-1.172.516-.303.344-.455.785-.455 1.324zm23.067 2.05c.25 0 .45-.043.6-.13a.425.425 0 0 0 .225-.392c0-.19-.095-.34-.285-.447-.19-.107-.496-.224-.917-.348a9.072 9.072 0 0 1-1.111-.398 1.987 1.987 0 0 1-.759-.603c-.211-.269-.316-.619-.316-1.05 0-.663.243-1.177.729-1.541.486-.365 1.1-.547 1.846-.547.444 0 .89.064 1.335.192.445.129.85.314 1.215.554l-.644 1.305a5.368 5.368 0 0 0-1.057-.479 3.102 3.102 0 0 0-.935-.168c-.226 0-.408.042-.546.124a.41.41 0 0 0-.207.373c0 .183.094.324.28.423.186.1.49.211.91.336.462.14.842.28 1.142.416.3.137.559.34.778.609.218.27.328.624.328 1.063 0 .663-.25 1.179-.747 1.547-.498.37-1.136.553-1.913.553-.534 0-1.049-.08-1.542-.242a3.927 3.927 0 0 1-1.287-.69l.607-1.292c.331.265.702.47 1.111.615a3.47 3.47 0 0 0 1.16.218zM18.66 21.464h-1.87V12.24h1.87v9.223zM12.957 19.3c.26-.315.389-.721.389-1.218v-3.307h1.858v6.688h-1.858v-1.18c-.446.836-1.174 1.254-2.186 1.254-.72 0-1.293-.23-1.718-.69-.426-.46-.638-1.083-.638-1.87v-4.202h1.87v3.655c0 .422.11.754.328.994.219.24.518.36.899.36.445-.008.797-.169 1.056-.484zm-8.403.51a2.7 2.7 0 0 0 1.16-.28 3.652 3.652 0 0 0 1.05-.752l1.13 1.255c-.454.48-.986.862-1.597 1.144a4.359 4.359 0 0 1-1.84.422c-.834 0-1.591-.196-2.27-.59a4.259 4.259 0 0 1-1.604-1.622C.195 18.7 0 17.933 0 17.087c0-.836.199-1.595.595-2.274A4.293 4.293 0 0 1 2.23 13.21a4.61 4.61 0 0 1 2.3-.584c.616 0 1.223.13 1.822.392.6.26 1.109.615 1.53 1.062l-1.117 1.405a3.254 3.254 0 0 0-1.026-.84 2.562 2.562 0 0 0-1.184-.304c-.477 0-.915.12-1.312.36a2.577 2.577 0 0 0-.935.983c-.227.414-.34.874-.34 1.38 0 .506.113.967.34 1.385a2.6 2.6 0 0 0 .935.995 2.45 2.45 0 0 0 1.312.367zm18.068-.647c0 .514.198.77.596.77.274 0 .578-.082.91-.248l.389 1.405a3.026 3.026 0 0 1-.808.341c-.296.08-.593.119-.892.119-.608 0-1.102-.178-1.482-.535-.38-.356-.57-.866-.57-1.528v-3.095h-.912v-1.318h.912v-1.84h1.857v1.84h1.773v1.33h-1.773v2.76zm12.624-4.388v1.206c.227-.414.523-.729.887-.944.365-.216.79-.328 1.275-.336v1.802a2.619 2.619 0 0 0-.291-.012c-.575 0-1.03.16-1.366.479-.337.318-.505.744-.505 1.273v3.22h-1.87v-6.688h1.87zm4.125.367c.51-.286 1.093-.429 1.748-.429 1.053 0 1.853.311 2.4.932.545.622.819 1.488.819 2.598 0 .2-.004.353-.013.46h-4.687c.105.423.308.752.607.989.3.235.66.354 1.08.354.309 0 .604-.06.888-.18a2.32 2.32 0 0 0 .764-.529l.984 1.02a3.306 3.306 0 0 1-1.208.876 3.979 3.979 0 0 1-1.585.304c-.688 0-1.29-.14-1.803-.422a2.924 2.924 0 0 1-1.19-1.194c-.28-.514-.42-1.106-.42-1.777 0-.68.143-1.278.426-1.796a3.01 3.01 0 0 1 1.19-1.206zm.747 1.367c-.271.262-.443.616-.516 1.064h2.975c-.017-.44-.154-.792-.413-1.057-.259-.265-.603-.398-1.032-.398-.405 0-.743.13-1.014.391zM29.604 19.3c.26-.314.39-.72.39-1.217v-3.307h1.857v6.688h-1.858v-1.18c-.445.836-1.174 1.254-2.185 1.254-.721 0-1.294-.23-1.719-.69-.425-.46-.637-1.083-.637-1.87v-4.202h1.87v3.655c0 .422.11.754.327.994.22.24.519.36.9.36.444-.008.796-.169 1.055-.484zM35.15 8.033c.251 0 .452-.044.601-.131a.425.425 0 0 0 .225-.392c0-.19-.095-.34-.285-.447-.19-.107-.496-.224-.917-.348a9.056 9.056 0 0 1-1.111-.398 1.984 1.984 0 0 1-.76-.603c-.21-.269-.315-.619-.315-1.05 0-.663.242-1.177.729-1.541.486-.365 1.1-.547 1.845-.547.446 0 .89.064 1.336.192.446.129.85.314 1.214.554l-.643 1.305a5.366 5.366 0 0 0-1.057-.479 3.098 3.098 0 0 0-.934-.168c-.227 0-.41.042-.547.124a.408.408 0 0 0-.206.373c0 .183.092.324.279.423.186.1.49.211.911.336.461.14.842.28 1.14.416.3.137.56.34.778.609.22.27.328.624.328 1.063 0 .663-.248 1.179-.747 1.547-.498.37-1.135.553-1.912.553-.535 0-1.048-.08-1.543-.242a3.935 3.935 0 0 1-1.287-.69L32.88 7.2a3.8 3.8 0 0 0 1.11.615c.41.145.796.218 1.16.218zm-9.61-2.157c.433-.353 1.046-.533 1.84-.54h1.797V5.21c0-.356-.116-.632-.347-.826-.23-.195-.568-.293-1.013-.293-.608 0-1.256.195-1.944.584l-.583-1.317a7.692 7.692 0 0 1 1.458-.584 5.6 5.6 0 0 1 1.493-.187c.875 0 1.553.212 2.034.634.482.423.727 1.011.735 1.765l.012 4.363h-1.834v-.783a2.094 2.094 0 0 1-.85.646 3.03 3.03 0 0 1-1.201.224c-.689 0-1.236-.193-1.64-.578-.405-.386-.607-.888-.607-1.51 0-.63.217-1.12.65-1.473zm3.126 1.908c.284-.19.454-.431.51-.721v-.597h-1.469c-.364 0-.634.06-.808.18-.173.121-.26.314-.26.579 0 .256.09.461.273.614.181.154.43.23.746.23.39 0 .725-.094 1.008-.285z" fill="#161617"/></g><defs><clipPath id="a"><path fill="#fff" d="M0 0h71v24H0z"/></clipPath></defs></svg>
