<?xml version="1.0" encoding="utf-8"?>
<!-- Generator: Adobe Illustrator 26.3.1, SVG Export Plug-In . SVG Version: 6.00 Build 0)  -->
<svg version="1.1" id="Calque_2" xmlns="http://www.w3.org/2000/svg" xmlns:xlink="http://www.w3.org/1999/xlink" x="0px" y="0px"
	 viewBox="0 0 529 169" style="enable-background:new 0 0 529 169;" xml:space="preserve">
<style type="text/css">
	.st0{fill:#74CEE2;}
</style>
<g>
	<g>
		<polygon class="st0" points="186.7,66.94 186.7,34.07 209.95,50.51 		"/>
		<path class="st0" d="M245.8,72.31c-7.42,0-14.19,2.69-19.45,7.11c3.35,3.82,5.88,8.38,7.33,13.43c2.86-3.55,7.21-5.85,12.13-5.85
			c8.62,0,15.62,6.99,15.62,15.61c0,8.63-6.99,15.62-15.62,15.62c-6.53,0-12.11-4.01-14.45-9.7h-15.27
			c2.75,13.9,15,24.39,29.72,24.39c16.74,0,30.31-13.57,30.31-30.31S262.54,72.31,245.8,72.31z"/>
		<path class="st0" d="M287.06,132.27V84.91h-8.88V71.53h8.88V63.6c0-5.92,1.97-10.76,5.92-14.51c3.95-3.75,9.27-5.62,15.98-5.62
			c7.11,0,12.63,1.97,16.58,5.92l-8.82,9.83c-1.11-1.22-3.08-1.83-5.92-1.83c-2.09,0-3.8,0.64-5.12,1.93
			c-1.32,1.28-1.98,3.5-1.98,6.66v5.57h8.88v13.38h-8.88v35.84L287.06,132.27z"/>
		<path class="st0" d="M329.74,132.27V84.91h-8.88V71.53h8.88V63.6c0-5.92,1.97-10.76,5.92-14.51c3.95-3.75,9.28-5.62,15.98-5.62
			c7.1,0,12.63,1.97,16.58,5.92l-8.82,9.83c-1.1-1.22-3.08-1.83-5.92-1.83c-2.09,0-3.8,0.64-5.12,1.93
			c-1.32,1.28-1.98,3.5-1.98,6.66v5.57h8.88v13.38h-8.88v35.7L329.74,132.27z"/>
		<path class="st0" d="M371.4,52.91c1.58-1.6,3.71-2.4,6.4-2.4c2.84,0,5.05,0.8,6.63,2.4c1.58,1.6,2.37,3.58,2.37,5.95
			c0,2.37-0.79,4.34-2.37,5.92c-1.58,1.58-3.75,2.37-6.51,2.37c-2.76,0-4.93-0.79-6.51-2.37c-1.58-1.57-2.37-3.55-2.37-5.92
			C369.04,56.49,369.83,54.51,371.4,52.91z M386.2,120.46V73.01h-16.58v59.26L386.2,120.46z"/>
		<path class="st0" d="M403.48,124.87c-5.92-4.93-8.88-11.34-8.88-19.24v-5.92c0-7.9,2.96-14.31,8.88-19.24
			c5.92-4.93,12.85-7.4,20.78-7.4c9.47,0,17.34,3.35,23.62,10.06l-11.84,8.88c-3.55-3.55-7.5-5.33-11.84-5.33
			c-3.95,0-7.4,1.58-10.36,4.74c-2.96,3.15-4.44,6.9-4.44,11.25c0,4.34,1.38,8.09,4.14,11.25c2.76,3.16,6.31,4.74,10.65,4.74
			c4.34,0,8.29-1.78,11.84-5.33l11.84,8.88c-6.31,6.71-14.21,10.07-23.68,10.07C416.31,132.27,409.4,129.8,403.48,124.87z"/>
		<path class="st0" d="M453.55,102.67c0-8.68,2.76-15.79,8.29-21.31c5.52-5.53,12.63-8.29,21.31-8.29c8.68,0,15.59,2.76,20.72,8.29
			c3.9,4.2,6.33,9.32,7.26,15.36c0.29,1.89,0.44,3.88,0.44,5.96v5.92h-40.85c0.39,3.16,1.77,5.62,4.14,7.4
			c2.37,1.78,5.13,2.67,8.29,2.67c5.53,0,10.46-1.58,14.8-4.74l9.47,9.47c-4.34,5.92-12.43,8.88-24.27,8.88
			c-8.68,0-15.79-2.76-21.31-8.29C456.31,118.46,453.55,111.35,453.55,102.67z M491.44,89.35c-2.37-1.78-5.13-2.67-8.29-2.67
			c-3.16,0-5.92,0.89-8.29,2.67c-2.37,1.77-3.55,4.24-3.55,7.4h23.68C494.99,93.59,493.81,91.12,491.44,89.35z"/>
	</g>
	<g>
		<path d="M26.5,124.87c-5.92-4.93-8.88-11.34-8.88-19.24v-5.92c0-7.9,2.96-14.31,8.88-19.24c5.92-4.93,12.85-7.4,20.78-7.4
			c9.47,0,17.34,3.35,23.62,10.06l-11.84,8.88c-3.55-3.55-7.5-5.33-11.84-5.33c-3.95,0-7.4,1.58-10.36,4.74
			c-2.96,3.15-4.44,6.9-4.44,11.25c0,4.34,1.38,8.09,4.14,11.25c2.76,3.16,6.31,4.74,10.66,4.74c4.34,0,8.29-1.78,11.84-5.33
			l11.84,8.88c-6.31,6.71-14.21,10.07-23.68,10.07C39.32,132.27,32.42,129.8,26.5,124.87z"/>
		<path d="M81.48,52.91c1.58-1.6,3.71-2.4,6.39-2.4c2.84,0,5.05,0.8,6.63,2.4c1.58,1.6,2.37,3.58,2.37,5.95
			c0,2.37-0.79,4.34-2.37,5.92c-1.58,1.58-3.75,2.37-6.51,2.37c-2.76,0-4.93-0.79-6.51-2.37c-1.58-1.57-2.37-3.55-2.37-5.92
			C79.12,56.49,79.91,54.51,81.48,52.91z M96.28,120.51v-47.5H79.71v59.26L96.28,120.51z"/>
		<path d="M124.27,94.62v37.65H107.7V74.79l16.57-1.78v5.39c3.99-3.55,8.72-5.33,14.21-5.33c7.5,0,13.22,2.27,17.17,6.81
			c3.94,4.54,5.92,9.77,5.92,15.69v24.94l-16.58,11.76V99.71c0-3.95-0.99-7.01-2.96-9.18c-1.97-2.17-4.95-3.31-8.94-3.43
			C129.66,87.34,126.72,89.84,124.27,94.62z"/>
		<path d="M230.19,102.62L230,99.33c-1.64-15.19-14.5-27.02-30.13-27.02c-16.74,0-30.31,13.57-30.31,30.31
			c0,16.74,13.57,30.31,30.31,30.31c7.42,0,14.19-2.69,19.46-7.11c-3.35-3.82-5.88-8.38-7.33-13.44c-2.86,3.56-7.21,5.85-12.13,5.85
			c-6.53,0-12.11-4.01-14.44-9.7h30.66h15.27C230.61,106.71,230.19,104.72,230.19,102.62z M185.43,96.71
			c2.33-5.69,7.92-9.7,14.44-9.7c6.53,0,12.12,4.01,14.45,9.7H185.43z"/>
	</g>
</g>
</svg>
